<svg width="2000" height="3272" viewBox="0 0 2000 3272" fill="none" xmlns="http://www.w3.org/2000/svg">
<g id="V2 1">
<g id="svgDrawingGroup">
<g id="floorGraphicsGroup">
<g id="Vector">
<path d="M54.6504 930.985V1013.49H99.7047V930.985H54.6504ZM55.8206 2024.58V2124.05H99.7047V2024.28L55.8206 2024.52M993.769 2252.48V2264.77H1605.8V2252.48H993.769ZM1605.8 2371.26V2270.62H1473.1V2371.26H1605.8ZM1605.8 2466.93H1533.19L1533.48 2487.23L1605.8 2489.57V2466.93ZM1483.46 2466.93H993.769V2471.9H1085.05L1127.18 2484.19L1482.34 2485.59L1483.46 2466.93ZM1483.22 1421.61H993.769V1426.58H1085.05L1127.18 1438.87L1482.29 1440.27L1483.22 1421.61ZM1599.08 1421.61H1532.96L1533.43 1441.91L1599.08 1444.02V1421.61ZM1483.16 189.053H993.769V194.026H1085.05L1127.18 206.314L1482.29 207.718L1483.16 189.053ZM1605.8 212.165V189.053H1532.9L1533.48 209.415L1605.8 212.165ZM265.586 1190.78V1183.76V1183.17H235.745V1183.76V1190.78H265.586ZM897.224 956.145V918.698H838.712V956.145H897.224ZM121.939 3112.9V2877.1H99.7047V3135.13M99.7047 2877.1V2747.61V2877.1ZM121.939 2877.1V2747.61V2877.1ZM99.7047 2747.61H121.939V2687.58H99.7047V2747.61ZM99.7047 2687.58V2306.54V2687.58ZM121.939 2687.58V2306.54V2687.58ZM121.939 2294.32V2235.51H99.7047V2306.54H121.939V2306.02M121.939 2017.55V2017.2H99.7047V2136.04H121.939V2029.26M99.7047 2017.2V1887.72V2017.2ZM121.939 2017.2V1887.72V2017.2ZM99.7047 1887.72H121.939V1827.27H99.7047V1887.72ZM99.7047 1827.27V1697.79V1827.27ZM121.939 1827.27V1697.79V1827.27ZM99.7047 1697.79H121.939V1530.38H99.7047V1697.79ZM99.7047 1530.38V1400.9V1530.38ZM121.939 1530.38V1400.9V1530.38ZM99.7047 1400.9H121.939V1340.16H99.7047V1400.9ZM99.7047 1340.16V1210.67V1340.16ZM121.939 1340.16V1210.67V1340.16ZM121.939 1183.76V1124.66H99.7047V1210.67H121.939M121.939 906.995H99.7047V1025.19H121.939V918.698M99.7047 906.995V586.934V906.995ZM121.939 906.995V586.934V906.995ZM99.7047 586.934H121.939V420.468H99.7047V586.934ZM99.7047 420.468V100.407V420.468ZM121.939 420.468V100.407V420.468ZM99.7047 77.8796V100.407H121.939V100.114M99.7047 2747.61V2749.95H105.556V2747.61H99.7047ZM99.7047 2877.1V2874.76H105.556V2877.1H99.7047ZM99.7047 2749.95V2874.76V2749.95ZM102.63 2749.95V2874.76V2749.95ZM105.556 2749.95V2874.76V2749.95Z" fill="#F5F5F5"/>
<path d="M55.8206 2024.58V2124.05H99.7047V2024.28L55.8206 2024.52M121.939 3112.9V2877.1M121.939 2877.1H99.7047M121.939 2877.1V2747.61M99.7047 2877.1V3135.13M99.7047 2877.1V2747.61M99.7047 2877.1V2874.76M99.7047 2877.1H105.556V2874.76M99.7047 2747.61H121.939M99.7047 2747.61V2687.58M99.7047 2747.61V2749.95M99.7047 2747.61H105.556V2749.95M121.939 2747.61V2687.58M121.939 2687.58H99.7047M121.939 2687.58V2306.54M99.7047 2687.58V2306.54M99.7047 2306.54V2235.51H121.939V2294.32M99.7047 2306.54H121.939M121.939 2306.54V2306.02M121.939 2017.55V2017.2M121.939 2017.2H99.7047M121.939 2017.2V1887.72M99.7047 2017.2V2136.04H121.939V2029.26M99.7047 2017.2V1887.72M99.7047 1887.72H121.939M99.7047 1887.72V1827.27M121.939 1887.72V1827.27M121.939 1827.27H99.7047M121.939 1827.27V1697.79M99.7047 1827.27V1697.79M99.7047 1697.79H121.939M99.7047 1697.79V1530.38M121.939 1697.79V1530.38M121.939 1530.38H99.7047M121.939 1530.38V1400.9M99.7047 1530.38V1400.9M99.7047 1400.9H121.939M99.7047 1400.9V1340.16M121.939 1400.9V1340.16M121.939 1340.16H99.7047M121.939 1340.16V1210.67H99.7047M99.7047 1340.16V1210.67M99.7047 1210.67V1124.66H121.939V1183.76M99.7047 906.995H121.939V586.934M99.7047 906.995V1025.19H121.939V918.698M99.7047 906.995V586.934M99.7047 586.934H121.939M99.7047 586.934V420.468M121.939 586.934V420.468M121.939 420.468H99.7047M121.939 420.468V100.407M99.7047 420.468V100.407M99.7047 100.407V77.8796M99.7047 100.407H121.939M121.939 100.407V100.114M99.7047 2749.95H105.556M99.7047 2749.95V2874.76M105.556 2749.95V2874.76M99.7047 2874.76H105.556M102.63 2749.95V2874.76M54.6504 930.985V1013.49H99.7047V930.985H54.6504ZM993.769 2252.48V2264.77H1605.8V2252.48H993.769ZM1605.8 2371.26V2270.62H1473.1V2371.26H1605.8ZM1605.8 2466.93H1533.19L1533.48 2487.23L1605.8 2489.57V2466.93ZM1483.46 2466.93H993.769V2471.9H1085.05L1127.18 2484.19L1482.34 2485.59L1483.46 2466.93ZM1483.22 1421.61H993.769V1426.58H1085.05L1127.18 1438.87L1482.29 1440.27L1483.22 1421.61ZM1599.08 1421.61H1532.96L1533.43 1441.91L1599.08 1444.02V1421.61ZM1483.16 189.053H993.769V194.026H1085.05L1127.18 206.314L1482.29 207.718L1483.16 189.053ZM1605.8 212.165V189.053H1532.9L1533.48 209.415L1605.8 212.165ZM265.586 1190.78V1183.76V1183.17H235.745V1183.76V1190.78H265.586ZM897.224 956.145V918.698H838.712V956.145H897.224Z" stroke="black" stroke-width="5" stroke-miterlimit="10" stroke-linecap="square"/>
</g>
<g id="Vector_2">
<path d="M99.7046 2306.49V2308.83H105.556V2306.49H99.7046ZM99.7046 2687.52V2685.18H105.556V2687.52H99.7046ZM99.7046 2308.83V2685.18V2308.83ZM102.63 2308.83V2685.23V2308.83ZM105.556 2308.83V2685.18V2308.83ZM99.7046 2136.04V2138.38H105.556V2136.04H99.7046ZM99.7046 2235.51V2233.17H105.556V2235.51H99.7046ZM99.7046 2138.38H52.3098H99.7046ZM99.7046 2233.17H52.3098H99.7046ZM52.3098 2138.38L53.012 2146.57L55.1769 2154.59L58.6876 2162.08L63.3686 2168.87L69.2198 2174.72L76.0072 2179.4L83.4967 2182.91L91.4544 2185.07L99.7046 2185.78M52.3098 2233.17L53.012 2224.98L55.1769 2216.96L58.6876 2209.47L63.3686 2202.69L69.2198 2196.83L76.0072 2192.15L83.4967 2188.64L91.4544 2186.48L99.7046 2185.78M99.7046 1887.72V1890.06H105.556V1887.72H99.7046ZM99.7046 2017.2V2014.86H105.556V2017.2H99.7046ZM99.7046 1890.06V2014.86V1890.06ZM102.63 1890.06V2014.86V1890.06ZM105.556 1890.06V2014.86V1890.06ZM99.7046 1697.79V1700.13H105.556V1697.79H99.7046ZM99.7046 1827.27V1824.93H105.556V1827.27H99.7046ZM99.7046 1700.13V1824.93V1700.13ZM102.63 1700.13V1824.93V1700.13ZM105.556 1700.13V1824.93V1700.13ZM99.7046 1400.9V1403.24H105.556V1400.9H99.7046ZM99.7046 1530.38V1528.04H105.556V1530.38H99.7046ZM99.7046 1403.24V1528.04V1403.24ZM102.63 1403.24V1528.04V1403.24ZM105.556 1403.24V1528.04V1403.24ZM99.7046 1210.67V1213.01H105.556V1210.67H99.7046ZM99.7046 1340.16V1337.82H105.556V1340.16H99.7046ZM99.7046 1213.01V1337.82V1213.01ZM102.63 1213.01V1337.82V1213.01ZM105.556 1213.01V1337.82V1213.01ZM99.7046 1025.19V1027.53H105.556V1025.19H99.7046ZM99.7046 1124.66V1122.32H105.556V1124.66H99.7046ZM99.7046 1027.53H52.3098H99.7046ZM99.7046 1122.32H52.3098H99.7046ZM52.3098 1027.53L53.012 1035.72L55.1769 1043.74L58.6876 1051.23L63.3686 1058.01L69.2198 1063.87L76.0072 1068.55L83.4967 1072.06L91.4544 1074.22L99.7046 1074.92M52.3098 1122.32L53.012 1114.13L55.1769 1106.11L58.6876 1098.62L63.3686 1091.83L69.2198 1085.98L76.0072 1081.3L83.4967 1077.79L91.4544 1075.63L99.7046 1074.92M99.7046 586.934V589.275H105.556V586.934H99.7046ZM99.7046 906.995V904.655H105.556V906.995H99.7046ZM99.7046 589.275V904.655V589.275ZM102.63 589.275V904.655V589.275ZM105.556 589.275V904.655V589.275ZM99.7046 100.407V102.747H105.556V100.407H99.7046ZM99.7046 420.468V418.127H105.556V420.468H99.7046ZM99.7046 102.747V418.127V102.747ZM102.63 102.747V418.127V102.747ZM105.556 102.747V418.127V102.747ZM121.939 100.114H525.087V77.8796H99.7046M525.087 77.8796H593.839H525.087ZM525.087 100.114H593.839H525.087ZM593.839 77.8796V100.114H837.249V77.8796H593.839ZM837.249 77.8796H906H837.249ZM837.249 100.114H906H837.249ZM1628.04 77.8796H906V100.114H982.066M993.769 100.114H1605.8H993.769ZM593.839 77.8796H591.498V83.7308H593.839V77.8796ZM525.087 77.8796H527.428V83.7308H525.087V77.8796ZM591.498 77.8796H527.428H591.498ZM591.498 80.8052H527.428H591.498ZM591.498 83.7308H527.428H591.498ZM906 77.8796H903.66V83.7308H906V77.8796ZM837.249 77.8796H839.589V83.7308H837.249V77.8796ZM903.66 77.8796H839.589H903.66ZM903.66 80.8052H839.589H903.66ZM903.66 83.7308H839.589H903.66ZM1605.8 100.114V169.51H1628.04V77.8796M1628.04 169.51V267.693V169.51ZM1605.8 169.51V267.693V169.51ZM1628.04 267.693H1605.8V284.544M1628.04 267.693V265.352H1622.19V267.693H1628.04ZM1628.04 169.51V171.85H1622.19V169.51H1628.04ZM1628.04 265.352V171.85V265.352ZM1625.11 265.352V171.85V265.352ZM1622.19 265.352V171.85V265.352ZM1605.8 284.544L1924.99 373.19L1605.8 284.544ZM1952.37 357.743L1628.04 267.693L1952.37 357.743ZM1924.99 373.19L1924.64 374.419L1946.11 380.387L1952.37 357.743M1946.11 380.387L1843.13 751.295L1946.11 380.387ZM1924.7 374.419L1821.71 745.385L1924.7 374.419ZM1843.19 751.119L1740.21 1122.09L1843.19 751.119ZM1821.71 745.151L1718.73 1116.12L1821.71 745.151ZM1733.59 1145.72L1740.21 1122.09L1718.73 1116.12L1716.68 1123.49M1843.13 751.295L1843.71 749.071L1838.1 747.491L1837.51 749.715L1843.13 751.295Z" fill="#F5F5F5"/>
<path d="M99.7046 2308.83V2306.49H105.556V2308.83M99.7046 2308.83H105.556M99.7046 2308.83V2685.18M105.556 2308.83V2685.18M99.7046 2685.18V2687.52H105.556V2685.18M99.7046 2685.18H105.556M102.63 2308.83V2685.23M99.7046 2138.38V2136.04H105.556V2138.38H99.7046ZM99.7046 2138.38H52.3098L53.012 2146.57L55.1769 2154.59L58.6876 2162.08L63.3686 2168.87L69.2198 2174.72L76.0072 2179.4L83.4967 2182.91L91.4544 2185.07L99.7046 2185.78L91.4544 2186.48L83.4967 2188.64L76.0072 2192.15L69.2198 2196.83L63.3686 2202.69L58.6876 2209.47L55.1769 2216.96L53.012 2224.98L52.3098 2233.17H99.7046M99.7046 2233.17V2235.51H105.556V2233.17H99.7046ZM99.7046 1890.06V1887.72H105.556V1890.06M99.7046 1890.06H105.556M99.7046 1890.06V2014.86M105.556 1890.06V2014.86M99.7046 2014.86V2017.2H105.556V2014.86M99.7046 2014.86H105.556M102.63 1890.06V2014.86M99.7046 1700.13V1697.79H105.556V1700.13M99.7046 1700.13H105.556M99.7046 1700.13V1824.93M105.556 1700.13V1824.93M99.7046 1824.93V1827.27H105.556V1824.93M99.7046 1824.93H105.556M102.63 1700.13V1824.93M99.7046 1403.24V1400.9H105.556V1403.24M99.7046 1403.24H105.556M99.7046 1403.24V1528.04M105.556 1403.24V1528.04M99.7046 1528.04V1530.38H105.556V1528.04M99.7046 1528.04H105.556M102.63 1403.24V1528.04M99.7046 1213.01V1210.67H105.556V1213.01M99.7046 1213.01H105.556M99.7046 1213.01V1337.82M105.556 1213.01V1337.82M99.7046 1337.82V1340.16H105.556V1337.82M99.7046 1337.82H105.556M102.63 1213.01V1337.82M99.7046 1027.53V1025.19H105.556V1027.53H99.7046ZM99.7046 1027.53H52.3098L53.012 1035.72L55.1769 1043.74L58.6876 1051.23L63.3686 1058.01L69.2198 1063.87L76.0072 1068.55L83.4967 1072.06L91.4544 1074.22L99.7046 1074.92L91.4544 1075.63L83.4967 1077.79L76.0072 1081.3L69.2198 1085.98L63.3686 1091.83L58.6876 1098.62L55.1769 1106.11L53.012 1114.13L52.3098 1122.32H99.7046M99.7046 1122.32V1124.66H105.556V1122.32H99.7046ZM99.7046 589.275V586.934H105.556V589.275M99.7046 589.275H105.556M99.7046 589.275V904.655M105.556 589.275V904.655M99.7046 904.655V906.995H105.556V904.655M99.7046 904.655H105.556M102.63 589.275V904.655M99.7046 102.747V100.407H105.556V102.747M99.7046 102.747H105.556M99.7046 102.747V418.127M105.556 102.747V418.127M99.7046 418.127V420.468H105.556V418.127M99.7046 418.127H105.556M102.63 102.747V418.127M121.939 100.114H525.087M525.087 100.114V77.8796M525.087 100.114H593.839M525.087 77.8796H99.7046M525.087 77.8796H593.839M525.087 77.8796H527.428M525.087 77.8796V83.7308H527.428M593.839 77.8796V100.114M593.839 77.8796H837.249M593.839 77.8796H591.498M593.839 77.8796V83.7308H591.498M593.839 100.114H837.249M837.249 100.114V77.8796M837.249 100.114H906M837.249 77.8796H906M837.249 77.8796H839.589M837.249 77.8796V83.7308H839.589M906 77.8796H1628.04V169.51M906 77.8796V100.114M906 77.8796H903.66M906 77.8796V83.7308H903.66M906 100.114H982.066M993.769 100.114H1605.8V169.51M591.498 77.8796V83.7308M591.498 77.8796H527.428M591.498 83.7308H527.428M527.428 77.8796V83.7308M591.498 80.8052H527.428M903.66 77.8796V83.7308M903.66 77.8796H839.589M903.66 83.7308H839.589M839.589 77.8796V83.7308M903.66 80.8052H839.589M1605.8 169.51H1628.04M1605.8 169.51V267.693M1628.04 169.51V267.693M1628.04 169.51V171.85M1628.04 169.51H1622.19V171.85M1628.04 267.693H1605.8M1628.04 267.693V265.352M1628.04 267.693H1622.19V265.352M1628.04 267.693L1952.37 357.743L1946.11 380.387M1605.8 267.693V284.544L1924.99 373.19L1924.64 374.419L1946.11 380.387M1628.04 265.352H1622.19M1628.04 265.352V171.85M1622.19 265.352V171.85M1628.04 171.85H1622.19M1625.11 265.352V171.85M1946.11 380.387L1843.13 751.295M1843.13 751.295L1843.71 749.071L1838.1 747.491L1837.51 749.715L1843.13 751.295ZM1924.7 374.419L1821.71 745.385M1843.19 751.119L1740.21 1122.09M1740.21 1122.09L1733.59 1145.72M1740.21 1122.09L1718.73 1116.12M1821.71 745.151L1718.73 1116.12M1718.73 1116.12L1716.68 1123.49" stroke="black" stroke-width="5" stroke-miterlimit="10" stroke-linecap="square"/>
</g>
<g id="Vector_3">
<path d="M1946.11 380.387L1945.47 382.61L1939.85 381.089L1940.44 378.807L1946.11 380.387ZM1843.71 749.013L1945.47 382.61L1843.71 749.013ZM1840.91 748.252L1942.66 381.85L1840.91 748.252ZM1838.1 747.491L1939.85 381.089L1838.1 747.491ZM1740.21 1122.03L1740.79 1119.8L1735.17 1118.22L1734.59 1120.45L1740.21 1122.03ZM1843.19 751.119L1842.54 753.343L1836.87 751.821L1837.51 749.539L1843.19 751.119ZM1740.79 1119.8L1842.54 753.343L1740.79 1119.8ZM1737.98 1118.98L1839.74 752.582L1737.98 1118.98ZM1735.17 1118.22L1836.93 751.821L1735.17 1118.22ZM1716.69 1123.49H1717.91V1145.72H1733.59M1628.04 1145.72H1630.15V1123.49H1605.8" fill="#F5F5F5"/>
<path d="M1945.47 382.61L1946.11 380.387L1940.44 378.807L1939.85 381.089M1945.47 382.61L1939.85 381.089M1945.47 382.61L1843.71 749.013M1939.85 381.089L1838.1 747.491M1840.91 748.252L1942.66 381.85M1740.79 1119.8L1740.21 1122.03L1734.59 1120.45L1735.17 1118.22M1740.79 1119.8L1735.17 1118.22M1740.79 1119.8L1842.54 753.343M1735.17 1118.22L1836.93 751.821M1842.54 753.343L1843.19 751.119L1837.51 749.539L1836.87 751.821L1842.54 753.343ZM1737.98 1118.98L1839.74 752.582M1716.69 1123.49H1717.91V1145.72H1733.59M1628.04 1145.72H1630.15V1123.49H1605.8" stroke="black" stroke-width="5" stroke-miterlimit="10" stroke-linecap="square"/>
</g>
<g id="Vector_4">
<path d="M1630.15 1145.72H1632.49V1139.87H1630.15V1145.72ZM1717.91 1145.72H1715.57V1139.87H1717.91V1145.72ZM1632.49 1145.72V1196.04V1145.72ZM1715.57 1145.72V1178.49V1145.72ZM1632.49 1196.04L1641.26 1195.28L1649.75 1193L1657.65 1189.32L1664.84 1184.28L1671.05 1178.08L1676.08 1170.88L1679.82 1162.93L1682.05 1154.44L1682.81 1145.72" fill="#F5F5F5"/>
<path d="M1632.49 1145.72H1630.15V1139.87H1632.49V1145.72ZM1632.49 1145.72V1196.04L1641.26 1195.28L1649.75 1193L1657.65 1189.32L1664.84 1184.28L1671.05 1178.08L1676.08 1170.88L1679.82 1162.93L1682.05 1154.44L1682.81 1145.72M1715.57 1145.72H1717.91V1139.87H1715.57V1145.72ZM1715.57 1145.72V1178.49" stroke="black" stroke-width="5" stroke-miterlimit="10" stroke-linecap="square"/>
</g>
<g id="Vector_5">
<path d="M1715.57 1178.49L1708.32 1177.67L1701.35 1175.27L1695.15 1171.35L1690 1166.15L1686.08 1159.94L1683.63 1153.04L1682.81 1145.72M1605.8 1123.49V1401.48H1628.04V1145.72M1628.04 1401.48V1579.94V1401.48ZM1605.8 1401.48V1579.94V1401.48ZM1605.8 1421.61V1620.43H1628.04V1579.94H1605.8V1409.91M1628.04 1620.43V2062.2V1620.43ZM1605.8 1620.43V2062.2V1620.43ZM1628.04 2062.2H1605.8V2141.07H1628.04V2062.2ZM1605.8 2252.48V2264.77V2252.48ZM1605.8 2377.11V2443.52H1628.04V2202.45H1605.8V2240.78M1605.8 2270.62V2371.26V2270.62ZM1628.04 2443.52V2975.98V2443.52ZM1605.8 2443.52V2975.98V2443.52ZM1605.8 2466.93V2489.51V2466.93ZM1605.8 2493.9V3007.93H1628.04V2975.98H1605.8V2455.22M1628.04 3135.13V3069.42H1605.8V3112.9" fill="#F5F5F5"/>
<path d="M1715.57 1178.49L1708.32 1177.67L1701.35 1175.27L1695.15 1171.35L1690 1166.15L1686.08 1159.94L1683.63 1153.04L1682.81 1145.72M1605.8 1123.49V1401.48M1605.8 1401.48H1628.04M1605.8 1401.48V1579.94M1628.04 1401.48V1145.72M1628.04 1401.48V1579.94M1628.04 1579.94V1620.43M1628.04 1579.94H1605.8M1605.8 1579.94V1409.91M1605.8 1421.61V1620.43M1605.8 1620.43H1628.04M1605.8 1620.43V2062.2M1628.04 1620.43V2062.2M1628.04 2062.2H1605.8M1628.04 2062.2V2141.07H1605.8V2062.2M1605.8 2252.48V2264.77M1605.8 2377.11V2443.52M1605.8 2443.52H1628.04M1605.8 2443.52V2975.98M1628.04 2443.52V2202.45H1605.8V2240.78M1628.04 2443.52V2975.98M1605.8 2270.62V2371.26M1628.04 2975.98V3007.93H1605.8V2493.9M1628.04 2975.98H1605.8M1605.8 2975.98V2455.22M1605.8 2466.93V2489.51M1628.04 3135.13V3069.42H1605.8V3112.9" stroke="black" stroke-width="5" stroke-miterlimit="10" stroke-linecap="square"/>
</g>
<g id="Vector_6">
<path d="M1628.04 1579.94V1577.6H1622.19V1579.94H1628.04ZM1628.04 1401.48V1403.82H1622.19V1401.48H1628.04ZM1628.04 1577.6V1403.82V1577.6ZM1625.11 1577.6V1403.82V1577.6ZM1622.19 1577.6V1403.82V1577.6ZM1628.04 2062.2V2059.86H1622.19V2062.2H1628.04ZM1628.04 1620.43V1622.77H1622.19V1620.43H1628.04ZM1628.04 2059.86V1622.77V2059.86ZM1625.11 2059.86V1622.77V2059.86ZM1622.19 2059.86V1622.77V2059.86ZM1628.04 2202.45V2200.11H1622.19V2202.45H1628.04ZM1628.04 2141.01V2143.35H1622.19V2141.01H1628.04ZM1628.04 2200.11H1684.8H1628.04ZM1684.8 2200.11L1684.09 2191.28L1682.05 2182.62L1678.59 2174.42L1673.91 2166.82L1668.18 2160.03L1661.39 2154.18L1653.78 2149.56L1645.59 2146.16L1636.93 2144.06L1628.04 2143.35M1628.04 2975.98V2973.64H1622.19V2975.98H1628.04ZM1628.04 2443.52V2445.86H1622.19V2443.52H1628.04ZM1628.04 2973.64V2445.86V2973.64ZM1625.11 2973.64V2445.86V2973.64ZM1622.19 2973.64V2445.86V2973.64ZM1628.04 3069.42V3067.08H1622.19V3069.42H1628.04ZM1628.04 3007.93V3010.27H1622.19V3007.93H1628.04ZM1628.04 3067.08H1684.8H1628.04ZM1684.8 3067.08L1684.09 3058.19L1682.05 3049.53L1678.59 3041.34L1673.91 3033.73L1668.18 3026.94L1661.39 3021.09L1653.78 3016.47L1645.59 3013.08L1636.93 3010.97L1628.04 3010.27M1605.8 3112.9H993.769H1605.8ZM982.066 3112.9H850.121V3135.13H1628.04M727.831 3135.13V3112.9H594.131V3135.13H727.831ZM594.131 3135.13H509.874H594.131ZM594.131 3112.9H509.874H594.131ZM509.874 3135.13V3112.9H394.898V3135.13H509.874ZM457.213 3135.13H121.939H457.213ZM457.213 3112.9H121.939H457.213ZM99.7046 3135.13H121.939V3112.9M727.831 3135.13H730.172V3129.28H727.831V3135.13ZM850.121 3135.13H847.781V3129.28H850.121V3135.13ZM730.172 3135.13V3193.94V3135.13ZM847.781 3135.13V3193.94V3135.13ZM730.172 3193.94L739.358 3193.24L748.311 3191.07L756.853 3187.56L764.694 3182.7L771.715 3176.74L777.742 3169.71L782.54 3161.82L786.051 3153.33L788.216 3144.32L788.976 3135.13M847.781 3193.94L838.536 3193.24L829.584 3191.07L821.041 3187.56L813.2 3182.7L806.179 3176.74L800.211 3169.71L795.354 3161.82L791.844 3153.33L789.679 3144.32L788.976 3135.13M509.874 3135.13H512.214V3129.28H509.874V3135.13ZM594.131 3135.13H591.791V3129.28H594.131V3135.13ZM512.214 3135.13H591.791H512.214ZM512.214 3132.21H591.791H512.214ZM512.214 3129.28H591.791H512.214ZM289.576 3135.13H291.917V3129.28H289.576V3135.13ZM394.898 3135.13H392.557V3129.28H394.898V3135.13ZM291.917 3135.13V3185.45V3135.13ZM392.557 3135.13V3185.45V3135.13ZM291.917 3185.45L300.693 3184.69L309.119 3182.41L317.077 3178.73L324.274 3173.69L330.476 3167.49L335.508 3160.29L339.194 3152.34L341.476 3143.85L342.237 3135.13M392.557 3185.45L383.781 3184.69L375.355 3182.41L367.397 3178.73L360.2 3173.69L353.998 3167.49L348.966 3160.29L345.28 3152.34L342.998 3143.91L342.237 3135.13M121.939 3135.13H124.28V3129.28H121.939V3135.13Z" fill="#F5F5F5"/>
<path d="M1628.04 1577.6V1579.94H1622.19V1577.6M1628.04 1577.6H1622.19M1628.04 1577.6V1403.82M1622.19 1577.6V1403.82M1628.04 1403.82V1401.48H1622.19V1403.82M1628.04 1403.82H1622.19M1625.11 1577.6V1403.82M1628.04 2059.86V2062.2H1622.19V2059.86M1628.04 2059.86H1622.19M1628.04 2059.86V1622.77M1622.19 2059.86V1622.77M1628.04 1622.77V1620.43H1622.19V1622.77M1628.04 1622.77H1622.19M1625.11 2059.86V1622.77M1628.04 2200.11V2202.45H1622.19V2200.11H1628.04ZM1628.04 2200.11H1684.8L1684.09 2191.28L1682.05 2182.62L1678.59 2174.42L1673.91 2166.82L1668.18 2160.03L1661.39 2154.18L1653.78 2149.56L1645.59 2146.16L1636.93 2144.06L1628.04 2143.35M1628.04 2143.35V2141.01H1622.19V2143.35H1628.04ZM1628.04 2973.64V2975.98H1622.19V2973.64M1628.04 2973.64H1622.19M1628.04 2973.64V2445.86M1622.19 2973.64V2445.86M1628.04 2445.86V2443.52H1622.19V2445.86M1628.04 2445.86H1622.19M1625.11 2973.64V2445.86M1628.04 3067.08V3069.42H1622.19V3067.08H1628.04ZM1628.04 3067.08H1684.8L1684.09 3058.19L1682.05 3049.53L1678.59 3041.34L1673.91 3033.73L1668.18 3026.94L1661.39 3021.09L1653.78 3016.47L1645.59 3013.08L1636.93 3010.97L1628.04 3010.27M1628.04 3010.27V3007.93H1622.19V3010.27H1628.04ZM1605.8 3112.9H993.769M982.066 3112.9H850.121V3135.13M850.121 3135.13H1628.04M850.121 3135.13H847.781M850.121 3135.13V3129.28H847.781V3135.13M727.831 3135.13V3112.9H594.131M727.831 3135.13H594.131M727.831 3135.13H730.172M727.831 3135.13V3129.28H730.172V3135.13M594.131 3112.9V3135.13M594.131 3112.9H509.874M594.131 3135.13H509.874M594.131 3135.13H591.791M594.131 3135.13V3129.28H591.791M509.874 3135.13V3112.9M509.874 3135.13H394.898M509.874 3135.13H512.214M509.874 3135.13V3129.28H512.214M509.874 3112.9H394.898V3135.13M394.898 3135.13H392.557M394.898 3135.13V3129.28H392.557V3135.13M457.213 3135.13H121.939M121.939 3135.13H99.7046M121.939 3135.13V3112.9H457.213M121.939 3135.13H124.28V3129.28H121.939V3135.13ZM730.172 3135.13V3193.94L739.358 3193.24L748.311 3191.07L756.853 3187.56L764.694 3182.7L771.715 3176.74L777.742 3169.71L782.54 3161.82L786.051 3153.33L788.216 3144.32L788.976 3135.13L789.679 3144.32L791.844 3153.33L795.354 3161.82L800.211 3169.71L806.179 3176.74L813.2 3182.7L821.041 3187.56L829.584 3191.07L838.536 3193.24L847.781 3193.94V3135.13M512.214 3135.13V3129.28M512.214 3135.13H591.791M512.214 3129.28H591.791M591.791 3135.13V3129.28M512.214 3132.21H591.791M291.917 3135.13H289.576V3129.28H291.917V3135.13ZM291.917 3135.13V3185.45L300.693 3184.69L309.119 3182.41L317.077 3178.73L324.274 3173.69L330.476 3167.49L335.508 3160.29L339.194 3152.34L341.476 3143.85L342.237 3135.13L342.998 3143.91L345.28 3152.34L348.966 3160.29L353.998 3167.49L360.2 3173.69L367.397 3178.73L375.355 3182.41L383.781 3184.69L392.557 3185.45V3135.13" stroke="black" stroke-width="5" stroke-miterlimit="10" stroke-linecap="square"/>
</g>
<g id="Vector_7">
<path d="M457.213 3135.13H454.873V3129.28H457.213V3135.13ZM124.28 3135.13H454.873H124.28ZM124.28 3132.21H454.873H124.28ZM124.28 3129.28H454.873H124.28ZM47.6289 1020.51H99.7046V1013.49H54.6504M54.6504 1013.49V930.985V1013.49ZM47.6289 923.964V1020.51V923.964ZM54.6504 930.985H99.7046V923.964H47.6289M48.7991 2131.07H99.7046V2124.05H55.8206M55.8206 2124.05V2024.58V2124.05ZM48.7991 2017.55V2131.07V2017.55ZM55.8206 2024.58L99.7046 2024.28V2017.26L48.7991 2017.55M647.377 262.193V263.363H662.005V162.488H647.377V253.416M647.377 109.827H662.005V100.114H647.377V109.827ZM662.005 109.827V112.168H656.154V109.827H662.005ZM662.005 162.488V160.147H656.154V162.488H662.005ZM662.005 112.168H709.985H662.005ZM709.985 112.168L709.283 120.476L707.118 128.61L703.607 136.216L698.751 143.003L692.9 148.913L685.995 153.711L678.389 157.222L670.314 159.445L662.005 160.147M982.066 100.114V112.402H993.769V100.114M993.769 194.026V189.053V194.026ZM993.769 177.35V165.063H982.066V212.75H993.769V198.415M982.066 1189.61V1348.59H993.769V274.188H982.066V1183.76M993.769 1426.58V1421.61V1426.58ZM993.769 1409.91V1401.25H982.066V1448.23H993.769V1430.97M993.769 2264.77V2252.48V2264.77ZM993.769 2240.78V1509.67H982.066V2289.63H993.769V2270.62M993.769 2471.9V2466.93V2471.9ZM993.769 2455.22V2342.3H982.066V2490.62H993.769V2476.29M993.769 3112.9V2552.06H982.066V3112.9M982.066 112.402V114.742H987.917V112.402H982.066ZM982.066 165.063V162.722H987.917V165.063H982.066ZM982.066 114.742H934.086H982.066ZM934.086 114.742L934.847 123.051L937.012 131.184L940.523 138.732L945.321 145.578L951.172 151.488L958.076 156.286L965.683 159.797L973.758 162.02L982.066 162.722M982.066 212.75V215.09H987.917V212.75H982.066ZM982.066 274.188V271.847H987.917V274.188H982.066ZM982.066 215.09H925.31H982.066ZM925.31 215.09L926.012 223.984L928.118 232.644L931.512 240.836L936.193 248.442L941.927 255.23L948.714 261.022L956.321 265.703L964.513 269.038L973.172 271.145L982.066 271.847M982.066 1401.25V1398.91H987.917V1401.25H982.066ZM982.066 1348.59V1350.93H987.917V1348.59H982.066ZM982.066 1398.91H934.086H982.066ZM934.086 1398.91L934.847 1390.54L937.012 1382.46L940.523 1374.86L945.321 1368.07L951.172 1362.16L958.076 1357.36L965.683 1353.85L973.758 1351.63L982.066 1350.93M982.066 1448.23V1450.57H987.917V1448.23H982.066ZM982.066 1509.67V1507.33H987.917V1509.67H982.066ZM982.066 1450.57H925.31H982.066ZM925.31 1450.57L926.012 1459.47L928.118 1468.13L931.512 1476.32L936.193 1483.92L941.927 1490.71L948.714 1496.5L956.321 1501.19L964.513 1504.58L973.172 1506.63L982.066 1507.33M982.066 2342.3V2339.96H987.917V2342.3H982.066ZM982.066 2289.63V2291.98H987.917V2289.63H982.066ZM982.066 2339.96H934.086H982.066Z" fill="#F5F5F5"/>
<path d="M454.873 3135.13H457.213V3129.28H454.873M454.873 3135.13V3129.28M454.873 3135.13H124.28M454.873 3129.28H124.28M124.28 3132.21H454.873M647.377 262.193V263.363H662.005V162.488M662.005 162.488H647.377V253.416M662.005 162.488V160.147M662.005 162.488H656.154V160.147H662.005M662.005 109.827H647.377V100.114H662.005V109.827ZM662.005 109.827V112.168M662.005 109.827H656.154V112.168H662.005M662.005 112.168H709.985L709.283 120.476L707.118 128.61L703.607 136.216L698.751 143.003L692.9 148.913L685.995 153.711L678.389 157.222L670.314 159.445L662.005 160.147M982.066 100.114V112.402M982.066 112.402H993.769V100.114M982.066 112.402V114.742M982.066 112.402H987.917V114.742H982.066M993.769 194.026V189.053M993.769 177.35V165.063H982.066M982.066 165.063V212.75M982.066 165.063V162.722M982.066 165.063H987.917V162.722H982.066M982.066 212.75H993.769V198.415M982.066 212.75V215.09M982.066 212.75H987.917V215.09H982.066M982.066 1189.61V1348.59M982.066 1348.59H993.769V274.187H982.066M982.066 1348.59V1350.93M982.066 1348.59H987.917V1350.93H982.066M982.066 274.187V1183.76M982.066 274.187V271.847M982.066 274.187H987.917V271.847H982.066M993.769 1426.58V1421.61M993.769 1409.91V1401.25H982.066M982.066 1401.25V1448.23M982.066 1401.25V1398.91M982.066 1401.25H987.917V1398.91H982.066M982.066 1448.23H993.769V1430.97M982.066 1448.23V1450.57M982.066 1448.23H987.917V1450.57H982.066M993.769 2264.77V2252.48M993.769 2240.78V1509.67H982.066M982.066 1509.67V2289.63M982.066 1509.67V1507.33M982.066 1509.67H987.917V1507.33H982.066M982.066 2289.63H993.769V2270.62M982.066 2289.63V2291.98H987.917V2289.63H982.066ZM993.769 2471.9V2466.93M993.769 2455.22V2342.3H982.066M982.066 2342.3V2490.62H993.769V2476.29M982.066 2342.3V2339.96M982.066 2342.3H987.917V2339.96H982.066M993.769 3112.9V2552.06H982.066V3112.9M982.066 114.742H934.086L934.847 123.051L937.012 131.184L940.523 138.732L945.321 145.578L951.172 151.488L958.076 156.286L965.683 159.797L973.758 162.02L982.066 162.722M982.066 215.09H925.31L926.012 223.984L928.118 232.644L931.512 240.836L936.193 248.442L941.927 255.23L948.714 261.022L956.321 265.703L964.513 269.038L973.172 271.145L982.066 271.847M982.066 1398.91H934.086L934.847 1390.54L937.012 1382.46L940.523 1374.86L945.321 1368.07L951.172 1362.16L958.076 1357.36L965.683 1353.85L973.758 1351.63L982.066 1350.93M982.066 1450.57H925.31L926.012 1459.47L928.118 1468.13L931.512 1476.32L936.193 1483.92L941.927 1490.71L948.714 1496.5L956.321 1501.19L964.513 1504.58L973.172 1506.63L982.066 1507.33M982.066 2339.96H934.086M47.6289 1020.51H99.7046V1013.49H54.6504V930.985H99.7046V923.964H47.6289V1020.51ZM48.7991 2131.07H99.7046V2124.05H55.8206V2024.58L99.7046 2024.28V2017.26L48.7991 2017.55V2131.07Z" stroke="black" stroke-width="5" stroke-miterlimit="10" stroke-linecap="square"/>
</g>
<g id="Vector_8">
<path d="M934.086 2339.96L934.847 2331.59L937.012 2323.51L940.523 2315.91L945.321 2309.06L951.172 2303.21L958.076 2298.35L965.683 2294.84L973.757 2292.68L982.066 2291.92M982.066 2490.62V2492.96H987.917V2490.62H982.066ZM982.066 2552.06V2549.72H987.917V2552.06H982.066ZM982.066 2492.96H925.31H982.066ZM925.31 2492.96L926.012 2501.86L928.118 2510.52L931.512 2518.71L936.193 2526.32L941.927 2533.1L948.714 2538.9L956.321 2543.58L964.513 2546.91L973.172 2549.02L982.066 2549.72M607.589 496.241L121.939 496.592V511.22L607.589 510.927M616.366 510.869H647.377V496.241H616.366M662.005 918.698L647.377 906.995H236.038V918.698H662.005ZM236.038 918.698H174.6H236.038ZM236.038 906.995H174.6H236.038ZM121.939 918.698H174.6V906.995H121.939M174.6 918.698H176.941V912.846H174.6V918.698ZM236.038 918.698H233.697V912.846H236.038V918.698ZM176.941 918.698H233.697H176.941ZM176.941 915.772H233.697H176.941ZM176.941 912.846H233.697H176.941ZM647.377 1210.67V1183.76H596.296V1210.67H647.377ZM265.586 1183.76V1210.67H531.933V1183.76H266.171M531.933 1183.76H534.274V1189.61H531.933V1183.76ZM596.296 1183.76H593.956V1189.61H596.296V1183.76ZM534.274 1183.76V1124.07V1183.76ZM534.274 1124.07L543.635 1124.84L552.763 1127L561.365 1130.57L569.381 1135.48L576.519 1141.57L582.604 1148.65L587.461 1156.67L591.089 1165.33L593.254 1174.4L593.956 1183.76M239.256 1337.94H238.963V1346.71H521.752M512.975 1337.94H247.448H512.975ZM423.861 2029.26H662.005V2017.55H230.186V2029.26H418.01M121.939 2029.26H142.418V2017.55H121.939M142.418 2029.26H144.759V2017.55H142.418V2029.26ZM230.186 2029.26H227.846V2017.55H230.186V2029.26ZM705.597 2119.36V2110.59H423.861L418.01 2119.36H705.597ZM654.691 2306.02V2294.32H222.17V2306.02H654.691ZM121.939 2306.02H134.402V2294.32H121.939M134.402 2306.02H136.743V2294.32H134.402V2306.02ZM222.17 2306.02H219.83V2294.32H222.17V2306.02ZM993.769 2466.93H1483.46H993.769ZM1487.84 2466.93V2455.22H993.769M1605.8 2455.22H1528.8V2466.93M1533.19 2466.93H1605.8H1533.19ZM1528.8 2455.22H1526.46V2461.07H1528.8V2455.22ZM1487.84 2455.22H1490.18V2461.07H1487.84V2455.22ZM1526.46 2455.22V2418.95V2455.22ZM1526.46 2418.95L1519.38 2419.65L1512.54 2421.7L1506.28 2425.03L1500.78 2429.6L1496.27 2435.04L1492.93 2441.36L1490.89 2448.14L1490.18 2455.22M993.769 2270.62H1605.8H993.769ZM1605.8 2264.77H993.769H1605.8ZM993.769 2252.48H1605.8H993.769ZM1605.8 2240.78H993.769H1605.8ZM993.769 1421.61H1483.22H993.769ZM1487.61 1421.61V1409.91H993.769M1605.8 1409.91H1528.57V1421.61M1603.46 1421.61H1605.8H1603.46ZM1532.96 1421.61H1599.08H1532.96ZM1528.57 1409.91H1526.23V1415.76H1528.57V1409.91ZM1487.61 1409.91H1489.95V1415.76H1487.61V1409.91ZM1526.23 1409.91V1373.63V1409.91ZM1526.23 1373.63L1519.15 1374.33L1512.36 1376.38L1506.04 1379.71L1500.6 1384.28L1496.04 1389.72L1492.7 1396.04L1490.65 1402.83L1489.95 1409.91M993.769 1183.76V1208.33H1605.8V1183.76H993.769ZM1605.8 177.35H1528.51V189.053M1532.9 189.053H1605.8H1532.9ZM993.769 189.053H1483.16H993.769ZM1487.55 189.053V177.35H993.769" fill="#F5F5F5"/>
<path d="M934.086 2339.96L934.847 2331.59L937.012 2323.51L940.523 2315.91L945.321 2309.06L951.172 2303.21L958.076 2298.35L965.683 2294.84L973.757 2292.68L982.066 2291.92M982.066 2492.96V2490.62H987.917V2492.96H982.066ZM982.066 2492.96H925.309L926.012 2501.86L928.118 2510.52L931.512 2518.71L936.193 2526.32L941.927 2533.1L948.714 2538.9L956.321 2543.58L964.513 2546.91L973.172 2549.02L982.066 2549.72M982.066 2549.72V2552.06H987.917V2549.72H982.066ZM607.589 496.241L121.939 496.592V511.22L607.589 510.927M616.366 510.869H647.377V496.241H616.366M236.038 906.995H647.377L662.005 918.698H236.038M236.038 906.995V918.698M236.038 906.995H174.6M236.038 918.698H174.6M236.038 918.698H233.697M236.038 918.698V912.846H233.697M174.6 918.698H121.939M174.6 918.698V906.995M174.6 918.698H176.941M174.6 918.698V912.846H176.941M174.6 906.995H121.939M176.941 918.698V912.846M176.941 918.698H233.697M176.941 912.846H233.697M233.697 918.698V912.846M176.941 915.772H233.697M596.296 1183.76H647.377V1210.67H596.296V1183.76ZM596.296 1183.76H593.956M596.296 1183.76V1189.61H593.956V1183.76M265.586 1183.76V1210.67H531.933V1183.76M531.933 1183.76H266.171M531.933 1183.76H534.274M531.933 1183.76V1189.61H534.274V1183.76M534.274 1183.76V1124.07L543.635 1124.84L552.763 1127L561.365 1130.57L569.381 1135.48L576.519 1141.57L582.605 1148.65L587.461 1156.67L591.089 1165.33L593.254 1174.4L593.956 1183.76M239.256 1337.94H238.963V1346.71H521.752M512.975 1337.94H247.448M423.861 2029.26H662.005V2017.55H230.186M230.186 2017.55V2029.26M230.186 2017.55H227.846V2029.26H230.186M230.186 2029.26H418.01M121.939 2029.26H142.418M142.418 2029.26V2017.55M142.418 2029.26H144.759V2017.55H142.418M142.418 2017.55H121.939M222.17 2294.32H654.691V2306.02H222.17M222.17 2294.32V2306.02M222.17 2294.32H219.83V2306.02H222.17M121.939 2306.02H134.402M134.402 2306.02V2294.32M134.402 2306.02H136.743V2294.32H134.402M134.402 2294.32H121.939M993.769 2466.93H1483.46M1487.84 2466.93V2455.22M1487.84 2455.22H993.769M1487.84 2455.22H1490.18M1487.84 2455.22V2461.08H1490.18V2455.22M1605.8 2455.22H1528.8M1528.8 2455.22V2466.93M1528.8 2455.22H1526.46M1528.8 2455.22V2461.08H1526.46V2455.22M1533.19 2466.93H1605.8M1526.46 2455.22V2418.95L1519.38 2419.65L1512.54 2421.7L1506.28 2425.03L1500.78 2429.6L1496.27 2435.04L1492.93 2441.36L1490.89 2448.14L1490.18 2455.22M993.769 2270.62H1605.8M1605.8 2264.77H993.769M993.769 2252.48H1605.8M1605.8 2240.78H993.769M993.769 1421.61H1483.22M1487.61 1421.61V1409.91M1487.61 1409.91H993.769M1487.61 1409.91H1489.95M1487.61 1409.91V1415.76H1489.95V1409.91M1605.8 1409.91H1528.57M1528.57 1409.91V1421.61M1528.57 1409.91H1526.23M1528.57 1409.91V1415.76H1526.23V1409.91M1603.46 1421.61H1605.8M1532.96 1421.61H1599.08M1526.23 1409.91V1373.63L1519.15 1374.33L1512.36 1376.38L1506.04 1379.71L1500.6 1384.28L1496.04 1389.72L1492.7 1396.04L1490.65 1402.83L1489.95 1409.91M1605.8 177.35H1528.51V189.053M1532.9 189.053H1605.8M993.769 189.053H1483.16M1487.55 189.053V177.35H993.769M705.597 2119.36V2110.59H423.861L418.01 2119.36H705.597ZM993.769 1183.76V1208.33H1605.8V1183.76H993.769Z" stroke="black" stroke-width="5" stroke-miterlimit="10" stroke-linecap="square"/>
</g>
<g id="Vector_9">
<path d="M1528.51 177.35H1526.17V183.201H1528.51V177.35ZM1487.55 177.35H1489.89V183.201H1487.55V177.35ZM1526.17 177.35V141.073V177.35ZM1526.17 141.073L1519.09 141.775L1512.3 143.823L1505.98 147.158L1500.48 151.722L1495.98 157.163L1492.64 163.483L1490.59 170.27L1489.89 177.35M1091.48 100.114H1084.46V108.013H1091.48V100.114ZM1091.48 154.823H1084.46V177.35H1091.48V154.823ZM1084.46 108.013V110.354H1090.31V108.013H1084.46ZM1084.46 154.823V152.483H1090.31V154.823H1084.46ZM1084.46 110.354H1042.33H1084.46ZM1042.33 110.354L1043.15 118.545L1045.49 126.503L1049.41 133.759L1054.68 140.195L1061.06 145.402L1068.37 149.264L1076.21 151.663L1084.46 152.483M1313.24 100.114H1306.22V177.35H1313.24V100.114ZM1304.47 1326.82V1409.91H1312.66V1326.82M1049.36 1329.16V1409.91H1057.55V1329.16M1240.1 1329.16V1409.91H1250.64V1329.16M1175.74 1329.16V1409.91H1186.27V1329.16M1111.38 1329.16V1409.91H1121.91V1329.16M921.799 1904.63H982.066V1895.26H931.161M931.161 1895.26V1599.19H921.799V1904.63M1304.47 2378.28V2455.22H1312.66V2371.26H1304.47M1228.4 2371.26H1221.38H1228.4ZM1221.38 2378.28V2455.22H1228.4V2378.28M1312.66 2371.26V2377.11H1328.22V2371.26H1312.66ZM1375.03 2371.26V2377.11H1407.57V2371.26H1375.03ZM1605.8 2371.26H1454.38V2377.11H1605.8M1375.03 2371.26H1372.69V2377.11H1375.03V2371.26Z" fill="#F5F5F5"/>
<path d="M1526.17 177.35H1528.51V183.201H1526.17V177.35ZM1526.17 177.35V141.073L1519.09 141.775L1512.3 143.823L1505.98 147.158L1500.48 151.722L1495.98 157.163L1492.64 163.483L1490.59 170.27L1489.89 177.35M1489.89 177.35H1487.55V183.201H1489.89V177.35ZM1084.46 108.013V100.114H1091.48V108.013H1084.46ZM1084.46 108.013V110.354M1084.46 108.013H1090.31V110.354H1084.46M1084.46 154.823H1091.48V177.35H1084.46V154.823ZM1084.46 154.823V152.483M1084.46 154.823H1090.31V152.483H1084.46M1084.46 110.354H1042.33L1043.15 118.545L1045.49 126.503L1049.41 133.759L1054.68 140.195L1061.06 145.402L1068.37 149.264L1076.21 151.663L1084.46 152.483M1304.47 1326.82V1409.91H1312.66V1326.82M1049.36 1329.16V1409.91H1057.55V1329.16M1240.1 1329.16V1409.91H1250.64V1329.16M1175.74 1329.16V1409.91H1186.27V1329.16M1111.38 1329.16V1409.91H1121.91V1329.16M1304.47 2378.28V2455.22H1312.66V2371.26M1312.66 2371.26H1304.47M1312.66 2371.26V2377.11H1328.22V2371.26H1312.66ZM1228.4 2371.26H1221.38M1221.38 2378.28V2455.22H1228.4V2378.28M1375.03 2371.26V2377.11M1375.03 2371.26H1407.57V2377.11H1375.03M1375.03 2371.26H1372.69V2377.11H1375.03M1605.8 2371.26H1454.38V2377.11H1605.8M1313.24 100.114H1306.22V177.35H1313.24V100.114ZM921.799 1904.63H982.066V1895.26H931.161V1599.19H921.799V1904.63Z" stroke="black" stroke-width="5" stroke-miterlimit="10" stroke-linecap="square"/>
</g>
<g id="Vector_10">
<path d="M1328.22 2371.26H1330.56V2377.11H1328.22V2371.26ZM1372.69 2371.26V2329.13V2371.26ZM1372.69 2329.13L1364.5 2329.95L1356.54 2332.29L1349.29 2336.21L1342.85 2341.48L1337.64 2347.85L1333.78 2355.11L1331.38 2363.01L1330.56 2371.26M1454.38 2371.26H1452.03V2377.11H1454.38V2371.26ZM1407.57 2371.26H1409.91V2377.11H1407.57V2371.26ZM1452.03 2371.26V2329.13V2371.26ZM1452.03 2329.13L1443.84 2329.95L1435.89 2332.29L1428.63 2336.21L1422.19 2341.48L1416.99 2347.85L1413.12 2355.11L1410.73 2363.01L1409.91 2371.26M993.769 2371.26V2378.28H1012.49V2371.26H993.769ZM1073.93 2378.28H1090.9V2371.26H1059.3V2378.28H1066.91M1151.75 2378.28H1167.55V2371.26H1137.71V2378.28H1144.73M1221.38 2371.26H1214.36V2378.28H1221.38M1059.3 2371.26H1056.96V2377.11H1059.3V2371.26ZM1012.49 2371.26H1014.83V2377.11H1012.49V2371.26ZM1056.96 2371.26V2329.13V2371.26ZM1056.96 2329.13L1048.77 2329.95L1040.87 2332.29L1033.56 2336.21L1027.12 2341.48L1021.91 2347.85L1018.05 2355.11L1015.65 2363.01L1014.83 2371.26M1137.71 2371.26H1135.37V2377.11H1137.71V2371.26ZM1090.9 2371.26H1093.24V2377.11H1090.9V2371.26ZM1135.37 2371.26V2329.13V2371.26ZM1135.37 2329.13L1127.18 2329.95L1119.28 2332.29L1111.96 2336.21L1105.53 2341.48L1100.32 2347.85L1096.46 2355.11L1094.06 2363.01L1093.24 2371.26M1214.36 2371.26H1212.02V2377.11H1214.36V2371.26ZM1167.55 2371.26H1169.89V2377.11H1167.55V2371.26ZM1212.02 2371.26V2329.13V2371.26ZM1212.02 2329.13L1203.83 2329.95L1195.87 2332.29L1188.61 2336.21L1182.18 2341.48L1176.97 2347.85L1173.11 2355.11L1170.71 2363.01L1169.89 2371.26M1144.73 2378.28V2455.22H1151.75V2378.28M1066.91 2378.28V2455.22H1073.93V2378.28M829.935 906.995L838.712 918.698H897.224L906 906.995H829.935Z" fill="#F5F5F5"/>
<path d="M1330.56 2371.26H1328.22V2377.11H1330.56V2371.26ZM1330.56 2371.26L1331.38 2363.01L1333.78 2355.11L1337.64 2347.85L1342.85 2341.48L1349.29 2336.21L1356.54 2332.29L1364.5 2329.95L1372.69 2329.13V2371.26M1452.03 2371.26H1454.38V2377.11H1452.03V2371.26ZM1452.03 2371.26V2329.13L1443.84 2329.95L1435.89 2332.29L1428.63 2336.21L1422.19 2341.48L1416.99 2347.85L1413.12 2355.11L1410.73 2363.01L1409.91 2371.26M1409.91 2371.26H1407.57V2377.11H1409.91V2371.26ZM1012.49 2371.26V2378.28H993.769V2371.26H1012.49ZM1012.49 2371.26H1014.83M1012.49 2371.26V2377.11H1014.83V2371.26M1090.9 2371.26V2378.28H1073.93V2455.22H1066.91V2378.28H1059.3V2371.26M1090.9 2371.26H1059.3M1090.9 2371.26H1093.24M1090.9 2371.26V2377.11H1093.24V2371.26M1059.3 2371.26H1056.96M1059.3 2371.26V2377.11H1056.96V2371.26M1167.55 2371.26V2378.28H1151.75V2455.22H1144.73V2378.28H1137.71V2371.26M1167.55 2371.26H1137.71M1167.55 2371.26H1169.89M1167.55 2371.26V2377.11H1169.89V2371.26M1137.71 2371.26H1135.37M1137.71 2371.26V2377.11H1135.37V2371.26M1221.38 2371.26H1214.36M1214.36 2371.26V2378.28H1221.38M1214.36 2371.26H1212.02M1214.36 2371.26V2377.11H1212.02V2371.26M1056.96 2371.26V2329.13L1048.77 2329.95L1040.87 2332.29L1033.56 2336.21L1027.12 2341.48L1021.91 2347.85L1018.05 2355.11L1015.65 2363.01L1014.83 2371.26M1135.37 2371.26V2329.13L1127.18 2329.95L1119.28 2332.29L1111.96 2336.21L1105.53 2341.48L1100.32 2347.85L1096.46 2355.11L1094.06 2363.01L1093.24 2371.26M1212.02 2371.26V2329.13L1203.83 2329.95L1195.87 2332.29L1188.61 2336.21L1182.18 2341.48L1176.97 2347.85L1173.11 2355.11L1170.71 2363.01L1169.89 2371.26M829.935 906.995L838.712 918.698H897.224L906 906.995H829.935Z" stroke="black" stroke-width="5" stroke-miterlimit="10" stroke-linecap="square"/>
</g>
<g id="Vector_11">
<path d="M906 906.995L897.224 918.698V956.73H906V906.995ZM829.935 956.73H838.712V918.698L829.935 906.995V956.73ZM982.066 1183.76H906H982.066ZM906 1210.67V1189.61H982.066M906 1183.76H829.935H906Z" fill="#F5F5F5"/>
<path d="M982.066 1183.76H906H829.935M906 1210.67V1189.61H982.066M906 906.995L897.224 918.698V956.73H906V906.995ZM829.935 956.73H838.712V918.698L829.935 906.995V956.73Z" stroke="black" stroke-width="5" stroke-miterlimit="10" stroke-linecap="square"/>
</g>
<g id="Vector_12">
<path d="M829.935 1189.61V1210.67H906.001V1189.61M829.935 1183.76H821.685V1189.61H829.935V1210.67M669.553 1189.61V1183.76H662.005V1189.61H669.553ZM669.553 1189.61H671.894V1183.76H669.553V1189.61ZM821.685 1189.61H819.344V1183.76H821.685V1189.61ZM671.894 1189.61V1263.33V1189.61ZM819.344 1189.61V1263.33V1189.61ZM671.894 1263.33L682.426 1262.57L692.666 1260.35L702.496 1256.66L711.741 1251.63L720.166 1245.31L727.597 1237.88L733.917 1229.46L738.949 1220.21L742.635 1210.38L744.858 1200.08L745.619 1189.61" fill="#F5F5F5"/>
<path d="M906.001 1189.61V1210.67H829.935V1189.61H821.685M829.935 1183.76H821.685M821.685 1183.76V1189.61M821.685 1183.76H819.344V1189.61M821.685 1189.61H819.344M669.553 1189.61V1183.76M669.553 1189.61H662.005V1183.76H669.553M669.553 1189.61H671.894M669.553 1183.76H671.894V1189.61M671.894 1189.61V1263.33L682.426 1262.57L692.666 1260.35L702.496 1256.66L711.741 1251.63L720.166 1245.31L727.597 1237.88L733.917 1229.46L738.949 1220.21L742.635 1210.38L744.858 1200.08L745.619 1189.61M819.344 1189.61V1263.33" stroke="black" stroke-width="5" stroke-miterlimit="10" stroke-linecap="square"/>
</g>
<g id="Vector_13">
<path d="M819.344 1263.33L808.812 1262.57L798.573 1260.35L788.742 1256.66L779.498 1251.63L771.072 1245.31L763.641 1237.88L757.322 1229.45L752.289 1220.21L748.603 1210.38L746.38 1200.08L745.619 1189.61M662.005 1346.71V1183.76H647.377V1337.94M696.527 1008.81V1098.91V1008.81ZM699.453 1101.84V1005.88V1101.84ZM696.527 1098.91H553.173H696.527ZM550.247 1101.84H699.453H550.247ZM553.173 1098.91V1008.81V1098.91ZM550.247 1005.88V1101.84V1005.88ZM553.173 1008.81H696.527H553.173ZM699.453 1005.88H550.247H699.453ZM1057.55 1329.16H1063.11V1318.63H1049.36V1329.16M1121.91 1329.16H1127.47V1318.63H1104.06V1329.16H1111.38M1186.27 1329.16H1192.12V1318.63H1168.43V1329.16H1175.74M1250.64 1329.16H1256.2V1318.63H1233.08V1329.16H1240.1M1304.47 1318.63H1297.15V1329.16H1304.47V1326.82M1063.11 1318.63H1065.45V1324.48H1063.11V1318.63ZM1104.06 1318.63H1101.72V1324.48H1104.06V1318.63ZM1065.45 1318.63V1282.35V1318.63ZM1065.45 1282.35L1072.53 1283.05L1079.31 1285.1L1085.57 1288.44L1091.07 1293L1095.64 1298.44L1098.97 1304.76L1101.02 1311.55L1101.72 1318.63M1127.47 1318.63H1129.81V1324.48H1127.47V1318.63ZM1168.43 1318.63H1166.09V1324.48H1168.43V1318.63ZM1129.81 1318.63V1282.35V1318.63ZM1129.81 1282.35L1136.89 1283.05L1143.68 1285.1L1150 1288.44L1155.44 1293L1160 1298.44L1163.34 1304.76L1165.38 1311.55L1166.09 1318.63M1192.12 1318.63H1194.46V1324.48H1192.12V1318.63ZM1233.08 1318.63H1230.74V1324.48H1233.08V1318.63ZM1194.46 1318.63V1282.35V1318.63ZM1194.46 1282.35L1201.54 1283.05L1208.33 1285.1L1214.65 1288.44L1220.09 1293L1224.66 1298.44L1227.99 1304.76L1230.04 1311.55L1230.74 1318.63M1256.2 1318.63H1258.54V1324.48H1256.2V1318.63ZM1297.15 1318.63H1294.81V1324.48H1297.15V1318.63ZM1258.54 1318.63V1282.35V1318.63ZM1258.54 1282.35L1265.62 1283.05L1272.4 1285.1L1278.66 1288.44L1284.16 1293L1288.73 1298.44L1292.06 1304.76L1294.11 1311.55L1294.81 1318.63M1304.47 1329.16V1326.82V1329.16ZM1312.66 1326.82H1605.8V1318.63H1304.47M290.747 2110.59V2029.26H281.97V2119.36M358.035 2110.59V2029.26H349.259V2110.59M418.01 2029.26V2119.36L423.861 2110.59V2029.26M993.769 2476.29H1084.46H993.769ZM1085.05 2471.9H993.769H1085.05ZM1084.46 2476.29L1126.59 2488.58L1084.46 2476.29ZM1127.18 2484.19L1085.05 2471.9L1127.18 2484.19ZM1126.59 2488.58L1486.44 2489.98L1126.59 2488.58ZM1482.34 2485.59L1127.18 2484.19L1482.34 2485.59ZM1486.44 2489.98L1487.84 2466.93L1486.44 2489.98ZM1483.46 2466.93L1482.34 2485.59L1483.46 2466.93ZM1528.8 2466.93L1529.15 2491.5L1528.8 2466.93ZM1533.48 2487.23L1533.19 2466.93L1533.48 2487.23ZM1529.15 2491.5L1605.8 2493.9L1529.15 2491.5ZM1605.8 2489.51L1533.48 2487.23L1605.8 2489.51ZM993.769 1430.97H1084.46H993.769ZM1085.05 1426.58H993.769H1085.05ZM1084.46 1430.97L1126.59 1443.26L1084.46 1430.97ZM1127.18 1438.87L1085.05 1426.58L1127.18 1438.87ZM1126.59 1443.26L1486.44 1444.66L1126.59 1443.26ZM1482.29 1440.27L1127.23 1438.87L1482.29 1440.27ZM1486.44 1444.66L1487.61 1421.61L1486.44 1444.66ZM1483.22 1421.61L1482.29 1440.27L1483.22 1421.61ZM1528.57 1421.61L1529.15 1446.18L1528.57 1421.61ZM1533.43 1441.91L1532.96 1421.61L1533.43 1441.91ZM1529.15 1446.18L1603.46 1448.52L1529.15 1446.18ZM1599.08 1444.02L1533.43 1441.91L1599.08 1444.02ZM1603.46 1448.52V1421.61V1448.52ZM1599.08 1421.61V1444.02V1421.61ZM993.769 198.414H1084.46H993.769ZM1085.05 194.026H993.769H1085.05ZM1084.46 198.414L1126.59 210.702L1084.46 198.414ZM1127.18 206.313L1085.05 194.026L1127.18 206.313ZM1126.59 210.702L1486.44 212.106L1126.59 210.702ZM1482.23 207.718L1127.23 206.313L1482.23 207.718ZM1486.44 212.106L1487.55 189.052L1486.44 212.106ZM1483.16 189.052L1482.23 207.718L1483.16 189.052ZM1528.51 189.052L1529.15 213.627L1528.51 189.052ZM1533.43 209.415L1532.84 189.052L1533.43 209.415ZM1529.15 213.627L1605.8 216.553L1529.15 213.627ZM1605.8 212.165L1533.43 209.415L1605.8 212.165ZM418.01 2119.36V2110.59H410.872V2119.36H418.01ZM349.259 2110.59H345.689V2119.36H364.062V2110.59H358.035M281.97 2119.36H298.88V2110.59H290.747M364.062 2119.36H366.403V2113.51H364.062V2119.36ZM410.872 2119.36H408.531V2113.51H410.872V2119.36ZM366.403 2119.36V2161.49V2119.36ZM366.403 2161.49L374.594 2160.67L382.493 2158.33L389.807 2154.41L396.185 2149.15L401.451 2142.77L405.313 2135.46L407.712 2127.61L408.531 2119.36" fill="#F5F5F5"/>
<path d="M819.344 1263.33L808.812 1262.57L798.573 1260.35L788.742 1256.66L779.498 1251.63L771.072 1245.31L763.641 1237.88L757.322 1229.45L752.289 1220.21L748.603 1210.38L746.38 1200.08L745.619 1189.61M662.005 1346.71V1183.76H647.377V1337.94M1057.55 1329.16H1063.11V1318.63M1063.11 1318.63H1049.36V1329.16M1063.11 1318.63H1065.45M1063.11 1318.63V1324.48H1065.45V1318.63M1121.91 1329.16H1127.47V1318.63M1127.47 1318.63H1104.06M1127.47 1318.63H1129.81M1127.47 1318.63V1324.48H1129.81V1318.63M1104.06 1318.63V1329.16H1111.38M1104.06 1318.63H1101.72M1104.06 1318.63V1324.48H1101.72V1318.63M1186.27 1329.16H1192.12V1318.63M1192.12 1318.63H1168.43M1192.12 1318.63H1194.46M1192.12 1318.63V1324.48H1194.46V1318.63M1168.43 1318.63V1329.16H1175.74M1168.43 1318.63H1166.09M1168.43 1318.63V1324.48H1166.09V1318.63M1250.64 1329.16H1256.2V1318.63M1256.2 1318.63H1233.08M1256.2 1318.63H1258.54M1256.2 1318.63V1324.48H1258.54V1318.63M1233.08 1318.63V1329.16H1240.1M1233.08 1318.63H1230.74M1233.08 1318.63V1324.48H1230.74V1318.63M1297.15 1318.63H1304.47H1605.8V1326.82H1312.66M1297.15 1318.63V1329.16H1304.47V1326.82M1297.15 1318.63H1294.81M1297.15 1318.63V1324.48H1294.81V1318.63M1065.45 1318.63V1282.35L1072.53 1283.05L1079.31 1285.1L1085.57 1288.44L1091.07 1293L1095.64 1298.44L1098.97 1304.76L1101.02 1311.55L1101.72 1318.63M1129.81 1318.63V1282.35L1136.89 1283.05L1143.68 1285.1L1150 1288.44L1155.44 1293L1160 1298.44L1163.34 1304.76L1165.38 1311.55L1166.09 1318.63M1194.46 1318.63V1282.35L1201.54 1283.05L1208.33 1285.1L1214.65 1288.44L1220.09 1293L1224.66 1298.44L1227.99 1304.76L1230.04 1311.55L1230.74 1318.63M1258.54 1318.63V1282.35L1265.62 1283.05L1272.4 1285.1L1278.66 1288.44L1284.16 1293L1288.73 1298.44L1292.06 1304.76L1294.11 1311.55L1294.81 1318.63M418.01 2029.26V2119.36M418.01 2119.36L423.861 2110.59V2029.26M418.01 2119.36V2110.59H410.872V2119.36M418.01 2119.36H410.872M993.769 2476.29H1084.46L1126.59 2488.58L1486.44 2489.98L1487.84 2466.93M993.769 2471.9H1085.05L1127.18 2484.19L1482.34 2485.59L1483.46 2466.93M1528.8 2466.93L1529.15 2491.5L1605.8 2493.9M1533.19 2466.93L1533.48 2487.23L1605.8 2489.51M993.769 1430.97H1084.46L1126.59 1443.26L1486.44 1444.66L1487.61 1421.61M993.769 1426.58H1085.05L1127.18 1438.87M1127.23 1438.87L1482.29 1440.27L1483.22 1421.61M1528.57 1421.61L1529.15 1446.18L1603.46 1448.52V1421.61M1532.96 1421.61L1533.43 1441.91L1599.08 1444.02V1421.61M993.769 198.414H1084.46L1126.59 210.702L1486.44 212.106L1487.55 189.052M993.769 194.026H1085.05L1127.18 206.313M1127.23 206.313L1482.23 207.718L1483.16 189.052M1528.51 189.052L1529.15 213.627L1605.8 216.553M1532.84 189.052L1533.43 209.415L1605.8 212.165M410.872 2119.36H408.531M410.872 2119.36V2113.51H408.531V2119.36M364.062 2119.36H345.689V2110.59H349.259V2029.26H358.035V2110.59H364.062V2119.36ZM364.062 2119.36H366.403M364.062 2119.36V2113.51H366.403V2119.36M366.403 2119.36V2161.49L374.594 2160.67L382.493 2158.33L389.807 2154.41L396.185 2149.15L401.451 2142.77L405.313 2135.46L407.712 2127.61L408.531 2119.36M696.527 1008.81V1098.91H553.173V1008.81H696.527ZM699.453 1101.84V1005.88H550.247V1101.84H699.453ZM290.747 2110.59V2029.26H281.97V2119.36H298.88V2110.59H290.747Z" stroke="black" stroke-width="5" stroke-miterlimit="10" stroke-linecap="square"/>
</g>
<g id="Vector_14">
<path d="M298.88 2119.36H301.22V2113.51H298.88V2119.36ZM345.689 2119.36H343.349V2113.51H345.689V2119.36ZM301.22 2119.36V2161.49V2119.36ZM301.22 2161.49L309.412 2160.67L317.311 2158.33L324.625 2154.41L331.003 2149.15L336.269 2142.77L340.131 2135.46L342.471 2127.61L343.349 2119.36M375.882 1001.38V918.698H367.105V1001.38M367.105 1001.38H351.189V1010.15H375.882M281.97 1010.15H304.38V1001.38H290.747M304.38 1010.15H306.72V1004.3H304.38V1010.15ZM351.189 1010.15H348.849V1004.3H351.189V1010.15ZM306.72 1010.15V1052.28V1010.15ZM306.72 1052.28L314.912 1051.46L322.87 1049.06L330.125 1045.14L336.561 1039.88L341.828 1033.56L345.689 1026.24L348.03 1018.34L348.849 1010.15" fill="#F5F5F5"/>
<path d="M301.22 2119.36H298.88V2113.51H301.22V2119.36ZM301.22 2119.36V2161.49L309.412 2160.67L317.311 2158.33L324.625 2154.41L331.003 2149.15L336.269 2142.77L340.131 2135.46L342.471 2127.61L343.349 2119.36M343.349 2119.36H345.689V2113.51H343.349V2119.36ZM375.882 1010.15H351.189M375.882 1001.38V918.698H367.105V1001.38H351.189V1010.15M351.189 1010.15H348.849M351.189 1010.15V1004.3H348.849V1010.15M281.97 1010.15H304.38M304.38 1010.15V1001.38H290.747M304.38 1010.15H306.72M304.38 1010.15V1004.3H306.72V1010.15M306.72 1010.15V1052.28L314.912 1051.46L322.87 1049.06L330.125 1045.14L336.561 1039.88L341.828 1033.56L345.689 1026.24L348.03 1018.34L348.849 1010.15" stroke="black" stroke-width="5" stroke-miterlimit="10" stroke-linecap="square"/>
</g>
<g id="Vector_15">
<path d="M290.747 1001.38V918.698H281.97V1010.15M473.012 1010.15V918.698H464.235V1001.38" fill="#F5F5F5"/>
<path d="M290.747 1001.38V918.698H281.97V1010.15M473.012 1010.15V918.698H464.235V1001.38" stroke="black" stroke-width="5" stroke-miterlimit="10" stroke-linecap="square"/>
</g>
<g id="Vector_16">
<path d="M464.235 1001.38H443.755V1010.15H473.011M375.881 1010.15H396.946V1001.38H375.881M396.946 1010.15H399.286V1004.3H396.946V1010.15ZM443.755 1010.15H441.415V1004.3H443.755V1010.15ZM399.286 1010.15V1052.28V1010.15ZM399.286 1052.28L407.478 1051.46L415.377 1049.06L422.633 1045.14L429.069 1039.88L434.276 1033.56L438.138 1026.24L440.537 1018.34L441.415 1010.15M521.752 1337.94V1210.67H512.975V1337.94M1390.6 2377.11H1383.58V2455.22H1390.6V2377.11ZM1473.1 2377.11H1466.08V2455.22H1473.1V2377.11ZM1228.4 2378.28H1245.49V2371.26H1228.4M1304.47 2371.26H1292.3V2378.28H1304.47M1292.3 2371.26H1289.96V2377.11H1292.3V2371.26ZM1245.49 2371.26H1247.83V2377.11H1245.49V2371.26ZM1289.96 2371.26V2329.13V2371.26ZM1289.96 2329.13L1281.76 2329.95L1273.81 2332.29L1266.55 2336.21L1260.12 2341.48L1254.85 2347.85L1250.99 2355.11L1248.65 2363.01L1247.83 2371.26M1473.1 2270.62H1466.08V2371.26H1473.1V2270.62ZM603.201 2471.43H246.277H603.201ZM235.745 2481.96H613.733H235.745ZM246.277 2471.43V2429.6H235.745V2481.96M235.745 2356.46H246.277V2306.02H235.745V2356.46ZM235.745 2356.46V2358.8H246.277V2356.46H235.745ZM235.745 2429.6V2427.26H246.277V2429.6H235.745ZM613.733 2306.02H603.201V2356.34H613.733V2306.02ZM613.733 2481.96V2429.48H603.201V2471.43M613.733 2429.48V2427.14H603.201V2429.48H613.733ZM613.733 2356.34V2358.68H603.201V2356.34H613.733ZM247.448 1337.94V1298.38H239.256V1337.94M239.256 1210.67V1245.72H247.448V1210.67M239.256 1245.72V1248.06H245.107V1245.72H239.256ZM239.256 1298.38V1296.04H245.107V1298.38H239.256ZM239.256 1248.06H191.276H239.256ZM191.276 1248.06L192.037 1256.37L194.143 1264.45L197.654 1272.05L202.51 1278.9L208.361 1284.75L215.266 1289.61L222.872 1293.12L230.947 1295.28L239.256 1296.04M521.752 1346.71H662.005H521.752ZM647.377 1337.94H521.752H647.377ZM235.16 1183.76H224.043V1210.67H235.745V1183.76M121.939 1210.67H136.275V1183.76H121.939M224.043 1183.76H221.702V1189.61H224.043V1183.76ZM136.275 1183.76H138.615V1189.61H136.275V1183.76ZM221.702 1183.76V1142.21V1183.76ZM138.615 1183.76V1142.21V1183.76ZM221.702 1142.21L213.628 1143.03L205.787 1145.37L198.648 1149.24L192.329 1154.38L187.18 1160.65L183.318 1167.84L180.978 1175.62L180.159 1183.76" fill="#F5F5F5"/>
<path d="M464.235 1001.38H443.755V1010.15M443.755 1010.15H473.011M443.755 1010.15H441.415M443.755 1010.15V1004.3H441.415V1010.15M375.881 1010.15H396.946M396.946 1010.15V1001.38H375.881M396.946 1010.15H399.286M396.946 1010.15V1004.3H399.286V1010.15M399.286 1010.15V1052.28L407.478 1051.46L415.377 1049.06L422.633 1045.14L429.069 1039.88L434.276 1033.56L438.138 1026.24L440.537 1018.34L441.415 1010.15M512.975 1337.94V1210.67H521.752V1337.94H647.377M1228.4 2378.28H1245.49V2371.26M1245.49 2371.26H1228.4M1245.49 2371.26H1247.83M1245.49 2371.26V2377.11H1247.83V2371.26M1304.47 2371.26H1292.3M1292.3 2371.26V2378.28H1304.47M1292.3 2371.26H1289.96M1292.3 2371.26V2377.11H1289.96V2371.26M1289.96 2371.26V2329.13L1281.76 2329.95L1273.81 2332.29L1266.55 2336.21L1260.12 2341.48L1254.85 2347.85L1250.99 2355.11L1248.65 2363.01L1247.83 2371.26M246.277 2429.6V2471.43H603.201V2429.48M246.277 2429.6H235.745M246.277 2429.6V2427.26H235.745V2429.6M235.745 2429.6V2481.96H613.733V2429.48M235.745 2356.46H246.277M235.745 2356.46V2306.02H246.277V2356.46M235.745 2356.46V2358.8H246.277V2356.46M603.201 2356.34V2306.02H613.733V2356.34M603.201 2356.34H613.733M603.201 2356.34V2358.68H613.733V2356.34M613.733 2429.48H603.201M613.733 2429.48V2427.14H603.201V2429.48M247.448 1337.94V1298.38H239.256M239.256 1298.38V1337.94M239.256 1298.38V1296.04M239.256 1298.38H245.107V1296.04H239.256M239.256 1210.67V1245.72M239.256 1245.72H247.448V1210.67M239.256 1245.72V1248.06M239.256 1245.72H245.107V1248.06H239.256M239.256 1248.06H191.276L192.037 1256.37L194.143 1264.45L197.654 1272.05L202.51 1278.9L208.361 1284.75L215.266 1289.61L222.872 1293.12L230.947 1295.28L239.256 1296.04M521.752 1346.71H662.005M235.16 1183.76H224.043M224.043 1183.76V1210.67H235.745V1183.76M224.043 1183.76H221.702M224.043 1183.76V1189.61H221.702V1183.76M121.939 1210.67H136.275V1183.76M136.275 1183.76H121.939M136.275 1183.76H138.615M136.275 1183.76V1189.61H138.615V1183.76M221.702 1183.76V1142.21L213.628 1143.03L205.787 1145.37L198.648 1149.24L192.329 1154.38L187.18 1160.65L183.318 1167.84L180.978 1175.62L180.159 1183.76M138.615 1183.76V1142.21M1390.6 2377.11H1383.58V2455.22H1390.6V2377.11ZM1473.1 2377.11H1466.08V2455.22H1473.1V2377.11ZM1473.1 2270.62H1466.08V2371.26H1473.1V2270.62Z" stroke="black" stroke-width="5" stroke-miterlimit="10" stroke-linecap="square"/>
</g>
<g id="Vector_17">
<path d="M138.615 1142.21L146.69 1143.03L154.531 1145.37L161.727 1149.24L167.988 1154.38L173.137 1160.65L176.999 1167.84L179.34 1175.62L180.159 1183.76M247.448 1210.67H265.586V1190.78H235.745V1210.67H239.256M235.745 1183.76V1183.17V1183.76ZM235.16 1182.59V1183.76V1182.59ZM235.745 1183.17H236.33V1182.59H235.16M266.171 1182.59H265.586V1183.17M265.586 1182.59H263.246V1188.44H265.586V1182.59ZM236.33 1182.59H238.671V1188.44H236.33V1182.59ZM263.246 1182.59V1158.01V1182.59ZM263.246 1158.01L256.868 1158.83L250.958 1161.23L245.868 1165.15L241.947 1170.24L239.49 1176.21L238.671 1182.59M265.586 1183.17V1183.76V1183.17ZM266.171 1183.76V1182.59V1183.76ZM897.224 956.731V956.145H892.952V956.731H897.224ZM846.143 956.731V956.145H838.712V956.731H846.143ZM846.143 956.731H848.483V950.879H846.143V956.731ZM892.952 956.731H890.612V950.879H892.952V956.731ZM848.483 956.731V998.859V956.731ZM848.483 998.859L856.675 998.04L864.574 995.7L871.888 991.779L878.266 986.513L883.532 980.135L887.394 972.821L889.793 964.922L890.612 956.731M647.377 762.471V842.047H662.005V753.694H647.377M662.005 894.708H647.377V906.995L662.005 918.698V894.708ZM662.005 894.708V892.367H656.154V894.708H662.005ZM662.005 842.047V844.387H656.154V842.047H662.005ZM662.005 892.367H709.985H662.005ZM709.985 892.367L709.283 884.059L707.118 875.925L703.607 868.377L698.751 861.531L692.9 855.622L685.995 850.824L678.389 847.313L670.314 845.089L662.005 844.387M647.377 253.416H606.419V262.193M615.196 262.193H647.377H615.196ZM606.419 262.193L607.589 496.241L606.419 262.193ZM616.366 496.241L615.196 262.193L616.366 496.241ZM607.589 510.869L607.882 762.471L607.589 510.869ZM616.659 753.694L616.366 510.869L616.659 753.694ZM607.882 762.471H647.377H607.882ZM647.377 753.694H616.659H647.377ZM662.005 1355.2V1349.35H238.963V1355.2H662.005ZM345.748 1355.2H342.822V1467.83H345.748V1355.2ZM238.963 1467.83H241.889V1355.2H238.963V1467.83ZM451.655 1355.2H448.729V1467.83H451.655V1355.2ZM557.561 1355.2H554.636V1467.83H557.561V1355.2ZM662.005 1355.2H659.08V1467.83H662.005V1355.2ZM238.378 2010.82V2016.68H662.005V2010.82H238.378ZM345.748 1899.07H342.822V2010.82H345.748V1899.07ZM238.378 2010.82H241.304V1899.07H238.378V2010.82ZM451.655 1899.07H448.729V2010.82H451.655V1899.07ZM557.561 1899.07H554.636V2010.82H557.561V1899.07ZM662.005 1899.07H659.08V2010.82H662.005V1899.07ZM186.888 359.381L186.186 355.578L184.313 352.243L181.329 349.727L177.701 348.439H173.839L170.212 349.727L167.286 352.243L165.297 355.578L164.653 359.381L165.297 363.184L167.286 366.519L170.212 368.977L173.839 370.323H177.701L181.329 368.977L184.255 366.519L186.186 363.184L186.888 359.381ZM186.888 647.553L186.186 643.75L184.313 640.414L181.329 637.957L177.701 636.611H173.839L170.212 637.957L167.286 640.414L165.297 643.75L164.653 647.553L165.297 651.356L167.286 654.691L170.212 657.207L173.839 658.495H177.701L181.329 657.149L184.255 654.691L186.186 651.356L186.888 647.553ZM187.122 1469.65L186.42 1465.84L184.547 1462.51L181.563 1459.99L177.935 1458.71H174.074L170.446 1460.05L167.52 1462.51L165.531 1465.84L164.887 1469.65L165.531 1473.45L167.52 1476.79L170.446 1479.24L174.074 1480.59H177.935L181.563 1479.24L184.489 1476.79L186.42 1473.45L187.122 1469.65ZM186.712 1758.35L186.01 1754.54L184.138 1751.21L181.153 1748.69L177.526 1747.4H173.664L170.036 1748.69L167.111 1751.21L165.18 1754.54L164.478 1758.35L165.18 1762.15L167.052 1765.48L170.036 1768L173.664 1769.29H177.526L181.153 1767.94L184.079 1765.48L186.068 1762.15L186.712 1758.35ZM186.888 2565.29L186.186 2561.48L184.313 2558.15L181.329 2555.63L177.701 2554.34H173.839L170.212 2555.63L167.286 2558.15L165.297 2561.48L164.653 2565.29L165.297 2569.09L167.286 2572.42L170.212 2574.94L173.839 2576.23H177.701L181.329 2574.88L184.255 2572.42L186.186 2569.09L186.888 2565.29ZM186.712 2853.81L186.01 2850L184.138 2846.67L181.153 2844.15L177.526 2842.87H173.664L170.036 2844.15L167.111 2846.67L165.18 2850L164.478 2853.81L165.18 2857.61L167.052 2860.95L170.036 2863.4L173.664 2864.75H177.526L181.153 2863.46L184.079 2860.95L186.068 2857.61L186.712 2853.81ZM863.462 2853.87L862.819 2850.06L860.829 2846.73L857.904 2844.27L854.276 2842.92H850.414L846.786 2844.21L843.861 2846.73L841.871 2850.06L841.228 2853.87L841.871 2857.67L843.861 2861L846.786 2863.46L850.414 2864.81H854.276L857.904 2863.52L860.829 2861L862.819 2857.67L863.462 2853.87ZM863.462 2565.58L862.819 2561.77L860.829 2558.44L857.904 2555.92L854.276 2554.64H850.414L846.786 2555.92L843.861 2558.44L841.871 2561.77L841.228 2565.58L841.871 2569.38L843.861 2572.72L846.786 2575.23L850.414 2576.52H854.276L857.904 2575.23L860.829 2572.72L862.819 2569.38L863.462 2565.58ZM863.287 1758.4L862.643 1754.6L860.654 1751.27L857.728 1748.75L854.1 1747.46H850.239L846.611 1748.81L843.685 1751.27L841.696 1754.6L841.052 1758.4L841.696 1762.21L843.685 1765.54L846.611 1768.06L850.239 1769.35H854.1L857.728 1768L860.654 1765.54L862.643 1762.21L863.287 1758.4ZM863.287 1469.88L862.643 1466.08L860.654 1462.74L857.728 1460.23L854.1 1458.94H850.239L846.611 1460.23L843.685 1462.74L841.696 1466.08L841.052 1469.88L841.696 1473.68L843.685 1477.02L846.611 1479.54L850.239 1480.82H854.1L857.728 1479.48L860.654 1477.02L862.643 1473.68L863.287 1469.88ZM863.287 647.845L862.643 644.042L860.654 640.707L857.728 638.191L854.1 636.904H850.239L846.611 638.191L843.685 640.707L841.696 644.042L841.052 647.845L841.696 651.649L843.685 654.984L846.611 657.441L850.239 658.787H854.1L857.728 657.441L860.654 654.984L862.643 651.649L863.287 647.845ZM863.287 359.381L862.643 355.578L860.654 352.243L857.728 349.727L854.1 348.439H850.239L846.611 349.727L843.685 352.243L841.696 355.578L841.052 359.381L841.696 363.184L843.685 366.519L846.611 368.977L850.239 370.323H854.1L857.728 368.977L860.654 366.519L862.643 363.184L863.287 359.381ZM829.935 2029.26H906.001V2017.55H829.935V2029.26ZM829.935 2306.02H906.001V2294.32H829.935V2306.02Z" fill="#F5F5F5"/>
<path d="M138.615 1142.21L146.69 1143.03L154.531 1145.37L161.727 1149.24L167.988 1154.38L173.137 1160.65L176.999 1167.84L179.34 1175.62L180.159 1183.76M247.448 1210.67H265.586V1190.78H235.745V1210.67H239.256M235.745 1183.76V1183.17H236.33V1182.59M235.16 1183.76V1182.59H236.33M236.33 1182.59H238.671M236.33 1182.59V1188.44H238.671V1182.59M265.586 1182.59H266.171V1183.76M265.586 1182.59V1183.17V1183.76M265.586 1182.59H263.246M265.586 1182.59V1188.44H263.246V1182.59M263.246 1182.59V1158.01L256.868 1158.83L250.958 1161.23L245.868 1165.15L241.947 1170.24L239.49 1176.21L238.671 1182.59M892.952 956.731V956.145H897.224V956.731H892.952ZM892.952 956.731H890.612M892.952 956.731V950.879H890.612V956.731M846.143 956.731V956.145H838.712V956.731H846.143ZM846.143 956.731H848.483M846.143 956.731V950.879H848.483V956.731M848.483 956.731V998.859L856.675 998.04L864.574 995.7L871.888 991.779L878.266 986.513L883.532 980.135L887.394 972.821L889.793 964.922L890.612 956.731M662.005 842.047H647.377V762.471H607.882L607.589 510.869M662.005 842.047V753.694H647.377H616.659L616.366 510.869M662.005 842.047V844.387M662.005 842.047H656.154V844.387H662.005M662.005 894.708H647.377V906.995L662.005 918.698V894.708ZM662.005 894.708V892.367M662.005 894.708H656.154V892.367H662.005M662.005 892.367H709.985L709.283 884.059L707.118 875.925L703.607 868.377L698.751 861.531L692.9 855.622L685.995 850.824L678.389 847.313L670.314 845.089L662.005 844.387M647.377 253.416H606.419V262.193L607.589 496.241M647.377 262.193H615.196L616.366 496.241M662.005 1355.2V1349.35H238.963V1355.2M662.005 1355.2H238.963M662.005 1355.2H659.08V1467.83H662.005V1355.2ZM238.963 1355.2H241.889V1467.83H238.963V1355.2ZM238.378 2010.82V2016.68H662.005V2010.82M238.378 2010.82H662.005M238.378 2010.82H241.304V1899.07H238.378V2010.82ZM662.005 2010.82H659.08V1899.07H662.005V2010.82ZM345.748 1355.2H342.822V1467.83H345.748V1355.2ZM451.655 1355.2H448.729V1467.83H451.655V1355.2ZM557.561 1355.2H554.636V1467.83H557.561V1355.2ZM345.748 1899.07H342.822V2010.82H345.748V1899.07ZM451.655 1899.07H448.729V2010.82H451.655V1899.07ZM557.561 1899.07H554.636V2010.82H557.561V1899.07ZM186.888 359.381L186.186 355.578L184.313 352.243L181.329 349.727L177.701 348.439H173.839L170.212 349.727L167.286 352.243L165.297 355.578L164.653 359.381L165.297 363.184L167.286 366.519L170.212 368.977L173.839 370.323H177.701L181.329 368.977L184.255 366.519L186.186 363.184L186.888 359.381ZM186.888 647.553L186.186 643.75L184.313 640.414L181.329 637.957L177.701 636.611H173.839L170.212 637.957L167.286 640.414L165.297 643.75L164.653 647.553L165.297 651.356L167.286 654.691L170.212 657.207L173.839 658.495H177.701L181.329 657.149L184.255 654.691L186.186 651.356L186.888 647.553ZM187.122 1469.65L186.42 1465.84L184.547 1462.51L181.563 1459.99L177.935 1458.71H174.074L170.446 1460.05L167.52 1462.51L165.531 1465.84L164.887 1469.65L165.531 1473.45L167.52 1476.79L170.446 1479.24L174.074 1480.59H177.935L181.563 1479.24L184.489 1476.79L186.42 1473.45L187.122 1469.65ZM186.712 1758.35L186.01 1754.54L184.138 1751.21L181.153 1748.69L177.526 1747.4H173.664L170.036 1748.69L167.111 1751.21L165.18 1754.54L164.478 1758.35L165.18 1762.15L167.052 1765.48L170.036 1768L173.664 1769.29H177.526L181.153 1767.94L184.079 1765.48L186.068 1762.15L186.712 1758.35ZM186.888 2565.29L186.186 2561.48L184.313 2558.15L181.329 2555.63L177.701 2554.34H173.839L170.212 2555.63L167.286 2558.15L165.297 2561.48L164.653 2565.29L165.297 2569.09L167.286 2572.42L170.212 2574.94L173.839 2576.23H177.701L181.329 2574.88L184.255 2572.42L186.186 2569.09L186.888 2565.29ZM186.712 2853.81L186.01 2850L184.138 2846.67L181.153 2844.15L177.526 2842.87H173.664L170.036 2844.15L167.111 2846.67L165.18 2850L164.478 2853.81L165.18 2857.61L167.052 2860.95L170.036 2863.4L173.664 2864.75H177.526L181.153 2863.46L184.079 2860.95L186.068 2857.61L186.712 2853.81ZM863.462 2853.87L862.819 2850.06L860.829 2846.73L857.904 2844.27L854.276 2842.92H850.414L846.786 2844.21L843.861 2846.73L841.871 2850.06L841.228 2853.87L841.871 2857.67L843.861 2861L846.786 2863.46L850.414 2864.81H854.276L857.904 2863.52L860.829 2861L862.819 2857.67L863.462 2853.87ZM863.462 2565.58L862.819 2561.77L860.829 2558.44L857.904 2555.92L854.276 2554.64H850.414L846.786 2555.92L843.861 2558.44L841.871 2561.77L841.228 2565.58L841.871 2569.38L843.861 2572.72L846.786 2575.23L850.414 2576.52H854.276L857.904 2575.23L860.829 2572.72L862.819 2569.38L863.462 2565.58ZM863.287 1758.4L862.643 1754.6L860.654 1751.27L857.728 1748.75L854.1 1747.46H850.239L846.611 1748.81L843.685 1751.27L841.696 1754.6L841.052 1758.4L841.696 1762.21L843.685 1765.54L846.611 1768.06L850.239 1769.35H854.1L857.728 1768L860.654 1765.54L862.643 1762.21L863.287 1758.4ZM863.287 1469.88L862.643 1466.08L860.654 1462.74L857.728 1460.23L854.1 1458.94H850.239L846.611 1460.23L843.685 1462.74L841.696 1466.08L841.052 1469.88L841.696 1473.68L843.685 1477.02L846.611 1479.54L850.239 1480.82H854.1L857.728 1479.48L860.654 1477.02L862.643 1473.68L863.287 1469.88ZM863.287 647.845L862.643 644.042L860.654 640.707L857.728 638.191L854.1 636.904H850.239L846.611 638.191L843.685 640.707L841.696 644.042L841.052 647.845L841.696 651.649L843.685 654.984L846.611 657.441L850.239 658.787H854.1L857.728 657.441L860.654 654.984L862.643 651.649L863.287 647.845ZM863.287 359.381L862.643 355.578L860.654 352.243L857.728 349.727L854.1 348.439H850.239L846.611 349.727L843.685 352.243L841.696 355.578L841.052 359.381L841.696 363.184L843.685 366.519L846.611 368.977L850.239 370.323H854.1L857.728 368.977L860.654 366.519L862.643 363.184L863.287 359.381ZM829.935 2029.26H906.001V2017.55H829.935V2029.26ZM829.935 2306.02H906.001V2294.32H829.935V2306.02Z" stroke="black" stroke-width="5" stroke-miterlimit="10" stroke-linecap="square"/>
</g>
</g>
<g id="workspacesBackGroup">
<path id="wsB10654" d="M1487.55 189.052L1486.44 212.106L1126.59 210.702L1084.46 198.414H993.769V1183.76H1605.8V1123.49H1716.68L1924.99 373.19L1605.8 284.603V216.553L1529.15 213.627L1528.51 189.052H1487.55Z" fill="#F5F5F5" stroke="black" stroke-width="5" stroke-miterlimit="10" stroke-linecap="square"/>
<path id="wsB10652" d="M1605.8 1421.61H1603.46V1448.52L1529.15 1446.18L1528.57 1421.61H1487.61L1486.44 1444.66L1126.59 1443.26L1084.46 1430.97H993.769V2240.78H1605.8V1421.61Z" fill="#F5F5F5" stroke="black" stroke-width="5" stroke-miterlimit="10" stroke-linecap="square"/>
<path id="wsB10663" d="M689.389 918.698V1005.88H699.453V1101.84H550.247V1005.88H473.011V1010.15H281.97V918.698H121.939V1183.76H235.16V1182.59H266.171V1183.76H982.066V100.114H662.005V263.363H647.377V262.193H615.196L616.366 496.241H647.377V510.869H616.366L616.659 753.694H662.005V918.698H689.389Z" fill="#F5F5F5" stroke="black" stroke-width="5" stroke-miterlimit="10" stroke-linecap="square"/>
<path id="wsB10670" d="M662.005 2029.26L705.597 2029.55V2119.36H281.97V2029.26H121.939V2294.32H982.066V1904.63H921.799V1879.41L931.161 1895.26H982.066V1189.61H906V1210.67H829.935V1189.61H662.005V2029.26Z" fill="#F5F5F5" stroke="black" stroke-width="5" stroke-miterlimit="10" stroke-linecap="square"/>
<path id="wsB10667" d="M121.939 3112.9H711.624V2294.32H654.691V2306.02H613.733V2481.96H235.745V2306.02H121.939V3112.9Z" fill="#F5F5F5" stroke="black" stroke-width="5" stroke-miterlimit="10" stroke-linecap="square"/>
<path id="wsB10653" d="M1529.15 2491.5L1528.8 2466.93H1487.84L1486.44 2489.98L1126.59 2488.58L1084.46 2476.29H993.769V3112.9H1605.8V2493.9L1529.15 2491.5Z" fill="#F5F5F5" stroke="black" stroke-width="5" stroke-miterlimit="10" stroke-linecap="square"/>
<path id="wsB10666" d="M121.939 1210.67V2017.55H662.005V2016.68H238.378V1899.07H241.304V2010.82H342.822V1899.07H345.748V2010.82H448.729V1899.07H451.655V2010.82H554.636V1899.07H557.561V2010.82H659.08V1899.07H662.005V1467.83H659.08V1355.2H557.561V1467.83H554.636V1355.2H451.655V1467.83H448.729V1355.2H345.748V1467.83H342.822V1355.2H241.889V1467.83H238.963V1349.35H662.005V1346.71H238.963V1337.94H239.256V1210.67H121.939Z" fill="#F5F5F5" stroke="black" stroke-width="5" stroke-miterlimit="10" stroke-linecap="square"/>
<path id="wsB10669" d="M711.624 2294.32V3112.9H982.066V2294.32H906.001V2306.02H829.935V2294.32H711.624Z" fill="#F5F5F5" stroke="black" stroke-width="5" stroke-miterlimit="10" stroke-linecap="square"/>
<path id="wsB10671" d="M121.939 496.592L607.589 496.299L606.419 253.416H647.377V100.114H121.939V496.592Z" fill="#F5F5F5" stroke="black" stroke-width="5" stroke-miterlimit="10" stroke-linecap="square"/>
<path id="wsB10664" d="M607.589 510.869L121.939 511.22V906.995H647.377V762.471H607.882L607.589 510.869Z" fill="#F5F5F5" stroke="black" stroke-width="5" stroke-miterlimit="10" stroke-linecap="square"/>
<path id="wsB10635" d="M993.769 1208.33V1326.82H1049.35V1318.63H1605.8V1208.33H993.769Z" fill="#F5F5F5" stroke="black" stroke-width="5" stroke-miterlimit="10" stroke-linecap="square"/>
<path id="wsB10660" d="M603.201 2306.02H246.277V2471.43H603.201V2306.02Z" fill="#F5F5F5" stroke="black" stroke-width="5" stroke-miterlimit="10" stroke-linecap="square"/>
<path id="wsB10634" d="M993.769 2270.62V2371.26H1466.08V2270.62H993.769Z" fill="#F5F5F5" stroke="black" stroke-width="5" stroke-miterlimit="10" stroke-linecap="square"/>
<path id="wsB10661" d="M247.448 1337.94H512.975V1210.67H247.448V1337.94Z" fill="#F5F5F5" stroke="black" stroke-width="5" stroke-miterlimit="10" stroke-linecap="square"/>
<path id="wsB10640" d="M1312.66 1409.91H1605.8V1326.82H1312.66V1409.91Z" fill="#F5F5F5" stroke="black" stroke-width="5" stroke-miterlimit="10" stroke-linecap="square"/>
<path id="wsB10668" d="M662.005 2029.26H423.861V2110.59H705.597V2029.55L662.005 2029.26Z" fill="#F5F5F5" stroke="black" stroke-width="5" stroke-miterlimit="10" stroke-linecap="square"/>
<path id="wsB10637" d="M1605.8 100.114H1313.24V177.35H1605.8V100.114Z" fill="#F5F5F5" stroke="black" stroke-width="5" stroke-miterlimit="10" stroke-linecap="square"/>
<path id="wsB10662" d="M473.011 918.698V1005.88H689.389V918.698H473.011Z" fill="#F5F5F5" stroke="black" stroke-width="5" stroke-miterlimit="10" stroke-linecap="square"/>
<path id="wsB10639" d="M1306.22 100.114H1091.48V177.35H1306.22V100.114Z" fill="#F5F5F5" stroke="black" stroke-width="5" stroke-miterlimit="10" stroke-linecap="square"/>
<path id="wsB10665" d="M647.377 1337.94V1210.67H521.752V1337.94H647.377Z" fill="#F5F5F5" stroke="black" stroke-width="5" stroke-miterlimit="10" stroke-linecap="square"/>
<path id="wsB10649" d="M553.173 1008.81V1098.91H696.527V1008.81H553.173Z" fill="#F5F5F5" stroke="black" stroke-width="5" stroke-miterlimit="10" stroke-linecap="square"/>
<path id="wsB10658" d="M1473.1 2455.22H1605.8V2377.11H1473.1V2455.22Z" fill="#F5F5F5" stroke="black" stroke-width="5" stroke-miterlimit="10" stroke-linecap="square"/>
<path id="wsB10656" d="M464.235 1001.38V918.698H375.881V1001.38H464.235Z" fill="#F5F5F5" stroke="black" stroke-width="5" stroke-miterlimit="10" stroke-linecap="square"/>
<path id="wsB10638" d="M1084.46 100.114H993.769V177.35H1084.46V100.114Z" fill="#F5F5F5" stroke="black" stroke-width="5" stroke-miterlimit="10" stroke-linecap="square"/>
<path id="wsB10655" d="M290.747 1001.38H367.105V918.698H290.747V1001.38Z" fill="#F5F5F5" stroke="black" stroke-width="5" stroke-miterlimit="10" stroke-linecap="square"/>
<path id="wsB10657" d="M1390.6 2455.22H1466.08V2377.11H1390.6V2455.22Z" fill="#F5F5F5" stroke="black" stroke-width="5" stroke-miterlimit="10" stroke-linecap="square"/>
<path id="wsB10659" d="M1228.4 2455.22H1304.47V2378.28H1228.4V2455.22Z" fill="#F5F5F5" stroke="black" stroke-width="5" stroke-miterlimit="10" stroke-linecap="square"/>
<path id="wsB10646" d="M993.769 2378.28V2455.22H1066.91V2378.28H993.769Z" fill="#F5F5F5" stroke="black" stroke-width="5" stroke-miterlimit="10" stroke-linecap="square"/>
<path id="wsB10645" d="M1312.66 2455.22H1383.58V2377.11H1312.66V2455.22Z" fill="#F5F5F5" stroke="black" stroke-width="5" stroke-miterlimit="10" stroke-linecap="square"/>
<path id="wsB10648" d="M1073.93 2455.22H1144.73V2378.28H1073.93V2455.22Z" fill="#F5F5F5" stroke="black" stroke-width="5" stroke-miterlimit="10" stroke-linecap="square"/>
<path id="wsB10647" d="M1151.75 2455.22H1221.38V2378.28H1151.75V2455.22Z" fill="#F5F5F5" stroke="black" stroke-width="5" stroke-miterlimit="10" stroke-linecap="square"/>
<path id="wsB10651" d="M418.01 2029.26H358.035V2110.59H418.01V2029.26Z" fill="#F5F5F5" stroke="black" stroke-width="5" stroke-miterlimit="10" stroke-linecap="square"/>
<path id="wsB10650" d="M349.259 2029.26H290.747V2110.59H349.259V2029.26Z" fill="#F5F5F5" stroke="black" stroke-width="5" stroke-miterlimit="10" stroke-linecap="square"/>
<path id="wsB10636" d="M993.769 1326.82V1409.91H1049.35V1326.82H993.769Z" fill="#F5F5F5" stroke="black" stroke-width="5" stroke-miterlimit="10" stroke-linecap="square"/>
<path id="wsB10641" d="M1057.55 1409.91H1111.38V1329.16H1057.55V1409.91Z" fill="#F5F5F5" stroke="black" stroke-width="5" stroke-miterlimit="10" stroke-linecap="square"/>
<path id="wsB10642" d="M1250.64 1409.91H1304.47V1329.16H1250.64V1409.91Z" fill="#F5F5F5" stroke="black" stroke-width="5" stroke-miterlimit="10" stroke-linecap="square"/>
<path id="wsB10643" d="M1186.27 1409.91H1240.1V1329.16H1186.27V1409.91Z" fill="#F5F5F5" stroke="black" stroke-width="5" stroke-miterlimit="10" stroke-linecap="square"/>
<path id="wsB10644" d="M1121.91 1409.91H1175.74V1329.16H1121.91V1409.91Z" fill="#F5F5F5" stroke="black" stroke-width="5" stroke-miterlimit="10" stroke-linecap="square"/>
</g>
<g id="workspacesFrontGroup">
<path id="M2_R1" d="M1487.55 189.052L1486.44 212.106L1126.59 210.702L1084.46 198.414H993.769V1183.76H1605.8V1123.49H1716.68L1924.99 373.19L1605.8 284.603V216.553L1529.15 213.627L1528.51 189.052H1487.55Z" fill="#F5F5F5" stroke="black" stroke-width="5" stroke-miterlimit="10" stroke-linecap="square"/>
<path id="M2_R2" d="M1605.8 1421.61H1603.46V1448.52L1529.15 1446.18L1528.57 1421.61H1487.61L1486.44 1444.66L1126.59 1443.26L1084.46 1430.97H993.769V2240.78H1605.8V1421.61Z" fill="#F5F5F5" stroke="black" stroke-width="5" stroke-miterlimit="10" stroke-linecap="square"/>
<path id="wsF10663" d="M689.389 918.698V1005.88H699.453V1101.84H550.247V1005.88H473.011V1010.15H281.97V918.698H121.939V1183.76H235.16V1182.59H266.171V1183.76H982.066V100.114H662.005V263.363H647.377V262.193H615.196L616.366 496.241H647.377V510.869H616.366L616.659 753.694H662.005V918.698H689.389Z" fill="#F5F5F5" stroke="black" stroke-width="5" stroke-miterlimit="10" stroke-linecap="square"/>
<path id="wsF10670" d="M662.005 2029.26L705.597 2029.55V2119.36H281.97V2029.26H121.939V2294.32H982.066V1904.63H921.799V1879.41L931.161 1895.26H982.066V1189.61H906V1210.67H829.935V1189.61H662.005V2029.26Z" fill="#F5F5F5" stroke="black" stroke-width="5" stroke-miterlimit="10" stroke-linecap="square"/>
<path id="wsF10667" d="M121.939 3112.9H711.624V2294.32H654.691V2306.02H613.733V2481.96H235.745V2306.02H121.939V3112.9Z" fill="#F5F5F5" stroke="black" stroke-width="5" stroke-miterlimit="10" stroke-linecap="square"/>
<path id="M2_R3" d="M1529.15 2491.5L1528.8 2466.93H1487.84L1486.44 2489.98L1126.59 2488.58L1084.46 2476.29H993.769V3112.9H1605.8V2493.9L1529.15 2491.5Z" fill="#F5F5F5" stroke="black" stroke-width="5" stroke-miterlimit="10" stroke-linecap="square"/>
<path id="wsF10666" d="M121.939 1210.67V2017.55H662.005V2016.68H238.378V1899.07H241.304V2010.82H342.822V1899.07H345.748V2010.82H448.729V1899.07H451.655V2010.82H554.636V1899.07H557.561V2010.82H659.08V1899.07H662.005V1467.83H659.08V1355.2H557.561V1467.83H554.636V1355.2H451.655V1467.83H448.729V1355.2H345.748V1467.83H342.822V1355.2H241.889V1467.83H238.963V1349.35H662.005V1346.71H238.963V1337.94H239.256V1210.67H121.939Z" fill="#F5F5F5" stroke="black" stroke-width="5" stroke-miterlimit="10" stroke-linecap="square"/>
<path id="wsF10669" d="M711.624 2294.32V3112.9H982.066V2294.32H906.001V2306.02H829.935V2294.32H711.624Z" fill="#F5F5F5" stroke="black" stroke-width="5" stroke-miterlimit="10" stroke-linecap="square"/>
<path id="M2_R23" d="M121.939 496.592L607.589 496.299L606.419 253.416H647.377V100.114H121.939V496.592Z" fill="#F5F5F5" stroke="black" stroke-width="5" stroke-miterlimit="10" stroke-linecap="square"/>
<path id="M2_R24" d="M607.589 510.869L121.939 511.22V906.995H647.377V762.471H607.882L607.589 510.869Z" fill="#F5F5F5" stroke="black" stroke-width="5" stroke-miterlimit="10" stroke-linecap="square"/>
<path id="wsF10635" d="M993.769 1208.33V1326.82H1049.35V1318.63H1605.8V1208.33H993.769Z" fill="#F5F5F5" stroke="black" stroke-width="5" stroke-miterlimit="10" stroke-linecap="square"/>
<path id="wsF10660" d="M603.201 2306.02H246.277V2471.43H603.201V2306.02Z" fill="#F5F5F5" stroke="black" stroke-width="5" stroke-miterlimit="10" stroke-linecap="square"/>
<path id="wsF10634" d="M993.769 2270.62V2371.26H1466.08V2270.62H993.769Z" fill="#F5F5F5" stroke="black" stroke-width="5" stroke-miterlimit="10" stroke-linecap="square"/>
<path id="wsF10661" d="M247.448 1337.94H512.975V1210.67H247.448V1337.94Z" fill="#F5F5F5" stroke="black" stroke-width="5" stroke-miterlimit="10" stroke-linecap="square"/>
<path id="wsF10640" d="M1312.66 1409.91H1605.8V1326.82H1312.66V1409.91Z" fill="#F5F5F5" stroke="black" stroke-width="5" stroke-miterlimit="10" stroke-linecap="square"/>
<path id="wsF10668" d="M662.005 2029.26H423.861V2110.59H705.597V2029.55L662.005 2029.26Z" fill="#F5F5F5" stroke="black" stroke-width="5" stroke-miterlimit="10" stroke-linecap="square"/>
<path id="wsF10637" d="M1605.8 100.114H1313.24V177.35H1605.8V100.114Z" fill="#F5F5F5" stroke="black" stroke-width="5" stroke-miterlimit="10" stroke-linecap="square"/>
<path id="wsF10662" d="M473.011 918.698V1005.88H689.389V918.698H473.011Z" fill="#F5F5F5" stroke="black" stroke-width="5" stroke-miterlimit="10" stroke-linecap="square"/>
<path id="wsF10639" d="M1306.22 100.114H1091.48V177.35H1306.22V100.114Z" fill="#F5F5F5" stroke="black" stroke-width="5" stroke-miterlimit="10" stroke-linecap="square"/>
<path id="wsF10665" d="M647.377 1337.94V1210.67H521.752V1337.94H647.377Z" fill="#F5F5F5" stroke="black" stroke-width="5" stroke-miterlimit="10" stroke-linecap="square"/>
<path id="wsF10649" d="M553.173 1008.81V1098.91H696.527V1008.81H553.173Z" fill="#F5F5F5" stroke="black" stroke-width="5" stroke-miterlimit="10" stroke-linecap="square"/>
<path id="wsF10658" d="M1473.1 2455.22H1605.8V2377.11H1473.1V2455.22Z" fill="#F5F5F5" stroke="black" stroke-width="5" stroke-miterlimit="10" stroke-linecap="square"/>
<path id="wsF10656" d="M464.235 1001.38V918.698H375.881V1001.38H464.235Z" fill="#F5F5F5" stroke="black" stroke-width="5" stroke-miterlimit="10" stroke-linecap="square"/>
<path id="wsF10638" d="M1084.46 100.114H993.769V177.35H1084.46V100.114Z" fill="#F5F5F5" stroke="black" stroke-width="5" stroke-miterlimit="10" stroke-linecap="square"/>
<path id="wsF10655" d="M290.747 1001.38H367.105V918.698H290.747V1001.38Z" fill="#F5F5F5" stroke="black" stroke-width="5" stroke-miterlimit="10" stroke-linecap="square"/>
<path id="wsF10657" d="M1390.6 2455.22H1466.08V2377.11H1390.6V2455.22Z" fill="#F5F5F5" stroke="black" stroke-width="5" stroke-miterlimit="10" stroke-linecap="square"/>
<path id="wsF10659" d="M1228.4 2455.22H1304.47V2378.28H1228.4V2455.22Z" fill="#F5F5F5" stroke="black" stroke-width="5" stroke-miterlimit="10" stroke-linecap="square"/>
<path id="wsF10646" d="M993.769 2378.28V2455.22H1066.91V2378.28H993.769Z" fill="#F5F5F5" stroke="black" stroke-width="5" stroke-miterlimit="10" stroke-linecap="square"/>
<path id="wsF10645" d="M1312.66 2455.22H1383.58V2377.11H1312.66V2455.22Z" fill="#F5F5F5" stroke="black" stroke-width="5" stroke-miterlimit="10" stroke-linecap="square"/>
<path id="wsF10648" d="M1073.93 2455.22H1144.73V2378.28H1073.93V2455.22Z" fill="#F5F5F5" stroke="black" stroke-width="5" stroke-miterlimit="10" stroke-linecap="square"/>
<path id="wsF10647" d="M1151.75 2455.22H1221.38V2378.28H1151.75V2455.22Z" fill="#F5F5F5" stroke="black" stroke-width="5" stroke-miterlimit="10" stroke-linecap="square"/>
<path id="wsF10651" d="M418.01 2029.26H358.035V2110.59H418.01V2029.26Z" fill="#F5F5F5" stroke="black" stroke-width="5" stroke-miterlimit="10" stroke-linecap="square"/>
<path id="wsF10650" d="M349.259 2029.26H290.747V2110.59H349.259V2029.26Z" fill="#F5F5F5" stroke="black" stroke-width="5" stroke-miterlimit="10" stroke-linecap="square"/>
<path id="wsF10636" d="M993.769 1326.82V1409.91H1049.35V1326.82H993.769Z" fill="#F5F5F5" stroke="black" stroke-width="5" stroke-miterlimit="10" stroke-linecap="square"/>
<path id="wsF10641" d="M1057.55 1409.91H1111.38V1329.16H1057.55V1409.91Z" fill="#F5F5F5" stroke="black" stroke-width="5" stroke-miterlimit="10" stroke-linecap="square"/>
<path id="wsF10642" d="M1250.64 1409.91H1304.47V1329.16H1250.64V1409.91Z" fill="#F5F5F5" stroke="black" stroke-width="5" stroke-miterlimit="10" stroke-linecap="square"/>
<path id="wsF10643" d="M1186.27 1409.91H1240.1V1329.16H1186.27V1409.91Z" fill="#F5F5F5" stroke="black" stroke-width="5" stroke-miterlimit="10" stroke-linecap="square"/>
<path id="wsF10644" d="M1121.91 1409.91H1175.74V1329.16H1121.91V1409.91Z" fill="#F5F5F5" stroke="black" stroke-width="5" stroke-miterlimit="10" stroke-linecap="square"/>
<path id="M2" d="M1182.81 1834.27H1193.32L1218.03 1894.64H1218.89L1243.6 1834.27H1254.11V1907H1245.88V1851.74H1245.16L1222.44 1907H1214.48L1191.76 1851.74H1191.05V1907H1182.81V1834.27ZM1270.49 1907V1900.61L1294.5 1874.33C1297.32 1871.25 1299.64 1868.58 1301.46 1866.3C1303.28 1864.01 1304.63 1861.85 1305.51 1859.84C1306.41 1857.8 1306.86 1855.67 1306.86 1853.45C1306.86 1850.89 1306.24 1848.68 1305.01 1846.81C1303.8 1844.94 1302.15 1843.49 1300.04 1842.48C1297.93 1841.46 1295.56 1840.95 1292.94 1840.95C1290.14 1840.95 1287.7 1841.53 1285.62 1842.69C1283.56 1843.83 1281.96 1845.42 1280.83 1847.48C1279.71 1849.54 1279.16 1851.96 1279.16 1854.73H1270.78C1270.78 1850.47 1271.76 1846.73 1273.72 1843.51C1275.69 1840.29 1278.36 1837.78 1281.75 1835.98C1285.16 1834.18 1288.98 1833.28 1293.22 1833.28C1297.48 1833.28 1301.26 1834.18 1304.55 1835.98C1307.84 1837.78 1310.42 1840.2 1312.29 1843.26C1314.16 1846.31 1315.1 1849.71 1315.1 1853.45C1315.1 1856.12 1314.61 1858.74 1313.64 1861.3C1312.69 1863.83 1311.04 1866.66 1308.67 1869.78C1306.32 1872.89 1303.07 1876.67 1298.9 1881.15L1282.57 1898.62V1899.19H1316.37V1907H1270.49Z" fill="black"/>
<path id="M1" d="M1295.81 715.273H1306.32L1331.03 775.642H1331.89L1356.6 715.273H1367.11V788H1358.88V732.744H1358.16L1335.44 788H1327.48L1304.76 732.744H1304.05V788H1295.81V715.273ZM1409.06 715.273V788H1400.25V724.506H1399.83L1382.07 736.295V727.347L1400.25 715.273H1409.06Z" fill="black"/>
<path id="M3" d="M1201.81 2810.27H1212.32L1237.03 2870.64H1237.89L1262.6 2810.27H1273.11V2883H1264.88V2827.74H1264.16L1241.44 2883H1233.48L1210.76 2827.74H1210.05V2883H1201.81V2810.27ZM1314.07 2883.99C1309.38 2883.99 1305.2 2883.19 1301.53 2881.58C1297.89 2879.97 1294.99 2877.73 1292.83 2874.87C1290.7 2871.98 1289.54 2868.63 1289.35 2864.82H1298.3C1298.49 2867.16 1299.29 2869.19 1300.71 2870.89C1302.14 2872.57 1303.99 2873.87 1306.29 2874.8C1308.59 2875.72 1311.13 2876.18 1313.93 2876.18C1317.05 2876.18 1319.82 2875.64 1322.23 2874.55C1324.65 2873.46 1326.54 2871.94 1327.92 2870C1329.29 2868.06 1329.98 2865.81 1329.98 2863.26C1329.98 2860.58 1329.31 2858.22 1327.99 2856.19C1326.66 2854.13 1324.72 2852.52 1322.16 2851.36C1319.61 2850.2 1316.48 2849.62 1312.79 2849.62H1306.96V2841.81H1312.79C1315.68 2841.81 1318.21 2841.29 1320.39 2840.24C1322.59 2839.2 1324.31 2837.73 1325.54 2835.84C1326.79 2833.95 1327.42 2831.72 1327.42 2829.16C1327.42 2826.7 1326.87 2824.56 1325.79 2822.74C1324.7 2820.91 1323.16 2819.49 1321.17 2818.48C1319.2 2817.46 1316.88 2816.95 1314.21 2816.95C1311.7 2816.95 1309.33 2817.41 1307.11 2818.33C1304.91 2819.23 1303.11 2820.55 1301.71 2822.28C1300.31 2823.98 1299.55 2826.04 1299.44 2828.45H1290.91C1291.06 2824.64 1292.2 2821.3 1294.36 2818.44C1296.51 2815.55 1299.33 2813.3 1302.81 2811.69C1306.31 2810.08 1310.16 2809.28 1314.35 2809.28C1318.85 2809.28 1322.71 2810.19 1325.93 2812.01C1329.15 2813.81 1331.62 2816.19 1333.35 2819.15C1335.08 2822.11 1335.94 2825.31 1335.94 2828.74C1335.94 2832.83 1334.86 2836.33 1332.71 2839.21C1330.58 2842.1 1327.68 2844.1 1324.01 2845.22V2845.78C1328.6 2846.54 1332.19 2848.49 1334.77 2851.64C1337.35 2854.77 1338.64 2858.64 1338.64 2863.26C1338.64 2867.21 1337.56 2870.76 1335.41 2873.91C1333.28 2877.03 1330.37 2879.5 1326.67 2881.3C1322.98 2883.09 1318.78 2883.99 1314.07 2883.99Z" fill="black"/>
<path id="M23" d="M228.807 296.273H239.318L264.034 356.642H264.886L289.602 296.273H300.114V369H291.875V313.744H291.165L268.438 369H260.483L237.756 313.744H237.045V369H228.807V296.273ZM316.493 369V362.608L340.499 336.33C343.316 333.252 345.636 330.577 347.459 328.304C349.282 326.008 350.632 323.853 351.507 321.841C352.407 319.805 352.857 317.674 352.857 315.449C352.857 312.892 352.241 310.679 351.01 308.808C349.803 306.938 348.146 305.494 346.039 304.476C343.932 303.458 341.564 302.949 338.936 302.949C336.143 302.949 333.704 303.529 331.621 304.689C329.561 305.825 327.963 307.423 326.827 309.483C325.714 311.543 325.158 313.957 325.158 316.727H316.777C316.777 312.466 317.76 308.725 319.725 305.506C321.69 302.286 324.365 299.777 327.75 297.977C331.159 296.178 334.983 295.278 339.221 295.278C343.482 295.278 347.258 296.178 350.549 297.977C353.839 299.777 356.42 302.203 358.29 305.257C360.16 308.311 361.096 311.708 361.096 315.449C361.096 318.124 360.61 320.74 359.64 323.297C358.693 325.83 357.035 328.659 354.668 331.784C352.324 334.885 349.069 338.673 344.902 343.148L328.567 360.619V361.188H362.374V369H316.493ZM401.614 369.994C396.926 369.994 392.748 369.189 389.078 367.58C385.433 365.97 382.533 363.732 380.378 360.868C378.248 357.98 377.087 354.63 376.898 350.818H385.847C386.036 353.162 386.841 355.186 388.262 356.891C389.682 358.571 391.541 359.874 393.837 360.797C396.133 361.72 398.678 362.182 401.472 362.182C404.597 362.182 407.367 361.637 409.782 360.548C412.196 359.459 414.09 357.944 415.463 356.003C416.837 354.062 417.523 351.812 417.523 349.256C417.523 346.58 416.86 344.225 415.534 342.189C414.209 340.129 412.267 338.519 409.711 337.359C407.154 336.199 404.029 335.619 400.336 335.619H394.512V327.807H400.336C403.224 327.807 405.757 327.286 407.935 326.244C410.137 325.203 411.853 323.735 413.084 321.841C414.339 319.947 414.966 317.722 414.966 315.165C414.966 312.703 414.422 310.56 413.333 308.737C412.244 306.914 410.705 305.494 408.716 304.476C406.751 303.458 404.431 302.949 401.756 302.949C399.247 302.949 396.879 303.411 394.654 304.334C392.452 305.233 390.653 306.547 389.256 308.276C387.859 309.98 387.102 312.04 386.983 314.455H378.461C378.603 310.643 379.751 307.305 381.905 304.44C384.06 301.552 386.877 299.303 390.357 297.693C393.861 296.083 397.708 295.278 401.898 295.278C406.396 295.278 410.255 296.19 413.475 298.013C416.694 299.812 419.168 302.191 420.897 305.151C422.625 308.11 423.489 311.306 423.489 314.739C423.489 318.834 422.412 322.326 420.257 325.214C418.127 328.103 415.227 330.103 411.557 331.216V331.784C416.15 332.542 419.737 334.495 422.317 337.643C424.898 340.768 426.188 344.639 426.188 349.256C426.188 353.209 425.111 356.76 422.956 359.909C420.826 363.034 417.914 365.496 414.221 367.295C410.527 369.095 406.325 369.994 401.614 369.994Z" fill="black"/>
<path id="M24" d="M277.807 726.273H288.318L313.034 786.642H313.886L338.602 726.273H349.114V799H340.875V743.744H340.165L317.438 799H309.483L286.756 743.744H286.045V799H277.807V726.273ZM365.493 799V792.608L389.499 766.33C392.316 763.252 394.636 760.577 396.459 758.304C398.282 756.008 399.632 753.853 400.507 751.841C401.407 749.805 401.857 747.674 401.857 745.449C401.857 742.892 401.241 740.679 400.01 738.808C398.803 736.938 397.146 735.494 395.039 734.476C392.932 733.458 390.564 732.949 387.936 732.949C385.143 732.949 382.704 733.529 380.621 734.689C378.561 735.825 376.963 737.423 375.827 739.483C374.714 741.543 374.158 743.957 374.158 746.727H365.777C365.777 742.466 366.76 738.725 368.725 735.506C370.69 732.286 373.365 729.777 376.75 727.977C380.159 726.178 383.983 725.278 388.221 725.278C392.482 725.278 396.258 726.178 399.549 727.977C402.839 729.777 405.42 732.203 407.29 735.257C409.16 738.311 410.096 741.708 410.096 745.449C410.096 748.124 409.61 750.74 408.64 753.297C407.693 755.83 406.035 758.659 403.668 761.784C401.324 764.885 398.069 768.673 393.902 773.148L377.567 790.619V791.188H411.374V799H365.493ZM422.773 784.085V776.841L454.733 726.273H459.989V737.494H456.438L432.29 775.705V776.273H475.33V784.085H422.773ZM457.006 799V781.884V778.51V726.273H465.387V799H457.006Z" fill="black"/>
<rect id="M2_E01" x="788" y="3103" width="1" height="1" fill="#D9D9D9"/>
<rect id="M2_01" x="788" y="2527" width="1" height="1" fill="#D9D9D9"/>
<rect id="M2_02" x="871" y="2527" width="1" height="1" fill="#D9D9D9"/>
<rect id="M2_05" x="871" y="1478" width="1" height="1" fill="#D9D9D9"/>
<rect id="M2_06" x="871" y="1116" width="1" height="1" fill="#D9D9D9"/>
<rect id="M2_09" x="871" y="876" width="1" height="1" fill="#D9D9D9"/>
<rect id="M2_10" x="871" y="249" width="1" height="1" fill="#D9D9D9"/>
<rect id="M2_11" x="871" y="139" width="1" height="1" fill="#D9D9D9"/>
<rect id="M2_M23" x="597" y="139" width="1" height="1" fill="#D9D9D9"/>
<rect id="M2_M1" x="1043" y="249" width="1" height="1" fill="#D9D9D9"/>
<rect id="M2_M24" x="612" y="876" width="1" height="1" fill="#D9D9D9"/>
<rect id="M2_07" x="418" y="1116" width="1" height="1" fill="#D9D9D9"/>
<rect id="M2_08" x="418" y="1079" width="1" height="1" fill="#D9D9D9"/>
<rect id="M2_E03" x="131" y="1079" width="1" height="1" fill="#D9D9D9"/>
<rect id="M2_T01" x="418" y="991" width="1" height="1" fill="#D9D9D9"/>
<rect id="M2_M2" x="1053" y="1478" width="1" height="1" fill="#D9D9D9"/>
<rect id="M2_03" x="871" y="2189" width="1" height="1" fill="#D9D9D9"/>
<rect id="M2_04" x="386" y="2190" width="1" height="1" fill="#D9D9D9"/>
<rect id="M2_E02" x="132" y="2190" width="1" height="1" fill="#D9D9D9"/>
<rect id="M2_T02" x="386" y="2092" width="1" height="1" fill="#D9D9D9"/>
<rect id="M2_M3" x="1046" y="2527" width="1" height="1" fill="#D9D9D9"/>
</g>
<g id="trappa 1">
<g id="Frame 5">
<g id="Clip path group">
<mask id="mask0_18_46736" style="mask-type:luminance" maskUnits="userSpaceOnUse" x="484" y="2038" width="77" height="74">
<g id="clip0_2_215">
<path id="Vector_18" d="M560.12 2038H484.408V2111.21H560.12V2038Z" fill="white"/>
</g>
</mask>
<g mask="url(#mask0_18_46736)">
<g id="Frame 2">
<path id="Line 1" d="M499.28 2097.65V2089.51" stroke="#0DE47E" stroke-width="3"/>
<path id="Line 2" d="M501.984 2097.65V2089.51" stroke="#0DE47E" stroke-width="3"/>
<path id="Line 3" d="M499.28 2089.51V2084.09" stroke="#0DE47E" stroke-width="3"/>
<path id="Line 4" d="M501.984 2089.51V2084.09" stroke="#0DE47E" stroke-width="3"/>
<path id="Line 5" d="M499.28 2084.09V2078.67" stroke="#0DE47E" stroke-width="3"/>
<path id="Line 6" d="M501.984 2084.09V2078.67" stroke="#0DE47E" stroke-width="3"/>
<path id="Line 7" d="M501.984 2078.67V2073.25" stroke="#0DE47E" stroke-width="3"/>
<path id="Line 9" d="M499.28 2078.67V2073.25" stroke="#0DE47E" stroke-width="3"/>
<path id="Line 8" d="M499.28 2084.09V2078.67" stroke="#0DE47E" stroke-width="3"/>
<path id="Line 10" d="M503.336 2074.6H522.264" stroke="#0DE47E" stroke-width="3"/>
<path id="Line 12" d="M503.336 2077.31H522.264" stroke="#0DE47E" stroke-width="3"/>
<path id="Line 11" d="M501.984 2078.67V2073.25" stroke="#0DE47E" stroke-width="3"/>
<path id="Line 13" d="M518.208 2073.25V2054.27" stroke="#0DE47E" stroke-width="3"/>
<path id="Line 14" d="M520.912 2073.25V2054.27" stroke="#0DE47E" stroke-width="3"/>
<path id="Line 15" d="M522.264 2055.62H541.192" stroke="#0DE47E" stroke-width="3"/>
<path id="Line 16" d="M522.264 2058.33H541.192" stroke="#0DE47E" stroke-width="3"/>
<path id="Line 19" d="M539.84 2054.27V2035.29" stroke="#0DE47E" stroke-width="3"/>
<path id="Line 20" d="M537.136 2054.27V2035.29" stroke="#0DE47E" stroke-width="3"/>
</g>
</g>
</g>
<path id="Line 17" d="M497.928 2093.58H479" stroke="#0DE47E" stroke-width="3"/>
<path id="Line 18" d="M497.928 2096.29H479" stroke="#0DE47E" stroke-width="3"/>
<path id="Line 21" d="M541.192 2039.36H560.12" stroke="#0DE47E" stroke-width="3"/>
<path id="Line 22" d="M541.192 2042.07H560.12" stroke="#0DE47E" stroke-width="3"/>
</g>
</g>
<g id="trappa 2">
<g id="Frame 5_2">
<g id="Clip path group_2">
<mask id="mask1_18_46736" style="mask-type:luminance" maskUnits="userSpaceOnUse" x="486" y="931" width="77" height="74">
<g id="clip0_2_215_2">
<path id="Vector_19" d="M562.12 931H486.408V1004.21H562.12V931Z" fill="white"/>
</g>
</mask>
<g mask="url(#mask1_18_46736)">
<g id="Frame 2_2">
<path id="Line 1_2" d="M501.28 990.649V982.515" stroke="#0DE47E" stroke-width="3"/>
<path id="Line 2_2" d="M503.984 990.649V982.515" stroke="#0DE47E" stroke-width="3"/>
<path id="Line 3_2" d="M501.28 982.515V977.092" stroke="#0DE47E" stroke-width="3"/>
<path id="Line 4_2" d="M503.984 982.515V977.092" stroke="#0DE47E" stroke-width="3"/>
<path id="Line 5_2" d="M501.28 977.092V971.669" stroke="#0DE47E" stroke-width="3"/>
<path id="Line 6_2" d="M503.984 977.092V971.669" stroke="#0DE47E" stroke-width="3"/>
<path id="Line 7_2" d="M503.984 971.669V966.247" stroke="#0DE47E" stroke-width="3"/>
<path id="Line 9_2" d="M501.28 971.669V966.247" stroke="#0DE47E" stroke-width="3"/>
<path id="Line 8_2" d="M501.28 977.092V971.669" stroke="#0DE47E" stroke-width="3"/>
<path id="Line 10_2" d="M505.336 967.602H524.264" stroke="#0DE47E" stroke-width="3"/>
<path id="Line 12_2" d="M505.336 970.314H524.264" stroke="#0DE47E" stroke-width="3"/>
<path id="Line 11_2" d="M503.984 971.669V966.247" stroke="#0DE47E" stroke-width="3"/>
<path id="Line 13_2" d="M520.208 966.247V947.268" stroke="#0DE47E" stroke-width="3"/>
<path id="Line 14_2" d="M522.912 966.247V947.268" stroke="#0DE47E" stroke-width="3"/>
<path id="Line 15_2" d="M524.264 948.624H543.192" stroke="#0DE47E" stroke-width="3"/>
<path id="Line 16_2" d="M524.264 951.335H543.192" stroke="#0DE47E" stroke-width="3"/>
<path id="Line 19_2" d="M541.84 947.268V928.289" stroke="#0DE47E" stroke-width="3"/>
<path id="Line 20_2" d="M539.136 947.268V928.289" stroke="#0DE47E" stroke-width="3"/>
</g>
</g>
</g>
<path id="Line 17_2" d="M499.928 986.582H481" stroke="#0DE47E" stroke-width="3"/>
<path id="Line 18_2" d="M499.928 989.293H481" stroke="#0DE47E" stroke-width="3"/>
<path id="Line 21_2" d="M543.192 932.355H562.12" stroke="#0DE47E" stroke-width="3"/>
<path id="Line 22_2" d="M543.192 935.067H562.12" stroke="#0DE47E" stroke-width="3"/>
</g>
</g>
</g>
</g>
</svg>
