<svg width="2000" height="6463" viewBox="0 0 2000 6463" fill="none" xmlns="http://www.w3.org/2000/svg">
<g id="V3 1" clip-path="url(#clip0_18_45576)">
<g id="svgDrawingGroup">
<g id="floorGraphicsGroup">
<g id="Vector">
<path d="M1887.04 6290.99V1823.12H1772.78V6290.99H1887.04ZM16.491 4072.96V4273.21H104.835V4072.96H16.491ZM14.1351 1871.42V2037.5H104.835V1871.42H14.1351ZM491.195 4445.18H1306.32V4263.78H491.195V4445.18ZM491.195 2209.48H1011.84V2028.08H491.195V2209.48ZM149.597 6263.9H104.835V6308.66M104.835 6263.9V5460.56ZM149.597 6263.9V5460.56ZM104.835 5460.56H149.597V5443.48H104.835V5460.56ZM104.835 5443.48V4640.13ZM149.597 5443.48V4640.13ZM149.597 4615.98V4082.38ZM149.597 4058.82H104.835V4640.13H149.597V4639.54M104.835 4058.82V3255.48ZM149.597 4058.82V3255.48ZM104.835 3255.48H149.597V3238.4H104.835V3255.48ZM104.835 3238.4V2435.05ZM149.597 3238.4V2435.05ZM149.597 2380.28V1846.68ZM149.597 1823.12H104.835V2435.05H149.597V2434.46M104.835 1823.12V1019.78ZM149.597 1823.12V1019.78ZM104.835 1019.78H149.597V1002.7H104.835V1019.78ZM104.835 1002.7V199.35ZM149.597 1002.7V199.35ZM104.835 154V199.35H149.597V198.761M104.835 5460.56V5465.27H116.615V5460.56H104.835ZM104.835 6263.9V6259.19H116.615V6263.9H104.835ZM104.835 5465.27V6259.19ZM110.725 5465.27V6259.19ZM116.615 5465.27V6259.19ZM104.835 4640.13V4644.84H116.615V4640.13H104.835ZM104.835 5443.48V5438.76H116.615V5443.48H104.835ZM104.835 4644.84V5438.76ZM110.725 4644.84V5438.76ZM116.615 4644.84V5438.76ZM104.835 3255.48V3260.19H116.615V3255.48H104.835ZM104.835 4058.82V4054.11H116.615V4058.82H104.835ZM104.835 3260.19V4054.11ZM110.725 3260.19V4054.11ZM116.615 3260.19V4054.11ZM104.835 2435.05V2439.76H116.615V2435.05H104.835ZM104.835 3238.4V3233.69H116.615V3238.4H104.835ZM104.835 2439.76V3233.69ZM110.725 2439.76V3233.69ZM116.615 2439.76V3233.69ZM104.835 1019.78V1024.49H116.615V1019.78H104.835ZM104.835 1823.12V1818.41H116.615V1823.12H104.835ZM104.835 1024.49V1818.41ZM110.725 1024.49V1818.41ZM116.615 1024.49V1818.41ZM104.835 199.35V204.062H116.615V199.35H104.835ZM104.835 1002.7V997.984H116.615V1002.7H104.835ZM104.835 204.062V997.984ZM110.725 204.062V997.984ZM116.615 204.062V997.984Z" fill="#F5F5F5"/>
<path d="M104.835 6263.9H149.597V5460.56M104.835 6263.9V6308.66M104.835 6263.9V5460.56M104.835 6263.9V6259.19M104.835 6263.9H116.615V6259.19M104.835 5460.56H149.597M104.835 5460.56V5443.48M104.835 5460.56V5465.27M104.835 5460.56H116.615V5465.27M149.597 5460.56V5443.48M149.597 5443.48H104.835M149.597 5443.48V4640.13M104.835 5443.48V4640.13M104.835 5443.48V5438.76M104.835 5443.48H116.615V5438.76M104.835 4640.13V4058.82M104.835 4640.13H149.597M104.835 4640.13V4644.84M104.835 4640.13H116.615V4644.84M149.597 4640.13V4639.54M149.597 4615.98V4082.38M104.835 4058.82H149.597V3255.48M104.835 4058.82V3255.48M104.835 4058.82V4054.11M104.835 4058.82H116.615V4054.11M104.835 3255.48H149.597M104.835 3255.48V3238.4M104.835 3255.48V3260.19M104.835 3255.48H116.615V3260.19M149.597 3255.48V3238.4M149.597 3238.4H104.835M149.597 3238.4V2435.05M104.835 3238.4V2435.05M104.835 3238.4V3233.69M104.835 3238.4H116.615V3233.69M104.835 2435.05V1823.12M104.835 2435.05H149.597M104.835 2435.05V2439.76M104.835 2435.05H116.615V2439.76M149.597 2435.05V2434.46M149.597 2380.28V1846.68M104.835 1823.12H149.597V1019.78M104.835 1823.12V1019.78M104.835 1823.12V1818.41M104.835 1823.12H116.615V1818.41M104.835 1019.78H149.597M104.835 1019.78V1002.7M104.835 1019.78V1024.49M104.835 1019.78H116.615V1024.49M149.597 1019.78V1002.7M149.597 1002.7H104.835M149.597 1002.7V199.35M104.835 1002.7V199.35M104.835 1002.7V997.984M104.835 1002.7H116.615V997.984M104.835 199.35V154M104.835 199.35H149.597M104.835 199.35V204.062M104.835 199.35H116.615V204.062M149.597 199.35V198.761M104.835 5465.27H116.615M104.835 5465.27V6259.19M116.615 5465.27V6259.19M104.835 6259.19H116.615M110.725 5465.27V6259.19M104.835 4644.84H116.615M104.835 4644.84V5438.76M116.615 4644.84V5438.76M104.835 5438.76H116.615M110.725 4644.84V5438.76M104.835 3260.19H116.615M104.835 3260.19V4054.11M116.615 3260.19V4054.11M104.835 4054.11H116.615M110.725 3260.19V4054.11M104.835 2439.76H116.615M104.835 2439.76V3233.69M116.615 2439.76V3233.69M104.835 3233.69H116.615M110.725 2439.76V3233.69M104.835 1024.49H116.615M104.835 1024.49V1818.41M116.615 1024.49V1818.41M104.835 1818.41H116.615M110.725 1024.49V1818.41M104.835 204.062H116.615M104.835 204.062V997.984M116.615 204.062V997.984M104.835 997.984H116.615M110.725 204.062V997.984M1887.04 6290.99V1823.12H1772.78V6290.99H1887.04ZM16.491 4072.96V4273.21H104.835V4072.96H16.491ZM14.1351 1871.42V2037.5H104.835V1871.42H14.1351ZM491.195 4445.18H1306.32V4263.78H491.195V4445.18ZM491.195 2209.48H1011.84V2028.08H491.195V2209.48Z" stroke="black" stroke-width="5" stroke-miterlimit="10" stroke-linecap="square"/>
</g>
<g id="Vector_2">
<path d="M149.597 198.761H1772.78V154H104.835M1890.57 154V198.761H1892.93L1904.71 154H1890.57ZM1890.57 198.761H1885.86V186.982H1890.57V198.761ZM1772.78 198.761H1777.49V186.982H1772.78V198.761ZM1885.86 198.761V307.13ZM1885.86 307.13L1867.01 305.481L1848.75 300.652L1831.67 292.642L1816.24 281.805L1802.82 268.377L1791.98 252.946L1783.97 235.866L1779.14 217.608L1777.49 198.761M1772.78 1823.12H1904.71L1892.93 1799.56H1728.02M1728.02 1799.56V1823.12ZM1728.02 2434.46H1772.78V1823.12M1728.02 1846.68V2380.28ZM1772.78 2434.46V4058.82ZM1728.02 2434.46V4058.82ZM1728.02 4082.38V4615.98ZM1728.02 4639.54V4638.95H1772.78V4058.82H1728.02M1772.78 4638.95V6263.31ZM1728.02 4638.95V6263.31ZM1772.78 6308.66V6263.31H1728.02V6263.9M1772.78 4058.82V4054.11H1761V4058.82H1772.78ZM1772.78 2434.46V2439.18H1761V2434.46H1772.78ZM1772.78 4054.11V2439.18ZM1766.89 4054.11V2439.18ZM1761 4054.11V2439.18ZM1772.78 6263.31V6258.6H1761V6263.31H1772.78Z" fill="#F5F5F5"/>
<path d="M149.597 198.761H1772.78M1772.78 198.761V154H104.835M1772.78 198.761H1777.49M1772.78 198.761V186.982H1777.49V198.761M1890.57 198.761V154H1904.71L1892.93 198.761H1890.57ZM1890.57 198.761H1885.86M1890.57 198.761V186.982H1885.86V198.761M1885.86 198.761V307.13L1867.01 305.481L1848.75 300.652L1831.67 292.642L1816.24 281.805L1802.82 268.377L1791.98 252.946L1783.97 235.866L1779.14 217.608L1777.49 198.761M1728.02 1823.12V1799.56H1892.93L1904.71 1823.12H1772.78V2434.46M1772.78 2434.46H1728.02V4058.82H1772.78M1772.78 2434.46V4058.82M1772.78 2434.46V2439.18M1772.78 2434.46H1761V2439.18M1728.02 1846.68V2380.28M1772.78 4058.82V4638.95M1772.78 4058.82V4054.11M1772.78 4058.82H1761V4054.11M1728.02 4082.38V4615.98M1728.02 4639.54V4638.95M1728.02 4638.95H1772.78M1728.02 4638.95V6263.31M1772.78 4638.95V6263.31M1772.78 6263.31V6308.66M1772.78 6263.31H1728.02M1772.78 6263.31V6258.6H1761V6263.31H1772.78ZM1728.02 6263.31V6263.9M1772.78 4054.11H1761M1772.78 4054.11V2439.18M1761 4054.11V2439.18M1772.78 2439.18H1761M1766.89 4054.11V2439.18" stroke="black" stroke-width="5" stroke-miterlimit="10" stroke-linecap="square"/>
</g>
<g id="Vector_3">
<path d="M1772.78 4638.95V4643.66H1761V4638.95H1772.78ZM1772.78 6258.6V4643.66ZM1766.89 6258.6V4643.66ZM1761 6258.6V4643.66ZM1728.02 6263.9H149.597ZM104.835 6308.66H1772.78ZM1904.71 1823.12H1887.04V1823.71H1904.71V1823.12ZM1904.71 1823.71V6291.58ZM1887.04 1823.71V6291.58ZM1904.71 6308.66V6291.58H1887.04V6290.99" fill="#F5F5F5"/>
<path d="M1772.78 4643.66V4638.95H1761V4643.66M1772.78 4643.66H1761M1772.78 4643.66V6258.6M1761 4643.66V6258.6M1766.89 6258.6V4643.66M1728.02 6263.9H149.597M104.835 6308.66H1772.78M1887.04 1823.71V1823.12H1904.71V1823.71M1887.04 1823.71H1904.71M1887.04 1823.71V6291.58M1904.71 1823.71V6291.58M1904.71 6291.58V6308.66M1904.71 6291.58H1887.04M1887.04 6291.58V6290.99" stroke="black" stroke-width="5" stroke-miterlimit="10" stroke-linecap="square"/>
</g>
<g id="Vector_4">
<path d="M1904.71 6291.58V6286.87H1892.93V6291.58H1904.71ZM1904.71 1823.71V1828.42H1892.93V1823.71H1904.71ZM1904.71 6286.87V1828.42ZM1898.82 6286.87V1828.42ZM1892.93 6286.87V1828.42ZM1887.04 6290.99H1772.78V6308.66H1904.71M2.35585 4287.34H104.835V4273.21H16.491M16.491 4273.21V4072.96ZM2.35585 4058.82V4287.34ZM16.491 4072.96H104.835V4058.82H2.35585M0 2051.64H104.835V2037.5H14.1351M14.1351 2037.5V1871.42ZM0 1857.28V2051.64ZM14.1351 1871.42H104.835V1857.28H0M149.597 5442.89V5460.56H174.333V5442.89H149.597ZM1439.43 5442.89H280.346V5460.56H1439.43M174.333 5442.89H179.045V5454.67H174.333V5442.89ZM280.346 5442.89H275.635V5454.67H280.346V5442.89ZM179.045 5442.89V5346.3Z" fill="#F5F5F5"/>
<path d="M1904.71 6286.87V6291.58H1892.93V6286.87M1904.71 6286.87H1892.93M1904.71 6286.87V1828.42M1892.93 6286.87V1828.42M1904.71 1828.42V1823.71H1892.93V1828.42M1904.71 1828.42H1892.93M1898.82 6286.87V1828.42M1887.04 6290.99H1772.78V6308.66H1904.71M174.333 5442.89V5460.56H149.597V5442.89H174.333ZM174.333 5442.89H179.045M174.333 5442.89V5454.67H179.045V5442.89M1439.43 5442.89H280.346M280.346 5442.89V5460.56H1439.43M280.346 5442.89H275.635V5454.67H280.346V5442.89ZM179.045 5442.89V5346.3M2.35585 4287.34H104.835V4273.21H16.491V4072.96H104.835V4058.82H2.35585V4287.34ZM0 2051.64H104.835V2037.5H14.1351V1871.42H104.835V1857.28H0V2051.64Z" stroke="black" stroke-width="5" stroke-miterlimit="10" stroke-linecap="square"/>
</g>
<g id="Vector_5">
<path d="M179.045 5346.3L195.771 5347.71L212.027 5352.07L227.34 5359.14L241.121 5368.91L253.018 5380.69L262.677 5394.59L269.745 5409.9L274.221 5426.16L275.635 5442.89M149.597 4639.54H233.818V4615.98H149.597M339.832 4615.98V4639.54H1538.96V4615.98H339.832ZM1728.02 4615.98H1644.97V4639.54H1728.02M233.818 4615.98H238.53V4627.76H233.818V4615.98ZM339.832 4615.98H335.12V4627.76H339.832V4615.98ZM238.53 4615.98V4519.39ZM238.53 4519.39L255.256 4520.81L271.63 4525.16L286.825 4532.23L300.607 4542.01L312.504 4553.79L322.163 4567.69L329.23 4583L333.706 4599.26L335.12 4615.98M1644.97 4615.98H1640.26V4627.76H1644.97V4615.98ZM1538.96 4615.98H1543.67V4627.76H1538.96V4615.98ZM1640.26 4615.98V4519.39ZM1640.26 4519.39L1623.53 4520.81L1607.16 4525.16L1591.97 4532.23L1578.18 4542.01L1566.29 4553.79L1556.63 4567.69L1549.56 4583L1545.2 4599.26L1543.67 4615.98M149.597 4082.38H232.64V4058.82H149.597M338.654 4058.82V4082.38H1538.37V4058.82H338.654ZM1728.02 4058.82H1644.38V4082.38H1728.02M232.64 4082.38H237.352V4070.6H232.64V4082.38ZM338.654 4082.38H333.942V4070.6H338.654V4082.38ZM237.352 4082.38V4178.97ZM237.352 4178.97L254.079 4177.44L270.452 4173.08L285.647 4166.01L299.429 4156.36L311.326 4144.58L320.985 4130.68L328.052 4115.36L332.528 4099.11L333.942 4082.38M1644.38 4082.38H1639.67V4070.6H1644.38V4082.38ZM1538.37 4082.38H1543.08V4070.6H1538.37V4082.38ZM1639.67 4082.38V4178.97ZM1639.67 4178.97L1622.95 4177.44L1606.57 4173.08L1591.38 4166.01L1577.6 4156.36L1565.7 4144.58L1556.04 4130.68L1548.97 4115.36L1544.61 4099.11L1543.08 4082.38M149.597 2434.46H233.229V2380.28H149.597M339.243 2380.28V2434.46H1538.96V2380.28H339.243ZM1728.02 2380.28H1644.97V2434.46H1728.02M233.229 2380.28H237.941V2392.06H233.229V2380.28ZM339.243 2380.28H334.531V2392.06H339.243V2380.28ZM237.941 2380.28V2283.69Z" fill="#F5F5F5"/>
<path d="M179.045 5346.3L195.771 5347.71L212.027 5352.07L227.34 5359.14L241.121 5368.91L253.018 5380.69L262.677 5394.59L269.745 5409.9L274.221 5426.16L275.635 5442.89M149.597 4639.54H233.818V4615.98M233.818 4615.98H149.597M233.818 4615.98H238.53M233.818 4615.98V4627.76H238.53V4615.98M339.832 4615.98V4639.54H1538.96V4615.98M339.832 4615.98H1538.96M339.832 4615.98H335.12M339.832 4615.98V4627.76H335.12V4615.98M1538.96 4615.98H1543.67M1538.96 4615.98V4627.76H1543.67V4615.98M1728.02 4615.98H1644.97M1644.97 4615.98V4639.54H1728.02M1644.97 4615.98H1640.26M1644.97 4615.98V4627.76H1640.26V4615.98M238.53 4615.98V4519.39L255.256 4520.81L271.63 4525.16L286.825 4532.23L300.607 4542.01L312.504 4553.79L322.163 4567.69L329.23 4583L333.706 4599.26L335.12 4615.98M1640.26 4615.98V4519.39L1623.53 4520.81L1607.16 4525.16L1591.97 4532.23L1578.18 4542.01L1566.29 4553.79L1556.63 4567.69L1549.56 4583L1545.2 4599.26L1543.67 4615.98M149.597 4082.38H232.64M232.64 4082.38V4058.82H149.597M232.64 4082.38H237.352M232.64 4082.38V4070.6H237.352V4082.38M338.654 4082.38V4058.82H1538.37V4082.38M338.654 4082.38H1538.37M338.654 4082.38H333.942M338.654 4082.38V4070.6H333.942V4082.38M1538.37 4082.38H1543.08M1538.37 4082.38V4070.6H1543.08V4082.38M1728.02 4058.82H1644.38V4082.38M1644.38 4082.38H1728.02M1644.38 4082.38H1639.67M1644.38 4082.38V4070.6H1639.67V4082.38M237.352 4082.38V4178.97L254.079 4177.44L270.452 4173.08L285.647 4166.01L299.429 4156.36L311.326 4144.58L320.985 4130.68L328.052 4115.36L332.528 4099.11L333.942 4082.38M1639.67 4082.38V4178.97L1622.95 4177.44L1606.57 4173.08L1591.38 4166.01L1577.6 4156.36L1565.7 4144.58L1556.04 4130.68L1548.97 4115.36L1544.61 4099.11L1543.08 4082.38M149.597 2434.46H233.229V2380.28M233.229 2380.28H149.597M233.229 2380.28H237.941M233.229 2380.28V2392.06H237.941V2380.28M339.243 2380.28V2434.46H1538.96V2380.28H339.243ZM339.243 2380.28H334.531V2392.06H339.243V2380.28ZM1728.02 2380.28H1644.97V2434.46H1728.02M237.941 2380.28V2283.69" stroke="black" stroke-width="5" stroke-miterlimit="10" stroke-linecap="square"/>
</g>
<g id="Vector_6">
<path d="M237.941 2283.69L254.668 2285.22L271.041 2289.46L286.236 2296.53L300.018 2306.31L311.915 2318.09L321.574 2331.98L328.641 2347.3L333.117 2363.55L334.531 2380.28M1644.97 2380.28H1640.26V2392.06H1644.97V2380.28ZM1538.96 2380.28H1543.67V2392.06H1538.96V2380.28ZM1640.26 2380.28V2283.69ZM1640.26 2283.69L1623.53 2285.22L1607.16 2289.46L1591.97 2296.53L1578.18 2306.31L1566.29 2318.09L1556.63 2331.98L1549.56 2347.3L1545.2 2363.55L1543.67 2380.28M149.597 1846.68H232.051V1823.12H149.597M338.065 1823.12V1846.68H1538.96V1823.12H338.065ZM1728.02 1823.12H1644.97V1846.68H1728.02M232.051 1846.68H236.763V1834.9H232.051V1846.68ZM338.065 1846.68H333.353V1834.9H338.065V1846.68ZM236.763 1846.68V1943.27Z" fill="#F5F5F5"/>
<path d="M237.941 2283.69L254.668 2285.22L271.041 2289.46L286.236 2296.53L300.018 2306.31L311.915 2318.09L321.574 2331.98L328.641 2347.3L333.117 2363.55L334.531 2380.28M1640.26 2380.28H1644.97V2392.06H1640.26V2380.28ZM1640.26 2380.28V2283.69L1623.53 2285.22L1607.16 2289.46L1591.97 2296.53L1578.18 2306.31L1566.29 2318.09L1556.63 2331.98L1549.56 2347.3L1545.2 2363.55L1543.67 2380.28M1543.67 2380.28H1538.96V2392.06H1543.67V2380.28ZM149.597 1846.68H232.051M232.051 1846.68V1823.12H149.597M232.051 1846.68H236.763M232.051 1846.68V1834.9H236.763V1846.68M338.065 1846.68V1823.12H1538.96V1846.68H338.065ZM338.065 1846.68H333.353V1834.9H338.065V1846.68ZM1728.02 1823.12H1644.97V1846.68H1728.02M236.763 1846.68V1943.27" stroke="black" stroke-width="5" stroke-miterlimit="10" stroke-linecap="square"/>
</g>
<g id="Vector_7">
<path d="M236.763 1943.27L253.49 1941.86L269.863 1937.38L285.058 1930.31L298.84 1920.65L310.737 1908.87L320.396 1894.97L327.463 1879.66L331.939 1863.41L333.353 1846.68M1644.97 1846.68H1640.26V1834.9H1644.97V1846.68ZM1538.96 1846.68H1543.67V1834.9H1538.96V1846.68ZM1640.26 1846.68V1943.27ZM1640.26 1943.27L1623.53 1941.86L1607.16 1937.38L1591.97 1930.31L1578.18 1920.65L1566.29 1908.87L1556.63 1894.97L1549.56 1879.66L1545.2 1863.41L1543.67 1846.68M149.597 1002.11V1019.78H173.744V1002.11H149.597ZM1439.43 1002.11H279.757V1019.78H1439.43M173.744 1019.78H178.456V1008H173.744V1019.78ZM279.757 1019.78H275.046V1008H279.757V1019.78ZM178.456 1019.78V1116.37ZM178.456 1116.37L195.182 1114.83L211.438 1110.59L226.751 1103.53L240.532 1093.75L252.429 1081.97L262.088 1068.07L269.156 1052.76L273.632 1036.5L275.046 1019.78M1457.09 198.761H1439.43V889.614H1457.09V198.761ZM1457.09 1002.11V995.628H1439.43V1002.11" fill="#F5F5F5"/>
<path d="M236.763 1943.27L253.49 1941.86L269.863 1937.38L285.058 1930.31L298.84 1920.65L310.737 1908.87L320.396 1894.97L327.463 1879.66L331.939 1863.41L333.353 1846.68M1640.26 1846.68H1644.97V1834.9H1640.26V1846.68ZM1640.26 1846.68V1943.27L1623.53 1941.86L1607.16 1937.38L1591.97 1930.31L1578.18 1920.65L1566.29 1908.87L1556.63 1894.97L1549.56 1879.66L1545.2 1863.41L1543.67 1846.68M1543.67 1846.68H1538.96V1834.9H1543.67V1846.68ZM173.744 1019.78H149.597V1002.11H173.744V1019.78ZM173.744 1019.78H178.456M173.744 1019.78V1008H178.456V1019.78M1457.09 1002.11V995.628H1439.43V1002.11H279.757V1019.78M279.757 1019.78H1439.43M279.757 1019.78H275.046M279.757 1019.78V1008H275.046V1019.78M178.456 1019.78V1116.37L195.182 1114.83L211.438 1110.59L226.751 1103.53L240.532 1093.75L252.429 1081.97L262.088 1068.07L269.156 1052.76L273.632 1036.5L275.046 1019.78M1457.09 198.761H1439.43V889.614H1457.09V198.761Z" stroke="black" stroke-width="5" stroke-miterlimit="10" stroke-linecap="square"/>
</g>
<g id="Vector_8">
<path d="M1457.09 889.615V894.326H1445.31V889.615H1457.09ZM1457.09 995.628V990.916H1445.31V995.628H1457.09ZM1457.09 894.326H1553.68ZM1553.68 894.326L1552.15 911.053L1547.79 927.426L1540.73 942.621L1531.07 956.403L1519.29 968.3L1505.39 977.959L1490.08 985.027L1473.82 989.503L1457.09 990.916M1439.43 1019.78V1823.12H1457.09V1002.11M1515.99 1846.68H1498.32V2167.66H1515.99V1846.68ZM1515.99 2273.68H1498.32V2380.28H1515.99V2273.68ZM1498.32 2273.68V2268.97H1510.1V2273.68H1498.32ZM1498.32 2167.66V2172.38H1510.1V2167.66H1498.32ZM1498.32 2268.97H1401.73ZM1401.73 2268.97L1403.26 2252.24L1407.62 2235.87L1414.69 2220.67L1424.35 2206.89L1436.13 2194.99L1450.03 2185.33L1465.34 2178.27L1481.59 2173.79L1498.32 2172.38M1457.09 2434.46H1439.43V4058.82H1457.09V2434.46ZM1515.99 4082.38H1498.32V4402.78H1515.99V4082.38ZM1515.99 4508.79H1498.32V4615.98H1515.99V4508.79ZM1498.32 4508.79V4504.08H1510.1V4508.79H1498.32ZM1498.32 4402.78V4407.49H1510.1V4402.78H1498.32ZM1498.32 4504.08H1401.73ZM1401.73 4504.08L1403.26 4487.35L1407.62 4470.98L1414.69 4455.78L1424.35 4442L1436.13 4430.11L1450.03 4420.45L1465.34 4413.38L1481.59 4408.9L1498.32 4407.49M1457.09 5442.89V4639.54H1439.43V5442.89" fill="#F5F5F5"/>
<path d="M1457.09 894.326V889.615H1445.31V894.326H1457.09ZM1457.09 894.326H1553.68L1552.15 911.053L1547.79 927.426L1540.73 942.621L1531.07 956.403L1519.29 968.3L1505.39 977.959L1490.08 985.027L1473.82 989.503L1457.09 990.916M1457.09 990.916V995.628H1445.31V990.916H1457.09ZM1439.43 1019.78V1823.12H1457.09V1002.11M1498.32 2167.66V1846.68H1515.99V2167.66H1498.32ZM1498.32 2167.66V2172.38M1498.32 2167.66H1510.1V2172.38H1498.32M1498.32 2273.68H1515.99V2380.28H1498.32V2273.68ZM1498.32 2273.68V2268.97M1498.32 2273.68H1510.1V2268.97H1498.32M1498.32 2268.97H1401.73L1403.26 2252.24L1407.62 2235.87L1414.69 2220.67L1424.35 2206.89L1436.13 2194.99L1450.03 2185.33L1465.34 2178.27L1481.59 2173.79L1498.32 2172.38M1498.32 4402.78V4082.38H1515.99V4402.78H1498.32ZM1498.32 4402.78V4407.49M1498.32 4402.78H1510.1V4407.49H1498.32M1498.32 4508.79H1515.99V4615.98H1498.32V4508.79ZM1498.32 4508.79V4504.08M1498.32 4508.79H1510.1V4504.08H1498.32M1498.32 4504.08H1401.73L1403.26 4487.35L1407.62 4470.98L1414.69 4455.78L1424.35 4442L1436.13 4430.11L1450.03 4420.45L1465.34 4413.38L1481.59 4408.9L1498.32 4407.49M1457.09 5442.89V4639.54H1439.43V5442.89M1457.09 2434.46H1439.43V4058.82H1457.09V2434.46Z" stroke="black" stroke-width="5" stroke-miterlimit="10" stroke-linecap="square"/>
</g>
<g id="Vector_9">
<path d="M1439.43 5460.56V5485.29H1457.09V5442.89M1457.09 5591.31H1439.43V6263.9H1457.09V5591.31ZM1457.09 5591.31V5586.59H1445.31V5591.31H1457.09ZM1457.09 5485.29V5490H1445.31V5485.29H1457.09ZM1457.09 5586.59H1553.68ZM1553.68 5586.59L1552.15 5569.87L1547.79 5553.61L1540.73 5538.3L1531.07 5524.52L1519.29 5512.62L1505.39 5502.96L1490.08 5495.89L1473.82 5491.54L1457.09 5490M491.195 4263.78H1306.32ZM1323.99 4246.11H473.526ZM1306.32 4263.78V4445.18ZM1323.99 4462.85V4246.11ZM1306.32 4445.18H491.195ZM473.526 4462.85H1323.99ZM491.195 4445.18V4263.78ZM473.526 4246.11V4462.85ZM1017.73 2028.08H1306.32ZM1323.99 2010.41H473.526ZM491.195 2028.08H1011.84ZM1306.32 2028.08V2209.48ZM1323.99 2227.15V2010.41ZM1011.84 2209.48H491.195ZM473.526 2227.15H1323.99ZM1306.32 2209.48H1017.73ZM491.195 2209.48V2028.08ZM473.526 2010.41V2227.15ZM1742.15 715.517L1739.8 1799.56ZM1751.58 1799.56L1753.93 708.685ZM1690.32 685.716L1742.15 715.517ZM1753.93 708.685L1702.1 678.884ZM1702.1 340.583L1690.32 327.391V507.378H1702.1V340.583ZM1702.1 678.884V613.391H1690.32V685.716M1690.32 507.378V512.089H1702.1V507.378H1690.32ZM1690.32 613.391V608.679H1702.1V613.391H1690.32ZM1690.32 512.089H1593.73ZM1593.73 512.089L1595.15 528.816L1599.62 545.071L1606.69 560.384L1616.35 574.166L1628.13 586.063L1642.03 595.722L1657.34 602.79L1673.6 607.148L1690.32 608.679" fill="#F5F5F5"/>
<path d="M1439.43 5460.56V5485.29H1457.09M1457.09 5485.29V5442.89M1457.09 5485.29V5490M1457.09 5485.29H1445.31V5490H1457.09M1457.09 5591.31H1439.43V6263.9H1457.09V5591.31ZM1457.09 5591.31V5586.59M1457.09 5591.31H1445.31V5586.59H1457.09M1457.09 5586.59H1553.68L1552.15 5569.87L1547.79 5553.61L1540.73 5538.3L1531.07 5524.52L1519.29 5512.62L1505.39 5502.96L1490.08 5495.89L1473.82 5491.54L1457.09 5490M1017.73 2028.08H1306.32V2209.48H1017.73M1011.84 2028.08H491.195V2209.48H1011.84M1739.8 1799.56L1742.15 715.517L1690.32 685.716V613.391M1751.58 1799.56L1753.93 708.685L1702.1 678.884V613.391M1690.32 507.378V327.391L1702.1 340.583V507.378M1690.32 507.378H1702.1M1690.32 507.378V512.089M1702.1 507.378V512.089H1690.32M1702.1 613.391H1690.32M1702.1 613.391V608.679H1690.32M1690.32 613.391V608.679M1690.32 512.089H1593.73L1595.15 528.816L1599.62 545.071L1606.69 560.384L1616.35 574.166L1628.13 586.063L1642.03 595.722L1657.34 602.79L1673.6 607.148L1690.32 608.679M491.195 4263.78H1306.32V4445.18H491.195V4263.78ZM1323.99 4246.11H473.526V4462.85H1323.99V4246.11ZM1323.99 2010.41H473.526V2227.15H1323.99V2010.41Z" stroke="black" stroke-width="5" stroke-miterlimit="10" stroke-linecap="square"/>
</g>
<g id="Vector_10">
<path d="M1740.03 277.8L1690.32 327.391L1702.1 340.583L1757.7 285.221M1757.7 285.221L1757.46 198.761H1739.8L1740.03 277.8M1904.71 154L1892.93 198.761V198.172H1904.71V154ZM1904.71 198.172V1798.97ZM1892.93 198.172V1798.97ZM1904.71 1798.97H1892.93V1799.56L1904.71 1823.12V1798.97ZM1904.71 1798.97V1794.26H1892.93V1798.97H1904.71Z" fill="#F5F5F5"/>
<path d="M1892.93 198.172V198.761L1904.71 154V198.172M1892.93 198.172H1904.71M1892.93 198.172V1798.97M1904.71 198.172V1798.97M1904.71 1798.97H1892.93M1904.71 1798.97V1823.12L1892.93 1799.56V1798.97M1904.71 1798.97V1794.26H1892.93V1798.97M1740.03 277.8L1690.32 327.391L1702.1 340.583L1757.7 285.221L1757.46 198.761H1739.8L1740.03 277.8Z" stroke="black" stroke-width="5" stroke-miterlimit="10" stroke-linecap="square"/>
</g>
<g id="Vector_11">
<path d="M1904.71 198.172V202.884H1892.93V198.172H1904.71ZM1904.71 1794.26V202.884ZM1898.82 1794.26V202.884ZM1892.93 1794.26V202.884ZM1017.73 2209.48V2028.08ZM1011.84 2028.08V2209.48ZM1728.02 2052.82V2035.15H1660.88V2052.82H1728.02ZM279.404 5161.95L278.108 5154.29L274.103 5147.58L268.214 5142.52L260.911 5139.92H253.136L245.833 5142.63L239.943 5147.58L235.939 5154.29L234.643 5161.95L235.939 5169.61L239.943 5176.32L245.833 5181.27L253.136 5183.98H260.911L268.214 5181.27L274.103 5176.32L278.108 5169.61L279.404 5161.95ZM1642.74 5160.66L1641.44 5153L1637.43 5146.28L1631.54 5141.22L1624.24 5138.63H1616.47L1609.16 5141.22L1603.27 5146.28L1599.27 5153L1597.97 5160.66L1599.27 5168.31L1603.27 5175.03L1609.16 5180.09L1616.47 5182.68H1624.24L1631.54 5179.97L1637.43 5175.03L1641.44 5168.31L1642.74 5160.66ZM1642.74 5741.25L1641.44 5733.6L1637.43 5726.88L1631.54 5721.82L1624.24 5719.23H1616.47L1609.16 5721.82L1603.27 5726.88L1599.27 5733.6L1597.97 5741.25L1599.27 5748.91L1603.27 5755.63L1609.16 5760.69L1616.47 5763.28H1624.24L1631.54 5760.69L1637.43 5755.63L1641.44 5748.91L1642.74 5741.25ZM279.404 5742.55L278.108 5734.89L274.103 5728.18L268.214 5723.11L260.911 5720.52H253.136L245.833 5723.11L239.943 5728.18L235.939 5734.89L234.643 5742.55L235.939 5750.21L239.943 5756.92L245.833 5761.99L253.136 5764.58H260.911L268.214 5761.99L274.103 5756.92L278.108 5750.21L279.404 5742.55ZM1641.44 3538.3L1640.14 3530.64L1636.14 3523.93L1630.25 3518.86L1622.95 3516.27H1615.17L1607.87 3518.86L1601.98 3523.93L1597.97 3530.64L1596.68 3538.3L1598.09 3545.95L1601.98 3552.67L1607.87 3557.62L1615.17 3560.33H1622.95L1630.25 3557.62L1636.14 3552.67L1640.14 3545.95L1641.44 3538.3ZM280.7 3538.3L279.286 3530.64L275.517 3523.93L269.509 3518.86L262.206 3516.27H254.432L247.129 3518.86L241.239 3523.93L237.352 3530.64L235.939 3538.3L237.352 3545.95L241.121 3552.67L247.129 3557.62L254.432 3560.33H262.206L269.509 3557.62L275.399 3552.67L279.404 3545.95L280.7 3538.3ZM1642.74 2955.46L1641.44 2947.8L1637.43 2941.09L1631.54 2936.02L1624.24 2933.43H1616.47L1609.16 2936.14L1603.27 2941.09L1599.27 2947.8L1597.97 2955.46L1599.27 2963.12L1603.27 2969.83L1609.16 2974.78L1616.47 2977.49H1624.24L1631.54 2974.78L1637.43 2969.83L1641.44 2963.12L1642.74 2955.46ZM280.7 2956.64L279.286 2948.98L275.517 2942.27L269.509 2937.2L262.206 2934.61H254.432L247.129 2937.2L241.239 2942.27L237.352 2948.98L235.939 2956.64L237.352 2964.3L241.121 2971.01L247.129 2976.07L254.432 2978.67H262.206L269.509 2975.96L275.399 2971.01L279.404 2964.3L280.7 2956.64ZM1642.74 1301.54L1641.44 1293.88L1637.43 1287.16L1631.54 1282.22L1624.24 1279.51H1616.47L1609.16 1282.22L1603.27 1287.16L1599.27 1293.88L1597.97 1301.54L1599.27 1309.19L1603.27 1315.91L1609.16 1320.97L1616.47 1323.56H1624.24L1631.54 1320.85L1637.43 1315.91L1641.44 1309.19L1642.74 1301.54ZM280.7 1301.54L279.286 1293.88L275.517 1287.16L269.509 1282.22L262.206 1279.51H254.432L247.129 1282.22L241.239 1287.16L237.352 1293.88L235.939 1301.54L237.352 1309.19L241.121 1315.91L247.129 1320.97L254.432 1323.56H262.206L269.509 1320.85L275.399 1315.91L279.404 1309.19L280.7 1301.54ZM1642.74 719.993L1641.44 712.337L1637.43 705.622L1631.54 700.557L1624.24 697.966H1616.47L1609.16 700.557L1603.27 705.622L1599.27 712.337L1597.97 719.993L1599.27 727.65L1603.27 734.364L1609.16 739.312L1616.47 742.021H1624.24L1631.54 739.312L1637.43 734.364L1641.44 727.65L1642.74 719.993ZM279.404 721.289L278.108 713.632L274.103 706.918L268.214 701.853L260.911 699.262H253.136L245.833 701.971L239.943 706.918L235.939 713.632L234.643 721.289L235.939 728.946L239.943 735.66L245.833 740.607L253.136 743.316H260.911L268.214 740.607L274.103 735.66L278.108 728.946L279.404 721.289Z" fill="#F5F5F5"/>
<path d="M1904.71 202.884V198.172H1892.93V202.884M1904.71 202.884H1892.93M1904.71 202.884V1794.26M1892.93 202.884V1794.26M1898.82 1794.26V202.884M1017.73 2209.48V2028.08M1011.84 2028.08V2209.48M1728.02 2052.82V2035.15H1660.88V2052.82H1728.02ZM279.404 5161.95L278.108 5154.29L274.103 5147.58L268.214 5142.52L260.911 5139.92H253.136L245.833 5142.63L239.943 5147.58L235.939 5154.29L234.643 5161.95L235.939 5169.61L239.943 5176.32L245.833 5181.27L253.136 5183.98H260.911L268.214 5181.27L274.103 5176.32L278.108 5169.61L279.404 5161.95ZM1642.74 5160.66L1641.44 5153L1637.43 5146.28L1631.54 5141.22L1624.24 5138.63H1616.47L1609.16 5141.22L1603.27 5146.28L1599.27 5153L1597.97 5160.66L1599.27 5168.31L1603.27 5175.03L1609.16 5180.09L1616.47 5182.68H1624.24L1631.54 5179.97L1637.43 5175.03L1641.44 5168.31L1642.74 5160.66ZM1642.74 5741.25L1641.44 5733.6L1637.43 5726.88L1631.54 5721.82L1624.24 5719.23H1616.47L1609.16 5721.82L1603.27 5726.88L1599.27 5733.6L1597.97 5741.25L1599.27 5748.91L1603.27 5755.63L1609.16 5760.69L1616.47 5763.28H1624.24L1631.54 5760.69L1637.43 5755.63L1641.44 5748.91L1642.74 5741.25ZM279.404 5742.55L278.108 5734.89L274.103 5728.18L268.214 5723.11L260.911 5720.52H253.136L245.833 5723.11L239.943 5728.18L235.939 5734.89L234.643 5742.55L235.939 5750.21L239.943 5756.92L245.833 5761.99L253.136 5764.58H260.911L268.214 5761.99L274.103 5756.92L278.108 5750.21L279.404 5742.55ZM1641.44 3538.3L1640.14 3530.64L1636.14 3523.93L1630.25 3518.86L1622.95 3516.27H1615.17L1607.87 3518.86L1601.98 3523.93L1597.97 3530.64L1596.68 3538.3L1598.09 3545.95L1601.98 3552.67L1607.87 3557.62L1615.17 3560.33H1622.95L1630.25 3557.62L1636.14 3552.67L1640.14 3545.95L1641.44 3538.3ZM280.7 3538.3L279.286 3530.64L275.517 3523.93L269.509 3518.86L262.206 3516.27H254.432L247.129 3518.86L241.239 3523.93L237.352 3530.64L235.939 3538.3L237.352 3545.95L241.121 3552.67L247.129 3557.62L254.432 3560.33H262.206L269.509 3557.62L275.399 3552.67L279.404 3545.95L280.7 3538.3ZM1642.74 2955.46L1641.44 2947.8L1637.43 2941.09L1631.54 2936.02L1624.24 2933.43H1616.47L1609.16 2936.14L1603.27 2941.09L1599.27 2947.8L1597.97 2955.46L1599.27 2963.12L1603.27 2969.83L1609.16 2974.78L1616.47 2977.49H1624.24L1631.54 2974.78L1637.43 2969.83L1641.44 2963.12L1642.74 2955.46ZM280.7 2956.64L279.286 2948.98L275.517 2942.27L269.509 2937.2L262.206 2934.61H254.432L247.129 2937.2L241.239 2942.27L237.352 2948.98L235.939 2956.64L237.352 2964.3L241.121 2971.01L247.129 2976.07L254.432 2978.67H262.206L269.509 2975.96L275.399 2971.01L279.404 2964.3L280.7 2956.64ZM1642.74 1301.54L1641.44 1293.88L1637.43 1287.16L1631.54 1282.22L1624.24 1279.51H1616.47L1609.16 1282.22L1603.27 1287.16L1599.27 1293.88L1597.97 1301.54L1599.27 1309.19L1603.27 1315.91L1609.16 1320.97L1616.47 1323.56H1624.24L1631.54 1320.85L1637.43 1315.91L1641.44 1309.19L1642.74 1301.54ZM280.7 1301.54L279.286 1293.88L275.517 1287.16L269.509 1282.22L262.206 1279.51H254.432L247.129 1282.22L241.239 1287.16L237.352 1293.88L235.939 1301.54L237.352 1309.19L241.121 1315.91L247.129 1320.97L254.432 1323.56H262.206L269.509 1320.85L275.399 1315.91L279.404 1309.19L280.7 1301.54ZM1642.74 719.993L1641.44 712.337L1637.43 705.622L1631.54 700.557L1624.24 697.966H1616.47L1609.16 700.557L1603.27 705.622L1599.27 712.337L1597.97 719.993L1599.27 727.65L1603.27 734.364L1609.16 739.312L1616.47 742.021H1624.24L1631.54 739.312L1637.43 734.364L1641.44 727.65L1642.74 719.993ZM279.404 721.289L278.108 713.632L274.103 706.918L268.214 701.853L260.911 699.262H253.136L245.833 701.971L239.943 706.918L235.939 713.632L234.643 721.289L235.939 728.946L239.943 735.66L245.833 740.607L253.136 743.316H260.911L268.214 740.607L274.103 735.66L278.108 728.946L279.404 721.289Z" stroke="black" stroke-width="5" stroke-miterlimit="10" stroke-linecap="square"/>
</g>
</g>
<g id="workspacesBackGroup">
<path id="wsB10680" d="M1439.43 2434.46H149.597V4058.82H1439.43V2434.46Z" fill="#F5F5F5" stroke="black" stroke-width="5" stroke-miterlimit="10" stroke-linecap="square"/>
<path id="wsB10677" d="M1439.43 198.761H149.597V1002.11H1439.43V198.761Z" fill="#F5F5F5" stroke="black" stroke-width="5" stroke-miterlimit="10" stroke-linecap="square"/>
<path id="wsB10678" d="M1439.43 1019.78H149.597V1823.12H1439.43V1019.78Z" fill="#F5F5F5" stroke="black" stroke-width="5" stroke-miterlimit="10" stroke-linecap="square"/>
<path id="wsB10682" d="M1439.43 4639.54H149.597V5442.89H1439.43V4639.54Z" fill="#F5F5F5" stroke="black" stroke-width="5" stroke-miterlimit="10" stroke-linecap="square"/>
<path id="wsB10683" d="M1439.43 5460.56H149.597V6263.9H1439.43V5460.56Z" fill="#F5F5F5" stroke="black" stroke-width="5" stroke-miterlimit="10" stroke-linecap="square"/>
<path id="wsB10679" d="M1498.32 1846.68H149.597V2380.28H1498.32V1846.68Z" fill="#F5F5F5" stroke="black" stroke-width="5" stroke-miterlimit="10" stroke-linecap="square"/>
<path id="wsB10681" d="M1498.32 4082.38H149.597V4615.98H1498.32V4082.38Z" fill="#F5F5F5" stroke="black" stroke-width="5" stroke-miterlimit="10" stroke-linecap="square"/>
<path id="wsB10684" d="M1457.09 198.761V1823.12H1728.02V1799.56H1739.8L1742.15 715.517L1690.32 685.716V327.391L1740.03 277.918L1739.8 198.761H1457.09Z" fill="#F5F5F5" stroke="black" stroke-width="5" stroke-miterlimit="10" stroke-linecap="square"/>
<path id="wsB10672" d="M1728.02 4639.54H1457.09V6263.9H1728.02V4639.54Z" fill="#F5F5F5" stroke="black" stroke-width="5" stroke-miterlimit="10" stroke-linecap="square"/>
<path id="wsB10686" d="M1457.09 4058.82H1728.02V2434.46H1457.09V4058.82Z" fill="#F5F5F5" stroke="black" stroke-width="5" stroke-miterlimit="10" stroke-linecap="square"/>
<path id="wsB10675" d="M1751.58 1799.56H1892.93V740.254L1817.54 741.432L1753.93 742.374L1751.58 1799.56Z" fill="#F5F5F5" stroke="black" stroke-width="5" stroke-miterlimit="10" stroke-linecap="square"/>
<path id="wsB10673" d="M1728.02 4615.98V4082.38H1515.99V4615.98H1728.02Z" fill="#F5F5F5" stroke="black" stroke-width="5" stroke-miterlimit="10" stroke-linecap="square"/>
<path id="wsB10674" d="M1728.02 2380.28V2052.82H1660.88V2035.15H1728.02V1846.68H1515.99V2380.28H1728.02Z" fill="#F5F5F5" stroke="black" stroke-width="5" stroke-miterlimit="10" stroke-linecap="square"/>
<path id="wsB10676" d="M1892.93 740.254V198.761H1757.46L1757.7 285.103L1702.1 340.583V678.884L1753.93 708.685V742.256L1817.54 741.314L1892.93 740.254Z" fill="#F5F5F5" stroke="black" stroke-width="5" stroke-miterlimit="10" stroke-linecap="square"/>
<path id="wsB10685" d="M1017.73 2209.48H1306.32V2028.08H1017.73V2209.48Z" fill="#F5F5F5" stroke="black" stroke-width="5" stroke-miterlimit="10" stroke-linecap="square"/>
</g>
<g id="workspacesFrontGroup">
<path id="M3_R33" d="M1439.43 2434.46H149.597V4058.82H1439.43V2434.46Z" fill="#F5F5F5" stroke="black" stroke-width="5" stroke-miterlimit="10" stroke-linecap="square"/>
<path id="M3_R31" d="M1439.43 198.761H149.597V1002.11H1439.43V198.761Z" fill="#F5F5F5" stroke="black" stroke-width="5" stroke-miterlimit="10" stroke-linecap="square"/>
<path id="M3_R32" d="M1439.43 1019.78H149.597V1823.12H1439.43V1019.78Z" fill="#F5F5F5" stroke="black" stroke-width="5" stroke-miterlimit="10" stroke-linecap="square"/>
<path id="M3_R34" d="M1439.43 4639.54H149.597V5442.89H1439.43V4639.54Z" fill="#F5F5F5" stroke="black" stroke-width="5" stroke-miterlimit="10" stroke-linecap="square"/>
<path id="M3_R35" d="M1439.43 5460.56H149.597V6263.9H1439.43V5460.56Z" fill="#F5F5F5" stroke="black" stroke-width="5" stroke-miterlimit="10" stroke-linecap="square"/>
<path id="wsF10679" d="M1498.32 1846.68H149.597V2380.28H1498.32V1846.68Z" fill="#F5F5F5" stroke="black" stroke-width="5" stroke-miterlimit="10" stroke-linecap="square"/>
<path id="wsF10681" d="M1498.32 4082.38H149.597V4615.98H1498.32V4082.38Z" fill="#F5F5F5" stroke="black" stroke-width="5" stroke-miterlimit="10" stroke-linecap="square"/>
<path id="wsF10684" d="M1457.09 198.761V1823.12H1728.02V1799.56H1739.8L1742.15 715.517L1690.32 685.716V327.391L1740.03 277.918L1739.8 198.761H1457.09Z" fill="#F5F5F5" stroke="black" stroke-width="5" stroke-miterlimit="10" stroke-linecap="square"/>
<path id="wsF10672" d="M1728.02 4639.54H1457.09V6263.9H1728.02V4639.54Z" fill="#F5F5F5" stroke="black" stroke-width="5" stroke-miterlimit="10" stroke-linecap="square"/>
<path id="wsF10686" d="M1457.09 4058.82H1728.02V2434.46H1457.09V4058.82Z" fill="#F5F5F5" stroke="black" stroke-width="5" stroke-miterlimit="10" stroke-linecap="square"/>
<path id="wsF10675" d="M1751.58 1799.56H1892.93V740.254L1817.54 741.432L1753.93 742.374L1751.58 1799.56Z" fill="#F5F5F5" stroke="black" stroke-width="5" stroke-miterlimit="10" stroke-linecap="square"/>
<path id="wsF10673" d="M1728.02 4615.98V4082.38H1515.99V4615.98H1728.02Z" fill="#F5F5F5" stroke="black" stroke-width="5" stroke-miterlimit="10" stroke-linecap="square"/>
<path id="wsF10674" d="M1728.02 2380.28V2052.82H1660.88V2035.15H1728.02V1846.68H1515.99V2380.28H1728.02Z" fill="#F5F5F5" stroke="black" stroke-width="5" stroke-miterlimit="10" stroke-linecap="square"/>
<path id="wsF10676" d="M1892.93 740.254V198.761H1757.46L1757.7 285.103L1702.1 340.583V678.884L1753.93 708.685V742.256L1817.54 741.314L1892.93 740.254Z" fill="#F5F5F5" stroke="black" stroke-width="5" stroke-miterlimit="10" stroke-linecap="square"/>
<path id="wsF10685" d="M1017.73 2209.48H1306.32V2028.08H1017.73V2209.48Z" fill="#F5F5F5" stroke="black" stroke-width="5" stroke-miterlimit="10" stroke-linecap="square"/>
<path id="M32" d="M467.219 1406.44H477.73L502.446 1466.8H503.298L528.014 1406.44H538.525V1479.16H530.287V1423.91H529.577L506.849 1479.16H498.895L476.167 1423.91H475.457V1479.16H467.219V1406.44ZM579.479 1480.16C574.791 1480.16 570.613 1479.35 566.943 1477.74C563.298 1476.13 560.397 1473.9 558.243 1471.03C556.112 1468.14 554.952 1464.79 554.763 1460.98H563.712C563.901 1463.32 564.706 1465.35 566.127 1467.05C567.547 1468.73 569.405 1470.04 571.702 1470.96C573.998 1471.88 576.543 1472.34 579.337 1472.34C582.462 1472.34 585.232 1471.8 587.646 1470.71C590.061 1469.62 591.955 1468.11 593.328 1466.17C594.701 1464.22 595.388 1461.98 595.388 1459.42C595.388 1456.74 594.725 1454.39 593.399 1452.35C592.074 1450.29 590.132 1448.68 587.575 1447.52C585.019 1446.36 581.894 1445.78 578.2 1445.78H572.377V1437.97H578.2C581.089 1437.97 583.622 1437.45 585.8 1436.41C588.002 1435.37 589.718 1433.9 590.949 1432C592.204 1430.11 592.831 1427.88 592.831 1425.33C592.831 1422.87 592.287 1420.72 591.198 1418.9C590.109 1417.08 588.57 1415.66 586.581 1414.64C584.616 1413.62 582.296 1413.11 579.621 1413.11C577.111 1413.11 574.744 1413.57 572.519 1414.5C570.317 1415.4 568.518 1416.71 567.121 1418.44C565.724 1420.14 564.967 1422.2 564.848 1424.62H556.325C556.467 1420.81 557.616 1417.47 559.77 1414.6C561.924 1411.71 564.742 1409.47 568.222 1407.86C571.726 1406.25 575.573 1405.44 579.763 1405.44C584.261 1405.44 588.12 1406.35 591.34 1408.18C594.559 1409.97 597.033 1412.35 598.762 1415.31C600.49 1418.27 601.354 1421.47 601.354 1424.9C601.354 1429 600.277 1432.49 598.122 1435.38C595.992 1438.27 593.092 1440.27 589.422 1441.38V1441.95C594.015 1442.7 597.601 1444.66 600.182 1447.81C602.762 1450.93 604.053 1454.8 604.053 1459.42C604.053 1463.37 602.976 1466.92 600.821 1470.07C598.691 1473.2 595.779 1475.66 592.085 1477.46C588.392 1479.26 584.19 1480.16 579.479 1480.16ZM618.577 1479.16V1472.77L642.583 1446.49C645.4 1443.41 647.72 1440.74 649.543 1438.47C651.366 1436.17 652.715 1434.02 653.591 1432C654.491 1429.97 654.941 1427.84 654.941 1425.61C654.941 1423.05 654.325 1420.84 653.094 1418.97C651.887 1417.1 650.229 1415.66 648.122 1414.64C646.015 1413.62 643.648 1413.11 641.02 1413.11C638.226 1413.11 635.788 1413.69 633.705 1414.85C631.645 1415.99 630.047 1417.59 628.911 1419.65C627.798 1421.71 627.242 1424.12 627.242 1426.89H618.861C618.861 1422.63 619.843 1418.89 621.808 1415.67C623.773 1412.45 626.449 1409.94 629.834 1408.14C633.243 1406.34 637.066 1405.44 641.304 1405.44C645.566 1405.44 649.342 1406.34 652.632 1408.14C655.923 1409.94 658.503 1412.37 660.374 1415.42C662.244 1418.47 663.179 1421.87 663.179 1425.61C663.179 1428.29 662.694 1430.9 661.723 1433.46C660.776 1435.99 659.119 1438.82 656.752 1441.95C654.408 1445.05 651.153 1448.84 646.986 1453.31L630.651 1470.78V1471.35H664.458V1479.16H618.577Z" fill="black"/>
<path id="M33" d="M488.219 3225.44H498.73L523.446 3285.8H524.298L549.014 3225.44H559.525V3298.16H551.287V3242.91H550.577L527.849 3298.16H519.895L497.167 3242.91H496.457V3298.16H488.219V3225.44ZM600.479 3299.16C595.791 3299.16 591.613 3298.35 587.943 3296.74C584.298 3295.13 581.397 3292.9 579.243 3290.03C577.112 3287.14 575.952 3283.79 575.763 3279.98H584.712C584.901 3282.32 585.706 3284.35 587.127 3286.05C588.547 3287.73 590.405 3289.04 592.702 3289.96C594.998 3290.88 597.543 3291.34 600.337 3291.34C603.462 3291.34 606.232 3290.8 608.646 3289.71C611.061 3288.62 612.955 3287.11 614.328 3285.17C615.701 3283.22 616.388 3280.98 616.388 3278.42C616.388 3275.74 615.725 3273.39 614.399 3271.35C613.074 3269.29 611.132 3267.68 608.575 3266.52C606.019 3265.36 602.894 3264.78 599.2 3264.78H593.377V3256.97H599.2C602.089 3256.97 604.622 3256.45 606.8 3255.41C609.002 3254.37 610.718 3252.9 611.949 3251C613.204 3249.11 613.831 3246.88 613.831 3244.33C613.831 3241.87 613.287 3239.72 612.198 3237.9C611.109 3236.08 609.57 3234.66 607.581 3233.64C605.616 3232.62 603.296 3232.11 600.621 3232.11C598.111 3232.11 595.744 3232.57 593.519 3233.5C591.317 3234.4 589.518 3235.71 588.121 3237.44C586.724 3239.14 585.967 3241.2 585.848 3243.62H577.325C577.467 3239.81 578.616 3236.47 580.77 3233.6C582.924 3230.71 585.742 3228.47 589.222 3226.86C592.726 3225.25 596.573 3224.44 600.763 3224.44C605.261 3224.44 609.12 3225.35 612.34 3227.18C615.559 3228.97 618.033 3231.35 619.762 3234.31C621.49 3237.27 622.354 3240.47 622.354 3243.9C622.354 3248 621.277 3251.49 619.122 3254.38C616.992 3257.27 614.092 3259.27 610.422 3260.38V3260.95C615.015 3261.7 618.601 3263.66 621.182 3266.81C623.762 3269.93 625.053 3273.8 625.053 3278.42C625.053 3282.37 623.976 3285.92 621.821 3289.07C619.691 3292.2 616.779 3294.66 613.085 3296.46C609.392 3298.26 605.19 3299.16 600.479 3299.16ZM664.151 3299.16C659.463 3299.16 655.285 3298.35 651.615 3296.74C647.969 3295.13 645.069 3292.9 642.915 3290.03C640.784 3287.14 639.624 3283.79 639.435 3279.98H648.384C648.573 3282.32 649.378 3284.35 650.798 3286.05C652.219 3287.73 654.077 3289.04 656.374 3289.96C658.67 3290.88 661.215 3291.34 664.009 3291.34C667.134 3291.34 669.904 3290.8 672.318 3289.71C674.733 3288.62 676.627 3287.11 678 3285.17C679.373 3283.22 680.06 3280.98 680.06 3278.42C680.06 3275.74 679.397 3273.39 678.071 3271.35C676.745 3269.29 674.804 3267.68 672.247 3266.52C669.691 3265.36 666.566 3264.78 662.872 3264.78H657.048V3256.97H662.872C665.761 3256.97 668.294 3256.45 670.472 3255.41C672.673 3254.37 674.39 3252.9 675.621 3251C676.876 3249.11 677.503 3246.88 677.503 3244.33C677.503 3241.87 676.959 3239.72 675.869 3237.9C674.78 3236.08 673.242 3234.66 671.253 3233.64C669.288 3232.62 666.968 3232.11 664.293 3232.11C661.783 3232.11 659.416 3232.57 657.191 3233.5C654.989 3234.4 653.19 3235.71 651.793 3237.44C650.396 3239.14 649.638 3241.2 649.52 3243.62H640.997C641.139 3239.81 642.288 3236.47 644.442 3233.6C646.596 3230.71 649.414 3228.47 652.894 3226.86C656.397 3225.25 660.244 3224.44 664.435 3224.44C668.933 3224.44 672.792 3225.35 676.012 3227.18C679.231 3228.97 681.705 3231.35 683.433 3234.31C685.162 3237.27 686.026 3240.47 686.026 3243.9C686.026 3248 684.949 3251.49 682.794 3254.38C680.664 3257.27 677.763 3259.27 674.094 3260.38V3260.95C678.687 3261.7 682.273 3263.66 684.854 3266.81C687.434 3269.93 688.725 3273.8 688.725 3278.42C688.725 3282.37 687.647 3285.92 685.493 3289.07C683.362 3292.2 680.45 3294.66 676.757 3296.46C673.064 3298.26 668.862 3299.16 664.151 3299.16Z" fill="black"/>
<path id="M34" d="M461.219 5117.44H471.73L496.446 5177.81H497.298L522.014 5117.44H532.525V5190.16H524.287V5134.91H523.577L500.849 5190.16H492.895L470.167 5134.91H469.457V5190.16H461.219V5117.44ZM573.479 5191.16C568.791 5191.16 564.613 5190.35 560.943 5188.74C557.298 5187.13 554.397 5184.9 552.243 5182.03C550.112 5179.14 548.952 5175.79 548.763 5171.98H557.712C557.901 5174.33 558.706 5176.35 560.127 5178.05C561.547 5179.73 563.405 5181.04 565.702 5181.96C567.998 5182.88 570.543 5183.34 573.337 5183.34C576.462 5183.34 579.232 5182.8 581.646 5181.71C584.061 5180.62 585.955 5179.11 587.328 5177.17C588.701 5175.22 589.388 5172.98 589.388 5170.42C589.388 5167.74 588.725 5165.39 587.399 5163.35C586.074 5161.29 584.132 5159.68 581.575 5158.52C579.019 5157.36 575.894 5156.78 572.2 5156.78H566.377V5148.97H572.2C575.089 5148.97 577.622 5148.45 579.8 5147.41C582.002 5146.37 583.718 5144.9 584.949 5143C586.204 5141.11 586.831 5138.88 586.831 5136.33C586.831 5133.87 586.287 5131.72 585.198 5129.9C584.109 5128.08 582.57 5126.66 580.581 5125.64C578.616 5124.62 576.296 5124.11 573.621 5124.11C571.111 5124.11 568.744 5124.57 566.519 5125.5C564.317 5126.4 562.518 5127.71 561.121 5129.44C559.724 5131.14 558.967 5133.2 558.848 5135.62H550.325C550.467 5131.81 551.616 5128.47 553.77 5125.6C555.924 5122.72 558.742 5120.47 562.222 5118.86C565.726 5117.25 569.573 5116.44 573.763 5116.44C578.261 5116.44 582.12 5117.35 585.34 5119.18C588.559 5120.98 591.033 5123.35 592.762 5126.31C594.49 5129.27 595.354 5132.47 595.354 5135.9C595.354 5140 594.277 5143.49 592.122 5146.38C589.992 5149.27 587.092 5151.27 583.422 5152.38V5152.95C588.015 5153.7 591.601 5155.66 594.182 5158.81C596.762 5161.93 598.053 5165.8 598.053 5170.42C598.053 5174.37 596.976 5177.92 594.821 5181.07C592.691 5184.2 589.779 5186.66 586.085 5188.46C582.392 5190.26 578.19 5191.16 573.479 5191.16ZM610.872 5175.25V5168L642.833 5117.44H648.088V5128.66H644.537L620.389 5166.87V5167.44H663.429V5175.25H610.872ZM645.105 5190.16V5173.05V5169.67V5117.44H653.486V5190.16H645.105Z" fill="black"/>
<path id="M31" d="M572.807 624.273H583.318L608.034 684.642H608.886L633.602 624.273H644.114V697H635.875V641.744H635.165L612.438 697H604.483L581.756 641.744H581.045V697H572.807V624.273ZM685.067 697.994C680.38 697.994 676.201 697.189 672.532 695.58C668.886 693.97 665.986 691.732 663.831 688.868C661.701 685.98 660.541 682.63 660.351 678.818H669.3C669.489 681.162 670.294 683.186 671.715 684.891C673.135 686.571 674.994 687.874 677.29 688.797C679.587 689.72 682.132 690.182 684.925 690.182C688.05 690.182 690.82 689.637 693.235 688.548C695.65 687.459 697.543 685.944 698.917 684.003C700.29 682.062 700.976 679.812 700.976 677.256C700.976 674.58 700.313 672.225 698.988 670.189C697.662 668.129 695.721 666.519 693.164 665.359C690.607 664.199 687.482 663.619 683.789 663.619H677.965V655.807H683.789C686.677 655.807 689.21 655.286 691.388 654.244C693.59 653.203 695.306 651.735 696.537 649.841C697.792 647.947 698.419 645.722 698.419 643.165C698.419 640.703 697.875 638.56 696.786 636.737C695.697 634.914 694.158 633.494 692.169 632.476C690.204 631.458 687.884 630.949 685.209 630.949C682.7 630.949 680.332 631.411 678.107 632.334C675.905 633.233 674.106 634.547 672.709 636.276C671.312 637.98 670.555 640.04 670.436 642.455H661.914C662.056 638.643 663.204 635.305 665.358 632.44C667.513 629.552 670.33 627.303 673.81 625.693C677.314 624.083 681.161 623.278 685.351 623.278C689.849 623.278 693.708 624.19 696.928 626.013C700.148 627.812 702.622 630.191 704.35 633.151C706.078 636.11 706.942 639.306 706.942 642.739C706.942 646.834 705.865 650.326 703.711 653.214C701.58 656.103 698.68 658.103 695.01 659.216V659.784C699.603 660.542 703.19 662.495 705.77 665.643C708.351 668.768 709.641 672.639 709.641 677.256C709.641 681.209 708.564 684.76 706.409 687.909C704.279 691.034 701.367 693.496 697.674 695.295C693.98 697.095 689.778 697.994 685.067 697.994ZM749.733 624.273V697H740.926V633.506H740.5L722.745 645.295V636.347L740.926 624.273H749.733Z" fill="black"/>
<path id="M35" d="M482.807 5886.27H493.318L518.034 5946.64H518.886L543.602 5886.27H554.114V5959H545.875V5903.74H545.165L522.438 5959H514.483L491.756 5903.74H491.045V5959H482.807V5886.27ZM595.067 5959.99C590.38 5959.99 586.201 5959.19 582.532 5957.58C578.886 5955.97 575.986 5953.73 573.831 5950.87C571.701 5947.98 570.541 5944.63 570.351 5940.82H579.3C579.489 5943.16 580.294 5945.19 581.715 5946.89C583.135 5948.57 584.994 5949.87 587.29 5950.8C589.587 5951.72 592.132 5952.18 594.925 5952.18C598.05 5952.18 600.82 5951.64 603.235 5950.55C605.65 5949.46 607.543 5947.94 608.917 5946C610.29 5944.06 610.976 5941.81 610.976 5939.26C610.976 5936.58 610.313 5934.22 608.988 5932.19C607.662 5930.13 605.721 5928.52 603.164 5927.36C600.607 5926.2 597.482 5925.62 593.789 5925.62H587.965V5917.81H593.789C596.677 5917.81 599.21 5917.29 601.388 5916.24C603.59 5915.2 605.306 5913.73 606.537 5911.84C607.792 5909.95 608.419 5907.72 608.419 5905.16C608.419 5902.7 607.875 5900.56 606.786 5898.74C605.697 5896.91 604.158 5895.49 602.169 5894.48C600.204 5893.46 597.884 5892.95 595.209 5892.95C592.7 5892.95 590.332 5893.41 588.107 5894.33C585.905 5895.23 584.106 5896.55 582.709 5898.28C581.312 5899.98 580.555 5902.04 580.436 5904.45H571.914C572.056 5900.64 573.204 5897.3 575.358 5894.44C577.513 5891.55 580.33 5889.3 583.81 5887.69C587.314 5886.08 591.161 5885.28 595.351 5885.28C599.849 5885.28 603.708 5886.19 606.928 5888.01C610.148 5889.81 612.622 5892.19 614.35 5895.15C616.078 5898.11 616.942 5901.31 616.942 5904.74C616.942 5908.83 615.865 5912.33 613.711 5915.21C611.58 5918.1 608.68 5920.1 605.01 5921.22V5921.78C609.603 5922.54 613.19 5924.49 615.77 5927.64C618.351 5930.77 619.641 5934.64 619.641 5939.26C619.641 5943.21 618.564 5946.76 616.409 5949.91C614.279 5953.03 611.367 5955.5 607.674 5957.3C603.98 5959.09 599.778 5959.99 595.067 5959.99ZM656.892 5959.99C652.726 5959.99 648.973 5959.17 645.635 5957.51C642.297 5955.85 639.622 5953.58 637.61 5950.69C635.597 5947.8 634.497 5944.51 634.307 5940.82H642.83C643.161 5944.11 644.653 5946.83 647.304 5948.99C649.98 5951.12 653.176 5952.18 656.892 5952.18C659.875 5952.18 662.527 5951.48 664.847 5950.09C667.191 5948.69 669.025 5946.77 670.351 5944.33C671.701 5941.87 672.375 5939.09 672.375 5935.99C672.375 5932.82 671.677 5929.99 670.28 5927.5C668.907 5924.99 667.013 5923.02 664.598 5921.57C662.184 5920.13 659.426 5919.39 656.324 5919.37C654.099 5919.35 651.814 5919.69 649.471 5920.4C647.127 5921.09 645.197 5921.97 643.682 5923.06L635.444 5922.07L639.847 5886.27H677.631V5894.09H647.233L644.676 5915.53H645.103C646.594 5914.35 648.464 5913.37 650.713 5912.59C652.962 5911.81 655.306 5911.41 657.745 5911.41C662.195 5911.41 666.161 5912.48 669.641 5914.61C673.145 5916.72 675.891 5919.61 677.88 5923.28C679.892 5926.95 680.898 5931.14 680.898 5935.85C680.898 5940.49 679.856 5944.63 677.773 5948.28C675.713 5951.9 672.873 5954.76 669.25 5956.87C665.628 5958.95 661.509 5959.99 656.892 5959.99Z" fill="black"/>
<rect id="M3_T01" x="167" y="1986" width="1" height="1" fill="#D9D9D9"/>
<rect id="M3_01" x="274" y="1986" width="1" height="1" fill="#D9D9D9"/>
<rect id="M3_02" x="274" y="2247" width="1" height="1" fill="#D9D9D9"/>
<rect id="M3_M33" x="274" y="3300" width="1" height="1" fill="#D9D9D9"/>
<rect id="M3_03" x="1583" y="2246" width="1" height="1" fill="#D9D9D9"/>
<rect id="M3_05" x="1583" y="3000" width="1" height="1" fill="#D9D9D9"/>
<rect id="M3_06" x="1583" y="4457" width="1" height="1" fill="#D9D9D9"/>
<rect id="M3_09" x="1583" y="5543" width="1" height="2" fill="#D9D9D9"/>
<rect id="M3_M35" x="1340" y="5543" width="1" height="2" fill="#D9D9D9"/>
<rect id="M3_07" x="280" y="4456" width="1" height="1" fill="#D9D9D9"/>
<rect id="M3_M34" x="280" y="4796" width="1" height="1" fill="#D9D9D9"/>
<rect id="M3_08" x="280" y="4197" width="1" height="1" fill="#D9D9D9"/>
<rect id="M3_T02" x="169" y="4197" width="1" height="1" fill="#D9D9D9"/>
<rect id="M3_04" x="1584" y="954" width="1" height="1" fill="#D9D9D9"/>
<rect id="M3_M31" x="1334" y="954" width="1" height="1" fill="#D9D9D9"/>
<rect id="M3_M32" x="274" y="1459" width="1" height="1" fill="#D9D9D9"/>
</g>
<g id="trappa 1">
<g id="Frame 5">
<g id="Clip path group">
<mask id="mask0_18_45576" style="mask-type:luminance" maskUnits="userSpaceOnUse" x="30" y="1904" width="114" height="110">
<g id="clip0_2_215">
<path id="Vector_12" d="M143.12 1904H30.0747V2013.3H143.12V1904Z" fill="white"/>
</g>
</mask>
<g mask="url(#mask0_18_45576)">
<g id="Frame 2">
<path id="Line 1" d="M52.2798 1993.06V1980.92" stroke="#0DE47E" stroke-width="4"/>
<path id="Line 2" d="M56.3171 1993.06V1980.92" stroke="#0DE47E" stroke-width="4"/>
<path id="Line 3" d="M52.2798 1980.92V1972.82" stroke="#0DE47E" stroke-width="4"/>
<path id="Line 4" d="M56.3171 1980.92V1972.82" stroke="#0DE47E" stroke-width="4"/>
<path id="Line 5" d="M52.2798 1972.82V1964.72" stroke="#0DE47E" stroke-width="4"/>
<path id="Line 6" d="M56.3171 1972.82V1964.72" stroke="#0DE47E" stroke-width="4"/>
<path id="Line 7" d="M56.3171 1964.72V1956.63" stroke="#0DE47E" stroke-width="4"/>
<path id="Line 9" d="M52.2798 1964.72V1956.63" stroke="#0DE47E" stroke-width="4"/>
<path id="Line 8" d="M52.2798 1972.82V1964.72" stroke="#0DE47E" stroke-width="4"/>
<path id="Line 10" d="M58.3357 1958.65H86.597" stroke="#0DE47E" stroke-width="4"/>
<path id="Line 12" d="M58.3357 1962.7H86.597" stroke="#0DE47E" stroke-width="4"/>
<path id="Line 11" d="M56.3171 1964.72V1956.63" stroke="#0DE47E" stroke-width="4"/>
<path id="Line 13" d="M80.5411 1956.63V1928.29" stroke="#0DE47E" stroke-width="4"/>
<path id="Line 14" d="M84.5785 1956.63V1928.29" stroke="#0DE47E" stroke-width="4"/>
<path id="Line 15" d="M86.597 1930.31H114.858" stroke="#0DE47E" stroke-width="4"/>
<path id="Line 16" d="M86.597 1934.36H114.858" stroke="#0DE47E" stroke-width="4"/>
<path id="Line 19" d="M112.84 1928.29V1899.95" stroke="#0DE47E" stroke-width="4"/>
<path id="Line 20" d="M108.802 1928.29V1899.95" stroke="#0DE47E" stroke-width="4"/>
</g>
</g>
</g>
<path id="Line 17" d="M50.2613 1986.99H22" stroke="#0DE47E" stroke-width="4"/>
<path id="Line 18" d="M50.2613 1991.04H22" stroke="#0DE47E" stroke-width="4"/>
<path id="Line 21" d="M114.859 1906.02H143.12" stroke="#0DE47E" stroke-width="4"/>
<path id="Line 22" d="M114.859 1910.07H143.12" stroke="#0DE47E" stroke-width="4"/>
</g>
</g>
<g id="trappa 2">
<g id="Frame 5_2">
<g id="Clip path group_2">
<mask id="mask1_18_45576" style="mask-type:luminance" maskUnits="userSpaceOnUse" x="31" y="4143" width="114" height="110">
<g id="clip0_2_215_2">
<path id="Vector_13" d="M144.12 4143H31.0747V4252.3H144.12V4143Z" fill="white"/>
</g>
</mask>
<g mask="url(#mask1_18_45576)">
<g id="Frame 2_2">
<path id="Line 1_2" d="M53.2798 4232.06V4219.92" stroke="#0DE47E" stroke-width="4"/>
<path id="Line 2_2" d="M57.3171 4232.06V4219.92" stroke="#0DE47E" stroke-width="4"/>
<path id="Line 3_2" d="M53.2798 4219.92V4211.82" stroke="#0DE47E" stroke-width="4"/>
<path id="Line 4_2" d="M57.3171 4219.92V4211.82" stroke="#0DE47E" stroke-width="4"/>
<path id="Line 5_2" d="M53.2798 4211.82V4203.72" stroke="#0DE47E" stroke-width="4"/>
<path id="Line 6_2" d="M57.3171 4211.82V4203.72" stroke="#0DE47E" stroke-width="4"/>
<path id="Line 7_2" d="M57.3171 4203.72V4195.63" stroke="#0DE47E" stroke-width="4"/>
<path id="Line 9_2" d="M53.2798 4203.72V4195.63" stroke="#0DE47E" stroke-width="4"/>
<path id="Line 8_2" d="M53.2798 4211.82V4203.72" stroke="#0DE47E" stroke-width="4"/>
<path id="Line 10_2" d="M59.3357 4197.65H87.597" stroke="#0DE47E" stroke-width="4"/>
<path id="Line 12_2" d="M59.3357 4201.7H87.597" stroke="#0DE47E" stroke-width="4"/>
<path id="Line 11_2" d="M57.3171 4203.72V4195.63" stroke="#0DE47E" stroke-width="4"/>
<path id="Line 13_2" d="M81.5411 4195.63V4167.29" stroke="#0DE47E" stroke-width="4"/>
<path id="Line 14_2" d="M85.5785 4195.63V4167.29" stroke="#0DE47E" stroke-width="4"/>
<path id="Line 15_2" d="M87.597 4169.31H115.858" stroke="#0DE47E" stroke-width="4"/>
<path id="Line 16_2" d="M87.597 4173.36H115.858" stroke="#0DE47E" stroke-width="4"/>
<path id="Line 19_2" d="M113.84 4167.29V4138.95" stroke="#0DE47E" stroke-width="4"/>
<path id="Line 20_2" d="M109.802 4167.29V4138.95" stroke="#0DE47E" stroke-width="4"/>
</g>
</g>
</g>
<path id="Line 17_2" d="M51.2613 4225.99H23" stroke="#0DE47E" stroke-width="4"/>
<path id="Line 18_2" d="M51.2613 4230.04H23" stroke="#0DE47E" stroke-width="4"/>
<path id="Line 21_2" d="M115.859 4145.02H144.12" stroke="#0DE47E" stroke-width="4"/>
<path id="Line 22_2" d="M115.859 4149.07H144.12" stroke="#0DE47E" stroke-width="4"/>
</g>
</g>
</g>
</g>
<defs>
<clipPath id="clip0_18_45576">
<rect width="2000" height="6462.34" fill="white"/>
</clipPath>
</defs>
</svg>
