<svg width="2000" height="6944" viewBox="0 0 2000 6944" fill="none" xmlns="http://www.w3.org/2000/svg">
<g id="V4 1">
<g id="svgDrawingGroup">
<g id="floorGraphicsGroup">
<g id="Vector">
<path d="M65.3041 4375.88V4591.03H160.223V4375.88H65.3041ZM62.7729 2010.5V2188.95H160.223V2010.5H62.7729ZM575.334 4775.8H1451.12V4580.9H575.334V4775.8ZM575.334 2373.73H1134.72V2178.83H575.334V2373.73ZM208.315 6729.86H160.223V6777.95M160.223 6729.86V5866.73V6729.86ZM208.315 6729.86V5866.73V6729.86ZM160.223 5866.73H208.315V5848.38H160.223V5866.73ZM160.223 5848.38V4985.26V5848.38ZM208.315 5848.38V4985.26V5848.38ZM208.315 4959.31V4386V4959.31ZM208.315 4360.69H160.223V4985.26H208.315V4984.62M160.223 4360.69V3497.56V4360.69ZM208.315 4360.69V3497.56V4360.69ZM160.223 3497.56H208.315V3479.21H160.223V3497.56ZM160.223 3479.21V2616.09V3479.21ZM208.315 3479.21V2616.09V3479.21ZM208.315 2557.24V1983.93V2557.24ZM208.315 1958.62H160.223V2616.09H208.315V2615.45M160.223 1958.62V1095.49V1958.62ZM208.315 1958.62V1095.49V1958.62ZM160.223 1095.49H208.315V1077.14H160.223V1095.49ZM160.223 1077.14V214.01V1077.14ZM208.315 1077.14V214.01V1077.14ZM160.223 165.285V214.01H208.315V213.377M160.223 5866.73V5871.8H172.879V5866.73H160.223ZM160.223 6729.86V6724.8H172.879V6729.86H160.223ZM160.223 5871.8V6724.8V5871.8ZM166.551 5871.8V6724.8V5871.8ZM172.879 5871.8V6724.8V5871.8ZM160.223 4985.26V4990.32H172.879V4985.26H160.223ZM160.223 5848.38V5843.32H172.879V5848.38H160.223ZM160.223 4990.32V5843.32V4990.32ZM166.551 4990.32V5843.32V4990.32ZM172.879 4990.32V5843.32V4990.32ZM160.223 3497.56V3502.63H172.879V3497.56H160.223ZM160.223 4360.69V4355.63H172.879V4360.69H160.223ZM160.223 3502.63V4355.63V3502.63ZM166.551 3502.63V4355.63V3502.63ZM172.879 3502.63V4355.63V3502.63ZM160.223 2616.09V2621.15H172.879V2616.09H160.223ZM160.223 3479.21V3474.15H172.879V3479.21H160.223ZM160.223 2621.15V3474.15V2621.15ZM166.551 2621.15V3474.15V2621.15ZM172.879 2621.15V3474.15V2621.15ZM160.223 1095.49V1100.55H172.879V1095.49H160.223ZM160.223 1958.62V1953.55H172.879V1958.62H160.223ZM160.223 1100.55V1953.55V1100.55ZM166.551 1100.55V1953.55V1100.55ZM172.879 1100.55V1953.55V1100.55ZM160.223 214.01V219.072H172.879V214.01H160.223ZM160.223 1077.14V1072.08H172.879V1077.14H160.223ZM160.223 219.072V1072.08V219.072ZM166.551 219.072V1072.08V219.072ZM172.879 219.072V1072.08V219.072ZM208.315 213.377H1904.2H208.315ZM1952.29 165.285H160.223H1952.29ZM1904.2 213.377V213.124H1952.29V165.285M1952.29 213.124V1958.36V213.124ZM1904.2 213.124V1958.36V213.124ZM1904.2 1983.93V2557.24V1983.93ZM1904.2 2615.45H1952.29V1958.36H1904.2V1958.62M1952.29 2615.45V4360.69V2615.45ZM1904.2 2615.45V4360.69V2615.45ZM1904.2 4386V4959.31V4386ZM1904.2 4984.62V4983.99H1952.29V4360.69H1904.2M1952.29 4983.99V6729.23V4983.99ZM1904.2 4983.99V6729.23V4983.99ZM1952.29 6777.95V6729.23H1904.2V6729.86M1952.29 1958.36V1953.3H1939.63V1958.36H1952.29Z" fill="#F5F5F5"/>
<path d="M160.223 6729.86H208.315V5866.73M160.223 6729.86V6777.95M160.223 6729.86V5866.73M160.223 6729.86V6724.8M160.223 6729.86H172.879V6724.8M160.223 5866.73H208.315M160.223 5866.73V5848.38M160.223 5866.73V5871.8M160.223 5866.73H172.879V5871.8M208.315 5866.73V5848.38M208.315 5848.38H160.223M208.315 5848.38V4985.26M160.223 5848.38V4985.26M160.223 5848.38V5843.32M160.223 5848.38H172.879V5843.32M160.223 4985.26V4360.69M160.223 4985.26H208.315M160.223 4985.26V4990.32M160.223 4985.26H172.879V4990.32M208.315 4985.26V4984.62M208.315 4959.31V4386M160.223 4360.69H208.315V3497.56M160.223 4360.69V3497.56M160.223 4360.69V4355.63M160.223 4360.69H172.879V4355.63M160.223 3497.56H208.315M160.223 3497.56V3479.21M160.223 3497.56V3502.63M160.223 3497.56H172.879V3502.63M208.315 3497.56V3479.21M208.315 3479.21H160.223M208.315 3479.21V2616.09M160.223 3479.21V2616.09M160.223 3479.21V3474.15M160.223 3479.21H172.879V3474.15M160.223 2616.09V1958.62M160.223 2616.09H208.315M160.223 2616.09V2621.15M160.223 2616.09H172.879V2621.15M208.315 2616.09V2615.45M208.315 2557.24V1983.93M160.223 1958.62H208.315V1095.49M160.223 1958.62V1095.49M160.223 1958.62V1953.55M160.223 1958.62H172.879V1953.55M160.223 1095.49H208.315M160.223 1095.49V1077.14M160.223 1095.49V1100.55M160.223 1095.49H172.879V1100.55M208.315 1095.49V1077.14M208.315 1077.14H160.223M208.315 1077.14V214.01M160.223 1077.14V214.01M160.223 1077.14V1072.08M160.223 1077.14H172.879V1072.08M160.223 214.01V165.285H1952.29V213.124M160.223 214.01H208.315M160.223 214.01V219.072M160.223 214.01H172.879V219.072M208.315 214.01V213.377H1904.2V213.124M160.223 5871.8H172.879M160.223 5871.8V6724.8M172.879 5871.8V6724.8M160.223 6724.8H172.879M166.551 5871.8V6724.8M160.223 4990.32H172.879M160.223 4990.32V5843.32M172.879 4990.32V5843.32M160.223 5843.32H172.879M166.551 4990.32V5843.32M160.223 3502.63H172.879M160.223 3502.63V4355.63M172.879 3502.63V4355.63M160.223 4355.63H172.879M166.551 3502.63V4355.63M160.223 2621.15H172.879M160.223 2621.15V3474.15M172.879 2621.15V3474.15M160.223 3474.15H172.879M166.551 2621.15V3474.15M160.223 1100.55H172.879M160.223 1100.55V1953.55M172.879 1100.55V1953.55M160.223 1953.55H172.879M166.551 1100.55V1953.55M160.223 219.072H172.879M160.223 219.072V1072.08M172.879 219.072V1072.08M160.223 1072.08H172.879M166.551 219.072V1072.08M1904.2 213.124H1952.29M1904.2 213.124V1958.36M1952.29 213.124V1958.36M1952.29 1958.36V2615.45M1952.29 1958.36H1904.2M1952.29 1958.36V1953.3H1939.63V1958.36H1952.29ZM1904.2 1958.36V1958.62M1904.2 1983.93V2557.24M1952.29 2615.45H1904.2V4360.69H1952.29M1952.29 2615.45V4360.69M1952.29 4360.69V4983.99M1904.2 4386V4959.31M1904.2 4984.62V4983.99M1904.2 4983.99H1952.29M1904.2 4983.99V6729.23M1952.29 4983.99V6729.23M1952.29 6729.23V6777.95M1952.29 6729.23H1904.2M1904.2 6729.23V6729.86M65.3041 4375.88V4591.03H160.223V4375.88H65.3041ZM62.7729 2010.5V2188.95H160.223V2010.5H62.7729ZM575.334 4775.8H1451.12V4580.9H575.334V4775.8ZM575.334 2373.73H1134.72V2178.83H575.334V2373.73Z" stroke="black" stroke-width="5" stroke-miterlimit="10" stroke-linecap="square"/>
</g>
<g id="Vector_2">
<path d="M1952.29 213.124V218.186H1939.63V213.124H1952.29ZM1952.29 1953.3V218.186V1953.3ZM1945.96 1953.3V218.186V1953.3ZM1939.63 1953.3V218.186V1953.3ZM1952.29 4360.69V4355.63H1939.63V4360.69H1952.29ZM1952.29 2615.45V2620.52H1939.63V2615.45H1952.29ZM1952.29 4355.63V2620.52V4355.63ZM1945.96 4355.63V2620.52V4355.63ZM1939.63 4355.63V2620.52V4355.63ZM1952.29 6729.23V6724.17H1939.63V6729.23H1952.29ZM1952.29 4983.99V4989.05H1939.63V4983.99H1952.29ZM1952.29 6724.17V4989.05V6724.17ZM1945.96 6724.17V4989.05V6724.17ZM1939.63 6724.17V4989.05V6724.17ZM1904.2 6729.86H208.315H1904.2ZM160.223 6777.95H1952.29H160.223ZM50.1171 4606.21H160.223V4591.03H65.3041M65.3041 4591.03V4375.88V4591.03ZM50.1171 4360.69V4606.21V4360.69ZM65.3041 4375.88H160.223V4360.69H50.1171M47.5859 2204.14H160.223V2188.95H62.7729M62.7729 2188.95V2010.5V2188.95ZM47.5859 1995.32V2204.14V1995.32ZM62.7729 2010.5H160.223V1995.32H47.5859M208.315 5847.75V5866.73H234.892V5847.75H208.315ZM1492.88 5847.75H348.795V5866.73H1492.88M234.892 5847.75H239.954V5860.41H234.892V5847.75ZM348.795 5847.75H343.732V5860.41H348.795V5847.75ZM239.954 5847.75V5743.97V5847.75Z" fill="#F5F5F5"/>
<path d="M1952.29 218.186V213.124H1939.63V218.186M1952.29 218.186H1939.63M1952.29 218.186V1953.3M1939.63 218.186V1953.3M1945.96 1953.3V218.186M1952.29 4355.63V4360.69H1939.63V4355.63M1952.29 4355.63H1939.63M1952.29 4355.63V2620.52M1939.63 4355.63V2620.52M1952.29 2620.52V2615.45H1939.63V2620.52M1952.29 2620.52H1939.63M1945.96 4355.63V2620.52M1952.29 6724.17V6729.23H1939.63V6724.17M1952.29 6724.17H1939.63M1952.29 6724.17V4989.05M1939.63 6724.17V4989.05M1952.29 4989.05V4983.99H1939.63V4989.05M1952.29 4989.05H1939.63M1945.96 6724.17V4989.05M1904.2 6729.86H208.315M160.223 6777.95H1952.29M234.892 5847.75V5866.73H208.315V5847.75H234.892ZM234.892 5847.75H239.954M234.892 5847.75V5860.41H239.954V5847.75M1492.88 5847.75H348.795M348.795 5847.75V5866.73H1492.88M348.795 5847.75H343.732V5860.41H348.795V5847.75ZM239.954 5847.75V5743.97M50.1171 4606.21H160.223V4591.03H65.3041V4375.88H160.223V4360.69H50.1171V4606.21ZM47.5859 2204.14H160.223V2188.95H62.7729V2010.5H160.223V1995.32H47.5859V2204.14Z" stroke="black" stroke-width="5" stroke-miterlimit="10" stroke-linecap="square"/>
</g>
<g id="Vector_3">
<path d="M239.955 5743.97L257.926 5745.49L275.391 5750.17L291.843 5757.77L306.651 5768.27L319.433 5780.93L329.811 5795.86L337.404 5812.31L342.214 5829.78L343.732 5847.75M208.315 4984.62H298.804V4959.31H208.315M412.707 4959.31V4984.62H1680.82V4959.31H412.833M1904.2 4959.31H1889.77V4984.62H1904.2M298.804 4959.31H303.866V4971.97H298.804V4959.31ZM412.707 4959.31H407.644V4971.97H412.707V4959.31ZM303.866 4959.31V4855.53V4959.31ZM303.866 4855.53L321.838 4857.05L339.429 4861.74L355.755 4869.33L370.563 4879.83L383.345 4892.49L393.723 4907.42L401.316 4923.88L406.125 4941.34L407.644 4959.31M1889.77 4959.31H1884.71V4984.62H1889.77V4959.31ZM1680.82 4959.31H1686.01V4984.62H1680.82V4959.31ZM208.315 4386H297.539V4360.69H208.315M411.441 4360.69V4386H1684.24V4360.69H411.441ZM1904.2 4360.69H1893.06V4386H1904.2M297.539 4386H302.601V4373.35H297.539V4386ZM411.441 4386H406.379V4373.35H411.441V4386ZM302.601 4386V4489.78V4386ZM302.601 4489.78L320.572 4488.14L338.164 4483.45L354.49 4475.86L369.297 4465.48L382.079 4452.83L392.457 4437.89L400.051 4421.44L404.86 4403.97L406.379 4386M1684.24 4386H1689.3V4360.69H1684.24V4386ZM1893.06 4386H1888V4360.69H1893.06V4386ZM208.315 3478.58V3497.56H233.627V3478.58H208.315ZM1594.13 3478.58H347.529V3497.56H1594.13" fill="#F5F5F5"/>
<path d="M239.955 5743.97L257.926 5745.49L275.391 5750.17L291.843 5757.77L306.651 5768.27L319.433 5780.93L329.811 5795.86L337.404 5812.31L342.214 5829.78L343.732 5847.75M208.315 4984.62H298.804V4959.31M298.804 4959.31H208.315M298.804 4959.31H303.866M298.804 4959.31V4971.97H303.866V4959.31M412.707 4959.31V4984.62H1680.82M412.707 4959.31H407.644M412.707 4959.31V4971.97H407.644V4959.31M1680.82 4984.62V4959.31M1680.82 4984.62H1686.01V4959.31H1680.82M1680.82 4959.31H412.833M1904.2 4959.31H1889.77M1889.77 4959.31V4984.62M1889.77 4959.31H1884.71V4984.62H1889.77M1889.77 4984.62H1904.2M303.866 4959.31V4855.53L321.838 4857.05L339.429 4861.74L355.755 4869.33L370.563 4879.83L383.345 4892.49L393.723 4907.42L401.316 4923.88L406.125 4941.34L407.644 4959.31M208.315 4386H297.539M297.539 4386V4360.69H208.315M297.539 4386H302.601M297.539 4386V4373.35H302.601V4386M411.441 4386V4360.69H1684.24M411.441 4386H1684.24M411.441 4386H406.379M411.441 4386V4373.35H406.379V4386M1684.24 4386V4360.69M1684.24 4386H1689.3V4360.69H1684.24M1904.2 4360.69H1893.06M1893.06 4360.69V4386M1893.06 4360.69H1888V4386H1893.06M1893.06 4386H1904.2M302.601 4386V4489.78L320.572 4488.14L338.164 4483.45L354.49 4475.86L369.297 4465.48L382.079 4452.83L392.457 4437.89L400.051 4421.44L404.86 4403.97L406.379 4386M1594.13 3478.58H347.529V3497.56H1594.13M208.315 3478.58V3497.56H233.627V3478.58H208.315Z" stroke="black" stroke-width="5" stroke-miterlimit="10" stroke-linecap="square"/>
</g>
<g id="Vector_4">
<path d="M233.627 3497.56H238.689V3484.91H233.627V3497.56ZM347.529 3497.56H342.467V3484.91H347.529V3497.56ZM238.689 3497.56V3601.34V3497.56ZM238.689 3601.34L256.66 3599.82L274.125 3595.01L290.578 3587.42L305.385 3577.04L318.168 3564.39L328.545 3549.45L336.139 3533L340.948 3515.54L342.467 3497.56M208.315 2615.45H298.171V2557.24H208.315M412.074 2557.24V2615.45H1687.15V2557.24H412.074ZM1904.2 2557.24H1895.97V2615.45H1904.2M298.171 2557.24H303.234V2569.89H298.171V2557.24ZM412.074 2557.24H407.011V2569.89H412.074V2557.24ZM303.234 2557.24V2453.46V2557.24Z" fill="#F5F5F5"/>
<path d="M238.689 3497.56H233.627V3484.91H238.689V3497.56ZM238.689 3497.56V3601.34L256.66 3599.82L274.125 3595.01L290.578 3587.42L305.385 3577.04L318.168 3564.39L328.545 3549.45L336.139 3533L340.948 3515.53L342.467 3497.56M342.467 3497.56H347.529V3484.91H342.467V3497.56ZM208.315 2615.45H298.171V2557.24M298.171 2557.24H208.315M298.171 2557.24H303.234M298.171 2557.24V2569.89H303.234V2557.24M412.074 2557.24V2615.45H1687.15V2557.24H412.074ZM412.074 2557.24H407.011V2569.89H412.074V2557.24ZM1904.2 2557.24H1895.97V2615.45H1904.2M303.234 2557.24V2453.46" stroke="black" stroke-width="5" stroke-miterlimit="10" stroke-linecap="square"/>
</g>
<g id="Vector_5">
<path d="M303.234 2453.46L321.205 2455.1L338.796 2459.66L355.123 2467.25L369.93 2477.76L382.712 2490.41L393.09 2505.35L400.683 2521.8L405.493 2539.26L407.011 2557.24M1687.15 2615.45H1692.21V2557.24H1687.15V2615.45ZM1895.97 2615.45H1890.91V2557.24H1895.97V2615.45ZM208.315 1983.93H296.906V1958.62H208.315M410.808 1958.62V1983.93H1690.31V1958.62H410.808ZM1904.2 1958.62H1899.13V1983.93H1904.2M296.906 1983.93H301.968V1971.27H296.906V1983.93ZM410.808 1983.93H405.746V1971.27H410.808V1983.93ZM301.968 1983.93V2087.7V1983.93Z" fill="#F5F5F5"/>
<path d="M303.234 2453.46L321.205 2455.1L338.796 2459.66L355.123 2467.25L369.93 2477.76L382.712 2490.41L393.09 2505.35L400.683 2521.8L405.493 2539.26L407.011 2557.24M208.315 1983.93H296.906M296.906 1983.93V1958.62H208.315M296.906 1983.93H301.968M296.906 1983.93V1971.27H301.968V1983.93M410.808 1983.93V1958.62H1690.31V1983.93H410.808ZM410.808 1983.93H405.746V1971.27H410.808V1983.93ZM1904.2 1958.62H1899.13V1983.93H1904.2M301.968 1983.93V2087.7M1687.15 2615.45H1692.21V2557.24H1687.15V2615.45ZM1895.97 2615.45H1890.91V2557.24H1895.97V2615.45Z" stroke="black" stroke-width="5" stroke-miterlimit="10" stroke-linecap="square"/>
</g>
<g id="Vector_6">
<path d="M301.968 2087.7L319.939 2086.19L337.531 2081.38L353.857 2073.78L368.664 2063.41L381.447 2050.75L391.824 2035.82L399.418 2019.36L404.227 2001.9L405.746 1983.93M1690.31 1983.93H1695.37V1958.61H1690.31V1983.93ZM1899.13 1983.93H1894.07V1958.61H1899.13V1983.93ZM208.315 1076.5V1095.49H234.259V1076.5H208.315ZM1492.88 1076.5H348.162V1095.49H1492.88M234.259 1095.49H239.322V1082.83H234.259V1095.49ZM348.162 1095.49H343.099V1082.83H348.162V1095.49ZM239.322 1095.49V1199.27V1095.49Z" fill="#F5F5F5"/>
<path d="M301.968 2087.7L319.939 2086.19L337.531 2081.38L353.857 2073.78L368.664 2063.41L381.447 2050.75L391.824 2035.82L399.418 2019.36L404.227 2001.9L405.746 1983.93M234.259 1095.49H208.315V1076.5H234.259V1095.49ZM234.259 1095.49H239.322M234.259 1095.49V1082.83H239.322V1095.49M1492.88 1076.5H348.162V1095.49M348.162 1095.49H1492.88M348.162 1095.49H343.099V1082.83H348.162V1095.49ZM239.322 1095.49V1199.27M1690.31 1983.93H1695.37V1958.62H1690.31V1983.93ZM1899.13 1983.93H1894.07V1958.62H1899.13V1983.93Z" stroke="black" stroke-width="5" stroke-miterlimit="10" stroke-linecap="square"/>
</g>
<g id="Vector_7">
<path d="M239.322 1199.27L257.293 1197.62L274.758 1193.06L291.211 1185.47L306.018 1174.97L318.8 1162.31L329.178 1147.38L336.772 1130.92L341.581 1113.46L343.1 1095.49M1511.86 213.377H1492.88V282.984H1511.86V213.377ZM1511.86 1076.5V396.887H1492.88V1076.5M1511.86 282.984V288.047H1499.21V282.984H1511.86ZM1511.86 396.887V391.825H1499.21V396.887H1511.86ZM1511.86 288.047H1615.64H1511.86ZM1615.64 288.047L1614.12 306.018L1609.44 323.609L1601.85 339.936L1591.34 354.743L1578.69 367.525L1563.75 377.903L1547.3 385.497L1529.84 390.179L1511.86 391.825M1492.88 1095.49V1239.13H1511.86V1076.5M1511.86 1353.03H1492.88V1958.62H1511.86V1353.03ZM1511.86 1239.13V1244.19H1499.21V1239.13H1511.86ZM1511.86 1353.03V1347.97H1499.21V1353.03H1511.86ZM1511.86 1244.19H1615.64H1511.86ZM1615.64 1244.19L1614.12 1262.17L1609.44 1279.76L1601.85 1296.08L1591.34 1310.89L1578.69 1323.67L1563.75 1334.05L1547.3 1341.64L1529.84 1346.33L1511.86 1347.97M1676.39 1983.93H1657.41V2328.8H1676.39V1983.93ZM1676.39 2442.7H1657.41V2557.24H1676.39V2442.7ZM1657.41 2442.7V2437.64H1670.06V2442.7H1657.41ZM1657.41 2328.8V2333.86H1670.06V2328.8H1657.41ZM1657.41 2437.64H1553.63H1657.41ZM1553.63 2437.64L1555.27 2419.67L1559.96 2402.08L1567.55 2385.75L1577.93 2370.94L1590.58 2358.16L1605.52 2347.78L1621.97 2340.19L1639.44 2335.38L1657.41 2333.86M1613.11 2615.45H1594.13V3222.3H1613.11V2615.45ZM1613.11 3478.58V3336.2H1594.13V3478.58M1613.11 3222.3V3227.36H1600.46V3222.3H1613.11ZM1613.11 3336.2V3331.14H1600.46V3336.2H1613.11ZM1613.11 3227.36H1716.89H1613.11ZM1716.89 3227.36L1715.24 3245.33L1710.56 3262.92L1702.97 3279.25L1692.59 3294.06L1679.93 3306.84L1665 3317.22L1648.55 3324.81L1631.08 3329.49L1613.11 3331.14M1594.13 3497.56V3641.21H1613.11V3478.58M1613.11 3755.11H1594.13V4360.69H1613.11V3755.11ZM1613.11 3641.21V3646.27H1600.46V3641.21H1613.11ZM1613.11 3755.11V3750.05H1600.46V3755.11H1613.11ZM1613.11 3646.27H1716.89H1613.11ZM1716.89 3646.27L1715.24 3664.24L1710.56 3681.83L1702.97 3698.16L1692.59 3712.97L1679.93 3725.75L1665 3736.13L1648.55 3743.72L1631.08 3748.53L1613.11 3750.05M1676.39 4386H1657.41V4730.24H1676.39V4386ZM1676.39 4844.14H1657.41V4959.31H1676.39V4844.14ZM1657.41 4844.14V4839.08H1670.06V4844.14H1657.41ZM1657.41 4730.24V4735.3H1670.06V4730.24H1657.41ZM1657.41 4839.08H1553.63H1657.41ZM1553.63 4839.08L1555.27 4821.11L1559.96 4803.52L1567.55 4787.19L1577.93 4772.38L1590.58 4759.6L1605.52 4749.22L1621.97 4741.63L1639.44 4736.82L1657.41 4735.3M1511.86 4984.62H1492.88V5591.47H1511.86V4984.62ZM1511.86 5847.75V5705.37H1492.88V5847.75M1511.86 5705.37V5700.31H1499.21V5705.37H1511.86ZM1511.86 5591.47V5596.53H1499.21V5591.47H1511.86ZM1511.86 5700.31H1615.64H1511.86Z" fill="#F5F5F5"/>
<path d="M239.322 1199.27L257.293 1197.62L274.758 1193.06L291.211 1185.47L306.018 1174.97L318.8 1162.31L329.178 1147.38L336.772 1130.92L341.581 1113.46L343.1 1095.49M1511.86 282.984H1492.88V213.377H1511.86V282.984ZM1511.86 282.984V288.047M1511.86 282.984H1499.21V288.047H1511.86M1511.86 396.887V1076.5V1239.13M1511.86 396.887H1492.88V1076.5M1511.86 396.887V391.825M1511.86 396.887H1499.21V391.825H1511.86M1511.86 288.047H1615.64L1614.12 306.018L1609.44 323.609L1601.85 339.936L1591.34 354.743L1578.69 367.525L1563.75 377.903L1547.3 385.497L1529.84 390.179L1511.86 391.825M1492.88 1095.49V1239.13H1511.86M1511.86 1239.13V1244.19M1511.86 1239.13H1499.21V1244.19H1511.86M1511.86 1353.03H1492.88V1958.62H1511.86V1353.03ZM1511.86 1353.03V1347.97M1511.86 1353.03H1499.21V1347.97H1511.86M1511.86 1244.19H1615.64L1614.12 1262.17L1609.44 1279.76L1601.85 1296.08L1591.34 1310.89L1578.69 1323.67L1563.75 1334.05L1547.3 1341.64L1529.84 1346.33L1511.86 1347.97M1657.41 2328.8V1983.93H1676.39V2328.8H1657.41ZM1657.41 2328.8V2333.86M1657.41 2328.8H1670.06V2333.86H1657.41M1657.41 2442.7H1676.39V2557.24H1657.41V2442.7ZM1657.41 2442.7V2437.64M1657.41 2442.7H1670.06V2437.64H1657.41M1657.41 2437.64H1553.63L1555.27 2419.67L1559.96 2402.08L1567.55 2385.75L1577.93 2370.94L1590.58 2358.16L1605.52 2347.78L1621.97 2340.19L1639.44 2335.38L1657.41 2333.86M1613.11 3222.3H1594.13V2615.45H1613.11V3222.3ZM1613.11 3222.3V3227.36M1613.11 3222.3H1600.46V3227.36H1613.11M1613.11 3336.2V3478.58V3641.21M1613.11 3336.2H1594.13V3478.58M1613.11 3336.2V3331.14M1613.11 3336.2H1600.46V3331.14H1613.11M1613.11 3227.36H1716.89L1715.24 3245.33L1710.56 3262.92L1702.97 3279.25L1692.59 3294.06L1679.93 3306.84L1665 3317.22L1648.55 3324.81L1631.08 3329.49L1613.11 3331.14M1594.13 3497.56V3641.21H1613.11M1613.11 3641.21V3646.27M1613.11 3641.21H1600.46V3646.27H1613.11M1613.11 3755.11H1594.13V4360.69H1613.11V3755.11ZM1613.11 3755.11V3750.05M1613.11 3755.11H1600.46V3750.05H1613.11M1613.11 3646.27H1716.89L1715.24 3664.24L1710.56 3681.83L1702.97 3698.16L1692.59 3712.97L1679.93 3725.75L1665 3736.13L1648.55 3743.72L1631.08 3748.53L1613.11 3750.05M1657.41 4730.24V4386H1676.39V4730.24H1657.41ZM1657.41 4730.24V4735.3M1657.41 4730.24H1670.06V4735.3H1657.41M1657.41 4844.14H1676.39V4959.31H1657.41V4844.14ZM1657.41 4844.14V4839.08M1657.41 4844.14H1670.06V4839.08H1657.41M1657.41 4839.08H1553.63L1555.27 4821.11L1559.96 4803.52L1567.55 4787.19L1577.93 4772.38L1590.58 4759.6L1605.52 4749.22L1621.97 4741.63L1639.44 4736.82L1657.41 4735.3M1511.86 5591.47H1492.88V4984.62H1511.86V5591.47ZM1511.86 5591.47V5596.53H1499.21V5591.47H1511.86ZM1511.86 5847.75V5705.37M1511.86 5705.37H1492.88V5847.75M1511.86 5705.37V5700.31M1511.86 5705.37H1499.21V5700.31H1511.86M1511.86 5700.31H1615.64" stroke="black" stroke-width="5" stroke-miterlimit="10" stroke-linecap="square"/>
</g>
<g id="Vector_8">
<path d="M1615.64 5700.31L1614.12 5682.34L1609.44 5664.75L1601.85 5648.42L1591.34 5633.61L1578.69 5620.83L1563.75 5610.45L1547.3 5602.86L1529.84 5598.18L1511.86 5596.53M1492.88 5866.73V6509.9H1511.86V5847.75M1511.86 6623.81H1492.88V6729.86H1511.86V6623.81ZM1511.86 6623.81V6618.74H1499.21V6623.81H1511.86ZM1511.86 6509.9V6514.97H1499.21V6509.9H1511.86ZM1511.86 6618.74H1615.64H1511.86ZM1615.64 6618.74L1614.12 6600.65L1609.44 6583.18L1601.85 6566.73L1591.34 6551.92L1578.69 6539.26L1563.75 6528.76L1547.3 6521.17L1529.84 6516.48L1511.86 6514.97M575.334 4580.9H1451.12H575.334ZM1470.1 4561.92H556.35H1470.1ZM1451.12 4580.9V4775.8V4580.9ZM1470.1 4794.79V4561.92V4794.79ZM1451.12 4775.8H575.334H1451.12ZM556.35 4794.79H1470.1H556.35ZM575.334 4775.8V4580.9V4775.8ZM556.35 4561.92V4794.79V4561.92ZM1141.05 2178.83H1451.12H1141.05ZM1470.1 2159.84H556.35H1470.1ZM575.334 2178.83H1134.72H575.334ZM1451.12 2178.83V2373.73V2178.83ZM1470.1 2392.71V2159.84V2392.71ZM1134.72 2373.73H575.334H1134.72ZM556.35 2392.71H1470.1H556.35ZM1451.12 2373.73H1141.05H1451.12ZM575.334 2373.73V2178.83V2373.73ZM556.35 2159.84V2392.71V2159.84ZM1141.05 2373.73V2178.83V2373.73ZM1134.72 2178.83V2373.73V2178.83ZM1904.2 2205.4V2186.42H1828.26V2205.4H1904.2ZM1812.57 1398.22L1811.18 1389.99L1806.87 1382.78L1800.54 1377.46L1792.7 1374.55H1784.34L1776.5 1377.46L1770.17 1382.78L1765.87 1389.99L1764.47 1398.22L1765.87 1406.44L1770.17 1413.66L1776.5 1419.1L1784.34 1421.88H1792.7L1800.54 1418.97L1806.87 1413.66L1811.18 1406.44L1812.57 1398.22ZM1812.57 773.397L1811.18 765.171L1806.87 757.957L1800.54 752.515L1792.7 749.731H1784.34L1776.5 752.515L1770.17 757.957L1765.87 765.171L1764.47 773.397L1765.87 781.623L1770.17 788.837L1776.5 794.153L1784.34 797.064H1792.7L1800.54 794.153L1806.87 788.837L1811.18 781.623L1812.57 773.397ZM347.782 5545.91L346.39 5537.68L342.087 5530.47L335.759 5525.03L327.912 5522.24H319.56L311.713 5525.15L305.385 5530.47L301.082 5537.68L299.69 5545.91L301.082 5554.13L305.385 5561.35L311.713 5566.66L319.56 5569.58H327.912L335.759 5566.66L342.087 5561.35L346.39 5554.13L347.782 5545.91ZM1812.57 5544.52L1811.18 5536.29L1806.87 5529.08L1800.54 5523.63L1792.7 5520.85H1784.34L1776.5 5523.63L1770.17 5529.08L1765.87 5536.29L1764.47 5544.52L1765.87 5552.74L1770.17 5559.96L1776.5 5565.4L1784.34 5568.18H1792.7L1800.54 5565.27L1806.87 5559.96L1811.18 5552.74L1812.57 5544.52ZM1812.57 6168.32L1811.18 6160.1L1806.87 6152.88L1800.54 6147.44L1792.7 6144.66H1784.34L1776.5 6147.44L1770.17 6152.88L1765.87 6160.1L1764.47 6168.32L1765.87 6176.55L1770.17 6183.76L1776.5 6189.2L1784.34 6191.99H1792.7L1800.54 6189.2L1806.87 6183.76L1811.18 6176.55L1812.57 6168.32ZM347.782 6169.71L346.39 6161.49L342.087 6154.27L335.759 6148.83L327.912 6146.05H319.56L311.713 6148.83L305.385 6154.27L301.082 6161.49L299.69 6169.71L301.082 6177.94L305.385 6185.15L311.713 6190.6L319.56 6193.38H327.912L335.759 6190.6L342.087 6185.15L346.39 6177.94L347.782 6169.71ZM1811.18 3801.43L1809.78 3793.2L1805.48 3785.99L1799.15 3780.55L1791.31 3777.76H1782.95L1775.11 3780.55L1768.78 3785.99L1764.47 3793.2L1763.08 3801.43L1764.6 3809.66L1768.78 3816.87L1775.11 3822.19L1782.95 3825.1H1791.31L1799.15 3822.19L1805.48 3816.87L1809.78 3809.66L1811.18 3801.43ZM349.174 3801.43L347.656 3793.2L343.606 3785.99L337.151 3780.55L329.305 3777.76H320.952L313.105 3780.55L306.777 3785.99L302.601 3793.2L301.082 3801.43L302.601 3809.66L306.651 3816.87L313.105 3822.19L320.952 3825.1H329.305L337.151 3822.19L343.479 3816.87L347.782 3809.66L349.174 3801.43ZM1812.57 3175.22L1811.18 3166.99L1806.87 3159.78L1800.54 3154.34L1792.7 3151.55H1784.34L1776.5 3154.46L1770.17 3159.78L1765.87 3166.99L1764.47 3175.22L1765.87 3183.45L1770.17 3190.66L1776.5 3195.98L1784.34 3198.89H1792.7L1800.54 3195.98L1806.87 3190.66L1811.18 3183.45L1812.57 3175.22ZM349.174 3176.49L347.656 3168.26L343.606 3161.05L337.151 3155.6L329.305 3152.82H320.952L313.105 3155.6L306.777 3161.05L302.601 3168.26L301.082 3176.49L302.601 3184.71L306.651 3191.93L313.105 3197.37L320.952 3200.15H329.305L337.151 3197.24L343.479 3191.93L347.782 3184.71L349.174 3176.49ZM349.174 1398.22L347.656 1389.99L343.606 1382.78L337.151 1377.46L329.305 1374.55H320.952L313.105 1377.46L306.777 1382.78L302.601 1389.99L301.082 1398.22L302.601 1406.44L306.651 1413.66L313.105 1419.1L320.952 1421.88H329.305L337.151 1418.97L343.479 1413.66L347.782 1406.44L349.174 1398.22ZM347.782 774.79L346.39 766.563L342.087 759.349L335.759 753.907L327.912 751.123H319.56L311.713 754.034L305.385 759.349L301.082 766.563L299.69 774.79L301.082 783.016L305.385 790.23L311.713 795.545L319.56 798.456H327.912L335.759 795.545L342.087 790.23L346.39 783.016L347.782 774.79Z" fill="#F5F5F5"/>
<path d="M1615.64 5700.31L1614.12 5682.34L1609.44 5664.75L1601.85 5648.42L1591.34 5633.61L1578.69 5620.83L1563.75 5610.45L1547.3 5602.86L1529.84 5598.18L1511.86 5596.53M1492.88 5866.73V6509.9H1511.86M1511.86 6509.9V5847.75M1511.86 6509.9V6514.97M1511.86 6509.9H1499.21V6514.97H1511.86M1511.86 6623.81H1492.88V6729.86H1511.86V6623.81ZM1511.86 6623.81V6618.74M1511.86 6623.81H1499.21V6618.74H1511.86M1511.86 6618.74H1615.64L1614.12 6600.64L1609.44 6583.18L1601.85 6566.73L1591.34 6551.92L1578.69 6539.26L1563.75 6528.76L1547.3 6521.17L1529.84 6516.48L1511.86 6514.97M575.334 4580.9H1451.12V4775.8H575.334V4580.9ZM1470.1 4561.92H556.35V4794.79H1470.1V4561.92ZM1141.05 2178.83H1451.12V2373.73H1141.05V2178.83ZM1470.1 2159.84H556.35V2392.71H1470.1V2159.84ZM575.334 2178.83H1134.72V2373.73H575.334V2178.83ZM1904.2 2205.4V2186.42H1828.26V2205.4H1904.2ZM1812.57 1398.22L1811.18 1389.99L1806.87 1382.78L1800.54 1377.46L1792.7 1374.55H1784.34L1776.5 1377.46L1770.17 1382.78L1765.87 1389.99L1764.47 1398.22L1765.87 1406.44L1770.17 1413.66L1776.5 1419.1L1784.34 1421.88H1792.7L1800.54 1418.97L1806.87 1413.66L1811.18 1406.44L1812.57 1398.22ZM1812.57 773.397L1811.18 765.171L1806.87 757.957L1800.54 752.515L1792.7 749.731H1784.34L1776.5 752.515L1770.17 757.957L1765.87 765.171L1764.47 773.397L1765.87 781.623L1770.17 788.837L1776.5 794.153L1784.34 797.064H1792.7L1800.54 794.153L1806.87 788.837L1811.18 781.623L1812.57 773.397ZM347.782 5545.91L346.39 5537.68L342.087 5530.47L335.759 5525.03L327.912 5522.24H319.56L311.713 5525.15L305.385 5530.47L301.082 5537.68L299.69 5545.91L301.082 5554.13L305.385 5561.35L311.713 5566.66L319.56 5569.58H327.912L335.759 5566.66L342.087 5561.35L346.39 5554.13L347.782 5545.91ZM1812.57 5544.52L1811.18 5536.29L1806.87 5529.08L1800.54 5523.63L1792.7 5520.85H1784.34L1776.5 5523.63L1770.17 5529.08L1765.87 5536.29L1764.47 5544.52L1765.87 5552.74L1770.17 5559.96L1776.5 5565.4L1784.34 5568.18H1792.7L1800.54 5565.27L1806.87 5559.96L1811.18 5552.74L1812.57 5544.52ZM1812.57 6168.32L1811.18 6160.1L1806.87 6152.88L1800.54 6147.44L1792.7 6144.66H1784.34L1776.5 6147.44L1770.17 6152.88L1765.87 6160.1L1764.47 6168.32L1765.87 6176.55L1770.17 6183.76L1776.5 6189.2L1784.34 6191.99H1792.7L1800.54 6189.2L1806.87 6183.76L1811.18 6176.55L1812.57 6168.32ZM347.782 6169.71L346.39 6161.49L342.087 6154.27L335.759 6148.83L327.912 6146.05H319.56L311.713 6148.83L305.385 6154.27L301.082 6161.49L299.69 6169.71L301.082 6177.94L305.385 6185.15L311.713 6190.6L319.56 6193.38H327.912L335.759 6190.6L342.087 6185.15L346.39 6177.94L347.782 6169.71ZM1811.18 3801.43L1809.78 3793.2L1805.48 3785.99L1799.15 3780.55L1791.31 3777.76H1782.95L1775.11 3780.55L1768.78 3785.99L1764.47 3793.2L1763.08 3801.43L1764.6 3809.66L1768.78 3816.87L1775.11 3822.19L1782.95 3825.1H1791.31L1799.15 3822.19L1805.48 3816.87L1809.78 3809.66L1811.18 3801.43ZM349.174 3801.43L347.656 3793.2L343.606 3785.99L337.151 3780.55L329.305 3777.76H320.952L313.105 3780.55L306.777 3785.99L302.601 3793.2L301.082 3801.43L302.601 3809.66L306.651 3816.87L313.105 3822.19L320.952 3825.1H329.305L337.151 3822.19L343.479 3816.87L347.782 3809.66L349.174 3801.43ZM1812.57 3175.22L1811.18 3166.99L1806.87 3159.78L1800.54 3154.34L1792.7 3151.55H1784.34L1776.5 3154.46L1770.17 3159.78L1765.87 3166.99L1764.47 3175.22L1765.87 3183.45L1770.17 3190.66L1776.5 3195.98L1784.34 3198.89H1792.7L1800.54 3195.98L1806.87 3190.66L1811.18 3183.45L1812.57 3175.22ZM349.174 3176.49L347.656 3168.26L343.606 3161.05L337.151 3155.6L329.305 3152.82H320.952L313.105 3155.6L306.777 3161.05L302.601 3168.26L301.082 3176.49L302.601 3184.71L306.651 3191.93L313.105 3197.37L320.952 3200.15H329.305L337.151 3197.24L343.479 3191.93L347.782 3184.71L349.174 3176.49ZM349.174 1398.22L347.656 1389.99L343.606 1382.78L337.151 1377.46L329.305 1374.55H320.952L313.105 1377.46L306.777 1382.78L302.601 1389.99L301.082 1398.22L302.601 1406.44L306.651 1413.66L313.105 1419.1L320.952 1421.88H329.305L337.151 1418.97L343.479 1413.66L347.782 1406.44L349.174 1398.22ZM347.782 774.79L346.39 766.563L342.087 759.349L335.759 753.907L327.912 751.123H319.56L311.713 754.034L305.385 759.349L301.082 766.563L299.69 774.79L301.082 783.016L305.385 790.23L311.713 795.545L319.56 798.456H327.912L335.759 795.545L342.087 790.23L346.39 783.016L347.782 774.79Z" stroke="black" stroke-width="5" stroke-miterlimit="10" stroke-linecap="square"/>
</g>
</g>
<g id="workspacesBackGroup">
<path id="wsB10693" d="M1594.13 2615.45H208.315V3478.58H1594.13V2615.45Z" fill="#F5F5F5" stroke="black" stroke-width="5" stroke-miterlimit="10" stroke-linecap="square"/>
<path id="wsB10694" d="M1594.13 3497.56H208.315V4360.69H1594.13V3497.56Z" fill="#F5F5F5" stroke="black" stroke-width="5" stroke-miterlimit="10" stroke-linecap="square"/>
<path id="wsB10690" d="M1492.88 213.377H208.315V1076.5H1492.88V213.377Z" fill="#F5F5F5" stroke="black" stroke-width="5" stroke-miterlimit="10" stroke-linecap="square"/>
<path id="wsB10691" d="M1492.88 1095.49H208.315V1958.62H1492.88V1095.49Z" fill="#F5F5F5" stroke="black" stroke-width="5" stroke-miterlimit="10" stroke-linecap="square"/>
<path id="wsB10696" d="M1492.88 4984.62H208.315V5847.75H1492.88V4984.62Z" fill="#F5F5F5" stroke="black" stroke-width="5" stroke-miterlimit="10" stroke-linecap="square"/>
<path id="wsB10697" d="M1492.88 5866.73H208.315V6729.86H1492.88V5866.73Z" fill="#F5F5F5" stroke="black" stroke-width="5" stroke-miterlimit="10" stroke-linecap="square"/>
<path id="wsB10699" d="M1511.86 6729.86H1904.2V4984.62H1511.86V6729.86Z" fill="#F5F5F5" stroke="black" stroke-width="5" stroke-miterlimit="10" stroke-linecap="square"/>
<path id="wsB10700" d="M1904.2 213.377H1511.86V1958.62H1904.2V213.377Z" fill="#F5F5F5" stroke="black" stroke-width="5" stroke-miterlimit="10" stroke-linecap="square"/>
<path id="wsB10692" d="M1657.41 1983.93H208.315V2557.24H1657.41V1983.93Z" fill="#F5F5F5" stroke="black" stroke-width="5" stroke-miterlimit="10" stroke-linecap="square"/>
<path id="wsB10695" d="M1657.41 4386H208.315V4959.31H1657.41V4386Z" fill="#F5F5F5" stroke="black" stroke-width="5" stroke-miterlimit="10" stroke-linecap="square"/>
<path id="wsB10688" d="M1904.2 2615.45H1613.11V4360.69H1904.2V2615.45Z" fill="#F5F5F5" stroke="black" stroke-width="5" stroke-miterlimit="10" stroke-linecap="square"/>
<path id="wsB10687" d="M1904.2 4959.31V4386H1676.39V4959.31H1904.2Z" fill="#F5F5F5" stroke="black" stroke-width="5" stroke-miterlimit="10" stroke-linecap="square"/>
<path id="wsB10689" d="M1904.2 2557.24V2205.4H1828.26V2186.42H1904.2V1983.93H1676.39V2557.24H1904.2Z" fill="#F5F5F5" stroke="black" stroke-width="5" stroke-miterlimit="10" stroke-linecap="square"/>
<path id="wsB10698" d="M1141.05 2373.73H1451.12V2178.83H1141.05V2373.73Z" fill="#F5F5F5" stroke="black" stroke-width="5" stroke-miterlimit="10" stroke-linecap="square"/>
</g>
<g id="workspacesFrontGroup">
<path id="M4_RToker" d="M1594.13 2615.45H208.315V3478.58H1594.13V2615.45Z" fill="#F5F5F5" stroke="black" stroke-width="5" stroke-miterlimit="10" stroke-linecap="square"/>
<path id="M4_RKloker" d="M1594.13 3497.56H208.315V4360.69H1594.13V3497.56Z" fill="#F5F5F5" stroke="black" stroke-width="5" stroke-miterlimit="10" stroke-linecap="square"/>
<path id="M4_RProsit" d="M1492.88 213.377H208.315V1076.5H1492.88V213.377Z" fill="#F5F5F5" stroke="black" stroke-width="5" stroke-miterlimit="10" stroke-linecap="square"/>
<path id="M4_RGlader" d="M1492.88 1095.49H208.315V1958.62H1492.88V1095.49Z" fill="#F5F5F5" stroke="black" stroke-width="5" stroke-miterlimit="10" stroke-linecap="square"/>
<path id="M4_RTrötter" d="M1492.88 4984.62H208.315V5847.75H1492.88V4984.62Z" fill="#F5F5F5" stroke="black" stroke-width="5" stroke-miterlimit="10" stroke-linecap="square"/>
<path id="Trötter" d="M635.83 5387.09V5379.27H690.375V5387.09H667.506V5452H658.699V5387.09H635.83ZM697.167 5452V5397.45H705.263V5405.69H705.831C706.826 5402.99 708.625 5400.8 711.229 5399.12C713.833 5397.44 716.769 5396.6 720.036 5396.6C720.651 5396.6 721.421 5396.61 722.344 5396.64C723.267 5396.66 723.966 5396.7 724.439 5396.74V5405.27C724.155 5405.2 723.504 5405.09 722.486 5404.95C721.492 5404.78 720.438 5404.7 719.326 5404.7C716.674 5404.7 714.307 5405.26 712.223 5406.37C710.164 5407.46 708.53 5408.97 707.323 5410.91C706.139 5412.83 705.547 5415.02 705.547 5417.48V5452H697.167ZM754.873 5453.14C749.948 5453.14 745.628 5451.96 741.911 5449.62C738.218 5447.28 735.329 5444 733.246 5439.78C731.186 5435.57 730.157 5430.65 730.157 5425.01C730.157 5419.33 731.186 5414.37 733.246 5410.13C735.329 5405.89 738.218 5402.6 741.911 5400.26C745.628 5397.92 749.948 5396.74 754.873 5396.74C759.797 5396.74 764.105 5397.92 767.799 5400.26C771.516 5402.6 774.404 5405.89 776.463 5410.13C778.547 5414.37 779.588 5419.33 779.588 5425.01C779.588 5430.65 778.547 5435.57 776.463 5439.78C774.404 5444 771.516 5447.28 767.799 5449.62C764.105 5451.96 759.797 5453.14 754.873 5453.14ZM754.873 5445.61C758.613 5445.61 761.691 5444.65 764.105 5442.73C766.52 5440.81 768.308 5438.29 769.468 5435.17C770.628 5432.04 771.208 5428.66 771.208 5425.01C771.208 5421.37 770.628 5417.97 769.468 5414.82C768.308 5411.67 766.52 5409.13 764.105 5407.18C761.691 5405.24 758.613 5404.27 754.873 5404.27C751.132 5404.27 748.054 5405.24 745.64 5407.18C743.225 5409.13 741.437 5411.67 740.277 5414.82C739.117 5417.97 738.537 5421.37 738.537 5425.01C738.537 5428.66 739.117 5432.04 740.277 5435.17C741.437 5438.29 743.225 5440.81 745.64 5442.73C748.054 5444.65 751.132 5445.61 754.873 5445.61ZM744.645 5388.36C743.154 5388.36 741.828 5387.8 740.668 5386.66C739.532 5385.5 738.963 5384.17 738.963 5382.68C738.963 5381.05 739.532 5379.7 740.668 5378.63C741.828 5377.54 743.154 5377 744.645 5377C746.279 5377 747.628 5377.54 748.694 5378.63C749.783 5379.7 750.327 5381.05 750.327 5382.68C750.327 5384.17 749.783 5385.5 748.694 5386.66C747.628 5387.8 746.279 5388.36 744.645 5388.36ZM765.1 5388.36C763.608 5388.36 762.283 5387.8 761.123 5386.66C759.986 5385.5 759.418 5384.17 759.418 5382.68C759.418 5381.05 759.986 5379.7 761.123 5378.63C762.283 5377.54 763.608 5377 765.1 5377C766.733 5377 768.083 5377.54 769.148 5378.63C770.237 5379.7 770.782 5381.05 770.782 5382.68C770.782 5384.17 770.237 5385.5 769.148 5386.66C768.083 5387.8 766.733 5388.36 765.1 5388.36ZM816.103 5397.45V5404.56H787.836V5397.45H816.103ZM796.075 5384.39H804.455V5436.38C804.455 5438.74 804.799 5440.52 805.485 5441.7C806.195 5442.86 807.095 5443.64 808.184 5444.05C809.297 5444.42 810.469 5444.61 811.7 5444.61C812.623 5444.61 813.38 5444.57 813.972 5444.47C814.564 5444.35 815.038 5444.26 815.393 5444.19L817.097 5451.72C816.529 5451.93 815.736 5452.14 814.718 5452.36C813.7 5452.59 812.41 5452.71 810.847 5452.71C808.48 5452.71 806.16 5452.2 803.887 5451.18C801.638 5450.17 799.768 5448.61 798.276 5446.53C796.808 5444.45 796.075 5441.82 796.075 5438.65V5384.39ZM852.431 5397.45V5404.56H824.164V5397.45H852.431ZM832.403 5384.39H840.783V5436.38C840.783 5438.74 841.127 5440.52 841.813 5441.7C842.523 5442.86 843.423 5443.64 844.512 5444.05C845.625 5444.42 846.797 5444.61 848.028 5444.61C848.951 5444.61 849.709 5444.57 850.3 5444.47C850.892 5444.35 851.366 5444.26 851.721 5444.19L853.425 5451.72C852.857 5451.93 852.064 5452.14 851.046 5452.36C850.028 5452.59 848.738 5452.71 847.175 5452.71C844.808 5452.71 842.488 5452.2 840.215 5451.18C837.966 5450.17 836.096 5448.61 834.604 5446.53C833.137 5444.45 832.403 5441.82 832.403 5438.65V5384.39ZM887.321 5453.14C882.065 5453.14 877.532 5451.98 873.72 5449.66C869.932 5447.31 867.009 5444.05 864.949 5439.86C862.913 5435.64 861.895 5430.74 861.895 5425.15C861.895 5419.57 862.913 5414.64 864.949 5410.38C867.009 5406.1 869.873 5402.76 873.543 5400.37C877.236 5397.95 881.545 5396.74 886.469 5396.74C889.31 5396.74 892.115 5397.22 894.885 5398.16C897.655 5399.11 900.176 5400.65 902.449 5402.78C904.722 5404.89 906.533 5407.68 907.882 5411.16C909.232 5414.64 909.906 5418.93 909.906 5424.02V5427.57H867.861V5420.32H901.384C901.384 5417.25 900.768 5414.5 899.537 5412.09C898.33 5409.67 896.601 5407.76 894.352 5406.37C892.127 5404.97 889.499 5404.27 886.469 5404.27C883.131 5404.27 880.242 5405.1 877.804 5406.76C875.389 5408.39 873.531 5410.52 872.229 5413.15C870.927 5415.78 870.276 5418.6 870.276 5421.6V5426.43C870.276 5430.55 870.986 5434.04 872.406 5436.91C873.85 5439.75 875.851 5441.91 878.408 5443.41C880.964 5444.87 883.936 5445.61 887.321 5445.61C889.523 5445.61 891.511 5445.3 893.287 5444.68C895.086 5444.05 896.637 5443.1 897.939 5441.84C899.241 5440.57 900.247 5438.98 900.957 5437.09L909.054 5439.36C908.202 5442.1 906.769 5444.52 904.757 5446.6C902.745 5448.66 900.259 5450.27 897.3 5451.43C894.34 5452.57 891.014 5453.14 887.321 5453.14ZM922.655 5452V5397.45H930.751V5405.69H931.32C932.314 5402.99 934.113 5400.8 936.717 5399.12C939.321 5397.44 942.257 5396.6 945.524 5396.6C946.14 5396.6 946.909 5396.61 947.832 5396.64C948.756 5396.66 949.454 5396.7 949.928 5396.74V5405.27C949.643 5405.2 948.992 5405.09 947.974 5404.95C946.98 5404.78 945.927 5404.7 944.814 5404.7C942.162 5404.7 939.795 5405.26 937.712 5406.37C935.652 5407.46 934.018 5408.97 932.811 5410.91C931.627 5412.83 931.036 5415.02 931.036 5417.48V5452H922.655Z" fill="black"/>
<path id="Kloker" d="M663.807 3929V3856.27H672.614V3892.35H673.466L706.136 3856.27H717.642L687.102 3889.09L717.642 3929H706.989L681.705 3895.19L672.614 3905.42V3929H663.807ZM736.286 3856.27V3929H727.905V3856.27H736.286ZM773.794 3930.14C768.87 3930.14 764.55 3928.96 760.833 3926.62C757.14 3924.28 754.251 3921 752.168 3916.78C750.108 3912.57 749.078 3907.65 749.078 3902.01C749.078 3896.33 750.108 3891.37 752.168 3887.13C754.251 3882.89 757.14 3879.6 760.833 3877.26C764.55 3874.92 768.87 3873.74 773.794 3873.74C778.719 3873.74 783.027 3874.92 786.721 3877.26C790.437 3879.6 793.326 3882.89 795.385 3887.13C797.469 3891.37 798.51 3896.33 798.51 3902.01C798.51 3907.65 797.469 3912.57 795.385 3916.78C793.326 3921 790.437 3924.28 786.721 3926.62C783.027 3928.96 778.719 3930.14 773.794 3930.14ZM773.794 3922.61C777.535 3922.61 780.613 3921.65 783.027 3919.73C785.442 3917.81 787.23 3915.29 788.39 3912.17C789.55 3909.04 790.13 3905.66 790.13 3902.01C790.13 3898.37 789.55 3894.97 788.39 3891.82C787.23 3888.67 785.442 3886.13 783.027 3884.18C780.613 3882.24 777.535 3881.27 773.794 3881.27C770.054 3881.27 766.976 3882.24 764.561 3884.18C762.147 3886.13 760.359 3888.67 759.199 3891.82C758.039 3894.97 757.459 3898.37 757.459 3902.01C757.459 3905.66 758.039 3909.04 759.199 3912.17C760.359 3915.29 762.147 3917.81 764.561 3919.73C766.976 3921.65 770.054 3922.61 773.794 3922.61ZM819.116 3909.11L818.974 3898.74H820.678L844.542 3874.45H854.911L829.485 3900.16H828.775L819.116 3909.11ZM811.303 3929V3856.27H819.684V3929H811.303ZM845.962 3929L824.656 3902.01L830.621 3896.19L856.616 3929H845.962ZM886.321 3930.14C881.065 3930.14 876.532 3928.98 872.72 3926.66C868.932 3924.31 866.009 3921.05 863.949 3916.86C861.913 3912.64 860.895 3907.74 860.895 3902.15C860.895 3896.57 861.913 3891.64 863.949 3887.38C866.009 3883.1 868.873 3879.76 872.543 3877.37C876.236 3874.95 880.545 3873.74 885.469 3873.74C888.31 3873.74 891.115 3874.22 893.885 3875.16C896.655 3876.11 899.176 3877.65 901.449 3879.78C903.722 3881.89 905.533 3884.68 906.882 3888.16C908.232 3891.64 908.906 3895.93 908.906 3901.02V3904.57H866.861V3897.32H900.384C900.384 3894.25 899.768 3891.5 898.537 3889.09C897.33 3886.67 895.601 3884.76 893.352 3883.37C891.127 3881.97 888.499 3881.27 885.469 3881.27C882.131 3881.27 879.242 3882.1 876.804 3883.76C874.389 3885.39 872.531 3887.52 871.229 3890.15C869.927 3892.78 869.276 3895.6 869.276 3898.6V3903.43C869.276 3907.55 869.986 3911.04 871.406 3913.91C872.85 3916.75 874.851 3918.91 877.408 3920.41C879.964 3921.87 882.936 3922.61 886.321 3922.61C888.523 3922.61 890.511 3922.3 892.287 3921.68C894.086 3921.05 895.637 3920.1 896.939 3918.84C898.241 3917.57 899.247 3915.98 899.957 3914.09L908.054 3916.36C907.202 3919.1 905.769 3921.52 903.757 3923.6C901.745 3925.66 899.259 3927.27 896.3 3928.43C893.34 3929.57 890.014 3930.14 886.321 3930.14ZM921.655 3929V3874.45H929.751V3882.69H930.32C931.314 3879.99 933.113 3877.8 935.717 3876.12C938.321 3874.44 941.257 3873.6 944.524 3873.6C945.14 3873.6 945.909 3873.61 946.832 3873.64C947.756 3873.66 948.454 3873.7 948.928 3873.74V3882.27C948.643 3882.2 947.992 3882.09 946.974 3881.95C945.98 3881.78 944.927 3881.7 943.814 3881.7C941.162 3881.7 938.795 3882.26 936.712 3883.37C934.652 3884.46 933.018 3885.97 931.811 3887.91C930.627 3889.83 930.036 3892.02 930.036 3894.48V3929H921.655Z" fill="black"/>
<path id="M4_RButter" d="M1492.88 5866.73H208.315V6729.86H1492.88V5866.73Z" fill="#F5F5F5" stroke="black" stroke-width="5" stroke-miterlimit="10" stroke-linecap="square"/>
<path id="Butter" d="M670.807 6395V6322.27H696.233C701.299 6322.27 705.478 6323.15 708.768 6324.9C712.059 6326.63 714.509 6328.96 716.119 6331.9C717.729 6334.81 718.534 6338.04 718.534 6341.59C718.534 6344.72 717.978 6347.3 716.865 6349.33C715.776 6351.37 714.332 6352.98 712.533 6354.16C710.757 6355.35 708.828 6356.22 706.744 6356.79V6357.5C708.97 6357.64 711.207 6358.42 713.456 6359.84C715.705 6361.26 717.587 6363.3 719.102 6365.95C720.617 6368.6 721.375 6371.85 721.375 6375.68C721.375 6379.33 720.546 6382.61 718.889 6385.52C717.232 6388.43 714.616 6390.74 711.041 6392.44C707.466 6394.15 702.814 6395 697.085 6395H670.807ZM679.614 6387.19H697.085C702.838 6387.19 706.922 6386.07 709.337 6383.85C711.775 6381.6 712.994 6378.88 712.994 6375.68C712.994 6373.22 712.367 6370.95 711.112 6368.86C709.857 6366.76 708.07 6365.08 705.75 6363.82C703.43 6362.54 700.684 6361.9 697.511 6361.9H679.614V6387.19ZM679.614 6354.23H695.949C698.6 6354.23 700.991 6353.71 703.122 6352.67C705.277 6351.63 706.981 6350.16 708.236 6348.27C709.514 6346.37 710.153 6344.15 710.153 6341.59C710.153 6338.39 709.041 6335.68 706.815 6333.46C704.59 6331.21 701.063 6330.09 696.233 6330.09H679.614V6354.23ZM769.085 6372.7V6340.45H777.465V6395H769.085V6385.77H768.516C767.238 6388.54 765.249 6390.89 762.55 6392.83C759.852 6394.75 756.442 6395.71 752.323 6395.71C748.914 6395.71 745.884 6394.96 743.232 6393.47C740.581 6391.96 738.497 6389.69 736.982 6386.65C735.467 6383.6 734.71 6379.75 734.71 6375.11V6340.45H743.09V6374.55C743.09 6378.52 744.203 6381.7 746.428 6384.06C748.677 6386.43 751.542 6387.61 755.022 6387.61C757.105 6387.61 759.224 6387.08 761.379 6386.02C763.557 6384.95 765.379 6383.32 766.847 6381.12C768.339 6378.91 769.085 6376.11 769.085 6372.7ZM816.537 6340.45V6347.56H788.27V6340.45H816.537ZM796.508 6327.39H804.889V6379.38C804.889 6381.74 805.232 6383.52 805.919 6384.7C806.629 6385.86 807.529 6386.64 808.618 6387.05C809.73 6387.42 810.902 6387.61 812.133 6387.61C813.056 6387.61 813.814 6387.57 814.406 6387.47C814.998 6387.35 815.471 6387.26 815.826 6387.19L817.531 6394.72C816.963 6394.93 816.17 6395.14 815.152 6395.36C814.134 6395.59 812.843 6395.71 811.281 6395.71C808.913 6395.71 806.593 6395.2 804.321 6394.18C802.072 6393.17 800.201 6391.61 798.71 6389.53C797.242 6387.45 796.508 6384.82 796.508 6381.65V6327.39ZM852.865 6340.45V6347.56H824.598V6340.45H852.865ZM832.836 6327.39H841.217V6379.38C841.217 6381.74 841.56 6383.52 842.247 6384.7C842.957 6385.86 843.857 6386.64 844.946 6387.05C846.058 6387.42 847.23 6387.61 848.461 6387.61C849.385 6387.61 850.142 6387.57 850.734 6387.47C851.326 6387.35 851.799 6387.26 852.154 6387.19L853.859 6394.72C853.291 6394.93 852.498 6395.14 851.48 6395.36C850.462 6395.59 849.172 6395.71 847.609 6395.71C845.242 6395.71 842.922 6395.2 840.649 6394.18C838.4 6393.17 836.529 6391.61 835.038 6389.53C833.57 6387.45 832.836 6384.82 832.836 6381.65V6327.39ZM887.755 6396.14C882.499 6396.14 877.965 6394.98 874.154 6392.66C870.366 6390.31 867.442 6387.05 865.382 6382.86C863.346 6378.64 862.328 6373.74 862.328 6368.15C862.328 6362.57 863.346 6357.64 865.382 6353.38C867.442 6349.1 870.307 6345.76 873.976 6343.37C877.669 6340.95 881.978 6339.74 886.902 6339.74C889.743 6339.74 892.549 6340.22 895.319 6341.16C898.088 6342.11 900.61 6343.65 902.882 6345.78C905.155 6347.89 906.966 6350.68 908.316 6354.16C909.665 6357.64 910.34 6361.93 910.34 6367.02V6370.57H868.294V6363.32H901.817C901.817 6360.25 901.202 6357.5 899.971 6355.09C898.763 6352.67 897.035 6350.76 894.786 6349.37C892.56 6347.97 889.933 6347.27 886.902 6347.27C883.564 6347.27 880.676 6348.1 878.238 6349.76C875.823 6351.39 873.964 6353.52 872.662 6356.15C871.36 6358.78 870.709 6361.6 870.709 6364.6V6369.43C870.709 6373.55 871.419 6377.04 872.84 6379.91C874.284 6382.75 876.284 6384.91 878.841 6386.41C881.398 6387.87 884.369 6388.61 887.755 6388.61C889.956 6388.61 891.945 6388.3 893.721 6387.68C895.52 6387.05 897.07 6386.1 898.373 6384.84C899.675 6383.57 900.681 6381.98 901.391 6380.09L909.488 6382.36C908.635 6385.1 907.203 6387.52 905.191 6389.6C903.178 6391.66 900.693 6393.27 897.733 6394.43C894.774 6395.57 891.448 6396.14 887.755 6396.14ZM923.088 6395V6340.45H931.185V6348.69H931.753C932.748 6345.99 934.547 6343.8 937.151 6342.12C939.755 6340.44 942.691 6339.6 945.958 6339.6C946.573 6339.6 947.343 6339.61 948.266 6339.64C949.189 6339.66 949.888 6339.7 950.361 6339.74V6348.27C950.077 6348.2 949.426 6348.09 948.408 6347.95C947.414 6347.78 946.36 6347.7 945.248 6347.7C942.596 6347.7 940.229 6348.26 938.145 6349.37C936.086 6350.46 934.452 6351.97 933.245 6353.91C932.061 6355.83 931.469 6358.02 931.469 6360.48V6395H923.088Z" fill="black"/>
<path id="wsF10699" d="M1511.86 6729.86H1904.2V4984.62H1511.86V6729.86Z" fill="#F5F5F5" stroke="black" stroke-width="5" stroke-miterlimit="10" stroke-linecap="square"/>
<path id="wsF10700" d="M1904.2 213.377H1511.86V1958.62H1904.2V213.377Z" fill="#F5F5F5" stroke="black" stroke-width="5" stroke-miterlimit="10" stroke-linecap="square"/>
<path id="wsF10692" d="M1657.41 1983.93H208.315V2557.24H1657.41V1983.93Z" fill="#F5F5F5" stroke="black" stroke-width="5" stroke-miterlimit="10" stroke-linecap="square"/>
<path id="wsF10695" d="M1657.41 4386H208.315V4959.31H1657.41V4386Z" fill="#F5F5F5" stroke="black" stroke-width="5" stroke-miterlimit="10" stroke-linecap="square"/>
<path id="wsF10688" d="M1904.2 2615.45H1613.11V4360.69H1904.2V2615.45Z" fill="#F5F5F5" stroke="black" stroke-width="5" stroke-miterlimit="10" stroke-linecap="square"/>
<path id="Glader" d="M680.523 1587C679.741 1584.61 678.712 1582.47 677.433 1580.57C676.179 1578.65 674.675 1577.02 672.923 1575.67C671.195 1574.32 669.23 1573.29 667.028 1572.58C664.827 1571.87 662.412 1571.52 659.784 1571.52C655.475 1571.52 651.557 1572.63 648.03 1574.86C644.502 1577.08 641.697 1580.36 639.614 1584.69C637.53 1589.02 636.489 1594.34 636.489 1600.64C636.489 1606.93 637.542 1612.25 639.649 1616.58C641.756 1620.91 644.609 1624.19 648.207 1626.42C651.806 1628.64 655.854 1629.76 660.352 1629.76C664.519 1629.76 668.188 1628.87 671.361 1627.09C674.557 1625.29 677.043 1622.76 678.818 1619.49C680.617 1616.2 681.517 1612.33 681.517 1607.88L684.216 1608.45H662.341V1600.64H690.04V1608.45C690.04 1614.44 688.761 1619.65 686.205 1624.07C683.671 1628.5 680.168 1631.93 675.693 1634.37C671.242 1636.79 666.129 1637.99 660.352 1637.99C653.913 1637.99 648.255 1636.48 643.378 1633.45C638.525 1630.42 634.737 1626.11 632.014 1620.52C629.315 1614.94 627.966 1608.31 627.966 1600.64C627.966 1594.88 628.735 1589.71 630.274 1585.12C631.837 1580.5 634.038 1576.57 636.879 1573.33C639.72 1570.08 643.082 1567.6 646.964 1565.87C650.847 1564.14 655.12 1563.28 659.784 1563.28C663.619 1563.28 667.194 1563.86 670.509 1565.02C673.847 1566.15 676.818 1567.78 679.422 1569.88C682.05 1571.97 684.24 1574.46 685.991 1577.38C687.743 1580.26 688.951 1583.47 689.614 1587H680.523ZM712.368 1564.27V1637H703.987V1564.27H712.368ZM743.768 1638.28C740.312 1638.28 737.175 1637.63 734.358 1636.33C731.541 1635 729.304 1633.09 727.646 1630.61C725.989 1628.1 725.161 1625.07 725.161 1621.52C725.161 1618.39 725.776 1615.86 727.007 1613.92C728.238 1611.95 729.884 1610.41 731.943 1609.3C734.003 1608.19 736.276 1607.36 738.761 1606.82C741.271 1606.25 743.792 1605.8 746.325 1605.47C749.64 1605.04 752.327 1604.72 754.386 1604.51C756.47 1604.27 757.985 1603.88 758.932 1603.34C759.902 1602.79 760.388 1601.84 760.388 1600.49V1600.21C760.388 1596.71 759.429 1593.98 757.511 1592.04C755.617 1590.1 752.741 1589.13 748.882 1589.13C744.881 1589.13 741.744 1590.01 739.472 1591.76C737.199 1593.51 735.601 1595.38 734.678 1597.37L726.723 1594.53C728.143 1591.21 730.037 1588.63 732.405 1586.79C734.796 1584.92 737.4 1583.61 740.217 1582.88C743.058 1582.12 745.852 1581.74 748.598 1581.74C750.35 1581.74 752.362 1581.96 754.635 1582.38C756.931 1582.79 759.145 1583.63 761.276 1584.9C763.43 1586.18 765.217 1588.11 766.638 1590.69C768.058 1593.27 768.768 1596.73 768.768 1601.06V1637H760.388V1629.61H759.962C759.393 1630.8 758.446 1632.06 757.121 1633.41C755.795 1634.76 754.031 1635.91 751.83 1636.86C749.628 1637.8 746.941 1638.28 743.768 1638.28ZM745.047 1630.75C748.361 1630.75 751.155 1630.1 753.428 1628.8C755.724 1627.49 757.452 1625.81 758.612 1623.75C759.796 1621.69 760.388 1619.53 760.388 1617.26V1609.59C760.033 1610.01 759.251 1610.4 758.044 1610.76C756.86 1611.09 755.487 1611.38 753.925 1611.64C752.386 1611.88 750.883 1612.09 749.415 1612.28C747.971 1612.45 746.799 1612.59 745.899 1612.71C743.721 1612.99 741.685 1613.46 739.791 1614.1C737.921 1614.71 736.406 1615.65 735.246 1616.9C734.109 1618.13 733.541 1619.81 733.541 1621.94C733.541 1624.86 734.618 1627.06 736.773 1628.55C738.951 1630.02 741.709 1630.75 745.047 1630.75ZM804.662 1638.14C800.116 1638.14 796.103 1636.99 792.623 1634.69C789.143 1632.37 786.421 1629.1 784.456 1624.89C782.491 1620.65 781.508 1615.65 781.508 1609.87C781.508 1604.14 782.491 1599.17 784.456 1594.95C786.421 1590.74 789.155 1587.49 792.659 1585.19C796.163 1582.89 800.211 1581.74 804.804 1581.74C808.355 1581.74 811.16 1582.34 813.22 1583.52C815.303 1584.68 816.889 1586.01 817.978 1587.5C819.091 1588.96 819.955 1590.17 820.571 1591.12H821.281V1564.27H829.662V1637H821.565V1628.62H820.571C819.955 1629.61 819.079 1630.87 817.943 1632.38C816.806 1633.87 815.185 1635.21 813.078 1636.4C810.971 1637.56 808.165 1638.14 804.662 1638.14ZM805.798 1630.61C809.16 1630.61 812.001 1629.73 814.321 1627.98C816.641 1626.2 818.404 1623.75 819.612 1620.63C820.819 1617.48 821.423 1613.85 821.423 1609.73C821.423 1605.66 820.831 1602.09 819.647 1599.04C818.464 1595.96 816.712 1593.57 814.392 1591.87C812.072 1590.14 809.207 1589.27 805.798 1589.27C802.247 1589.27 799.288 1590.18 796.92 1592.01C794.576 1593.81 792.813 1596.26 791.629 1599.36C790.469 1602.44 789.889 1605.89 789.889 1609.73C789.889 1613.61 790.481 1617.14 791.664 1620.31C792.872 1623.46 794.647 1625.97 796.991 1627.84C799.359 1629.68 802.294 1630.61 805.798 1630.61ZM869.044 1638.14C863.788 1638.14 859.254 1636.98 855.443 1634.66C851.655 1632.31 848.731 1629.05 846.672 1624.86C844.636 1620.64 843.618 1615.74 843.618 1610.15C843.618 1604.57 844.636 1599.64 846.672 1595.38C848.731 1591.1 851.596 1587.76 855.265 1585.37C858.958 1582.95 863.267 1581.74 868.191 1581.74C871.032 1581.74 873.838 1582.22 876.608 1583.16C879.377 1584.11 881.899 1585.65 884.172 1587.78C886.444 1589.89 888.255 1592.68 889.605 1596.16C890.954 1599.64 891.629 1603.93 891.629 1609.02V1612.57H849.583V1605.32H883.106C883.106 1602.25 882.491 1599.5 881.26 1597.09C880.052 1594.67 878.324 1592.76 876.075 1591.37C873.85 1589.97 871.222 1589.27 868.191 1589.27C864.853 1589.27 861.965 1590.1 859.527 1591.76C857.112 1593.39 855.253 1595.52 853.951 1598.15C852.649 1600.78 851.998 1603.6 851.998 1606.6V1611.43C851.998 1615.55 852.708 1619.04 854.129 1621.91C855.573 1624.75 857.574 1626.91 860.13 1628.41C862.687 1629.87 865.658 1630.61 869.044 1630.61C871.245 1630.61 873.234 1630.3 875.01 1629.68C876.809 1629.05 878.359 1628.1 879.662 1626.84C880.964 1625.57 881.97 1623.98 882.68 1622.09L890.777 1624.36C889.924 1627.1 888.492 1629.52 886.48 1631.6C884.467 1633.66 881.982 1635.27 879.022 1636.43C876.063 1637.57 872.737 1638.14 869.044 1638.14ZM904.377 1637V1582.45H912.474V1590.69H913.042C914.037 1587.99 915.836 1585.8 918.44 1584.12C921.044 1582.44 923.98 1581.6 927.247 1581.6C927.862 1581.6 928.632 1581.61 929.555 1581.64C930.478 1581.66 931.177 1581.7 931.65 1581.74V1590.27C931.366 1590.2 930.715 1590.09 929.697 1589.95C928.703 1589.78 927.649 1589.7 926.537 1589.7C923.885 1589.7 921.518 1590.26 919.434 1591.37C917.375 1592.46 915.741 1593.97 914.534 1595.91C913.35 1597.83 912.758 1600.02 912.758 1602.48V1637H904.377Z" fill="black"/>
<path id="Prosit" d="M670.807 742V669.273H695.381C701.086 669.273 705.75 670.303 709.372 672.362C713.018 674.398 715.717 677.156 717.469 680.636C719.221 684.116 720.097 687.999 720.097 692.284C720.097 696.569 719.221 700.464 717.469 703.967C715.741 707.471 713.065 710.265 709.443 712.348C705.821 714.408 701.181 715.438 695.523 715.438H677.909V707.625H695.239C699.145 707.625 702.282 706.95 704.649 705.601C707.017 704.251 708.733 702.429 709.798 700.132C710.887 697.812 711.432 695.196 711.432 692.284C711.432 689.372 710.887 686.768 709.798 684.472C708.733 682.175 707.005 680.376 704.614 679.074C702.223 677.748 699.05 677.085 695.097 677.085H679.614V742H670.807ZM733.147 742V687.455H741.244V695.693H741.812C742.806 692.994 744.605 690.804 747.21 689.124C749.814 687.443 752.749 686.602 756.016 686.602C756.632 686.602 757.401 686.614 758.325 686.638C759.248 686.661 759.946 686.697 760.42 686.744V695.267C760.136 695.196 759.485 695.089 758.467 694.947C757.472 694.782 756.419 694.699 755.306 694.699C752.655 694.699 750.287 695.255 748.204 696.368C746.144 697.457 744.511 698.972 743.303 700.913C742.12 702.831 741.528 705.021 741.528 707.483V742H733.147ZM790.853 743.136C785.929 743.136 781.608 741.964 777.891 739.621C774.198 737.277 771.31 733.998 769.227 729.784C767.167 725.57 766.137 720.646 766.137 715.011C766.137 709.33 767.167 704.37 769.227 700.132C771.31 695.894 774.198 692.604 777.891 690.26C781.608 687.916 785.929 686.744 790.853 686.744C795.777 686.744 800.086 687.916 803.779 690.26C807.496 692.604 810.384 695.894 812.444 700.132C814.527 704.37 815.569 709.33 815.569 715.011C815.569 720.646 814.527 725.57 812.444 729.784C810.384 733.998 807.496 737.277 803.779 739.621C800.086 741.964 795.777 743.136 790.853 743.136ZM790.853 735.608C794.594 735.608 797.671 734.649 800.086 732.732C802.501 730.814 804.288 728.293 805.448 725.168C806.608 722.043 807.188 718.657 807.188 715.011C807.188 711.366 806.608 707.968 805.448 704.82C804.288 701.671 802.501 699.126 800.086 697.185C797.671 695.243 794.594 694.273 790.853 694.273C787.112 694.273 784.035 695.243 781.62 697.185C779.205 699.126 777.418 701.671 776.258 704.82C775.098 707.968 774.518 711.366 774.518 715.011C774.518 718.657 775.098 722.043 776.258 725.168C777.418 728.293 779.205 730.814 781.62 732.732C784.035 734.649 787.112 735.608 790.853 735.608ZM866.998 699.67L859.47 701.801C858.996 700.546 858.298 699.327 857.375 698.143C856.475 696.936 855.244 695.942 853.681 695.161C852.119 694.379 850.118 693.989 847.68 693.989C844.342 693.989 841.56 694.758 839.335 696.297C837.133 697.812 836.032 699.741 836.032 702.085C836.032 704.169 836.79 705.814 838.305 707.021C839.82 708.229 842.188 709.235 845.407 710.04L853.504 712.028C858.381 713.212 862.015 715.023 864.406 717.462C866.797 719.876 867.993 722.99 867.993 726.801C867.993 729.926 867.093 732.72 865.294 735.182C863.518 737.644 861.032 739.585 857.836 741.006C854.64 742.426 850.923 743.136 846.686 743.136C841.122 743.136 836.518 741.929 832.872 739.514C829.226 737.099 826.918 733.572 825.947 728.932L833.902 726.943C834.659 729.879 836.092 732.08 838.199 733.548C840.329 735.016 843.111 735.75 846.544 735.75C850.45 735.75 853.551 734.921 855.848 733.264C858.168 731.583 859.328 729.571 859.328 727.227C859.328 725.333 858.665 723.747 857.339 722.469C856.013 721.167 853.977 720.196 851.231 719.557L842.14 717.426C837.145 716.242 833.475 714.408 831.132 711.922C828.812 709.412 827.652 706.276 827.652 702.511C827.652 699.434 828.516 696.711 830.244 694.344C831.996 691.976 834.375 690.118 837.382 688.768C840.412 687.419 843.845 686.744 847.68 686.744C853.078 686.744 857.315 687.928 860.393 690.295C863.494 692.663 865.696 695.788 866.998 699.67ZM880.608 742V687.455H888.989V742H880.608ZM884.869 678.364C883.236 678.364 881.827 677.807 880.643 676.695C879.483 675.582 878.903 674.244 878.903 672.682C878.903 671.119 879.483 669.782 880.643 668.669C881.827 667.556 883.236 667 884.869 667C886.503 667 887.9 667.556 889.06 668.669C890.243 669.782 890.835 671.119 890.835 672.682C890.835 674.244 890.243 675.582 889.06 676.695C887.9 677.807 886.503 678.364 884.869 678.364ZM928.06 687.455V694.557H899.793V687.455H928.06ZM908.032 674.386H916.412V726.375C916.412 728.742 916.756 730.518 917.442 731.702C918.152 732.862 919.052 733.643 920.141 734.045C921.254 734.424 922.426 734.614 923.657 734.614C924.58 734.614 925.337 734.566 925.929 734.472C926.521 734.353 926.995 734.259 927.35 734.188L929.054 741.716C928.486 741.929 927.693 742.142 926.675 742.355C925.657 742.592 924.367 742.71 922.804 742.71C920.437 742.71 918.117 742.201 915.844 741.183C913.595 740.165 911.725 738.615 910.233 736.531C908.766 734.448 908.032 731.82 908.032 728.648V674.386Z" fill="black"/>
<path id="wsF10687" d="M1904.2 4959.31V4386H1676.39V4959.31H1904.2Z" fill="#F5F5F5" stroke="black" stroke-width="5" stroke-miterlimit="10" stroke-linecap="square"/>
<rect id="M4_T01" x="229" y="2112" width="1" height="1" fill="#D9D9D9"/>
<path id="Toker" d="M691.83 3079.09V3071.27H746.375V3079.09H723.506V3144H714.699V3079.09H691.83ZM773.08 3145.14C768.155 3145.14 763.835 3143.96 760.118 3141.62C756.425 3139.28 753.536 3136 751.453 3131.78C749.393 3127.57 748.364 3122.65 748.364 3117.01C748.364 3111.33 749.393 3106.37 751.453 3102.13C753.536 3097.89 756.425 3094.6 760.118 3092.26C763.835 3089.92 768.155 3088.74 773.08 3088.74C778.004 3088.74 782.313 3089.92 786.006 3092.26C789.723 3094.6 792.611 3097.89 794.67 3102.13C796.754 3106.37 797.795 3111.33 797.795 3117.01C797.795 3122.65 796.754 3127.57 794.67 3131.78C792.611 3136 789.723 3139.28 786.006 3141.62C782.313 3143.96 778.004 3145.14 773.08 3145.14ZM773.08 3137.61C776.82 3137.61 779.898 3136.65 782.312 3134.73C784.727 3132.81 786.515 3130.29 787.675 3127.17C788.835 3124.04 789.415 3120.66 789.415 3117.01C789.415 3113.37 788.835 3109.97 787.675 3106.82C786.515 3103.67 784.727 3101.13 782.312 3099.18C779.898 3097.24 776.82 3096.27 773.08 3096.27C769.339 3096.27 766.261 3097.24 763.847 3099.18C761.432 3101.13 759.644 3103.67 758.484 3106.82C757.324 3109.97 756.744 3113.37 756.744 3117.01C756.744 3120.66 757.324 3124.04 758.484 3127.17C759.644 3130.29 761.432 3132.81 763.847 3134.73C766.261 3136.65 769.339 3137.61 773.08 3137.61ZM818.401 3124.11L818.259 3113.74H819.963L843.827 3089.45H854.196L828.77 3115.16H828.06L818.401 3124.11ZM810.588 3144V3071.27H818.969V3144H810.588ZM845.248 3144L823.941 3117.01L829.907 3111.19L855.901 3144H845.248ZM885.606 3145.14C880.35 3145.14 875.817 3143.98 872.005 3141.66C868.217 3139.31 865.294 3136.05 863.234 3131.86C861.198 3127.64 860.18 3122.74 860.18 3117.15C860.18 3111.57 861.198 3106.64 863.234 3102.38C865.294 3098.1 868.158 3094.76 871.828 3092.37C875.521 3089.95 879.83 3088.74 884.754 3088.74C887.595 3088.74 890.4 3089.22 893.17 3090.16C895.94 3091.11 898.461 3092.65 900.734 3094.78C903.007 3096.89 904.818 3099.68 906.167 3103.16C907.517 3106.64 908.191 3110.93 908.191 3116.02V3119.57H866.146V3112.32H899.669C899.669 3109.25 899.053 3106.5 897.822 3104.09C896.615 3101.67 894.886 3099.76 892.637 3098.37C890.412 3096.97 887.784 3096.27 884.754 3096.27C881.416 3096.27 878.528 3097.1 876.089 3098.76C873.674 3100.39 871.816 3102.52 870.514 3105.15C869.212 3107.78 868.561 3110.6 868.561 3113.6V3118.43C868.561 3122.55 869.271 3126.04 870.691 3128.91C872.136 3131.75 874.136 3133.91 876.693 3135.41C879.25 3136.87 882.221 3137.61 885.606 3137.61C887.808 3137.61 889.797 3137.3 891.572 3136.68C893.371 3136.05 894.922 3135.1 896.224 3133.84C897.526 3132.57 898.532 3130.98 899.243 3129.09L907.339 3131.36C906.487 3134.1 905.055 3136.52 903.042 3138.6C901.03 3140.66 898.544 3142.27 895.585 3143.43C892.626 3144.57 889.299 3145.14 885.606 3145.14ZM920.94 3144V3089.45H929.037V3097.69H929.605C930.599 3094.99 932.398 3092.8 935.002 3091.12C937.607 3089.44 940.542 3088.6 943.809 3088.6C944.425 3088.6 945.194 3088.61 946.118 3088.64C947.041 3088.66 947.739 3088.7 948.213 3088.74V3097.27C947.929 3097.2 947.278 3097.09 946.26 3096.95C945.265 3096.78 944.212 3096.7 943.099 3096.7C940.448 3096.7 938.08 3097.26 935.997 3098.37C933.937 3099.46 932.304 3100.97 931.096 3102.91C929.913 3104.83 929.321 3107.02 929.321 3109.48V3144H920.94Z" fill="black"/>
<path id="wsF10689" d="M1904.2 2557.24V2205.4H1828.26V2186.42H1904.2V1983.93H1676.39V2557.24H1904.2Z" fill="#F5F5F5" stroke="black" stroke-width="5" stroke-miterlimit="10" stroke-linecap="square"/>
<rect id="M4_Glader" x="345" y="1800" width="1" height="1" fill="#D9D9D9"/>
<rect id="M4_01" x="345" y="2112" width="1" height="1" fill="#D9D9D9"/>
<rect id="M4_02" x="345" y="2408" width="1" height="1" fill="#D9D9D9"/>
<rect id="M4_Toker" x="345" y="2741" width="1" height="1" fill="#D9D9D9"/>
<rect id="M4_03" x="1753" y="2408" width="1" height="1" fill="#D9D9D9"/>
<rect id="M4_06" x="1753" y="3271" width="1" height="1" fill="#D9D9D9"/>
<rect id="M4_07" x="1753" y="3693" width="1" height="1" fill="#D9D9D9"/>
<rect id="M4_08" x="1754" y="4773" width="1" height="1" fill="#D9D9D9"/>
<rect id="M4_11" x="1754" y="5676" width="1" height="1" fill="#D9D9D9"/>
<rect id="M4_12" x="1754" y="6563" width="1" height="1" fill="#D9D9D9"/>
<rect id="M4_Butter" x="1351" y="6563" width="1" height="1" fill="#D9D9D9"/>
<rect id="M4_TrötterTEMP" x="1334" y="5661" width="1" height="1" fill="#D9D9D9"/>
<rect id="M4_09" x="356" y="4773" width="1" height="1" fill="#D9D9D9"/>
<rect id="M4_Trötter" x="356" y="5157" width="1" height="1" fill="#D9D9D9"/>
<rect id="M4_TrötterTEMP_2" x="355" y="6563" width="1" height="1" fill="#D9D9D9"/>
<rect id="M4_10" x="356" y="4518" width="1" height="1" fill="#D9D9D9"/>
<rect id="M4_Kloker" x="356" y="4242" width="1" height="1" fill="#D9D9D9"/>
<rect id="M4_T02" x="229" y="4518" width="1" height="1" fill="#D9D9D9"/>
<rect id="M4_KlokerTEMP" x="1499" y="3693" width="1" height="1" fill="#D9D9D9"/>
<rect id="M4_TokerTEMP" x="1462" y="3271" width="1" height="1" fill="#D9D9D9"/>
<rect id="M4_04" x="1753" y="1300" width="1" height="1" fill="#D9D9D9"/>
<rect id="M4_GladerTEMP" x="1400" y="1300" width="1" height="1" fill="#D9D9D9"/>
<rect id="M4_05" x="1753" y="359" width="1" height="1" fill="#D9D9D9"/>
<rect id="M4_Prosit" x="1339" y="359" width="1" height="1" fill="#D9D9D9"/>
<rect id="M4_PrositTEMP" x="299" y="359" width="1" height="1" fill="#D9D9D9"/>
<path id="wsF10698" d="M1141.05 2373.73H1451.12V2178.83H1141.05V2373.73Z" fill="#F5F5F5" stroke="black" stroke-width="5" stroke-miterlimit="10" stroke-linecap="square"/>
</g>
<g id="trappa 1">
<g id="Frame 5">
<g id="Clip path group">
<mask id="mask0_18_46420" style="mask-type:luminance" maskUnits="userSpaceOnUse" x="81" y="4441" width="114" height="110">
<g id="clip0_2_215">
<path id="Vector_9" d="M194.12 4441H81.0747V4550.3H194.12V4441Z" fill="white"/>
</g>
</mask>
<g mask="url(#mask0_18_46420)">
<g id="Frame 2">
<path id="Line 1" d="M103.28 4530.06V4517.92" stroke="#0DE47E" stroke-width="4"/>
<path id="Line 2" d="M107.317 4530.06V4517.92" stroke="#0DE47E" stroke-width="4"/>
<path id="Line 3" d="M103.28 4517.92V4509.82" stroke="#0DE47E" stroke-width="4"/>
<path id="Line 4" d="M107.317 4517.92V4509.82" stroke="#0DE47E" stroke-width="4"/>
<path id="Line 5" d="M103.28 4509.82V4501.72" stroke="#0DE47E" stroke-width="4"/>
<path id="Line 6" d="M107.317 4509.82V4501.72" stroke="#0DE47E" stroke-width="4"/>
<path id="Line 7" d="M107.317 4501.72V4493.63" stroke="#0DE47E" stroke-width="4"/>
<path id="Line 9" d="M103.28 4501.72V4493.63" stroke="#0DE47E" stroke-width="4"/>
<path id="Line 8" d="M103.28 4509.82V4501.72" stroke="#0DE47E" stroke-width="4"/>
<path id="Line 10" d="M109.336 4495.65H137.597" stroke="#0DE47E" stroke-width="4"/>
<path id="Line 12" d="M109.336 4499.7H137.597" stroke="#0DE47E" stroke-width="4"/>
<path id="Line 11" d="M107.317 4501.72V4493.63" stroke="#0DE47E" stroke-width="4"/>
<path id="Line 13" d="M131.541 4493.63V4465.29" stroke="#0DE47E" stroke-width="4"/>
<path id="Line 14" d="M135.579 4493.63V4465.29" stroke="#0DE47E" stroke-width="4"/>
<path id="Line 15" d="M137.597 4467.31H165.858" stroke="#0DE47E" stroke-width="4"/>
<path id="Line 16" d="M137.597 4471.36H165.858" stroke="#0DE47E" stroke-width="4"/>
<path id="Line 19" d="M163.84 4465.29V4436.95" stroke="#0DE47E" stroke-width="4"/>
<path id="Line 20" d="M159.802 4465.29V4436.95" stroke="#0DE47E" stroke-width="4"/>
</g>
</g>
</g>
<path id="Line 17" d="M101.261 4523.99H73" stroke="#0DE47E" stroke-width="4"/>
<path id="Line 18" d="M101.261 4528.04H73" stroke="#0DE47E" stroke-width="4"/>
<path id="Line 21" d="M165.858 4443.02H194.12" stroke="#0DE47E" stroke-width="4"/>
<path id="Line 22" d="M165.858 4447.07H194.12" stroke="#0DE47E" stroke-width="4"/>
</g>
</g>
<g id="trappa 1_2">
<g id="Frame 5_2">
<g id="Clip path group_2">
<mask id="mask1_18_46420" style="mask-type:luminance" maskUnits="userSpaceOnUse" x="81" y="2043" width="114" height="110">
<g id="clip0_2_215_2">
<path id="Vector_10" d="M194.12 2043H81.0747V2152.3H194.12V2043Z" fill="white"/>
</g>
</mask>
<g mask="url(#mask1_18_46420)">
<g id="Frame 2_2">
<path id="Line 1_2" d="M103.28 2132.06V2119.92" stroke="#0DE47E" stroke-width="4"/>
<path id="Line 2_2" d="M107.317 2132.06V2119.92" stroke="#0DE47E" stroke-width="4"/>
<path id="Line 3_2" d="M103.28 2119.92V2111.82" stroke="#0DE47E" stroke-width="4"/>
<path id="Line 4_2" d="M107.317 2119.92V2111.82" stroke="#0DE47E" stroke-width="4"/>
<path id="Line 5_2" d="M103.28 2111.82V2103.72" stroke="#0DE47E" stroke-width="4"/>
<path id="Line 6_2" d="M107.317 2111.82V2103.72" stroke="#0DE47E" stroke-width="4"/>
<path id="Line 7_2" d="M107.317 2103.72V2095.63" stroke="#0DE47E" stroke-width="4"/>
<path id="Line 9_2" d="M103.28 2103.72V2095.63" stroke="#0DE47E" stroke-width="4"/>
<path id="Line 8_2" d="M103.28 2111.82V2103.72" stroke="#0DE47E" stroke-width="4"/>
<path id="Line 10_2" d="M109.336 2097.65H137.597" stroke="#0DE47E" stroke-width="4"/>
<path id="Line 12_2" d="M109.336 2101.7H137.597" stroke="#0DE47E" stroke-width="4"/>
<path id="Line 11_2" d="M107.317 2103.72V2095.63" stroke="#0DE47E" stroke-width="4"/>
<path id="Line 13_2" d="M131.541 2095.63V2067.29" stroke="#0DE47E" stroke-width="4"/>
<path id="Line 14_2" d="M135.579 2095.63V2067.29" stroke="#0DE47E" stroke-width="4"/>
<path id="Line 15_2" d="M137.597 2069.31H165.858" stroke="#0DE47E" stroke-width="4"/>
<path id="Line 16_2" d="M137.597 2073.36H165.858" stroke="#0DE47E" stroke-width="4"/>
<path id="Line 19_2" d="M163.84 2067.29V2038.95" stroke="#0DE47E" stroke-width="4"/>
<path id="Line 20_2" d="M159.802 2067.29V2038.95" stroke="#0DE47E" stroke-width="4"/>
</g>
</g>
</g>
<path id="Line 17_2" d="M101.261 2125.99H73" stroke="#0DE47E" stroke-width="4"/>
<path id="Line 18_2" d="M101.261 2130.04H73" stroke="#0DE47E" stroke-width="4"/>
<path id="Line 21_2" d="M165.858 2045.02H194.12" stroke="#0DE47E" stroke-width="4"/>
<path id="Line 22_2" d="M165.858 2049.07H194.12" stroke="#0DE47E" stroke-width="4"/>
</g>
</g>
</g>
</g>
</svg>
