<svg width="2118" height="971" viewBox="0 0 2118 971" fill="none" xmlns="http://www.w3.org/2000/svg">
<rect width="2118" height="971" fill="white"/>
<path d="M1590.56 369.289V375.58L1750.05 376.231V368.576L1590.56 369.289Z" fill="#F5F5F5" stroke="black" stroke-width="2.09719" stroke-miterlimit="10" stroke-linecap="square"/>
<path d="M1590.56 369.289V375.58L1750.05 376.231V368.576L1590.56 369.289ZM1588.63 426.878V429.394H1615.89V426.878H1588.63Z" fill="#F5F5F5" stroke="black" stroke-width="2.09719" stroke-miterlimit="10" stroke-linecap="square"/>
<path d="M1588.63 426.878V429.394H1615.89V426.878H1588.63ZM1634.77 426.878V429.394H1649.45V426.878H1634.77Z" fill="#F5F5F5" stroke="black" stroke-width="2.09719" stroke-miterlimit="10" stroke-linecap="square"/>
<path d="M1641.06 426.878H1634.77V429.394H1649.45V426.878H1643.58M1668.3 426.878V429.394H1751.98V426.878H1668.3Z" fill="#F5F5F5"/>
<path d="M1641.06 426.878H1634.77V429.394H1649.45V426.878H1643.58M1668.3 426.878V429.394H1751.98V426.878H1668.3Z" stroke="black" stroke-width="2.09719" stroke-miterlimit="10" stroke-linecap="square"/>
<path d="M1668.3 426.877V429.394H1751.98V426.877H1668.3ZM1615.87 429.394H1616.71V427.401H1615.87V429.394ZM1634.77 429.394H1633.93V427.401H1634.77V429.394ZM1616.71 429.394L1616.73 446.591ZM1616.73 446.591L1619.71 446.318L1622.6 445.542L1625.33 444.284L1627.78 442.564L1629.88 440.467L1631.62 437.992L1632.88 435.266L1633.65 432.372L1633.93 429.394M1649.45 429.394H1650.28V427.401H1649.45V429.394ZM1668.3 429.394H1667.46V427.401H1668.3V429.394ZM1650.28 429.394L1650.26 446.591ZM1650.26 446.591L1653.26 446.318L1656.16 445.542L1658.88 444.284L1661.34 442.564L1663.43 440.467L1665.18 437.992L1666.43 435.266L1667.21 432.372L1667.46 429.394M1643.57 375.559H1641.06V426.877H1643.57V375.559Z" fill="#F5F5F5"/>
<path d="M1668.3 429.394V426.877H1751.98V429.394H1668.3ZM1668.3 429.394H1667.46M1668.3 429.394V427.401H1667.46V429.394M1616.71 429.394H1615.87V427.401H1616.71V429.394ZM1616.71 429.394L1616.73 446.591L1619.71 446.318L1622.6 445.542L1625.33 444.284L1627.78 442.564L1629.88 440.467L1631.62 437.992L1632.88 435.266L1633.65 432.372L1633.93 429.394M1633.93 429.394H1634.77V427.401H1633.93V429.394ZM1650.28 429.394H1649.45V427.401H1650.28V429.394ZM1650.28 429.394L1650.26 446.591L1653.26 446.318L1656.16 445.542L1658.88 444.284L1661.34 442.564L1663.43 440.467L1665.18 437.992L1666.43 435.266L1667.21 432.372L1667.46 429.394M1643.57 375.559H1641.06V426.877H1643.57V375.559Z" stroke="black" stroke-width="2.09719" stroke-miterlimit="10" stroke-linecap="square"/>
<path d="M1643.57 426.877V375.559H1641.06V426.877M1755.98 516.532H1752.21V640.245H1755.98V516.532Z" fill="#F5F5F5"/>
<path d="M1643.57 426.877V375.559H1641.06V426.877M1755.98 516.532H1752.21V640.245H1755.98V516.532Z" stroke="black" stroke-width="2.09719" stroke-miterlimit="10" stroke-linecap="square"/>
<path d="M1755.99 516.532H1752.21V640.245H1755.99V516.532ZM1755.78 381.473H1752V505.207H1755.78V381.473Z" fill="#F5F5F5" stroke="black" stroke-width="2.09719" stroke-miterlimit="10" stroke-linecap="square"/>
<path d="M1755.78 381.473H1752V505.207H1755.78V381.473ZM1588.63 381.473H1584.85V505.207H1588.63V381.473Z" fill="#F5F5F5" stroke="black" stroke-width="2.09719" stroke-miterlimit="10" stroke-linecap="square"/>
<path d="M1588.63 381.473H1584.85V505.207H1588.63V381.473ZM1588.82 516.532H1585.04V640.245H1588.82V516.532Z" fill="#F5F5F5" stroke="black" stroke-width="2.09719" stroke-miterlimit="10" stroke-linecap="square"/>
<path d="M1588.82 516.532H1585.04V640.245H1588.82V516.532ZM1590.56 646.872V653.164H1750.05V646.872H1590.56Z" fill="#F5F5F5" stroke="black" stroke-width="2.09719" stroke-miterlimit="10" stroke-linecap="square"/>
<path d="M1590.56 646.873V653.164H1750.05V646.873H1590.56ZM1582.9 381.473H1590.56V368.597H1582.9V381.473ZM1750.05 381.473H1757.7V368.576H1750.05V381.473ZM1582.9 516.532H1590.56V505.208H1582.9V516.532ZM1667.17 514.016H1673.46V507.724H1667.17V514.016ZM1750.05 516.532H1757.7V505.208H1750.05V516.532ZM1582.9 653.143L1590.56 653.164V640.245H1582.9V653.143ZM1750.05 653.164L1757.7 653.143V640.245H1750.05V653.164ZM740.357 440.404H737.337V561.412H740.357V440.404Z" fill="#F5F5F5"/>
<path d="M1590.56 653.164V646.873H1750.05V653.164M1590.56 653.164H1750.05M1590.56 653.164L1582.9 653.143V640.245H1590.56V653.164ZM1750.05 653.164L1757.7 653.143V640.245H1750.05V653.164ZM1582.9 381.473H1590.56V368.597H1582.9V381.473ZM1750.05 381.473H1757.7V368.576H1750.05V381.473ZM1582.9 516.532H1590.56V505.208H1582.9V516.532ZM1667.17 514.016H1673.46V507.724H1667.17V514.016ZM1750.05 516.532H1757.7V505.208H1750.05V516.532ZM740.357 440.404H737.337V561.412H740.357V440.404Z" stroke="black" stroke-width="2.09719" stroke-miterlimit="10" stroke-linecap="square"/>
<path d="M740.357 440.404H737.337V561.412H740.357V440.404ZM737.337 724.238H740.357V663.482L737.337 660.462V724.238Z" fill="#F5F5F5" stroke="black" stroke-width="2.09719" stroke-miterlimit="10" stroke-linecap="square"/>
<path d="M737.338 660.462V724.238H740.358V663.482M577.721 425.388V431.68H593.072V425.388H577.721Z" fill="#F5F5F5"/>
<path d="M737.338 660.462V724.238H740.358V663.482M577.721 425.388V431.68H593.072V425.388H577.721Z" stroke="black" stroke-width="2.09719" stroke-miterlimit="10" stroke-linecap="square"/>
<path d="M577.721 425.388V431.68H593.072V425.388H577.721ZM621.28 425.409V431.701L737.212 431.764V425.472L621.28 425.409Z" fill="#F5F5F5" stroke="black" stroke-width="2.09719" stroke-miterlimit="10" stroke-linecap="square"/>
<path d="M621.279 425.409V431.701L737.212 431.764V425.472L621.279 425.409ZM621.279 425.409H620.44V431.701H621.279V425.409ZM593.072 425.409H593.911V431.701H593.072V425.409ZM257.27 272L264.925 279.655H270.063V272H257.27Z" fill="#F5F5F5"/>
<path d="M621.279 425.409V431.701M621.279 425.409L737.212 425.472V431.764L621.279 431.701M621.279 425.409H620.44V431.701H621.279M593.072 425.409H593.911V431.701H593.072V425.409ZM257.27 272L264.925 279.655H270.063V272H257.27Z" stroke="black" stroke-width="2.09719" stroke-miterlimit="10" stroke-linecap="square"/>
<path d="M264.925 279.655H270.063V272H257.27M270.063 279.655V272H309.28V279.655H270.063ZM309.28 272V279.655H322.073V272H309.28Z" fill="#F5F5F5"/>
<path d="M264.925 279.655H270.063M270.063 279.655V272M270.063 279.655H309.28M270.063 272H257.27M270.063 272H309.28M309.28 272V279.655M309.28 272H322.073V279.655H309.28" stroke="black" stroke-width="2.09719" stroke-miterlimit="10" stroke-linecap="square"/>
<path d="M309.282 272V279.655H322.075V272H309.282ZM322.075 279.655V272H361.293V279.655H322.075ZM361.293 272V279.655H374.086V272H361.293Z" fill="#F5F5F5"/>
<path d="M322.075 279.655H309.282V272H322.075M322.075 279.655V272M322.075 279.655H361.293M322.075 272H361.293M361.293 272V279.655M361.293 272H374.086V279.655H361.293" stroke="black" stroke-width="2.09719" stroke-miterlimit="10" stroke-linecap="square"/>
<path d="M361.292 272V279.655H374.085V272H361.292ZM374.085 279.655V272H413.303V279.655H374.085ZM413.303 272V279.655H439.203V272H413.303Z" fill="#F5F5F5"/>
<path d="M374.085 279.655H361.292V272H374.085M374.085 279.655V272M374.085 279.655H413.303M374.085 272H413.303M413.303 272V279.655M413.303 272H439.203V279.655H413.303" stroke="black" stroke-width="2.09719" stroke-miterlimit="10" stroke-linecap="square"/>
<path d="M439.201 272H413.301V279.655H439.201V278.292M309.28 275.46V273.049H270.063V275.46H309.28Z" fill="#F5F5F5"/>
<path d="M439.201 272H413.301V279.655H439.201V278.292M309.28 275.46V273.049H270.063V275.46H309.28Z" stroke="black" stroke-width="2.09719" stroke-miterlimit="10" stroke-linecap="square"/>
<path d="M309.28 273.048H308.441V275.46H309.28V273.048ZM270.063 273.048H270.902V275.46H270.063V273.048ZM308.441 273.048H270.902ZM308.441 274.265H270.902ZM308.441 275.46H270.902ZM361.29 275.46V273.048H322.073V275.46H361.29Z" fill="#F5F5F5"/>
<path d="M308.441 273.048H309.28V275.46H308.441M308.441 273.048V275.46M308.441 273.048H270.902M308.441 275.46H270.902M270.902 273.048H270.063V275.46H270.902M270.902 273.048V275.46M308.441 274.265H270.902M361.29 275.46V273.048H322.073V275.46H361.29Z" stroke="black" stroke-width="2.09719" stroke-miterlimit="10" stroke-linecap="square"/>
<path d="M361.292 273.048H360.454V275.46H361.292V273.048ZM322.075 273.048H322.914V275.46H322.075V273.048ZM360.454 273.048H322.914ZM360.454 274.265H322.914ZM360.454 275.46H322.914ZM413.303 275.46V273.048H374.085V275.46H413.303Z" fill="#F5F5F5"/>
<path d="M360.454 273.048H361.292V275.46H360.454M360.454 273.048V275.46M360.454 273.048H322.914M360.454 275.46H322.914M322.914 273.048H322.075V275.46H322.914M322.914 273.048V275.46M360.454 274.265H322.914M413.303 275.46V273.048H374.085V275.46H413.303Z" stroke="black" stroke-width="2.09719" stroke-miterlimit="10" stroke-linecap="square"/>
<path d="M413.302 273.049H412.463V275.46H413.302V273.049ZM374.085 273.049H374.924V275.46H374.085V273.049ZM412.463 273.049H374.924ZM412.463 274.265H374.924ZM412.463 275.46H374.924ZM565.873 272L559.581 278.292V428.031H565.873V272Z" fill="#F5F5F5"/>
<path d="M412.463 273.049H413.302V275.46H412.463M412.463 273.049V275.46M412.463 273.049H374.924M412.463 275.46H374.924M374.924 273.049H374.085V275.46H374.924M374.924 273.049V275.46M412.463 274.265H374.924M565.873 272L559.581 278.292V428.031H565.873V272Z" stroke="black" stroke-width="2.09719" stroke-miterlimit="10" stroke-linecap="square"/>
<path d="M559.581 278.292V428.031H565.872V272M559.581 724.217H565.872V697.058L559.581 701.252V724.217Z" fill="#F5F5F5"/>
<path d="M559.581 278.292V428.031H565.872V272M559.581 724.217H565.872V697.058L559.581 701.252V724.217Z" stroke="black" stroke-width="2.09719" stroke-miterlimit="10" stroke-linecap="square"/>
<path d="M559.581 701.253V724.217H565.872V697.058" fill="#F5F5F5"/>
<path d="M559.581 701.253V724.217H565.872V697.058" stroke="black" stroke-width="2.09719" stroke-miterlimit="10" stroke-linecap="square"/>
<path d="M559.581 701.252L565.873 697.058L425.361 697.016L421.167 701.21L559.581 701.252ZM559.581 697.058L425.361 697.016ZM421.167 701.21L559.581 701.252Z" fill="#F5F5F5"/>
<path d="M425.361 697.016L565.873 697.058L559.581 701.252L421.167 701.21L425.361 697.016ZM425.361 697.016L559.581 697.058" stroke="black" stroke-width="2.09719" stroke-miterlimit="10" stroke-linecap="square"/>
<path d="M425.361 572.947L421.167 580.601V701.211L425.361 697.016V572.947ZM421.167 580.601V701.211ZM425.361 697.016V572.947Z" fill="#F5F5F5" stroke="black" stroke-width="2.09719" stroke-miterlimit="10" stroke-linecap="square"/>
<path d="M264.925 572.947L257.27 580.601H421.165L425.36 572.947H264.925ZM257.27 580.601H421.165ZM425.36 572.947H264.925Z" fill="#F5F5F5" stroke="black" stroke-width="2.09719" stroke-miterlimit="10" stroke-linecap="square"/>
<path d="M257.27 580.601L264.925 572.947V349.953H257.27V580.601Z" fill="#F5F5F5" stroke="black" stroke-width="2.09719" stroke-miterlimit="10" stroke-linecap="square"/>
<path d="M264.925 572.946V349.952H257.27V580.601M257.27 297.732H264.925V279.655L257.27 272V297.732Z" fill="#F5F5F5"/>
<path d="M264.925 572.946V349.952H257.27V580.601M257.27 297.732H264.925V279.655L257.27 272V297.732Z" stroke="black" stroke-width="2.09719" stroke-miterlimit="10" stroke-linecap="square"/>
<path d="M257.271 272V297.733H264.926V279.655M257.271 297.733V298.571H259.263V297.733H257.271ZM257.271 349.952V349.114H259.263V349.952H257.271ZM257.271 298.571H232ZM257.271 349.114H232ZM232 298.571L232.252 302.158L233.028 305.681L234.286 309.078L236.006 312.224L238.166 315.118L240.724 317.677L243.618 319.837L246.764 321.557L250.141 322.815L253.685 323.591L257.271 323.842" fill="#F5F5F5"/>
<path d="M257.271 272V297.733M257.271 297.733H264.926V279.655M257.271 297.733V298.571M257.271 297.733H259.263V298.571H257.271M257.271 298.571H232L232.252 302.158L233.028 305.681L234.286 309.078L236.006 312.224L238.166 315.118L240.724 317.677L243.618 319.837L246.764 321.557L250.141 322.815L253.685 323.591L257.271 323.842M257.271 349.114V349.952H259.263V349.114H257.271ZM257.271 349.114H232" stroke="black" stroke-width="2.09719" stroke-miterlimit="10" stroke-linecap="square"/>
<path d="M232 349.113L232.252 345.527L233.028 342.004L234.286 338.606L236.006 335.461L238.166 332.567L240.724 330.008L243.618 327.848L246.764 326.128L250.141 324.87L253.685 324.094L257.271 323.842M425.361 572.946V580.601H526.571V572.946H425.361Z" fill="#F5F5F5"/>
<path d="M232 349.113L232.252 345.527L233.028 342.004L234.286 338.606L236.006 335.461L238.166 332.567L240.724 330.008L243.618 327.848L246.764 326.128L250.141 324.87L253.685 324.094L257.271 323.842M425.361 572.946V580.601H526.571V572.946H425.361Z" stroke="black" stroke-width="2.09719" stroke-miterlimit="10" stroke-linecap="square"/>
<path d="M526.592 578.609V572.947H425.34V580.601H461.537M464.683 580.601H526.592ZM525.711 640.476L522.565 637.33H425.361V640.476H525.711Z" fill="#F5F5F5"/>
<path d="M526.592 578.609V572.947H425.34V580.601H461.537M464.683 580.601H526.592M525.711 640.476L522.565 637.33H425.361V640.476H525.711Z" stroke="black" stroke-width="2.09719" stroke-miterlimit="10" stroke-linecap="square"/>
<path d="M522.565 637.33H425.36V640.476H488.276M488.486 640.476H525.711ZM461.537 608.913L464.683 605.767V580.601H461.537V608.913ZM464.683 605.767V580.601ZM461.537 580.601V608.913Z" fill="#F5F5F5"/>
<path d="M522.565 637.33H425.36V640.476H488.276M488.486 640.476H525.711M461.537 608.913L464.683 605.767V580.601H461.537V608.913Z" stroke="black" stroke-width="2.09719" stroke-miterlimit="10" stroke-linecap="square"/>
<path d="M522.564 608.913L525.71 605.768H464.682L461.536 608.913H522.564ZM525.71 605.768H464.682ZM461.536 608.913H522.564ZM522.564 637.33L525.71 640.476V631.878H522.564V637.33Z" fill="#F5F5F5" stroke="black" stroke-width="2.09719" stroke-miterlimit="10" stroke-linecap="square"/>
<path d="M525.711 640.476V631.878H522.565V637.33M522.565 610.906H525.711V605.768L522.565 608.913V610.906Z" fill="#F5F5F5"/>
<path d="M525.711 640.476V631.878H522.565V637.33M522.565 610.906H525.711V605.768L522.565 608.913V610.906Z" stroke="black" stroke-width="2.09719" stroke-miterlimit="10" stroke-linecap="square"/>
<path d="M522.565 608.913V610.906H525.71V605.768M525.71 610.906V611.745H523.718V610.906H525.71ZM525.71 631.878V631.039H523.718V631.878H525.71ZM525.71 611.745H545.005ZM545.005 611.745L544.711 615.1L543.83 618.351L542.425 621.392L540.496 624.139L538.105 626.53L535.358 628.459L532.317 629.864L529.066 630.745L525.71 631.039M488.276 697.037H488.485V640.476H488.276V697.037Z" fill="#F5F5F5"/>
<path d="M522.565 608.913V610.906H525.71M525.71 610.906V605.768M525.71 610.906V611.745M525.71 610.906H523.718V611.745H525.71M525.71 611.745H545.005L544.711 615.1L543.83 618.351L542.425 621.392L540.496 624.139L538.105 626.53L535.358 628.459L532.317 629.864L529.066 630.745L525.71 631.039M525.71 631.039V631.878H523.718V631.039H525.71ZM488.276 697.037H488.485V640.476H488.276V697.037Z" stroke="black" stroke-width="2.09719" stroke-miterlimit="10" stroke-linecap="square"/>
<path d="M488.276 640.476V697.037H488.485V640.476M737.212 739.338V731.683L577.721 731.704V739.358L737.212 739.338Z" fill="#F5F5F5"/>
<path d="M488.276 640.476V697.037H488.485V640.476M737.212 739.338V731.683L577.721 731.704V739.358L737.212 739.338Z" stroke="black" stroke-width="2.09719" stroke-miterlimit="10" stroke-linecap="square"/>
<path d="M737.211 739.337V731.682L577.72 731.703V739.358L737.211 739.337ZM439.201 279.655H432.595V375.286H439.201V279.655Z" fill="#F5F5F5" stroke="black" stroke-width="2.09719" stroke-miterlimit="10" stroke-linecap="square"/>
<path d="M432.595 371.092V375.286H439.201V368.156M439.201 365.136V279.655H432.595V367.946M439.201 394.161H432.595V538.993H439.201V394.161ZM439.201 535.931V438.517Z" fill="#F5F5F5"/>
<path d="M432.595 371.092V375.286H439.201V368.156M439.201 365.136V279.655H432.595V367.946M439.201 535.931V438.517M439.201 394.161H432.595V538.993H439.201V394.161Z" stroke="black" stroke-width="2.09719" stroke-miterlimit="10" stroke-linecap="square"/>
<path d="M439.202 428.03V394.161H432.596V538.993H439.202M432.596 375.286V376.125H434.588V375.286H432.596ZM432.596 394.161V393.322H434.588V394.161H432.596ZM432.596 376.125H415.399ZM415.399 376.125L415.672 379.103L416.448 381.997L417.706 384.724L419.426 387.177L421.523 389.295L423.997 391.015L426.724 392.273L429.618 393.049L432.596 393.322M439.202 428.03V438.516H559.581V428.03H439.202Z" fill="#F5F5F5"/>
<path d="M439.202 428.03V394.161H432.596M439.202 428.03V438.516H559.581V428.03H439.202ZM432.596 394.161V538.993H439.202M432.596 394.161V393.322M432.596 394.161H434.588V393.322H432.596M432.596 376.125V375.286H434.588V376.125H432.596ZM432.596 376.125H415.399L415.672 379.103L416.448 381.997L417.706 384.724L419.426 387.177L421.523 389.295L423.997 391.015L426.724 392.273L429.618 393.049L432.596 393.322" stroke="black" stroke-width="2.09719" stroke-miterlimit="10" stroke-linecap="square"/>
<path d="M439.202 438.517H559.581V428.031H495.952M492.932 428.031H439.202ZM439.202 272V278.292H444.236V272H439.202Z" fill="#F5F5F5"/>
<path d="M439.202 438.517H559.581V428.031H495.952M492.932 428.031H439.202M439.202 272V278.292H444.236V272H439.202Z" stroke="black" stroke-width="2.09719" stroke-miterlimit="10" stroke-linecap="square"/>
<path d="M439.202 279.655V278.292H444.236V272H439.202" fill="#F5F5F5"/>
<path d="M439.202 279.655V278.292H444.236V272H439.202" stroke="black" stroke-width="2.09719" stroke-miterlimit="10" stroke-linecap="square"/>
<path d="M444.235 278.292V272H473.596V278.292H444.235ZM473.596 272V278.292H514.281V272H473.596Z" fill="#F5F5F5"/>
<path d="M473.596 272H444.235V278.292H473.596M473.596 272V278.292M473.596 272H514.281V278.292H473.596" stroke="black" stroke-width="2.09719" stroke-miterlimit="10" stroke-linecap="square"/>
<path d="M473.596 272V278.292H514.282V272H473.596ZM514.282 278.292V272H543.643V278.292H514.282ZM543.643 272V278.292H559.581L565.873 272H543.643Z" fill="#F5F5F5"/>
<path d="M514.282 278.292H473.596V272H514.282M514.282 278.292V272M514.282 278.292H543.643M514.282 272H543.643M543.643 272V278.292M543.643 272H565.873L559.581 278.292H543.643" stroke="black" stroke-width="2.09719" stroke-miterlimit="10" stroke-linecap="square"/>
<path d="M565.872 272H543.642V278.292H559.581M473.596 275.46V273.049H444.235V275.46H473.596Z" fill="#F5F5F5"/>
<path d="M565.872 272H543.642V278.292H559.581M473.596 275.46V273.049H444.235V275.46H473.596Z" stroke="black" stroke-width="2.09719" stroke-miterlimit="10" stroke-linecap="square"/>
<path d="M473.596 273.048H472.757V275.46H473.596V273.048ZM444.235 273.048H445.074V275.46H444.235V273.048ZM472.757 273.048H445.074ZM472.757 274.265H445.074ZM472.757 275.46H445.074ZM543.642 275.46V273.048H514.281V275.46H543.642Z" fill="#F5F5F5"/>
<path d="M472.757 273.048H473.596V275.46H472.757M472.757 273.048V275.46M472.757 273.048H445.074M472.757 275.46H445.074M445.074 273.048H444.235V275.46H445.074M445.074 273.048V275.46M472.757 274.265H445.074M543.642 275.46V273.048H514.281V275.46H543.642Z" stroke="black" stroke-width="2.09719" stroke-miterlimit="10" stroke-linecap="square"/>
<path d="M543.641 273.048H542.802V275.46H543.641V273.048ZM514.281 273.048H515.12V275.46H514.281V273.048ZM542.802 273.048H515.12ZM542.802 274.265H515.12ZM542.802 275.46H515.12ZM565.871 440.341L559.58 440.32V510.974H565.871V440.341Z" fill="#F5F5F5"/>
<path d="M542.802 273.048H543.641V275.46H542.802M542.802 273.048V275.46M542.802 273.048H515.12M542.802 275.46H515.12M515.12 273.048H514.281V275.46H515.12M515.12 273.048V275.46M542.802 274.265H515.12M565.871 440.341L559.58 440.32V510.974H565.871V440.341Z" stroke="black" stroke-width="2.09719" stroke-miterlimit="10" stroke-linecap="square"/>
<path d="M565.872 440.341L559.581 440.32V510.975H565.872V440.341ZM565.872 534.044H559.581V540.251H565.872V534.044Z" fill="#F5F5F5" stroke="black" stroke-width="2.09719" stroke-miterlimit="10" stroke-linecap="square"/>
<path d="M565.872 534.044H559.581V540.251H565.872V534.044ZM565.872 561.223H559.581V604.174H565.872V561.223Z" fill="#F5F5F5" stroke="black" stroke-width="2.09719" stroke-miterlimit="10" stroke-linecap="square"/>
<path d="M565.872 561.223H559.581V604.174H565.872V561.223ZM565.872 635.841H559.581V697.058H565.872V635.82" fill="#F5F5F5"/>
<path d="M565.872 635.841H559.581V697.058H565.872V635.82M565.872 561.223H559.581V604.174H565.872V561.223Z" stroke="black" stroke-width="2.09719" stroke-miterlimit="10" stroke-linecap="square"/>
<path d="M565.871 697.058V635.82H559.58V697.058M565.871 534.043V533.205H559.58V534.043H565.871ZM565.871 510.974V511.813H559.58V510.974H565.871ZM559.58 540.251V541.09H561.572V540.251H559.58ZM559.58 561.223V560.384H561.572V561.223H559.58ZM559.58 541.09H540.286ZM540.286 541.09L540.579 544.445L541.439 547.696L542.865 550.737L544.795 553.505L547.185 555.875L549.933 557.805L552.974 559.231L556.224 560.091L559.58 560.384M559.58 604.152V604.991H561.572V604.152H559.58Z" fill="#F5F5F5"/>
<path d="M565.871 697.058V635.82H559.58V697.058M559.58 541.09V540.251H561.572V541.09H559.58ZM559.58 541.09H540.286L540.579 544.445L541.439 547.696L542.865 550.737L544.795 553.505L547.185 555.875L549.933 557.805L552.974 559.231L556.224 560.091L559.58 560.384M559.58 560.384V561.223H561.572V560.384H559.58ZM565.871 534.043V533.205H559.58V534.043H565.871ZM565.871 510.974V511.813H559.58V510.974H565.871ZM559.58 604.152V604.991H561.572V604.152H559.58Z" stroke="black" stroke-width="2.09719" stroke-miterlimit="10" stroke-linecap="square"/>
<path d="M559.581 635.841V635.002H561.573V635.841H559.581ZM559.581 604.991H549.514ZM559.581 635.002H539.658ZM549.514 604.991L549.766 607.235L550.521 609.374L551.716 611.262L553.31 612.877L555.198 614.072L557.337 614.806L559.581 615.058M539.658 635.002L539.909 631.856L540.622 628.836L541.839 625.942L543.453 623.279L545.488 620.909L547.879 618.875L550.542 617.239L553.415 616.044L556.456 615.31L559.581 615.058M439.202 535.931V538.972H559.581V535.952H439.202" fill="#F5F5F5"/>
<path d="M559.581 635.002V635.841H561.573V635.002H559.581ZM559.581 635.002H539.658L539.909 631.856L540.622 628.836L541.839 625.942L543.453 623.279L545.488 620.909L547.879 618.875L550.542 617.239L553.415 616.044L556.456 615.31L559.581 615.058L557.337 614.806L555.198 614.072L553.31 612.877L551.716 611.262L550.521 609.374L549.766 607.235L549.514 604.991H559.581M439.202 535.931V538.972H559.581V535.952H439.202" stroke="black" stroke-width="2.09719" stroke-miterlimit="10" stroke-linecap="square"/>
<path d="M439.201 538.972H559.58V535.952H439.201M264.925 488.744V491.89H287.365V488.744H264.925Z" fill="#F5F5F5"/>
<path d="M439.201 538.972H559.58V535.952H439.201M264.925 488.744V491.89H287.365V488.744H264.925Z" stroke="black" stroke-width="2.09719" stroke-miterlimit="10" stroke-linecap="square"/>
<path d="M264.925 488.744V491.89H287.365V488.744H264.925ZM306.239 488.744V491.89H394.426L396.943 488.744H306.239Z" fill="#F5F5F5" stroke="black" stroke-width="2.09719" stroke-miterlimit="10" stroke-linecap="square"/>
<path d="M392.918 488.745H306.241V491.89H328.513M356.615 491.89H394.428ZM331.03 491.89H354.099ZM396.944 488.745H396.063ZM287.366 488.745H288.205V490.737H287.366V488.745ZM306.241 488.745H305.402V490.737H306.241V488.745ZM288.205 488.745V471.548ZM288.205 471.548L291.183 471.82L294.098 472.596L296.825 473.855L299.257 475.574L301.375 477.671L303.095 480.146L304.353 482.872L305.15 485.767L305.402 488.745M396.944 488.745L394.428 491.89V553.023H396.944V488.745Z" fill="#F5F5F5"/>
<path d="M392.918 488.745H306.241M306.241 488.745V491.89H328.513M306.241 488.745H305.402M306.241 488.745V490.737H305.402V488.745M356.615 491.89H394.428M394.428 491.89L396.944 488.745M394.428 491.89V553.023H396.944V488.745M331.03 491.89H354.099M396.944 488.745H396.063M288.205 488.745H287.366V490.737H288.205V488.745ZM288.205 488.745V471.548L291.183 471.82L294.098 472.596L296.825 473.855L299.257 475.574L301.375 477.671L303.095 480.146L304.353 482.872L305.15 485.767L305.402 488.745" stroke="black" stroke-width="2.09719" stroke-miterlimit="10" stroke-linecap="square"/>
<path d="M394.427 491.89V553.023H396.944V488.744M396.944 571.877H394.427V572.946H396.944V571.877Z" fill="#F5F5F5"/>
<path d="M394.427 491.89V553.023H396.944V488.744M396.944 571.877H394.427V572.946H396.944V571.877Z" stroke="black" stroke-width="2.09719" stroke-miterlimit="10" stroke-linecap="square"/>
<path d="M396.944 571.877H394.428V572.946H396.944V571.877ZM394.428 571.877V571.038H396.42V571.877H394.428ZM394.428 553.002V553.841H396.42V553.002H394.428ZM394.428 571.038H377.231ZM377.231 571.038L377.503 568.06L378.279 565.166L379.538 562.439L381.257 559.985L383.355 557.888L385.829 556.148L388.556 554.889L391.45 554.113L394.428 553.841M356.615 491.89H354.099V514.288H356.615V491.89Z" fill="#F5F5F5"/>
<path d="M394.428 571.877H396.944V572.946H394.428V571.877ZM394.428 571.877V571.038M394.428 571.877H396.42V571.038H394.428M394.428 571.038H377.231L377.503 568.06L378.279 565.166L379.538 562.439L381.257 559.985L383.355 557.888L385.829 556.148L388.556 554.889L391.45 554.113L394.428 553.841M394.428 553.841V553.002H396.42V553.841H394.428ZM356.615 491.89H354.099V514.288H356.615V491.89Z" stroke="black" stroke-width="2.09719" stroke-miterlimit="10" stroke-linecap="square"/>
<path d="M354.099 491.89V514.288H356.615V491.89M356.615 528.968H354.099V555.959H356.615V528.968Z" fill="#F5F5F5"/>
<path d="M354.099 491.89V514.288H356.615V491.89M356.615 528.968H354.099V555.959H356.615V528.968Z" stroke="black" stroke-width="2.09719" stroke-miterlimit="10" stroke-linecap="square"/>
<path d="M354.099 537.084V555.959H356.615V528.968H354.099V534.589M356.615 570.639H354.099V572.946H356.615V570.639Z" fill="#F5F5F5"/>
<path d="M354.099 537.084V555.959H356.615V528.968H354.099V534.589M356.615 570.639H354.099V572.946H356.615V570.639Z" stroke="black" stroke-width="2.09719" stroke-miterlimit="10" stroke-linecap="square"/>
<path d="M356.616 570.639H354.099V572.946H356.616V570.639ZM356.616 528.968V528.129H354.624V528.968H356.616ZM356.616 514.288V515.127H354.624V514.288H356.616ZM356.616 528.129H369.619ZM369.619 528.129L369.367 525.592L368.633 523.138L367.437 520.894L365.802 518.923L363.851 517.308L361.586 516.112L359.154 515.378L356.616 515.127M356.616 570.639V569.8H354.624V570.639H356.616ZM356.616 555.959V556.798H354.624V555.959H356.616ZM356.616 569.8H369.619ZM369.619 569.8L369.367 567.263L368.633 564.83L367.437 562.565L365.802 560.594L363.851 558.979L361.586 557.783L359.154 557.049L356.616 556.798M331.03 491.89H328.514V572.946H331.03V491.89Z" fill="#F5F5F5"/>
<path d="M356.616 570.639H354.099V572.946H356.616V570.639ZM356.616 570.639V569.8M356.616 570.639H354.624V569.8H356.616M356.616 528.129V528.968H354.624V528.129H356.616ZM356.616 528.129H369.619L369.367 525.592L368.633 523.138L367.437 520.894L365.802 518.923L363.851 517.308L361.586 516.112L359.154 515.378L356.616 515.127M356.616 515.127V514.288H354.624V515.127H356.616ZM356.616 569.8H369.619L369.367 567.263L368.633 564.83L367.437 562.565L365.802 560.594L363.851 558.979L361.586 557.783L359.154 557.049L356.616 556.798M356.616 556.798V555.959H354.624V556.798H356.616ZM331.03 491.89H328.514V572.946H331.03V491.89Z" stroke="black" stroke-width="2.09719" stroke-miterlimit="10" stroke-linecap="square"/>
<path d="M328.514 491.89V572.947H331.03V537.085M331.03 534.568V491.89ZM331.03 534.568V537.085H354.099V534.568H331.03ZM331.03 537.085H354.099ZM354.099 534.568H331.03ZM439.203 365.136V368.156H458.917V365.136H439.203Z" fill="#F5F5F5"/>
<path d="M328.514 491.89V572.947H331.03V537.085M331.03 537.085V534.568M331.03 537.085H354.099V534.568H331.03M331.03 534.568V491.89M439.203 365.136V368.156H458.917V365.136H439.203Z" stroke="black" stroke-width="2.09719" stroke-miterlimit="10" stroke-linecap="square"/>
<path d="M439.202 368.156H458.916V365.136H439.202M477.791 365.136V368.156H559.581V365.136H477.791Z" fill="#F5F5F5"/>
<path d="M439.202 368.156H458.916V365.136H439.202M477.791 365.136V368.156H559.581V365.136H477.791Z" stroke="black" stroke-width="2.09719" stroke-miterlimit="10" stroke-linecap="square"/>
<path d="M495.93 368.156H559.58V365.136H477.789V368.156H492.931M477.789 365.136H476.95V367.128H477.789V365.136ZM458.915 365.136H459.753V367.128H458.915V365.136ZM476.95 365.136V347.939Z" fill="#F5F5F5"/>
<path d="M495.93 368.156H559.58V365.136H477.789M477.789 365.136V368.156H492.931M477.789 365.136H476.95M477.789 365.136V367.128H476.95V365.136M476.95 365.136V347.939M458.915 365.136H459.753V367.128H458.915V365.136Z" stroke="black" stroke-width="2.09719" stroke-miterlimit="10" stroke-linecap="square"/>
<path d="M476.951 347.939L473.973 348.191L471.058 348.967L468.353 350.225L465.899 351.966L463.781 354.063L462.061 356.538L460.803 359.264L460.027 362.158L459.754 365.136M703.238 600.839V597.819H565.872V600.839H703.238Z" fill="#F5F5F5"/>
<path d="M476.951 347.939L473.973 348.191L471.058 348.967L468.353 350.225L465.899 351.966L463.781 354.063L462.061 356.538L460.803 359.264L460.027 362.158L459.754 365.136M703.238 600.839V597.819H565.872V600.839H703.238Z" stroke="black" stroke-width="2.09719" stroke-miterlimit="10" stroke-linecap="square"/>
<path d="M663.686 600.839H703.239V597.819H565.873V600.839H660.666M737.339 660.462L740.359 663.482H826.868V660.462H737.339Z" fill="#F5F5F5"/>
<path d="M663.686 600.839H703.239V597.819H565.873V600.839H660.666M737.339 660.462L740.359 663.482H826.868V660.462H737.339Z" stroke="black" stroke-width="2.09719" stroke-miterlimit="10" stroke-linecap="square"/>
<path d="M740.358 663.482H826.867V660.462M823.847 660.462H740.358Z" fill="#F5F5F5"/>
<path d="M740.358 663.482H826.867V660.462M823.847 660.462H740.358" stroke="black" stroke-width="2.09719" stroke-miterlimit="10" stroke-linecap="square"/>
<path d="M826.866 572.38H823.846V660.462H826.866V572.38Z" fill="#F5F5F5" stroke="black" stroke-width="2.09719" stroke-miterlimit="10" stroke-linecap="square"/>
<path d="M826.868 660.462V572.38H823.848V616.421M823.848 620.616V660.462ZM814.284 616.421V620.616H823.848V616.421H814.284Z" fill="#F5F5F5"/>
<path d="M826.868 660.462V572.38H823.848V616.421M823.848 616.421V620.616M823.848 616.421H814.284V620.616H823.848M823.848 620.616V660.462" stroke="black" stroke-width="2.09719" stroke-miterlimit="10" stroke-linecap="square"/>
<path d="M823.847 616.421H814.284V620.615H823.847M526.592 578.609V580.601H526.802V578.609H526.592Z" fill="#F5F5F5"/>
<path d="M823.847 616.421H814.284V620.615H823.847M526.592 578.609V580.601H526.802V578.609H526.592Z" stroke="black" stroke-width="2.09719" stroke-miterlimit="10" stroke-linecap="square"/>
<path d="M526.572 580.601H526.802V578.609H526.593V572.947M558.239 578.609V580.601H558.533V578.609H558.239Z" fill="#F5F5F5"/>
<path d="M526.572 580.601H526.802V578.609H526.593V572.947M558.239 578.609V580.601H558.533V578.609H558.239Z" stroke="black" stroke-width="2.09719" stroke-miterlimit="10" stroke-linecap="square"/>
<path d="M558.239 578.609V580.601H558.533V578.609H558.239ZM526.781 580.601H527.62V578.609H526.781V580.601ZM558.239 580.601H557.4V578.609H558.239V580.601ZM527.641 580.601V591.297ZM557.421 580.601V599.686ZM527.641 591.297L530.011 591.024L532.276 590.248L534.31 588.969L535.988 587.27L537.267 585.236L538.064 582.992L538.337 580.601" fill="#F5F5F5"/>
<path d="M558.239 578.609V580.601M558.239 578.609H558.533V580.601H558.239M558.239 578.609H557.4V580.601H558.239M527.641 580.601V591.297L530.011 591.024L532.276 590.248L534.31 588.969L535.988 587.27L537.267 585.236L538.064 582.992L538.337 580.601M557.421 580.601V599.686M526.781 580.601H527.62V578.609H526.781V580.601Z" stroke="black" stroke-width="2.09719" stroke-miterlimit="10" stroke-linecap="square"/>
<path d="M557.42 599.686L554.106 599.392L550.876 598.553L547.878 597.127L545.151 595.24L542.781 592.87L540.894 590.143L539.468 587.123L538.629 583.915L538.314 580.601M823.846 576.575V572.38H747.278V576.575H823.846Z" fill="#F5F5F5"/>
<path d="M557.42 599.686L554.106 599.392L550.876 598.553L547.878 597.127L545.151 595.24L542.781 592.87L540.894 590.143L539.468 587.123L538.629 583.915L538.314 580.601M823.846 576.575V572.38H747.278V576.575H823.846Z" stroke="black" stroke-width="2.09719" stroke-miterlimit="10" stroke-linecap="square"/>
<path d="M823.846 576.575V572.38H747.278V576.575H823.846ZM737.337 660.462H740.357V658.092H737.337V660.462Z" fill="#F5F5F5" stroke="black" stroke-width="2.09719" stroke-miterlimit="10" stroke-linecap="square"/>
<path d="M740.357 660.462V658.093H737.337V660.462M737.337 637.121H740.357V597.819H737.337V637.121Z" fill="#F5F5F5"/>
<path d="M740.357 660.462V658.093H737.337V660.462M737.337 637.121H740.357V597.819H737.337V637.121Z" stroke="black" stroke-width="2.09719" stroke-miterlimit="10" stroke-linecap="square"/>
<path d="M740.359 617.596V597.819H737.339V630.724M737.339 633.744V637.121H740.359V620.616M737.339 658.093V657.254H739.331V658.093H737.339ZM737.339 637.121V637.96H739.331V637.121H737.339ZM737.339 657.254H718.045ZM718.045 657.254L718.338 653.898L719.219 650.648L720.624 647.607L722.554 644.859L724.944 642.468L727.692 640.539L730.733 639.134L733.983 638.253L737.339 637.96M408.059 367.947V371.092H409.842V367.947H408.059Z" fill="#F5F5F5"/>
<path d="M740.359 617.596V597.819H737.339V630.724M737.339 633.744V637.121M737.339 637.121H740.359V620.616M737.339 637.121V637.96M737.339 637.121H739.331V637.96H737.339M737.339 657.254V658.093H739.331V657.254H737.339ZM737.339 657.254H718.045L718.338 653.898L719.219 650.648L720.624 647.607L722.554 644.859L724.944 642.468L727.692 640.539L730.733 639.134L733.983 638.253L737.339 637.96M408.059 367.947V371.092H409.842V367.947H408.059Z" stroke="black" stroke-width="2.09719" stroke-miterlimit="10" stroke-linecap="square"/>
<path d="M408.059 367.947V371.092H409.842V367.947H408.059ZM428.717 367.947V371.092H432.596V367.947H428.717Z" fill="#F5F5F5" stroke="black" stroke-width="2.09719" stroke-miterlimit="10" stroke-linecap="square"/>
<path d="M432.596 367.947H428.716V371.092H432.596" fill="#F5F5F5"/>
<path d="M432.596 367.947H428.716V371.092H432.596" stroke="black" stroke-width="2.09719" stroke-miterlimit="10" stroke-linecap="square"/>
<path d="M428.715 367.946H427.876V369.918H428.715V367.946ZM409.84 367.946H410.679V369.918H409.84V367.946ZM427.876 367.946V350.75ZM427.876 350.75L424.898 351.001L421.983 351.777L419.278 353.035L416.824 354.755L414.706 356.873L412.986 359.327L411.728 362.053L410.952 364.947L410.679 367.946M264.925 367.946V371.092H287.47V367.946H264.925Z" fill="#F5F5F5"/>
<path d="M427.876 367.946H428.715V369.918H427.876V367.946ZM427.876 367.946V350.75L424.898 351.001L421.983 351.777L419.278 353.035L416.824 354.755L414.706 356.873L412.986 359.327L411.728 362.053L410.952 364.947L410.679 367.946M410.679 367.946H409.84V369.918H410.679V367.946ZM264.925 367.946V371.092H287.47V367.946H264.925Z" stroke="black" stroke-width="2.09719" stroke-miterlimit="10" stroke-linecap="square"/>
<path d="M264.925 367.947V371.092H287.47V367.947H264.925ZM318.718 367.947V371.092H401.452V367.947H318.718Z" fill="#F5F5F5" stroke="black" stroke-width="2.09719" stroke-miterlimit="10" stroke-linecap="square"/>
<path d="M396.063 371.092H401.453V367.946H318.719V371.092H392.918M318.719 367.946H317.88V369.918H318.719V367.946ZM287.471 367.946H288.31V369.918H287.471V367.946ZM317.88 367.946V358.09ZM288.31 367.946V348.233ZM317.88 358.09L315.678 358.32L313.602 359.054L311.735 360.229L310.163 361.781L309.009 363.668L308.275 365.744L308.023 367.926M288.31 348.233L291.728 348.527L295.063 349.407L298.167 350.875L300.977 352.826L303.41 355.259L305.381 358.069L306.849 361.194L307.73 364.507L308.023 367.926M396.063 371.092H392.918V443.445H396.063V371.092Z" fill="#F5F5F5"/>
<path d="M396.063 371.092H401.453V367.946H318.719M396.063 371.092H392.918M396.063 371.092V443.445H392.918V371.092M318.719 367.946V371.092H392.918M318.719 367.946H317.88M318.719 367.946V369.918H317.88V367.946M317.88 367.946V358.09L315.678 358.32L313.602 359.054L311.735 360.229L310.163 361.781L309.009 363.668L308.275 365.744L308.023 367.926L307.73 364.507L306.849 361.194L305.381 358.069L303.41 355.259L300.977 352.826L298.167 350.875L295.063 349.407L291.728 348.527L288.31 348.233V367.946M288.31 367.946H287.471V369.918H288.31V367.946Z" stroke="black" stroke-width="2.09719" stroke-miterlimit="10" stroke-linecap="square"/>
<path d="M392.917 371.092V443.445H396.062V371.092M396.062 462.32H392.917V488.744H396.062V462.32Z" fill="#F5F5F5"/>
<path d="M392.917 371.092V443.445H396.062V371.092M396.062 462.32H392.917V488.744H396.062V462.32Z" stroke="black" stroke-width="2.09719" stroke-miterlimit="10" stroke-linecap="square"/>
<path d="M396.062 488.744V462.32H392.917V488.744M396.062 443.445V444.284H394.07V443.445H396.062ZM396.062 462.32V461.481H394.07V462.32H396.062ZM396.062 444.284H413.259ZM413.259 444.284L413.008 447.241L412.232 450.156L410.973 452.882L409.233 455.315L407.136 457.433L404.661 459.153L401.935 460.411L399.04 461.208L396.062 461.46M495.931 368.156H492.932V374.112H495.951L495.931 368.156Z" fill="#F5F5F5"/>
<path d="M396.062 488.744V462.32M396.062 462.32H392.917V488.744M396.062 462.32V461.481H394.07V462.32H396.062ZM396.062 444.284V443.445H394.07V444.284H396.062ZM396.062 444.284H413.259L413.008 447.241L412.232 450.156L410.973 452.882L409.233 455.315L407.136 457.433L404.661 459.153L401.935 460.411L399.04 461.208L396.062 461.46M495.931 368.156H492.932V374.112H495.951L495.931 368.156Z" stroke="black" stroke-width="2.09719" stroke-miterlimit="10" stroke-linecap="square"/>
<path d="M492.932 368.156V374.112H495.952V368.156M495.931 392.987H492.932V404.228H495.952L495.931 392.987Z" fill="#F5F5F5"/>
<path d="M492.932 368.156V374.112H495.952V368.156M495.931 392.987H492.932V404.228H495.952L495.931 392.987Z" stroke="black" stroke-width="2.09719" stroke-miterlimit="10" stroke-linecap="square"/>
<path d="M495.931 397.538V392.987H492.932V404.228H495.952V400.558M495.931 423.103H492.932V428.031H495.952L495.931 423.103Z" fill="#F5F5F5"/>
<path d="M495.931 397.538V392.987H492.932V404.228H495.952V400.558M495.931 423.103H492.932V428.031H495.952L495.931 423.103Z" stroke="black" stroke-width="2.09719" stroke-miterlimit="10" stroke-linecap="square"/>
<path d="M495.93 428.031V423.102H492.931V428.031M492.931 374.112V374.951H494.923V374.112H492.931ZM492.931 392.987V392.148H494.923V392.987H492.931ZM492.931 374.951H475.734Z" fill="#F5F5F5"/>
<path d="M495.93 428.031V423.102H492.931V428.031M492.931 374.951V374.112H494.923V374.951H492.931ZM492.931 374.951H475.734M492.931 392.987V392.148H494.923V392.987H492.931Z" stroke="black" stroke-width="2.09719" stroke-miterlimit="10" stroke-linecap="square"/>
<path d="M475.734 374.951L475.986 377.929L476.762 380.823L478.02 383.549L479.761 386.003L481.858 388.121L484.333 389.841L487.059 391.099L489.932 391.875L492.931 392.148M492.931 423.102V422.263H494.923V423.102H492.931ZM492.931 404.228V405.066H494.923V404.228H492.931ZM492.931 422.263H475.734ZM475.734 422.263L475.986 419.285L476.762 416.391L478.02 413.665L479.761 411.211L481.858 409.093L484.333 407.373L487.059 406.115L489.932 405.339L492.931 405.066M565.871 639.973V642.992H586.591V639.973H565.871Z" fill="#F5F5F5"/>
<path d="M475.734 374.951L475.986 377.929L476.762 380.823L478.02 383.549L479.761 386.003L481.858 388.121L484.333 389.841L487.059 391.099L489.932 391.875L492.931 392.148M492.931 422.263V423.102H494.923V422.263H492.931ZM492.931 422.263H475.734L475.986 419.285L476.762 416.391L478.02 413.665L479.761 411.211L481.858 409.093L484.333 407.373L487.059 406.115L489.932 405.339L492.931 405.066M492.931 405.066V404.228H494.923V405.066H492.931ZM565.871 639.973V642.992H586.591V639.973H565.871Z" stroke="black" stroke-width="2.09719" stroke-miterlimit="10" stroke-linecap="square"/>
<path d="M565.873 639.972V642.992H586.594V639.972H565.873ZM605.468 639.972V642.992H663.686V639.972H605.468Z" fill="#F5F5F5" stroke="black" stroke-width="2.09719" stroke-miterlimit="10" stroke-linecap="square"/>
<path d="M660.665 639.972H605.467V642.992H663.685V639.972" fill="#F5F5F5"/>
<path d="M660.665 639.972H605.467V642.992H663.685V639.972" stroke="black" stroke-width="2.09719" stroke-miterlimit="10" stroke-linecap="square"/>
<path d="M605.467 639.972H604.628V641.965H605.467V639.972ZM586.592 639.972H587.431V641.965H586.592V639.972ZM604.628 639.972V622.775ZM604.628 622.775L601.65 623.048L598.735 623.824L596.008 625.082L593.575 626.802L591.457 628.92L589.738 631.374L588.479 634.1L587.682 636.994L587.431 639.972M495.93 397.537V400.557H559.58V397.537H495.93Z" fill="#F5F5F5"/>
<path d="M604.628 639.972H605.467V641.965H604.628V639.972ZM604.628 639.972V622.775L601.65 623.048L598.735 623.824L596.008 625.082L593.575 626.802L591.457 628.92L589.738 631.374L588.479 634.1L587.682 636.994L587.431 639.972M587.431 639.972H586.592V641.965H587.431V639.972ZM495.93 397.537V400.557H559.58V397.537H495.93Z" stroke="black" stroke-width="2.09719" stroke-miterlimit="10" stroke-linecap="square"/>
<path d="M495.93 400.557H559.58V397.537H495.951M660.665 600.839H663.684ZM663.684 632.297H660.665V639.972H663.684V632.297ZM663.684 639.972V633.891Z" fill="#F5F5F5"/>
<path d="M495.93 400.557H559.58V397.537H495.951M660.665 600.839H663.684M663.684 639.972H660.665V632.297H663.684V639.972ZM663.684 639.972V633.891" stroke="black" stroke-width="2.09719" stroke-miterlimit="10" stroke-linecap="square"/>
<path d="M663.684 630.871V632.297H660.664V639.972M660.664 600.839V601.678H662.656V600.839H660.664Z" fill="#F5F5F5"/>
<path d="M663.684 630.871V632.297H660.664V639.972M660.664 600.839V601.678H662.656V600.839H660.664Z" stroke="black" stroke-width="2.09719" stroke-miterlimit="10" stroke-linecap="square"/>
<path d="M660.666 632.297V631.458H662.658V632.297H660.666ZM660.666 601.678H649.97ZM660.666 631.458H641.582ZM649.97 601.678L650.243 604.069L651.04 606.313L652.298 608.347L653.997 610.025L656.031 611.325L658.296 612.101L660.666 612.374M641.582 631.458L641.875 628.144L642.714 624.936L644.14 621.916L646.028 619.189L648.397 616.841L651.124 614.932L654.144 613.527L657.352 612.667L660.666 612.374M771.293 620.616V617.596H740.359V620.616H771.293ZM771.293 617.596H740.359ZM740.359 620.616H771.293Z" fill="#F5F5F5"/>
<path d="M660.666 631.458V632.297H662.658V631.458H660.666ZM660.666 631.458H641.582L641.875 628.144L642.714 624.936L644.14 621.916L646.028 619.189L648.397 616.841L651.124 614.932L654.144 613.527L657.352 612.667L660.666 612.374L658.296 612.101L656.031 611.325L653.997 610.025L652.298 608.347L651.04 606.313L650.243 604.069L649.97 601.678H660.666M771.293 620.616V617.596H740.359V620.616H771.293Z" stroke="black" stroke-width="2.09719" stroke-miterlimit="10" stroke-linecap="square"/>
<path d="M771.291 620.616H774.29V617.596H771.271L771.291 620.616Z" fill="#F5F5F5" stroke="black" stroke-width="2.09719" stroke-miterlimit="10" stroke-linecap="square"/>
<path d="M771.291 620.616H774.29V617.596M771.291 617.596H774.29V576.575H771.271L771.291 617.596Z" fill="#F5F5F5"/>
<path d="M771.291 620.616H774.29V617.596M774.29 617.596H771.291L771.271 576.575H774.29V617.596Z" stroke="black" stroke-width="2.09719" stroke-miterlimit="10" stroke-linecap="square"/>
<path d="M774.291 617.596V576.575H771.271V617.596M737.338 633.744V630.724H735.115V633.744H737.338Z" fill="#F5F5F5"/>
<path d="M774.291 617.596V576.575H771.271V617.596M737.338 633.744V630.724H735.115V633.744H737.338Z" stroke="black" stroke-width="2.09719" stroke-miterlimit="10" stroke-linecap="square"/>
<path d="M737.338 630.724H735.115V633.744H737.338M731.235 633.744V630.724L663.685 630.871V633.891L731.235 633.744Z" fill="#F5F5F5"/>
<path d="M737.338 630.724H735.115V633.744H737.338M731.235 633.744V630.724L663.685 630.871V633.891L731.235 633.744Z" stroke="black" stroke-width="2.09719" stroke-miterlimit="10" stroke-linecap="square"/>
<path d="M663.684 633.891L731.235 633.744V630.724L663.684 630.871M654.373 672.123H660.664V665.831H654.373V672.123ZM737.212 576.554L747.278 576.575V561.412H737.212V576.554ZM731.235 633.744H735.114V629.864H731.235V633.744ZM731.235 665.517H735.114V661.637H731.235V665.517ZM731.235 696.87H735.114V692.99H731.235V696.87ZM737.212 440.404H745.6V425.472H737.212V440.404ZM559.58 440.321L565.871 440.342L577.721 440.404V425.389L569.332 425.41V428.031H559.58V440.321ZM559.58 736.611H569.332V739.233H577.721V739.359V724.238H565.871L559.58 724.217V736.611ZM737.212 739.317H745.6V724.238H737.212V739.317ZM577.721 573.995L577.93 561.412H565.871V573.995H577.721ZM653.324 572.947H661.713V561.412H653.324V572.947ZM654.373 498.497H660.664V492.205H654.373V498.497ZM821.623 572.381H830.012V563.027H821.623V572.381ZM558.531 580.601H559.58V572.737H558.531V580.601ZM401.452 371.092H408.058V362.704H401.452V371.092Z" fill="#F5F5F5"/>
<path d="M663.684 633.891L731.235 633.744M731.235 633.744V630.724L663.684 630.871M731.235 633.744H735.114V629.864H731.235V633.744ZM654.373 672.123H660.664V665.831H654.373V672.123ZM737.212 576.554L747.278 576.575V561.412H737.212V576.554ZM731.235 665.517H735.114V661.637H731.235V665.517ZM731.235 696.87H735.114V692.99H731.235V696.87ZM737.212 440.404H745.6V425.472H737.212V440.404ZM559.58 440.321L565.871 440.342L577.721 440.404V425.389L569.332 425.41V428.031H559.58V440.321ZM559.58 736.611H569.332V739.233H577.721V739.359V724.238H565.871L559.58 724.217V736.611ZM737.212 739.317H745.6V724.238H737.212V739.317ZM577.721 573.995L577.93 561.412H565.871V573.995H577.721ZM653.324 572.947H661.713V561.412H653.324V572.947ZM654.373 498.497H660.664V492.205H654.373V498.497ZM821.623 572.381H830.012V563.027H821.623V572.381ZM558.531 580.601H559.58V572.737H558.531V580.601ZM401.452 371.092H408.058V362.704H401.452V371.092Z" stroke="black" stroke-width="2.09719" stroke-miterlimit="10" stroke-linecap="square"/>
<path d="M1588.63 429.393V505.207H1590.56V516.532H1588.82V640.245H1590.56V646.872H1750.05V640.245H1752.19V516.532H1750.05V505.207H1752V429.393H1588.63Z" fill="#F5F5F5" stroke="black" stroke-width="2.09719" stroke-miterlimit="10" stroke-linecap="square"/>
<path d="M577.72 573.995H565.871V597.819H663.474L663.683 600.839V630.87L731.234 630.724V629.864H735.114V630.724H737.337V597.798H740.357V617.574H771.269V576.574H737.211V561.412H737.337V440.404H737.211V431.763L577.72 431.68V440.404L565.871 440.341V561.412H577.929L577.72 573.995Z" fill="#F5F5F5" stroke="black" stroke-width="2.09719" stroke-miterlimit="10" stroke-linecap="square"/>
<path d="M737.337 633.744L663.683 633.891V642.992H565.871V724.217L577.72 724.237V731.703L737.211 731.683V724.237H737.337V633.744Z" fill="#F5F5F5" stroke="black" stroke-width="2.09719" stroke-miterlimit="10" stroke-linecap="square"/>
<path d="M264.925 371.092V488.744H392.916V371.092H264.925Z" fill="#F5F5F5" stroke="black" stroke-width="2.09719" stroke-miterlimit="10" stroke-linecap="square"/>
<path d="M432.595 279.655H264.925V367.946H401.452V362.703H408.058V367.946H432.595V279.655Z" fill="#F5F5F5" stroke="black" stroke-width="2.09719" stroke-miterlimit="10" stroke-linecap="square"/>
<path d="M396.944 572.946H526.571L526.592 578.608H558.532V572.736H559.581V538.971H432.596V371.092H396.063V488.765H396.944V572.946Z" fill="#F5F5F5" stroke="black" stroke-width="2.09719" stroke-miterlimit="10" stroke-linecap="square"/>
<path d="M439.202 438.517V535.952H559.581V438.517H439.202Z" fill="#F5F5F5" stroke="black" stroke-width="2.09719" stroke-miterlimit="10" stroke-linecap="square"/>
<path d="M559.581 365.136V278.291H439.202V365.136H559.581Z" fill="#F5F5F5" stroke="black" stroke-width="2.09719" stroke-miterlimit="10" stroke-linecap="square"/>
<path d="M526.571 580.601H508.031V605.767H525.711V640.476H488.486V697.037H559.58V580.601H526.571Z" fill="#F5F5F5" stroke="black" stroke-width="2.09719" stroke-miterlimit="10" stroke-linecap="square"/>
<path d="M1643.58 426.877H1752V381.473H1750.05V376.23L1643.55 375.559L1643.58 426.877Z" fill="#F5F5F5" stroke="black" stroke-width="2.09719" stroke-miterlimit="10" stroke-linecap="square"/>
<path d="M774.291 617.595V620.615H740.358V660.462H823.847V620.615H814.284V616.421H823.847V576.574H774.291V617.595Z" fill="#F5F5F5" stroke="black" stroke-width="2.09719" stroke-miterlimit="10" stroke-linecap="square"/>
<path d="M328.512 491.89H264.925V572.946H328.512V491.89Z" fill="#F5F5F5" stroke="black" stroke-width="2.09719" stroke-miterlimit="10" stroke-linecap="square"/>
<path d="M425.36 580.601V637.33H522.565V608.913H461.537V580.601H425.36Z" fill="#F5F5F5" stroke="black" stroke-width="2.09719" stroke-miterlimit="10" stroke-linecap="square"/>
<path d="M660.664 600.839H565.871V639.972H660.664V600.839Z" fill="#F5F5F5" stroke="black" stroke-width="2.09719" stroke-miterlimit="10" stroke-linecap="square"/>
<path d="M488.276 640.475H425.36V697.016H488.276V640.475Z" fill="#F5F5F5" stroke="black" stroke-width="2.09719" stroke-miterlimit="10" stroke-linecap="square"/>
<path d="M492.932 368.156H439.202V428.031H492.932V368.156Z" fill="#F5F5F5" stroke="black" stroke-width="2.09719" stroke-miterlimit="10" stroke-linecap="square"/>
<path d="M394.425 491.89H356.613V572.946H394.425V491.89Z" fill="#F5F5F5" stroke="black" stroke-width="2.09719" stroke-miterlimit="10" stroke-linecap="square"/>
<path d="M1590.56 381.473H1588.61V426.877H1641.04V375.559H1590.56V381.473Z" fill="#F5F5F5" stroke="black" stroke-width="2.09719" stroke-miterlimit="10" stroke-linecap="square"/>
<path d="M559.579 397.538V368.156H495.951V397.538H559.579Z" fill="#F5F5F5" stroke="black" stroke-width="2.09719" stroke-miterlimit="10" stroke-linecap="square"/>
<path d="M559.579 428.03V400.557H495.951V428.03H559.579Z" fill="#F5F5F5" stroke="black" stroke-width="2.09719" stroke-miterlimit="10" stroke-linecap="square"/>
<path d="M464.682 580.601V605.767H508.031V580.601H464.682Z" fill="#F5F5F5" stroke="black" stroke-width="2.09719" stroke-miterlimit="10" stroke-linecap="square"/>
<path d="M1748.73 619.127V573.555H1725.74V619.127H1748.73Z" fill="#F5F5F5" stroke="black" stroke-width="2.09719" stroke-miterlimit="10" stroke-linecap="square"/>
<path d="M354.097 491.89H331.028V534.589H354.097V491.89Z" fill="#F5F5F5" stroke="black" stroke-width="2.09719" stroke-miterlimit="10" stroke-linecap="square"/>
<path d="M331.028 537.084V572.946H354.097V537.084H331.028Z" fill="#F5F5F5" stroke="black" stroke-width="2.09719" stroke-miterlimit="10" stroke-linecap="square"/>
<path d="M1588.63 429.393V505.207H1590.56V516.532H1588.82V640.245H1590.56V646.872H1750.05V640.245H1752.19V516.532H1750.05V505.207H1752V429.393H1588.63Z" fill="#F5F5F5" stroke="black" stroke-width="2.09719" stroke-miterlimit="10" stroke-linecap="square"/>
<path d="M577.72 573.995H565.871V597.819H663.474L663.683 600.839V630.87L731.234 630.724V629.864H735.114V630.724H737.337V597.798H740.357V617.574H771.269V576.574H737.211V561.412H737.337V440.404H737.211V431.763L577.72 431.68V440.404L565.871 440.341V561.412H577.929L577.72 573.995Z" fill="#F5F5F5" stroke="black" stroke-width="2.09719" stroke-miterlimit="10" stroke-linecap="square"/>
<path d="M737.337 633.744L663.683 633.891V642.992H565.871V724.217L577.72 724.237V731.703L737.211 731.683V724.237H737.337V633.744Z" fill="#F5F5F5" stroke="black" stroke-width="2.09719" stroke-miterlimit="10" stroke-linecap="square"/>
<path d="M264.925 371.092V488.744H392.916V371.092H264.925Z" fill="#F5F5F5" stroke="black" stroke-width="2.09719" stroke-miterlimit="10" stroke-linecap="square"/>
<path d="M432.595 279.655H264.925V367.946H401.452V362.703H408.058V367.946H432.595V279.655Z" fill="#F5F5F5" stroke="black" stroke-width="2.09719" stroke-miterlimit="10" stroke-linecap="square"/>
<path d="M396.944 572.946H526.571L526.592 578.608H558.532V572.736H559.581V538.971H432.596V371.092H396.063V488.765H396.944V572.946Z" fill="#F5F5F5" stroke="black" stroke-width="2.09719" stroke-miterlimit="10" stroke-linecap="square"/>
<path d="M439.202 438.517V535.952H559.581V438.517H439.202Z" fill="#F5F5F5" stroke="black" stroke-width="2.09719" stroke-miterlimit="10" stroke-linecap="square"/>
<path d="M559.581 365.136V278.291H439.202V365.136H559.581Z" fill="#F5F5F5" stroke="black" stroke-width="2.09719" stroke-miterlimit="10" stroke-linecap="square"/>
<path d="M526.571 580.601H508.031V605.767H525.711V640.476H488.486V697.037H559.58V580.601H526.571Z" fill="#F5F5F5" stroke="black" stroke-width="2.09719" stroke-miterlimit="10" stroke-linecap="square"/>
<path d="M1643.58 426.877H1752V381.473H1750.05V376.23L1643.55 375.559L1643.58 426.877Z" fill="#F5F5F5" stroke="black" stroke-width="2.09719" stroke-miterlimit="10" stroke-linecap="square"/>
<path d="M774.291 617.595V620.615H740.358V660.462H823.847V620.615H814.284V616.421H823.847V576.574H774.291V617.595Z" fill="#F5F5F5" stroke="black" stroke-width="2.09719" stroke-miterlimit="10" stroke-linecap="square"/>
<path d="M328.512 491.89H264.925V572.946H328.512V491.89Z" fill="#F5F5F5" stroke="black" stroke-width="2.09719" stroke-miterlimit="10" stroke-linecap="square"/>
<path d="M425.36 580.601V637.33H522.565V608.913H461.537V580.601H425.36Z" fill="#F5F5F5" stroke="black" stroke-width="2.09719" stroke-miterlimit="10" stroke-linecap="square"/>
<path d="M660.664 600.839H565.871V639.972H660.664V600.839Z" fill="#F5F5F5" stroke="black" stroke-width="2.09719" stroke-miterlimit="10" stroke-linecap="square"/>
<path d="M488.276 640.475H425.36V697.016H488.276V640.475Z" fill="#F5F5F5" stroke="black" stroke-width="2.09719" stroke-miterlimit="10" stroke-linecap="square"/>
<path d="M492.932 368.156H439.202V428.031H492.932V368.156Z" fill="#F5F5F5" stroke="black" stroke-width="2.09719" stroke-miterlimit="10" stroke-linecap="square"/>
<path d="M394.425 491.89H356.613V572.946H394.425V491.89Z" fill="#F5F5F5" stroke="black" stroke-width="2.09719" stroke-miterlimit="10" stroke-linecap="square"/>
<path d="M1590.56 381.473H1588.61V426.877H1641.04V375.559H1590.56V381.473Z" fill="#F5F5F5" stroke="black" stroke-width="2.09719" stroke-miterlimit="10" stroke-linecap="square"/>
<path d="M559.579 397.538V368.156H495.951V397.538H559.579Z" fill="#F5F5F5" stroke="black" stroke-width="2.09719" stroke-miterlimit="10" stroke-linecap="square"/>
<path d="M559.579 428.03V400.557H495.951V428.03H559.579Z" fill="#F5F5F5" stroke="black" stroke-width="2.09719" stroke-miterlimit="10" stroke-linecap="square"/>
<path d="M464.682 580.601V605.767H508.031V580.601H464.682Z" fill="#F5F5F5" stroke="black" stroke-width="2.09719" stroke-miterlimit="10" stroke-linecap="square"/>
<path d="M1748.73 619.127V573.555H1725.74V619.127H1748.73Z" fill="#F5F5F5" stroke="black" stroke-width="2.09719" stroke-miterlimit="10" stroke-linecap="square"/>
<path d="M354.097 491.89H331.028V534.589H354.097V491.89Z" fill="#F5F5F5" stroke="black" stroke-width="2.09719" stroke-miterlimit="10" stroke-linecap="square"/>
<path d="M331.028 537.084V572.946H354.097V537.084H331.028Z" fill="#F5F5F5" stroke="black" stroke-width="2.09719" stroke-miterlimit="10" stroke-linecap="square"/>
</svg>
