<?xml version="1.0" encoding="UTF-8"?>
<svg version="1.1" xmlns="http://www.w3.org/2000/svg" width="2048" height="2048">
<path d="M0 0 C1.6560823 -0.00067722 3.3121645 -0.00165068 4.96824646 -0.00289917 C8.40421515 -0.00435611 11.84015748 -0.00228698 15.27612305 0.00244141 C19.62443672 0.00814198 23.97268867 0.00484463 28.3210001 -0.00113106 C31.72987818 -0.00478763 35.13874222 -0.00357509 38.54762077 -0.00100327 C40.14878281 -0.00034823 41.74994623 -0.00111094 43.35110664 -0.00348282 C57.59114817 -0.01996447 71.85644788 0.32112614 85.99609375 2.1328125 C87.39449421 2.30888817 88.79293142 2.48467227 90.19140625 2.66015625 C91.42632813 2.81613281 92.66125 2.97210938 93.93359375 3.1328125 C95.74566326 3.32442821 97.55807944 3.51285259 99.37109375 3.6953125 C102.93359375 4.1328125 102.93359375 4.1328125 104.93359375 5.1328125 C108.58576257 5.60358552 112.2381526 6.00201115 115.90039062 6.3828125 C121.83196384 7.03118259 121.83196384 7.03118259 122.93359375 8.1328125 C124.24954271 8.40439288 125.57658853 8.62281403 126.90625 8.81640625 C127.72416016 8.93951172 128.54207031 9.06261719 129.38476562 9.18945312 C130.24650391 9.31513672 131.10824219 9.44082031 131.99609375 9.5703125 C137.38620553 10.35697746 142.66915611 11.22605259 147.93969727 12.61303711 C150.08449728 13.17215052 152.23759872 13.67461487 154.3984375 14.16796875 C155.13513672 14.33748047 155.87183594 14.50699219 156.63085938 14.68164062 C158.1511795 15.03024062 159.67203378 15.3765176 161.19335938 15.72070312 C166.82291367 17.02213242 166.82291367 17.02213242 167.93359375 18.1328125 C171.42019907 18.67588322 174.91646049 19.09929905 178.41796875 19.53515625 C181.57241844 20.0714127 184.01523604 20.88349862 186.93359375 22.1328125 C188.32213911 22.45740752 189.71862249 22.74994724 191.12109375 23.0078125 C195.47328712 23.92444361 199.38678346 25.42600561 203.484375 27.1328125 C207.23784825 28.66533108 211.07814913 29.88477344 214.93359375 31.1328125 C219.94047325 32.77932911 224.93915349 34.44904761 229.93359375 36.1328125 C230.74957031 36.40673828 231.56554688 36.68066406 232.40625 36.96289062 C250.18945738 42.95768225 250.18945738 42.95768225 257.546875 46.93359375 C262.49104976 49.41781904 267.7466964 51.22227821 272.93359375 53.1328125 C272.93359375 53.7928125 272.93359375 54.4528125 272.93359375 55.1328125 C273.92746094 55.22046875 274.92132812 55.308125 275.9453125 55.3984375 C280.34802158 56.03134768 283.85134484 57.81266468 287.74609375 59.8828125 C288.44025391 60.24117187 289.13441406 60.59953125 289.84960938 60.96875 C291.23583594 61.68438785 292.6201697 62.40370589 294.00244141 63.12695312 C296.6297741 64.49542477 299.28025999 65.81560829 301.93359375 67.1328125 C303.26692708 67.79947917 304.60026042 68.46614583 305.93359375 69.1328125 C305.93359375 69.7928125 305.93359375 70.4528125 305.93359375 71.1328125 C306.71734375 71.2565625 307.50109375 71.3803125 308.30859375 71.5078125 C310.93359375 72.1328125 310.93359375 72.1328125 312.93359375 74.1328125 C314.57914649 74.86941972 316.2495474 75.55155641 317.93359375 76.1953125 C322.83232793 78.08217959 322.83232793 78.08217959 324.93359375 79.1328125 C324.93359375 79.7928125 324.93359375 80.4528125 324.93359375 81.1328125 C327.40859375 81.6278125 327.40859375 81.6278125 329.93359375 82.1328125 C329.93359375 82.7928125 329.93359375 83.4528125 329.93359375 84.1328125 C330.71734375 84.3390625 331.50109375 84.5453125 332.30859375 84.7578125 C337.18094677 86.6059464 341.7128602 89.0631881 345.93359375 92.1328125 C345.93359375 92.7928125 345.93359375 93.4528125 345.93359375 94.1328125 C346.65417969 94.2359375 347.37476563 94.3390625 348.1171875 94.4453125 C356.59946658 96.51588271 364.11560294 103.70935095 370.91796875 108.91796875 C374.78915604 111.76118532 378.82798503 114.26039373 382.94921875 116.72265625 C383.6040625 117.18800781 384.25890625 117.65335937 384.93359375 118.1328125 C384.93359375 118.7928125 384.93359375 119.4528125 384.93359375 120.1328125 C385.495625 120.4009375 386.05765625 120.6690625 386.63671875 120.9453125 C389.08910021 122.2132104 391.37287058 123.62253592 393.68359375 125.1328125 C394.4828125 125.6484375 395.28203125 126.1640625 396.10546875 126.6953125 C396.70875 127.1696875 397.31203125 127.6440625 397.93359375 128.1328125 C397.93359375 128.7928125 397.93359375 129.4528125 397.93359375 130.1328125 C398.69671875 130.4215625 399.45984375 130.7103125 400.24609375 131.0078125 C402.93359375 132.1328125 402.93359375 132.1328125 405.93359375 134.1328125 C405.93359375 134.7928125 405.93359375 135.4528125 405.93359375 136.1328125 C408.40859375 137.1228125 408.40859375 137.1228125 410.93359375 138.1328125 C410.93359375 138.7928125 410.93359375 139.4528125 410.93359375 140.1328125 C411.48015625 140.37128906 412.02671875 140.60976563 412.58984375 140.85546875 C415.51521522 142.4497962 417.87897708 144.4332774 420.43359375 146.5703125 C424.27486764 149.78619546 424.27486764 149.78619546 428.27734375 152.79296875 C428.82390625 153.23511719 429.37046875 153.67726563 429.93359375 154.1328125 C429.93359375 154.7928125 429.93359375 155.4528125 429.93359375 156.1328125 C430.83078125 156.5659375 430.83078125 156.5659375 431.74609375 157.0078125 C433.93359375 158.1328125 433.93359375 158.1328125 436.93359375 160.1328125 C436.93359375 160.7928125 436.93359375 161.4528125 436.93359375 162.1328125 C437.92359375 162.4628125 438.91359375 162.7928125 439.93359375 163.1328125 C441.27255007 164.79496518 442.60489517 166.46244857 443.93359375 168.1328125 C444.99814313 169.05088825 446.08210615 169.94689763 447.18359375 170.8203125 C448.09109375 171.5834375 448.99859375 172.3465625 449.93359375 173.1328125 C449.93359375 173.7928125 449.93359375 174.4528125 449.93359375 175.1328125 C450.95453125 175.3803125 450.95453125 175.3803125 451.99609375 175.6328125 C457.02193563 178.19919984 461.14333366 182.76203222 462.93359375 188.1328125 C464.25981084 188.8135257 465.59468998 189.47740506 466.93359375 190.1328125 C468.56491646 191.58047636 470.14639583 193.08556753 471.68359375 194.6328125 C472.4828125 195.426875 473.28203125 196.2209375 474.10546875 197.0390625 C475.93359375 199.1328125 475.93359375 199.1328125 475.93359375 201.1328125 C476.59359375 201.1328125 477.25359375 201.1328125 477.93359375 201.1328125 C478.05734375 202.0609375 478.05734375 202.0609375 478.18359375 203.0078125 C478.71179069 205.29161951 478.71179069 205.29161951 480.7890625 206.05078125 C483.1850196 207.25967035 484.32180548 208.49419505 485.99609375 210.5703125 C487.48151345 212.39458125 488.9093293 214.10978661 490.6171875 215.73046875 C491.93359375 217.1328125 491.93359375 217.1328125 491.93359375 219.1328125 C492.59359375 219.1328125 493.25359375 219.1328125 493.93359375 219.1328125 C495.22265625 220.59375 495.22265625 220.59375 496.55859375 222.5078125 C497.22761719 223.44753906 497.22761719 223.44753906 497.91015625 224.40625 C498.93359375 226.1328125 498.93359375 226.1328125 498.93359375 228.1328125 C499.92359375 228.4628125 500.91359375 228.7928125 501.93359375 229.1328125 C501.93359375 229.7928125 501.93359375 230.4528125 501.93359375 231.1328125 C502.59359375 231.1328125 503.25359375 231.1328125 503.93359375 231.1328125 C504.26359375 232.4528125 504.59359375 233.7728125 504.93359375 235.1328125 C505.59359375 235.1328125 506.25359375 235.1328125 506.93359375 235.1328125 C508.22265625 236.59375 508.22265625 236.59375 509.55859375 238.5078125 C510.22761719 239.44753906 510.22761719 239.44753906 510.91015625 240.40625 C511.93359375 242.1328125 511.93359375 242.1328125 511.93359375 244.1328125 C512.92359375 244.4628125 513.91359375 244.7928125 514.93359375 245.1328125 C517.93359375 249.46614583 517.93359375 249.46614583 517.93359375 252.1328125 C518.59359375 252.1328125 519.25359375 252.1328125 519.93359375 252.1328125 C521.1171875 253.77734375 521.1171875 253.77734375 522.37109375 255.9453125 C523.99917814 258.74725083 525.60558959 260.88859255 527.93359375 263.1328125 C531.78000315 267.77792987 534.8676658 272.63936653 537.69921875 277.953125 C538.92287942 280.11389288 540.27175445 282.07415649 541.74609375 284.0703125 C543.93359375 287.1328125 543.93359375 287.1328125 543.93359375 289.1328125 C544.59359375 289.1328125 545.25359375 289.1328125 545.93359375 289.1328125 C547.27490136 291.39926308 548.60675609 293.67041347 549.93359375 295.9453125 C550.31515625 296.58791016 550.69671875 297.23050781 551.08984375 297.89257812 C553.93359375 302.79296875 553.93359375 302.79296875 553.93359375 306.1328125 C554.59359375 306.1328125 555.25359375 306.1328125 555.93359375 306.1328125 C556.22492188 306.66648437 556.51625 307.20015625 556.81640625 307.75 C559.66263435 312.92333284 562.64866669 317.97285269 565.796875 322.96875 C566.93359375 325.1328125 566.93359375 325.1328125 566.93359375 328.1328125 C567.59359375 328.1328125 568.25359375 328.1328125 568.93359375 328.1328125 C570.27637107 330.8991659 571.60614603 333.67157461 572.93359375 336.4453125 C573.5059375 337.62383789 573.5059375 337.62383789 574.08984375 338.82617188 C574.45078125 339.58349609 574.81171875 340.34082031 575.18359375 341.12109375 C575.51875 341.81759033 575.85390625 342.51408691 576.19921875 343.23168945 C576.93359375 345.1328125 576.93359375 345.1328125 576.93359375 348.1328125 C577.59359375 348.1328125 578.25359375 348.1328125 578.93359375 348.1328125 C579.26359375 350.1128125 579.59359375 352.0928125 579.93359375 354.1328125 C580.59359375 354.1328125 581.25359375 354.1328125 581.93359375 354.1328125 C585.94132564 362.43037392 589.894405 370.61939998 592.8828125 379.34765625 C594.17185593 382.76434013 595.72899774 386.03163846 597.30859375 389.3203125 C603.51749086 402.30149121 608.12425522 415.91904787 612.171875 429.7109375 C612.89360408 432.00566586 613.72733173 434.21300548 614.62109375 436.4453125 C615.77826181 439.69640372 616.25092426 441.74795374 615.93359375 445.1328125 C616.59359375 445.1328125 617.25359375 445.1328125 617.93359375 445.1328125 C620.43399727 453.06056249 622.8072506 461.02386667 625.12109375 469.0078125 C625.38293457 469.89879639 625.64477539 470.78978027 625.91455078 471.70776367 C628.08745187 479.25912581 629.07127155 486.28517799 628.93359375 494.1328125 C629.59359375 494.1328125 630.25359375 494.1328125 630.93359375 494.1328125 C631.26359375 498.4228125 631.59359375 502.7128125 631.93359375 507.1328125 C632.59359375 507.1328125 633.25359375 507.1328125 633.93359375 507.1328125 C634.05476563 507.9784375 634.1759375 508.8240625 634.30078125 509.6953125 C634.46835938 510.8296875 634.6359375 511.9640625 634.80859375 513.1328125 C634.97101563 514.2465625 635.1334375 515.3603125 635.30078125 516.5078125 C635.88545393 520.15120908 635.88545393 520.15120908 636.875 523.73828125 C638.37649243 529.55796504 639.13611571 535.50394329 639.99609375 541.4453125 C640.16947266 542.60482422 640.34285156 543.76433594 640.52148438 544.95898438 C641.44744731 551.27043287 642.21526385 557.55233431 642.68530273 563.91479492 C642.87459658 566.30369737 642.87459658 566.30369737 643.93359375 569.1328125 C644.1433258 571.66689272 644.30786578 574.18436209 644.43359375 576.72265625 C644.47419922 577.46359024 644.51480469 578.20452423 644.55664062 578.96791077 C644.68622545 581.33518569 644.81051301 583.70269105 644.93359375 586.0703125 C645.0958134 589.1838525 645.26320614 592.29705384 645.43359375 595.41015625 C645.46904297 596.12380844 645.50449219 596.83746063 645.54101562 597.57273865 C645.72379679 601.31548489 645.72379679 601.31548489 646.44308472 604.97988892 C647.06963947 607.72993919 647.06087032 610.28614863 647.06298828 613.10717773 C647.06771652 614.91441566 647.06771652 614.91441566 647.07254028 616.75816345 C647.07051605 618.05613358 647.06849182 619.3541037 647.06640625 620.69140625 C647.06708028 622.04134641 647.06805114 623.39128645 647.06930542 624.7412262 C647.07077822 627.56813718 647.0686416 630.39501653 647.06396484 633.22192383 C647.05827327 636.83769729 647.06154557 640.45339642 647.06753731 644.06916714 C647.07115886 646.85647639 647.06999691 649.64376816 647.06740952 652.43107796 C647.06642181 654.41022414 647.06944892 656.389371 647.07254028 658.36851501 C647.06938812 659.57649246 647.06623596 660.78446991 647.06298828 662.02905273 C647.06179489 663.61978859 647.06179489 663.61978859 647.06057739 665.24266052 C646.94005153 667.98583318 646.52589097 670.45789464 645.93359375 673.1328125 C645.80433944 674.84143461 645.71215101 676.55316499 645.65234375 678.265625 C645.59626953 679.72355469 645.59626953 679.72355469 645.5390625 681.2109375 C645.50425781 682.21640625 645.46945312 683.221875 645.43359375 684.2578125 C644.67564883 705.64870233 644.67564883 705.64870233 642.93359375 709.1328125 C642.67780427 710.86570386 642.46947495 712.6057127 642.28515625 714.34765625 C642.16833496 715.41830322 642.05151367 716.4889502 641.93115234 717.59204102 C641.80820801 718.73987061 641.68526367 719.8877002 641.55859375 721.0703125 C640.62476423 729.47070793 639.62243585 737.84513425 638.30859375 746.1953125 C638.18564941 746.99122803 638.06270508 747.78714355 637.93603516 748.60717773 C637.06190076 754.00450549 637.06190076 754.00450549 635.93359375 755.1328125 C635.60318401 757.04318156 635.320542 758.96185866 635.05859375 760.8828125 C632.27697896 779.78942729 632.27697896 779.78942729 629.93359375 782.1328125 C629.43533645 784.71414547 628.98366423 787.28929879 628.55859375 789.8828125 C626.79357571 800.18217376 624.96320284 810.14446621 620.83984375 819.796875 C619.66892938 822.81500774 619.05653786 825.83858521 618.41796875 829.00390625 C617.80586363 831.69420697 616.85529289 834.22416924 615.84765625 836.7890625 C612.96713794 844.17500687 610.3351629 851.6457252 608.12109375 859.2578125 C604.63815571 870.84857352 599.73487598 882.0345215 594.93359375 893.1328125 C594.27359375 893.1328125 593.61359375 893.1328125 592.93359375 893.1328125 C592.83046875 894.14859375 592.72734375 895.164375 592.62109375 896.2109375 C591.91535959 900.2368301 590.72078944 903.22249825 588.93359375 906.8828125 C586.72948973 911.42485633 586.72948973 911.42485633 584.93359375 916.1328125 C584.27359375 916.1328125 583.61359375 916.1328125 582.93359375 916.1328125 C582.89234375 916.9165625 582.85109375 917.7003125 582.80859375 918.5078125 C581.79964973 922.68772342 580.03060308 925.46026258 577.7578125 929.0703125 C574.09782757 935.21469833 571.07908545 941.71430917 567.93359375 948.1328125 C567.26861112 949.46698652 566.60299125 950.80084808 565.93359375 952.1328125 C565.27359375 952.1328125 564.61359375 952.1328125 563.93359375 952.1328125 C563.80791016 953.44765625 563.80791016 953.44765625 563.6796875 954.7890625 C562.82148595 958.63524326 561.43337254 960.56527898 558.99609375 963.6328125 C556.02587301 967.38467028 554.23180884 970.5108949 552.93359375 975.1328125 C552.27359375 975.1328125 551.61359375 975.1328125 550.93359375 975.1328125 C550.87171875 976.1228125 550.87171875 976.1228125 550.80859375 977.1328125 C549.7283613 980.83646663 547.86477102 983.13046137 545.4921875 986.12890625 C544.1037103 987.91409122 542.88293344 989.7183948 541.68359375 991.6328125 C541.10609375 992.4578125 540.52859375 993.2828125 539.93359375 994.1328125 C539.27359375 994.1328125 538.61359375 994.1328125 537.93359375 994.1328125 C537.83949219 994.83792969 537.74539063 995.54304688 537.6484375 996.26953125 C536.80266338 999.65724947 535.38345382 1002.01421484 533.49609375 1004.9453125 C532.56990234 1006.40904297 532.56990234 1006.40904297 531.625 1007.90234375 C530.78775391 1009.00642578 530.78775391 1009.00642578 529.93359375 1010.1328125 C529.27359375 1010.1328125 528.61359375 1010.1328125 527.93359375 1010.1328125 C527.60359375 1011.4528125 527.27359375 1012.7728125 526.93359375 1014.1328125 C526.27359375 1014.1328125 525.61359375 1014.1328125 524.93359375 1014.1328125 C524.66546875 1014.8753125 524.39734375 1015.6178125 524.12109375 1016.3828125 C522.98082624 1019.02343199 521.83979069 1020.98834094 519.93359375 1023.1328125 C519.27359375 1023.1328125 518.61359375 1023.1328125 517.93359375 1023.1328125 C517.60359375 1024.4528125 517.27359375 1025.7728125 516.93359375 1027.1328125 C516.27359375 1027.1328125 515.61359375 1027.1328125 514.93359375 1027.1328125 C514.83949219 1027.69484375 514.74539063 1028.256875 514.6484375 1028.8359375 C513.75765285 1031.69813081 512.34487493 1033.53051711 510.49609375 1035.8828125 C509.87863281 1036.68203125 509.26117187 1037.48125 508.625 1038.3046875 C507.78775391 1039.20960938 507.78775391 1039.20960938 506.93359375 1040.1328125 C506.27359375 1040.1328125 505.61359375 1040.1328125 504.93359375 1040.1328125 C504.60359375 1041.1228125 504.27359375 1042.1128125 503.93359375 1043.1328125 C503.27359375 1043.1328125 502.61359375 1043.1328125 501.93359375 1043.1328125 C501.53140625 1043.97585938 501.53140625 1043.97585938 501.12109375 1044.8359375 C499.85319585 1047.28831896 498.44387033 1049.57208933 496.93359375 1051.8828125 C496.41796875 1052.68203125 495.90234375 1053.48125 495.37109375 1054.3046875 C494.65953125 1055.20960938 494.65953125 1055.20960938 493.93359375 1056.1328125 C493.27359375 1056.1328125 492.61359375 1056.1328125 491.93359375 1056.1328125 C491.60101562 1056.94298828 491.60101562 1056.94298828 491.26171875 1057.76953125 C489.50041228 1060.9036207 487.13950549 1063.35325649 484.68359375 1065.9453125 C483.68908217 1067.00815922 482.69558605 1068.07195705 481.703125 1069.13671875 C481.22568848 1069.6486377 480.74825195 1070.16055664 480.25634766 1070.68798828 C478.56498156 1072.53544206 476.96386833 1074.45014061 475.37109375 1076.3828125 C474.56671875 1077.2903125 473.76234375 1078.1978125 472.93359375 1079.1328125 C472.27359375 1079.1328125 471.61359375 1079.1328125 470.93359375 1079.1328125 C470.93359375 1079.7928125 470.93359375 1080.4528125 470.93359375 1081.1328125 C469.55859375 1082.7578125 469.55859375 1082.7578125 467.93359375 1084.1328125 C467.27359375 1084.1328125 466.61359375 1084.1328125 465.93359375 1084.1328125 C465.60359375 1085.1228125 465.27359375 1086.1128125 464.93359375 1087.1328125 C464.27359375 1087.1328125 463.61359375 1087.1328125 462.93359375 1087.1328125 C462.70671875 1087.6896875 462.47984375 1088.2465625 462.24609375 1088.8203125 C459.81939121 1093.09593127 456.50109002 1096.27198069 451.93359375 1098.1328125 C451.93359375 1098.7928125 451.93359375 1099.4528125 451.93359375 1100.1328125 C450.52161557 1101.32015779 449.10544703 1102.5047119 447.63671875 1103.62109375 C445.78788425 1105.1716256 445.78788425 1105.1716256 444.05078125 1107.53125 C441.84208766 1110.24525356 439.5470709 1112.27496718 436.80859375 1114.4453125 C435.93976563 1115.14269531 435.0709375 1115.84007812 434.17578125 1116.55859375 C431.93359375 1118.1328125 431.93359375 1118.1328125 429.93359375 1118.1328125 C429.60359375 1119.1228125 429.27359375 1120.1128125 428.93359375 1121.1328125 C428.27359375 1121.1328125 427.61359375 1121.1328125 426.93359375 1121.1328125 C426.60359375 1122.1228125 426.27359375 1123.1128125 425.93359375 1124.1328125 C423.74609375 1126.1484375 423.74609375 1126.1484375 420.93359375 1128.3828125 C419.94359375 1129.17171875 418.95359375 1129.960625 417.93359375 1130.7734375 C416.94359375 1131.55203125 415.95359375 1132.330625 414.93359375 1133.1328125 C413.63421875 1134.17695313 413.63421875 1134.17695313 412.30859375 1135.2421875 C406.33169802 1140.00011108 406.33169802 1140.00011108 402.93359375 1141.1328125 C402.93359375 1141.7928125 402.93359375 1142.4528125 402.93359375 1143.1328125 C401.25893519 1144.51418585 399.51670243 1145.81427966 397.74609375 1147.0703125 C396.78316406 1147.75996094 395.82023437 1148.44960937 394.828125 1149.16015625 C387.53161355 1154.1328125 387.53161355 1154.1328125 384.93359375 1154.1328125 C384.93359375 1154.7928125 384.93359375 1155.4528125 384.93359375 1156.1328125 C382.71783241 1157.91312341 380.50632559 1159.56617419 378.18359375 1161.1953125 C377.549375 1161.65486328 376.91515625 1162.11441406 376.26171875 1162.58789062 C373.14305798 1164.80019061 370.72860226 1166.36373647 366.93359375 1167.1328125 C366.93359375 1167.7928125 366.93359375 1168.4528125 366.93359375 1169.1328125 C364.77187452 1170.55556104 362.6174821 1171.85581081 360.37109375 1173.1328125 C354.85230913 1176.342052 349.51084215 1179.71035606 344.24609375 1183.3203125 C338.80755231 1187.02701995 333.29397833 1190.17110171 327.32421875 1192.9765625 C324.76088064 1194.14895296 324.76088064 1194.14895296 321.93359375 1196.1328125 C320.94359375 1196.1328125 319.95359375 1196.1328125 318.93359375 1196.1328125 C318.93359375 1196.7928125 318.93359375 1197.4528125 318.93359375 1198.1328125 C317.67289063 1198.75349609 317.67289063 1198.75349609 316.38671875 1199.38671875 C313.42104363 1200.88633049 310.49807873 1202.44563989 307.58129883 1204.03759766 C301.96194173 1207.09560364 296.42315862 1209.88816753 290.41796875 1212.125 C286.30872383 1213.79195784 282.42076465 1215.8957629 278.5 1217.9609375 C275.93359375 1219.1328125 275.93359375 1219.1328125 272.93359375 1219.1328125 C272.93359375 1219.7928125 272.93359375 1220.4528125 272.93359375 1221.1328125 C270.2718194 1222.29128929 267.60506969 1223.43460185 264.93359375 1224.5703125 C264.18980469 1224.89580078 263.44601562 1225.22128906 262.6796875 1225.55664062 C257.70127818 1227.65623064 253.32307567 1228.6979793 247.93359375 1229.1328125 C247.93359375 1229.7928125 247.93359375 1230.4528125 247.93359375 1231.1328125 C247.03898437 1231.44734375 246.144375 1231.761875 245.22265625 1232.0859375 C239.67000928 1234.05126671 234.13115206 1236.01265269 228.68359375 1238.2578125 C224.56110576 1239.9421239 220.39352439 1241.24626856 216.1171875 1242.48046875 C213.65230745 1243.21684615 211.30723303 1244.14379614 208.93359375 1245.1328125 C204.23208331 1246.9238641 199.56585549 1247.78414113 194.6171875 1248.5703125 C191.86537639 1249.14711134 189.53592258 1250.07791914 186.93359375 1251.1328125 C184.48324543 1251.82825504 182.023978 1252.49271273 179.55859375 1253.1328125 C175.79181895 1254.1147823 172.03706286 1255.10255057 168.30078125 1256.1953125 C165.33956416 1257.0197813 162.46288202 1257.6338709 159.43359375 1258.1328125 C155.1587052 1258.87903797 151.1058671 1259.93063204 146.93359375 1261.1328125 C136.7586873 1263.59157304 126.62819875 1265.06904902 116.24609375 1266.2578125 C114.81308348 1266.42781689 113.38014035 1266.59838821 111.94726562 1266.76953125 C104.96095576 1267.59601043 97.97799189 1268.35196285 90.96166992 1268.88232422 C88.86835119 1269.02618245 88.86835119 1269.02618245 86.93359375 1270.1328125 C84.70573923 1270.34551666 82.47246771 1270.50246798 80.23828125 1270.6328125 C79.57200714 1270.67341797 78.90573303 1270.71402344 78.2192688 1270.75585938 C76.08260013 1270.88562479 73.94565245 1271.00965018 71.80859375 1271.1328125 C69.69300461 1271.2565764 67.57751997 1271.38166638 65.46218872 1271.50976562 C63.52689229 1271.62670302 61.59133227 1271.73925378 59.65576172 1271.8515625 C57.15285432 1272.04068419 54.65487442 1272.31042853 52.16870117 1272.65576172 C47.01342391 1273.3266465 41.87101817 1273.27604421 36.6796875 1273.265625 C35.62000259 1273.26658173 34.56031769 1273.26753845 33.46852112 1273.26852417 C31.23886048 1273.26920169 29.00919782 1273.26737741 26.77954102 1273.26318359 C23.37837272 1273.25782397 19.97733614 1273.26314593 16.57617188 1273.26953125 C14.40234346 1273.2688705 12.22851513 1273.26758939 10.0546875 1273.265625 C8.53880287 1273.26866135 8.53880287 1273.26866135 6.99229431 1273.27175903 C1.86104284 1273.25481644 -2.98745943 1272.93849302 -8.06640625 1272.1328125 C-10.69086664 1271.93898134 -13.30649818 1271.76925077 -15.93359375 1271.6328125 C-17.4101609 1271.54956164 -18.88672327 1271.46622592 -20.36328125 1271.3828125 C-22.66756139 1271.25622544 -24.97191236 1271.13117938 -27.27636719 1271.0078125 C-29.51651622 1270.88677448 -31.75629304 1270.76011014 -33.99609375 1270.6328125 C-35.03816483 1270.57963867 -35.03816483 1270.57963867 -36.10128784 1270.52539062 C-40.95321221 1270.24600654 -40.95321221 1270.24600654 -42.06640625 1269.1328125 C-44.56164658 1268.78228565 -47.04160156 1268.48853565 -49.546875 1268.23046875 C-50.31131424 1268.14784286 -51.07575348 1268.06521698 -51.86335754 1267.98008728 C-54.32645026 1267.71435159 -56.79010804 1267.4544191 -59.25390625 1267.1953125 C-88.95776375 1264.04738988 -88.95776375 1264.04738988 -101.06640625 1261.1328125 C-102.67125163 1260.77324797 -104.2767413 1260.4165489 -105.8828125 1260.0625 C-110.27734375 1259.0859375 -114.671875 1258.109375 -119.06640625 1257.1328125 C-119.06640625 1256.4728125 -119.06640625 1255.8128125 -119.06640625 1255.1328125 C-119.68644531 1255.10703125 -120.30648438 1255.08125 -120.9453125 1255.0546875 C-129.33619238 1254.51728035 -137.03323865 1252.46362361 -145.06640625 1250.1328125 C-145.06640625 1249.4728125 -145.06640625 1248.8128125 -145.06640625 1248.1328125 C-146.08347656 1248.07673828 -146.08347656 1248.07673828 -147.12109375 1248.01953125 C-153.82166005 1247.54622255 -159.72499586 1246.2959175 -166.06640625 1244.1328125 C-166.72568115 1243.9177002 -167.38495605 1243.70258789 -168.06420898 1243.48095703 C-173.4033489 1241.73263571 -178.65018796 1239.81131853 -183.87890625 1237.7578125 C-184.66370361 1237.45182129 -185.44850098 1237.14583008 -186.25708008 1236.83056641 C-190.61926209 1235.12185491 -194.94685466 1233.35202429 -199.25390625 1231.5078125 C-206.04951928 1228.6309074 -213.0455002 1226.3867919 -220.06640625 1224.1328125 C-220.06640625 1223.4728125 -220.06640625 1222.8128125 -220.06640625 1222.1328125 C-222.04640625 1221.8028125 -224.02640625 1221.4728125 -226.06640625 1221.1328125 C-226.06640625 1220.4728125 -226.06640625 1219.8128125 -226.06640625 1219.1328125 C-226.91976563 1219.03484375 -227.773125 1218.936875 -228.65234375 1218.8359375 C-232.45456895 1218.05287052 -235.26359224 1216.69521991 -238.69140625 1214.8828125 C-243.22813945 1212.52467843 -247.75671432 1210.3621032 -252.50390625 1208.4453125 C-256.96891652 1206.62863725 -260.9547819 1204.64547183 -265.06640625 1202.1328125 C-266.81478481 1201.06764648 -268.56488858 1200.00530878 -270.31640625 1198.9453125 C-271.1465625 1198.43613281 -271.97671875 1197.92695312 -272.83203125 1197.40234375 C-275.11832075 1196.00788979 -275.11832075 1196.00788979 -278.06640625 1195.1328125 C-278.06640625 1194.4728125 -278.06640625 1193.8128125 -278.06640625 1193.1328125 C-278.83210937 1192.99552734 -278.83210937 1192.99552734 -279.61328125 1192.85546875 C-283.05154468 1191.84260452 -286.1397509 1190.20060818 -289.31640625 1188.5703125 C-289.96609375 1188.24095703 -290.61578125 1187.91160156 -291.28515625 1187.57226562 C-292.88074919 1186.76273685 -294.47383108 1185.94826208 -296.06640625 1185.1328125 C-296.06640625 1184.4728125 -296.06640625 1183.8128125 -296.06640625 1183.1328125 C-296.78183594 1182.8646875 -297.49726562 1182.5965625 -298.234375 1182.3203125 C-301.10769564 1181.11549943 -303.69978251 1179.72044138 -306.37890625 1178.1328125 C-307.26191406 1177.6171875 -308.14492188 1177.1015625 -309.0546875 1176.5703125 C-310.05048828 1175.85875 -310.05048828 1175.85875 -311.06640625 1175.1328125 C-311.06640625 1174.4728125 -311.06640625 1173.8128125 -311.06640625 1173.1328125 C-311.75863281 1173.05675781 -312.45085937 1172.98070312 -313.1640625 1172.90234375 C-316.82970165 1171.93043135 -319.48816354 1170.02480279 -322.50390625 1167.8203125 C-323.60641975 1167.0320608 -324.70928267 1166.24429758 -325.8125 1165.45703125 C-326.88628906 1164.69003906 -327.96007812 1163.92304687 -329.06640625 1163.1328125 C-330.20183519 1162.40813141 -331.33849033 1161.68536669 -332.4765625 1160.96484375 C-333.33121094 1160.36027344 -334.18585938 1159.75570313 -335.06640625 1159.1328125 C-335.06640625 1158.4728125 -335.06640625 1157.8128125 -335.06640625 1157.1328125 C-336.38640625 1156.8028125 -337.70640625 1156.4728125 -339.06640625 1156.1328125 C-339.06640625 1155.4728125 -339.06640625 1154.8128125 -339.06640625 1154.1328125 C-339.79214844 1153.8646875 -340.51789063 1153.5965625 -341.265625 1153.3203125 C-344.03504649 1152.14610869 -346.37560059 1150.7933801 -348.87890625 1149.1328125 C-349.66910156 1148.6171875 -350.45929688 1148.1015625 -351.2734375 1147.5703125 C-352.16095703 1146.85875 -352.16095703 1146.85875 -353.06640625 1146.1328125 C-353.06640625 1145.4728125 -353.06640625 1144.8128125 -353.06640625 1144.1328125 C-353.59105469 1143.9059375 -354.11570312 1143.6790625 -354.65625 1143.4453125 C-357.90711105 1141.67498947 -360.72982992 1139.41554977 -363.62890625 1137.1328125 C-366.72447957 1134.71169371 -369.79367219 1132.3146352 -373.06640625 1130.1328125 C-373.06640625 1129.4728125 -373.06640625 1128.8128125 -373.06640625 1128.1328125 C-373.63101563 1127.88660156 -374.195625 1127.64039063 -374.77734375 1127.38671875 C-377.45719897 1125.91874345 -379.44599428 1124.1392456 -381.69140625 1122.0703125 C-384.65429792 1119.27500792 -384.65429792 1119.27500792 -388.06640625 1117.1328125 C-388.06640625 1116.4728125 -388.06640625 1115.8128125 -388.06640625 1115.1328125 C-388.94039063 1114.730625 -388.94039063 1114.730625 -389.83203125 1114.3203125 C-392.09427226 1113.11800259 -393.87216943 1111.79455337 -395.81640625 1110.1328125 C-396.43 1109.6171875 -397.04359375 1109.1015625 -397.67578125 1108.5703125 C-399.06640625 1107.1328125 -399.06640625 1107.1328125 -399.06640625 1105.1328125 C-400.05640625 1104.8028125 -401.04640625 1104.4728125 -402.06640625 1104.1328125 C-402.06640625 1103.4728125 -402.06640625 1102.8128125 -402.06640625 1102.1328125 C-402.6284375 1101.895625 -403.19046875 1101.6584375 -403.76953125 1101.4140625 C-406.58534667 1099.84333553 -408.54596041 1097.91809786 -410.81640625 1095.6328125 C-411.615625 1094.83875 -412.41484375 1094.0446875 -413.23828125 1093.2265625 C-415.06640625 1091.1328125 -415.06640625 1091.1328125 -415.06640625 1089.1328125 C-415.6284375 1088.895625 -416.19046875 1088.6584375 -416.76953125 1088.4140625 C-419.58534667 1086.84333553 -421.54596041 1084.91809786 -423.81640625 1082.6328125 C-424.615625 1081.83875 -425.41484375 1081.0446875 -426.23828125 1080.2265625 C-428.06640625 1078.1328125 -428.06640625 1078.1328125 -428.06640625 1076.1328125 C-429.05640625 1075.8028125 -430.04640625 1075.4728125 -431.06640625 1075.1328125 C-434.06640625 1071.68836806 -434.06640625 1071.68836806 -434.06640625 1069.1328125 C-435.05640625 1068.8028125 -436.04640625 1068.4728125 -437.06640625 1068.1328125 C-437.06640625 1067.4728125 -437.06640625 1066.8128125 -437.06640625 1066.1328125 C-438.05640625 1065.8028125 -439.04640625 1065.4728125 -440.06640625 1065.1328125 C-441.43279967 1063.4931404 -442.76134815 1061.82171122 -444.06640625 1060.1328125 C-445.27296875 1058.9571875 -445.27296875 1058.9571875 -446.50390625 1057.7578125 C-454.06640625 1050.01086128 -454.06640625 1050.01086128 -454.06640625 1046.1328125 C-455.05640625 1045.8028125 -456.04640625 1045.4728125 -457.06640625 1045.1328125 C-457.06640625 1044.4728125 -457.06640625 1043.8128125 -457.06640625 1043.1328125 C-458.05640625 1042.8028125 -459.04640625 1042.4728125 -460.06640625 1042.1328125 C-461.89702242 1039.85247015 -463.58961609 1037.5908457 -465.25390625 1035.1953125 C-465.71732422 1034.54884766 -466.18074219 1033.90238281 -466.65820312 1033.23632812 C-470.06640625 1028.40260263 -470.06640625 1028.40260263 -470.06640625 1026.1328125 C-470.72640625 1026.1328125 -471.38640625 1026.1328125 -472.06640625 1026.1328125 C-473.67698436 1024.27257956 -475.15972878 1022.41331919 -476.62890625 1020.4453125 C-477.06783203 1019.86604004 -477.50675781 1019.28676758 -477.95898438 1018.68994141 C-493.06640625 998.59186833 -493.06640625 998.59186833 -493.06640625 994.1328125 C-494.05640625 993.8028125 -495.04640625 993.4728125 -496.06640625 993.1328125 C-496.06640625 992.1428125 -496.06640625 991.1528125 -496.06640625 990.1328125 C-496.72640625 990.1328125 -497.38640625 990.1328125 -498.06640625 990.1328125 C-499.54327613 988.05392538 -500.88036363 985.99997876 -502.19140625 983.8203125 C-502.56394531 983.22541016 -502.93648438 982.63050781 -503.3203125 982.01757812 C-506.06640625 977.51619734 -506.06640625 977.51619734 -506.06640625 974.1328125 C-506.72640625 974.1328125 -507.38640625 974.1328125 -508.06640625 974.1328125 C-508.45828125 973.2871875 -508.85015625 972.4415625 -509.25390625 971.5703125 C-510.95961673 968.33534435 -512.8406807 965.6171506 -515.078125 962.74609375 C-516.06640625 961.1328125 -516.06640625 961.1328125 -516.06640625 958.1328125 C-516.72640625 958.1328125 -517.38640625 958.1328125 -518.06640625 958.1328125 C-518.56140625 955.1628125 -518.56140625 955.1628125 -519.06640625 952.1328125 C-519.72640625 952.1328125 -520.38640625 952.1328125 -521.06640625 952.1328125 C-521.87078125 950.493125 -521.87078125 950.493125 -522.69140625 948.8203125 C-524.90054422 944.37036433 -527.3317332 940.05853169 -529.796875 935.74609375 C-531.04773463 933.17124731 -531.64482695 930.9518066 -532.06640625 928.1328125 C-532.72640625 928.1328125 -533.38640625 928.1328125 -534.06640625 928.1328125 C-535.3412721 925.46800978 -536.61136091 922.80109534 -537.87890625 920.1328125 C-538.23533203 919.38902344 -538.59175781 918.64523437 -538.95898438 917.87890625 C-545.06640625 904.99168578 -545.06640625 904.99168578 -545.06640625 900.1328125 C-545.72640625 900.1328125 -546.38640625 900.1328125 -547.06640625 900.1328125 C-547.52080078 899.02486328 -547.52080078 899.02486328 -547.984375 897.89453125 C-550.11880659 892.72592306 -552.28906736 887.5871522 -554.62890625 882.5078125 C-558.42587191 874.20195012 -561.50855764 865.91107615 -564.1328125 857.16015625 C-565.06988492 854.12153229 -566.13586745 851.17574996 -567.2890625 848.21484375 C-568.27053881 845.5860655 -569.13286695 842.92515854 -570.00390625 840.2578125 C-571.23143536 836.52388364 -572.54644607 832.88187442 -574.06640625 829.2578125 C-577.91467053 819.78865827 -580.32197376 810.10561826 -581.57421875 799.97265625 C-582.06780949 797.12471601 -582.97887878 794.79814621 -584.06640625 792.1328125 C-584.19140625 788.8203125 -584.19140625 788.8203125 -584.06640625 786.1328125 C-584.72640625 786.1328125 -585.38640625 786.1328125 -586.06640625 786.1328125 C-586.20216064 785.44356689 -586.33791504 784.75432129 -586.4777832 784.04418945 C-589.43766309 768.79353691 -589.43766309 768.79353691 -592.81640625 753.6328125 C-593.97886549 748.80011679 -594.57225383 744.07433668 -595.06640625 739.1328125 C-595.39640625 738.8028125 -595.72640625 738.4728125 -596.06640625 738.1328125 C-596.28021483 736.7447271 -596.43665474 735.34766779 -596.56640625 733.94921875 C-596.64890625 733.10423828 -596.73140625 732.25925781 -596.81640625 731.38867188 C-596.89890625 730.49986328 -596.98140625 729.61105469 -597.06640625 728.6953125 C-597.22946298 726.94627428 -597.39596696 725.19755299 -597.56640625 723.44921875 C-597.63859375 722.67006104 -597.71078125 721.89090332 -597.78515625 721.08813477 C-597.97222445 719.05841304 -597.97222445 719.05841304 -599.06640625 717.1328125 C-599.28061333 714.61904032 -599.44308915 712.12395773 -599.56640625 709.60546875 C-599.60701172 708.86074814 -599.64761719 708.11602753 -599.68945312 707.34873962 C-599.81929867 704.96446649 -599.94348915 702.57995225 -600.06640625 700.1953125 C-600.22832815 697.06092205 -600.39574998 693.92689431 -600.56640625 690.79296875 C-600.60185547 690.07101822 -600.63730469 689.34906769 -600.67382812 688.60523987 C-600.83956846 685.56446351 -601.09772039 683.03887009 -602.06640625 680.1328125 C-602.21113403 678.80140599 -602.3103381 677.46471532 -602.37841797 676.12719727 C-602.41975861 675.31895004 -602.46109924 674.51070282 -602.50369263 673.67796326 C-602.542435 672.79810257 -602.58117737 671.91824188 -602.62109375 671.01171875 C-602.66313934 670.08541153 -602.70518494 669.15910431 -602.74850464 668.20472717 C-603.17554555 657.89953877 -603.21719998 647.59755616 -603.19677734 637.28491211 C-603.19140481 634.06945091 -603.19676986 630.85412896 -603.203125 627.63867188 C-603.20673791 617.69033796 -603.09850794 607.76226688 -602.62109375 597.82421875 C-602.58235138 596.99985825 -602.54360901 596.17549774 -602.50369263 595.32615662 C-602.31175999 591.79555464 -601.93191318 588.54855872 -601.06640625 585.1328125 C-600.87356364 582.75146353 -600.72437171 580.36645473 -600.6015625 577.98046875 C-600.52291443 576.54882109 -600.44413388 575.1171807 -600.36523438 573.68554688 C-600.2468017 571.45478108 -600.13036292 569.22394134 -600.0168457 566.99291992 C-599.57982182 558.51882768 -598.94556987 550.22061539 -597.52148438 541.84057617 C-597.10410786 539.35714111 -596.78347272 536.88487733 -596.50390625 534.3828125 C-596.06640625 531.1328125 -596.06640625 531.1328125 -595.06640625 530.1328125 C-594.63755487 527.32213906 -594.25103776 524.51361001 -593.87890625 521.6953125 C-592.67445073 513.11108899 -590.96639427 504.69966383 -589.00390625 496.2578125 C-588.74649658 495.14736572 -588.48908691 494.03691895 -588.22387695 492.89282227 C-587.03794534 487.88338271 -585.76779282 482.9960033 -584.06640625 478.1328125 C-582.52487533 472.49080934 -581.16585818 466.81494883 -580.06640625 461.0703125 C-578.50312483 453.06169868 -576.3060679 445.51085181 -573.1640625 437.984375 C-571.81495514 434.47957652 -570.71887821 430.91163037 -569.62890625 427.3203125 C-567.77042056 421.22068543 -565.66564654 415.28339422 -563.31640625 409.3515625 C-561.98699998 405.92834135 -560.77278932 402.47616383 -559.56640625 399.0078125 C-557.38785607 392.87133729 -554.86277845 387.00913268 -552.06640625 381.1328125 C-550.87498786 378.61381361 -549.68808113 376.09272423 -548.50390625 373.5703125 C-548.19984863 372.92328369 -547.89579102 372.27625488 -547.58251953 371.60961914 C-545.61890433 367.40118363 -543.84889438 363.15767215 -542.17578125 358.828125 C-539.7064109 352.82859845 -536.84783165 346.99255702 -534.06640625 341.1328125 C-533.40640625 341.1328125 -532.74640625 341.1328125 -532.06640625 341.1328125 C-531.83953125 340.3490625 -531.61265625 339.5653125 -531.37890625 338.7578125 C-528.25678485 330.13481052 -523.51829911 322.12762706 -519.06640625 314.1328125 C-518.73141113 313.52727539 -518.39641602 312.92173828 -518.05126953 312.29785156 C-516.97926753 310.36425412 -515.89895961 308.43551932 -514.81640625 306.5078125 C-514.47504639 305.89131836 -514.13368652 305.27482422 -513.78198242 304.63964844 C-511.29577806 300.2474984 -511.29577806 300.2474984 -509.06640625 299.1328125 C-508.73640625 298.1428125 -508.40640625 297.1528125 -508.06640625 296.1328125 C-507.40640625 296.1328125 -506.74640625 296.1328125 -506.06640625 296.1328125 C-505.73640625 294.1528125 -505.40640625 292.1728125 -505.06640625 290.1328125 C-504.40640625 290.1328125 -503.74640625 290.1328125 -503.06640625 290.1328125 C-502.97230469 289.58109375 -502.87820313 289.029375 -502.78125 288.4609375 C-501.87479185 285.50875685 -500.40297107 283.40559906 -498.62890625 280.8828125 C-498.01144531 279.99078125 -497.39398438 279.09875 -496.7578125 278.1796875 C-495.92056641 277.16648437 -495.92056641 277.16648437 -495.06640625 276.1328125 C-494.40640625 276.1328125 -493.74640625 276.1328125 -493.06640625 276.1328125 C-492.97359375 275.4109375 -492.88078125 274.6890625 -492.78515625 273.9453125 C-491.94339033 270.65144587 -490.63344891 268.82324898 -488.56640625 266.1328125 C-486.17749285 262.97202997 -483.82157099 259.81120434 -481.60546875 256.52734375 C-481.20263672 255.93115234 -480.79980469 255.33496094 -480.38476562 254.72070312 C-479.5974583 253.5494063 -478.81479212 252.37497468 -478.03710938 251.19726562 C-477.09653498 249.80751207 -476.08711769 248.46481975 -475.06640625 247.1328125 C-474.40640625 247.1328125 -473.74640625 247.1328125 -473.06640625 247.1328125 C-472.8240625 246.60429687 -472.58171875 246.07578125 -472.33203125 245.53125 C-468.23413278 237.76547945 -462.74913806 229.83758356 -456.06640625 224.1328125 C-455.40640625 224.1328125 -454.74640625 224.1328125 -454.06640625 224.1328125 C-453.86015625 223.4728125 -453.65390625 222.8128125 -453.44140625 222.1328125 C-451.57516373 218.06101064 -449.09079098 214.44484252 -446.06640625 211.1328125 C-445.40640625 211.1328125 -444.74640625 211.1328125 -444.06640625 211.1328125 C-443.73640625 210.1428125 -443.40640625 209.1528125 -443.06640625 208.1328125 C-442.40640625 208.1328125 -441.74640625 208.1328125 -441.06640625 208.1328125 C-440.67001953 207.24335938 -440.67001953 207.24335938 -440.265625 206.3359375 C-439.022702 204.05252196 -437.76238979 202.65854527 -435.87890625 200.8828125 C-433.43327032 198.51219608 -431.14097059 196.10779629 -428.94140625 193.5078125 C-425.11978579 189.06083597 -420.9626247 184.97295468 -416.77294922 180.87646484 C-414.19161922 178.33557749 -411.73476726 175.79138764 -409.45703125 172.97265625 C-407.26129043 170.36431707 -405.14411135 168.37752618 -402.44140625 166.3203125 C-401.30832031 165.44439453 -401.30832031 165.44439453 -400.15234375 164.55078125 C-398.06640625 163.1328125 -398.06640625 163.1328125 -395.06640625 162.1328125 C-394.75703125 161.4934375 -394.44765625 160.8540625 -394.12890625 160.1953125 C-392.81586283 157.6464635 -391.5826571 157.35035323 -389.06640625 156.1328125 C-388.73640625 155.1428125 -388.40640625 154.1528125 -388.06640625 153.1328125 C-385.12724174 149.60581508 -381.3768072 147.56961282 -377.06640625 146.1328125 C-376.3952313 144.80174285 -375.72919978 143.46807538 -375.06640625 142.1328125 C-373.24609375 140.4140625 -373.24609375 140.4140625 -370.94140625 138.6328125 C-370.05710937 137.94574219 -369.1728125 137.25867188 -368.26171875 136.55078125 C-363.78750064 133.15112552 -359.29125762 129.77967684 -354.77685547 126.43359375 C-351.68126711 124.13274626 -348.6709353 121.81228456 -345.76953125 119.26953125 C-343.06640625 117.1328125 -343.06640625 117.1328125 -340.06640625 117.1328125 C-339.73640625 116.1428125 -339.40640625 115.1528125 -339.06640625 114.1328125 C-336.40556656 112.13884993 -333.453983 110.1328125 -330.06640625 110.1328125 C-330.06640625 109.4728125 -330.06640625 108.8128125 -330.06640625 108.1328125 C-328.74640625 107.8028125 -327.42640625 107.4728125 -326.06640625 107.1328125 C-326.06640625 106.4728125 -326.06640625 105.8128125 -326.06640625 105.1328125 C-324.203125 103.6953125 -324.203125 103.6953125 -321.75390625 102.1328125 C-320.95339844 101.6171875 -320.15289062 101.1015625 -319.328125 100.5703125 C-318.58175781 100.0959375 -317.83539063 99.6215625 -317.06640625 99.1328125 C-315.58140625 98.1428125 -315.58140625 98.1428125 -314.06640625 97.1328125 C-313.07640625 97.1328125 -312.08640625 97.1328125 -311.06640625 97.1328125 C-311.06640625 96.4728125 -311.06640625 95.8128125 -311.06640625 95.1328125 C-309.77727138 94.46126317 -308.48500421 93.79572391 -307.19140625 93.1328125 C-306.47210937 92.7615625 -305.7528125 92.3903125 -305.01171875 92.0078125 C-303.06640625 91.1328125 -303.06640625 91.1328125 -301.06640625 91.1328125 C-301.06640625 90.4728125 -301.06640625 89.8128125 -301.06640625 89.1328125 C-299.421875 87.84375 -299.421875 87.84375 -297.25390625 86.5078125 C-296.54621094 86.06179688 -295.83851563 85.61578125 -295.109375 85.15625 C-293.06640625 84.1328125 -293.06640625 84.1328125 -290.06640625 84.1328125 C-290.06640625 83.4728125 -290.06640625 82.8128125 -290.06640625 82.1328125 C-289.24527344 81.72417969 -288.42414063 81.31554687 -287.578125 80.89453125 C-285.07381724 79.63819888 -282.57760381 78.3706739 -280.0859375 77.08984375 C-278.68363515 76.37491879 -277.28129079 75.66007623 -275.87890625 74.9453125 C-275.16798828 74.57728516 -274.45707031 74.20925781 -273.72460938 73.83007812 C-268.40514118 71.1328125 -268.40514118 71.1328125 -265.06640625 71.1328125 C-265.06640625 70.4728125 -265.06640625 69.8128125 -265.06640625 69.1328125 C-258.44140625 65.1328125 -258.44140625 65.1328125 -255.06640625 65.1328125 C-255.06640625 64.4728125 -255.06640625 63.8128125 -255.06640625 63.1328125 C-254.11121094 62.75769531 -253.15601563 62.38257813 -252.171875 61.99609375 C-245.09003562 59.19753605 -238.10316808 56.32325229 -231.23828125 53.015625 C-229.06640625 52.1328125 -229.06640625 52.1328125 -226.06640625 52.1328125 C-226.06640625 51.4728125 -226.06640625 50.8128125 -226.06640625 50.1328125 C-224.153585 49.29068994 -222.23598152 48.45942386 -220.31640625 47.6328125 C-219.2490625 47.16875 -218.18171875 46.7046875 -217.08203125 46.2265625 C-214.06640625 45.1328125 -214.06640625 45.1328125 -210.06640625 45.1328125 C-210.06640625 44.4728125 -210.06640625 43.8128125 -210.06640625 43.1328125 C-209.30086426 42.88112305 -208.53532227 42.62943359 -207.74658203 42.37011719 C-204.22710511 41.21094758 -200.70925487 40.04691386 -197.19140625 38.8828125 C-195.98742187 38.48707031 -194.7834375 38.09132812 -193.54296875 37.68359375 C-187.43050915 35.65718051 -181.41116261 33.52955857 -175.45263672 31.08837891 C-171.20942127 29.38918254 -166.89425121 27.91243276 -162.56640625 26.4453125 C-161.25736328 25.98415039 -161.25736328 25.98415039 -159.921875 25.51367188 C-153.96677269 23.49775946 -148.34208655 22.48586165 -142.06640625 22.1328125 C-142.06640625 21.4728125 -142.06640625 20.8128125 -142.06640625 20.1328125 C-141.12539063 20.01164062 -140.184375 19.89046875 -139.21484375 19.765625 C-137.96960938 19.59804687 -136.724375 19.43046875 -135.44140625 19.2578125 C-134.21164062 19.09539062 -132.981875 18.93296875 -131.71484375 18.765625 C-128.30276386 18.17380815 -125.33624396 17.24612421 -122.06640625 16.1328125 C-119.10110296 15.40141831 -116.11622588 14.76746298 -113.12890625 14.1328125 C-108.86310026 13.22201489 -104.6484654 12.30370961 -100.4609375 11.07421875 C-96.86997004 10.07833479 -93.38609911 9.53904219 -89.69140625 9.0703125 C-85.55477014 8.88198684 -85.55477014 8.88198684 -82.06640625 7.1328125 C-80.73972093 6.91959522 -79.40381006 6.76283787 -78.06640625 6.6328125 C-77.26203125 6.5503125 -76.45765625 6.4678125 -75.62890625 6.3828125 C-73.92057292 6.21614583 -72.21223958 6.04947917 -70.50390625 5.8828125 C-69.69953125 5.8003125 -68.89515625 5.7178125 -68.06640625 5.6328125 C-67.32390625 5.560625 -66.58140625 5.4884375 -65.81640625 5.4140625 C-64.04257624 5.3042977 -64.04257624 5.3042977 -63.06640625 4.1328125 C-61.48241009 3.91755196 -59.89020993 3.76190447 -58.296875 3.6328125 C-57.32556641 3.5503125 -56.35425781 3.4678125 -55.35351562 3.3828125 C-54.33064453 3.3003125 -53.30777344 3.2178125 -52.25390625 3.1328125 C-50.24715262 2.96910029 -48.24062867 2.80254183 -46.234375 2.6328125 C-44.89282349 2.52453125 -44.89282349 2.52453125 -43.52416992 2.4140625 C-41.13864536 2.19951205 -41.13864536 2.19951205 -39.15727901 1.63471794 C-35.64325129 0.79118998 -32.04343186 0.75211791 -28.44555664 0.57861328 C-27.60288522 0.53650286 -26.76021379 0.49439243 -25.89200687 0.45100594 C-17.26012611 0.04898071 -8.63963001 -0.01281733 0 0 Z M-47.41894531 205.53320312 C-50.44207898 206.03017878 -53.46724904 206.50071196 -56.49609375 206.9609375 C-92.78728395 212.81482914 -127.94807589 226.63705816 -160.67773438 242.94580078 C-162.8465777 244.02357227 -165.02376658 245.080746 -167.20703125 246.12890625 C-173.53735054 249.19024932 -179.53429812 252.52517053 -185.37109375 256.45703125 C-187.53960147 257.80527736 -189.64025334 258.93211904 -191.9296875 260.04296875 C-195.97079937 262.02605428 -199.66214482 264.3518938 -203.37890625 266.8828125 C-204.35102051 267.53805908 -204.35102051 267.53805908 -205.34277344 268.20654297 C-211.01448751 272.05070473 -216.55805238 276.05858627 -222.06640625 280.1328125 C-224.06507022 281.59297634 -226.06505613 283.05133257 -228.06640625 284.5078125 C-229.39671875 285.47847656 -229.39671875 285.47847656 -230.75390625 286.46875 C-232.49999477 287.72522586 -234.27651991 288.93955494 -236.06640625 290.1328125 C-236.06640625 290.7928125 -236.06640625 291.4528125 -236.06640625 292.1328125 C-236.64132812 292.39964844 -237.21625 292.66648437 -237.80859375 292.94140625 C-246.69645016 297.63136508 -254.49315121 305.53778006 -261.52734375 312.60546875 C-264.93826349 316.00064579 -268.54619885 319.15458896 -272.15234375 322.33984375 C-275.07335645 325.03732497 -277.62363519 328.00907295 -280.21435547 331.02026367 C-282.6977281 333.85293219 -285.30413374 336.55610667 -287.91430664 339.27148438 C-294.90877472 346.55658133 -301.2009925 353.90409008 -307.06640625 362.1328125 C-308.22441988 363.63950276 -309.39071702 365.1398738 -310.56640625 366.6328125 C-311.73381425 368.13223562 -312.90044163 369.63226673 -314.06640625 371.1328125 C-314.741875 371.9990625 -315.41734375 372.8653125 -316.11328125 373.7578125 C-324.95537111 385.29642622 -332.73534242 397.5877701 -340.06640625 410.1328125 C-340.87208405 411.47284375 -341.67810797 412.81266694 -342.484375 414.15234375 C-357.37220258 439.10574814 -370.42419693 466.73863752 -378.36474609 494.76611328 C-379.2491265 497.74912777 -380.21488481 500.70218077 -381.1796875 503.66015625 C-386.26596316 519.36172639 -390.26010707 534.87538395 -393.06640625 551.1328125 C-393.3910083 552.96175049 -393.3910083 552.96175049 -393.72216797 554.82763672 C-396.38443134 569.86438908 -398.94001722 584.89154334 -400.06640625 600.1328125 C-400.15180664 601.28249512 -400.23720703 602.43217773 -400.32519531 603.61669922 C-403.05138027 643.33203526 -399.59758889 682.02757154 -392.43591309 721.09152222 C-392.06616268 723.13415808 -391.71200156 725.17903154 -391.36035156 727.22485352 C-389.77510902 736.28617564 -387.54439123 745.03000912 -384.81640625 753.8203125 C-384.41512251 755.12986512 -384.01416756 756.43951854 -383.61352539 757.74926758 C-382.44660845 761.54871399 -381.25872771 765.34126114 -380.06640625 769.1328125 C-379.5856665 770.67001953 -379.5856665 770.67001953 -379.09521484 772.23828125 C-375.36250793 784.08814445 -370.98424791 795.51897461 -366.01611328 806.90332031 C-365.00547454 809.27585321 -364.05413137 811.66692122 -363.109375 814.06640625 C-356.97771087 829.48532357 -349.15191772 843.80182515 -340.42407227 857.88232422 C-339.06042251 860.14273125 -337.7779736 862.43381806 -336.51171875 864.75 C-334.28196987 868.80938833 -331.84798148 872.6730926 -329.25390625 876.5078125 C-328.82158691 877.15137695 -328.38926758 877.79494141 -327.94384766 878.45800781 C-324.12067978 884.11747826 -320.12459927 889.63990477 -316.06640625 895.1328125 C-314.71147715 897.00726162 -313.35731404 898.88226466 -312.00390625 900.7578125 C-303.77005638 912.06327433 -294.78903249 922.42091093 -285.27734375 932.66015625 C-283.07651357 935.0318919 -280.89706847 937.42118202 -278.73046875 939.82421875 C-278.18994873 940.42016846 -277.64942871 941.01611816 -277.0925293 941.63012695 C-276.05305047 942.7769563 -275.01786793 943.92769816 -273.98754883 945.08276367 C-271.70230134 947.59352128 -270.34427456 949.04018973 -267.06640625 950.1328125 C-267.06640625 950.7928125 -267.06640625 951.4528125 -267.06640625 952.1328125 C-265.68683209 953.56748266 -265.68683209 953.56748266 -263.81640625 955.0703125 C-260.73689471 957.68273764 -257.72807478 960.34824183 -254.77050781 963.09838867 C-245.05368869 972.12852337 -234.74066596 980.26160773 -224.06640625 988.1328125 C-223.21820312 988.76703125 -222.37 989.40125 -221.49609375 990.0546875 C-201.87974322 1004.57198667 -181.12422833 1017.66746509 -159.06640625 1028.1328125 C-157.94105469 1028.679375 -156.81570313 1029.2259375 -155.65625 1029.7890625 C-151.81587987 1031.62482004 -147.94853642 1033.38768042 -144.06640625 1035.1328125 C-143.20982422 1035.52307617 -142.35324219 1035.91333984 -141.47070312 1036.31542969 C-87.06643348 1060.92330424 -28.6108835 1072.1328125 30.93359375 1072.1328125 C31.67065552 1072.1328125 32.40771729 1072.1328125 33.16711426 1072.1328125 C53.62561112 1072.09624478 73.75295393 1070.63345089 93.93359375 1067.1328125 C95.12822235 1066.92655243 95.12822235 1066.92655243 96.34698486 1066.71612549 C117.80968384 1062.97416293 138.8339476 1058.33685017 159.55859375 1051.5703125 C160.36319031 1051.30912628 161.16778687 1051.04794006 161.99676514 1050.77883911 C173.00151548 1047.16954082 183.54719907 1042.82086351 194.06665039 1037.9861145 C196.39835862 1036.92038785 198.74684714 1035.89656527 201.1015625 1034.8828125 C210.64712032 1030.73849395 219.82235363 1026.15500354 228.93359375 1021.1328125 C229.91972656 1020.60816406 230.90585938 1020.08351563 231.921875 1019.54296875 C237.56336324 1016.53470699 242.9534197 1013.26035459 248.31640625 1009.78125 C250.64906601 1008.31202251 252.99942137 1006.98603024 255.43359375 1005.6953125 C260.96534409 1002.68336303 265.89476941 998.89271194 270.93359375 995.1328125 C272.74451774 993.81813885 274.55701307 992.50562689 276.37109375 991.1953125 C278.2264778 989.84281428 280.08060733 988.48859371 281.93359375 987.1328125 C282.93777344 986.39933594 283.94195313 985.66585937 284.9765625 984.91015625 C291.26052893 980.26687053 297.16651474 975.39840638 302.93359375 970.1328125 C304.20168698 969.02550001 305.47250504 967.92129987 306.74609375 966.8203125 C315.52275076 959.12570909 323.97923616 951.18430427 332.24609375 942.9453125 C332.99874512 942.19725342 333.75139648 941.44919434 334.52685547 940.6784668 C339.20027482 935.99212603 343.63000979 931.15943818 347.93359375 926.1328125 C349.16276042 924.73697917 350.39192708 923.34114583 351.62109375 921.9453125 C354.13890947 919.06461868 356.57895211 916.14969711 358.93359375 913.1328125 C359.64902344 912.235625 359.64902344 912.235625 360.37890625 911.3203125 C365.37190235 905.00359185 370.04954253 898.47770413 374.68701172 891.8984375 C375.84817497 890.25379735 377.01751897 888.61494148 378.1875 886.9765625 C390.19646325 869.96207431 400.73191621 851.80950588 409.93359375 833.1328125 C410.32909424 832.34181152 410.72459473 831.55081055 411.13208008 830.73583984 C417.98493396 816.98837026 423.81909697 803.10198215 429.01269531 788.64990234 C429.78113391 786.54953067 430.58076157 784.47270055 431.42578125 782.40234375 C434.44256274 775.01029222 436.55224485 767.55422331 438.484375 759.82421875 C439.53568348 755.62274757 440.67655939 751.45368806 441.8515625 747.28515625 C447.35770843 727.42002432 450.62000395 707.6049103 452.93359375 687.1328125 C453.12260254 685.4629126 453.12260254 685.4629126 453.31542969 683.75927734 C459.48069992 627.1650237 454.4154424 569.85543554 438.93359375 515.1328125 C438.62276855 514.01132812 438.31194336 512.88984375 437.99169922 511.734375 C434.1716745 498.04968566 429.33572907 484.86073215 423.9777832 471.70751953 C423.28475433 469.99868566 422.60089449 468.28610296 421.92651367 466.56982422 C419.69813026 460.89887062 417.25746794 455.37525874 414.62109375 449.8828125 C414.23083008 449.06578857 413.84056641 448.24876465 413.43847656 447.40698242 C412.27548768 444.97965849 411.1061395 442.55553251 409.93359375 440.1328125 C409.59859863 439.43945801 409.26360352 438.74610352 408.91845703 438.03173828 C405.89764477 431.80529285 402.82127278 425.69924408 399.03125 419.8984375 C397.94006137 418.14321593 397.05990387 416.37832199 396.18359375 414.5078125 C393.04762418 408.0446557 388.87968218 402.12202595 384.93359375 396.1328125 C384.381875 395.29105469 383.83015625 394.44929687 383.26171875 393.58203125 C371.99698187 376.53351818 360.06162586 359.92235782 345.93359375 345.1328125 C344.79964107 343.84899823 343.67378248 342.55795936 342.55859375 341.2578125 C339.22778382 337.42697784 335.80857339 333.68027563 332.37109375 329.9453125 C331.82855957 329.35057129 331.28602539 328.75583008 330.72705078 328.14306641 C328.15628081 325.36332879 325.57553402 322.75698576 322.64453125 320.35546875 C319.93359375 318.1328125 319.93359375 318.1328125 318.12109375 315.7578125 C315.49893443 312.61122132 312.53553475 310.39928726 309.25 307.9765625 C306.6054253 305.87160591 304.31539738 303.52934135 301.93359375 301.1328125 C286.63493088 287.91810211 270.13338564 275.7511762 252.93359375 265.1328125 C251.97582031 264.53210938 251.01804687 263.93140625 250.03125 263.3125 C246.68135271 261.22567874 243.31264803 259.17189698 239.93359375 257.1328125 C238.91313965 256.5138208 238.91313965 256.5138208 237.87207031 255.88232422 C219.44439996 244.76217831 200.21793104 235.72504104 180.14404297 227.99853516 C178.11256875 227.20290808 176.10151001 226.3729215 174.09375 225.51953125 C164.52975885 221.50078579 154.81999853 218.63613933 144.81738281 215.93017578 C141.91422624 215.12745741 139.03001585 214.27406513 136.14453125 213.41015625 C123.01889566 209.56618229 109.93058623 206.92393799 96.43359375 204.8203125 C95.25182053 204.6356543 95.25182053 204.6356543 94.0461731 204.44726562 C71.8004016 201.0105942 49.64561366 198.91119151 27.12109375 198.9453125 C25.90963684 198.94671738 25.90963684 198.94671738 24.67370605 198.94815063 C0.29281721 199.00897402 -23.39856698 201.55763957 -47.41894531 205.53320312 Z " fill="#E9921B" transform="translate(820.06640625,192.8671875)"/>
<path d="M0 0 C3 0 3 0 4.296875 1.22265625 C4.77640625 1.82980469 5.2559375 2.43695312 5.75 3.0625 C9.42641716 7.46948723 13.41971688 11.47289475 17.5 15.5 C21.88776841 19.8438378 26.15186284 24.19055228 30.1328125 28.9140625 C33.34555814 32.50319676 36.81840239 35.8372491 40.24267578 39.22314453 C43.68404484 42.64071847 46.92616201 46.14287117 50.0625 49.84375 C52.76030585 52.84614683 55.63043819 55.66260817 58.5 58.5 C62.5329811 62.48776831 66.39402462 66.51494905 70.0625 70.84375 C72.76030585 73.84614683 75.63043819 76.66260817 78.5 79.5 C82.5329811 83.48776831 86.39402462 87.51494905 90.0625 91.84375 C92.76030603 94.84614704 95.63044038 97.66260582 98.5 100.5 C101.92844828 103.89006118 105.3226072 107.25193982 108.4375 110.9375 C111.74572637 114.84269956 115.36513493 118.40281168 119 122 C123.21010629 126.16646694 127.2724121 130.35285402 131.09765625 134.87890625 C133.78152487 137.87139221 136.64234089 140.67433259 139.5 143.5 C142.92844551 146.89006381 146.32260699 150.25193957 149.4375 153.9375 C152.74572637 157.84269956 156.36513493 161.40281168 160 165 C164.21010629 169.16646694 168.2724121 173.35285402 172.09765625 177.87890625 C175.32501185 181.47737461 178.80624973 184.8252353 182.24243164 188.22290039 C185.68388165 191.64055815 188.92608651 195.14278209 192.0625 198.84375 C195.3036655 202.45085354 198.79262379 205.81178895 202.23999023 209.22045898 C205.69545796 212.65201689 208.96020655 216.16333492 212.1015625 219.88671875 C215.2643993 223.40748975 218.68040891 226.68436117 222.09008789 229.96508789 C223.42968025 231.2739194 224.71950413 232.63329669 226 234 C226 234.66 226 235.32 226 236 C226.66 236 227.32 236 228 236 C229.33984375 237.36328125 229.33984375 237.36328125 230.9375 239.3125 C233.96879287 242.88803335 237.162397 246.20830626 240.5 249.5 C243.55369137 252.51174787 246.54076442 255.53553667 249.3125 258.8125 C252.66888289 262.75401502 256.32317934 266.36138008 260 270 C264.21011278 274.16646205 268.27241218 278.3528541 272.09765625 282.87890625 C274.78152487 285.87139221 277.64234089 288.67433259 280.5 291.5 C283.92844551 294.89006381 287.32260699 298.25193957 290.4375 301.9375 C294.31266516 306.51194308 298.62226546 310.64696919 302.87988281 314.86035156 C306.48863084 318.44595423 309.92596976 322.09454783 313.203125 325.98828125 C316.12229705 329.25648474 319.28337461 332.2894061 322.44604492 335.32104492 C323.66701002 336.51121322 324.83817399 337.75203499 326 339 C326 339.66 326 340.32 326 341 C326.66 341 327.32 341 328 341 C329.234375 342.2578125 329.234375 342.2578125 330.75 344.125 C334.29379594 348.30906159 338.10158506 352.15172874 342 356 C346.21066226 360.16586217 350.27246235 364.35291347 354.09765625 368.87890625 C357.32432211 372.47660556 360.80476232 375.82378855 364.24023438 379.22070312 C367.70402768 382.66052554 370.97132484 386.18562756 374.12890625 389.91015625 C376.64384862 392.71912111 379.31852984 395.35088606 382 398 C385.99464659 401.95095226 389.87030857 405.93585377 393.49609375 410.234375 C394.45364883 411.35856954 395.44357307 412.45651552 396.47265625 413.515625 C412.48556755 430.42525933 416.70284952 456.48298014 416.25 478.8046875 C414.89792453 514.97270642 397.51864822 548.12604961 373 574 C371.73736328 575.34191406 371.73736328 575.34191406 370.44921875 576.7109375 C343.86571217 604.1792786 304.8819519 622.5713143 266.41967773 623.24169922 C238.83568582 623.34148172 209.61375729 615.77374685 189.12817383 596.21264648 C187.99756553 595.06678032 186.87323344 593.91470101 185.75390625 592.7578125 C184.04857329 591.04868147 182.28105112 589.49532027 180.4375 587.9375 C176.43321195 584.48067321 172.6821342 580.79527314 168.9375 577.0625 C168.07112915 576.20289673 168.07112915 576.20289673 167.18725586 575.32592773 C164.31027731 572.43916216 161.55081973 569.50702944 158.91015625 566.40234375 C153.46179258 560.10198509 147.4191405 554.35247279 141.5 548.5 C128.18395237 535.33393199 128.18395237 535.33393199 124.53125 531.03125 C119.10238199 524.64474317 112.95438631 518.88989837 107 513 C93.15265529 499.30262653 93.15265529 499.30262653 87.94140625 493.1640625 C82.89114383 487.53459494 77.37498441 482.31677158 72 477 C58.12319815 463.27348843 58.12319815 463.27348843 52.91015625 457.1328125 C48.03131893 451.68527636 42.69845558 446.63990499 37.5 441.5 C24.18395237 428.33393199 24.18395237 428.33393199 20.53125 424.03125 C15.10238199 417.64474317 8.95438631 411.88989837 3 406 C-10.84734471 392.30262653 -10.84734471 392.30262653 -16.05859375 386.1640625 C-21.10885617 380.53459494 -26.62501559 375.31677158 -32 370 C-45.87680185 356.27348843 -45.87680185 356.27348843 -51.08984375 350.1328125 C-55.96868107 344.68527636 -61.30154442 339.63990499 -66.5 334.5 C-79.81604763 321.33393199 -79.81604763 321.33393199 -83.46875 317.03125 C-88.89761801 310.64474317 -95.04561369 304.88989837 -101 299 C-114.84734471 285.30262653 -114.84734471 285.30262653 -120.05859375 279.1640625 C-125.10885617 273.53459494 -130.62501559 268.31677158 -136 263 C-149.87680185 249.27348843 -149.87680185 249.27348843 -155.08984375 243.1328125 C-159.96868107 237.68527636 -165.30154442 232.63990499 -170.5 227.5 C-185.8709115 212.3022122 -185.8709115 212.3022122 -192.41113281 204.26611328 C-194.50781377 201.69611157 -196.20962225 199.86025184 -199 198 C-199 197.01 -199 196.02 -199 195 C-198.38326416 194.70359619 -197.76652832 194.40719238 -197.13110352 194.10180664 C-191.17501008 191.18924577 -185.51998283 188.0099323 -179.9375 184.4375 C-179.12168457 183.91792725 -178.30586914 183.39835449 -177.46533203 182.86303711 C-151.1994355 165.99523995 -126.68708408 146.38645423 -103.61962891 125.3840332 C-101.89657817 123.81594462 -100.16922737 122.25256581 -98.43725586 120.69433594 C-90.62029137 113.61404514 -83.10688304 106.26135104 -75.66186523 98.79223633 C-73.67610324 96.80107223 -71.6849926 94.81536779 -69.69335938 92.83007812 C-63.58458212 86.72482711 -57.54539074 80.62974483 -52 74 C-51.05106373 72.90487495 -50.10056867 71.81109846 -49.1484375 70.71875 C-38.12563747 57.95540446 -27.22238602 45.14839943 -18 31 C-17.52143555 30.26845703 -17.04287109 29.53691406 -16.54980469 28.78320312 C-10.47037877 19.44489999 -4.62391762 10.16045057 0 0 Z " fill="#EB931B" transform="translate(1417,1222)"/>
</svg>
