<?xml version="1.0" standalone="no"?>
<!DOCTYPE svg PUBLIC "-//W3C//DTD SVG 20010904//EN"
 "http://www.w3.org/TR/2001/REC-SVG-20010904/DTD/svg10.dtd">
<svg version="1.0" xmlns="http://www.w3.org/2000/svg"
 width="866.000000pt" height="650.000000pt" viewBox="0 0 866.000000 650.000000"
 preserveAspectRatio="xMidYMid meet">
<metadata>
Created by potrace 1.16, written by Peter Selinger 2001-2019
</metadata>
<g transform="translate(0.000000,650.000000) scale(0.100000,-0.100000)"
fill="#000000" stroke="none">
<path d="M4310 5665 c0 -20 -5 -25 -25 -25 -16 0 -25 -6 -25 -15 0 -9 9 -15
25 -15 23 0 25 -3 25 -48 0 -43 -3 -49 -28 -58 -37 -14 -66 -73 -57 -117 l7
-32 -25 23 c-30 28 -58 26 -72 -6 -9 -21 -35 -31 -35 -13 0 23 -43 19 -69 -7
-18 -18 -35 -25 -54 -23 -21 2 -31 -4 -45 -28 -11 -21 -25 -31 -40 -31 -13 0
-33 -11 -45 -24 l-21 -24 -27 20 c-36 27 -69 11 -69 -32 0 -33 -11 -38 -30
-15 -32 38 -98 -1 -86 -50 7 -26 6 -26 -16 -11 -30 21 -51 20 -73 -4 -13 -14
-16 -29 -12 -54 5 -34 5 -35 -23 -29 -22 4 -35 -1 -54 -20 -31 -32 -33 -56 -5
-91 20 -26 20 -26 0 -26 -11 0 -32 -11 -47 -24 -43 -36 -38 -81 13 -140 35
-40 41 -52 36 -79 -6 -38 27 -87 59 -87 11 0 40 -18 65 -40 53 -46 78 -50 155
-19 86 34 270 78 394 94 271 35 532 9 810 -82 126 -41 146 -40 195 12 19 19
43 35 54 35 34 0 65 41 65 84 0 29 9 48 40 85 27 32 40 57 40 78 0 36 -39 83
-70 83 -24 0 -25 6 -5 26 22 22 19 70 -6 95 -16 16 -29 20 -55 16 -38 -6 -39
-5 -22 22 29 47 -41 103 -82 66 -21 -19 -23 -16 -20 23 1 13 -4 30 -10 38 -16
19 -69 18 -76 -1 -9 -23 -24 -18 -24 9 0 27 -24 56 -46 56 -8 0 -23 -9 -34
-20 -19 -19 -20 -19 -44 5 -14 14 -36 25 -48 25 -17 0 -27 9 -35 31 -11 28
-16 31 -48 27 -27 -3 -36 0 -41 14 -10 31 -42 42 -71 23 -13 -9 -25 -15 -26
-13 -31 61 -52 70 -83 35 l-24 -28 0 43 c0 50 -19 82 -61 103 -25 14 -29 21
-29 60 0 41 2 45 25 45 16 0 25 6 25 15 0 9 -9 15 -25 15 -20 0 -25 5 -25 25
0 18 -5 25 -20 25 -15 0 -20 -7 -20 -25z m-34 -367 c-18 -64 -35 -176 -41
-270 -7 -91 -5 -106 9 -111 22 -9 10 -34 -21 -42 -89 -22 -75 -145 17 -145 21
0 43 6 50 15 20 24 33 18 25 -12 -16 -66 -94 -89 -153 -46 l-27 20 -27 -27
c-15 -15 -39 -30 -54 -33 -53 -10 -104 23 -104 67 0 13 4 13 29 0 81 -40 155
70 84 126 -17 13 -37 20 -51 17 -28 -5 -44 22 -62 111 -40 195 54 311 280 346
51 7 53 7 46 -16z m259 -10 c58 -17 79 -29 121 -72 43 -42 54 -61 64 -108 11
-48 11 -68 -1 -115 -7 -32 -14 -65 -15 -73 0 -8 -6 -27 -13 -41 -10 -20 -18
-25 -37 -21 -17 3 -32 -4 -54 -26 -35 -35 -38 -60 -10 -94 24 -31 61 -40 96
-21 33 16 37 13 25 -19 -23 -60 -96 -69 -154 -18 -30 26 -36 28 -47 15 -6 -7
-27 -19 -46 -25 -60 -20 -114 14 -114 72 0 16 -10 27 -33 38 -55 26 -43 100
17 100 44 0 63 -55 30 -91 -14 -16 -14 -19 5 -38 28 -28 84 -28 111 1 39 42
17 111 -40 123 -21 5 -30 13 -30 26 0 10 5 19 10 19 21 0 5 224 -24 337 -8 28
-12 54 -9 57 8 7 72 -4 148 -26z m-711 -128 c-26 -10 -54 -48 -54 -71 0 -9 9
-27 19 -40 19 -24 19 -24 -2 -47 -33 -36 -29 -89 11 -122 33 -27 43 -60 19
-60 -30 0 -61 -50 -58 -92 4 -56 93 -78 129 -33 24 30 36 18 27 -24 -12 -55
-71 -80 -135 -58 -34 12 -36 11 -71 -25 -40 -43 -87 -51 -127 -22 -32 22 -23
38 23 40 28 1 44 8 62 28 27 32 28 47 8 86 -17 34 -55 47 -94 34 -22 -8 -29
-5 -47 16 -18 22 -20 33 -14 90 11 104 64 184 161 245 45 29 127 64 149 64 8
0 6 -4 -6 -9z m1100 -24 c135 -65 211 -159 223 -279 5 -47 2 -59 -18 -86 -15
-21 -26 -28 -33 -21 -17 17 -71 11 -94 -10 -22 -20 -28 -61 -16 -95 9 -22 61
-47 84 -40 10 3 22 0 26 -6 10 -17 -32 -49 -65 -49 -34 0 -92 36 -98 61 -4 14
-10 18 -22 13 -9 -4 -39 -9 -67 -12 -47 -3 -53 -1 -76 26 -18 22 -24 38 -20
57 l5 27 24 -26 c31 -34 75 -34 108 -1 14 13 25 36 25 50 0 28 -40 75 -65 75
-22 0 -18 38 5 45 24 8 50 54 50 88 0 13 -9 35 -19 48 -17 22 -17 27 -5 44 28
38 14 89 -31 113 -49 27 14 9 79 -22z"/>
<path d="M3034 4589 c-16 -5 -41 -20 -54 -34 -26 -28 -30 -68 -15 -155 l8 -45
-30 28 c-16 15 -39 27 -52 27 -12 0 -33 -12 -47 -27 -23 -25 -25 -34 -21 -78
3 -27 8 -60 12 -72 6 -20 4 -23 -22 -23 -16 0 -34 -5 -41 -12 -21 -21 -14 -73
17 -115 21 -29 26 -44 19 -56 -10 -18 2 -23 18 -7 6 6 26 3 56 -8 68 -24 103
-10 103 42 0 35 2 37 25 31 72 -19 101 -18 126 6 30 28 31 62 2 89 -31 29 -18
33 33 10 56 -25 100 -25 132 0 54 42 40 108 -28 130 -40 13 -42 33 -4 38 81 9
119 42 119 104 0 72 -53 128 -120 128 -33 0 -71 -32 -115 -96 l-20 -29 -7 48
c-7 48 -31 88 -52 86 -6 0 -25 -5 -42 -10z m51 -51 c2 -13 6 -38 7 -57 6 -69
71 -64 109 9 23 42 45 60 75 60 56 0 96 -89 59 -130 -10 -11 -28 -20 -40 -20
-44 0 -85 -21 -92 -48 -8 -33 6 -53 45 -66 46 -16 56 -29 42 -56 -10 -18 -18
-21 -48 -17 -21 3 -56 12 -80 21 -72 27 -108 -8 -66 -65 44 -60 25 -74 -68
-50 -71 19 -93 6 -83 -46 5 -30 4 -33 -18 -33 -13 0 -31 6 -40 13 -16 11 -13
18 36 77 55 65 195 205 297 294 69 61 49 50 -55 -28 -130 -99 -211 -172 -272
-247 l-57 -71 -18 24 c-9 12 -18 34 -18 47 0 20 3 22 26 17 51 -13 67 30 40
108 -15 42 -12 69 10 87 11 9 21 5 45 -15 34 -29 42 -31 70 -16 22 12 23 32 7
111 -11 53 -10 60 8 80 17 19 47 37 66 38 4 1 10 -9 13 -21z"/>
<path d="M4310 4581 c-8 -5 -59 -11 -112 -14 -118 -8 -320 -47 -416 -82 -38
-14 -78 -25 -89 -25 -13 0 -23 -12 -32 -36 -7 -19 -11 -37 -9 -38 1 -2 18 -11
36 -20 30 -15 36 -16 50 -3 61 54 513 138 572 107 18 -9 28 -9 45 0 60 32 535
-58 571 -109 11 -14 15 -14 48 2 20 9 36 23 36 31 0 26 -23 66 -37 66 -7 0
-64 16 -127 35 -130 39 -254 62 -394 74 -53 4 -104 11 -112 14 -8 4 -22 3 -30
-2z"/>
<path d="M5340 4573 c-45 -23 -75 -81 -66 -128 8 -43 57 -85 99 -85 18 0 39
-5 47 -10 13 -9 13 -11 0 -20 -8 -5 -20 -10 -26 -10 -6 0 -23 -9 -38 -21 -33
-26 -34 -67 -1 -103 30 -32 81 -34 140 -6 55 27 61 25 31 -11 -32 -37 -32 -48
-4 -84 20 -25 26 -27 72 -22 28 3 59 8 68 12 15 6 17 3 12 -22 -11 -57 46 -80
121 -49 21 9 37 11 40 5 11 -16 27 -10 21 9 -3 10 7 36 24 61 47 70 36 121
-26 121 -25 0 -35 4 -31 13 35 94 33 121 -8 163 -31 31 -56 30 -96 -3 l-32
-27 7 29 c4 17 10 53 13 81 5 46 2 54 -23 83 -21 23 -41 34 -70 38 -54 7 -74
-13 -74 -73 0 -24 -4 -44 -8 -44 -12 0 -42 34 -42 46 0 19 -56 64 -85 69 -19
4 -43 -1 -65 -12z m298 -33 c27 -16 32 -26 32 -56 0 -20 -5 -54 -11 -75 -10
-32 -9 -42 5 -64 21 -32 43 -32 78 2 l28 27 22 -22 c21 -20 21 -25 9 -64 -23
-77 -24 -94 -7 -111 12 -11 26 -14 46 -10 37 7 39 -7 9 -56 l-21 -34 -26 34
c-59 76 -173 186 -280 267 -62 47 -114 83 -117 80 -3 -2 14 -18 38 -35 53 -39
237 -219 305 -299 l51 -61 -25 -12 c-26 -12 -64 -15 -64 -5 0 3 5 14 10 25 8
13 7 25 -1 40 -9 17 -17 20 -47 15 -108 -17 -120 -18 -126 -7 -4 6 4 25 18 42
29 34 31 42 15 71 -9 17 -17 19 -47 13 -20 -4 -45 -13 -56 -21 -26 -18 -80
-18 -96 1 -19 23 -8 47 27 59 46 16 67 39 60 68 -7 27 -44 48 -86 48 -42 0
-65 22 -65 64 0 24 8 44 24 61 40 43 85 30 121 -34 23 -42 60 -65 89 -56 20 6
30 33 30 81 0 49 10 53 58 24z"/>
<path d="M4130 4404 c-152 -19 -390 -86 -390 -109 0 -20 10 -19 114 14 160 51
269 66 486 65 171 0 210 -4 320 -27 69 -14 152 -35 184 -47 70 -24 76 -24 76
-6 0 20 -89 51 -250 87 -76 16 -137 21 -300 24 -113 2 -221 1 -240 -1z"/>
<path d="M2574 4156 c-10 -16 -15 -41 -13 -68 2 -24 -1 -49 -5 -56 -21 -34 34
-83 83 -76 13 3 32 -3 43 -12 20 -19 39 -11 20 8 -8 8 -6 17 8 36 26 33 25 67
-2 104 -69 91 -104 108 -134 64z"/>
<path d="M6032 4169 c-25 -10 -61 -47 -62 -64 0 -6 -9 -18 -20 -28 -26 -22
-26 -61 1 -88 15 -15 18 -24 10 -32 -6 -6 -11 -15 -11 -19 0 -12 24 -10 38 4
7 7 28 13 47 14 59 2 73 24 71 109 -2 56 -7 79 -21 95 -20 22 -21 22 -53 9z"/>
<path d="M2848 3945 c-15 -8 -30 -24 -33 -35 -5 -15 -12 -19 -25 -15 -10 3
-21 1 -25 -5 -4 -7 2 -14 15 -17 13 -4 23 -16 27 -35 9 -47 71 -84 99 -60 5 5
28 14 52 21 54 15 80 51 64 87 -11 23 -21 29 -87 51 -16 6 -37 13 -45 16 -8 4
-27 0 -42 -8z"/>
<path d="M5760 3945 c-7 -8 -23 -15 -37 -15 -42 0 -92 -36 -93 -67 0 -19 51
-62 84 -69 17 -4 38 -11 47 -17 28 -18 75 9 93 53 8 20 22 40 30 43 9 4 16 11
16 18 0 6 -7 8 -16 5 -10 -4 -27 7 -48 29 -36 38 -57 43 -76 20z"/>
<path d="M5980 3869 c-37 -15 -68 -48 -80 -85 -14 -43 7 -95 49 -120 48 -28
41 -46 -17 -38 -40 5 -50 3 -67 -15 -22 -25 -24 -83 -4 -107 21 -26 66 -44
108 -44 22 0 43 -4 46 -10 3 -5 -3 -10 -14 -10 -27 0 -61 -34 -61 -61 0 -33
50 -75 98 -82 43 -7 54 -20 27 -31 -24 -9 -18 -52 11 -75 14 -11 45 -23 70
-27 28 -4 44 -11 44 -20 0 -8 5 -14 10 -14 6 0 10 9 10 19 0 12 11 23 32 30
45 16 78 50 78 81 0 31 -17 50 -43 50 -16 0 -11 10 27 50 39 41 46 55 46 89 0
48 -20 73 -60 73 -3 1 -17 -2 -32 -6 -37 -9 -35 5 7 51 45 49 59 95 41 138
-14 33 -59 75 -81 75 -13 0 -49 -38 -71 -76 -17 -27 -28 -10 -27 38 3 56 -21
103 -62 122 -38 18 -50 19 -85 5z m84 -42 c13 -9 20 -33 25 -81 5 -50 12 -72
26 -82 34 -25 53 -16 82 35 26 47 39 49 63 9 26 -43 19 -70 -31 -125 -21 -23
-39 -51 -39 -62 0 -31 29 -54 59 -46 50 14 56 11 59 -23 3 -27 -3 -38 -33 -65
-20 -17 -41 -40 -46 -49 -12 -23 4 -54 31 -63 11 -3 20 -13 20 -20 0 -15 -58
-51 -67 -42 -2 3 -13 48 -24 100 -10 53 -33 135 -50 183 -36 102 -108 258
-116 250 -3 -3 13 -54 35 -114 67 -177 127 -410 110 -427 -6 -6 -78 14 -78 22
0 4 9 17 21 29 17 18 19 26 10 43 -10 17 -64 41 -97 41 -16 0 -47 37 -40 49 4
5 22 15 40 21 39 12 51 33 36 61 -11 20 -26 25 -98 32 -54 6 -72 21 -72 60 l0
30 52 -6 c60 -7 78 3 78 44 0 28 -11 43 -58 81 -68 55 32 166 102 115z"/>
<path d="M2587 3859 c-27 -16 -47 -64 -47 -113 0 -58 -13 -65 -40 -21 -37 61
-72 66 -117 19 -47 -51 -42 -110 17 -177 22 -24 37 -47 34 -50 -3 -3 -20 -1
-37 4 -92 26 -115 -108 -28 -170 37 -27 39 -37 7 -45 -56 -14 -35 -90 32 -120
23 -11 43 -27 46 -40 6 -18 7 -19 16 -5 5 9 27 20 47 24 87 16 122 58 83 100
l-21 23 38 7 c108 20 141 99 58 140 l-40 20 57 6 c32 3 69 14 83 23 47 31 56
94 18 131 -13 13 -27 16 -65 11 -26 -4 -48 -3 -48 1 0 14 14 30 37 42 33 17
56 67 49 106 -10 51 -66 95 -119 95 -23 0 -50 -5 -60 -11z m114 -48 c45 -46
38 -87 -23 -124 -33 -20 -44 -57 -28 -87 11 -20 17 -21 71 -15 l59 7 0 -31 c0
-37 -38 -61 -97 -61 -48 0 -85 -24 -81 -52 3 -22 16 -32 62 -48 26 -10 27 -12
14 -32 -9 -13 -34 -27 -62 -34 -26 -7 -53 -18 -61 -24 -21 -17 -19 -46 5 -63
17 -12 18 -16 7 -26 -15 -12 -77 -27 -77 -18 0 2 9 49 20 103 21 103 63 238
112 363 28 72 32 95 10 69 -17 -21 -98 -218 -125 -303 -13 -44 -30 -113 -37
-152 -8 -43 -18 -73 -25 -73 -14 0 -65 38 -65 49 0 3 14 12 30 18 42 16 40 52
-4 91 -44 38 -59 68 -52 98 7 26 17 29 47 13 25 -13 56 -3 70 22 12 23 -11 66
-55 108 -34 32 -35 79 -2 110 l24 23 18 -27 c47 -66 50 -68 76 -62 30 8 48 44
48 101 0 82 65 112 121 57z"/>
<path d="M3112 3698 c2 -6 26 -17 53 -23 85 -22 88 -35 83 -377 -3 -281 -2
-277 -89 -298 -27 -7 -49 -16 -49 -21 0 -5 87 -9 198 -9 175 1 195 2 178 15
-11 8 -28 15 -38 15 -11 0 -32 7 -48 15 -40 20 -50 64 -50 210 l0 120 63 -65
c34 -36 102 -110 151 -164 106 -116 144 -143 218 -156 102 -16 183 11 98 33
-19 5 -50 20 -70 35 -31 23 -214 214 -313 328 l-36 40 116 117 c115 116 189
167 240 167 14 0 23 6 23 15 0 13 -23 15 -145 15 -122 0 -145 -2 -145 -15 0
-9 9 -15 25 -15 35 0 42 -26 19 -68 -19 -35 -217 -254 -236 -261 -12 -4 -6
253 7 282 9 21 56 47 85 47 11 0 20 7 20 15 0 13 -27 15 -181 15 -132 0 -180
-3 -177 -12z"/>
<path d="M3926 3673 c-8 -53 -8 -173 2 -173 4 0 21 28 37 63 36 75 74 97 176
105 l69 5 0 -302 c0 -188 -4 -310 -10 -322 -13 -23 -53 -44 -102 -53 -21 -4
-38 -11 -38 -16 0 -6 81 -10 205 -10 127 0 205 4 205 10 0 5 -12 12 -27 16
-126 28 -123 18 -123 384 l0 290 53 0 c109 0 170 -35 206 -120 32 -74 45 -65
37 27 -3 42 -6 89 -6 105 l0 28 -339 0 -338 0 -7 -37z"/>
<path d="M4710 3696 c0 -8 16 -16 39 -20 21 -3 49 -14 62 -25 l24 -19 3 -269
c2 -175 -1 -281 -8 -305 -10 -34 -16 -39 -65 -54 -30 -8 -55 -20 -55 -25 0 -5
80 -9 190 -9 118 0 190 4 190 10 0 5 -12 12 -27 16 -63 14 -94 27 -103 43 -5
10 -10 76 -11 147 l-1 129 196 3 196 2 0 -128 c0 -146 -11 -175 -73 -187 -54
-11 -67 -16 -67 -26 0 -5 79 -9 190 -9 118 0 190 4 190 10 0 5 -12 12 -27 16
-55 11 -81 26 -92 50 -15 33 -15 557 -1 585 13 24 61 49 95 49 16 0 25 6 25
15 0 13 -28 15 -190 15 -162 0 -190 -2 -190 -15 0 -9 9 -15 25 -15 38 0 92
-25 104 -48 6 -12 11 -73 11 -136 l0 -116 -195 0 -196 0 3 126 c3 123 4 127
29 146 14 11 44 22 67 25 26 4 42 11 42 19 0 11 -36 14 -190 14 -154 0 -190
-3 -190 -14z"/>
<path d="M2200 3161 c-16 -31 -12 -55 15 -95 14 -20 25 -43 25 -49 0 -35 59
-49 103 -25 12 6 34 11 50 10 29 -2 37 12 11 22 -12 4 -14 14 -9 36 8 34 -15
80 -40 80 -8 0 -29 9 -47 20 -43 26 -94 26 -108 1z"/>
<path d="M6357 3160 c-14 -11 -34 -20 -46 -20 -27 0 -44 -34 -39 -76 3 -26 0
-35 -14 -40 -25 -8 -11 -27 16 -20 11 2 30 -2 40 -10 22 -16 73 -18 95 -5 8 5
15 18 16 28 0 11 11 32 23 48 27 34 30 100 6 109 -30 12 -72 6 -97 -14z"/>
<path d="M2610 3130 c-8 -5 -27 -10 -41 -10 -34 0 -52 -23 -53 -66 -1 -25 -5
-34 -18 -34 -10 0 -18 -4 -18 -10 0 -5 9 -10 21 -10 12 0 34 -11 51 -25 16
-14 38 -25 49 -25 29 0 59 18 59 35 0 8 9 19 20 25 23 12 50 60 50 89 0 11 -9
25 -19 31 -25 13 -81 13 -101 0z"/>
<path d="M5953 3134 c-7 -3 -13 -21 -13 -39 0 -25 12 -47 47 -89 26 -31 56
-56 66 -56 24 0 77 28 77 40 0 6 11 10 25 10 14 0 25 5 25 10 0 6 -7 10 -15
10 -10 0 -15 10 -15 33 0 39 -25 67 -67 73 -67 10 -119 13 -130 8z"/>
<path d="M2388 2935 c-15 -8 -32 -24 -38 -35 -17 -31 -11 -89 12 -130 27 -46
18 -61 -23 -37 -38 21 -82 22 -99 2 -7 -8 -14 -34 -17 -58 -6 -64 21 -100 96
-128 60 -21 79 -39 43 -39 -35 0 -62 -29 -62 -66 0 -50 41 -89 103 -98 50 -8
57 -16 32 -36 -21 -18 -19 -46 7 -70 16 -15 35 -20 75 -20 38 0 55 -4 59 -15
9 -23 24 -18 24 8 0 13 14 33 36 50 61 49 66 117 9 117 -14 0 -25 2 -25 5 0 3
20 25 45 48 34 33 45 51 45 74 0 45 -30 67 -80 59 -22 -3 -40 -4 -40 -1 0 3
22 19 48 35 77 47 94 110 43 161 -16 16 -34 29 -39 29 -5 0 -29 -13 -53 -30
-49 -33 -61 -23 -35 29 24 46 20 86 -12 122 -23 26 -37 32 -78 35 -32 3 -58
-1 -76 -11z m116 -46 c29 -23 33 -51 11 -89 -19 -34 -19 -69 2 -92 22 -25 34
-23 78 12 45 36 51 36 65 9 18 -33 4 -62 -45 -94 -65 -40 -79 -70 -49 -100 12
-12 27 -14 60 -9 41 6 44 5 44 -16 0 -13 -19 -40 -45 -66 -25 -24 -45 -48 -45
-53 0 -24 14 -41 35 -41 38 0 39 -18 4 -51 l-33 -31 -18 48 c-29 72 -66 225
-92 375 -22 121 -24 128 -25 74 -1 -116 36 -324 80 -444 11 -29 17 -56 14 -59
-10 -10 -66 -5 -77 6 -9 9 -7 16 5 30 35 39 9 74 -65 87 -72 14 -90 69 -28 89
65 21 46 85 -30 106 -59 16 -90 46 -90 86 0 45 19 52 72 26 74 -37 104 10 62
95 -29 59 -29 64 -3 97 26 33 75 35 113 5z"/>
<path d="M6152 2933 c-19 -9 -41 -31 -50 -49 -14 -31 -14 -37 6 -88 21 -55 16
-80 -9 -49 -8 9 -29 22 -47 30 -29 12 -37 12 -56 -1 -13 -8 -29 -29 -36 -46
-18 -44 6 -92 65 -128 25 -15 45 -29 45 -33 0 -3 -21 -5 -47 -5 -40 1 -49 -3
-59 -23 -18 -34 -1 -81 43 -118 39 -33 40 -32 -12 -48 -29 -9 -18 -65 21 -101
19 -19 40 -34 45 -34 5 0 7 -11 3 -25 -7 -27 10 -35 20 -10 4 11 20 15 58 15
32 0 62 6 76 16 26 18 29 59 7 84 -14 16 -12 18 26 24 23 4 50 11 61 17 23 12
58 67 58 92 0 25 -36 57 -65 57 -42 0 -28 16 35 39 72 27 100 58 100 115 0 80
-49 108 -117 66 -33 -19 -33 -19 -33 0 0 11 9 38 21 60 55 105 -48 198 -159
143z m117 -49 c26 -33 26 -48 0 -90 -24 -39 -23 -101 2 -117 12 -8 28 -5 59
12 53 27 70 22 70 -22 0 -44 -29 -74 -85 -88 -87 -22 -103 -84 -27 -107 23 -8
42 -20 42 -28 0 -24 -37 -53 -77 -60 -51 -9 -70 -20 -78 -45 -4 -13 0 -28 11
-41 18 -19 18 -20 -1 -34 -21 -16 -44 -18 -63 -6 -9 6 -6 23 13 73 31 78 62
226 70 334 3 44 8 95 11 113 3 17 1 32 -4 32 -4 0 -14 -39 -20 -87 -18 -126
-60 -306 -89 -386 l-26 -68 -29 27 c-27 27 -33 45 -13 46 23 0 45 20 45 41 0
12 -20 41 -46 68 -57 58 -56 84 4 74 85 -14 96 51 18 101 -53 34 -75 67 -59
92 16 27 41 26 74 -2 34 -29 42 -31 70 -16 23 13 25 63 4 100 -21 36 -18 58
10 85 34 35 86 34 114 -1z"/>
<path d="M3140 2693 c0 -4 20 -60 44 -123 l43 -115 34 0 c33 0 33 0 75 110 50
130 51 137 22 133 -19 -2 -29 -20 -59 -101 l-36 -98 -35 98 c-31 88 -38 98
-61 101 -15 2 -27 0 -27 -5z"/>
<path d="M3460 2575 l0 -125 70 0 c56 0 70 3 70 15 0 11 -12 15 -45 15 l-45 0
0 40 0 40 45 0 c33 0 45 4 45 15 0 11 -12 15 -45 15 -45 0 -45 0 -45 35 0 35
0 35 45 35 38 0 45 3 45 20 0 18 -7 20 -70 20 l-70 0 0 -125z"/>
<path d="M3672 2678 c2 -18 11 -24 36 -26 l32 -3 0 -100 c0 -99 0 -99 25 -99
l25 0 0 100 0 100 35 0 c31 0 35 3 35 25 0 25 0 25 -96 25 -93 0 -95 -1 -92
-22z"/>
<path d="M3947 2693 c-4 -3 -7 -60 -7 -125 l0 -118 75 0 c60 0 75 3 75 15 0
11 -12 15 -50 15 l-50 0 0 40 0 40 45 0 c33 0 45 4 45 15 0 11 -12 15 -45 15
-45 0 -45 0 -45 35 l0 35 50 0 c43 0 50 3 50 20 0 18 -7 20 -68 20 -38 0 -72
-3 -75 -7z"/>
<path d="M4197 2693 c-4 -3 -7 -60 -7 -125 l0 -118 25 0 c25 0 25 1 25 93 1
90 1 91 16 62 9 -16 34 -58 56 -92 36 -57 44 -63 74 -63 l34 0 0 125 c0 118
-1 125 -20 125 -19 0 -20 -7 -20 -91 0 -54 -4 -88 -9 -84 -6 3 -33 44 -61 90
-45 74 -55 85 -79 85 -15 0 -31 -3 -34 -7z"/>
<path d="M4553 2680 c-27 -16 -33 -26 -33 -53 0 -37 15 -54 73 -80 63 -28 39
-74 -34 -64 -37 5 -40 3 -37 -16 2 -18 11 -22 49 -25 38 -2 52 2 78 23 20 18
31 36 31 53 0 38 -9 48 -63 71 -71 30 -63 71 14 71 22 0 29 5 29 20 0 16 -7
20 -37 20 -21 0 -53 -9 -70 -20z"/>
<path d="M4780 2575 l0 -125 25 0 c22 0 24 4 27 55 l3 55 42 -55 c36 -46 48
-55 74 -55 l31 0 -19 24 c-10 13 -32 41 -50 63 l-31 39 49 59 c49 59 49 60 24
63 -18 3 -32 -5 -53 -29 -15 -19 -37 -45 -49 -59 l-22 -25 -1 58 c0 54 -1 57
-25 57 l-25 0 0 -125z"/>
<path d="M5125 2683 c-4 -10 -22 -58 -40 -108 -18 -49 -36 -98 -40 -107 -11
-29 39 -24 52 5 9 20 16 22 66 19 45 -3 57 -8 62 -23 4 -12 16 -19 31 -19 13
0 24 2 24 4 0 2 -12 35 -26 72 -14 38 -35 93 -46 122 -17 46 -23 52 -48 52
-17 0 -31 -7 -35 -17z"/>
<path d="M5370 2575 l0 -125 25 0 c23 0 25 4 25 40 0 39 1 40 34 40 64 0 113
69 86 120 -15 29 -69 50 -125 50 l-45 0 0 -125z"/>
<path d="M2753 2290 c-18 -11 -33 -24 -33 -30 0 -6 -11 -16 -25 -22 -32 -15
-41 -49 -22 -87 13 -26 13 -31 0 -44 -14 -13 -7 -15 57 -12 80 3 99 15 106 61
2 16 7 48 10 70 11 78 -27 105 -93 64z"/>
<path d="M5824 2284 c-15 -22 -16 -33 -6 -72 6 -26 13 -59 16 -73 7 -34 26
-42 104 -44 56 -1 81 7 51 17 -9 3 -9 10 0 26 17 31 10 83 -12 96 -11 6 -34
26 -52 44 -41 40 -78 42 -101 6z"/>
<path d="M3244 2261 c-43 -20 -74 -67 -74 -115 0 -39 24 -91 51 -110 33 -22
106 -21 147 4 39 24 52 54 52 119 0 60 -26 96 -78 111 -48 13 -50 13 -98 -9z
m106 -46 c7 -8 15 -35 17 -59 5 -38 2 -48 -20 -70 -31 -31 -66 -33 -98 -7 -19
15 -24 28 -23 65 1 59 24 86 74 86 21 0 43 -7 50 -15z"/>
<path d="M3570 2267 c-47 -16 -80 -68 -80 -124 0 -80 42 -123 120 -123 51 0
70 8 70 31 0 16 -6 18 -44 13 -39 -6 -48 -3 -70 19 -34 34 -35 86 -3 123 18
21 32 26 64 26 32 -1 42 3 46 18 3 14 -3 19 -25 24 -37 7 -35 8 -78 -7z"/>
<path d="M4550 2267 c-19 -7 -45 -27 -58 -47 -20 -29 -23 -44 -19 -89 3 -46 9
-59 36 -83 25 -22 41 -28 78 -28 52 0 105 29 122 68 14 30 14 95 -1 126 -23
51 -95 75 -158 53z m86 -45 c40 -26 45 -102 9 -137 -47 -48 -112 -21 -122 50
-7 53 24 95 70 95 18 0 37 -4 43 -8z"/>
<path d="M5180 2267 c-39 -13 -57 -48 -46 -90 5 -20 19 -32 56 -48 28 -12 50
-27 50 -33 0 -23 -24 -36 -67 -36 -36 0 -43 -3 -43 -20 0 -41 137 -18 154 25
19 50 2 77 -66 108 -21 9 -38 23 -38 31 0 23 28 39 59 33 23 -5 30 -2 34 13 8
31 -31 38 -93 17z"/>
<path d="M3768 2218 c-2 -29 -2 -86 0 -125 3 -63 6 -73 22 -73 16 0 19 9 22
53 l3 52 63 3 62 3 0 -56 c0 -52 1 -55 25 -55 l25 0 0 125 0 125 -25 0 c-23 0
-25 -3 -25 -50 l0 -50 -65 0 -65 0 0 50 c0 43 -3 50 -19 50 -17 0 -20 -8 -23
-52z"/>
<path d="M4220 2146 c0 -119 1 -126 20 -126 18 0 20 7 20 55 0 30 4 55 9 55 5
0 28 -25 51 -55 34 -44 48 -55 71 -55 16 0 29 3 29 6 0 4 -20 31 -45 60 -25
28 -45 58 -45 66 0 7 21 37 46 66 l46 52 -31 0 c-24 0 -39 -10 -72 -50 -23
-27 -46 -50 -51 -50 -5 0 -7 21 -6 48 3 42 1 47 -19 50 -23 3 -23 2 -23 -122z"/>
<path d="M4800 2145 l0 -125 25 0 c24 0 24 2 27 90 l3 89 55 -89 c51 -83 57
-89 88 -90 l32 0 0 125 c0 118 -1 125 -20 125 -21 0 -24 -20 -22 -133 1 -49
-10 -41 -68 57 -43 72 -47 76 -82 76 l-38 0 0 -125z"/>
<path d="M5350 2250 c0 -16 7 -20 35 -20 l35 0 0 -105 0 -105 25 0 25 0 0 105
0 105 35 0 c28 0 35 4 35 20 0 19 -7 20 -95 20 -88 0 -95 -1 -95 -20z"/>
<path d="M2404 2142 c-12 -1 -31 -13 -43 -26 -18 -19 -20 -28 -12 -49 6 -14
23 -34 38 -43 15 -9 40 -25 55 -35 15 -11 38 -19 51 -19 24 0 67 33 67 51 0 5
11 15 25 21 29 13 33 28 7 28 -11 0 -23 13 -31 35 -8 23 -20 36 -34 39 -25 4
-91 4 -123 -2z"/>
<path d="M6110 2117 c-11 -17 -20 -35 -20 -39 0 -5 -9 -8 -20 -8 -28 0 -25
-17 5 -24 14 -4 25 -13 25 -20 0 -20 48 -56 75 -56 12 0 30 9 40 20 10 11 24
20 32 20 22 0 73 56 73 79 0 33 -43 54 -121 57 -69 4 -70 3 -89 -29z"/>
<path d="M2674 2033 c-38 -18 -64 -60 -64 -101 0 -34 37 -85 77 -104 42 -21
40 -38 -4 -38 -78 0 -106 -57 -63 -128 28 -46 61 -57 134 -43 33 6 62 8 65 6
2 -3 -5 -15 -17 -28 -28 -29 -28 -67 -2 -95 28 -30 62 -36 115 -23 60 15 60
15 60 -21 0 -26 6 -35 28 -46 26 -12 33 -11 81 12 30 15 61 23 70 20 18 -7 21
7 5 23 -8 8 -7 17 4 34 43 68 23 147 -34 135 -16 -3 -29 -4 -29 -3 0 1 7 24
15 51 13 43 13 52 -1 82 -21 44 -54 53 -94 24 -35 -25 -38 -14 -10 40 30 59
27 103 -11 134 -52 44 -85 33 -123 -42 -20 -39 -36 -33 -36 14 0 94 -79 141
-166 97z m110 -39 c9 -8 16 -26 16 -38 0 -37 21 -86 41 -97 31 -16 56 -2 73
42 18 44 39 58 61 39 21 -17 19 -64 -6 -111 -28 -56 -23 -93 15 -97 19 -2 36
4 53 20 24 22 25 22 38 5 11 -16 11 -26 -1 -65 -7 -26 -14 -57 -14 -69 0 -28
28 -45 53 -31 31 16 41 -4 23 -47 l-16 -37 -40 32 c-53 42 -203 205 -276 300
-32 41 -59 77 -61 79 -2 2 -5 2 -8 -1 -15 -15 168 -253 279 -362 74 -73 78
-80 61 -92 -10 -8 -30 -14 -43 -14 -21 0 -23 3 -17 28 9 41 -14 57 -68 47
-117 -20 -151 -2 -104 55 32 38 32 41 8 71 -18 23 -20 23 -86 10 -63 -13 -69
-12 -93 6 -17 13 -28 31 -30 51 l-3 31 58 3 c47 2 58 7 61 21 7 37 -9 67 -48
89 -66 38 -77 103 -22 133 36 19 77 19 96 -1z"/>
<path d="M5868 2033 c-32 -20 -48 -52 -48 -98 0 -46 -16 -52 -36 -13 -38 75
-71 86 -123 42 -39 -33 -41 -80 -6 -147 24 -44 21 -64 -4 -33 -20 24 -61 29
-83 9 -33 -29 -39 -58 -23 -110 8 -26 15 -50 15 -52 0 -2 -11 0 -25 3 -39 10
-69 -26 -60 -72 3 -21 13 -48 22 -61 11 -17 12 -26 4 -34 -18 -18 -13 -30 11
-24 13 4 32 -2 48 -13 41 -30 77 -35 106 -15 21 14 25 22 20 46 -6 33 -3 34
57 17 51 -13 84 -7 115 22 30 28 28 64 -5 94 -15 14 -25 27 -22 30 2 3 34 0
69 -6 79 -13 112 -2 140 44 43 71 15 128 -62 128 -21 0 -38 4 -38 9 0 4 20 21
44 36 24 15 49 39 55 52 26 56 5 115 -51 144 -45 23 -84 24 -120 2z m102 -38
c59 -31 49 -100 -19 -135 -41 -20 -57 -49 -49 -87 2 -14 14 -19 58 -21 30 -2
59 -7 63 -11 13 -12 -10 -59 -37 -77 -23 -14 -33 -15 -90 -3 -53 10 -68 10
-80 -1 -25 -20 -20 -63 10 -89 25 -22 25 -23 8 -43 -15 -15 -26 -18 -54 -13
-93 16 -111 17 -126 4 -10 -8 -13 -21 -9 -40 3 -15 2 -30 -4 -33 -11 -7 -71
20 -71 31 0 4 34 38 75 76 72 66 236 271 271 338 24 48 0 25 -65 -59 -65 -86
-238 -271 -282 -303 l-29 -21 -15 37 c-19 44 -13 58 20 43 37 -17 58 5 51 51
-17 107 -18 119 -6 126 6 4 21 -2 33 -13 29 -26 48 -31 70 -20 23 12 22 50 -3
98 -26 51 -26 96 0 110 27 14 36 8 59 -45 16 -35 25 -45 44 -45 34 0 56 29 63
84 4 26 13 54 21 62 19 18 56 18 93 -1z"/>
<path d="M3276 1643 c-14 -14 -29 -38 -32 -52 -3 -14 -9 -34 -15 -43 -18 -34
-10 -67 21 -90 21 -15 28 -27 24 -40 -7 -24 13 -23 26 2 6 11 19 20 29 20 32
0 71 39 71 71 0 16 -4 29 -10 29 -5 0 -10 11 -10 25 0 34 -25 82 -49 95 -26
13 -24 14 -55 -17z"/>
<path d="M5326 1655 c-10 -7 -29 -44 -42 -81 -18 -53 -21 -71 -12 -88 15 -29
39 -45 65 -46 13 0 24 -8 28 -20 8 -25 29 -26 22 -1 -3 13 3 23 19 31 33 18
49 68 29 90 -8 9 -15 29 -15 44 0 17 -11 39 -29 57 -33 33 -39 34 -65 14z"/>
<path d="M3579 1432 c-18 -16 -22 -28 -20 -70 1 -29 -2 -52 -7 -52 -4 0 -24
20 -44 44 -42 50 -76 61 -128 40 -77 -31 -104 -127 -52 -185 23 -26 38 -32 87
-38 32 -3 60 -10 62 -16 1 -5 -15 -20 -36 -32 -22 -13 -42 -32 -46 -42 -10
-31 22 -81 62 -98 51 -21 94 -10 149 38 26 22 49 38 51 35 3 -3 1 -18 -5 -35
-14 -39 -6 -66 24 -80 47 -21 82 -13 128 29 47 43 56 48 56 27 0 -18 32 -47
53 -47 23 0 73 45 87 79 11 29 14 30 61 24 63 -7 66 12 5 28 -44 11 -45 12
-51 61 -10 74 -62 113 -95 73 -20 -24 -27 -18 -34 29 -10 62 -38 96 -82 96
-31 0 -37 -4 -54 -42 -21 -48 -27 -41 -33 46 -3 49 -9 63 -31 83 -33 28 -76
30 -107 5z m79 -38 c18 -12 22 -25 22 -67 0 -59 17 -100 43 -105 23 -5 53 22
61 54 4 15 14 24 26 24 24 0 28 -7 40 -71 15 -80 46 -102 86 -58 17 19 19 19
31 3 7 -10 13 -31 13 -47 0 -29 0 -29 -47 -22 -61 9 -249 66 -348 105 -145 58
-118 29 35 -38 103 -44 229 -86 299 -99 53 -10 59 -21 31 -56 -25 -31 -50 -35
-50 -9 0 10 -5 23 -12 30 -23 23 -56 13 -94 -28 -28 -30 -45 -40 -69 -40 -41
0 -46 6 -33 41 5 16 7 41 4 54 -10 39 -52 33 -117 -16 -59 -44 -95 -47 -133
-10 -23 23 -16 36 35 61 29 15 39 27 39 44 0 36 -44 66 -94 66 -57 0 -86 22
-86 65 0 74 91 121 129 66 33 -47 61 -71 84 -71 35 0 48 21 46 72 -3 68 14 84
59 52z"/>
<path d="M4980 1423 c-27 -25 -32 -37 -38 -98 l-7 -70 -20 40 c-15 30 -27 41
-47 43 -53 6 -71 -17 -93 -112 -6 -26 -7 -27 -24 -12 -44 40 -91 4 -99 -74 -2
-27 -10 -50 -16 -50 -6 0 -28 -5 -49 -11 -51 -14 -37 -33 18 -25 42 7 43 6 68
-37 31 -52 74 -75 106 -57 12 6 21 20 21 30 0 29 13 25 52 -14 52 -52 113 -60
153 -19 13 12 15 26 10 60 -3 23 -4 43 -1 43 3 0 24 -17 47 -37 33 -30 49 -37
94 -41 50 -4 57 -2 85 26 48 48 40 91 -22 123 -49 25 -40 39 27 44 139 9 169
171 41 220 -39 15 -46 15 -80 1 -21 -9 -45 -29 -57 -51 -30 -50 -45 -45 -41
14 3 39 0 53 -17 70 -30 30 -74 27 -111 -6z m90 -73 c0 -54 2 -62 25 -72 30
-13 67 7 89 51 25 47 69 55 110 19 65 -58 30 -138 -59 -138 -35 0 -52 -6 -70
-25 -35 -35 -31 -52 20 -83 50 -30 54 -41 25 -67 -30 -27 -74 -23 -118 12 -58
47 -79 55 -102 43 -24 -13 -25 -17 -18 -90 3 -21 -2 -25 -29 -28 -26 -3 -38 4
-65 34 -18 20 -42 40 -53 44 -26 10 -55 -6 -55 -30 0 -32 -22 -35 -47 -6 -36
42 -30 52 38 65 110 22 409 140 409 161 0 4 -46 -10 -102 -31 -100 -38 -280
-92 -345 -103 -32 -5 -33 -4 -33 27 0 17 5 39 10 47 9 13 13 12 29 -7 36 -43
74 -22 85 49 7 45 30 88 46 88 5 0 18 -16 27 -37 41 -84 88 -63 95 41 4 73 19
96 59 96 29 0 29 -1 29 -60z"/>
<path d="M3103 1350 c-10 -11 -23 -20 -29 -20 -23 0 -74 -51 -74 -74 0 -40 31
-57 110 -61 84 -4 110 12 110 69 0 18 7 39 15 46 22 18 18 33 -7 27 -13 -4
-31 1 -46 14 -32 24 -58 24 -79 -1z"/>
<path d="M5478 1351 c-16 -13 -33 -18 -49 -14 -23 6 -23 5 -8 -13 9 -10 19
-36 22 -58 10 -63 28 -76 108 -72 66 3 119 24 119 47 0 23 -30 66 -57 79 -15
8 -36 22 -46 32 -23 23 -58 23 -89 -1z"/>
<path d="M3994 1289 c-3 -5 2 -9 12 -9 31 0 82 -40 154 -120 l72 -80 -61 -69
c-38 -43 -80 -78 -108 -92 -56 -27 -39 -38 22 -14 29 10 65 39 105 82 l61 65
25 -23 c13 -12 24 -28 24 -35 0 -15 -79 -84 -96 -84 -7 0 -16 -5 -20 -12 -13
-21 59 1 103 32 42 31 59 36 65 22 6 -16 64 -50 96 -57 43 -9 41 0 -5 24 -57
29 -87 65 -74 88 26 50 37 48 96 -15 57 -62 130 -107 162 -100 13 3 8 9 -19
20 -20 9 -68 49 -107 89 l-69 73 18 26 c49 67 159 170 189 176 17 4 31 11 31
16 0 12 -54 1 -91 -18 -15 -7 -58 -48 -97 -91 l-71 -78 -30 30 -31 29 47 48
c26 27 62 54 80 60 43 15 43 32 1 23 -42 -9 -103 -48 -124 -80 l-17 -25 -47
44 c-39 37 -97 66 -132 66 -20 0 -4 -17 25 -28 19 -7 55 -33 81 -59 l47 -46
-30 -31 -31 -31 -71 78 c-39 42 -80 82 -92 89 -33 17 -86 27 -93 17z"/>
</g>
</svg>
