<svg xmlns="http://www.w3.org/2000/svg" id="svgDrawing" width="100%" height="100%" style="fill-opacity:1;color-rendering:auto;color-interpolation:auto;stroke:#000;text-rendering:auto;stroke-linecap:square;stroke-miterlimit:10;stroke-opacity:1;shape-rendering:auto;fill:#f5f5f5;stroke-dasharray:none;font-weight:400;stroke-width:1;font-family:&amp;amp;font-style:normal;stroke-linejoin:miter;font-size:12;stroke-dashoffset:0;image-rendering:auto" viewBox="0.88 -53.917 80.624 35.521" preserveAspectRatio="xMidYMid meet">
  <g id="svgDrawingGroup">
    <g id="floorGraphicsGroup">
      <path d="M18.035-36.4h-2.893v3.993h2.893V-36.4m47.448 0h-1.7v1.35h1.7v-1.35m-1.7 1.45v1.3h1.7v-1.3h-1.7m0 1.4v1.2h1.7v-1.2h-1.7M6.316-23.722h-.233l-.139.139h-.156 0-2.539v3.981h5.8v-4.052h0v-.07H6.316m2.888 4.122h8.83v-4.053h-8.83v4.053m3.82-10.552v.5h.6l.083-.5h-.683m.683 4.3-.083-.5h-.6v.5h.683M60.683-36.4h-3.316 0-3.214v4.05h6.53v-4.05m-6.7 4.125V-36.4h0v-5.075h-7.016v9.2h7.016m-14.216 0h7.055v-9.2h-7.055v9.2m-21.562 0h10.638v-9.2H18.204v4.706h.001v.37h0v4.124m21.417 0h0v-9.2H28.988v9.2h10.634m-24.575-.012V-36.4h-2.833v4.113h2.833m2.987 5.752h.105v-1.67h-.109v-2.05h.005v-2.021h-2.893v.122h.017v1.9h-.005v.18l-.297.015-.193.034-.363.108-.25.125-.18.12-.161.129-.234.252-.196.294-.067.133-.099.267-.061.27-.019.15-.01.173.036.38.062.244.092.236.126.235.122.176.169.192.169.147.259.182.278.132.233.075.254.053.33.017v.081h2.88v-.68m2.78.679v-.5h-2.6v.5h2.6m-5.66.101h0-1.43 0-.7 0-.05l.001 1.9h5.06v-1.9h0-2.881m3.105-.781h2.555v-1.67H18.26v1.67m2.554-3.54H18.21v1.69h2.604v-1.69m28.08 1.095v-.125H46.89v.051h-.2v-.11h-3.163l2.068 2.184h8.5v-2h-5.2m8.299 0h-3v2h3v-2m7.286-1.174.084.5h.6v-.5h-.683m.683 4.3v-.5h-.6l-.083.5h.683m-7.79-3.62v1.67h2.6v-1.67h-2.6m0-.681v.5h2.6v-.5h-2.6m2.78 4.221h2.88l.286-.014.208-.034.262-.075.157-.065.147-.072.203-.127.194-.156.226-.248.115-.155.144-.27.063-.157.088-.305.025-.201.011-.208-.012-.187-.035-.22-.067-.253-.09-.222-.148-.254-.158-.208-.139-.143-.214-.175-.208-.133-.159-.078-.172-.066-.143-.044-.254-.053-.33-.017v-.09h-2.88v4.23M65.983-36.4h-.35v4.05h.35v-4.05" style="stroke-width:.1"/>
      <path d="M63.034-30.254h.65V-36.4h-2.9v4.15h-6.63v.096l-.016.017h-.086l-.082.03-.066.055-.044.075-.015.086.015.085.044.076.066.055.082.03h.086l.082-.03.067-.055.043-.076.015-.085-.015-.086-.043-.075-.067-.056-.082-.03.015-.017h-3.632l-.068.013h.086l.082.03.066.055.044.076.015.085-.015.085-.044.076-.066.055-.082.03h-.086l-.082-.03-.066-.055-.044-.076-.015-.085.015-.085.044-.076.066-.055.1-.042H46.92l-.068.012h.086l.082.03.066.055.044.076.015.085-.015.085-.044.076-.066.055-.082.03h-.086l-.082-.03-.067-.055-.043-.076-.015-.085.015-.085.044-.076.066-.055.1-.042h-3.551l-.068.012h.086l.082.03.067.055.043.076.015.085-.015.085-.044.076-.066.055-.082.03h-.086l-.082-.03-.066-.055-.044-.076-.015-.085.015-.085.044-.076.066-.055.1-.042h-3.502 0-.145l.028.012-.082.03-.066.055-.044.076-.015.085.015.085.044.076.066.055.082.03h.086l.082-.03.067-.055.043-.076.015-.085-.015-.085-.043-.076-.067-.055-.082-.03h-.086l-.028-.012h0-3.501l-.068.012h.086l.082.03.067.055.043.076.015.085-.015.085-.044.076-.066.055-.082.03h-.086l-.082-.03-.066-.055-.044-.076-.015-.085.015-.085.044-.076.066-.055.1-.042h-3.549l-.068.012h.086l.082.03.066.055.044.076.015.085-.015.085-.044.076-.066.055-.082.03h-.086l-.082-.03-.066-.055-.044-.076-.015-.085.015-.085.044-.076.066-.055.1-.042h-3.555l-.068.012h.086l.082.03.067.055.043.076.015.085-.015.085-.043.076-.067.055-.082.03h-.086l-.082-.03-.066-.055-.044-.076-.015-.085.015-.085.044-.076.066-.055.1-.042h-3.546l-.068.012h.086l.082.03.067.055.043.076.015.085-.015.085-.043.076-.067.055-.082.03h-.086l-.082-.03-.066-.055-.044-.076-.015-.085.015-.085.044-.076.066-.055.1-.042H21.72l-.068.003h.086l.082.03.067.055.043.076.015.085-.015.085-.043.076-.067.055-.082.03h-.086l-.082-.03-.067-.055-.043-.076-.015-.085.015-.085.043-.076.067-.055.1-.033h-3.465v1.9h24.29l.946 1h3.449v.05h10.305v-1.05h5.84m1.429 0h1.519v-1.997h-2.2v1.997h.681" style="stroke-width:.1"/>
      <path d="M65.344-25.754h0-.18 0-.7 0-1.43 0-3.06v-.18h-2.7v-.82H45.497l-3.142-3.32h-21.44v1.69h.08v1.85h0v.78l.561 1.421-.066.056-.044.075-.015.085.015.086.044.075.066.056.082.03h.087l.081-.03.067-.056.043-.075.015-.086 6.728-.073v.171l.044.075.066.056.082.03h.087l.081-.03.067-.056.043-.075v-.171l-.043-.075-.067-.056-.081-.03h-.087l-.082.03-.066.056-.044.075-6.728.073-.015-.085-.043-.075-.067-.056-.081-.03h-.087l-.082.03-.562-1.422h-.18 0-2.6 0-.08v1.9h.08v2.05h17.98v-2.05h33.96l1.25 1.5h1.15v-3.399h-7.21" style="stroke-width:.1"/>
      <path d="M57.374-26.035h2.6v-1.59h-2.6v.87h0v.72m-48.37-.419h.2v.7h-.415 0-.674l-1.9 1.9h6.63l-.001-1.9h0v-4.381h-.623 0-.12l-.007-2.02h-.235v-.08h-.836L9.13-30.328l.044.044v.318h-.17v3.512M65.755-52.04h.006l-.596.115.008-.001-.703.158.006-.002-.603.15-.004.001-.593.138.017-.005-.539.163h0l-.585.176.006-.002-.763.248.008-.003-.668.244.004-.002-.533.205.005-.002-.645.264.01-.004 1.905 4.023-.041.052-.015.065.015.065.041.052.06.03h.067l.11 4.307-.06.029-.041.052-.015.065.015.065.041.052.06.03h.067l.06-.03.042-.052.015-.065-.015-.065-.041-.052-.06-.03h-.067l-.11-4.307.06-.029.041-.052.015-.065-.015-.065-.041-.052-.06-.03h-.067l-.06.03-1.906-4.023-.63.288-.004.002-.633.28.013-.007-.587.297-.002.002-.38.188v.837h0l-.003 11.462h8.616v-15.23l-.228.04" style="stroke-width:.1"/>
      <path d="M12.844-30.255v.001h2.185v-1.9h.018v-.002h-2.833v.002h0l.006 1.9.624-.001m41.539-11.66h-.454v.442-.002h.054m-.053.001h-3.27m3.27-.441h-3.27m0 .441h0v-.44h-.33v-.002.442h.33m-.33 0h-3.27m3.27-.441h-3.27m0 .441v-.442.001h-.33v.442-.002h.33m-.33.001h-3.27m3.27-.441h-3.27m0 .441h0v-.44h-.33v.44h.33m-.33 0h-3.27m3.27-.441h-3.27m0 .441h0v-.44h-.33v.44h.33m-.33 0h-3.27m3.27-.441h-3.27m0 .441h0v-.44h-.33v.44h.33m-.33 0h-3.27m3.27-.441h-3.27m0 .441h0v-.44h-.33v.44h.33m-.33 0h-3.27m3.27-.441h-3.27m0 .441h0v-.44h-.33v-.002.442h.33m-.33 0h-3.27m3.27-.441h-3.27m0 .441v-.442.001h-.33 0v.44h.33m-.33.001h-3.27m3.27-.441h-3.27m0 .441v-.442.001h-.33 0v.44h.33m-.33.001h-3.27m3.27-.441h-3.27m-.056.441h.055v-.442.001h-.055m32.456.441h.04v-.44h-.04v.44" style="stroke-width:.1"/>
      <path d="M53.93-41.474h-.04v-.44h.04v.44m-3.23 0h3.19m-3.19-.22h3.19m-3.19-.221h3.19m-3.56 0h-.04v.44h.04v-.44m-3.27 0h.04v.44h-.04v-.44m3.23 0H47.1m3.19.221H47.1m3.19.22H47.1m-3.64 0h.04v-.44h-.04v.44m3.27 0h-.04v-.44h.04v.44m-3.23 0h3.19m-3.19-.22h3.19m-3.19-.221h3.19m-6.83.441h.04v-.44h-.04v.44m3.27 0h-.04v-.44h.04v.44m-3.23 0h3.19m-3.19-.22h3.19m-3.19-.221h3.19m-6.83.441h.04v-.44h-.04v.44m3.27 0h-.04v-.44h.04v.44m-3.23 0h3.19m-3.19-.22h3.19m-3.19-.221h3.19m-6.83.441h.04v-.44h-.04v.44m3.27 0h-.04v-.44h.04v.44m-3.23 0h3.19m-3.19-.22h3.19m-3.19-.221h3.19m-6.83.441h.04v-.44h-.04v.44m3.27 0h-.04v-.44h.04v.44m-3.23 0h3.19m-3.19-.22h3.19m-3.19-.221h3.19m-3.56 0h-.04v.44h.04v-.44m-3.27 0h.04v.44h-.04v-.44m3.23 0H25.5m3.19.221H25.5m3.19.22H25.5m-.37-.441h-.04v.44h.04v-.44m-3.27 0h.04v.44h-.04v-.44m3.23 0H21.9m3.19.221H21.9m3.19.22H21.9m-.37-.441h-.04v.44h.04v-.44m-3.27 0h.04v.44h-.04v-.44m3.23 0H18.3m3.19.221H18.3m3.19.22H18.3m-6.44 4.704v4.355m0 .18v.08h.354V-36.4m0 0h.618l.027-.19v-.18h-1m1.001 0h1.5m-1.528.37h1.554m-.026-.37v.18l.026.19h1.202v-.37h-1.229m3.445 0h-.516v.37h.917v-.37h0" style="stroke-width:.1"/>
      <path d="M14.36-36.69h-.04v.1h.04v-.1m-1.5 0h.04v.1h-.04v-.1m1.46 0h-.92m.92.05h-.92m.92.05h-.92m0-.1h-.04v.1h.04v-.1m-.04 0h-.46m.46.05h-.46m.46.05h-.46m4.388-.18h-.04v.37h.04v-.37m-1.7 0h.04v.37h-.04v-.37m1.66 0v-1.06m-1.62 1.06v-.56m1.62-.5-.166.014-.162.038-.153.064-.142.087-.127.108-.108.127-.087.141-.063.154-.039.162-.013.166m-.56-.561.125.015.118.041.106.067.089.088.067.107.041.118.014.124M3.25-19.602v-3.982m-.45-.355v4.697m.45-4.342h.124l.029-.204v-.15h-.604" style="stroke-width:.1"/>
      <path d="m3.374-23.584.029-.204v-.15h2v.149l.029.204H3.374" style="stroke-width:.1"/>
      <path d="M5.403-23.939v.15l.029.206h.356v-.356h-.385m0 .151v-.1h-2v.1h2" style="stroke-width:.1"/>
      <path d="M5.403-23.889h-.04v.1h.04v-.1m-2 0h.04v.1h-.04v-.1m1.96 0h-1.41m1.41.051h-1.41m1.41.05h-1.41m0-.101h-.04v.1h.04v-.1m-.04 0h-.47m.47.051h-.47m.47.05h-.47m25.545-17.686h-.145v8.13h.145v-8.13m0 9.199v-.17h-.145v.17m.145-.17v-.04h-.145v.04h.145" style="stroke-width:.1"/>
      <path d="M28.988-33.345v.04h-.145v-.04h.145m0 .86h.82m0 0-.012-.142-.037-.138-.06-.13-.082-.117-.102-.101-.117-.082-.13-.06-.137-.037-.143-.013m-13.846.898V-36.4h-.095v4.113m0 .13v.002h-.018m.131.001h-.018v-.122m31.825.001v-.116h-.145v.116m0-1.016h.145v-8.184h-.145v8.184m0 .9v-.04h.145v.04h-.145m0-.9v.04h.145v-.04h-.145m0 .86h-.82m0 0 .012-.143.037-.138.06-.13.083-.116.1-.101.118-.082.13-.06.137-.038.143-.012m-25.908 3.176h21.44m-24.319-.18h-.005m.18.18h2.604m21.68-.18H18.205m-.066 3.72h-.105m.18.18h2.6m.18-.18h0m-.18 0H18.26m-.23-3.72v2.05m.18-.179v-1.69M57.367-36.4l-.55-.355h-.383v.18l.025.175h.908m-.908 0h-1.55m1.525-.355h-1.5m-.951.355h.927l.024-.175v-.18h-.55m2.05.08h-.04v.1h.04v-.1m-1.5 0h.04v.1h-.04v-.1m1.46 0h-.92m.92.051h-.92m.92.049h-.92m0-.1h-.04v.1h.04v-.1m-.04 0h-.46m.46.051h-.46m.46.049h-.46M2.8-19.242h15.414l-.18-.36H3.25m14.964-4.253h-.08m-.1 0h-1.42v.2h1.42m-8.83.001h5.91v-.2h-2.139m-.13 0H9.05h0m0 .13v.07h0m6.064 0h.04v-.2h-.04v.2" style="stroke-width:.1"/>
      <path d="M16.614-23.655h-.04v-.2h.04v.2m-1.46.001v.91m1.42-.911v.51m-1.42.4.158-.013.154-.041.143-.068.13-.09.112-.113.091-.13.067-.143.041-.154.014-.158m.51.51-.113-.012-.108-.038-.097-.06-.08-.082-.061-.096-.038-.108-.013-.114m2.141-6.6v-.048h.001-.171v.049m0-.449h.171v-.021h-.17v.021m.169-1.572V-36.4h-.17v3.993m0 .131v.122h.17m0 1.851v-.04h-.17v.04h.17m0-.4v.04h-.17v-.04h.17m0 .36v-.32m-.085.32v-.32m-.085.32v-.32m0-1.491v.04h.17v-.04h-.17m0 1.43v-.04h.17v.04h-.17m0-1.39h-.46m.46 1.349h-.89m.43-1.349.012.102.034.097.055.087.072.073.088.055.097.034.102.011m-.89.89.014-.154.04-.15.066-.14.088-.128.11-.11.127-.088.14-.066.15-.04.155-.014m36.118-.499v-.096m0-.1v-4.05h-.17v4.125m6.7-.075h-.6v-.002h0v.101h.7m-2.18.001v-.102h0v.001h-.084 0v.1h.084m-1.564.001v-.102h0v.001h-.212v.1h.212m-1.212.001v-.1h-.181v-.002h0v.101h.181m-1.674.001h.013v-.101h0-.013m5.93.001h-.04v.1h.04v-.1m-1.48 0h.04v.1h-.04v-.1m1.44 0h-1.4m1.4.05h-1.4m1.4.05h-1.4m-.124-.1h-.04v.1h.04v-.1m-1.48 0h.04v.1h-.04v-.1m1.44 0h-1.4m1.4.05h-1.4m1.4.05h-1.4m-1.252 0h.04v-.1h-.04v.1m1 0h-.04v-.1h.04v.1m-1.181-.1h-.04v.1h.04v-.1m-1.48 0h.04v.1h-.04v-.1m1.44 0h-1.4m1.4.05h-1.4m1.4.05h-1.4m-14.439-9.224h-.145v8.183h.145v-8.184m0 9.2v-.116h-.145v.116m0-.116v-.04h.145v.04h-.145m0-.9v.04h.145v-.04h-.145m0 .86h-.82m0 0 .012-.143.037-.138.06-.13.083-.116.1-.101.118-.082.13-.06.137-.038.143-.012m32.932 10.896h-1.15m-.094.201h1.444m-54.72-1.501v4.053l.18.36v-2.363m0-.2v-2.05m54.54 1.701v-3.8m-.2.2v3.4m-54.34.749h18.18m-.2-.2h-17.98m18.18.2v-2.05m-.2-.2v2.05m17.9-5.175h-8.5m-.097.225h11.877m-.18-.225h-3m0 0v-2m-.1 0v2m3.273-9.42h3.316m.1 0h.663v-.45h-4.079m8.616 0h-2.736v.45h.436m1.95 0h.35m-2.2 0h1.7m-4.036 0h.04v-.12h-.04v.12m1.8 0h-.04v-.12h.04v.12m-1.761 0v.86m1.72-.86v.86m-1.72 0 .15-.013.145-.038.136-.064.122-.086.106-.106.086-.123.064-.135.038-.145.014-.15" style="stroke-width:.1"/>
      <path d="m63.206-35.54-.149-.013-.145-.038-.136-.064-.122-.086-.106-.106-.086-.123-.064-.135-.038-.145-.014-.15m1.337 6.146h.1v-.098h-.1v.098m.1-2.096v-.113h-.1v1.111h.1v-.899m0-1.399v-.075h-.1v.362h.1v-.187m0-1.5v-.26h-.1v.685h.1v-.325m-.1-1.45v.19h.1v-.19m-.1 6.048v-.04h.1v.04h-.1m0-1v.04h.1v-.04h-.1m0 .96h-.92m0 0 .014-.16.042-.154.067-.146.093-.131.113-.113.131-.093.146-.067.154-.042.16-.014m0-2.051v.04h.1v-.04h-.1m0 .9v-.04h.1v.04h-.1m0-.86h-.82m0 0 .013.142.037.138.06.13.082.117.101.101.117.082.13.06.138.037.142.013" style="stroke-width:.1"/>
      <path d="M63.683-34.625v.04h.1v-.04h-.1m0 .9v-.04h.1v.04h-.1m0-.86h-.82m0 0 .013.142.037.139.06.129.082.117.101.101.117.082.13.06.138.038.142.012m0-2.445v.04h.1v-.04h-.1m0 .9v-.04h.1v.04h-.1m0-.86h-.82m0 0 .013.142.037.138.06.13.082.116.101.101.117.082.13.06.138.038.142.012m.1 3.101h2.2m-.5-.1h-1.7m2.2 0h-.35m0 0v-4.05m-.15 2.85v1.2m0-4.05v1.35m0 .1v1.3m0-1.4h-1.7m0 .1h1.7m0 1.3h-1.7m0 .1h1.7m-4.8-2.85v4.05m.1.1v-4.15M9.002-30.456l.127.128.018-.017h0l-.128-.127h0l-.017.017m1.946-1.96-.062.062h0l.128.127h0l.009-.009m-.137-.118-.028.029.128.127.028-.029-.128-.127m-1.867 1.881.028-.029.128.127-.028.029-.128-.127m1.839-1.852-1.811 1.823m1.875-1.759L9.11-30.438m1.876-1.759-1.811 1.823" style="stroke-width:.1"/>
      <path d="M11.023-32.235h.011v-.18h0-.086m.912 0h0v.18h0m0-.18h-.04v.18h.04v-.18m-.826 0h.04v.18h-.04v-.18m.786 0h-.746m.746.09h-.746m.746.09h-.746m-5.043 8.197.184.184.007-.007h0l-.184-.184h0l-.007.007m1.976-1.976-.696.697h0l.184.183h0l.62-.62" style="stroke-width:.1"/>
      <path d="m7.31-25.317-.028.028.184.184.029-.029-.184-.183m-1.273 1.272.028-.028.184.184-.028.028-.184-.184m1.244-1.245-1.216 1.217m1.308-1.124-1.216 1.216m1.308-1.124L6.25-23.89m1.865-1.864h.674v-.26h-.782m1.043 2.36v4.052h.154v-4.052m3.82-6.6v.1h.683l.017-.1h-.7m0 4.4v.1h.7l-.017-.1h-.683m-.05.1h-.13.13m.001 1.9h.001-.13 0m-.002-1.9v.04h.13v-.04h-.13m.001 1.43v-.04h.13v.04h-.13m-.001-1.39h-.46m.461 1.35h-.89m.429-1.35.012.103.034.097.055.087.073.073.087.055.097.034.102.011m-.889.891.013-.155.04-.15.066-.14.089-.128.11-.11.126-.088.141-.066.15-.04.154-.014m.131 1.399v-.04h-.13v.04h.13" style="stroke-width:.1"/>
      <path d="M12.975-24.335v.04h-.13v-.04h.13m0 .44v-.4m-.065.401v-.4m-.065.4v-.4m7.969-2.061v.5m0 .1h.18v-.78m-2.79-10.235v-4.704m0-.441h0-.4v5.145m36.579.015v-5.16m-.4.441v5.074m0 4.125h0v.12h.17m-1.17.001v-.122.002h-.015v.12h.015m-1.015 0v-.12h-4.001v-.002.122h4.001m-5.146-.121h0v.12h.145v-.12h0m-1.145.121v-.122.002h-.037v.12h.037m-1.037 0v-.12h-4.018v-.002.122h4.018m-5.018 0h0v-.122.002h0m14.216-.001h-.04v.12h.04v-.12m-1 0h.04v.12h-.04v-.12m.96 0h-.92m.92.06h-.92m.92.061h-.92m-1.055 0h.04v-.12h-.04v.12" style="stroke-width:.1"/>
      <path d="M52.968-32.154h-.04v-.12h.04v.12m-.96 0v.92m0-.001.16-.013.155-.042.145-.068.131-.092.114-.113.092-.132.068-.145.041-.155.014-.16m-4.961-.12h-.04v.12h.04v-.12m-1 0h.04v.12h-.04v-.12m.96 0h-.92m.92.06h-.92m.92.061h-.92m-.185-.121h-.04v.12h.04v-.12m-1 0h.04v.12h-.04v-.12m.96 0h-.92m.92.06h-.92m.92.061h-.92m-1.077 0h.04v-.12h-.04v.12m1 0h-.04v-.12h.04v.12m-.96 0v.92" style="stroke-width:.1"/>
      <path d="m44.825-31.235.16-.013.154-.042.146-.068.131-.092.114-.113.091-.132.068-.145.042-.155.014-.16m-4.978-.12h-.04v.12h.04v-.12m-1 0h.04v.12h-.04v-.12m.96 0h-.92m.92.06h-.92m.92.061h-.92m-.185-.121h0m0 .121h.145m0-.121h0m-.145 0h0-.05 0v.12h.05m-1.05.001v-.122.002h-.018v.12h.018m-1.018 0v-.12h-3.937 0v.12h3.937m-4.937 0h0v-.12h0-.245v-.002.122h.245m-3.774-.121H27.9v.12h3.473v-.12h0-2.384m-2.089.121v-.12h-.483 0v.12h.482m-1.482 0h0v-.12h0-.245v-.002.122h.245m-1.245 0v-.122.002h-4.967 0v.12h4.967m-5.967 0h0v-.12h0m21.367-.001h-.04v.12h.04v-.12m-1 0h.04v.12h-.04v-.12m.96 0h-.92m.92.06h-.92m.92.061h-.92m-1.058 0h.04v-.12h-.04v.12m1 0h-.04v-.12h.04v.12m-.96 0v.92m0-.001.16-.013.155-.042.145-.068.132-.092.113-.113.092-.132.068-.145.041-.155.014-.16m-5.897.001h.04v-.12h-.04v.12m1 0h-.04v-.12h.04v.12m-.96 0h.92m-.92-.061h.92m-.92-.06h.92m-1.205 0h-.04v.12h.04v-.12" style="stroke-width:.1"/>
      <path d="M31.372-32.275h.04v.12h-.04v-.12m.96 0h-.92m.92.06h-.92m.92.061h-.92m-4.512 0h.04v-.12h-.04v.12m1 0h-.04v-.12h.04v.12m-.96 0v.92m0-.001.159-.013.155-.042.145-.068.132-.092.113-.113.092-.132.068-.145.041-.155.014-.16m-2.442.001h.04v-.12h-.04v.12m1 0h-.04v-.12h.04v.12m-.96 0h.92m-.92-.061h.92m-.92-.06h.92m-1.205 0h-.04v.12h.04v-.12m-1 0h.04v.12h-.04v-.12m.96 0h-.92m.92.06h-.92m.92.061h-.92m-6.007 0h.04v-.12h-.04v.12m1 0h-.04v-.12h.04v.12m-.96 0h.92m-.92-.061h.92m-.92-.06h.92m-4.118.121h-.018.13-.017m.018 1.43h-.13v.056h.13v-.056m0 .456h0-.131v.014h.13v-.014m-.129-1.886v.04h.13v-.04h-.13m0 1.43v-.04h.13v.04h-.13m0-1.39h-.46m.46 1.349h-.89m.43-1.349.01.102.035.097.055.087.072.073.088.055.097.034.102.011m-.889.89.013-.154.04-.15.066-.14.088-.128.11-.11.127-.088.14-.066.15-.04.155-.014m.131 1.387v-.04h-.13v.04h.13m0-.4v.04h-.13v-.04h.13m0 .36v-.32m-.066.32v-.32m-.064.32v-.32m-2.816-1.659v.13h0v.001h0v-.13m1.34-.001v.13h.003v-.13h0m1.49 0h0v.13h0m-2.833 0h.04v-.13h-.04v.13m.45 0h-.04v-.13h.04v.13m-.41 0h.37m-.37-.064h.37m-.37-.066h.37" style="stroke-width:.1"/>
      <path d="M12.654-32.287h.04v.13h-.04v-.13m.9 0h-.04v.13h.04v-.13m-.86 0v-.82m0 0 .143.013.138.037.13.06.116.082.101.101.082.117.06.13.038.138.012.142m1.533 0h-.04v.13h.04v-.13m-1.49 0h.04v.13h-.04v-.13m1.45 0h-1.41m1.41.066h-1.41m1.41.064h-1.41m1.545-.119h.428v-.13h-.428m2.128-.001v.13h.185v-.13h0-.185m.765 0h0v.13h0m-.765-.13h-.04v.13h.04v-.13m-1.7 0h.04v.13h-.04v-.13m1.66 0v-1.06m-1.62 1.06v-.56m1.62-.5-.166.014-.162.038-.154.064-.142.087-.126.108-.108.127-.087.141-.064.154-.038.162-.014.166m-.559-.561.124.015.119.041.106.067.088.088.067.107.041.118.014.124m1.866 0h-.04v.13h.04v-.13m-.58 0h.04v.13h-.04v-.13m.54 0h-.5m.5.065h-.5m.5.066h-.5m3.319 3.892H18.21m.049.18h2.555m.18-.18h-.08m-2.884.18h.109m2.855 1.669v-1.85m-.18.181v1.67m-2.78.779h0m.18-.1v-.5m-.18-.18v.68m.1.1h.08m2.6-.1h-.01v.1h.01m-2.6 0h0v-.1h0m0 .1h.04v-.1h-.04v.1m2.59 0h-.04v-.1h.04v.1m-2.55 0v1.255m2.51-1.255v1.255m-2.51 0 .179-.012.175-.038.168-.063.157-.086.143-.107.127-.127.107-.143.086-.157.062-.168.039-.175.012-.178m1.255 1.254-.178-.012-.175-.038-.168-.063-.157-.086-.144-.107-.126-.127-.107-.143-.086-.157-.063-.168-.038-.175-.013-.178m-1.475-.001h0v.05h.1v-.05h.08m-.08 1.9v-.05h-.1v.05m0-1.849v.04h.1v-.04h-.1" style="stroke-width:.1"/>
      <path d="M18.034-23.904v-.04h.1v.04h-.1m0-1.761h-.86m.86 1.72h-.86m0-1.72.013.15.04.145.062.136.086.122.106.106.123.086.136.064.145.039.15.012m-.861.86.013-.149.04-.145.062-.136.086-.122.106-.106.123-.086.136-.064.145-.038.15-.014m-.001-1.05h0v.102h0v-.002h0m-1.45.001v-.1h-.98v-.001h0v.1h.98m-1.43.001v-.101h0v.001h0v.1m2.43 0h.04v-.1h-.04v.1m.45-.001h-.04v-.1h.04v.1m-.41.001h.37m-.37-.05h.37m-.37-.05h.37m-.41 0h-.04v.1h.04v-.1m-1 0h.04v.1h-.04v-.1m.96 0v-.92m0 0-.16.014-.155.041-.145.068-.131.092-.114.113-.092.132-.067.145-.042.155-.014.16m-1.02 0h-.04v.1h.04v-.1m-.45 0h.04v.1h-.04v-.1m.41 0h-.37m.37.05h-.37m.37.05h-.37m3.065-.781v-.268h-.12v.268m0-1.669v.301h.12v-.302m-.12 1.402v-.04h.15v.04h-.15m0-1.1v.04h.15v-.04h-.15m0 1.06h-1.02m0 0 .012-.16.038-.155.06-.148.084-.136.104-.122.122-.104.136-.084.148-.06.156-.038.16-.013m2.775-.521v-1.69m-.1-.001v1.69m15.58 4.731h33.667m.093-.201h-33.96m33.866.201 1.25 1.5m.094-.201-1.25-1.5m-27.799-6.22 3.142 3.32m-2.056-2.499-.947-1m3.1 3.274-2.068-2.184m3.163 0v-.09h0v.091h0v-.001m-.53 0v.001h0v-.091h-.819v.09h.819m-2.633 0h.03v.029-.12.001h-.115m2.718.09h.04v-.09h-.04v.09m.53 0h-.04v-.09h.04v.09m-.49 0h.45m-.45-.045h.45m-.45-.045h.45m-2.209 0h.04v.09h-.04v-.09" style="stroke-width:.1"/>
      <path d="M45.34-29.254h-.04v.09h.04v-.09m-.86 0v-.82m0 0 .143.012.138.038.13.06.117.082.1.1.083.118.06.13.037.138.013.142m-.861 0h-.04v.09h.04v-.09m-.884 0h.04v.09h-.04v-.09m.844 0h-.804m.804.045h-.804m.804.045h-.804m5.298-.04h0-2.005v.1h2.005v.124m0-.125v.125h5.2m.1 0h1.15v-.224h-6.45 0m8.3 0h-.95v.224h.95m-1.85-.224h.04v.224h-.04v-.224m.9 0h-.04v.224h.04v-.224m-.86 0v-.82m0 0 .143.012.138.037.13.06.116.082.101.101.082.117.06.13.038.138.012.143m1.17-1.051h0-.18v1.05m0 .225v2m.18.225v-.87m0-.18v-1.67m0-.18v-.5m2.78 4.221v-2.125h-.18v.255m0 1.87v.18m0-1.871v1.59m.18-4.22h0-.18 0m0 .781v.315h.18v-1.006m-.18.01v.5m0 .496v.04h.18v-.04h-.18m0 1.1v-.04h.18v.04h-.18m0 .254h-2.6m0 .18h2.6m5.19-2.529v-.1h-.7l.017.1h.683m0 4.4v-.1h-.683l-.017.1h.7m-2.13 0v-.18h-1.639v.18h1.639" style="stroke-width:.1"/>
      <path d="M59.974-25.755h.52l.001-.18h-.34m.34.001h.04v.18h-.04v-.18m.9 0h-.04v.18h.04v-.18m-.86 0v-.82m0 0 .143.012.138.037.13.06.116.082.101.102.082.117.06.13.038.137.012.143m-3.981-3.54h2.6m0-.181h-2.6m0-.5h.01v-.1h-.01m2.6 0h0v.1h0m0-.1h-.04v.1h.04v-.1m-2.59 0h.04v.1h-.04v-.1m2.55 0v-1.255m-2.51 1.255v-1.255m2.51 0-.178.013-.175.038-.168.063-.157.086-.144.107-.126.127-.107.143-.086.157-.063.168-.038.175-.013.178m-1.255-1.255.179.013.175.038.168.063.157.086.143.107.127.127.107.143.086.157.062.168.038.175.013.178m1.475.09h0v.002-.092h0m.4.001v.091-.001h.004v-.09m1.1 0v.09h.926v-.091h0-.926m1.376.001v-.001h0v.091h0v-.09m-2.88.089h.04v-.09h-.04v.09m.4.001h-.04v-.09h.04v.09m-.36-.001h.32m-.32-.045h.32m-.32-.045h.32m.044.091h.04v-.09h-.04v.09m1.1 0h-.04v-.09h.04v.09m-1.06 0v1.02m0 0 .16-.013.155-.037.148-.062.136-.083.122-.104.104-.122.084-.136.061-.148.037-.156.013-.16m1.416-.089h-.04v.09h.04v-.09m-.45 0h.04v.09h-.04v-.09m.41 0h-.37m.37.045h-.37m.37.045h-.37m-5.257-6.686.002-9.105h-.55l-.002 9.2.55.355h0m-.547-11.912h0l-.001 1.357h.55v-1.357h0m-.55 2.357v-.04h.55v.04h-.55m0-1v.04h.55v-.04h-.55m0 .96h-.92m0 0 .014-.16.041-.155.068-.145.092-.131.114-.114.131-.092.145-.067.155-.042.16-.014m9.164 14.665v1.995m.2.2v-22.059m-.2.034v15.23m0 .45v4.05m0 2.095-.64.001v.2h.84m6.571 4.1h-7.41v.2h7.21m-12.58-.281h-2.6m-.1.101h2.7m-2.6-.101v-.72m-.1 0v.82M6.316-23.854v.13h.02v-.131h0v.001h-.02m1.81 0v-.001h0v.13h0v-.13m.924.001h0-.024v.13h.023v.07m-.923-.2h-.04v.13h.04v-.13m-1.79 0h.04v.13h-.04v-.13m1.75 0h-1.71m1.71.064-1.71.001m1.71.065h-1.71m2.65 0h-.04v-.13h.04v.13m-.9 0h.04v-.13h-.04v.13m.86 0v.82m0 0-.142-.013-.138-.037-.13-.06-.117-.082-.1-.101-.083-.117-.06-.13-.037-.138-.013-.142m.658-2.73h.18-.18 0m0 0v-1.4m.18 1.4v-1.4m-.18-.001v-2.11m.18 2.11v-2.11m-.18 0h.181-.18m-.001 2.11v.04h.18v-.04h-.18m0 1.401v-.04h.18v.04h-.18m0-1.36v1.32m.09-1.32v1.32m.09-1.32v1.32m0-1.361v-.04h-.18v.04h.18m0-2.11v.04h-.18v-.04h.18m0 2.07v-2.03m-.09 2.03v-2.03m-.09 2.03v-2.03M57.37-48.312h0v-.838m-.55-.341v1.179h0m.55-.838.381-.188h0m-.246-.492h0l-.686.339m.932.153h0l.582-.295h0m-.236-.497h0l-.592.3h0m.828.197h0l.628-.277h0m-.225-.502h0l-.639.282h0m.864.22h0l.627-.287h0m-.218-.505h0l-.634.29h0m.852.215h0l.638-.26h0m-.203-.512h0l-.654.267h0m.857.244h0l.528-.203h0m-.193-.515h0l-.538.207h0m.731.308h0l.662-.241h0m-.179-.52h0l-.676.246h0m.855.274h0l.756-.246h0m-.165-.525h0l-.77.251h0m.935.274h0l.582-.175h0m-.158-.527h0l-.589.177h0m.747.35h0l.531-.16h0m-.142-.532h0l-.547.165h0m.689.367h0l.586-.136h0m-.129-.535h0l-.599.14h0m.728.395h0l.602-.15h0m-.127-.535h0l-.604.15h0m.731.385h0l.696-.156h0m-.113-.539h0l-.71.16h0m.824.379h0l.588-.115h0m-.1-.54h0l-.602.116h0m1.127.35h.001-.004m-.077-.544.033-.006-.478.083h0m.1.541h0l.225-.04m.247-.042-.046.008.702-.099h0m-.079-.544h0l-.704.099.033-.006m.75.451h0l.55-.082h0m-.071-.545h0l-.558.083h0m.629.462h0l.653-.072h0m-.053-.547h0l-.67.074h0m.724.473h0l.654-.056h0m-.044-.548h0l-.664.057h0m.708.491h0l.677-.053h0m-.031-.549h0l-.69.054h0m.721.495h0l.594-.022h0m-.018-.55h0l-.608.023h0m.626.527h0l.79-.023h0m-.005-.55h0l-.803.023h0m.808.527h0l.639.008h0m.002-.55h0l-.646-.008h0m.644.558h0l.502-.003h0m.011-.55h0l-.511.003h0m.5.547h0l.502.022h0m.039-.549h0l-.53-.023h0m.491.572h0l.5.048h0m.036-.549h0l-.497-.048h0m.461.597h0l.624.023h0m.04-.549h0l-.628-.023h0m.588.572h0l.676.075h0m.066-.546h0l-.701-.078h0m.635.624h0l.866.113h0m.074-.545h0l-.874-.114h0m.8.659h0l.737.105h0m.081-.544h0l-.744-.106h0m.663.65h0l.729.113h0m.104-.54h0l-.752-.117h0m.648.657h0l.714.165h0m.122-.536h0l-.732-.17h0m.61.706h0l.64.143h0m.131-.534h0l-.65-.145h0m.519.679h0l.646.173h0m.137-.533h0l-.652-.174h0m.515.707h0l.67.166h0m.148-.53h0l-.68-.169h0m.532.699h0l.171.053.163-.525-.186-.058h0M12.22-30.255l-.006-1.9h-.12l.007 2.02h.12" style="stroke-width:.1"/>
      <path d="M12.22-30.135h.624v-.12h-.623m-6.433 6.672h.156l.139-.139h.233v-.132h0-.101 0l-.184-.184h0l-.098.099h0-.145 0v.355m3.036-6.382h.35v-.317h0l-.044-.045-.128-.128h0l-.1.102h0l-.078-.001h0v.39m-.035 4.211h.415v-.7h0-.38 0v.44h0-.035 0v.26" style="stroke-width:.1"/>
      <path d="M12.844-25.754h.18v-.6h.6l.083.5.017.1h1.43v-.181h0l-.33-.017h0l-.254-.053h0l-.233-.075h0l-.278-.132h0l-.259-.182h0l-.169-.147h0l-.169-.192h0l-.122-.176h0l-.126-.235h0l-.092-.236h0l-.062-.244h0l-.036-.38h0l.01-.173h0l.019-.15h0l.061-.27h0l.099-.267h0l.067-.133h0l.197-.294h0l.233-.252h0l.16-.128h0l.181-.121h0l.25-.125h0l.363-.108h0l.193-.034h0l.297-.015h0v-.18h.005-1.435 0l-.017.1-.083.5h0-.6 0v-.6h0-.18 0v-.001 4.501m9.101-6.151-.011-.074-.032-.067-.051-.055-.065-.037-.072-.016-.075.005-.069.028-.058.046-.042.062-.022.07v.075l.022.071.042.062.058.046.07.028.074.005.072-.016.065-.038.05-.054.033-.067.011-.074m3.601.009-.011-.074-.032-.067-.051-.055-.065-.037-.072-.016-.075.005-.069.028-.058.046-.042.062-.022.07v.075l.022.072.042.061.058.046.07.028.074.005.072-.016.065-.038.05-.054.033-.067.011-.074m3.596 0-.011-.074-.032-.067-.051-.055-.065-.037-.072-.016-.075.005-.069.028-.058.046-.042.062-.022.07v.075l.022.072.042.061.058.046.07.028.074.005.072-.016.065-.038.05-.054.033-.067.011-.074m3.605 0-.011-.074-.032-.067-.051-.055-.065-.037-.072-.016-.075.005-.069.028-.058.046-.042.062-.022.07v.075l.022.072.042.061.058.046.07.028.074.005.072-.016.065-.038.05-.054.033-.067.011-.074m3.599 0-.011-.074-.032-.067-.051-.055-.065-.037-.072-.016-.075.005-.069.028-.058.046-.042.062-.022.07v.075l.022.072.042.061.058.046.07.028.074.005.072-.016.065-.038.05-.054.033-.067.011-.074m7.198 0-.011-.074-.032-.067-.051-.055-.065-.037-.072-.016-.075.005-.069.028-.058.046-.042.062-.022.07v.075l.022.072.042.061.058.046.07.028.074.005.072-.016.065-.038.05-.054.033-.067.011-.074m3.601 0-.011-.074-.032-.067-.051-.055-.065-.037-.072-.016-.075.005-.069.028-.058.046-.042.062-.022.07v.075l.022.072.042.061.058.046.07.028.074.005.072-.016.065-.038.05-.054.033-.067.011-.074m3.601 0-.011-.074-.032-.067-.051-.055-.065-.037-.072-.016-.075.005-.069.028-.058.046-.042.062-.022.07v.075l.022.072.042.061.058.046.07.028.074.005.072-.016.065-.038.05-.054.033-.067.011-.074m-4.057 2.842h.2v-.2h0-.2 0v.2m16.345 3.3h1.43l.017-.1.083-.5h.6v.6h.18v-.2l-.001-4.1v-.2h0-.179 0v.6h0-.6 0l-.083-.5-.017-.1h0-1.43 0v.18h0l.33.017h0l.254.053h0l.143.044h0l.172.066h0l.159.078h0l.208.133h0l.214.175h0l.139.143h0l.158.208h0l.148.254h0l.09.222h0l.067.253h0l.035.22h0l.012.187h0l-.011.208h0l-.025.201h0l-.088.305h0l-.063.157h0l-.144.27h0l-.115.155h0l-.226.248h0l-.194.156h0l-.203.127h0l-.147.072h0l-.157.065h0l-.262.075h0l-.208.034h0l-.286.014h0v.18m-23.091-6.142-.011-.074-.032-.067-.051-.055-.065-.037-.072-.016-.075.005-.069.028-.058.046-.042.062-.022.07v.075l.022.072.042.061.058.046.07.028.074.005.072-.016.065-.038.05-.054.033-.067.011-.074m14.402.005-.011-.074-.032-.067-.051-.055-.065-.037-.072-.016-.075.005-.069.027-.058.047-.042.061-.022.072v.074l.022.071.042.062.058.046.07.028.074.005.072-.016.065-.037.05-.055.033-.067.011-.074m-32.414 7.774-.01-.073-.033-.067-.051-.055-.064-.037-.073-.017-.075.006-.069.027-.058.046-.042.062-.022.071v.075l.022.071.042.062.058.046.07.027.074.006.073-.017.064-.037.05-.055.033-.067.011-.074m7.213.012-.01-.073-.033-.067-.05-.055-.065-.037-.073-.017-.074.006-.07.027-.058.047-.042.061-.022.071v.075l.022.071.042.062.058.046.07.027.074.006.073-.017.064-.037.05-.055.033-.067.011-.074m32.598-21.954-.011-.057-.033-.05-.049-.032-.057-.011-.057.011-.05.033-.032.049-.011.057.011.057.033.05.049.032.057.011.057-.011.05-.033.032-.049.011-.057m.177 4.6-.011-.057-.033-.05-.049-.032-.057-.011-.057.011-.05.033-.032.049-.011.057.011.057.033.05.049.032.057.011.057-.011.05-.033.032-.049.011-.057" style="stroke-width:.1"/>
    </g>
    <g id="workspacesBackGroup">
      <path id="wsB12191" class="workspaceBack" d="M59.974-25.755v-.18h-2.7v-.82H45.497l-3.142-3.32h-21.44v1.69h.08v2.63h-2.86v1.9h.08v2.05h17.98v-2.05h33.96l1.25 1.5h1.15v-3.399h-12.58" style="stroke-width:.1"/>
      <path id="wsB12193" class="workspaceBack" d="m65.165-51.925-.695.157-.597.148-.588.137-1.116.336-.757.246-.66.24-.529.204-.635.26-.625.286-.63.279-.964.482-.002 12.3h8.616v-15.23l-.818.155" style="stroke-width:.1"/>
      <path id="wsB12189" class="workspaceBack" d="M63.683-30.254V-36.4h-2.9v4.15h-6.63v.096h-3.632l-.068.012h.086l.082.03.066.055.044.076.015.085-.015.085-.044.076-.066.055-.082.03h-.086l-.082-.03-.066-.055-.044-.076-.015-.085.015-.085.044-.076.066-.055.1-.042H46.92l-.068.012h.086l.082.03.066.055.044.076.015.085-.015.085-.044.076-.066.055-.082.03h-.086l-.082-.03-.067-.055-.043-.076-.015-.085.015-.085.044-.076.066-.055.1-.042h-3.551l-.068.012h.086l.082.03.067.055.043.076.015.085-.015.085-.044.076-.066.055-.082.03h-.086l-.082-.03-.066-.055-.044-.076-.015-.085.015-.085.044-.076.066-.055.1-.042h-7.148l-.068.012h.086l.082.03.067.055.043.076.015.085-.015.085-.044.076-.066.055-.082.03h-.086l-.082-.03-.066-.055-.044-.076-.015-.085.015-.085.044-.076.066-.055.1-.042h-3.549l-.068.012h.086l.082.03.066.055.044.076.015.085-.015.085-.044.076-.066.055-.082.03h-.086l-.082-.03-.066-.055-.044-.076-.015-.085.015-.085.044-.076.066-.055.1-.042h-3.555l-.068.012h.086l.082.03.067.055.043.076.015.085-.015.085-.043.076-.067.055-.082.03h-.086l-.082-.03-.066-.055-.044-.076-.015-.085.015-.085.044-.076.066-.055.1-.042h-3.546l-.068.012h.086l.082.03.067.055.043.076.015.085-.015.085-.043.076-.067.055-.082.03h-.086l-.082-.03-.066-.055-.044-.076-.015-.085.015-.085.044-.076.066-.055.1-.042-3.61.002.009-.002h-3.465v1.9h24.29l.946 1h3.448v.05h10.305v-1.05h6.49" style="stroke-width:.1"/>
      <path id="wsB12176" class="workspaceBack" d="M18.205-32.275h10.638v-9.2H18.204v4.706l.001.37v4.124" style="stroke-width:.1"/>
      <path id="wsB12177" class="workspaceBack" d="M39.622-32.275v-9.2H28.988v9.2h10.634" style="stroke-width:.1"/>
      <path id="wsB12175" class="workspaceBack" d="M39.767-32.275h7.055v-9.2h-7.055v9.2" style="stroke-width:.1"/>
      <path id="wsB12174" class="workspaceBack" d="M53.983-32.275v-9.2h-7.016v9.2h7.016" style="stroke-width:.1"/>
      <path id="wsB12172" class="workspaceBack" d="M9.204-19.602h8.83v-4.053h-8.83v4.053" style="stroke-width:.1"/>
      <path id="wsB12192" class="workspaceBack" d="M9.004-26.454h.2v.7H8.115l-1.9 1.9h6.63l-.001-1.9v-4.381h-.743l-.007-2.02h-.235v-.08h-.836L9.13-30.328l.044.044v.318h-.17v3.512" style="stroke-width:.1"/>
      <path id="wsB12173" class="workspaceBack" d="M60.683-36.4h-6.53v4.05h6.53v-4.05" style="stroke-width:.1"/>
      <path id="wsB12171" class="workspaceBack" d="M6.316-23.722h-.233l-.139.139H3.249v3.981h5.8v-4.122l-2.733.002" style="stroke-width:.1"/>
      <path id="wsB12184" class="workspaceBack" d="M48.894-28.98v-.125H46.89v.051h-.2v-.11h-3.163l2.068 2.184h8.5v-2h-5.2" style="stroke-width:.1"/>
      <path id="wsB12188" class="workspaceBack" d="M60.154-25.934h2.88l.286-.014.208-.034.262-.075.157-.065.147-.072.203-.127.194-.156.226-.248.115-.155.144-.27.063-.157.088-.305.025-.201.011-.208-.012-.187-.035-.22-.067-.253-.09-.222-.148-.254-.158-.208-.139-.143-.214-.175-.208-.133-.159-.078-.172-.066-.143-.044-.254-.053-.33-.017v-.09h-2.88v4.23" style="stroke-width:.1"/>
      <path id="wsB12179" class="workspaceBack" d="M18.034-26.535h.105v-1.67h-.109v-2.05h.005v-2.021h-2.893v.122h.017v1.9h-.005v4.4h2.88v-.68" style="stroke-width:.1"/>
      <path id="wsB12178" class="workspaceBack" d="M15.047-32.287V-36.4h-2.833v4.113h2.833" style="stroke-width:.1"/>
      <path id="wsB12167" class="workspaceBack" d="M18.035-36.4h-2.893v3.993h2.893V-36.4" style="stroke-width:.1"/>
      <path id="wsB12182" class="workspaceBack" d="M15.154-25.754h-2.18l.001 1.9h5.06v-1.9h-2.881" style="stroke-width:.1"/>
      <path id="wsB12180" class="workspaceBack" d="m14.664-30.025-.363.108-.25.125-.18.12-.161.129-.234.252-.196.294-.067.133-.099.267-.061.27-.019.15-.01.173.036.38.062.244.092.236.126.235.122.176.169.192.169.147.259.182.278.132.233.075.254.053.33.017v-4.139l-.297.015-.193.034" style="stroke-width:.1"/>
      <path id="wsB12185" class="workspaceBack" d="M57.194-28.98h-3v2h3v-2" style="stroke-width:.1"/>
      <path id="wsB12194" class="workspaceBack" d="M15.03-30.254v-1.9l-2.816-.002.006 1.901 2.81.001" style="stroke-width:.1"/>
      <path id="wsB12190" class="workspaceBack" d="M64.464-30.254h1.519v-1.997h-2.2v1.997h.681" style="stroke-width:.1"/>
      <path id="wsB12186" class="workspaceBack" d="M57.374-29.474v1.67h2.6v-1.67h-2.6" style="stroke-width:.1"/>
      <path id="wsB12183" class="workspaceBack" d="M18.259-26.535h2.555v-1.67H18.26v1.67" style="stroke-width:.1"/>
      <path id="wsB12168" class="workspaceBack" d="M65.483-36.4h-1.7v1.35h1.7v-1.35" style="stroke-width:.1"/>
      <path id="wsB12169" class="workspaceBack" d="M63.783-34.95v1.3h1.7v-1.3h-1.7" style="stroke-width:.1"/>
      <path id="wsB12170" class="workspaceBack" d="M63.783-33.55v1.2h1.7v-1.2h-1.7" style="stroke-width:.1"/>
      <path id="wsB12181" class="workspaceBack" d="M20.814-25.855v-.5h-2.6v.5h2.6" style="stroke-width:.1"/>
      <path id="wsB12187" class="workspaceBack" d="M57.374-30.155v.5h2.6v-.5h-2.6" style="stroke-width:.1"/>
    </g>
    <g id="workspacesFrontGroup">
      <path id="wsF12191" class="workspaceFront" d="M59.974-25.755v-.18h-2.7v-.82H45.497l-3.142-3.32h-21.44v1.69h.08v2.63h-2.86v1.9h.08v2.05h17.98v-2.05h33.96l1.25 1.5h1.15v-3.399h-12.58" style="stroke-width:.1"/>
      <path id="wsF12193" class="workspaceFront" d="m65.165-51.925-.695.157-.597.148-.588.137-1.116.336-.757.246-.66.24-.529.204-.635.26-.625.286-.63.279-.964.482-.002 12.3h8.616v-15.23l-.818.155" style="stroke-width:.1"/>
      <path id="wsF12189" class="workspaceFront" d="M63.683-30.254V-36.4h-2.9v4.15h-6.63v.096h-3.632l-.068.012h.086l.082.03.066.055.044.076.015.085-.015.085-.044.076-.066.055-.082.03h-.086l-.082-.03-.066-.055-.044-.076-.015-.085.015-.085.044-.076.066-.055.1-.042H46.92l-.068.012h.086l.082.03.066.055.044.076.015.085-.015.085-.044.076-.066.055-.082.03h-.086l-.082-.03-.067-.055-.043-.076-.015-.085.015-.085.044-.076.066-.055.1-.042h-3.551l-.068.012h.086l.082.03.067.055.043.076.015.085-.015.085-.044.076-.066.055-.082.03h-.086l-.082-.03-.066-.055-.044-.076-.015-.085.015-.085.044-.076.066-.055.1-.042h-7.148l-.068.012h.086l.082.03.067.055.043.076.015.085-.015.085-.044.076-.066.055-.082.03h-.086l-.082-.03-.066-.055-.044-.076-.015-.085.015-.085.044-.076.066-.055.1-.042h-3.549l-.068.012h.086l.082.03.066.055.044.076.015.085-.015.085-.044.076-.066.055-.082.03h-.086l-.082-.03-.066-.055-.044-.076-.015-.085.015-.085.044-.076.066-.055.1-.042h-3.555l-.068.012h.086l.082.03.067.055.043.076.015.085-.015.085-.043.076-.067.055-.082.03h-.086l-.082-.03-.066-.055-.044-.076-.015-.085.015-.085.044-.076.066-.055.1-.042h-3.546l-.068.012h.086l.082.03.067.055.043.076.015.085-.015.085-.043.076-.067.055-.082.03h-.086l-.082-.03-.066-.055-.044-.076-.015-.085.015-.085.044-.076.066-.055.1-.042-3.61.002.009-.002h-3.465v1.9h24.29l.946 1h3.448v.05h10.305v-1.05h6.49" style="stroke-width:.1"/>
      <path id="wsF12176" class="workspaceFront" d="M18.205-32.275h10.638v-9.2H18.204v4.706l.001.37v4.124" style="stroke-width:.1"/>
      <path id="wsF12177" class="workspaceFront" d="M39.622-32.275v-9.2H28.988v9.2h10.634" style="stroke-width:.1"/>
      <path id="wsF12175" class="workspaceFront" d="M39.767-32.275h7.055v-9.2h-7.055v9.2" style="stroke-width:.1"/>
      <path id="wsF12174" class="workspaceFront" d="M53.983-32.275v-9.2h-7.016v9.2h7.016" style="fill: #0DE47E; stroke-width: 0.1;"/>
      <path id="wsF12172" class="workspaceFront" d="M9.204-19.602h8.83v-4.053h-8.83v4.053" style="stroke-width:.1"/>
      <path id="wsF12192" class="workspaceFront" d="M9.004-26.454h.2v.7H8.115l-1.9 1.9h6.63l-.001-1.9v-4.381h-.743l-.007-2.02h-.235v-.08h-.836L9.13-30.328l.044.044v.318h-.17v3.512" style="stroke-width:.1"/>
      <path id="wsF12173" class="workspaceFront" d="M60.683-36.4h-6.53v4.05h6.53v-4.05" style="stroke-width:.1"/>
      <path id="wsF12171" class="workspaceFront" d="M6.316-23.722h-.233l-.139.139H3.249v3.981h5.8v-4.122l-2.733.002" style="stroke-width:.1"/>
      <path id="wsF12184" class="workspaceFront" d="M48.894-28.98v-.125H46.89v.051h-.2v-.11h-3.163l2.068 2.184h8.5v-2h-5.2" style="stroke-width:.1"/>
      <path id="wsF12188" class="workspaceFront" d="M60.154-25.934h2.88l.286-.014.208-.034.262-.075.157-.065.147-.072.203-.127.194-.156.226-.248.115-.155.144-.27.063-.157.088-.305.025-.201.011-.208-.012-.187-.035-.22-.067-.253-.09-.222-.148-.254-.158-.208-.139-.143-.214-.175-.208-.133-.159-.078-.172-.066-.143-.044-.254-.053-.33-.017v-.09h-2.88v4.23" style="stroke-width:.1"/>
      <path id="wsF12179" class="workspaceFront" d="M18.034-26.535h.105v-1.67h-.109v-2.05h.005v-2.021h-2.893v.122h.017v1.9h-.005v4.4h2.88v-.68" style="stroke-width:.1"/>
      <path id="wsF12178" class="workspaceFront" d="M15.047-32.287V-36.4h-2.833v4.113h2.833" style="stroke-width:.1"/>
      <path id="wsF12167" class="workspaceFront" d="M18.035-36.4h-2.893v3.993h2.893V-36.4" style="stroke-width:.1"/>
      <path id="wsF12182" class="workspaceFront" d="M15.154-25.754h-2.18l.001 1.9h5.06v-1.9h-2.881" style="stroke-width:.1"/>
      <path id="wsF12180" class="workspaceFront" d="m14.664-30.025-.363.108-.25.125-.18.12-.161.129-.234.252-.196.294-.067.133-.099.267-.061.27-.019.15-.01.173.036.38.062.244.092.236.126.235.122.176.169.192.169.147.259.182.278.132.233.075.254.053.33.017v-4.139l-.297.015-.193.034" style="stroke-width:.1"/>
      <path id="wsF12185" class="workspaceFront" d="M57.194-28.98h-3v2h3v-2" style="stroke-width:.1"/>
      <path id="wsF12194" class="workspaceFront" d="M15.03-30.254v-1.9l-2.816-.002.006 1.901 2.81.001" style="stroke-width:.1"/>
      <path id="wsF12190" class="workspaceFront" d="M64.464-30.254h1.519v-1.997h-2.2v1.997h.681" style="stroke-width:.1"/>
      <path id="wsF12186" class="workspaceFront" d="M57.374-29.474v1.67h2.6v-1.67h-2.6" style="stroke-width:.1"/>
      <path id="wsF12183" class="workspaceFront" d="M18.259-26.535h2.555v-1.67H18.26v1.67" style="stroke-width:.1"/>
      <path id="wsF12168" class="workspaceFront" d="M65.483-36.4h-1.7v1.35h1.7v-1.35" style="stroke-width:.1"/>
      <path id="wsF12169" class="workspaceFront" d="M63.783-34.95v1.3h1.7v-1.3h-1.7" style="stroke-width:.1"/>
      <path id="wsF12170" class="workspaceFront" d="M63.783-33.55v1.2h1.7v-1.2h-1.7" style="stroke-width:.1"/>
      <path id="wsF12181" class="workspaceFront" d="M20.814-25.855v-.5h-2.6v.5h2.6" style="stroke-width:.1"/>
      <path id="wsF12187" class="workspaceFront" d="M57.374-30.155v.5h2.6v-.5h-2.6" style="stroke-width:.1"/>
    </g>
  </g>
</svg>