<svg width="1397" height="733" viewBox="0 0 1397 733" fill="none" xmlns="http://www.w3.org/2000/svg">
<rect width="1397" height="733" fill="#F5F5F5"/>
<g id="Q_hus_plan1 1">
<g id="Q_hus_plan1">
<g id="svgDrawingGroup">
<g id="floorGraphicsGroup">
<g id="Vector">
<path id="Vector_2" d="M297.25 361.475H247.122V443.873H297.25V361.475ZM1119.4 361.475H1089.94V389.333H1119.4V361.475ZM1089.94 391.397V418.223H1119.4V391.397H1089.94ZM1089.94 420.287V445.05H1119.4V420.287H1089.94ZM94.1913 623.094H90.154L87.7455 625.963H85.0425H41.0483V708.113H141.547V624.498V623.053H94.1913M144.233 708.113H297.233V624.477H144.233V708.113ZM210.423 490.366V500.684H220.82L222.258 490.366H210.423ZM222.258 579.099L220.82 568.781H210.423V579.099H222.258ZM1036.23 361.475H978.77H923.08V445.05H1036.23V361.475ZM920.134 446.597V361.475V256.749H798.565V446.597H920.134ZM673.808 446.597H796.053V256.749H673.808V446.597ZM300.196 446.597H484.524V256.749H300.179V353.861L300.196 361.496V446.597ZM671.296 446.597V256.749H487.037V446.597H671.296ZM245.476 446.35V361.475H196.388V446.35H245.476ZM297.233 565.046H299.053V530.585H297.164V488.281H297.25V446.577H247.122V449.094H247.417V488.302H247.33V492.017L242.184 492.326L238.84 493.028L232.55 495.256L228.218 497.836L225.099 500.312L222.31 502.974L218.255 508.174L214.859 514.241L213.698 516.986L211.983 522.495L210.926 528.067L210.596 531.162L210.423 534.732L211.047 542.574L212.121 547.609L213.715 552.479L215.899 557.328L218.013 560.96L220.941 564.922L223.869 567.956L228.357 571.712L233.174 574.435L237.211 575.983L241.612 577.077L247.33 577.428V579.099H297.233V565.046ZM345.403 579.078V568.761H300.352V579.078H345.403ZM247.33 581.163H222.552H210.423H209.557L209.574 620.37H297.25V581.163H247.33ZM301.132 565.046H345.403V530.585H301.149L301.132 565.046ZM345.403 491.996H300.283V526.87H345.403V491.996ZM831.955 514.592V512.012H797.231V513.065H793.766V510.795H738.959L774.792 555.863H922.075V514.592H831.955ZM975.772 514.592H923.79V555.863H975.772V514.592ZM1102.02 490.366L1103.47 500.684H1113.87V490.366H1102.02ZM1113.87 579.099V568.781H1103.47L1102.04 579.099H1113.87ZM978.891 504.398V538.859H1023.94V504.398H978.891ZM978.891 490.345V500.663H1023.94V490.345H978.891ZM1027.06 577.448H1076.96L1081.92 577.159L1085.52 576.458L1090.06 574.91L1092.78 573.569L1095.33 572.083L1098.85 569.462L1102.21 566.243L1106.13 561.125L1108.12 557.927L1110.61 552.355L1111.71 549.115L1113.23 542.822L1113.66 538.674L1113.85 534.382L1113.65 530.523L1113.04 525.983L1111.88 520.762L1110.32 516.181L1107.75 510.939L1105.02 506.647L1102.61 503.696L1098.9 500.085L1095.3 497.341L1092.54 495.731L1089.56 494.369L1087.08 493.461L1082.68 492.367L1076.96 492.017V490.159H1027.06V577.448ZM1128.06 361.475H1122V445.05H1128.06V361.475Z" fill="#F5F5F5"/>
<path id="Vector_3" d="M94.1913 623.094H90.154L87.7455 625.963H85.0425H41.0483V708.113H141.547V624.498V623.053H94.1913M297.25 361.475H247.122V443.873H297.25V361.475ZM1119.4 361.475H1089.94V389.333H1119.4V361.475ZM1089.94 391.397V418.223H1119.4V391.397H1089.94ZM1089.94 420.287V445.05H1119.4V420.287H1089.94ZM144.233 708.113H297.233V624.477H144.233V708.113ZM210.423 490.366V500.684H220.82L222.258 490.366H210.423ZM222.258 579.099L220.82 568.781H210.423V579.099H222.258ZM1036.23 361.475H978.77H923.08V445.05H1036.23V361.475ZM920.134 446.597V361.475V256.749H798.565V446.597H920.134ZM673.808 446.597H796.053V256.749H673.808V446.597ZM300.196 446.597H484.524V256.749H300.179V353.861L300.196 361.496V446.597ZM671.296 446.597V256.749H487.037V446.597H671.296ZM245.476 446.35V361.475H196.388V446.35H245.476ZM297.233 565.046H299.053V530.585H297.164V488.281H297.25V446.577H247.122V449.094H247.417V488.302H247.33V492.017L242.184 492.326L238.84 493.028L232.55 495.256L228.218 497.836L225.099 500.312L222.31 502.974L218.255 508.174L214.859 514.241L213.698 516.986L211.983 522.495L210.926 528.067L210.596 531.162L210.423 534.732L211.047 542.574L212.121 547.609L213.715 552.479L215.899 557.328L218.013 560.96L220.941 564.922L223.869 567.956L228.357 571.712L233.174 574.435L237.211 575.983L241.612 577.077L247.33 577.428V579.099H297.233V565.046ZM345.403 579.078V568.761H300.352V579.078H345.403ZM247.33 581.163H222.552H210.423H209.557L209.574 620.37H297.25V581.163H247.33ZM301.132 565.046H345.403V530.585H301.149L301.132 565.046ZM345.403 491.996H300.283V526.87H345.403V491.996ZM831.955 514.592V512.012H797.231V513.065H793.766V510.795H738.959L774.792 555.863H922.075V514.592H831.955ZM975.772 514.592H923.79V555.863H975.772V514.592ZM1102.02 490.366L1103.47 500.684H1113.87V490.366H1102.02ZM1113.87 579.099V568.781H1103.47L1102.04 579.099H1113.87ZM978.891 504.398V538.859H1023.94V504.398H978.891ZM978.891 490.345V500.663H1023.94V490.345H978.891ZM1027.06 577.448H1076.96L1081.92 577.159L1085.52 576.458L1090.06 574.91L1092.78 573.569L1095.33 572.083L1098.85 569.462L1102.21 566.243L1106.13 561.125L1108.12 557.927L1110.61 552.355L1111.71 549.115L1113.23 542.822L1113.66 538.674L1113.85 534.382L1113.65 530.523L1113.04 525.983L1111.88 520.762L1110.32 516.181L1107.75 510.939L1105.02 506.647L1102.61 503.696L1098.9 500.085L1095.3 497.341L1092.54 495.731L1089.56 494.369L1087.08 493.461L1082.68 492.367L1076.96 492.017V490.159H1027.06V577.448ZM1128.06 361.475H1122V445.05H1128.06V361.475Z" stroke="black" stroke-width="0.1" stroke-miterlimit="10" stroke-linecap="square"/>
</g>
<g id="Vector_2_2">
<path id="Vector_4" d="M1076.96 488.302H1088.23V361.475H1037.98V447.113H923.097V449.094L922.82 449.445H921.33L919.909 450.064L918.765 451.199L918.003 452.747L917.743 454.521L918.003 456.275L918.765 457.844L919.909 458.979L921.33 459.598H922.82L924.241 458.979L925.402 457.844L926.147 456.275L926.407 454.521L926.147 452.747L925.402 451.199L924.241 450.043L922.82 449.445L923.08 449.074H860.147L858.969 449.342H860.459L861.88 449.961L863.023 451.096L863.786 452.664L864.045 454.418L863.786 456.172L863.023 457.741L861.88 458.876L860.459 459.495H858.969L857.548 458.876L856.404 457.741L855.642 456.172L855.382 454.418L855.642 452.664L856.404 451.096L857.548 449.961L859.28 449.094H797.751L796.573 449.342H798.063L799.484 449.961L800.627 451.096L801.39 452.664L801.65 454.418L801.39 456.172L800.627 457.741L799.484 458.876L798.063 459.495H796.573L795.152 458.876L793.991 457.741L793.246 456.172L792.986 454.418L793.246 452.664L794.008 451.096L795.152 449.961L796.885 449.094H735.355L734.177 449.342H735.667L737.088 449.961L738.249 451.096L738.994 452.664L739.254 454.418L738.994 456.172L738.232 457.741L737.088 458.876L735.667 459.495H734.177L732.756 458.876L731.613 457.741L730.85 456.172L730.59 454.418L730.85 452.664L731.613 451.096L732.756 449.961L734.489 449.094H673.809H671.296L671.781 449.342L670.36 449.961L669.217 451.096L668.454 452.664L668.194 454.418L668.454 456.172L669.217 457.741L670.36 458.876L671.781 459.495H673.271L674.692 458.876L675.853 457.741L676.598 456.172L676.858 454.418L676.598 452.664L675.853 451.096L674.692 449.961L673.271 449.342H671.781L671.296 449.094H610.633L609.455 449.342H610.945L612.366 449.961L613.527 451.096L614.272 452.664L614.532 454.418L614.272 456.172L613.509 457.741L612.366 458.876L610.945 459.495H609.455L608.034 458.876L606.89 457.741L606.128 456.172L605.868 454.418L606.128 452.664L606.89 451.096L608.034 449.961L609.767 449.094H548.272L547.094 449.342H548.584L550.005 449.961L551.148 451.096L551.911 452.664L552.171 454.418L551.911 456.172L551.148 457.741L550.005 458.876L548.584 459.495H547.094L545.673 458.876L544.529 457.741L543.767 456.172L543.507 454.418L543.767 452.664L544.529 451.096L545.673 449.961L547.406 449.094H485.807L484.629 449.342H486.119L487.54 449.961L488.7 451.096L489.446 452.664L489.705 454.418L489.446 456.172L488.7 457.741L487.54 458.876L486.119 459.495H484.629L483.208 458.876L482.064 457.741L481.302 456.172L481.042 454.418L481.302 452.664L482.064 451.096L483.208 449.961L484.94 449.094H423.498L422.319 449.342H423.81L425.23 449.961L426.391 451.096L427.136 452.664L427.396 454.418L427.136 456.172L426.391 457.741L425.23 458.876L423.81 459.495H422.319L420.899 458.876L419.755 457.741L418.993 456.172L418.733 454.418L418.993 452.664L419.755 451.096L420.899 449.961L422.631 449.094H361.102L359.924 449.156H361.414L362.835 449.775L363.996 450.91L364.741 452.478L365.001 454.233L364.741 455.987L363.996 457.555L362.835 458.69L361.414 459.309H359.924L358.503 458.69L357.342 457.555L356.597 455.987L356.337 454.233L356.597 452.478L357.342 450.91L358.503 449.775L360.236 449.094H300.196V488.302H721.078L737.469 508.938H797.231V509.969H975.79V488.302H1076.96ZM1101.74 488.302H1128.06V447.093H1089.94V488.302H1101.74Z" fill="#F5F5F5"/>
<path id="Vector_5" d="M922.82 449.445L923.097 449.094V447.113H1037.98V361.475H1088.23V488.302H1076.96H975.79V509.969H797.231V508.938H737.469L721.078 488.302H300.196V449.094H360.236L358.503 449.775L357.342 450.91L356.597 452.478L356.337 454.233L356.597 455.987L357.342 457.555L358.503 458.69L359.924 459.309H361.414L362.835 458.69L363.996 457.555L364.741 455.987L365.001 454.233L364.741 452.478L363.996 450.91L362.835 449.775L361.414 449.156H359.924L361.102 449.094H422.631L420.899 449.961L419.755 451.096L418.993 452.664L418.733 454.418L418.993 456.172L419.755 457.741L420.899 458.876L422.319 459.495H423.81L425.23 458.876L426.391 457.741L427.136 456.172L427.396 454.418L427.136 452.664L426.391 451.096L425.23 449.961L423.81 449.342H422.319L423.498 449.094H484.94L483.208 449.961L482.064 451.096L481.302 452.664L481.042 454.418L481.302 456.172L482.064 457.741L483.208 458.876L484.629 459.495H486.119L487.54 458.876L488.7 457.741L489.446 456.172L489.705 454.418L489.446 452.664L488.7 451.096L487.54 449.961L486.119 449.342H484.629L485.807 449.094H547.406L545.673 449.961L544.529 451.096L543.767 452.664L543.507 454.418L543.767 456.172L544.529 457.741L545.673 458.876L547.094 459.495H548.584L550.005 458.876L551.148 457.741L551.911 456.172L552.171 454.418L551.911 452.664L551.148 451.096L550.005 449.961L548.584 449.342H547.094L548.272 449.094H609.767L608.034 449.961L606.89 451.096L606.128 452.664L605.868 454.418L606.128 456.172L606.89 457.741L608.034 458.876L609.455 459.495H610.945L612.366 458.876L613.509 457.741L614.272 456.172L614.532 454.418L614.272 452.664L613.527 451.096L612.366 449.961L610.945 449.342H609.455L610.633 449.094H671.296M922.82 449.445H921.33L919.909 450.064L918.765 451.199L918.003 452.747L917.743 454.521L918.003 456.275L918.765 457.844L919.909 458.979L921.33 459.598H922.82L924.241 458.979L925.402 457.844L926.147 456.275L926.407 454.521L926.147 452.747L925.402 451.199L924.241 450.043L922.82 449.445ZM922.82 449.445L923.08 449.074H860.147L858.969 449.342H860.459L861.88 449.961L863.023 451.096L863.786 452.664L864.045 454.418L863.786 456.172L863.023 457.741L861.88 458.876L860.459 459.495H858.969L857.548 458.876L856.404 457.741L855.642 456.172L855.382 454.418L855.642 452.664L856.404 451.096L857.548 449.961L859.28 449.094H797.751L796.573 449.342H798.063L799.484 449.961L800.627 451.096L801.39 452.664L801.65 454.418L801.39 456.172L800.627 457.741L799.484 458.876L798.063 459.495H796.573L795.152 458.876L793.991 457.741L793.246 456.172L792.986 454.418L793.246 452.664L794.008 451.096L795.152 449.961L796.885 449.094H735.355L734.177 449.342H735.667L737.088 449.961L738.249 451.096L738.994 452.664L739.254 454.418L738.994 456.172L738.232 457.741L737.088 458.876L735.667 459.495H734.177L732.756 458.876L731.613 457.741L730.85 456.172L730.59 454.418L730.85 452.664L731.613 451.096L732.756 449.961L734.489 449.094H673.809H671.296M671.296 449.094L671.781 449.342M671.781 449.342L670.36 449.961L669.217 451.096L668.454 452.664L668.194 454.418L668.454 456.172L669.217 457.741L670.36 458.876L671.781 459.495H673.271L674.692 458.876L675.853 457.741L676.598 456.172L676.858 454.418L676.598 452.664L675.853 451.096L674.692 449.961L673.271 449.342H671.781ZM1101.74 488.302H1128.06V447.093H1089.94V488.302H1101.74Z" stroke="black" stroke-width="0.1" stroke-miterlimit="10" stroke-linecap="square"/>
</g>
<g id="Vector_3_2">
<path id="Vector_6" d="M1116.99 581.163H1113.87H1101.74H1076.96H1023.94V577.448H977.158V560.527H773.094L718.651 492.016H347.153V526.891H348.539V565.067V581.163L358.26 610.486L357.116 611.642L356.354 613.189L356.094 614.943L356.354 616.718L357.116 618.266L358.26 619.421L359.681 620.04H361.188L362.592 619.421L363.753 618.266L364.498 616.718L364.758 614.943L481.336 613.437V616.966L482.098 618.513L483.242 619.669L484.663 620.288H486.17L487.574 619.669L488.735 618.513L489.48 616.966V613.437L488.735 611.889L487.574 610.734L486.17 610.114H484.663L483.242 610.734L482.098 611.889L481.336 613.437L364.758 614.943L364.498 613.189L363.753 611.642L362.592 610.486L361.188 609.867H359.681L358.26 610.486L348.522 581.142H345.403H300.352H298.966V620.35H300.352V662.653H611.898V620.35H1200.33L1221.99 651.303H1241.92V581.163H1116.99Z" fill="#F5F5F5"/>
<path id="Vector_7" d="M358.26 610.486L348.539 581.163V565.067V526.891H347.153V492.016H718.651L773.094 560.527H977.158V577.448H1023.94V581.163H1076.96H1101.74H1113.87H1116.99H1241.92V651.303H1221.99L1200.33 620.35H611.898V662.653H300.352V620.35H298.966V581.142H300.352H345.403H348.522L358.26 610.486ZM358.26 610.486L357.116 611.642L356.354 613.189L356.094 614.943L356.354 616.718L357.116 618.266L358.26 619.421L359.681 620.04H361.188L362.592 619.421L363.753 618.266L364.498 616.718L364.758 614.943M358.26 610.486L359.681 609.867H361.188L362.592 610.486L363.753 611.642L364.498 613.189L364.758 614.943M364.758 614.943L481.336 613.437M481.336 613.437V616.966L482.098 618.513L483.242 619.669L484.663 620.288H486.17L487.574 619.669L488.735 618.513L489.48 616.966V613.437L488.735 611.889L487.574 610.734L486.17 610.114H484.663L483.242 610.734L482.098 611.889L481.336 613.437Z" stroke="black" stroke-width="0.1" stroke-miterlimit="10" stroke-linecap="square"/>
</g>
<g id="Vector_4_2">
<path id="Vector_8" d="M978.891 575.364H1023.94V542.553H978.891V560.506V575.364ZM140.767 566.718H144.233V581.163H137.042H125.363L92.4414 620.37H207.322L207.304 581.163V490.758H196.509H194.43L194.309 449.074H190.237V447.423H175.751L142.951 486.775L143.713 487.683V494.245H140.767V566.718ZM1124.11 38.7332H1124.22L1113.89 41.1063L1114.03 41.0857L1101.85 44.3461L1101.95 44.3048L1091.5 47.4002L1091.43 47.4208L1081.16 50.2685L1081.45 50.1653L1072.11 53.5289L1061.98 57.1609L1062.08 57.1196L1048.86 62.2372L1049 62.1753L1037.42 67.2104L1037.49 67.1692L1028.26 71.3994L1028.34 71.3582L1017.17 76.806L1017.34 76.7234L1050.35 159.741L1049.64 160.814L1049.38 162.155L1049.64 163.497L1050.35 164.57L1051.39 165.189H1052.55L1054.46 254.067L1053.42 254.665L1052.71 255.738L1052.45 257.079L1052.71 258.421L1053.42 259.494L1054.46 260.113H1055.62L1056.66 259.494L1057.38 258.421L1057.64 257.079L1057.38 255.738L1056.67 254.665L1055.63 254.046H1054.47L1052.57 165.168L1053.61 164.57L1054.32 163.497L1054.58 162.155L1054.32 160.814L1053.61 159.741L1052.57 159.122H1051.41L1050.35 159.741L1017.34 76.7234L1006.42 82.6666L1006.36 82.7078L995.387 88.4858L995.612 88.3413L985.441 94.4701L985.406 94.5114L978.822 98.391V115.663L978.77 352.189H1128.06V37.9077L1124.11 38.7332Z" fill="#F5F5F5"/>
<path id="Vector_9" d="M1017.34 76.7234L1017.17 76.806L1028.34 71.3582L1028.26 71.3994L1037.49 67.1692L1037.42 67.2104L1049 62.1753L1048.86 62.2372L1062.08 57.1196L1061.98 57.1609L1072.11 53.5289L1081.45 50.1653L1081.16 50.2685L1091.43 47.4208L1091.5 47.4002L1101.95 44.3048L1101.85 44.3461L1114.03 41.0857L1113.89 41.1063L1124.22 38.7332H1124.11L1128.06 37.9077V352.189H978.77L978.822 115.663V98.391L985.406 94.5114L985.441 94.4701L995.612 88.3413L995.387 88.4858L1006.36 82.7078L1006.42 82.6666L1017.34 76.7234ZM1017.34 76.7234L1050.35 159.741M1050.35 159.741L1049.64 160.814L1049.38 162.155L1049.64 163.497L1050.35 164.57L1051.39 165.189H1052.55L1054.46 254.067L1053.42 254.665L1052.71 255.738L1052.45 257.079L1052.71 258.421L1053.42 259.494L1054.46 260.113H1055.62L1056.66 259.494L1057.38 258.421L1057.64 257.079L1057.38 255.738L1056.67 254.665L1055.63 254.046H1054.47L1052.57 165.168L1053.61 164.57L1054.32 163.497L1054.58 162.155L1054.32 160.814L1053.61 159.741L1052.57 159.122H1051.41L1050.35 159.741ZM978.891 575.364H1023.94V542.553H978.891V560.506V575.364ZM140.767 566.718H144.233V581.163H137.042H125.363L92.4414 620.37H207.322L207.304 581.163V490.758H196.509H194.43L194.309 449.074H190.237V447.423H175.751L142.951 486.775L143.713 487.683V494.245H140.767V566.718Z" stroke="black" stroke-width="0.1" stroke-miterlimit="10" stroke-linecap="square"/>
</g>
<g id="Vector_5_2">
<path id="Vector_10" d="M207.304 488.282L245.164 488.302V449.094H245.476V449.053H196.388V449.094L196.492 488.302L207.304 488.282ZM927.065 247.669H919.198V256.79V256.749H920.134M862.555 256.77V247.669L856.837 247.69V247.649V256.77H862.555ZM800.177 256.77V247.669H794.458V256.79V256.749L800.177 256.77ZM737.798 256.77V247.669L732.08 247.69V256.77H737.798ZM675.42 256.77V247.669L669.702 247.69V256.77H675.42ZM613.041 256.77V247.669L607.323 247.69V256.77H613.041ZM550.663 256.77V247.669L544.945 247.69V256.77H550.663ZM488.284 256.77V247.669L482.566 247.69V247.649V256.77H488.284ZM425.906 256.77V247.669H420.188V256.749L425.906 256.77ZM363.527 256.77V247.669H357.809V256.749L363.527 256.77ZM300.179 256.77H301.149L301.132 247.649L301.149 247.669H300.179M862.555 256.77H863.248V247.69L862.555 247.669V256.77Z" fill="#F5F5F5"/>
<path id="Vector_11" d="M927.065 247.669H919.198M919.198 247.669V256.79V256.749H920.134M919.198 247.669H862.555M862.555 247.669V256.77M862.555 247.669L863.248 247.69V256.77H862.555M862.555 247.669L856.837 247.69M919.215 256.77H862.555M862.555 256.77H856.837M856.837 256.77V247.649V247.69M856.837 256.77H800.177M856.837 247.69L800.177 247.669M800.177 247.669V256.77M800.177 247.669H794.458M800.177 256.77L794.458 256.749V256.79M794.458 256.79V247.669M794.458 256.79L737.798 256.77M794.458 247.669H737.798M737.798 247.669V256.77M737.798 247.669L732.08 247.69M737.798 256.77H732.08M732.08 256.77V247.69M732.08 256.77H675.42M732.08 247.69L675.42 247.669M675.42 247.669V256.77M675.42 247.669L669.702 247.69M675.42 256.77H669.702M669.702 256.77V247.69M669.702 256.77H613.041M669.702 247.69L613.041 247.669M613.041 247.669V256.77M613.041 247.669L607.323 247.69M613.041 256.77H607.323M607.323 256.77V247.69M607.323 256.77H550.663M607.323 247.69L550.663 247.669M550.663 247.669V256.77M550.663 247.669L544.945 247.69M550.663 256.77H544.945M544.945 256.77V247.69M544.945 256.77H488.284M544.945 247.69L488.284 247.669M488.284 247.669V256.77M488.284 247.669L482.566 247.69M488.284 256.77H482.566M482.566 256.77V247.649V247.69M482.566 256.77H425.906M482.566 247.69L425.906 247.669M425.906 247.669V256.77M425.906 247.669H420.188M425.906 256.77L420.188 256.749M420.188 256.749V247.669M420.188 256.749L363.527 256.77M420.188 247.669H363.527M363.527 247.669V256.77M363.527 247.669H357.809M363.527 256.77L357.809 256.749M357.809 256.749V247.669M357.809 256.749L301.149 256.77M357.809 247.669H301.149M301.149 247.669L301.132 247.649L301.149 256.77M301.149 247.669H300.179M301.149 256.77H300.179M207.304 488.282L245.164 488.302V449.094H245.476V449.053H196.388V449.094L196.492 488.302L207.304 488.282Z" stroke="black" stroke-width="0.1" stroke-miterlimit="10" stroke-linecap="square"/>
</g>
<g id="Vector_6_2">
<path id="Vector_12" d="M919.216 256.77H918.522V247.69H919.216V256.77ZM856.837 247.669H856.144V256.749H856.837V247.669ZM800.177 247.669H800.87V256.749H800.177V247.669ZM737.798 256.77H738.491V247.69H737.798V256.77ZM794.459 256.77H793.766V247.69H794.459V256.77ZM675.42 256.77H676.113V247.69H675.42V256.77ZM732.08 256.77H731.387V247.69H732.08V256.77ZM613.041 256.77H613.734V247.69H613.041V256.77ZM669.702 256.77H669.009V247.69H669.702V256.77ZM550.663 256.77H551.356V247.69H550.663V256.77ZM607.323 256.77H606.63V247.69H607.323V256.77ZM488.285 256.77H488.978V247.69H488.285V256.77ZM544.945 256.77H544.252V247.69H544.945V256.77ZM482.566 247.669H481.873V256.749H482.566V247.669ZM425.906 247.669H426.599V256.749H425.906V247.669ZM420.188 247.669H419.495V256.749H420.188V247.669ZM363.528 247.669H364.221V256.749H363.528V247.669ZM357.81 247.669H357.116V256.749H357.81V247.669ZM301.149 247.669H301.842V256.749H301.149V247.669ZM190.254 447.423V449.074H196.388V361.475M196.388 361.475H207.096L207.564 357.554V353.84H190.254M233.573 353.84V357.554L234.023 361.475H254.85V353.84H233.573ZM293.248 353.84H284.307V361.475H300.196V353.84" fill="#F5F5F5"/>
<path id="Vector_13" d="M918.522 256.77H919.216V247.69H918.522M918.522 256.77V247.69M918.522 256.77H863.248M918.522 247.69L863.248 247.669M863.248 252.23H918.522M856.144 247.669H856.837V256.749H856.144M856.144 247.669V256.749M856.144 247.669H800.87M856.144 256.749H800.87M800.87 247.669H800.177V256.749H800.87M800.87 247.669V256.749M856.144 252.23H800.87M738.491 256.77H737.798V247.69H738.491M738.491 256.77V247.69M738.491 256.77H793.766M738.491 247.69H793.766M793.766 256.77H794.459V247.69H793.766M793.766 256.77V247.69M738.491 252.23H793.766M676.113 256.77H675.42V247.69H676.113M676.113 256.77V247.69M676.113 256.77H731.387M676.113 247.69H731.387M731.387 256.77H732.08V247.69H731.387M731.387 256.77V247.69M676.113 252.23H731.387M613.734 256.77H613.041V247.69H613.734M613.734 256.77V247.69M613.734 256.77H669.009M613.734 247.69H669.009M669.009 256.77H669.702V247.69H669.009M669.009 256.77V247.69M613.734 252.23H669.009M551.356 256.77H550.663V247.69H551.356M551.356 256.77V247.69M551.356 256.77H606.63M551.356 247.69H606.63M606.63 256.77H607.323V247.69H606.63M606.63 256.77V247.69M551.356 252.23H606.63M488.978 256.77H488.285V247.69H488.978M488.978 256.77V247.69M488.978 256.77H544.252M488.978 247.69H544.252M544.252 256.77H544.945V247.69H544.252M544.252 256.77V247.69M488.978 252.23H544.252M481.873 247.669H482.566V256.749H481.873M481.873 247.669V256.749M481.873 247.669H426.599M481.873 256.749H426.599M426.599 247.669H425.906V256.749H426.599M426.599 247.669V256.749M481.873 252.23H426.599M419.495 247.669H420.188V256.749H419.495M419.495 247.669V256.749M419.495 247.669H364.221M419.495 256.749H364.221M364.221 247.669H363.528V256.749H364.221M364.221 247.669V256.749M419.495 252.23H364.221M357.116 247.669H357.81V256.749H357.116M357.116 247.669V256.749M357.116 247.669H301.842M357.116 256.749H301.842M301.842 247.669H301.149V256.749H301.842M301.842 247.669V256.749M357.116 252.23H301.842M190.254 443.708V353.84H207.564M207.564 353.84V357.554L207.096 361.475M207.564 353.84H233.573M190.254 447.423V449.074H196.388V361.475H207.096M207.096 361.475H234.023M234.023 361.475L233.573 357.554V353.84M234.023 361.475H254.85V353.84H233.573M293.248 353.84H284.307V361.475H300.196V353.84" stroke="black" stroke-width="0.1" stroke-miterlimit="10" stroke-linecap="square"/>
</g>
<g id="Vector_7_2">
<path id="Vector_14" d="M233.572 355.491H232.879V357.554H233.572V355.491ZM207.581 355.491H208.275V357.554H207.581V355.491ZM216.938 355.491H216.245V357.554H216.938V355.491ZM284.307 353.84H283.614V361.475H284.307V353.84ZM254.85 353.84H255.544V361.475H254.85V353.84ZM283.614 331.966L280.737 332.255L277.93 333.039L275.279 334.36L272.819 336.155L270.618 338.384L268.747 341.005L267.239 343.914L266.148 347.092L265.472 350.435L265.247 353.861M255.544 342.284L257.709 342.594L259.754 343.44L261.591 344.822L263.133 346.638L264.294 348.846L265.004 351.281L265.247 353.861M41.0656 625.942H43.2142L43.7167 621.732V618.637H33.251" fill="#F5F5F5"/>
<path id="Vector_15" d="M232.879 355.491H233.572V357.554H232.879M232.879 355.491V357.554M232.879 355.491H216.938M232.879 357.554H216.938M216.938 355.491H216.245M216.938 355.491V357.554M216.938 357.554H216.245M208.275 355.491H207.581V357.554H208.275M208.275 355.491V357.554M208.275 355.491H216.245M208.275 357.554H216.245M216.245 355.491V357.554M232.879 356.523H216.938M216.245 356.523H208.275M283.614 353.84H284.307V361.475H283.614V353.84ZM283.614 353.84V331.966L280.737 332.255L277.93 333.039L275.279 334.36L272.819 336.155L270.618 338.384L268.747 341.005L267.239 343.914L266.148 347.092L265.472 350.435L265.247 353.861L265.004 351.281L264.294 348.846L263.133 346.638L261.591 344.822L259.754 343.44L257.709 342.594L255.544 342.284V353.84M255.544 353.84H254.85V361.475H255.544V353.84ZM41.0656 708.113V625.942H43.2142L43.7167 621.732V618.637H33.251M33.2683 618.616V715.542" stroke="black" stroke-width="0.1" stroke-miterlimit="10" stroke-linecap="square"/>
</g>
<path id="Vector_8_2" d="M43.2144 625.942L43.7168 621.733V618.637H78.3715V621.712L78.874 625.922L43.2144 625.942Z" fill="#F5F5F5" stroke="black" stroke-width="0.1" stroke-miterlimit="10" stroke-linecap="square"/>
<g id="Vector_9_2">
<path id="Vector_16" d="M78.3715 618.616V621.712L78.874 625.963H85.0425V618.616H78.3715ZM78.3715 621.712V619.669H43.7168V621.732L78.3715 621.712Z" fill="#F5F5F5"/>
<path id="Vector_17" d="M78.3715 621.712V618.616H85.0425V625.963H78.874L78.3715 621.712ZM78.3715 621.712V619.669H43.7168V621.732L78.3715 621.712Z" stroke="black" stroke-width="0.1" stroke-miterlimit="10" stroke-linecap="square"/>
</g>
<g id="Vector_10_2">
<path id="Vector_18" d="M78.3715 619.648H77.6784V621.712H78.3715V619.648ZM43.7168 619.648H44.4099V621.712H43.7168V619.648ZM53.2468 619.648H52.5537V621.712L53.2468 621.732V619.648ZM487.037 256.77H484.525V424.538H487.037V256.77ZM487.037 446.597V443.089H484.525V446.597M487.037 443.089V442.264H484.525V443.089H487.037Z" fill="#F5F5F5"/>
<path id="Vector_19" d="M77.6784 619.648H78.3715V621.712H77.6784M77.6784 619.648V621.712M77.6784 619.648H53.2468M77.6784 621.712L53.2468 621.732M53.2468 619.648H52.5537M53.2468 619.648V621.732M53.2468 621.732L52.5537 621.712M44.4099 619.648H43.7168V621.712H44.4099M44.4099 619.648V621.712M44.4099 619.648H52.5537M44.4099 621.712H52.5537M52.5537 619.648V621.712M77.6784 620.701H53.2468M52.5537 620.701H44.4099M487.037 446.597V443.089M487.037 443.089H484.525M487.037 443.089V442.264H484.525V443.089M484.525 443.089V446.597M487.037 256.77H484.525V424.538H487.037V256.77Z" stroke="black" stroke-width="0.1" stroke-miterlimit="10" stroke-linecap="square"/>
</g>
<g id="Vector_11_2">
<path id="Vector_20" d="M487.037 424.517V425.343H484.524V424.517H487.037ZM501.245 442.264L501.037 439.334L500.396 436.486L499.356 433.803L497.935 431.389L496.168 429.305L494.141 427.613L491.888 426.374L489.514 425.611L487.037 425.343M247.122 443.873V361.475H245.476V446.35M245.476 449.032V449.074H245.164M247.434 449.094H247.122V446.577M798.565 446.597V444.204H796.052V446.597M796.052 425.632H798.565V256.749H796.052V425.632ZM796.052 444.204V443.378H798.565V444.204H796.052ZM796.052 425.632V426.457H798.565V425.632H796.052ZM781.844 443.378L782.052 440.427L782.693 437.58L783.733 434.897L785.171 432.503L786.904 430.419L788.948 428.727L791.201 427.489L793.575 426.705L796.052 426.457M978.769 361.475L969.239 354.149H962.603V357.864L963.036 361.475H978.769ZM920.134 361.475H936.179L936.612 357.864V354.149H927.082M962.603 355.8H961.91V357.864H962.603V355.8ZM936.612 355.8H937.305V357.864H936.612V355.8ZM945.969 355.8H945.276V357.864H945.969V355.8ZM33.2681 715.542H300.352L297.233 708.113H41.0654M297.233 620.35H272.628V624.477H297.233M144.232 624.498H246.637V620.37H209.574M246.637 624.498H247.33V620.37H246.637V624.498Z" fill="#F5F5F5"/>
<path id="Vector_21" d="M487.037 425.343V424.517H484.524V425.343H487.037ZM487.037 425.343L489.514 425.611L491.888 426.374L494.141 427.613L496.168 429.305L497.935 431.389L499.356 433.803L500.396 436.486L501.037 439.334L501.245 442.264H487.037M247.122 443.873V361.475H245.476V446.35M245.476 449.032V449.074H245.164M247.434 449.094H247.122V446.577M798.565 446.597V444.204M798.565 444.204H796.052M798.565 444.204V443.378H796.052M796.052 444.204V446.597M796.052 444.204V443.378M796.052 443.378H781.844L782.052 440.427L782.693 437.58L783.733 434.897L785.171 432.503L786.904 430.419L788.948 428.727L791.201 427.489L793.575 426.705L796.052 426.457M796.052 425.632H798.565M796.052 425.632V256.749H798.565V425.632M796.052 425.632V426.457M798.565 425.632V426.457H796.052M347.136 491.996H718.634M297.25 488.281H297.164V530.585M300.282 491.996H345.403M721.06 488.281H300.196M299.052 565.046H297.233M300.352 568.761H345.403M345.403 565.046H301.149M300.282 526.891V492.017M962.603 354.149H969.239L978.769 361.475H963.036M962.603 354.149V357.864M962.603 354.149H936.612M963.036 361.475L962.603 357.864M963.036 361.475H936.179M962.603 357.864H961.91M962.603 357.864V355.8H961.91M936.612 354.149V357.864M936.612 354.149H927.082M961.91 357.864V355.8M961.91 357.864H945.969M961.91 355.8H945.969M936.179 361.475H920.134M936.179 361.475L936.612 357.864M936.612 357.864H937.305M936.612 357.864V355.8H937.305M937.305 357.864V355.8M937.305 357.864H945.276M937.305 355.8H945.276M945.969 355.8H945.276M945.969 355.8V357.864M945.969 357.864H945.276M945.276 355.8V357.864M961.91 356.853H945.969M945.276 356.853H937.305M33.2681 715.542H300.352L297.233 708.113H41.0654M300.352 620.35H298.966M297.233 620.35H272.628V624.477H297.233M144.232 624.498H246.637M246.637 624.498V620.37M246.637 624.498H247.33V620.37H246.637M246.637 620.37H209.574M207.321 620.37H141.564M141.564 623.053V624.498" stroke="black" stroke-width="0.1" stroke-miterlimit="10" stroke-linecap="square"/>
</g>
<g id="Vector_12_2">
<path id="Vector_22" d="M272.628 624.477H271.935V620.35H272.628V624.477ZM247.331 643.255L250.068 642.987L252.737 642.141L255.215 640.738L257.467 638.881L259.408 636.549L260.985 633.866L262.145 630.915L262.856 627.737L263.098 624.477M271.935 635.001L269.977 634.753L268.106 633.969L266.425 632.731L265.039 631.039L263.982 629.058L263.324 626.829L263.098 624.477M300.196 488.281V487.291H297.251V488.302M297.251 479.037H300.214V478.603H297.268L297.251 479.037ZM300.196 446.597V361.475H297.251V443.873M297.251 446.577V449.094H300.196M300.196 487.291V486.465H297.251V487.291H300.196ZM300.214 479.037L300.196 479.862H297.251V479.037H300.214ZM297.251 449.094V449.92H300.196V449.094H297.251ZM297.268 478.603L297.251 477.778H300.196L300.214 478.603H297.268ZM289.28 449.92L289.488 452.025L290.077 454.026L291.03 455.822L292.278 457.328L293.803 458.463L295.483 459.164L297.251 459.391M281.829 477.757L282.072 474.579L282.765 471.484L283.909 468.595L285.433 465.954L287.339 463.684L289.54 461.868L291.966 460.506L294.565 459.68L297.251 459.391M923.08 445.05V361.475H920.134V446.597M1036.23 445.05H1025.83V445.008V447.093H1037.96M1000.19 447.113V445.008L998.731 445.029V447.093L1000.19 447.113ZM973.087 447.113V445.008L969.413 445.029V447.093L973.087 447.113ZM952.086 447.113V445.05H948.95V445.008V447.093L952.086 447.113ZM923.08 447.113H923.305V445.029H923.08M1025.83 445.05H1025.14V447.113L1025.83 447.093V445.05ZM1000.19 445.05H1000.88V447.113H1000.19V445.05ZM998.731 445.05H998.038V447.113L998.731 447.093V445.05ZM973.087 445.05H973.78V447.113H973.087V445.05ZM952.086 447.113H952.779V445.05H952.086V447.113ZM969.413 447.093L968.72 447.113V445.05H969.413V447.093ZM948.95 445.05H948.256V447.113L948.95 447.093V445.05ZM923.305 445.05H923.998V447.113H923.305V445.05ZM673.809 256.77H671.296V425.632H673.809V256.77ZM673.809 446.597V444.204H671.296V446.597M671.296 444.204V443.378H673.809V444.204H671.296ZM671.296 425.632V426.457H673.809V425.632H671.296ZM657.088 443.378L657.296 440.427L657.937 437.58L658.976 434.897L660.415 432.503L662.147 430.419L664.192 428.727L666.444 427.489L668.818 426.705L671.296 426.457M297.233 624.477V708.113L300.352 715.542V666.78M1037.96 361.475H1049.45V352.189H978.77M1128.06 352.189H1080.65V361.475H1088.21M1049.45 361.475H1050.16V358.999H1049.47L1049.45 361.475ZM1080.65 361.475H1079.96V358.999H1080.65V361.475ZM1050.14 379.222L1052.74 378.954L1055.25 378.169L1057.61 376.849L1059.72 375.074L1061.56 372.887L1063.05 370.349L1064.16 367.563L1064.82 364.571L1065.06 361.475" fill="#F5F5F5"/>
<path id="Vector_23" d="M271.935 624.477H272.628V620.35H271.935V624.477ZM271.935 624.477V635.001L269.977 634.753L268.106 633.969L266.425 632.731L265.039 631.039L263.982 629.058L263.324 626.829L263.098 624.477L262.856 627.737L262.145 630.915L260.985 633.866L259.408 636.549L257.467 638.881L255.215 640.738L252.737 642.141L250.068 642.987L247.331 643.255M247.331 624.498V643.276M300.196 488.281V487.291M300.196 487.291H297.251M300.196 487.291V486.465M297.251 487.291V488.302M297.251 487.291V486.465M300.196 486.465H297.251M300.196 486.465V479.862M297.251 486.465V479.862M297.251 479.037H300.214M297.251 479.037L297.268 478.603M297.251 479.037V479.862M300.214 479.037V478.603M300.214 479.037L300.196 479.862M297.268 478.603H300.214M297.268 478.603L297.251 477.778M297.251 479.862H300.196M300.214 478.603L300.196 477.778H297.251M297.251 477.778L281.829 477.757L282.072 474.579L282.765 471.484L283.909 468.595L285.433 465.954L287.339 463.684L289.54 461.868L291.966 460.506L294.565 459.68L297.251 459.391L295.483 459.164L293.803 458.463L292.278 457.328L291.03 455.822L290.077 454.026L289.488 452.025L289.28 449.92H297.251M300.196 446.597V361.475H297.251V443.873M297.251 446.577V449.094M297.251 449.094H300.196V449.92H297.251M297.251 449.094V449.92M298.723 486.465V479.862M923.08 449.094V447.113H923.305M923.305 447.113V445.029H923.08M923.305 447.113H923.998M923.305 447.113V445.05H923.998M923.08 445.05V361.475H920.134V446.597M1036.23 445.05H1025.83M1025.83 445.05V445.008V447.093M1025.83 445.05H1025.14M1025.83 445.05V447.093M1025.83 447.093H1037.96M1025.83 447.093L1025.14 447.113M1025.14 445.05V447.113M1025.14 445.05H1000.88M1025.14 447.113H1000.88M1000.19 447.113V445.008L998.731 445.029V447.093M1000.19 447.113L998.731 447.093M1000.19 447.113H1000.88M1000.19 447.113V445.05H1000.88M998.731 447.093L998.038 447.113M998.731 447.093V445.05H998.038M1000.88 447.113V445.05M998.038 447.113V445.05M998.038 447.113H973.78M998.038 445.05H973.78M973.087 447.113V445.008L969.413 445.029V447.093M973.087 447.113L969.413 447.093M973.087 447.113H973.78M973.087 447.113V445.05H973.78M969.413 447.093L968.72 447.113V445.05H969.413V447.093ZM973.78 447.113V445.05M952.086 447.113V445.05M952.086 447.113L948.95 447.093M952.086 447.113H952.779V445.05H952.086M952.086 445.05H948.95M948.95 447.093V445.008V445.05M948.95 447.093V445.05M948.95 447.093L948.256 447.113M948.95 445.05H948.256M948.256 445.05V447.113M948.256 445.05H923.998M948.256 447.113H923.998M923.998 447.113V445.05M1025.14 446.081H1000.88M998.038 446.081H973.78M948.256 446.081H923.998M671.296 425.632V256.77H673.809V425.632M671.296 425.632H673.809M671.296 425.632V426.457M673.809 425.632V426.457H671.296M671.296 426.457L668.818 426.705L666.444 427.489L664.192 428.727L662.147 430.419L660.415 432.503L658.976 434.897L657.937 437.58L657.296 440.427L657.088 443.378H671.296M673.809 446.597V444.204M673.809 444.204H671.296M673.809 444.204V443.378H671.296M671.296 444.204V446.597M671.296 444.204V443.378M1221.99 651.303H1241.92V581.163M1220.37 655.451H1245.39V577.035M297.233 624.477V708.113L300.352 715.542V666.78H615.363V624.477M300.352 620.35V662.653H611.898V620.35M774.775 555.863H922.057V514.592M773.094 560.506H978.891M975.772 555.863H923.79V514.592M978.77 361.475H1036.23M1037.96 361.475H1049.45M1049.45 361.475V352.189H978.77M1049.45 361.475H1050.16M1049.45 361.475L1049.47 358.999H1050.16V361.475M1050.16 361.475L1050.14 379.222L1052.74 378.954L1055.25 378.169L1057.61 376.849L1059.72 375.074L1061.56 372.887L1063.05 370.349L1064.16 367.563L1064.82 364.571L1065.06 361.475M1128.06 352.189H1080.65V361.475M1080.65 361.475H1088.21M1080.65 361.475H1079.96M1080.65 361.475V358.999H1079.96V361.475M1079.96 361.475L1079.94 379.222M1122 361.475H1128.06M1089.94 361.475H1119.4" stroke="black" stroke-width="0.1" stroke-miterlimit="10" stroke-linecap="square"/>
</g>
<g id="Vector_13_2">
<path id="Vector_24" d="M1079.94 379.222L1077.36 378.954L1074.85 378.169L1072.49 376.849L1070.38 375.074L1068.54 372.887L1067.05 370.348L1065.94 367.563L1065.29 364.57L1065.04 361.475M1088.21 488.302H1089.94V486.28H1088.21V488.302ZM1089.94 445.05V442.718H1088.21V465.644H1089.94V447.093M1089.94 418.223V416.676H1088.21V424.146H1089.94V420.287M1089.94 389.333V383.968H1088.21V398.103H1089.94V391.397M1088.21 361.475V365.396H1089.94V361.475M1088.21 486.28V485.454H1089.94V486.28H1088.21ZM1088.21 465.644V466.469H1089.94V465.644H1088.21ZM1072.27 485.454L1072.51 482.153L1073.24 478.975L1074.4 475.962L1076.01 473.259L1077.97 470.927L1080.24 469.008L1082.77 467.625L1085.44 466.758L1088.21 466.469M1088.21 424.146V424.971H1089.94V424.146H1088.21ZM1088.21 442.718V441.892H1089.94V442.718H1088.21ZM1074 424.971L1074.23 427.901L1074.87 430.749L1075.91 433.432L1077.33 435.846L1079.08 437.93L1081.1 439.622L1083.36 440.861L1085.75 441.624L1088.21 441.892" fill="#F5F5F5"/>
<path id="Vector_25" d="M1079.94 379.222L1077.36 378.954L1074.85 378.169L1072.49 376.849L1070.38 375.074L1068.54 372.887L1067.05 370.348L1065.94 367.563L1065.29 364.57L1065.04 361.475M1089.94 486.28V488.302H1088.21V486.28M1089.94 486.28H1088.21M1089.94 486.28V485.454H1088.21M1088.21 486.28V485.454M1088.21 485.454H1072.27L1072.51 482.153L1073.24 478.975L1074.4 475.962L1076.01 473.259L1077.97 470.927L1080.24 469.008L1082.77 467.625L1085.44 466.758L1088.21 466.469M1089.94 445.05V442.718M1089.94 442.718H1088.21M1089.94 442.718V441.892H1088.21M1088.21 442.718V465.644M1088.21 442.718V441.892M1088.21 441.892L1085.75 441.624L1083.36 440.861L1081.1 439.622L1079.08 437.93L1077.33 435.846L1075.91 433.432L1074.87 430.749L1074.23 427.901L1074 424.971H1088.21M1088.21 465.644H1089.94M1088.21 465.644V466.469M1089.94 465.644V447.093M1089.94 465.644V466.469H1088.21M1089.94 418.223V416.676H1088.21V424.146M1088.21 424.146H1089.94M1088.21 424.146V424.971M1089.94 424.146V420.287M1089.94 424.146V424.971H1088.21M1089.94 389.333V383.968H1088.21V398.103H1089.94V391.397M1088.21 361.475V365.396H1089.94V361.475" stroke="black" stroke-width="0.1" stroke-miterlimit="10" stroke-linecap="square"/>
</g>
<g id="Vector_14_2">
<path id="Vector_26" d="M1088.21 398.103V398.929H1089.94V398.103H1088.21ZM1088.21 416.676V415.85H1089.94V416.676H1088.21ZM1074 398.929L1074.23 401.859L1074.87 404.727L1075.91 407.39L1077.33 409.804L1079.08 411.888L1081.1 413.58L1083.36 414.818L1085.75 415.603L1088.21 415.85M1088.21 365.396V366.221H1089.94V365.396H1088.21ZM1088.21 383.968V383.143H1089.94V383.968H1088.21ZM1074 366.221L1074.23 369.152L1074.87 371.999L1075.91 374.682L1077.33 377.076L1079.08 379.16L1081.1 380.852L1083.36 382.09L1085.75 382.874L1088.21 383.122M140.732 484.134L142.933 486.775L143.245 486.424L141.027 483.803L140.732 484.134ZM174.451 443.708L173.377 444.988L175.595 447.608L175.751 447.423M173.377 444.988L172.892 445.586L175.11 448.207L175.595 447.608L173.377 444.988ZM141.027 483.803L141.512 483.205L143.73 485.826L143.245 486.424L141.027 483.803Z" fill="#F5F5F5"/>
<path id="Vector_27" d="M1088.21 398.929V398.103H1089.94V398.929H1088.21ZM1088.21 398.929H1074L1074.23 401.859L1074.87 404.727L1075.91 407.39L1077.33 409.804L1079.08 411.888L1081.1 413.58L1083.36 414.818L1085.75 415.603L1088.21 415.85M1088.21 415.85V416.676H1089.94V415.85H1088.21ZM1088.21 366.221V365.396H1089.94V366.221H1088.21ZM1088.21 366.221H1074L1074.23 369.152L1074.87 371.999L1075.91 374.682L1077.33 377.076L1079.08 379.16L1081.1 380.852L1083.36 382.09L1085.75 382.874L1088.21 383.122M1089.94 447.113H1128.06M1089.94 445.05H1119.4V420.287H1089.94M1128.06 445.05H1122V361.475M1119.4 361.475V389.333H1089.94M1089.94 391.397H1119.4V418.223H1089.94M1036.23 361.475V445.05M1037.96 447.113V361.475M143.245 486.424L142.933 486.775L140.732 484.134L141.027 483.803M143.245 486.424L141.027 483.803M143.245 486.424L143.73 485.826M141.027 483.803L141.512 483.205M143.73 485.826L175.11 448.207M143.73 485.826L141.512 483.205M141.512 483.205L172.892 445.586M174.451 443.708L173.377 444.988M173.377 444.988L175.595 447.608M173.377 444.988L172.892 445.586M175.595 447.608L175.751 447.423M175.595 447.608L175.11 448.207M172.892 445.586L175.11 448.207M174.001 446.907L142.604 484.505M1088.21 383.968V383.143H1089.94V383.968H1088.21Z" stroke="black" stroke-width="0.1" stroke-miterlimit="10" stroke-linecap="square"/>
</g>
<g id="Vector_15_2">
<path id="Vector_28" d="M175.751 447.423H175.942V443.708H174.451M190.254 443.708H189.561V447.423H190.254V443.708ZM175.942 443.708H176.635V447.423H175.942V443.708ZM89.2529 616.573L92.4412 620.37L92.5625 620.226L89.3742 616.429L89.2529 616.573ZM123.492 575.797L111.432 590.18L114.62 593.957L125.363 581.163" fill="#F5F5F5"/>
<path id="Vector_29" d="M175.751 447.423H175.942M175.942 447.423V443.708M175.942 447.423H176.635M175.942 443.708H174.451M175.942 443.708H176.635M176.635 447.423H189.561M176.635 447.423V443.708M176.635 443.708H189.561M189.561 443.708H190.254V447.423H189.561M189.561 443.708V447.423M189.561 445.566H176.635M123.492 575.797L111.432 590.18L114.62 593.957L125.363 581.163M89.2529 616.573L92.4412 620.37L92.5625 620.226L89.3742 616.429L89.2529 616.573Z" stroke="black" stroke-width="0.1" stroke-miterlimit="10" stroke-linecap="square"/>
</g>
<g id="Vector_16_2">
<path id="Vector_30" d="M111.414 590.18L110.929 590.758L114.117 594.555L114.62 593.957L111.414 590.18ZM89.374 616.429L89.8592 615.851L93.0474 619.648L92.5623 620.226L89.374 616.429ZM125.363 581.163H137.042V575.797H123.492M141.564 624.498V708.113H144.232V624.498M210.423 488.302V490.366H222.257L222.552 488.302H210.423ZM210.423 579.099V581.163H222.552L222.257 579.099H210.423ZM207.304 581.163V581.988H209.557V581.163H207.304ZM207.321 610.672V609.846H209.574V610.672H207.321ZM199.333 581.988L199.541 584.114L200.13 586.115L201.083 587.911L202.348 589.417L203.856 590.552L205.537 591.254L207.304 591.481M191.9 609.846L192.125 606.668L192.818 603.573L193.962 600.684L195.504 598.043L197.41 595.773L199.593 593.957L202.036 592.595L204.636 591.769L207.304 591.481M209.574 620.37V619.524H207.321V620.35L209.574 620.37Z" fill="#F5F5F5"/>
<path id="Vector_31" d="M114.117 594.555L110.929 590.758L111.414 590.18L114.62 593.957L114.117 594.555ZM114.117 594.555L93.0474 619.648M93.0474 619.648L92.5623 620.226L89.374 616.429L89.8592 615.851M93.0474 619.648L89.8592 615.851M89.8592 615.851L110.929 590.738M112.523 592.657L91.4533 617.75M125.363 581.163H137.042V575.797H123.492M141.564 624.498V708.113H144.232V624.498M209.574 620.37H207.339M209.574 620.37V619.524H207.321V620.35L209.574 620.37ZM207.304 581.988V581.163H209.557V581.988H207.304ZM207.304 581.988H199.333L199.541 584.114L200.13 586.115L201.083 587.911L202.348 589.417L203.856 590.552L205.537 591.254L207.304 591.481L204.636 591.769L202.036 592.595L199.593 593.957L197.41 595.773L195.504 598.043L193.962 600.684L192.818 603.573L192.125 606.668L191.9 609.846H207.321M207.321 609.846V610.672H209.574V609.846H207.321ZM210.423 488.302V490.366H222.257L222.552 488.302H210.423ZM210.423 579.099V581.163H222.552L222.257 579.099H210.423Z" stroke="black" stroke-width="0.1" stroke-miterlimit="10" stroke-linecap="square"/>
</g>
<g id="Vector_17_2">
<path id="Vector_32" d="M209.574 610.445V611.27H207.321V610.445H209.574ZM345.403 581.142H348.522V565.046M300.179 247.669H293.248V353.84M920.134 446.597V449.074H923.079M902.806 449.094V446.577V446.618H902.546V449.094H902.806ZM885.219 449.094V446.618H815.892V446.577V449.094H885.219ZM796.053 446.597V449.074H798.565V446.597M778.725 449.094V446.577V446.618H778.084V449.094H778.725ZM760.757 449.094V446.618H691.135V446.577V449.094H760.757ZM673.808 449.094V446.577V446.618M920.134 446.597H919.441V449.074H920.134V446.597ZM902.806 446.577L903.499 446.597V449.074L902.806 449.094V446.577ZM885.219 449.094H885.912V446.618H885.219V449.094Z" fill="#F5F5F5"/>
<path id="Vector_33" d="M209.574 611.27V610.445H207.321V611.27M209.574 611.27H207.321M209.574 611.27V619.524M207.321 611.27V619.545M208.448 619.545V611.291M345.403 568.761V579.079M345.403 581.142H348.522V565.046M300.179 353.84V256.77M300.179 247.669H293.248V353.84M927.065 354.15V247.669M920.134 256.77V361.475M920.134 449.074V446.597H919.441M920.134 449.074H923.079M920.134 449.074H919.441M919.441 446.597V449.074M919.441 446.597H903.499M919.441 449.074H903.499M902.806 449.094V446.577M902.806 449.094H902.546V446.618H902.806V446.577M902.806 449.094L903.499 449.074M902.806 446.577L903.499 446.597M903.499 449.074V446.597M885.219 449.094V446.618M885.219 449.094H815.892V446.577V446.618H885.219M885.219 449.094H885.912V446.618H885.219M796.053 446.597V449.074H798.565V446.597M673.808 449.094V446.577V446.618M919.441 447.836H903.499M778.725 449.094V446.577V446.618H778.084V449.094H778.725ZM760.757 449.094V446.618H691.135V446.577V449.094H760.757Z" stroke="black" stroke-width="0.1" stroke-miterlimit="10" stroke-linecap="square"/>
</g>
<g id="Vector_18_2">
<path id="Vector_34" d="M902.546 449.094H901.853V446.618H902.546V449.094ZM885.912 468.058L888.685 467.79L891.37 466.923L893.883 465.52L896.153 463.622L898.128 461.29L899.722 458.566L900.9 455.574L901.611 452.375L901.853 449.094M815.892 446.597H815.199V449.074H815.892V446.597ZM798.565 446.597H799.258V449.074H798.565V446.597ZM796.053 446.597H795.36V449.074H796.053V446.597ZM778.725 446.597H779.418V449.074H778.725V446.597ZM760.757 449.094H761.45V446.618H760.757V449.094ZM778.084 449.094H777.391V446.618H778.084V449.094Z" fill="#F5F5F5"/>
<path id="Vector_35" d="M901.853 449.094H902.546V446.618H901.853V449.094ZM901.853 449.094L901.611 452.375L900.9 455.574L899.722 458.566L898.128 461.29L896.153 463.622L893.883 465.52L891.37 466.923L888.685 467.79L885.912 468.058M885.912 449.094V468.079M815.199 446.597H815.892V449.074H815.199M815.199 446.597V449.074M815.199 446.597H799.258M815.199 449.074H799.258M799.258 446.597H798.565V449.074H799.258M799.258 446.597V449.074M815.199 447.835H799.258M795.36 446.597H796.053V449.074H795.36M795.36 446.597V449.074M795.36 446.597H779.418M795.36 449.074H779.418M779.418 446.597H778.725V449.074H779.418M779.418 446.597V449.074M795.36 447.835H779.418M761.45 449.094H760.757V446.618H761.45V449.094ZM761.45 449.094V468.079M778.084 449.094H777.391V446.618H778.084V449.094Z" stroke="black" stroke-width="0.1" stroke-miterlimit="10" stroke-linecap="square"/>
</g>
<g id="Vector_19_2">
<path id="Vector_36" d="M761.45 468.058L764.223 467.79L766.891 466.923L769.421 465.52L771.691 463.622L773.666 461.29L775.243 458.566L776.421 455.574L777.149 452.375L777.391 449.074M691.136 446.597H690.443V449.074H691.136V446.597ZM673.808 446.597H674.502V449.074H673.808V446.597ZM671.296 446.597H670.43V449.074L671.296 449.094M653.102 449.094V446.577V446.618H652.79V449.094H653.102ZM635.463 449.094V446.618H567.245V449.094H635.463ZM549.918 449.094V446.618H545.673V446.577V449.094H549.918ZM484.525 446.597H468.185V449.074H528.363V446.597H487.054M450.858 449.094V446.618H442.488V449.094H450.858ZM425.161 449.094V446.618H420.916V446.577V449.094H425.161ZM403.589 449.094V446.577V446.618H317.524V449.094H403.589ZM670.43 446.597H669.737V449.074H670.43V446.597ZM653.102 446.577L653.795 446.597V449.074L653.102 449.094V446.577ZM635.463 449.094H636.156V446.618H635.463V449.094ZM652.79 449.094H652.097V446.618H652.79V449.094ZM636.156 468.058L638.929 467.79L641.614 466.923L644.127 465.52L646.414 463.622L648.372 461.29L649.966 458.566L651.144 455.574L651.855 452.375L652.097 449.094M549.918 449.094H550.611V446.618H549.918V449.094ZM567.245 449.094H566.552V446.618H567.245V449.094ZM545.673 446.577L544.98 446.597V449.074L545.673 449.094V446.577Z" fill="#F5F5F5"/>
<path id="Vector_37" d="M761.45 468.058L764.223 467.79L766.891 466.923L769.421 465.52L771.691 463.622L773.666 461.29L775.243 458.566L776.421 455.574L777.149 452.375L777.391 449.074M690.443 446.597H691.136V449.074H690.443M690.443 446.597V449.074M690.443 446.597H674.502M690.443 449.074H674.502M674.502 446.597H673.808V449.074M674.502 446.597V449.074M674.502 449.074H673.808M673.808 449.074L671.296 449.094L670.43 449.074M670.43 449.074V446.597M670.43 449.074H669.737M690.443 447.835H674.502M671.296 446.597H670.43M670.43 446.597H669.737M669.737 446.597V449.074M669.737 446.597H653.795M669.737 449.074H653.795M653.102 449.094V446.577M653.102 449.094H652.79M653.102 449.094L653.795 449.074M653.102 446.577V446.618H652.79M653.102 446.577L653.795 446.597M652.79 449.094V446.618M652.79 449.094H652.097M653.795 449.074V446.597M652.79 446.618H652.097V449.094M652.097 449.094L651.855 452.375L651.144 455.574L649.966 458.566L648.372 461.29L646.414 463.622L644.127 465.52L641.614 466.923L638.929 467.79L636.156 468.058M635.463 449.094V446.618M635.463 449.094H567.245M635.463 449.094H636.156M635.463 446.618H567.245M635.463 446.618H636.156V449.094M567.245 449.094V446.618M567.245 449.094H566.552M636.156 449.094V468.079M567.245 446.618H566.552V449.094M566.552 449.094H550.611M549.918 449.094V446.618M549.918 449.094H545.673M549.918 449.094H550.611M549.918 446.618H545.673V446.577M549.918 446.618H550.611V449.094M545.673 449.094V446.577M545.673 449.094L544.98 449.074V446.597L545.673 446.577M484.525 446.597H468.185V449.074H528.363V446.597H487.054M300.196 449.094V446.618M669.737 447.835H653.795M550.611 447.835H566.552M550.611 446.597H566.552M450.858 449.094V446.618H442.488V449.094H450.858ZM425.161 449.094V446.618H420.916V446.577V449.094H425.161ZM403.589 449.094V446.577V446.618H317.524V449.094H403.589Z" stroke="black" stroke-width="0.1" stroke-miterlimit="10" stroke-linecap="square"/>
</g>
<g id="Vector_20_2">
<path id="Vector_38" d="M528.345 446.597H529.038V449.074H528.345V446.597ZM450.857 449.094H451.55V446.618H450.857V449.094ZM468.184 449.094H467.491V446.618H468.184V449.094ZM451.55 468.058L454.305 467.79L456.991 466.923L459.503 465.52L461.791 463.622L463.749 461.29L465.343 458.566L466.521 455.574L467.231 452.375L467.474 449.074M425.161 449.094H425.854V446.618H425.161V449.094ZM442.488 449.094H441.795V446.618H442.488V449.094ZM420.915 446.597H420.222V449.074H420.915V446.597ZM403.588 446.597H404.281V449.074H403.588V446.597ZM300.196 449.094H300.889V446.618H300.196V449.094ZM317.523 449.094H316.83V446.618H317.523V449.094ZM245.476 449.094H245.164H247.417H247.122M247.434 478.603H245.182V479.759H247.434V478.603ZM247.434 488.013H245.164V488.302H247.417L247.434 488.013ZM245.164 449.094L245.182 449.92H247.434L247.417 449.094H245.164ZM245.182 478.603V477.778H247.434V478.603H245.182ZM237.211 449.92L237.384 452.024L237.991 454.026L238.944 455.822L240.191 457.328L241.716 458.463L243.397 459.164L245.164 459.391M229.76 477.757L229.985 474.579L230.679 471.484L231.822 468.595L233.347 465.954L235.253 463.684L237.454 461.868L239.879 460.506L242.478 459.68L245.164 459.391M247.434 488.013V487.188H245.182L245.164 488.013H247.434ZM247.434 479.759V480.584H245.182V479.759H247.434ZM196.388 446.35V449.032V449.053V446.35ZM219.606 446.35V449.032H219.658V446.35M196.388 449.032H197.081V446.35H196.388V449.032ZM204.185 449.032H203.492V446.35H204.185V449.032Z" fill="#F5F5F5"/>
<path id="Vector_39" d="M529.038 446.597H528.345V449.074H529.038M529.038 446.597V449.074M529.038 446.597H544.979M529.038 449.074L544.979 449.094M544.979 447.835H529.038M451.55 449.094H450.857V446.618H451.55V449.094ZM451.55 449.094V468.079M451.55 468.058L454.305 467.79L456.991 466.923L459.503 465.52L461.791 463.622L463.749 461.29L465.343 458.566L466.521 455.574L467.231 452.375L467.474 449.074M425.854 449.094H425.161V446.618H425.854V449.094ZM425.854 449.094H441.795M441.795 449.094H442.488V446.618H441.795V449.094ZM425.854 447.835H441.795M425.854 446.597H441.795M420.222 446.597H420.915V449.074H420.222M420.222 446.597V449.074M420.222 446.597H404.281M420.222 449.074H404.281M404.281 446.597H403.588V449.074H404.281M404.281 446.597V449.074M420.222 447.835H404.281M300.889 449.094H300.196V446.618H300.889V449.094ZM300.889 449.094H316.83M316.83 449.094H317.523V446.618H316.83V449.094ZM300.889 447.835H316.83M300.889 446.597H316.83M245.476 449.094H245.164M245.164 449.094H247.417M245.164 449.094L245.182 449.92M247.417 449.094H247.122M247.417 449.094L247.434 449.92H245.182M245.182 449.92H237.211L237.384 452.024L237.991 454.026L238.944 455.822L240.191 457.328L241.716 458.463L243.397 459.164L245.164 459.391L242.478 459.68L239.879 460.506L237.454 461.868L235.253 463.684L233.347 465.954L231.822 468.595L230.679 471.484L229.985 474.579L229.76 477.757L245.182 477.778M247.434 478.603H245.182M247.434 478.603V479.759M247.434 478.603V477.778H245.182M245.182 478.603V479.759M245.182 478.603V477.778M247.434 479.759H245.182M247.434 479.759V480.584M245.182 479.759V480.584M245.182 480.584V487.188M245.182 480.584H247.434M247.434 480.584V487.188M247.434 488.013H245.164M247.434 488.013L247.417 488.302H245.164V488.013M247.434 488.013V487.188M245.164 488.013L245.182 487.188M247.434 487.188H245.182M246.29 487.188V480.584M196.388 446.35V449.032M196.388 446.35V449.053V449.032M196.388 446.35H197.081M196.388 449.032H197.081M197.081 446.35V449.032M197.081 446.35H203.492M197.081 449.032H203.492M219.606 446.35V449.032H219.658V446.35M245.476 446.35V449.032M203.492 449.032H204.185V446.35H203.492M203.492 449.032V446.35M197.081 447.712H203.492M468.184 449.094H467.491V446.618H468.184V449.094Z" stroke="black" stroke-width="0.1" stroke-miterlimit="10" stroke-linecap="square"/>
</g>
<g id="Vector_21_2">
<path id="Vector_40" d="M204.012 446.35H204.705V449.032H204.012V446.35ZM219.607 446.35H218.914V449.032H219.607V446.35ZM204.705 429.428L207.183 429.697L209.574 430.46L211.827 431.698L213.837 433.39L215.587 435.475L217.008 437.889L218.047 440.572L218.706 443.419L218.914 446.35M245.477 446.35H244.783V449.032H245.477V446.35ZM219.659 446.35H220.352V449.032H219.659V446.35ZM247.123 446.577H254.539V443.894H247.123M283.995 443.873V446.556H287.201V443.873H283.995ZM283.995 443.873H283.302V446.556H283.995V443.873ZM254.539 443.873H255.232V446.556L254.539 446.577V443.873ZM283.302 422L280.426 422.289L277.619 423.073L274.95 424.393L272.49 426.189L270.307 428.417L268.435 431.038L266.928 433.948L265.819 437.126L265.16 440.469L264.918 443.894M255.232 432.317L257.38 432.627L259.442 433.473L261.279 434.856L262.804 436.672L263.965 438.88L264.675 441.315L264.918 443.873M297.251 443.873H296.558V446.556H297.251V443.873ZM287.201 443.873H287.894V446.556H287.201V443.873ZM345.403 579.078H345.23V581.142H345.403M300.352 581.142H301.045V579.078H300.352V581.142ZM345.23 581.142H344.537V579.078H345.23V581.142ZM301.045 607.04L304.147 606.792L307.179 606.008L310.09 604.708L312.811 602.933L315.288 600.725L317.489 598.104L319.343 595.154L320.833 591.914L321.907 588.447L322.583 584.836L322.791 581.163M344.537 607.04L341.453 606.792L338.42 606.008L335.509 604.708L332.789 602.933L330.294 600.725L328.111 598.104L326.257 595.154L324.766 591.914L323.675 588.447L323.016 584.836L322.791 581.163M297.233 581.142V582.174H298.966V581.142H300.352M298.966 620.35V619.318H297.233V620.35M297.233 582.174V583.02H298.966V582.174H297.233Z" fill="#F5F5F5"/>
<path id="Vector_41" d="M204.705 446.35H204.012V449.032H204.705V446.35ZM204.705 446.35V429.428L207.183 429.697L209.574 430.46L211.827 431.698L213.837 433.39L215.587 435.475L217.008 437.889L218.047 440.572L218.706 443.419L218.914 446.35M218.914 446.35H219.607V449.032H218.914V446.35ZM244.783 446.35H245.477V449.032H244.783M244.783 446.35V449.032M244.783 446.35H220.352M244.783 449.032H220.352M220.352 446.35H219.659V449.032H220.352M220.352 446.35V449.032M244.783 447.712H220.352M247.123 446.577H254.539M254.539 446.577V443.894H247.123M254.539 446.577L255.232 446.556V443.873M254.539 446.577V443.873H255.232M255.232 443.873V432.317L257.38 432.627L259.442 433.473L261.279 434.856L262.804 436.672L263.965 438.88L264.675 441.315L264.918 443.873M283.995 443.873V446.556M283.995 443.873H287.201M283.995 443.873H283.302M283.995 446.556H287.201M283.995 446.556H283.302V443.873M287.201 443.873V446.556M287.201 443.873H287.894M283.302 443.873V422L280.426 422.289L277.619 423.073L274.95 424.393L272.49 426.189L270.307 428.417L268.435 431.038L266.928 433.948L265.819 437.126L265.16 440.469L264.918 443.894M287.201 446.556H287.894M287.894 446.556H296.558M287.894 446.556V443.873M287.894 443.873H296.558M296.558 443.873H297.251V446.556H296.558M296.558 443.873V446.556M296.558 445.215H287.894M345.403 526.891H300.283M301.132 530.605H345.403V565.067M347.136 526.891H348.522V565.046M297.164 530.605H299.053M297.233 581.142V582.174M297.233 582.174H298.966M297.233 582.174V583.02H298.966V582.174M300.352 579.078V568.761M300.352 579.078V581.142M300.352 579.078H301.045V581.142M300.352 581.142H298.966V582.174M300.352 581.142H301.045M301.045 581.142V607.04L304.147 606.792L307.179 606.008L310.09 604.708L312.811 602.933L315.288 600.725L317.489 598.104L319.343 595.154L320.833 591.914L321.907 588.447L322.583 584.836L322.791 581.163L323.016 584.836L323.675 588.447L324.766 591.914L326.257 595.154L328.111 598.104L330.294 600.725L332.789 602.933L335.509 604.708L338.42 606.008L341.453 606.792L344.537 607.04V581.142M297.233 565.046V579.078M345.403 579.078H345.23M345.23 579.078V581.142M345.23 579.078H344.537V581.142M345.23 581.142H345.403M345.23 581.142H344.537M298.966 620.35V619.318H297.233V620.35" stroke="black" stroke-width="0.1" stroke-miterlimit="10" stroke-linecap="square"/>
</g>
<g id="Vector_22_2">
<path id="Vector_42" d="M297.233 619.339V618.513H298.966V619.339H297.233ZM282.332 582.999L282.557 586.095L283.25 589.087L284.324 591.893L285.815 594.411L287.651 596.598L289.783 598.373L292.139 599.694L294.652 600.498L297.251 600.746M282.332 618.493L282.557 615.418L283.25 612.426L284.324 609.619L285.815 607.102L287.651 604.914L289.783 603.14L292.139 601.819L294.652 601.035L297.251 600.746M297.233 579.078V581.183V581.142M272.109 581.163V579.099H255.128V581.142L272.109 581.163ZM289.436 581.163H290.129V579.099H289.436V581.163ZM297.233 581.142H296.54V579.078H297.233V581.142ZM289.436 579.099H288.743V581.163H289.436V579.099ZM272.109 579.099H272.802V581.163H272.109V579.099ZM288.743 560.114L285.971 560.403L283.285 561.249L280.772 562.652L278.502 564.551L276.527 566.883L274.933 569.607L273.772 572.599L273.044 575.797L272.802 579.099M255.128 579.099H254.435V581.163L255.128 581.142V579.099ZM247.331 579.078L248.024 579.099V581.163H247.331V579.078ZM301.132 565.046V559.516H299.053V565.046M299.053 530.605V536.817H301.132V530.585M299.053 559.516V558.69H301.652V559.516H299.053ZM299.053 536.817V537.642H301.652V536.817H299.053ZM281.379 558.69L281.587 555.389L282.245 552.19L283.285 549.136L284.74 546.33L286.542 543.812L288.656 541.666L291.013 539.933L293.577 538.694L296.28 537.91L299.053 537.642M784.565 510.795V508.938H770.374V510.795H784.565ZM738.942 510.795H739.462V511.393V508.917L737.469 508.938M784.565 510.795H785.258V508.938H784.565V510.795ZM793.749 510.795H793.055V508.938H793.749V510.795ZM754.779 508.938H755.472V510.795H754.779V508.938Z" fill="#F5F5F5"/>
<path id="Vector_43" d="M297.233 618.513V619.339H298.966V618.513H297.233ZM297.233 618.513L282.332 618.493L282.557 615.418L283.25 612.426L284.324 609.619L285.815 607.102L287.651 604.914L289.783 603.14L292.139 601.819L294.652 601.035L297.251 600.746L294.652 600.498L292.139 599.694L289.783 598.373L287.651 596.598L285.815 594.411L284.324 591.893L283.25 589.087L282.557 586.095L282.332 582.999H297.233M297.233 579.078V581.183V581.142M297.233 579.078H296.54M297.233 579.078V581.142M297.233 581.142H296.54M296.54 579.078L290.129 579.099M296.54 579.078V581.142M296.54 581.142L290.129 581.163M272.109 581.163V579.099M272.109 581.163L255.128 581.142M272.109 581.163H272.802V579.099M272.109 579.099H255.128M272.109 579.099H272.802M255.128 581.142V579.099M255.128 581.142L254.435 581.163M272.802 579.099L273.044 575.797L273.772 572.599L274.933 569.607L276.527 566.883L278.502 564.551L280.772 562.652L283.285 561.249L285.971 560.403L288.743 560.114V579.099M255.128 579.099H254.435M254.435 579.099V581.163M254.435 579.099H248.024M254.435 581.163H248.024M289.436 581.163H290.129M289.436 581.163V579.099M289.436 581.163H288.743V579.099M290.129 581.163V579.099M289.436 579.099H290.129M289.436 579.099H288.743M290.129 580.131H296.54M248.024 579.099L247.331 579.078V581.163H248.024M248.024 579.099V581.163M254.435 580.131H248.024M301.132 565.046V559.516H299.053M299.053 559.516V565.046M299.053 559.516V558.69M299.053 559.516H301.652V558.69H299.053M299.053 558.69H281.379L281.587 555.389L282.245 552.19L283.285 549.136L284.74 546.33L286.542 543.812L288.656 541.666L291.013 539.933L293.577 538.694L296.28 537.91L299.053 537.642M299.053 530.605V536.817M299.053 536.817H301.132V530.585M299.053 536.817V537.642M299.053 536.817H301.652V537.642H299.053M347.136 526.891V492.017M345.403 491.996V526.87M615.363 624.498H1198.72L1220.37 655.451M611.898 620.35H1200.33L1221.99 651.303M718.652 491.996L773.094 560.506M721.06 488.302L737.469 508.938L739.462 508.917V511.393V510.795H738.942L774.775 555.863M784.565 510.795V508.938M784.565 510.795H770.374V508.938H784.565M784.565 510.795H785.258M784.565 508.938H785.258M785.258 510.795V508.938M785.258 510.795H793.055M785.258 508.938H793.055M793.055 510.795H793.749V508.938H793.055M793.055 510.795V508.938M785.258 509.866H793.055M754.779 508.938H755.472V510.795H754.779V508.938Z" stroke="black" stroke-width="0.1" stroke-miterlimit="10" stroke-linecap="square"/>
</g>
<g id="Vector_23_2">
<path id="Vector_44" d="M770.374 508.938H769.681V510.795H770.374V508.938ZM755.472 492.017L757.95 492.264L760.341 493.048L762.594 494.286L764.621 495.979L766.354 498.042L767.792 500.477L768.832 503.16L769.473 506.008L769.681 508.938M754.779 508.938H754.086V510.795H754.779V508.938ZM739.462 508.938H740.155V510.795H739.462V508.938ZM831.955 509.97H797.214V512.033H831.955V514.592M831.955 512.033V514.592H922.058M923.79 514.592H943.717V509.97H831.955M975.772 509.97H959.311V514.592H975.772M943.717 509.97H944.41V514.592H943.717V509.97ZM959.311 509.97H958.618V514.592H959.311V509.97ZM944.41 493.048L946.888 493.296L949.279 494.059L951.531 495.298L953.541 496.99L955.291 499.074L956.712 501.488L957.752 504.171L958.41 507.019L958.618 509.97M978.891 488.281H975.772V509.97M1027.06 577.448V533.597H1023.94V538.86M1023.94 504.398V510.898H1027.06V490.139M1023.94 510.898V511.724H1027.06V510.898H1023.94ZM1023.94 533.597V532.772H1027.06V533.597H1023.94ZM1113.87 490.366V488.302H1101.74L1102.04 490.366H1113.87ZM1113.87 581.163V579.099H1102.04L1101.74 581.163H1113.87ZM1076.96 581.163V577.448H1048.56V581.163H1076.96Z" fill="#F5F5F5"/>
<path id="Vector_45" d="M769.681 508.938H770.374V510.795H769.681V508.938ZM769.681 508.938L769.473 506.008L768.832 503.16L767.792 500.477L766.354 498.042L764.621 495.979L762.594 494.286L760.341 493.048L757.95 492.264L755.472 492.017V508.938M754.086 508.938H754.779V510.795H754.086M754.086 508.938V510.795M754.086 508.938H740.155M754.086 510.795H740.155M740.155 508.938H739.462V510.795H740.155M740.155 508.938V510.795M754.086 509.866H740.155M922.058 514.592H831.955V512.033H797.214V509.97H831.955H943.717M943.717 509.97V514.592M943.717 509.97H944.41M923.79 514.592H943.717M943.717 514.592H944.41V509.97M944.41 509.97V493.048L946.888 493.296L949.279 494.059L951.531 495.298L953.541 496.99L955.291 499.074L956.712 501.488L957.752 504.171L958.41 507.019L958.618 509.97M959.311 509.97H975.772V488.281H978.891M959.311 509.97V514.592M959.311 509.97H958.618M959.311 514.592H975.772V555.863M959.311 514.592H958.618V509.97M978.891 560.506V542.553H1023.94V575.364M978.891 504.377V538.839L1023.94 538.86V533.597M1023.94 533.597H1027.06M1023.94 533.597V532.772H1027.06V533.597M978.891 500.663V490.345M1027.06 577.448V533.597M1023.94 577.448V581.163M1027.06 488.281H1023.94M1023.94 504.398V510.898M1023.94 510.898H1027.06M1023.94 510.898V511.724H1027.06V510.898M1027.06 510.898V490.139M1023.94 490.345V500.663M1113.87 490.366V488.302H1101.74L1102.04 490.366H1113.87ZM1113.87 581.163V579.099H1102.04L1101.74 581.163H1113.87ZM1076.96 581.163V577.448H1048.56V581.163H1076.96Z" stroke="black" stroke-width="0.1" stroke-miterlimit="10" stroke-linecap="square"/>
</g>
<g id="Vector_24_2">
<path id="Vector_46" d="M1023.94 581.142H1032.95L1032.97 577.428H1027.08M1032.97 577.428L1033.66 577.448V581.163H1032.97V577.428ZM1048.56 577.448H1047.87V581.163H1048.56V577.448ZM1033.66 560.527L1036.14 560.775L1038.53 561.538L1040.78 562.776L1042.79 564.468L1044.54 566.573L1045.97 568.988L1047 571.67L1047.66 574.497L1047.87 577.448M978.891 490.345H979.064V488.281H978.891M1023.94 488.281H1023.25V490.345H1023.94V488.281ZM979.064 488.281H979.757V490.345H979.064V488.281ZM1023.25 462.384L1020.16 462.652L1017.13 463.436L1014.22 464.736L1011.5 466.511L1009.01 468.719L1006.82 471.34L1004.97 474.29L1003.48 477.53L1002.39 480.997L1001.73 484.608L1001.5 488.281M979.757 462.384L982.859 462.652L985.891 463.436L988.802 464.736L991.523 466.511L994 468.719L996.201 471.34L998.055 474.29L999.545 477.53L1000.62 480.997L1001.28 484.608L1001.5 488.281M1027.06 490.139V490.18V488.281M1033.99 488.302V490.18L1034.06 490.159V488.302M1053.12 488.302V490.159H1069.17V488.281L1053.12 488.302ZM1027.06 490.139H1027.75V488.281H1027.06V490.139ZM1033.99 490.18L1033.3 490.159V488.302H1033.99V490.18ZM1034.06 490.159H1034.75V488.302H1034.06V490.159ZM1053.12 490.159H1052.43V488.302H1053.12V490.159ZM1034.75 511.208L1037.53 510.939L1040.21 510.176L1042.78 508.896L1045.13 507.184L1047.25 505.038L1049.05 502.52L1050.5 499.714L1051.56 496.659L1052.2 493.44L1052.43 490.139M1076.96 488.302H1076.27V490.159H1076.96V488.302ZM1069.17 488.281L1069.86 488.302V490.159H1069.17V488.281ZM978.77 352.189L978.804 164.301H969.274L969.24 354.149L978.77 361.475M969.292 115.663L969.274 143.666H978.804V115.663M969.274 164.301V163.476H978.804V164.301H969.274ZM969.274 143.666V144.491H978.804V143.666H969.274ZM953.333 163.476L953.576 160.174L954.286 156.976L955.464 153.983L957.058 151.28L959.034 148.928L961.304 147.029L963.816 145.647L966.502 144.78L969.274 144.491M1128.06 488.281L1116.97 488.302V492.429L1131.53 492.409M1245.39 577.035H1116.99V581.163H1241.92M94.1914 620.37V623.053H94.538V620.35L94.1914 620.37ZM141.564 620.37H141.149V623.053H141.547V624.498M125.554 620.37H124.861V623.053L125.554 623.032V620.37ZM94.538 620.35L95.231 620.37V623.053H94.538V620.35ZM141.149 623.053H140.455V620.37H141.149V623.053ZM125.554 623.032L126.247 623.053V620.37H125.554V623.032ZM140.455 639.974L137.995 639.706L135.604 638.942L133.351 637.704L131.324 636.012L129.591 633.928L128.153 631.514L127.113 628.831L126.472 625.983L126.247 623.053M137.648 537.828V538.632H140.767V537.828H137.648ZM137.648 566.718V565.892H140.767V566.718H137.648ZM140.767 537.828V536.982H137.648V537.828H140.767ZM140.767 494.266V495.091H137.648V494.266H140.767ZM1130.14 25.9803L1130.71 25.8564L1122.43 27.5898M1132.34 37.041L1131.53 37.2061L1143.71 35.1631M1142.34 23.9373L1130.14 25.9803L1130.71 25.8564M1357.94 52.5591L1360.91 53.6527L1363.73 42.819L1360.51 41.6221M196.492 488.281L196.388 449.074H194.309L194.43 490.758H196.509" fill="#F5F5F5"/>
<path id="Vector_47" d="M1023.94 581.142H1032.95L1032.97 577.428M1032.97 577.428H1027.08M1032.97 577.428L1033.66 577.448M1032.97 577.428V581.163H1033.66V577.448M1033.66 577.448V560.527L1036.14 560.775L1038.53 561.538L1040.78 562.776L1042.79 564.468L1044.54 566.573L1045.97 568.988L1047 571.67L1047.66 574.497L1047.87 577.448M1047.87 577.448H1048.56V581.163H1047.87V577.448ZM978.891 504.398H1023.94M1023.94 500.663H978.891M978.891 490.345H979.064M979.064 490.345V488.281M979.064 490.345H979.757V488.281M979.064 488.281H978.891M979.064 488.281H979.757M979.757 488.281V462.384L982.859 462.652L985.891 463.436L988.802 464.736L991.523 466.511L994 468.719L996.201 471.34L998.055 474.29L999.545 477.53L1000.62 480.997L1001.28 484.608L1001.5 488.281L1001.73 484.608L1002.39 480.997L1003.48 477.53L1004.97 474.29L1006.82 471.34L1009.01 468.719L1011.5 466.511L1014.22 464.736L1017.13 463.436L1020.16 462.652L1023.25 462.384V488.281M1023.25 488.281H1023.94V490.345H1023.25V488.281ZM1027.06 490.139V490.18V488.281M1027.06 490.139H1027.75M1027.06 490.139V488.281M1027.06 488.281H1027.75M1027.75 490.139V488.281M1027.75 490.139H1033.3M1027.75 488.281L1033.3 488.302M1033.99 490.18V488.302H1033.3M1033.99 490.18L1034.06 490.159M1033.99 490.18L1033.3 490.159V488.302M1034.06 490.159V488.302H1034.75V490.159M1034.06 490.159H1034.75M1034.75 490.159V511.208L1037.53 510.939L1040.21 510.176L1042.78 508.896L1045.13 507.184L1047.25 505.038L1049.05 502.52L1050.5 499.714L1051.56 496.659L1052.2 493.44L1052.43 490.139M1053.12 488.302V490.159M1053.12 488.302L1069.17 488.281M1053.12 488.302H1052.43V490.159H1053.12M1053.12 490.159H1069.17M1069.17 488.281V490.159M1069.17 488.281L1069.86 488.302M1069.17 490.159H1069.86M1069.86 490.159H1076.27M1069.86 490.159V488.302M1069.86 488.302H1076.27M1027.75 489.21H1033.3M1076.27 488.302H1076.96V490.159H1076.27M1076.27 488.302V490.159M1076.27 489.231H1069.86M978.77 352.189L978.804 164.301M978.804 164.301H969.274M978.804 164.301V163.476H969.274M969.274 164.301L969.24 354.149L978.77 361.475M969.274 164.301V163.476M969.274 163.476H953.333L953.576 160.174L954.286 156.976L955.464 153.983L957.058 151.28L959.034 148.928L961.304 147.029L963.816 145.647L966.502 144.78L969.274 144.491M969.274 143.666L969.292 115.663V91.3335L981.161 84.3379L991.419 78.1473L1002.49 72.328L1013.48 66.3437L1024.79 60.8339L1034.11 56.5624L1045.83 51.486L1059.17 46.3064L1069.37 42.6539L1078.85 39.249L1089.23 36.3807L1099.7 33.2853L1112 29.9836L1122.43 27.5898L1130.71 25.8564L1130.14 25.9803L1142.34 23.9373L1152.01 22.2246L1163.64 20.6975L1175.14 19.5213L1187.1 18.407L1197.61 17.9324L1211.53 17.4578L1222.72 17.6228L1231.58 17.5609L1240.76 18.0356L1249.37 19.0261L1260.25 19.5007L1272.42 21.1102L1287.56 23.4628L1300.45 25.6501L1313.48 28.0645L1326.17 31.5519L1337.41 34.5441L1348.71 38.1347L1360.51 41.6221L1363.73 42.819L1360.91 53.6527L1357.94 52.5591L1346.33 49.1335L1335.14 45.5635L1324.05 42.6126L1311.68 39.2078L1299.05 36.8759L1286.28 34.7092L1271.27 32.3774L1259.56 30.8297L1248.75 30.3551L1240.08 29.3645L1231.39 28.9106L1222.69 28.9724L1211.61 28.8074L1197.93 29.282L1187.63 29.7359L1175.9 30.8297L1164.55 31.9853L1153.24 33.4711L1143.71 35.1631L1131.53 37.2061M969.274 143.666H978.804M969.274 143.666V144.491M1131.53 37.2061V492.409L1116.97 492.429V488.302L1128.06 488.281V447.113M1131.53 37.2061H1131.48M1131.53 37.2061L1132.34 37.041M978.804 143.666V115.663L978.822 98.3702L985.423 94.4907L995.508 88.4032L1006.39 82.6871L1017.25 76.7647L1028.31 71.3994L1037.46 67.1897L1048.93 62.2165L1062.03 57.1402L1072.11 53.5289L1081.31 50.2272L1091.47 47.4208L1101.9 44.3254L1113.96 41.1063L1124.16 38.7331L1128.06 37.9077V352.189M978.804 143.666V144.491H969.274M1128.06 361.475V445.05M1245.39 577.035H1116.99V581.163H1241.92M1023.94 575.364H978.891V560.506M1023.94 577.448H977.158V560.506M94.538 623.053H94.1914V620.37L94.538 620.35M94.538 623.053V620.35M94.538 623.053H95.231M94.538 620.35L95.231 620.37M95.231 623.053H124.861M95.231 623.053V620.37M95.231 620.37H124.861M125.554 620.37V623.032M125.554 620.37H124.861M125.554 620.37H126.247V623.053M125.554 623.032L124.861 623.053M125.554 623.032L126.247 623.053M124.861 620.37V623.053M126.247 623.053L126.472 625.983L127.113 628.831L128.153 631.514L129.591 633.928L131.324 636.012L133.351 637.704L135.604 638.942L137.995 639.706L140.455 639.974V623.053M141.564 620.37H141.149M141.149 620.37V623.053M141.149 620.37H140.455V623.053M141.149 623.053H141.547V624.498M141.149 623.053H140.455M124.861 621.691L95.231 621.712M137.648 566.718H140.767M137.648 566.718V537.828M137.648 566.718V565.892M140.767 566.718V537.828M140.767 566.718V565.892M137.648 537.828V494.266M137.648 537.828V538.632H140.767V537.828M137.648 537.828H140.767M137.648 537.828V536.982M137.648 565.892H140.767M137.648 565.892V538.653M140.767 537.828V494.266M140.767 537.828V536.982M140.767 565.892V538.653M137.648 494.266H140.785M137.648 494.266V495.091M137.648 494.266H140.767M137.648 536.982H140.767M137.648 536.982V495.091M140.767 494.266V495.091M140.767 536.982V495.091M137.648 495.091H140.767M139.208 538.653V565.892M139.208 536.982V495.091M196.492 488.281L196.388 449.074H194.309L194.43 490.758H196.509" stroke="black" stroke-width="0.1" stroke-miterlimit="10" stroke-linecap="square"/>
</g>
<g id="Vector_25_2">
<path id="Vector_48" d="M196.492 490.758H207.304V488.281H196.509M85.0425 625.963H87.7455L90.154 623.094H94.1913V620.37H92.4413L89.253 616.573L87.5549 618.616H85.0425V625.963ZM137.648 494.245H143.713V487.704L142.95 486.775L140.733 484.134L139 486.238L137.648 486.218V494.245ZM137.042 581.163H144.233V566.718H137.648V575.797H137.042V581.163Z" fill="#F5F5F5"/>
<path id="Vector_49" d="M196.492 490.758H207.304V488.281H196.509M85.0425 625.963H87.7455L90.154 623.094H94.1913V620.37H92.4413L89.253 616.573L87.5549 618.616H85.0425V625.963ZM137.648 494.245H143.713V487.704L142.95 486.775L140.733 484.134L139 486.238L137.648 486.218V494.245ZM137.042 581.163H144.233V566.718H137.648V575.797H137.042V581.163Z" stroke="black" stroke-width="0.1" stroke-miterlimit="10" stroke-linecap="square"/>
</g>
<path id="Vector_26_2" d="M207.304 581.163H210.423V568.781H220.82L222.258 579.099L222.552 581.163H247.33V577.428L241.612 577.077L237.211 575.983L233.174 574.435L228.357 571.711L223.869 567.956L220.941 564.922L218.013 560.96L215.899 557.328L213.715 552.479L212.121 547.609L211.047 542.574L210.423 534.732L210.596 531.162L210.926 528.067L211.983 522.495L213.698 516.986L214.859 514.241L218.272 508.174L222.31 502.974L225.082 500.333L228.218 497.836L232.55 495.256L238.84 493.028L242.184 492.326L247.33 492.017V488.302H247.417H222.552L222.258 490.366L220.82 500.683H210.423V488.302H207.304V581.163ZM365 454.233L364.81 452.706L364.255 451.323L363.372 450.188L362.245 449.424L360.998 449.094L359.698 449.197L358.503 449.775L357.498 450.724L356.77 452.004L356.389 453.448V454.996L356.77 456.461L357.498 457.741L358.503 458.69L359.716 459.268L360.998 459.371L362.245 459.041L363.372 458.257L364.238 457.142L364.81 455.76L365 454.233ZM427.396 454.418L427.206 452.891L426.651 451.509L425.767 450.374L424.641 449.61L423.394 449.28L422.094 449.383L420.898 449.961L419.893 450.91L419.166 452.19L418.784 453.634V455.182L419.166 456.668L419.893 457.926L420.898 458.876L422.111 459.453L423.394 459.557L424.641 459.226L425.767 458.442L426.634 457.328L427.206 455.945L427.396 454.418ZM489.705 454.418L489.515 452.891L488.96 451.509L488.077 450.374L486.95 449.61L485.703 449.28L484.403 449.383L483.208 449.961L482.203 450.91L481.475 452.19L481.094 453.634V455.182L481.475 456.668L482.203 457.926L483.208 458.876L484.42 459.453L485.703 459.557L486.95 459.226L488.077 458.442L488.943 457.328L489.515 455.945L489.705 454.418ZM552.17 454.418L551.98 452.891L551.425 451.509L550.542 450.374L549.415 449.61L548.168 449.28L546.868 449.383L545.673 449.961L544.668 450.91L543.94 452.19L543.559 453.634V455.182L543.94 456.668L544.668 457.926L545.673 458.876L546.886 459.453L548.168 459.557L549.415 459.226L550.542 458.442L551.408 457.328L551.98 455.945L552.17 454.418ZM614.532 454.418L614.341 452.891L613.786 451.509L612.903 450.374L611.776 449.61L610.529 449.28L609.229 449.383L608.034 449.961L607.029 450.91L606.301 452.19L605.92 453.634V455.182L606.301 456.668L607.029 457.926L608.034 458.876L609.247 459.453L610.529 459.557L611.776 459.226L612.903 458.442L613.769 457.328L614.341 455.945L614.532 454.418ZM739.254 454.418L739.063 452.891L738.509 451.509L737.625 450.374L736.499 449.61L735.251 449.28L733.952 449.383L732.756 449.961L731.751 450.91L731.023 452.19L730.642 453.634V455.182L731.023 456.668L731.751 457.926L732.756 458.876L733.969 459.453L735.251 459.557L736.499 459.226L737.625 458.442L738.491 457.328L739.063 455.945L739.254 454.418ZM801.65 454.418L801.459 452.891L800.905 451.509L800.021 450.374L798.894 449.61L797.647 449.28L796.347 449.383L795.152 449.961L794.147 450.91L793.419 452.19L793.038 453.634V455.182L793.419 456.668L794.147 457.926L795.152 458.876L796.365 459.453L797.647 459.557L798.894 459.226L800.021 458.442L800.887 457.328L801.459 455.945L801.65 454.418ZM864.045 454.418L863.855 452.891L863.3 451.509L862.417 450.374L861.29 449.61L860.043 449.28L858.743 449.383L857.548 449.961L856.543 450.91L855.815 452.19L855.434 453.634V455.182L855.815 456.668L856.543 457.926L857.548 458.876L858.76 459.453L860.043 459.557L861.29 459.226L862.417 458.442L863.283 457.328L863.855 455.945L864.045 454.418ZM793.748 513.065H797.214V508.938H793.748V513.065ZM1076.96 581.163H1101.74L1102.04 579.099L1103.47 568.781H1113.87V581.163H1116.99V577.035L1116.97 492.429V488.302H1113.87V500.683H1103.47L1102.04 490.366L1101.74 488.302H1076.96V492.017L1082.68 492.367L1087.08 493.461L1089.56 494.369L1092.54 495.731L1095.3 497.34L1098.9 500.085L1102.61 503.696L1105.02 506.647L1107.75 510.939L1110.32 516.181L1111.88 520.762L1113.04 525.983L1113.65 530.523L1113.85 534.382L1113.66 538.674L1113.23 542.822L1111.71 549.115L1110.61 552.355L1108.12 557.927L1106.13 561.125L1102.21 566.243L1098.85 569.462L1095.33 572.083L1092.78 573.569L1090.06 574.91L1085.52 576.458L1081.92 577.159L1076.96 577.448V581.163ZM676.858 454.418L676.667 452.891L676.113 451.509L675.229 450.374L674.103 449.61L672.855 449.28L671.556 449.383L670.36 449.961L669.355 450.91L668.627 452.19L668.246 453.634V455.182L668.627 456.668L669.355 457.926L670.36 458.876L671.573 459.453L672.855 459.557L674.103 459.226L675.229 458.442L676.096 457.328L676.667 455.945L676.858 454.418ZM926.406 454.521L926.216 452.994L925.661 451.612L924.778 450.477L923.651 449.713L922.404 449.383L921.104 449.486L919.909 450.043L918.904 451.013L918.176 452.272L917.795 453.758V455.285L918.176 456.75L918.904 458.03L919.909 458.979L921.122 459.557L922.404 459.66L923.651 459.33L924.778 458.566L925.644 457.431L926.216 456.049L926.406 454.521ZM364.758 614.943L364.585 613.437L364.013 612.054L363.129 610.919L362.02 610.156L360.755 609.805L359.456 609.929L358.26 610.486L357.255 611.435L356.527 612.715L356.146 614.18V615.727L356.527 617.193L357.255 618.472L358.26 619.421L359.473 619.978L360.755 620.102L362.02 619.751L363.129 618.988L363.995 617.853L364.567 616.47L364.758 614.943ZM489.74 615.191L489.567 613.684L488.995 612.302L488.129 611.167L487.002 610.403L485.737 610.053L484.455 610.176L483.242 610.734L482.237 611.703L481.509 612.962L481.128 614.427V615.975L481.509 617.44L482.237 618.72L483.242 619.669L484.455 620.226L485.737 620.35L487.002 619.999L488.111 619.235L488.978 618.1L489.549 616.718L489.74 615.191ZM1054.58 162.155L1054.39 160.979L1053.81 159.947L1052.97 159.287L1051.98 159.06L1050.99 159.287L1050.12 159.968L1049.57 160.979L1049.38 162.155L1049.57 163.331L1050.14 164.363L1050.99 165.024L1051.98 165.251L1052.97 165.024L1053.83 164.343L1054.39 163.331L1054.58 162.155ZM1057.64 257.079L1057.45 255.903L1056.88 254.871L1056.03 254.211L1055.04 253.984L1054.06 254.211L1053.19 254.892L1052.64 255.903L1052.45 257.079L1052.64 258.256L1053.21 259.287L1054.06 259.948L1055.04 260.175L1056.03 259.948L1056.9 259.267L1057.45 258.256L1057.64 257.079Z" fill="#F5F5F5" stroke="black" stroke-width="0.1" stroke-miterlimit="10" stroke-linecap="square"/>
</g>
<g id="workspacesBackGroup">
<g id="wsB12191">
<path id="Vector_50" d="M1023.94 581.142V577.428H977.158V560.506H773.094L718.652 491.996H347.153V526.87H348.54V581.142H298.983V620.35H300.37V662.653H611.915V620.35H1200.35L1222.01 651.303H1241.94V581.163H1023.96" fill="#F5F5F5"/>
<path id="Vector_51" d="M1023.94 581.142V577.428H977.158V560.506H773.094L718.652 491.996H347.153V526.87H348.54V581.142H298.983V620.35H300.37V662.653H611.915V620.35H1200.35L1222.01 651.303H1241.94V581.163H1023.96" stroke="black" stroke-width="0.1" stroke-miterlimit="10" stroke-linecap="square"/>
</g>
<path id="wsB12193" d="M1113.89 41.1063L1101.85 44.3461L1091.5 47.4002L1081.31 50.2272L1061.98 57.1609L1048.86 62.2372L1037.42 67.1898L1028.26 71.3994L1017.25 76.7648L1006.42 82.6666L995.508 88.4239L978.804 98.3703L978.77 352.189H1128.06V37.9077L1113.89 41.1063Z" fill="#F5F5F5" stroke="black" stroke-width="0.1" stroke-miterlimit="10" stroke-linecap="square"/>
<path id="wsB12189" d="M1088.21 488.302V361.475H1037.96V447.113H923.08V449.094H860.147L858.969 449.342H860.459L861.88 449.961L863.023 451.096L863.786 452.664L864.046 454.418L863.786 456.172L863.023 457.741L861.88 458.876L860.459 459.495H858.969L857.548 458.876L856.404 457.741L855.642 456.172L855.382 454.418L855.642 452.664L856.404 451.096L857.548 449.961L859.281 449.094H797.751L796.573 449.342H798.063L799.484 449.961L800.627 451.096L801.39 452.664L801.65 454.418L801.39 456.172L800.627 457.741L799.484 458.876L798.063 459.495H796.573L795.152 458.876L793.991 457.741L793.246 456.172L792.986 454.418L793.246 452.664L794.008 451.096L795.152 449.961L796.885 449.094H735.355L734.177 449.342H735.667L737.088 449.961L738.249 451.096L738.994 452.664L739.254 454.418L738.994 456.172L738.232 457.741L737.088 458.876L735.667 459.495H734.177L732.756 458.876L731.613 457.741L730.85 456.172L730.59 454.418L730.85 452.664L731.613 451.096L732.756 449.961L734.489 449.094H610.633L609.455 449.342H610.945L612.366 449.961L613.527 451.096L614.272 452.664L614.532 454.418L614.272 456.172L613.509 457.741L612.366 458.876L610.945 459.495H609.455L608.034 458.876L606.89 457.741L606.128 456.172L605.868 454.418L606.128 452.664L606.89 451.096L608.034 449.961L609.767 449.094H548.272L547.094 449.342H548.584L550.005 449.961L551.148 451.096L551.911 452.664L552.171 454.418L551.911 456.172L551.148 457.741L550.005 458.876L548.584 459.495H547.094L545.673 458.876L544.529 457.741L543.767 456.172L543.507 454.418L543.767 452.664L544.529 451.096L545.673 449.961L547.406 449.094H485.807L484.629 449.342H486.119L487.54 449.961L488.701 451.096L489.446 452.664L489.706 454.418L489.446 456.172L488.701 457.741L487.54 458.876L486.119 459.495H484.629L483.208 458.876L482.064 457.741L481.302 456.172L481.042 454.418L481.302 452.664L482.064 451.096L483.208 449.961L484.94 449.094H423.498L422.319 449.342H423.81L425.23 449.961L426.391 451.096L427.136 452.664L427.396 454.418L427.136 456.172L426.391 457.741L425.23 458.876L423.81 459.495H422.319L420.899 458.876L419.755 457.741L418.993 456.172L418.733 454.418L418.993 452.664L419.755 451.096L420.899 449.961L422.631 449.094L360.08 449.136L360.236 449.094H300.196V488.302H721.078L737.469 508.938H797.214V509.97H975.772V488.302H1088.21Z" fill="#F5F5F5" stroke="black" stroke-width="0.1" stroke-miterlimit="10" stroke-linecap="square"/>
<path id="wsB12176" d="M300.196 446.597H484.524V256.749H300.179V353.861L300.196 361.496V446.597Z" fill="#F5F5F5" stroke="black" stroke-width="0.1" stroke-miterlimit="10" stroke-linecap="square"/>
<path id="wsB12177" d="M671.296 446.597V256.749H487.037V446.597H671.296Z" fill="#F5F5F5" stroke="black" stroke-width="0.1" stroke-miterlimit="10" stroke-linecap="square"/>
<path id="wsB12175" d="M673.809 446.597H796.053V256.749H673.809V446.597Z" fill="#F5F5F5" stroke="black" stroke-width="0.1" stroke-miterlimit="10" stroke-linecap="square"/>
<path id="wsB12174" d="M920.134 446.597V256.749H798.565V446.597H920.134Z" fill="#F5F5F5" stroke="black" stroke-width="0.1" stroke-miterlimit="10" stroke-linecap="square"/>
<path id="wsB12172" d="M144.233 708.113H297.233V624.477H144.233V708.113Z" fill="#F5F5F5" stroke="black" stroke-width="0.1" stroke-miterlimit="10" stroke-linecap="square"/>
<path id="wsB12192" d="M140.767 566.718H144.233V581.163H125.363L92.4414 620.371H207.322L207.304 581.163V490.758H194.43L194.309 449.074H190.237V447.423H175.751L142.951 486.775L143.713 487.683V494.245H140.767V566.718Z" fill="#F5F5F5" stroke="black" stroke-width="0.1" stroke-miterlimit="10" stroke-linecap="square"/>
<path id="wsB12173" d="M1036.23 361.475H923.08V445.05H1036.23V361.475Z" fill="#F5F5F5" stroke="black" stroke-width="0.1" stroke-miterlimit="10" stroke-linecap="square"/>
<path id="wsB12171" d="M94.1913 623.094H90.154L87.7455 625.963H41.0483V708.113H141.547V623.053L94.1913 623.094Z" fill="#F5F5F5" stroke="black" stroke-width="0.1" stroke-miterlimit="10" stroke-linecap="square"/>
<path id="wsB12184" d="M831.955 514.592V512.013H797.231V513.065H793.765V510.795H738.959L774.792 555.863H922.074V514.592H831.955Z" fill="#F5F5F5" stroke="black" stroke-width="0.1" stroke-miterlimit="10" stroke-linecap="square"/>
<path id="wsB12188" d="M1027.06 577.448H1076.96L1081.92 577.159L1085.52 576.458L1090.06 574.91L1092.78 573.569L1095.33 572.083L1098.85 569.462L1102.21 566.243L1106.13 561.125L1108.12 557.927L1110.61 552.355L1111.71 549.115L1113.23 542.822L1113.66 538.674L1113.85 534.382L1113.65 530.523L1113.04 525.983L1111.88 520.762L1110.32 516.181L1107.75 510.939L1105.02 506.647L1102.61 503.696L1098.9 500.085L1095.3 497.341L1092.54 495.731L1089.56 494.369L1087.08 493.461L1082.68 492.367L1076.96 492.017V490.159H1027.06V577.448Z" fill="#F5F5F5" stroke="black" stroke-width="0.1" stroke-miterlimit="10" stroke-linecap="square"/>
<path id="wsB12179" d="M297.233 565.046H299.053V530.585H297.164V488.281H297.251V446.577H247.123V449.094H247.417V488.302H247.33V579.099H297.233V565.046Z" fill="#F5F5F5" stroke="black" stroke-width="0.1" stroke-miterlimit="10" stroke-linecap="square"/>
<path id="wsB12178" d="M245.477 446.35V361.475H196.388V446.35H245.477Z" fill="#F5F5F5" stroke="black" stroke-width="0.1" stroke-miterlimit="10" stroke-linecap="square"/>
<path id="wsB12167" d="M297.251 361.475H247.123V443.873H297.251V361.475Z" fill="#F5F5F5" stroke="black" stroke-width="0.1" stroke-miterlimit="10" stroke-linecap="square"/>
<path id="wsB12182" d="M247.33 581.163H209.557L209.574 620.37H297.25V581.163H247.33Z" fill="#F5F5F5" stroke="black" stroke-width="0.1" stroke-miterlimit="10" stroke-linecap="square"/>
<path id="wsB12180" d="M238.84 493.028L232.55 495.256L228.219 497.836L225.1 500.312L222.31 502.974L218.255 508.174L214.859 514.241L213.698 516.986L211.983 522.495L210.926 528.067L210.597 531.162L210.423 534.732L211.047 542.574L212.121 547.609L213.716 552.479L215.899 557.329L218.013 560.96L220.941 564.922L223.869 567.956L228.357 571.712L233.174 574.435L237.211 575.983L241.613 577.077L247.331 577.428V492.017L242.184 492.326L238.84 493.028Z" fill="#F5F5F5" stroke="black" stroke-width="0.1" stroke-miterlimit="10" stroke-linecap="square"/>
<path id="wsB12185" d="M975.772 514.592H923.79V555.863H975.772V514.592Z" fill="#F5F5F5" stroke="black" stroke-width="0.1" stroke-miterlimit="10" stroke-linecap="square"/>
<path id="wsB12194" d="M245.182 488.302V449.094L196.388 449.053L196.492 488.282L245.182 488.302Z" fill="#F5F5F5" stroke="black" stroke-width="0.1" stroke-miterlimit="10" stroke-linecap="square"/>
<path id="wsB12190" d="M1101.74 488.302H1128.06V447.093H1089.94V488.302H1101.74Z" fill="#F5F5F5" stroke="black" stroke-width="0.1" stroke-miterlimit="10" stroke-linecap="square"/>
<path id="wsB12186" d="M978.891 504.398V538.86H1023.94V504.398H978.891Z" fill="#F5F5F5" stroke="black" stroke-width="0.1" stroke-miterlimit="10" stroke-linecap="square"/>
<path id="wsB12183" d="M301.132 565.046H345.403V530.585H301.149L301.132 565.046Z" fill="#F5F5F5" stroke="black" stroke-width="0.1" stroke-miterlimit="10" stroke-linecap="square"/>
<path id="wsB12168" d="M1119.4 361.475H1089.94V389.333H1119.4V361.475Z" fill="#F5F5F5" stroke="black" stroke-width="0.1" stroke-miterlimit="10" stroke-linecap="square"/>
<path id="wsB12169" d="M1089.94 391.397V418.223H1119.4V391.397H1089.94Z" fill="#F5F5F5" stroke="black" stroke-width="0.1" stroke-miterlimit="10" stroke-linecap="square"/>
<path id="wsB12170" d="M1089.94 420.287V445.05H1119.4V420.287H1089.94Z" fill="#F5F5F5" stroke="black" stroke-width="0.1" stroke-miterlimit="10" stroke-linecap="square"/>
<path id="wsB12181" d="M345.403 579.079V568.761H300.352V579.079H345.403Z" fill="#F5F5F5" stroke="black" stroke-width="0.1" stroke-miterlimit="10" stroke-linecap="square"/>
<path id="wsB12187" d="M978.891 490.345V500.663H1023.94V490.345H978.891Z" fill="#F5F5F5" stroke="black" stroke-width="0.1" stroke-miterlimit="10" stroke-linecap="square"/>
</g>
<g id="workspacesFrontGroup">
<g id="wsF12191">
<path id="Vector_52" d="M1023.94 581.142V577.428H977.158V560.506H773.094L718.652 491.996H347.153V526.87H348.54V581.142H298.983V620.35H300.37V662.653H611.915V620.35H1200.35L1222.01 651.303H1241.94V581.163H1023.96" fill="#F5F5F5"/>
<path id="Vector_53" d="M1023.94 581.142V577.428H977.158V560.506H773.094L718.652 491.996H347.153V526.87H348.54V581.142H298.983V620.35H300.37V662.653H611.915V620.35H1200.35L1222.01 651.303H1241.94V581.163H1023.96" stroke="black" stroke-width="0.1" stroke-miterlimit="10" stroke-linecap="square"/>
</g>
<path id="wsF12193" d="M1113.89 41.1063L1101.85 44.3461L1091.5 47.4002L1081.31 50.2272L1061.98 57.1609L1048.86 62.2372L1037.42 67.1898L1028.26 71.3994L1017.25 76.7648L1006.42 82.6666L995.508 88.4239L978.804 98.3703L978.77 352.189H1128.06V37.9077L1113.89 41.1063Z" fill="#F5F5F5" stroke="black" stroke-width="0.1" stroke-miterlimit="10" stroke-linecap="square"/>
<path id="wsF12189" d="M1088.21 488.302V361.475H1037.96V447.113H923.08V449.094H860.147L858.969 449.342H860.459L861.88 449.961L863.023 451.096L863.786 452.664L864.046 454.418L863.786 456.172L863.023 457.741L861.88 458.876L860.459 459.495H858.969L857.548 458.876L856.404 457.741L855.642 456.172L855.382 454.418L855.642 452.664L856.404 451.096L857.548 449.961L859.281 449.094H797.751L796.573 449.342H798.063L799.484 449.961L800.627 451.096L801.39 452.664L801.65 454.418L801.39 456.172L800.627 457.741L799.484 458.876L798.063 459.495H796.573L795.152 458.876L793.991 457.741L793.246 456.172L792.986 454.418L793.246 452.664L794.008 451.096L795.152 449.961L796.885 449.094H735.355L734.177 449.342H735.667L737.088 449.961L738.249 451.096L738.994 452.664L739.254 454.418L738.994 456.172L738.232 457.741L737.088 458.876L735.667 459.495H734.177L732.756 458.876L731.613 457.741L730.85 456.172L730.59 454.418L730.85 452.664L731.613 451.096L732.756 449.961L734.489 449.094H610.633L609.455 449.342H610.945L612.366 449.961L613.527 451.096L614.272 452.664L614.532 454.418L614.272 456.172L613.509 457.741L612.366 458.876L610.945 459.495H609.455L608.034 458.876L606.89 457.741L606.128 456.172L605.868 454.418L606.128 452.664L606.89 451.096L608.034 449.961L609.767 449.094H548.272L547.094 449.342H548.584L550.005 449.961L551.148 451.096L551.911 452.664L552.171 454.418L551.911 456.172L551.148 457.741L550.005 458.876L548.584 459.495H547.094L545.673 458.876L544.529 457.741L543.767 456.172L543.507 454.418L543.767 452.664L544.529 451.096L545.673 449.961L547.406 449.094H485.807L484.629 449.342H486.119L487.54 449.961L488.701 451.096L489.446 452.664L489.706 454.418L489.446 456.172L488.701 457.741L487.54 458.876L486.119 459.495H484.629L483.208 458.876L482.064 457.741L481.302 456.172L481.042 454.418L481.302 452.664L482.064 451.096L483.208 449.961L484.94 449.094H423.498L422.319 449.342H423.81L425.23 449.961L426.391 451.096L427.136 452.664L427.396 454.418L427.136 456.172L426.391 457.741L425.23 458.876L423.81 459.495H422.319L420.899 458.876L419.755 457.741L418.993 456.172L418.733 454.418L418.993 452.664L419.755 451.096L420.899 449.961L422.631 449.094L360.08 449.136L360.236 449.094H300.196V488.302H721.078L737.469 508.938H797.214V509.97H975.772V488.302H1088.21Z" fill="#F5F5F5" stroke="black" stroke-width="0.1" stroke-miterlimit="10" stroke-linecap="square"/>
<path id="wsF12176" d="M300.196 446.597H484.524V256.749H300.179V353.861L300.196 361.496V446.597Z" fill="#F5F5F5" stroke="black" stroke-width="0.1" stroke-miterlimit="10" stroke-linecap="square"/>
<path id="wsF12177" d="M671.296 446.597V256.749H487.037V446.597H671.296Z" fill="#F5F5F5" stroke="black" stroke-width="0.1" stroke-miterlimit="10" stroke-linecap="square"/>
<path id="wsF12175" d="M673.809 446.597H796.053V256.749H673.809V446.597Z" fill="#F5F5F5" stroke="black" stroke-width="0.1" stroke-miterlimit="10" stroke-linecap="square"/>
<path id="wsF12174" d="M920.134 446.597V256.749H798.565V446.597H920.134Z" fill="#F5F5F5" stroke="black" stroke-width="0.1" stroke-miterlimit="10" stroke-linecap="square"/>
<path id="wsF12172" d="M144.233 708.113H297.233V624.477H144.233V708.113Z" fill="#F5F5F5" stroke="black" stroke-width="0.1" stroke-miterlimit="10" stroke-linecap="square"/>
<path id="wsF12192" d="M140.767 566.718H144.233V581.163H125.363L92.4414 620.371H207.322L207.304 581.163V490.758H194.43L194.309 449.074H190.237V447.423H175.751L142.951 486.775L143.713 487.683V494.245H140.767V566.718Z" fill="#F5F5F5" stroke="black" stroke-width="0.1" stroke-miterlimit="10" stroke-linecap="square"/>
<path id="wsF12173" d="M1036.23 361.475H923.08V445.05H1036.23V361.475Z" fill="#F5F5F5" stroke="black" stroke-width="0.1" stroke-miterlimit="10" stroke-linecap="square"/>
<path id="wsF12171" d="M94.1913 623.094H90.154L87.7455 625.963H41.0483V708.113H141.547V623.053L94.1913 623.094Z" fill="#F5F5F5" stroke="black" stroke-width="0.1" stroke-miterlimit="10" stroke-linecap="square"/>
<path id="wsF12184" d="M831.955 514.592V512.013H797.231V513.065H793.765V510.795H738.959L774.792 555.863H922.074V514.592H831.955Z" fill="#F5F5F5" stroke="black" stroke-width="0.1" stroke-miterlimit="10" stroke-linecap="square"/>
<path id="wsF12188" d="M1027.06 577.448H1076.96L1081.92 577.159L1085.52 576.458L1090.06 574.91L1092.78 573.569L1095.33 572.083L1098.85 569.462L1102.21 566.243L1106.13 561.125L1108.12 557.927L1110.61 552.355L1111.71 549.115L1113.23 542.822L1113.66 538.674L1113.85 534.382L1113.65 530.523L1113.04 525.983L1111.88 520.762L1110.32 516.181L1107.75 510.939L1105.02 506.647L1102.61 503.696L1098.9 500.085L1095.3 497.341L1092.54 495.731L1089.56 494.369L1087.08 493.461L1082.68 492.367L1076.96 492.017V490.159H1027.06V577.448Z" fill="#F5F5F5" stroke="black" stroke-width="0.1" stroke-miterlimit="10" stroke-linecap="square"/>
<path id="wsF12179" d="M297.233 565.046H299.053V530.585H297.164V488.281H297.251V446.577H247.123V449.094H247.417V488.302H247.33V579.099H297.233V565.046Z" fill="#F5F5F5" stroke="black" stroke-width="0.1" stroke-miterlimit="10" stroke-linecap="square"/>
<path id="wsF12178" d="M245.477 446.35V361.475H196.388V446.35H245.477Z" fill="#F5F5F5" stroke="black" stroke-width="0.1" stroke-miterlimit="10" stroke-linecap="square"/>
<path id="wsF12167" d="M297.251 361.475H247.123V443.873H297.251V361.475Z" fill="#F5F5F5" stroke="black" stroke-width="0.1" stroke-miterlimit="10" stroke-linecap="square"/>
<path id="wsF12182" d="M247.33 581.163H209.557L209.574 620.37H297.25V581.163H247.33Z" fill="#F5F5F5" stroke="black" stroke-width="0.1" stroke-miterlimit="10" stroke-linecap="square"/>
<path id="wsF12180" d="M238.84 493.028L232.55 495.256L228.219 497.836L225.1 500.312L222.31 502.974L218.255 508.174L214.859 514.241L213.698 516.986L211.983 522.495L210.926 528.067L210.597 531.162L210.423 534.732L211.047 542.574L212.121 547.609L213.716 552.479L215.899 557.329L218.013 560.96L220.941 564.922L223.869 567.956L228.357 571.712L233.174 574.435L237.211 575.983L241.613 577.077L247.331 577.428V492.017L242.184 492.326L238.84 493.028Z" fill="#F5F5F5" stroke="black" stroke-width="0.1" stroke-miterlimit="10" stroke-linecap="square"/>
<path id="wsF12185" d="M975.772 514.592H923.79V555.863H975.772V514.592Z" fill="#F5F5F5" stroke="black" stroke-width="0.1" stroke-miterlimit="10" stroke-linecap="square"/>
<path id="wsF12194" d="M245.182 488.302V449.094L196.388 449.053L196.492 488.282L245.182 488.302Z" fill="#F5F5F5" stroke="black" stroke-width="0.1" stroke-miterlimit="10" stroke-linecap="square"/>
<path id="wsF12190" d="M1101.74 488.302H1128.06V447.093H1089.94V488.302H1101.74Z" fill="#F5F5F5" stroke="black" stroke-width="0.1" stroke-miterlimit="10" stroke-linecap="square"/>
<path id="wsF12186" d="M978.891 504.398V538.86H1023.94V504.398H978.891Z" fill="#F5F5F5" stroke="black" stroke-width="0.1" stroke-miterlimit="10" stroke-linecap="square"/>
<path id="wsF12183" d="M301.132 565.046H345.403V530.585H301.149L301.132 565.046Z" fill="#F5F5F5" stroke="black" stroke-width="0.1" stroke-miterlimit="10" stroke-linecap="square"/>
<path id="wsF12168" d="M1119.4 361.475H1089.94V389.333H1119.4V361.475Z" fill="#F5F5F5" stroke="black" stroke-width="0.1" stroke-miterlimit="10" stroke-linecap="square"/>
<path id="wsF12169" d="M1089.94 391.397V418.223H1119.4V391.397H1089.94Z" fill="#F5F5F5" stroke="black" stroke-width="0.1" stroke-miterlimit="10" stroke-linecap="square"/>
<path id="wsF12170" d="M1089.94 420.287V445.05H1119.4V420.287H1089.94Z" fill="#F5F5F5" stroke="black" stroke-width="0.1" stroke-miterlimit="10" stroke-linecap="square"/>
<path id="wsF12181" d="M345.403 579.079V568.761H300.352V579.079H345.403Z" fill="#F5F5F5" stroke="black" stroke-width="0.1" stroke-miterlimit="10" stroke-linecap="square"/>
<path id="wsF12187" d="M978.891 490.345V500.663H1023.94V490.345H978.891Z" fill="#F5F5F5" stroke="black" stroke-width="0.1" stroke-miterlimit="10" stroke-linecap="square"/>
<rect id="Q1_13" x="735" y="471" width="1" height="1" fill="#00FF0A"/>
<rect id="Q1_15" x="588" y="471" width="1" height="1" fill="#00FF0A"/>
<rect id="Q1_17" x="395" y="471" width="1" height="1" fill="#00FF0A"/>
<rect id="Q1_02" x="272" y="471" width="1" height="1" fill="#00FF0A"/>
<rect id="Q1_01" x="272" y="368" width="1" height="1" fill="#00FF0A"/>
<rect id="Q1_03" x="272" y="554" width="1" height="1" fill="#00FF0A"/>
<rect id="Q1_11" x="858" y="471" width="1" height="1" fill="#00FF0A"/>
<rect id="Q1_04" x="949" y="471" width="1" height="1" fill="#00FF0A"/>
<rect id="Q1_05" x="1062" y="471" width="1" height="1" fill="#00FF0A"/>
<rect id="Q1_06" x="1062" y="380" width="1" height="1" fill="#00FF0A"/>
</g>
</g>
</g>
</g>
</svg>
