<svg width="41" height="43" viewBox="0 0 41 43" fill="none" xmlns="http://www.w3.org/2000/svg">
<g id="Frame 5">
<g id="Frame 2" clip-path="url(#clip0_2_215)">
<line id="Line 1" x1="10.5" y1="33" x2="10.5" y2="30" stroke="black"/>
<line id="Line 2" x1="11.5" y1="33" x2="11.5" y2="30" stroke="black"/>
<line id="Line 3" x1="10.5" y1="30" x2="10.5" y2="28" stroke="black"/>
<line id="Line 4" x1="11.5" y1="30" x2="11.5" y2="28" stroke="black"/>
<line id="Line 5" x1="10.5" y1="28" x2="10.5" y2="26" stroke="black"/>
<line id="Line 6" x1="11.5" y1="28" x2="11.5" y2="26" stroke="black"/>
<line id="Line 7" x1="11.5" y1="26" x2="11.5" y2="24" stroke="black"/>
<line id="Line 9" x1="10.5" y1="26" x2="10.5" y2="24" stroke="black"/>
<line id="Line 8" x1="10.5" y1="28" x2="10.5" y2="26" stroke="black"/>
<line id="Line 10" x1="12" y1="24.5" x2="19" y2="24.5" stroke="black"/>
<line id="Line 12" x1="12" y1="25.5" x2="19" y2="25.5" stroke="black"/>
<line id="Line 11" x1="11.5" y1="26" x2="11.5" y2="24" stroke="black"/>
<line id="Line 13" x1="17.5" y1="24" x2="17.5" y2="17" stroke="black"/>
<line id="Line 14" x1="18.5" y1="24" x2="18.5" y2="17" stroke="black"/>
<line id="Line 15" x1="19" y1="17.5" x2="26" y2="17.5" stroke="black"/>
<line id="Line 16" x1="19" y1="18.5" x2="26" y2="18.5" stroke="black"/>
<line id="Line 19" x1="25.5" y1="17" x2="25.5" y2="10" stroke="black"/>
<line id="Line 20" x1="24.5" y1="17" x2="24.5" y2="10" stroke="black"/>
</g>
<line id="Line 17" x1="10" y1="31.5" x2="3" y2="31.5" stroke="black"/>
<line id="Line 18" x1="10" y1="32.5" x2="3" y2="32.5" stroke="black"/>
<line id="Line 21" x1="26" y1="11.5" x2="33" y2="11.5" stroke="black"/>
<line id="Line 22" x1="26" y1="12.5" x2="33" y2="12.5" stroke="black"/>
</g>
<defs>
<clipPath id="clip0_2_215">
<rect width="28" height="27" fill="white" transform="translate(5 11)"/>
</clipPath>
</defs>
</svg>