<svg width="1184" height="1077" viewBox="0 0 1184 1077" fill="none" xmlns="http://www.w3.org/2000/svg">
<g id="U2">
<g id="svgDrawingGroup">
<g id="floorGraphicsGroup">
<path id="Vector" d="M502.362 978.246H611.128V894.133H502.362V978.246ZM611.128 888.332V862.228H502.362V888.332H611.128ZM699.955 523.238H631.069V609.163V632.367H699.955V523.238ZM960.814 523.238H828.3V579.615H960.814V523.238ZM367.092 978.246H386.706V876.73H367.128L367.092 978.246ZM538.98 523.238H502.362V604.088H538.98V523.238ZM631.069 636.718V651.945H699.955V636.718H631.069ZM1035.17 72.0362L1020.31 86.9009V200.707H1035.17V72.0362Z" fill="#F5F5F5" stroke="black" stroke-width="2" stroke-miterlimit="10" stroke-linecap="square"/>
<g id="Vector_2">
<path d="M1020.33 86.9009V200.707H1035.19V72M1035.19 200.707V262.342ZM1020.33 200.707V262.342ZM1035.19 262.342H1020.33V450.944H1035.19V262.342Z" fill="#F5F5F5"/>
<path d="M1020.33 86.9009V200.707M1020.33 200.707H1035.19M1020.33 200.707V262.342M1035.19 200.707V72M1035.19 200.707V262.342M1035.19 262.342H1020.33M1035.19 262.342V450.944H1020.33V262.342" stroke="black" stroke-width="2" stroke-miterlimit="10" stroke-linecap="square"/>
</g>
<g id="Vector_3">
<path d="M1035.19 262.342H1020.33V450.943H1035.19V262.342ZM1035.19 450.98V512.614ZM1020.33 450.98V512.614ZM1035.19 512.614H1020.33V569.536H1035.19V512.614Z" fill="#F5F5F5"/>
<path d="M1035.19 450.98V512.614M1035.19 512.614H1020.33M1035.19 512.614V569.536H1020.33V512.614M1020.33 450.98V512.614M1035.19 262.342H1020.33V450.943H1035.19V262.342Z" stroke="black" stroke-width="2" stroke-miterlimit="10" stroke-linecap="square"/>
</g>
<g id="Vector_4">
<path d="M1035.19 512.613H1020.33V569.534H1035.19V512.613ZM1035.19 569.534V616.667ZM1020.33 569.534V616.667ZM1035.19 616.667H1020.33V761.689H1035.19V616.667Z" fill="#F5F5F5"/>
<path d="M1020.33 569.534V512.613H1035.19V569.534M1020.33 569.534H1035.19M1020.33 569.534V616.667M1035.19 569.534V616.667M1035.19 616.667H1020.33M1035.19 616.667V761.689H1020.33V616.667" stroke="black" stroke-width="2" stroke-miterlimit="10" stroke-linecap="square"/>
</g>
<g id="Vector_5">
<path d="M1035.19 616.667H1020.33V761.689H1035.19V616.667ZM1035.19 761.689V823.324ZM1020.33 761.689V823.324ZM1035.19 823.324H1020.33V978.244L1035.19 993.109V823.324Z" fill="#F5F5F5"/>
<path d="M1020.33 761.689V616.667H1035.19V761.689M1020.33 761.689H1035.19M1020.33 761.689V823.324M1035.19 761.689V823.324M1035.19 823.324H1020.33M1035.19 823.324V993.109L1020.33 978.244V823.324" stroke="black" stroke-width="2" stroke-miterlimit="10" stroke-linecap="square"/>
</g>
<g id="Vector_6">
<path d="M1035.19 993.112V823.291H1020.33V978.248M1035.19 262.344V260.894H1020.33V262.344H1035.19ZM1035.19 200.709V202.159H1020.33V200.709H1035.19ZM1035.19 260.894H1070ZM1035.19 202.159H1059.12ZM1070 260.894L1069.6 255.455L1068.29 250.126L1066.23 245.086L1063.36 240.445L1059.81 236.276L1055.68 232.723L1051 229.859L1045.96 227.792L1040.67 226.523L1035.23 226.088M1059.12 202.159L1058.68 206.836L1057.31 211.296L1055.13 215.465L1052.12 219.091L1048.5 222.064L1044.36 224.239L1039.87 225.617L1035.19 226.088M1035.19 512.616V511.166H1020.33V512.616H1035.19ZM1035.19 450.982V452.432H1020.33V450.982H1035.19ZM1035.19 511.166H1070ZM1035.19 452.432H1059.12ZM1070 511.166L1069.6 505.728L1068.29 500.398L1066.23 495.323L1063.36 490.682L1059.81 486.549L1055.68 482.996L1051 480.131L1045.96 478.029L1040.67 476.76L1035.23 476.325M1059.12 452.432L1058.68 457.073L1057.31 461.569L1055.13 465.702L1052.12 469.327L1048.5 472.3L1044.36 474.512L1039.87 475.889L1035.19 476.325M1035.19 616.67V615.22H1020.33V616.67H1035.19ZM1035.19 569.538V570.988H1020.33V569.538H1035.19ZM1035.19 615.22H1066.37ZM1035.19 570.988H1048.24ZM1066.37 615.22L1065.9 609.782L1064.52 604.524L1062.2 599.594L1059.08 595.171L1055.24 591.327L1050.78 588.21L1045.85 585.889L1040.63 584.511L1035.19 584.004" fill="#F5F5F5"/>
<path d="M1035.19 993.112V823.291H1020.33V978.248M1035.19 260.894V262.344H1020.33V260.894H1035.19ZM1035.19 260.894H1070L1069.6 255.455L1068.29 250.126L1066.23 245.086L1063.36 240.445L1059.81 236.276L1055.68 232.723L1051 229.859L1045.96 227.792L1040.67 226.523L1035.23 226.088M1035.19 202.159V200.709H1020.33V202.159H1035.19ZM1035.19 202.159H1059.12L1058.68 206.836L1057.31 211.296L1055.13 215.465L1052.12 219.091L1048.5 222.064L1044.36 224.239L1039.87 225.617L1035.19 226.088M1035.19 511.166V512.616H1020.33V511.166H1035.19ZM1035.19 511.166H1070L1069.6 505.728L1068.29 500.398L1066.23 495.323L1063.36 490.682L1059.81 486.549L1055.68 482.996L1051 480.131L1045.96 478.029L1040.67 476.76L1035.23 476.325M1035.19 452.432V450.982H1020.33V452.432H1035.19ZM1035.19 452.432H1059.12L1058.68 457.073L1057.31 461.569L1055.13 465.702L1052.12 469.327L1048.5 472.3L1044.36 474.512L1039.87 475.889L1035.19 476.325M1035.19 615.22V616.67H1020.33V615.22H1035.19ZM1035.19 615.22H1066.37L1065.9 609.782L1064.52 604.524L1062.2 599.594L1059.08 595.171L1055.24 591.327L1050.78 588.21L1045.85 585.889L1040.63 584.511L1035.19 584.004M1035.19 570.988V569.538H1020.33V570.988H1035.19ZM1035.19 570.988H1048.24" stroke="black" stroke-width="2" stroke-miterlimit="10" stroke-linecap="square"/>
</g>
<g id="Vector_7">
<path d="M1048.25 570.984L1047.82 574.356L1046.51 577.474L1044.44 580.193L1041.72 582.259L1038.61 583.565L1035.2 584M1035.2 823.323V821.873H1020.33V823.323H1035.2ZM1035.2 761.689V763.139H1020.33V761.689H1035.2ZM1035.2 821.873H1070ZM1035.2 763.139H1059.13ZM1070 821.873L1069.61 816.435L1068.3 811.105L1066.23 806.029L1063.37 801.388L1059.82 797.255L1055.68 793.702L1051.01 790.838L1045.97 788.735L1040.67 787.466L1035.24 787.031M1059.13 763.139L1058.69 767.78L1057.31 772.275L1055.14 776.408L1052.13 780.034L1048.5 783.007L1044.37 785.218L1039.88 786.596L1035.2 787.031M1035.2 993.108L1020.33 978.243H130.439V993.108H1035.2Z" fill="#F5F5F5"/>
<path d="M1048.25 570.984L1047.82 574.356L1046.51 577.474L1044.44 580.193L1041.72 582.259L1038.61 583.565L1035.2 584M1035.2 821.873V823.323H1020.33V821.873H1035.2ZM1035.2 821.873H1070L1069.61 816.435L1068.3 811.105L1066.23 806.029L1063.37 801.388L1059.82 797.255L1055.68 793.702L1051.01 790.838L1045.97 788.735L1040.67 787.466L1035.24 787.031M1035.2 763.139V761.689H1020.33V763.139H1035.2ZM1035.2 763.139H1059.13L1058.69 767.78L1057.31 772.275L1055.14 776.408L1052.13 780.034L1048.5 783.007L1044.37 785.218L1039.88 786.596L1035.2 787.031M1035.2 993.108L1020.33 978.243H130.439V993.108H1035.2Z" stroke="black" stroke-width="2" stroke-miterlimit="10" stroke-linecap="square"/>
</g>
<g id="Vector_8">
<path d="M1020.33 978.245H130.439V993.109H1035.2M137.872 869.478V876.729H386.731L393.982 869.478H137.872Z" fill="#F5F5F5"/>
<path d="M1020.33 978.245H130.439V993.109H1035.2M137.872 869.478V876.729H386.731L393.982 869.478H137.872Z" stroke="black" stroke-width="2" stroke-miterlimit="10" stroke-linecap="square"/>
</g>
<g id="Vector_9">
<path d="M394.015 869.478H137.869V876.729M367.114 876.729H386.728ZM146.933 876.729H363.524ZM394.015 869.478L386.728 876.729L386.764 978.245H394.015V869.478Z" fill="#F5F5F5"/>
<path d="M394.015 869.478H137.869V876.729M394.015 869.478L386.728 876.729M394.015 869.478V978.245H386.764L386.728 876.729M367.114 876.729H386.728M146.933 876.729H363.524" stroke="black" stroke-width="2" stroke-miterlimit="10" stroke-linecap="square"/>
</g>
<g id="Vector_10">
<path d="M386.707 876.729V978.245H393.958V876.729M393.994 876.367V869.478ZM495.111 515.986L502.362 523.237H699.956L707.207 515.986H495.111ZM631.07 523.237H699.956ZM539.343 515.986H495.111ZM502.362 523.237H538.981ZM544.056 523.237H624.544ZM707.207 515.986H542.969Z" fill="#F5F5F5"/>
<path d="M386.707 876.729V978.245H393.958V876.729M393.994 876.367V869.478M495.111 515.986L502.362 523.237M495.111 515.986H707.207M495.111 515.986H539.343M502.362 523.237H699.956M502.362 523.237H538.981M699.956 523.237L707.207 515.986M699.956 523.237H631.07M707.207 515.986H542.969M544.056 523.237H624.544" stroke="black" stroke-width="2" stroke-miterlimit="10" stroke-linecap="square"/>
</g>
<g id="Vector_11">
<path d="M707.222 515.986L699.971 523.237V750.197H707.222V515.986ZM699.971 523.237V632.366ZM707.222 627.834V515.986ZM699.971 636.717V651.944ZM699.971 656.295V709.228ZM699.971 713.579V738.958Z" fill="#F5F5F5"/>
<path d="M707.222 515.986L699.971 523.237M707.222 515.986V750.197H699.971V523.237M707.222 515.986V627.834M699.971 523.237V632.366M699.971 636.717V651.944M699.971 656.295V709.228M699.971 713.579V738.958" stroke="black" stroke-width="2" stroke-miterlimit="10" stroke-linecap="square"/>
</g>
<g id="Vector_12">
<path d="M699.971 746.208V750.197H707.222V633.635M707.222 750.197V797.329ZM699.971 750.197V797.329ZM707.222 797.329H699.971V978.245H707.222V797.329Z" fill="#F5F5F5"/>
<path d="M699.971 746.208V750.197M699.971 750.197H707.222M699.971 750.197V797.329M707.222 750.197V633.635M707.222 750.197V797.329M707.222 797.329H699.971M707.222 797.329V978.245H699.971V797.329" stroke="black" stroke-width="2" stroke-miterlimit="10" stroke-linecap="square"/>
</g>
<g id="Vector_13">
<path d="M699.971 865.855V978.248H707.222V797.332H699.971V858.604M707.222 797.332V795.882H699.971V797.332H707.222ZM707.222 750.2V751.65H699.971V750.2H707.222ZM707.222 795.882H720.274ZM707.222 751.65H738.402ZM720.274 795.882L719.839 792.51L718.534 789.356L716.467 786.637L713.748 784.57L710.63 783.265L707.222 782.83" fill="#F5F5F5"/>
<path d="M699.971 865.855V978.248H707.222V797.332M707.222 797.332H699.971M707.222 797.332V795.882M699.971 797.332V858.604M699.971 797.332V795.882H707.222M707.222 795.882H720.274L719.839 792.51L718.534 789.356L716.467 786.637L713.748 784.57L710.63 783.265L707.222 782.83M707.222 751.65V750.2H699.971V751.65H707.222ZM707.222 751.65H738.402" stroke="black" stroke-width="2" stroke-miterlimit="10" stroke-linecap="square"/>
</g>
<g id="Vector_14">
<path d="M738.395 751.647L737.923 757.085L736.545 762.306L734.225 767.237L731.107 771.696L727.264 775.54L722.805 778.658L717.874 780.942L712.653 782.356L707.215 782.827M495.119 978.245H502.37V800.592H495.119V978.245ZM502.37 888.331V862.227Z" fill="#F5F5F5"/>
<path d="M738.395 751.647L737.923 757.085L736.545 762.306L734.225 767.237L731.107 771.696L727.264 775.54L722.805 778.658L717.874 780.942L712.653 782.356L707.215 782.827M502.37 888.331V862.227M495.119 978.245H502.37V800.592H495.119V978.245Z" stroke="black" stroke-width="2" stroke-miterlimit="10" stroke-linecap="square"/>
</g>
<g id="Vector_15">
<path d="M495.119 876.729V978.245H502.37V894.132M502.37 858.601V800.592H495.119V876.367M495.119 800.592V746.209ZM502.37 800.592V746.209ZM495.119 746.209H502.37V523.237L495.119 515.986V746.209Z" fill="#F5F5F5"/>
<path d="M495.119 876.729V978.245H502.37V894.132M502.37 858.601V800.592M502.37 800.592H495.119M502.37 800.592V746.209M495.119 800.592V876.367M495.119 800.592V746.209M495.119 746.209H502.37M495.119 746.209V515.986L502.37 523.237V746.209" stroke="black" stroke-width="2" stroke-miterlimit="10" stroke-linecap="square"/>
</g>
<g id="Vector_16">
<path d="M495.119 515.986V746.209H502.37M502.37 604.087V523.237ZM502.37 738.958V699.983ZM502.37 694.907V653.394ZM502.37 648.319V609.163ZM502.37 746.209V747.659H495.119V746.209H502.37ZM502.37 800.592V799.142H495.119V800.592H502.37Z" fill="#F5F5F5"/>
<path d="M495.119 515.986V746.209M495.119 746.209H502.37V747.659H495.119V746.209ZM502.37 604.087V523.237M502.37 738.958V699.983M502.37 694.907V653.394M502.37 648.319V609.163M502.37 800.592V799.142H495.119V800.592H502.37Z" stroke="black" stroke-width="2" stroke-miterlimit="10" stroke-linecap="square"/>
</g>
<g id="Vector_17">
<path d="M495.119 800.592V746.209H502.37V800.592M761.598 515.986L768.849 523.237H973.693V515.986H761.598ZM768.849 523.237H822.508Z" fill="#F5F5F5"/>
<path d="M495.119 800.592V746.209H502.37V800.592M768.849 523.237L761.598 515.986H973.693V523.237H768.849ZM768.849 523.237H822.508" stroke="black" stroke-width="2" stroke-miterlimit="10" stroke-linecap="square"/>
</g>
<g id="Vector_18">
<path d="M966.61 523.237H973.679V515.986H761.584M828.294 523.237H960.809ZM1009.94 515.986V523.237H1020.3V515.986H1009.94Z" fill="#F5F5F5"/>
<path d="M966.61 523.237H973.679V515.986H761.584M828.294 523.237H960.809M1009.94 515.986V523.237H1020.3V515.986H1009.94Z" stroke="black" stroke-width="2" stroke-miterlimit="10" stroke-linecap="square"/>
</g>
<g id="Vector_19">
<path d="M1009.94 515.986V523.237H1020.3V515.986H1009.94ZM1009.94 523.237H1008.48V515.986H1009.94V523.237ZM973.679 523.237H975.13V515.986H973.679V523.237ZM1008.48 523.237V556.592ZM1008.48 556.592L1002.68 556.084L997.101 554.562L991.807 552.132L987.058 548.797L982.961 544.664L979.625 539.914L977.16 534.657L975.637 529.038L975.13 523.237M1020.3 695.451V688.2H768.835L761.584 695.451H1020.3Z" fill="#F5F5F5"/>
<path d="M1009.94 515.986V523.237M1009.94 515.986H1020.3V523.237H1009.94M1009.94 515.986H1008.48V523.237M1009.94 523.237H1008.48M1008.48 523.237V556.592L1002.68 556.084L997.101 554.562L991.807 552.132L987.058 548.797L982.961 544.664L979.625 539.914L977.16 534.657L975.637 529.038L975.13 523.237M975.13 523.237H973.679V515.986H975.13V523.237ZM1020.3 695.451V688.2H768.835L761.584 695.451H1020.3Z" stroke="black" stroke-width="2" stroke-miterlimit="10" stroke-linecap="square"/>
</g>
<g id="Vector_20">
<path d="M761.584 695.451H1020.3V688.2H768.835" fill="#F5F5F5"/>
<path d="M761.584 695.451H1020.3V688.2H768.835" stroke="black" stroke-width="2" stroke-miterlimit="10" stroke-linecap="square"/>
</g>
<g id="Vector_21">
<path d="M761.635 695.451L768.886 688.2V523.237L761.635 515.986V695.451ZM768.886 688.2V523.237ZM761.635 633.635V695.451ZM761.635 515.986V627.834ZM611.174 858.601L618.425 865.852H630.824V858.601H611.174Z" fill="#F5F5F5"/>
<path d="M761.635 695.451L768.886 688.2V523.237L761.635 515.986M761.635 695.451V515.986M761.635 695.451V633.635M761.635 515.986V627.834M611.174 858.601L618.425 865.852H630.824V858.601H611.174Z" stroke="black" stroke-width="2" stroke-miterlimit="10" stroke-linecap="square"/>
</g>
<g id="Vector_22">
<path d="M618.425 865.855H630.824V858.604H611.174M630.824 858.604H685.208ZM630.824 865.855H685.208ZM685.208 858.604V865.855H700V858.604H685.208Z" fill="#F5F5F5"/>
<path d="M618.425 865.855H630.824M630.824 865.855V858.604M630.824 865.855H685.208M630.824 858.604H611.174M630.824 858.604H685.208M685.208 858.604V865.855M685.208 858.604H700V865.855H685.208" stroke="black" stroke-width="2" stroke-miterlimit="10" stroke-linecap="square"/>
</g>
<g id="Vector_23">
<path d="M699.966 858.604H685.174V865.855H699.966" fill="#F5F5F5"/>
<path d="M699.966 858.604H685.174V865.855H699.966" stroke="black" stroke-width="2" stroke-miterlimit="10" stroke-linecap="square"/>
</g>
<path id="Vector_24" d="M685.173 865.855H683.722V858.604H685.173V865.855ZM630.789 865.855H632.239V858.604H630.789V865.855Z" fill="#F5F5F5" stroke="black" stroke-width="2" stroke-miterlimit="10" stroke-linecap="square"/>
<g id="Vector_25">
<path d="M630.824 858.604H685.208V865.855H630.824M611.174 978.247H618.425V865.855L611.174 858.604V978.247ZM611.174 858.604V888.333Z" fill="#F5F5F5"/>
<path d="M630.824 858.604H685.208V865.855H630.824M611.174 858.604L618.425 865.855V978.247H611.174V858.604ZM611.174 858.604V888.333" stroke="black" stroke-width="2" stroke-miterlimit="10" stroke-linecap="square"/>
</g>
<g id="Vector_26">
<path d="M611.179 894.133V978.246H618.43V865.853M502.412 888.332V894.133H611.179V888.332H502.412ZM502.412 894.133H611.179ZM611.179 888.332H502.412ZM502.412 738.958V746.21H586.163V738.958H502.412Z" fill="#F5F5F5"/>
<path d="M611.179 894.133V978.246H618.43V865.853M611.179 894.133H502.412V888.332H611.179V894.133ZM502.412 738.958V746.21H586.163V738.958H502.412Z" stroke="black" stroke-width="2" stroke-miterlimit="10" stroke-linecap="square"/>
</g>
<g id="Vector_27">
<path d="M502.412 746.21H586.163V738.958H558.427M553.351 738.958H502.412ZM622.418 738.958V746.21H634.383V738.958H622.418Z" fill="#F5F5F5"/>
<path d="M502.412 746.21H586.163V738.958H558.427M553.351 738.958H502.412M622.418 738.958V746.21H634.383V738.958H622.418Z" stroke="black" stroke-width="2" stroke-miterlimit="10" stroke-linecap="square"/>
</g>
<g id="Vector_28">
<path d="M624.544 738.958H622.369V746.21H634.333V738.958H631.07M634.333 738.958H695.932ZM634.333 746.21H695.932ZM695.932 738.958V746.21H699.956V738.958H695.932Z" fill="#F5F5F5"/>
<path d="M624.544 738.958H622.369V746.21H634.333M634.333 746.21V738.958M634.333 746.21H695.932M634.333 738.958H631.07M634.333 738.958H695.932M695.932 738.958V746.21M695.932 738.958H699.956V746.21H695.932" stroke="black" stroke-width="2" stroke-miterlimit="10" stroke-linecap="square"/>
</g>
<g id="Vector_29">
<path d="M699.95 738.957H695.962V746.208H699.95M622.363 738.957H620.913V746.208H622.363V738.957ZM586.107 738.957H587.558V746.208H586.107V738.957ZM620.913 738.957V705.602ZM620.913 705.602L615.112 706.109L609.529 707.596L604.235 710.061L599.486 713.397L595.389 717.494L592.053 722.279L589.588 727.536L588.065 733.156L587.558 738.957M634.291 746.208H635.741V738.957H634.291V746.208ZM695.962 746.208H694.475V738.957H695.962V746.208ZM635.741 746.208V775.575ZM694.475 746.208V775.575ZM635.741 775.575L640.817 775.14L645.784 773.799L650.425 771.623L654.631 768.723L658.256 765.097L661.157 760.892L663.332 756.251L664.673 751.32L665.108 746.208" fill="#F5F5F5"/>
<path d="M699.95 738.957H695.962M695.962 738.957V746.208M695.962 738.957H694.475V746.208M695.962 746.208H699.95M695.962 746.208H694.475M620.913 738.957H622.363V746.208H620.913V738.957ZM620.913 738.957V705.602L615.112 706.109L609.529 707.596L604.235 710.061L599.486 713.397L595.389 717.494L592.053 722.279L589.588 727.536L588.065 733.156L587.558 738.957M587.558 738.957H586.107V746.208H587.558V738.957ZM635.741 746.208H634.291V738.957H635.741V746.208ZM635.741 746.208V775.575L640.817 775.14L645.784 773.799L650.425 771.623L654.631 768.723L658.256 765.097L661.157 760.892L663.332 756.251L664.673 751.32L665.108 746.208M694.475 746.208V775.575" stroke="black" stroke-width="2" stroke-miterlimit="10" stroke-linecap="square"/>
</g>
<g id="Vector_30">
<path d="M694.531 775.575L689.455 775.14L684.488 773.799L679.847 771.623L675.678 768.723L672.052 765.097L669.116 760.891L666.94 756.251L665.599 751.32L665.164 746.208M502.412 858.601V862.226H507.089V858.601H502.412Z" fill="#F5F5F5"/>
<path d="M694.531 775.575L689.455 775.14L684.488 773.799L679.847 771.623L675.678 768.723L672.052 765.097L669.116 760.891L666.94 756.251L665.599 751.32L665.164 746.208M502.412 858.601V862.226H507.089V858.601H502.412Z" stroke="black" stroke-width="2" stroke-miterlimit="10" stroke-linecap="square"/>
</g>
<g id="Vector_31">
<path d="M502.412 862.229H507.089V858.604H502.412M507.089 858.604H608.605ZM507.089 862.229H608.605ZM608.605 858.604V862.229H611.179V858.604H608.605Z" fill="#F5F5F5"/>
<path d="M502.412 862.229H507.089M507.089 862.229V858.604M507.089 862.229H608.605M507.089 858.604H502.412M507.089 858.604H608.605M608.605 858.604V862.229M608.605 858.604H611.179V862.229H608.605" stroke="black" stroke-width="2" stroke-miterlimit="10" stroke-linecap="square"/>
</g>
<g id="Vector_32">
<path d="M611.174 858.602H608.6V862.227H611.174M608.6 858.602H607.149V862.227H608.6V858.602ZM507.084 858.602H508.534V862.227H507.084V858.602ZM607.149 858.602L564.44 833.948ZM508.534 858.602L551.243 833.948ZM564.44 833.948L561.576 839.749L559.51 845.84L558.277 852.148L557.842 858.602" fill="#F5F5F5"/>
<path d="M611.174 858.602H608.6M608.6 858.602V862.227M608.6 858.602H607.149M608.6 862.227H611.174M608.6 862.227H607.149V858.602M607.149 858.602L564.44 833.948L561.576 839.749L559.51 845.84L558.277 852.148L557.842 858.602M508.534 858.602H507.084V862.227H508.534V858.602ZM508.534 858.602L551.243 833.948" stroke="black" stroke-width="2" stroke-miterlimit="10" stroke-linecap="square"/>
</g>
<g id="Vector_33">
<path d="M551.199 833.95L554.027 839.751L556.13 845.842L557.363 852.151L557.798 858.604M966.616 585.418L960.815 579.617H828.301L822.5 585.418H966.616ZM960.815 579.617H828.301ZM822.5 585.418H966.616ZM822.5 585.418L828.301 579.617V523.24H822.5V585.418ZM828.301 579.617V523.24ZM822.5 523.24V585.418ZM966.616 523.24H960.815V579.617L966.616 585.418V523.24ZM960.815 523.24V579.617ZM966.616 585.418V523.24ZM707.207 627.837V633.638H710.289V627.837H707.207Z" fill="#F5F5F5"/>
<path d="M551.199 833.95L554.027 839.751L556.13 845.842L557.363 852.151L557.798 858.604M966.616 585.418L960.815 579.617M966.616 585.418H822.5M966.616 585.418V523.24H960.815V579.617M960.815 579.617H828.301M828.301 579.617L822.5 585.418M828.301 579.617V523.24H822.5V585.418M707.207 627.837V633.638H710.289V627.837H707.207Z" stroke="black" stroke-width="2" stroke-miterlimit="10" stroke-linecap="square"/>
</g>
<g id="Vector_34">
<path d="M707.199 633.638H710.281V627.837H707.199M710.281 627.837H757.413ZM710.281 633.638H757.413ZM757.413 627.837V633.638H761.583V627.837H757.413Z" fill="#F5F5F5"/>
<path d="M707.199 633.638H710.281M710.281 633.638V627.837M710.281 633.638H757.413M710.281 627.837H707.199M710.281 627.837H757.413M757.413 627.837V633.638M757.413 627.837H761.583V633.638H757.413" stroke="black" stroke-width="2" stroke-miterlimit="10" stroke-linecap="square"/>
</g>
<g id="Vector_35">
<path d="M761.596 627.833H757.426V633.634H761.596M757.426 627.833H755.976V633.634H757.426V627.833ZM710.294 627.833H711.744V633.634H710.294V627.833ZM755.976 627.833V614.781ZM711.744 627.833V596.653ZM755.976 614.781L752.604 615.216L749.45 616.521L746.767 618.588L744.701 621.307L743.395 624.461L742.924 627.833M711.744 596.653L717.183 597.125L722.44 598.539L727.334 600.823L731.794 603.941L735.637 607.784L738.755 612.243L741.075 617.174L742.453 622.431L742.924 627.833M367.098 876.728H363.473V978.244H367.098V876.728Z" fill="#F5F5F5"/>
<path d="M761.596 627.833H757.426M757.426 627.833V633.634M757.426 627.833H755.976M757.426 633.634H761.596M757.426 633.634H755.976V627.833M755.976 627.833V614.781L752.604 615.216L749.45 616.521L746.767 618.588L744.701 621.307L743.395 624.461L742.924 627.833L742.453 622.431L741.075 617.174L738.755 612.243L735.637 607.784L731.794 603.941L727.334 600.823L722.44 598.539L717.183 597.125L711.744 596.653V627.833M711.744 627.833H710.294V633.634H711.744V627.833ZM367.098 876.728H363.473V978.244H367.098V876.728Z" stroke="black" stroke-width="2" stroke-miterlimit="10" stroke-linecap="square"/>
</g>
<g id="Vector_36">
<path d="M363.473 876.731V978.247H367.098V876.731M502.368 604.089V609.164H553.307L558.383 604.089H502.368ZM502.368 609.164H553.307ZM538.986 604.089H502.368ZM558.383 604.089H544.062ZM558.383 604.089L553.307 609.164V609.817H558.383V604.089Z" fill="#F5F5F5"/>
<path d="M363.473 876.731V978.247H367.098V876.731M502.368 604.089V609.164H553.307M502.368 604.089H558.383M502.368 604.089H538.986M553.307 609.164L558.383 604.089M553.307 609.164V609.817H558.383V604.089M558.383 604.089H544.062" stroke="black" stroke-width="2" stroke-miterlimit="10" stroke-linecap="square"/>
</g>
<g id="Vector_37">
<path d="M553.324 609.165V609.818H558.4V609.165M558.4 642.448H553.324V654.702H558.4V642.448Z" fill="#F5F5F5"/>
<path d="M553.324 609.165V609.818H558.4V609.165M558.4 642.448H553.324V654.702H558.4V642.448Z" stroke="black" stroke-width="2" stroke-miterlimit="10" stroke-linecap="square"/>
</g>
<g id="Vector_38">
<path d="M553.324 653.396V654.701H558.4V642.447H553.324V648.32M558.4 687.367H553.324V699.078H558.4V687.367Z" fill="#F5F5F5"/>
<path d="M553.324 653.396V654.701H558.4V642.447H553.324V648.32M558.4 687.367H553.324V699.078H558.4V687.367Z" stroke="black" stroke-width="2" stroke-miterlimit="10" stroke-linecap="square"/>
</g>
<g id="Vector_39">
<path d="M553.324 699.986V699.079H558.4V687.333H553.324V694.91M558.4 731.71H553.324V738.961H558.4V731.71Z" fill="#F5F5F5"/>
<path d="M553.324 699.986V699.079H558.4V687.333H553.324V694.91M558.4 731.71H553.324V738.961H558.4V731.71Z" stroke="black" stroke-width="2" stroke-miterlimit="10" stroke-linecap="square"/>
</g>
<g id="Vector_40">
<path d="M558.4 738.959V731.708H553.324V738.959M558.4 609.817V611.267H553.324V609.817H558.4ZM558.4 642.447V640.997H553.324V642.447H558.4ZM558.4 611.267H588.13ZM588.13 611.267L587.694 616.416L586.353 621.455L584.178 626.168L581.205 630.374L577.507 634.036L573.265 637.009L568.552 639.184L563.584 640.562L558.4 640.997M558.4 654.738V656.188H553.324V654.738H558.4ZM558.4 687.368V685.918H553.324V687.368H558.4ZM558.4 656.188H588.13ZM588.13 656.188L587.694 661.336L586.353 666.303L584.178 671.016L581.205 675.258L577.507 678.92L573.265 681.893L568.552 684.068L563.584 685.446L558.4 685.918M558.4 699.078V700.529H553.324V699.078H558.4ZM558.4 731.708V730.258H553.324V731.708H558.4ZM558.4 700.529H588.13ZM588.13 700.529L587.694 705.713L586.353 710.716L584.178 715.43L581.205 719.635L577.507 723.297L573.265 726.27L568.552 728.445L563.584 729.823L558.4 730.258M631.092 609.164L624.566 604.089H621.231V609.164H631.092Z" fill="#F5F5F5"/>
<path d="M558.4 738.959V731.708M558.4 731.708H553.324M558.4 731.708V730.258M553.324 731.708V738.959M553.324 731.708V730.258H558.4M558.4 611.267V609.817H553.324V611.267H558.4ZM558.4 611.267H588.13L587.694 616.416L586.353 621.455L584.178 626.168L581.205 630.374L577.507 634.036L573.265 637.009L568.552 639.184L563.584 640.562L558.4 640.997M558.4 640.997V642.447H553.324V640.997H558.4ZM558.4 656.188V654.738H553.324V656.188H558.4ZM558.4 656.188H588.13L587.694 661.336L586.353 666.303L584.178 671.016L581.205 675.258L577.507 678.92L573.265 681.893L568.552 684.068L563.584 685.446L558.4 685.918M558.4 685.918V687.368H553.324V685.918H558.4ZM558.4 700.529V699.078H553.324V700.529H558.4ZM558.4 700.529H588.13L587.694 705.713L586.353 710.716L584.178 715.43L581.205 719.635L577.507 723.297L573.265 726.27L568.552 728.445L563.584 729.823L558.4 730.258M631.092 609.164L624.566 604.089H621.231V609.164H631.092Z" stroke="black" stroke-width="2" stroke-miterlimit="10" stroke-linecap="square"/>
</g>
<g id="Vector_41">
<path d="M624.586 604.089H621.251V609.164H624.586M584.995 609.164V604.089H558.42V609.164H584.995Z" fill="#F5F5F5"/>
<path d="M624.586 604.089H621.251V609.164H624.586M584.995 609.164V604.089H558.42V609.164H584.995Z" stroke="black" stroke-width="2" stroke-miterlimit="10" stroke-linecap="square"/>
</g>
<g id="Vector_42">
<path d="M558.42 609.165H584.995V604.09H558.42M621.251 609.165H619.801V604.09H621.251V609.165ZM584.995 609.165H586.446V604.09H584.995V609.165ZM619.801 609.165V642.52ZM619.801 642.52L614 642.013L608.38 640.49L603.123 638.061L598.374 634.725L594.241 630.592L590.905 625.843L588.44 620.586L586.953 614.966L586.446 609.165M539.023 604.09H544.099V523.24H539.023V604.09ZM544.099 604.09V523.24ZM539.023 523.24V604.09ZM631.113 523.24H624.587V604.09L631.113 609.165V523.24ZM624.587 523.24V604.09ZM631.113 609.165V523.24ZM624.587 738.96H631.113V692.843H624.587V738.96ZM631.113 738.96V713.582Z" fill="#F5F5F5"/>
<path d="M558.42 609.165H584.995M584.995 609.165V604.09M584.995 609.165H586.446M584.995 604.09H558.42M584.995 604.09H586.446V609.165M619.801 609.165H621.251V604.09H619.801V609.165ZM619.801 609.165V642.52L614 642.013L608.38 640.49L603.123 638.061L598.374 634.725L594.241 630.592L590.905 625.843L588.44 620.586L586.953 614.966L586.446 609.165M631.113 738.96H624.587V692.843H631.113V738.96ZM631.113 738.96V713.582M539.023 604.09H544.099V523.24H539.023V604.09ZM631.113 523.24H624.587V604.09L631.113 609.165V523.24Z" stroke="black" stroke-width="2" stroke-miterlimit="10" stroke-linecap="square"/>
</g>
<g id="Vector_43">
<path d="M631.085 709.231V692.843H624.559V738.96M624.559 656.551H631.085V609.165H624.559V656.551Z" fill="#F5F5F5"/>
<path d="M631.085 709.231V692.843H624.559V738.96M624.559 656.551H631.085V609.165H624.559V656.551Z" stroke="black" stroke-width="2" stroke-miterlimit="10" stroke-linecap="square"/>
</g>
<g id="Vector_44">
<path d="M624.559 609.165V656.587H631.085V656.297M631.085 632.369V609.165ZM631.085 651.947V636.719Z" fill="#F5F5F5"/>
<path d="M624.559 609.165V656.587H631.085V656.297M631.085 632.369V609.165M631.085 651.947V636.719" stroke="black" stroke-width="2" stroke-miterlimit="10" stroke-linecap="square"/>
</g>
<g id="Vector_45">
<path d="M624.564 656.551V658.002H631.09V656.551H624.564ZM624.564 692.807V691.357H631.09V692.807H624.564ZM624.564 658.002H591.209Z" fill="#F5F5F5"/>
<path d="M624.564 658.002V656.551H631.09V658.002H624.564ZM624.564 658.002H591.209M624.564 692.807V691.357H631.09V692.807H624.564Z" stroke="black" stroke-width="2" stroke-miterlimit="10" stroke-linecap="square"/>
</g>
<g id="Vector_46">
<path d="M591.21 657.998L591.717 663.799L593.24 669.455L595.705 674.712L599.041 679.462L603.138 683.595L607.887 686.93L613.18 689.359L618.8 690.882L624.601 691.39M631.091 632.365V636.716H699.976V632.365H631.091ZM631.091 636.716H699.976ZM699.976 632.365H631.091ZM699.976 656.294V651.944H631.091V656.294H699.976ZM699.976 651.944H631.091ZM631.091 656.294H699.976ZM699.976 713.578V709.227H631.091V713.578H699.976ZM699.976 709.227H631.091ZM631.091 713.578H699.976ZM553.323 699.982V694.906H502.383V699.982H553.323ZM553.323 694.906H502.383ZM502.383 699.982H553.323ZM502.383 648.318V653.394H553.323V648.318H502.383ZM502.383 653.394H553.323ZM553.323 648.318H502.383ZM137.869 194.796V209.661H151.356V194.796H137.869Z" fill="#F5F5F5"/>
<path d="M591.21 657.998L591.717 663.799L593.24 669.455L595.705 674.712L599.041 679.462L603.138 683.595L607.887 686.93L613.18 689.359L618.8 690.882L624.601 691.39M631.091 632.365V636.716H699.976V632.365H631.091ZM699.976 656.294V651.944H631.091V656.294H699.976ZM699.976 713.578V709.227H631.091V713.578H699.976ZM553.323 699.982V694.906H502.383V699.982H553.323ZM502.383 648.318V653.394H553.323V648.318H502.383ZM137.869 194.796V209.661H151.356V194.796H137.869Z" stroke="black" stroke-width="2" stroke-miterlimit="10" stroke-linecap="square"/>
</g>
<g id="Vector_47">
<path d="M137.869 209.661H151.356V194.796H137.869M151.356 194.796H223.904ZM151.356 209.661H223.904ZM223.904 194.796V209.661H224.883V194.796H223.904Z" fill="#F5F5F5"/>
<path d="M137.869 209.661H151.356M151.356 209.661V194.796M151.356 209.661H223.904M151.356 194.796H137.869M151.356 194.796H223.904M223.904 194.796V209.661M223.904 194.796H224.883V209.661H223.904" stroke="black" stroke-width="2" stroke-miterlimit="10" stroke-linecap="square"/>
</g>
<g id="Vector_48">
<path d="M224.851 194.796H223.836V209.661H224.851" fill="#F5F5F5"/>
<path d="M224.851 194.796H223.836V209.661H224.851" stroke="black" stroke-width="2" stroke-miterlimit="10" stroke-linecap="square"/>
</g>
<g id="Vector_49">
<path d="M223.904 194.799H222.454V209.664H223.904V194.799ZM151.393 194.799H152.843V209.664H151.393V194.799ZM222.454 194.799V156.368ZM152.843 194.799V163.619ZM222.454 156.368L216.435 156.839L210.562 158.253L204.978 160.537L199.83 163.692L195.262 167.607L191.346 172.212L188.192 177.36L185.872 182.907L184.494 188.781L183.986 194.799" fill="#F5F5F5"/>
<path d="M222.454 194.799H223.904V209.664H222.454V194.799ZM222.454 194.799V156.368L216.435 156.839L210.562 158.253L204.978 160.537L199.83 163.692L195.262 167.607L191.346 172.212L188.192 177.36L185.872 182.907L184.494 188.781L183.986 194.799M152.843 194.799H151.393V209.664H152.843V194.799ZM152.843 194.799V163.619" stroke="black" stroke-width="2" stroke-miterlimit="10" stroke-linecap="square"/>
</g>
<g id="Vector_50">
<path d="M152.812 163.618L158.215 164.09L163.472 165.504L168.366 167.788L172.826 170.906L176.669 174.749L179.787 179.208L182.071 184.139L183.521 189.396L183.956 194.798M224.852 209.663H239.717V86.9014H224.852V209.663ZM224.852 86.9014V194.798Z" fill="#F5F5F5"/>
<path d="M152.812 163.618L158.215 164.09L163.472 165.504L168.366 167.788L172.826 170.906L176.669 174.749L179.787 179.208L182.071 184.139L183.521 189.396L183.956 194.798M224.852 86.9014H239.717V209.663H224.852V86.9014ZM224.852 86.9014V194.798" stroke="black" stroke-width="2" stroke-miterlimit="10" stroke-linecap="square"/>
</g>
<g id="Vector_51">
<path d="M224.898 209.662H239.763V86.9001M224.898 72.0354V86.9001H328.372V72.0354H224.898Z" fill="#F5F5F5"/>
<path d="M224.898 209.662H239.763V86.9001M224.898 72.0354V86.9001H328.372V72.0354H224.898Z" stroke="black" stroke-width="2" stroke-miterlimit="10" stroke-linecap="square"/>
</g>
<g id="Vector_52">
<path d="M239.763 86.9001H328.372V72.0354H224.898V86.9001M328.372 72.0354H480.646ZM328.372 86.9001H480.646ZM480.646 72.0354V86.9001H574.185V72.0354H480.646Z" fill="#F5F5F5"/>
<path d="M239.763 86.9001H328.372M328.372 86.9001V72.0354M328.372 86.9001H480.646M328.372 72.0354H224.898V86.9001M328.372 72.0354H480.646M480.646 72.0354V86.9001M480.646 72.0354H574.185V86.9001H480.646" stroke="black" stroke-width="2" stroke-miterlimit="10" stroke-linecap="square"/>
</g>
<g id="Vector_53">
<path d="M480.598 72.0354V86.9001H574.137V72.0354H480.598ZM574.137 72.0354H650.274ZM574.137 86.9001H650.274ZM650.274 72.0354V86.9001H682.215V72.0354H650.274Z" fill="#F5F5F5"/>
<path d="M574.137 86.9001H480.598V72.0354H574.137M574.137 86.9001V72.0354M574.137 86.9001H650.274M574.137 72.0354H650.274M650.274 72.0354V86.9001M650.274 72.0354H682.215V86.9001H650.274" stroke="black" stroke-width="2" stroke-miterlimit="10" stroke-linecap="square"/>
</g>
<g id="Vector_54">
<path d="M650.332 72.0354V86.9001H682.273V72.0354H650.332ZM682.273 72.0354H892.556ZM682.273 86.9001H892.556ZM892.556 72.0354V86.9001H1020.36L1035.22 72.0354H892.556Z" fill="#F5F5F5"/>
<path d="M682.273 86.9001H650.332V72.0354H682.273M682.273 86.9001V72.0354M682.273 86.9001H892.556M682.273 72.0354H892.556M892.556 72.0354V86.9001M892.556 72.0354H1035.22L1020.36 86.9001H892.556" stroke="black" stroke-width="2" stroke-miterlimit="10" stroke-linecap="square"/>
</g>
<g id="Vector_55">
<path d="M1035.19 72.0344H892.526V86.8991H1020.33M328.352 72.0344H329.802V86.8991H328.352V72.0344ZM480.626 72.0344H479.175V86.8991H480.626V72.0344ZM329.802 72.0344H479.175ZM329.802 79.4666H479.175ZM329.802 86.8991H479.175ZM650.302 72.0344H648.852V86.8991H650.302V72.0344ZM574.165 72.0344H575.615V86.8991H574.165V72.0344ZM648.852 72.0344H575.615ZM648.852 79.4666H575.615ZM648.852 86.8991H575.615ZM682.243 72.0344H683.693V86.8991H682.243V72.0344ZM892.526 72.0344H891.076V86.8991H892.526V72.0344ZM683.693 72.0344H891.076ZM683.693 79.4666H891.076ZM683.693 86.8991H891.076ZM123 876.728H137.865V749.217H123V876.728Z" fill="#F5F5F5"/>
<path d="M1035.19 72.0344H892.526M892.526 72.0344V86.8991M892.526 72.0344H891.076M892.526 86.8991H1020.33M892.526 86.8991H891.076M329.802 72.0344H328.352V86.8991H329.802M329.802 72.0344V86.8991M329.802 72.0344H479.175M329.802 86.8991H479.175M479.175 72.0344H480.626V86.8991H479.175M479.175 72.0344V86.8991M329.802 79.4666H479.175M648.852 72.0344H650.302V86.8991H648.852M648.852 72.0344V86.8991M648.852 72.0344H575.615M648.852 86.8991H575.615M575.615 72.0344H574.165V86.8991H575.615M575.615 72.0344V86.8991M648.852 79.4666H575.615M683.693 72.0344H682.243V86.8991H683.693M683.693 72.0344V86.8991M683.693 72.0344H891.076M683.693 86.8991H891.076M891.076 72.0344V86.8991M683.693 79.4666H891.076M123 876.728H137.865V749.217H123V876.728Z" stroke="black" stroke-width="2" stroke-miterlimit="10" stroke-linecap="square"/>
</g>
<g id="Vector_56">
<path d="M123 876.729H137.865V749.217H123V876.729ZM123 749.217V368.533ZM137.865 749.217V368.533ZM123 368.533H137.865V194.796H123V368.533Z" fill="#F5F5F5"/>
<path d="M137.865 749.217V876.729H123V749.217M137.865 749.217H123M137.865 749.217V368.533M123 749.217V368.533M123 368.533H137.865M123 368.533V194.796H137.865V368.533" stroke="black" stroke-width="2" stroke-miterlimit="10" stroke-linecap="square"/>
</g>
<g id="Vector_57">
<path d="M137.865 194.796H123V368.533H137.865V209.661M123 749.217V747.767H137.865V749.217H123Z" fill="#F5F5F5"/>
<path d="M137.865 194.796H123V368.533H137.865V209.661M123 749.217V747.767H137.865V749.217H123Z" stroke="black" stroke-width="2" stroke-miterlimit="10" stroke-linecap="square"/>
</g>
<g id="Vector_58">
<path d="M123 368.533V369.983H137.865V368.533H123ZM123 747.767V369.983ZM130.432 747.767V369.983ZM137.865 747.767V369.983ZM137.466 978.244H146.53L146.929 876.729H137.865L137.466 978.244Z" fill="#F5F5F5"/>
<path d="M123 369.983V368.533H137.865V369.983M123 369.983H137.865M123 369.983V747.767M137.865 369.983V747.767M130.432 747.767V369.983M137.466 978.244H146.53L146.929 876.729H137.865L137.466 978.244Z" stroke="black" stroke-width="2" stroke-miterlimit="10" stroke-linecap="square"/>
</g>
<g id="Vector_59">
<path d="M137.876 876.732L137.514 978.247H146.578L146.94 876.732M495.139 876.732V876.369H393.986V876.732H495.139ZM495.139 876.369H393.986ZM393.986 876.732H495.176ZM490.245 450.003L493.87 446.377V441.301H490.245V450.003Z" fill="#F5F5F5"/>
<path d="M137.876 876.732L137.514 978.247H146.578L146.94 876.732M393.986 876.732V876.369H495.139V876.732H393.986ZM393.986 876.732H495.176M490.245 450.003L493.87 446.377V441.301H490.245V450.003Z" stroke="black" stroke-width="2" stroke-miterlimit="10" stroke-linecap="square"/>
</g>
<g id="Vector_60">
<path d="M493.852 446.376V441.3H490.227V450.002M490.227 405.081H493.852V86.9014H490.227V405.081Z" fill="#F5F5F5"/>
<path d="M493.852 446.376V441.3H490.227V450.002M490.227 405.081H493.852V86.9014H490.227V405.081Z" stroke="black" stroke-width="2" stroke-miterlimit="10" stroke-linecap="square"/>
</g>
<g id="Vector_61">
<path d="M490.232 405.081H493.858V86.9014H490.232V405.081ZM490.232 441.336V439.886H493.858V441.336H490.232ZM490.232 405.081V406.531H493.858V405.081H490.232ZM490.232 439.886L456.877 439.85Z" fill="#F5F5F5"/>
<path d="M490.232 405.081H493.858M490.232 405.081V86.9014H493.858V405.081M490.232 405.081V406.531H493.858V405.081M490.232 439.886V441.336H493.858V439.886H490.232ZM490.232 439.886L456.877 439.85" stroke="black" stroke-width="2" stroke-miterlimit="10" stroke-linecap="square"/>
</g>
<g id="Vector_62">
<path d="M456.877 439.848L457.385 434.047L458.907 428.464L461.373 423.207L464.708 418.421L468.805 414.324L473.555 410.989L478.848 408.523L484.468 407.037L490.268 406.493M1020.33 450V446.374H1015.36V450H1020.33Z" fill="#F5F5F5"/>
<path d="M456.877 439.848L457.385 434.047L458.907 428.464L461.373 423.207L464.708 418.421L468.805 414.324L473.555 410.989L478.848 408.523L484.468 407.037L490.268 406.493M1020.33 450V446.374H1015.36V450H1020.33Z" stroke="black" stroke-width="2" stroke-miterlimit="10" stroke-linecap="square"/>
</g>
<g id="Vector_63">
<path d="M1020.3 450.003V446.377H1015.34V450.003H1020.3ZM1015.34 450.003H968.206ZM1015.34 446.377H968.206ZM968.206 450.003V446.377H912.408V450.003H968.242" fill="#F5F5F5"/>
<path d="M1015.34 446.377H1020.3V450.003H1015.34M1015.34 446.377V450.003M1015.34 446.377H968.206M1015.34 450.003H968.206V446.377M968.206 446.377H912.408V450.003H968.242" stroke="black" stroke-width="2" stroke-miterlimit="10" stroke-linecap="square"/>
</g>
<g id="Vector_64">
<path d="M913.982 446.377H912.423V450.003H968.257V446.377H920.871M912.423 450.003H850.789ZM912.423 446.377H850.789ZM850.789 450.003V446.377H493.852L490.227 450.003H850.789ZM490.227 450.003H539.353Z" fill="#F5F5F5"/>
<path d="M913.982 446.377H912.423M912.423 446.377V450.003M912.423 446.377H850.789M912.423 450.003H968.257V446.377H920.871M912.423 450.003H850.789M850.789 450.003V446.377M850.789 450.003H490.227M850.789 446.377H493.852L490.227 450.003M490.227 450.003H539.353" stroke="black" stroke-width="2" stroke-miterlimit="10" stroke-linecap="square"/>
</g>
<g id="Vector_65">
<path d="M542.964 449.999H850.775V446.374H493.838M1015.34 446.374H1013.89V449.999H1015.34V446.374ZM968.207 446.374H969.657V449.999H968.207V446.374ZM1013.89 446.374V415.194ZM969.657 446.374V433.322ZM1013.89 415.194L1008.49 415.665L1003.23 417.079L998.299 419.363L993.876 422.481L990.032 426.324L986.915 430.784L984.594 435.715L983.216 440.972L982.709 446.374" fill="#F5F5F5"/>
<path d="M542.964 449.999H850.775V446.374H493.838M1013.89 446.374H1015.34V449.999H1013.89V446.374ZM1013.89 446.374V415.194L1008.49 415.665L1003.23 417.079L998.299 419.363L993.876 422.481L990.032 426.324L986.915 430.784L984.594 435.715L983.216 440.972L982.709 446.374M969.657 446.374H968.207V449.999H969.657V446.374ZM969.657 446.374V433.322" stroke="black" stroke-width="2" stroke-miterlimit="10" stroke-linecap="square"/>
</g>
<g id="Vector_66">
<path d="M969.685 433.324L973.093 433.759L976.211 435.064L978.93 437.131L980.997 439.85L982.302 443.004L982.737 446.376M850.803 450.002H852.253V446.376H850.803V450.002ZM912.437 450.002H910.987V446.376H912.437V450.002ZM852.253 450.002V484.807ZM910.987 450.002V473.93ZM852.253 484.807L857.691 484.372L863.021 483.103L868.097 481L872.737 478.172L876.871 474.619L880.424 470.45L883.288 465.809L885.354 460.733L886.659 455.44L887.058 450.002M910.987 473.93L906.346 473.459L901.851 472.118L897.717 469.906L894.092 466.933L891.119 463.307L888.907 459.174L887.53 454.679L887.058 450.002M920.885 86.9014H913.996V446.376H920.885V86.9014ZM920.885 446.376V182.616Z" fill="#F5F5F5"/>
<path d="M969.685 433.324L973.093 433.759L976.211 435.064L978.93 437.131L980.997 439.85L982.302 443.004L982.737 446.376M852.253 450.002H850.803V446.376H852.253V450.002ZM852.253 450.002V484.807L857.691 484.372L863.021 483.103L868.097 481L872.737 478.172L876.871 474.619L880.424 470.45L883.288 465.809L885.354 460.733L886.659 455.44L887.058 450.002L887.53 454.679L888.907 459.174L891.119 463.307L894.092 466.933L897.717 469.906L901.851 472.118L906.346 473.459L910.987 473.93V450.002M910.987 450.002H912.437V446.376H910.987V450.002ZM920.885 446.376H913.996V86.9014H920.885V446.376ZM920.885 446.376V182.616" stroke="black" stroke-width="2" stroke-miterlimit="10" stroke-linecap="square"/>
</g>
<g id="Vector_67">
<path d="M920.853 178.991V86.9014H913.965V446.376M920.853 178.991V182.616H945.58V178.991H920.853Z" fill="#F5F5F5"/>
<path d="M920.853 178.991V86.9014H913.965V446.376M920.853 178.991V182.616H945.58V178.991H920.853Z" stroke="black" stroke-width="2" stroke-miterlimit="10" stroke-linecap="square"/>
</g>
<g id="Vector_68">
<path d="M920.91 182.618H945.637V178.992H920.91M945.637 178.992H1000.02ZM945.637 182.618H1000.02ZM1000.02 178.992V182.618H1020.36V178.992H1000.02Z" fill="#F5F5F5"/>
<path d="M920.91 182.618H945.637M945.637 182.618V178.992M945.637 182.618H1000.02M945.637 178.992H920.91M945.637 178.992H1000.02M1000.02 178.992V182.618M1000.02 178.992H1020.36V182.618H1000.02" stroke="black" stroke-width="2" stroke-miterlimit="10" stroke-linecap="square"/>
</g>
<g id="Vector_69">
<path d="M1000 178.992V182.618H1020.34V178.992H1000ZM945.619 178.992H947.069V182.618H945.619V178.992ZM1000 178.992H998.552V182.618H1000V178.992Z" fill="#F5F5F5"/>
<path d="M1000 178.992V182.618M1000 178.992H1020.34V182.618H1000M1000 178.992H998.552V182.618H1000M945.619 178.992H947.069V182.618H945.619V178.992Z" stroke="black" stroke-width="2" stroke-miterlimit="10" stroke-linecap="square"/>
</g>
<g id="Vector_70">
<path d="M945.615 178.992H999.999V182.618H945.615M542.997 450.003H539.371V454.354H542.997V450.003Z" fill="#F5F5F5"/>
<path d="M945.615 178.992H999.999V182.618H945.615M542.997 450.003H539.371V454.354H542.997V450.003Z" stroke="black" stroke-width="2" stroke-miterlimit="10" stroke-linecap="square"/>
</g>
<g id="Vector_71">
<path d="M539.385 450.002V454.352H543.01V450.002M543.01 454.352V515.987ZM539.385 454.352V515.987ZM543.01 515.987H539.385ZM543.01 515.987V514.537H539.385V515.987H543.01ZM543.01 454.352V455.803H539.385V454.352H543.01ZM543.01 514.537H577.816ZM543.01 455.803H566.939ZM577.816 514.537L577.417 509.098L576.112 503.769L574.045 498.729L571.181 494.089L567.628 489.919L563.495 486.366L558.818 483.502L553.778 481.435L548.485 480.166L543.047 479.731M566.939 455.803L566.504 460.48L565.126 464.939L562.951 469.109L559.942 472.734L556.316 475.707L552.183 477.882L547.687 479.26L543.01 479.731M239.152 325.645L231.901 318.394H224.541V325.645H239.152Z" fill="#F5F5F5"/>
<path d="M539.385 450.002V454.352M539.385 454.352H543.01M539.385 454.352V515.987M539.385 454.352V455.803H543.01M543.01 454.352V450.002M543.01 454.352V515.987M543.01 454.352V455.803M543.01 515.987H539.385M543.01 515.987V514.537M539.385 515.987V514.537H543.01M543.01 514.537H577.816L577.417 509.098L576.112 503.769L574.045 498.729L571.181 494.089L567.628 489.919L563.495 486.366L558.818 483.502L553.778 481.435L548.485 480.166L543.047 479.731M543.01 455.803H566.939L566.504 460.48L565.126 464.939L562.951 469.109L559.942 472.734L556.316 475.707L552.183 477.882L547.687 479.26L543.01 479.731M239.152 325.645L231.901 318.394H224.541V325.645H239.152Z" stroke="black" stroke-width="2" stroke-miterlimit="10" stroke-linecap="square"/>
</g>
<g id="Vector_72">
<path d="M231.88 318.394H224.52V325.645H239.131M224.52 325.645H152.009ZM224.52 318.394H152.009ZM152.009 325.645V318.394H137.869V325.645H152.009Z" fill="#F5F5F5"/>
<path d="M231.88 318.394H224.52M224.52 318.394V325.645M224.52 318.394H152.009M224.52 325.645H239.131M224.52 325.645H152.009M152.009 325.645V318.394M152.009 325.645H137.869V318.394H152.009" stroke="black" stroke-width="2" stroke-miterlimit="10" stroke-linecap="square"/>
</g>
<g id="Vector_73">
<path d="M152.009 325.645V318.394H137.869V325.645H152.009ZM224.52 318.394H223.07V325.645H224.52V318.394ZM152.009 318.394H153.459V325.645H152.009V318.394ZM223.07 318.394V287.214ZM153.459 318.394V279.963ZM223.07 287.214L217.668 287.686L212.411 289.1L207.48 291.384L203.057 294.502L199.214 298.345L196.096 302.804L193.775 307.735L192.398 312.992L191.89 318.394M153.459 279.963L159.478 280.435L165.351 281.848L170.934 284.133L176.083 287.287L180.651 291.202L184.566 295.807L187.721 300.955L190.041 306.502L191.419 312.376L191.89 318.394M239.131 209.663H231.88V318.394L239.131 325.645V209.663Z" fill="#F5F5F5"/>
<path d="M152.009 325.645V318.394M152.009 325.645H137.869V318.394H152.009M152.009 325.645H153.459V318.394M152.009 318.394H153.459M223.07 318.394H224.52V325.645H223.07V318.394ZM223.07 318.394V287.214L217.668 287.686L212.411 289.1L207.48 291.384L203.057 294.502L199.214 298.345L196.096 302.804L193.775 307.735L192.398 312.992L191.89 318.394L191.419 312.376L190.041 306.502L187.721 300.955L184.566 295.807L180.651 291.202L176.083 287.287L170.934 284.133L165.351 281.848L159.478 280.435L153.459 279.963V318.394M239.131 209.663H231.88V318.394L239.131 325.645V209.663Z" stroke="black" stroke-width="2" stroke-miterlimit="10" stroke-linecap="square"/>
</g>
<g id="Vector_74">
<path d="M239.159 325.645V209.627H231.908V318.394" fill="#F5F5F5"/>
<path d="M239.159 325.645V209.627H231.908V318.394" stroke="black" stroke-width="2" stroke-miterlimit="10" stroke-linecap="square"/>
</g>
</g>
<g id="workspacesBackGroup">
<path id="wsB36420" d="M493.838 86.9014V446.376H913.968V86.9014H493.838Z" fill="#F5F5F5" stroke="black" stroke-width="2" stroke-miterlimit="10" stroke-linecap="square"/>
<path id="wsB36415" d="M394.017 876.367H495.17V515.986L137.871 517.109V869.478H394.017V876.367Z" fill="#F5F5F5" stroke="black" stroke-width="2" stroke-miterlimit="10" stroke-linecap="square"/>
<path id="wsB36407" d="M761.585 695.451V633.635H707.201V978.245H1020.3V695.451H761.585Z" fill="#F5F5F5" stroke="black" stroke-width="2" stroke-miterlimit="10" stroke-linecap="square"/>
<path id="wsB36414" d="M490.21 86.9014H240.264V364.076H490.21V86.9014Z" fill="#F5F5F5" stroke="black" stroke-width="2" stroke-miterlimit="10" stroke-linecap="square"/>
<path id="wsB36416" d="M490.24 450.002V364.076H240.293V86.9014H239.749V209.663H239.133V325.645H137.871V517.111L495.134 515.987H539.366V450.002H490.24Z" fill="#F5F5F5" stroke="black" stroke-width="2" stroke-miterlimit="10" stroke-linecap="square"/>
<path id="wsB36422" d="M542.982 450.002V515.987H707.221V627.836H761.604V515.987H1020.32V450.002H542.982Z" fill="#F5F5F5" stroke="black" stroke-width="2" stroke-miterlimit="10" stroke-linecap="square"/>
<g id="wsB36404">
<path d="M768.841 688.203H1020.31V523.24H966.652V585.418H822.463V523.24H768.805V688.203" fill="#F5F5F5"/>
<path d="M768.841 688.203H1020.31V523.24H966.652V585.418H822.463V523.24H768.805V688.203" stroke="black" stroke-width="2" stroke-miterlimit="10" stroke-linecap="square"/>
</g>
<path id="wsB36419" d="M1020.36 446.377V182.617H920.91V446.377H1020.36Z" fill="#F5F5F5" stroke="black" stroke-width="2" stroke-miterlimit="10" stroke-linecap="square"/>
<path id="wsB36406" d="M611.181 858.605H700.007V746.212H502.414V858.605H611.181Z" fill="#F5F5F5" stroke="black" stroke-width="2" stroke-miterlimit="10" stroke-linecap="square"/>
<path id="wsB36417" d="M146.51 978.248H363.5V876.732H146.908L146.51 978.248Z" fill="#F5F5F5" stroke="black" stroke-width="2" stroke-miterlimit="10" stroke-linecap="square"/>
<path id="wsB36418" d="M394 876.732V978.248H495.153V876.732H394Z" fill="#F5F5F5" stroke="black" stroke-width="2" stroke-miterlimit="10" stroke-linecap="square"/>
<path id="wsB36423" d="M231.882 209.663H137.871V318.394H231.882V209.663Z" fill="#F5F5F5" stroke="black" stroke-width="2" stroke-miterlimit="10" stroke-linecap="square"/>
<path id="wsB36405" d="M618.402 978.246H699.978V865.853H618.402V978.246Z" fill="#F5F5F5" stroke="black" stroke-width="2" stroke-miterlimit="10" stroke-linecap="square"/>
<path id="wsB36421" d="M1020.36 178.991V86.9014H920.91V178.991H1020.36Z" fill="#F5F5F5" stroke="black" stroke-width="2" stroke-miterlimit="10" stroke-linecap="square"/>
<path id="wsB36410" d="M624.586 609.165H558.42V738.96H624.586V609.165Z" fill="#F5F5F5" stroke="black" stroke-width="2" stroke-miterlimit="10" stroke-linecap="square"/>
<path id="wsB36409" d="M624.532 523.24H544.045V604.09H624.532V523.24Z" fill="#F5F5F5" stroke="black" stroke-width="2" stroke-miterlimit="10" stroke-linecap="square"/>
<path id="wsB36411" d="M631.074 656.294V709.228H699.96V656.294H631.074Z" fill="#F5F5F5" stroke="black" stroke-width="2" stroke-miterlimit="10" stroke-linecap="square"/>
<path id="wsB36413" d="M502.414 653.396V694.908H553.353V653.396H502.414Z" fill="#F5F5F5" stroke="black" stroke-width="2" stroke-miterlimit="10" stroke-linecap="square"/>
<path id="wsB36408" d="M553.353 609.165H502.414V648.321H553.353V609.165Z" fill="#F5F5F5" stroke="black" stroke-width="2" stroke-miterlimit="10" stroke-linecap="square"/>
<path id="wsB36412" d="M502.414 699.986V738.96H553.353V699.986H502.414Z" fill="#F5F5F5" stroke="black" stroke-width="2" stroke-miterlimit="10" stroke-linecap="square"/>
<path id="wsB45781" d="M631.074 713.581V738.96H699.96V713.581H631.074Z" fill="#F5F5F5" stroke="black" stroke-width="2" stroke-miterlimit="10" stroke-linecap="square"/>
</g>
<g id="workspacesFrontGroup">
<path id="U2_R21" d="M493.838 86.9014V446.376H913.968V86.9014H493.838Z" fill="#F5F5F5" stroke="black" stroke-width="2" stroke-miterlimit="10" stroke-linecap="square"/>
<path id="wsF36415" d="M394.017 876.367H495.17V515.986L137.871 517.109V869.478H394.017V876.367Z" fill="#F5F5F5" stroke="black" stroke-width="2" stroke-miterlimit="10" stroke-linecap="square"/>
<path id="wsF36407" d="M761.585 695.451V633.635H707.201V978.245H1020.3V695.451H761.585Z" fill="#F5F5F5" stroke="black" stroke-width="2" stroke-miterlimit="10" stroke-linecap="square"/>
<path id="wsF36414" d="M490.21 86.9014H240.264V364.076H490.21V86.9014Z" fill="#F5F5F5" stroke="black" stroke-width="2" stroke-miterlimit="10" stroke-linecap="square"/>
<path id="wsF36416" d="M490.24 450.002V364.076H240.293V86.9014H239.749V209.663H239.133V325.645H137.871V517.111L495.134 515.987H539.366V450.002H490.24Z" fill="#F5F5F5" stroke="black" stroke-width="2" stroke-miterlimit="10" stroke-linecap="square"/>
<path id="wsF36422" d="M542.982 450.002V515.987H707.221V627.836H761.604V515.987H1020.32V450.002H542.982Z" fill="#F5F5F5" stroke="black" stroke-width="2" stroke-miterlimit="10" stroke-linecap="square"/>
<g id="wsF36404">
<path d="M768.841 688.203H1020.31V523.24H966.652V585.418H822.463V523.24H768.805V688.203" fill="#F5F5F5"/>
<path d="M768.841 688.203H1020.31V523.24H966.652V585.418H822.463V523.24H768.805V688.203" stroke="black" stroke-width="2" stroke-miterlimit="10" stroke-linecap="square"/>
</g>
<path id="wsF36419" d="M1020.36 446.377V182.617H920.91V446.377H1020.36Z" fill="#F5F5F5" stroke="black" stroke-width="2" stroke-miterlimit="10" stroke-linecap="square"/>
<path id="wsF36406" d="M611.181 858.605H700.007V746.212H502.414V858.605H611.181Z" fill="#F5F5F5" stroke="black" stroke-width="2" stroke-miterlimit="10" stroke-linecap="square"/>
<path id="wsF36417" d="M146.51 978.248H363.5V876.732H146.908L146.51 978.248Z" fill="#F5F5F5" stroke="black" stroke-width="2" stroke-miterlimit="10" stroke-linecap="square"/>
<path id="wsF36418" d="M394 876.732V978.248H495.153V876.732H394Z" fill="#F5F5F5" stroke="black" stroke-width="2" stroke-miterlimit="10" stroke-linecap="square"/>
<path id="wsF36423" d="M231.882 209.663H137.871V318.394H231.882V209.663Z" fill="#F5F5F5" stroke="black" stroke-width="2" stroke-miterlimit="10" stroke-linecap="square"/>
<path id="wsF36405" d="M618.402 978.246H699.978V865.853H618.402V978.246Z" fill="#F5F5F5" stroke="black" stroke-width="2" stroke-miterlimit="10" stroke-linecap="square"/>
<path id="wsF36421" d="M1020.36 178.991V86.9014H920.91V178.991H1020.36Z" fill="#F5F5F5" stroke="black" stroke-width="2" stroke-miterlimit="10" stroke-linecap="square"/>
<path id="wsF36410" d="M624.586 609.165H558.42V738.96H624.586V609.165Z" fill="#F5F5F5" stroke="black" stroke-width="2" stroke-miterlimit="10" stroke-linecap="square"/>
<path id="wsF36409" d="M624.532 523.24H544.045V604.09H624.532V523.24Z" fill="#F5F5F5" stroke="black" stroke-width="2" stroke-miterlimit="10" stroke-linecap="square"/>
<path id="wsF36411" d="M631.074 656.294V709.228H699.96V656.294H631.074Z" fill="#F5F5F5" stroke="black" stroke-width="2" stroke-miterlimit="10" stroke-linecap="square"/>
<path id="wsF36413" d="M502.414 653.396V694.908H553.353V653.396H502.414Z" fill="#F5F5F5" stroke="black" stroke-width="2" stroke-miterlimit="10" stroke-linecap="square"/>
<path id="wsF36408" d="M553.353 609.165H502.414V648.321H553.353V609.165Z" fill="#F5F5F5" stroke="black" stroke-width="2" stroke-miterlimit="10" stroke-linecap="square"/>
<path id="wsF36412" d="M502.414 699.986V738.96H553.353V699.986H502.414Z" fill="#F5F5F5" stroke="black" stroke-width="2" stroke-miterlimit="10" stroke-linecap="square"/>
<path id="wsF45781" d="M631.074 713.581V738.96H699.96V713.581H631.074Z" fill="#F5F5F5" stroke="black" stroke-width="2" stroke-miterlimit="10" stroke-linecap="square"/>
</g>
</g>
<g id="trappa 5" clip-path="url(#clip0_64_223)">
<g id="Frame 5">
<g id="Clip path group">
<mask id="mask0_64_223" style="mask-type:luminance" maskUnits="userSpaceOnUse" x="424" y="926" width="37" height="35">
<g id="clip0_2_215">
<path id="Vector_75" d="M460.781 926H424.586V960.902H460.781V926Z" fill="white"/>
</g>
</mask>
<g mask="url(#mask0_64_223)">
<g id="Frame 2">
<path id="Line 1" d="M431.695 954.439V950.561" stroke="black" stroke-width="1.29268"/>
<path id="Line 2" d="M432.986 954.439V950.561" stroke="black" stroke-width="1.29268"/>
<path id="Line 3" d="M431.695 950.561V947.976" stroke="black" stroke-width="1.29268"/>
<path id="Line 4" d="M432.986 950.561V947.976" stroke="black" stroke-width="1.29268"/>
<path id="Line 5" d="M431.695 947.976V945.39" stroke="black" stroke-width="1.29268"/>
<path id="Line 6" d="M432.986 947.976V945.39" stroke="black" stroke-width="1.29268"/>
<path id="Line 7" d="M432.986 945.391V942.805" stroke="black" stroke-width="1.29268"/>
<path id="Line 9" d="M431.695 945.391V942.805" stroke="black" stroke-width="1.29268"/>
<path id="Line 8" d="M431.695 947.976V945.39" stroke="black" stroke-width="1.29268"/>
<path id="Line 10" d="M433.637 943.451H442.685" stroke="black" stroke-width="1.29268"/>
<path id="Line 12" d="M433.637 944.744H442.685" stroke="black" stroke-width="1.29268"/>
<path id="Line 11" d="M432.986 945.391V942.805" stroke="black" stroke-width="1.29268"/>
<path id="Line 13" d="M440.744 942.805V933.756" stroke="black" stroke-width="1.29268"/>
<path id="Line 14" d="M442.037 942.805V933.756" stroke="black" stroke-width="1.29268"/>
<path id="Line 15" d="M442.684 934.402H451.732" stroke="black" stroke-width="1.29268"/>
<path id="Line 16" d="M442.684 935.695H451.732" stroke="black" stroke-width="1.29268"/>
<path id="Line 19" d="M451.086 933.756V924.707" stroke="black" stroke-width="1.29268"/>
<path id="Line 20" d="M449.791 933.756V924.707" stroke="black" stroke-width="1.29268"/>
</g>
</g>
</g>
<path id="Line 17" d="M431.049 952.5H422" stroke="black" stroke-width="1.29268"/>
<path id="Line 18" d="M431.049 953.793H422" stroke="black" stroke-width="1.29268"/>
<path id="Line 21" d="M451.732 926.647H460.781" stroke="black" stroke-width="1.29268"/>
<path id="Line 22" d="M451.732 927.939H460.781" stroke="black" stroke-width="1.29268"/>
</g>
</g>
<path id="U21" d="M688.136 255.091H692.364V278.205C692.364 280.591 691.801 282.722 690.676 284.597C689.563 286.46 687.989 287.932 685.955 289.011C683.92 290.08 681.534 290.614 678.795 290.614C676.057 290.614 673.67 290.08 671.636 289.011C669.602 287.932 668.023 286.46 666.898 284.597C665.784 282.722 665.227 280.591 665.227 278.205V255.091H669.455V277.864C669.455 279.568 669.83 281.085 670.58 282.415C671.33 283.733 672.398 284.773 673.784 285.534C675.182 286.284 676.852 286.659 678.795 286.659C680.739 286.659 682.409 286.284 683.807 285.534C685.205 284.773 686.273 283.733 687.011 282.415C687.761 281.085 688.136 279.568 688.136 277.864V255.091ZM700.192 290V286.932L711.714 274.318C713.067 272.841 714.18 271.557 715.055 270.466C715.93 269.364 716.578 268.33 716.999 267.364C717.43 266.386 717.646 265.364 717.646 264.295C717.646 263.068 717.351 262.006 716.76 261.108C716.18 260.21 715.385 259.517 714.374 259.028C713.362 258.54 712.226 258.295 710.964 258.295C709.624 258.295 708.453 258.574 707.453 259.131C706.464 259.676 705.697 260.443 705.152 261.432C704.618 262.42 704.351 263.58 704.351 264.909H700.328C700.328 262.864 700.8 261.068 701.743 259.523C702.686 257.977 703.97 256.773 705.595 255.909C707.232 255.045 709.067 254.614 711.101 254.614C713.146 254.614 714.959 255.045 716.538 255.909C718.118 256.773 719.357 257.937 720.254 259.403C721.152 260.869 721.601 262.5 721.601 264.295C721.601 265.58 721.368 266.835 720.902 268.062C720.447 269.278 719.652 270.636 718.516 272.136C717.391 273.625 715.828 275.443 713.828 277.591L705.987 285.977V286.25H722.214V290H700.192ZM741.527 255.091V290H737.3V259.523H737.095L728.572 265.182V260.886L737.3 255.091H741.527Z" fill="black"/>
<rect id="U2_E01" x="184" y="226" width="1" height="1" fill="#F5F5F5"/>
<rect id="U2_01" x="184" y="421" width="1" height="1" fill="#F5F5F5"/>
<rect id="U2_02" x="440" y="421" width="1" height="1" fill="#F5F5F5"/>
<rect id="U2_T02" x="440" y="898" width="1" height="1" fill="#F5F5F5"/>
<rect id="U2_U21" x="534" y="421" width="1" height="1" fill="#F5F5F5"/>
</g>
<defs>
<clipPath id="clip0_64_223">
<rect width="53" height="55.5854" fill="white" transform="translate(422 898)"/>
</clipPath>
</defs>
</svg>
