<svg width="1132" height="1582" viewBox="0 0 1132 1582" fill="none" xmlns="http://www.w3.org/2000/svg">
<g id="U3">
<g id="svgDrawingGroup">
<g id="floorGraphicsGroup">
<path id="Vector" d="M477.494 992.052H586.602V907.675H477.494V992.052ZM586.602 901.856V879.307H477.494V901.856H586.602ZM675.707 535.618H606.605V645.089H675.707V535.618ZM937.383 535.618H804.454V592.172H937.383V535.618ZM341.801 992.052H361.477V890.218H341.837L341.801 992.052Z" fill="#F5F5F5" stroke="black" stroke-width="2" stroke-miterlimit="10" stroke-linecap="square"/>
<path id="Vector_2" d="M997.02 97.9082H199.079H111.793V206.143V882.938H368.378V812.6H477.486V872.027H675.698V649.448H600.05V535.612V528.338H682.972V531.066H737.526V528.338H997.02V97.9082Z" fill="#F5F5F5" stroke="black" stroke-width="2" stroke-miterlimit="10" stroke-linecap="square"/>
<path id="Vector_3" d="M1012 83L997.088 97.9112V734.191H1012V83Z" fill="#F5F5F5" stroke="black" stroke-width="2" stroke-miterlimit="10" stroke-linecap="square"/>
<g id="Vector_4">
<path d="M997.088 97.9112V734.191H1012V83M1012 734.191V963.317ZM997.088 734.191V963.317ZM1012 963.317H997.088V991.503H1012V963.317Z" fill="#F5F5F5"/>
<path d="M997.088 97.9112V734.191M997.088 734.191H1012M997.088 734.191V963.317M1012 734.191V83M1012 734.191V963.317M1012 963.317H997.088M1012 963.317V991.503H997.088V963.317" stroke="black" stroke-width="2" stroke-miterlimit="10" stroke-linecap="square"/>
</g>
<g id="Vector_5">
<path d="M1012 963.32H997.088V991.506H1012V963.32ZM1012 991.506V1067.88ZM997.088 991.506V1067.88ZM1012 1067.88H997.088V1127.89H1012V1067.88Z" fill="#F5F5F5"/>
<path d="M997.088 991.506V963.32H1012V991.506M997.088 991.506H1012M997.088 991.506V1067.88M1012 991.506V1067.88M1012 1067.88H997.088M1012 1067.88V1127.89H997.088V1067.88" stroke="black" stroke-width="2" stroke-miterlimit="10" stroke-linecap="square"/>
</g>
<g id="Vector_6">
<path d="M1012 1067.88H997.088V1127.89H1012V1067.88ZM1012 1127.89V1357.02ZM997.088 1127.89V1357.02ZM1012 1357.02H997.088V1459.4H1012V1357.02Z" fill="#F5F5F5"/>
<path d="M997.088 1127.89V1067.88H1012V1127.89M997.088 1127.89H1012M997.088 1127.89V1357.02M1012 1127.89V1357.02M1012 1357.02H997.088M1012 1357.02V1459.4H997.088V1357.02" stroke="black" stroke-width="2" stroke-miterlimit="10" stroke-linecap="square"/>
</g>
<g id="Vector_7">
<path d="M997.02 1457.58V1459.39H1011.93V1357.01H997.02V1442.66M1011.93 963.318V961.863H997.02V963.318H1011.93ZM1011.93 734.192V735.647H997.02V734.192H1011.93ZM1011.93 961.863V735.647ZM1004.48 961.863V735.647ZM997.02 961.863V735.647ZM997.02 991.504V992.959H1011.93V991.504H997.02ZM997.02 1067.88V1066.42H1011.93V1067.88H997.02ZM997.02 992.959V1066.42ZM1004.48 992.959V1066.42ZM1011.93 992.959V1066.42ZM1011.93 1357.01V1355.56H997.02V1357.01H1011.93ZM1011.93 1127.89V1129.34H997.02V1127.89H1011.93ZM1011.93 1355.56V1129.34ZM1004.48 1355.56V1129.34ZM997.02 1355.56V1129.34ZM111.793 882.942V890.216H361.431L368.705 882.942H111.793Z" fill="#F5F5F5"/>
<path d="M997.02 1457.58V1459.39H1011.93V1357.01M1011.93 1357.01H997.02M1011.93 1357.01V1355.56M997.02 1357.01V1442.66M997.02 1357.01V1355.56M1011.93 961.863V963.318H997.02V961.863M1011.93 961.863H997.02M1011.93 961.863V735.647M997.02 961.863V735.647M1011.93 735.647V734.192H997.02V735.647M1011.93 735.647H997.02M1004.48 961.863V735.647M997.02 992.959V991.504H1011.93V992.959M997.02 992.959H1011.93M997.02 992.959V1066.42M1011.93 992.959V1066.42M997.02 1066.42V1067.88H1011.93V1066.42M997.02 1066.42H1011.93M1004.48 992.959V1066.42M1011.93 1355.56H997.02M1011.93 1355.56V1129.34M997.02 1355.56V1129.34M1011.93 1129.34V1127.89H997.02V1129.34M1011.93 1129.34H997.02M1004.48 1355.56V1129.34M111.793 882.942V890.216H361.431L368.705 882.942H111.793Z" stroke="black" stroke-width="2" stroke-miterlimit="10" stroke-linecap="square"/>
</g>
<g id="Vector_8">
<path d="M368.742 882.946H111.793V890.22H338.155M341.756 890.22H361.431ZM368.742 882.946L361.431 890.22L361.468 992.053H368.742V882.946ZM361.431 890.22L361.468 992.053ZM368.742 992.053V882.946ZM682.935 528.346L675.662 535.62V992.053H682.935V528.346ZM675.662 879.309V992.053ZM682.935 694.553V528.346ZM675.662 535.62V645.091ZM675.662 649.455V872.035ZM682.935 992.053V694.917ZM470.175 992.053H477.449V812.608H470.175V992.053ZM477.449 992.053V907.677ZM470.175 813.008V992.053ZM477.449 901.858V879.309Z" fill="#F5F5F5"/>
<path d="M368.742 882.946H111.793V890.22H338.155M368.742 882.946L361.431 890.22M368.742 882.946V992.053H361.468L361.431 890.22M341.756 890.22H361.431M682.935 528.346L675.662 535.62M682.935 528.346V992.053M682.935 528.346V694.553M675.662 535.62V992.053M675.662 535.62V645.091M675.662 992.053H682.935M675.662 992.053V879.309M682.935 992.053V694.917M675.662 649.455V872.035M470.175 992.053H477.449M470.175 992.053V812.608H477.449V992.053M470.175 992.053V813.008M477.449 992.053V907.677M477.449 901.858V879.309" stroke="black" stroke-width="2" stroke-miterlimit="10" stroke-linecap="square"/>
</g>
<g id="Vector_9">
<path d="M477.502 872.035V812.608H470.229M737.542 528.346L744.816 535.62H997.073V528.346H737.542ZM744.816 535.62H798.643Z" fill="#F5F5F5"/>
<path d="M477.502 872.035V812.608H470.229M744.816 535.62L737.542 528.346H997.073V535.62H744.816ZM744.816 535.62H798.643" stroke="black" stroke-width="2" stroke-miterlimit="10" stroke-linecap="square"/>
</g>
<g id="Vector_10">
<path d="M943.199 535.62H997.062V528.346H737.531M804.451 535.62H937.38ZM997.062 708.373V701.1H744.805L737.531 708.373H997.062Z" fill="#F5F5F5"/>
<path d="M943.199 535.62H997.062V528.346H737.531M804.451 535.62H937.38M997.062 708.373V701.1H744.805L737.531 708.373H997.062Z" stroke="black" stroke-width="2" stroke-miterlimit="10" stroke-linecap="square"/>
</g>
<g id="Vector_11">
<path d="M737.531 708.373H997.062V701.1H744.805" fill="#F5F5F5"/>
<path d="M737.531 708.373H997.062V701.1H744.805" stroke="black" stroke-width="2" stroke-miterlimit="10" stroke-linecap="square"/>
</g>
<g id="Vector_12">
<path d="M737.514 708.373L744.788 701.1V535.62L737.514 528.346V708.373ZM744.788 701.1V535.62ZM737.514 694.953V708.373ZM737.514 528.346V694.553ZM586.582 872.035L593.856 879.309H675.687V872.035H586.582ZM593.856 879.309H675.687ZM675.687 872.035H586.582Z" fill="#F5F5F5"/>
<path d="M737.514 708.373L744.788 701.1V535.62L737.514 528.346M737.514 708.373V528.346M737.514 708.373V694.953M737.514 528.346V694.553M586.582 872.035L593.856 879.309H675.687V872.035H586.582Z" stroke="black" stroke-width="2" stroke-miterlimit="10" stroke-linecap="square"/>
</g>
<g id="Vector_13">
<path d="M586.625 992.049H593.898V879.304L586.625 872.03V992.049ZM593.898 992.049V879.304ZM586.625 907.672V992.049ZM586.625 879.304V901.853ZM477.517 901.853V907.672H586.625V901.853H477.517ZM477.517 907.672H586.625ZM586.625 901.853H477.517ZM477.517 872.03V879.304H586.625V872.03H477.517ZM477.517 879.304H586.625ZM586.625 872.03H477.517ZM943.225 597.988L937.406 592.169H804.476L798.657 597.988H943.225ZM937.406 592.169H804.476ZM798.657 597.988H943.225ZM798.657 597.988L804.476 592.169V535.615H798.657V597.988ZM804.476 592.169V535.615ZM798.657 535.615V597.988ZM943.225 535.615H937.406V592.169L943.225 597.988V535.615ZM937.406 535.615V592.169ZM943.225 597.988V535.615ZM341.823 890.215H338.186V992.049H341.823V890.215ZM338.186 890.215V992.049ZM341.823 992.049V890.215ZM606.628 645.086L600.081 649.451H675.729V645.086H606.628ZM600.081 649.451H675.729ZM675.729 645.086H606.628ZM199.147 83V97.9112H997.088L1012 83H199.147ZM199.147 97.9112H997.088ZM1012 83H199.147ZM96.9492 1361.38H111.861V1333.59H96.9492V1361.38Z" fill="#F5F5F5"/>
<path d="M586.625 992.049H593.898V879.304L586.625 872.03M586.625 992.049V872.03M586.625 992.049V907.672M586.625 872.03V879.304M586.625 872.03H477.517V879.304H586.625M586.625 907.672H477.517V901.853H586.625M586.625 907.672V901.853M586.625 879.304V901.853M943.225 597.988L937.406 592.169M943.225 597.988H798.657M943.225 597.988V535.615H937.406V592.169M937.406 592.169H804.476M804.476 592.169L798.657 597.988M804.476 592.169V535.615H798.657V597.988M341.823 890.215H338.186V992.049H341.823V890.215ZM606.628 645.086L600.081 649.451H675.729V645.086H606.628ZM199.147 83V97.9112H997.088L1012 83H199.147ZM96.9492 1361.38H111.861V1333.59H96.9492V1361.38Z" stroke="black" stroke-width="2" stroke-miterlimit="10" stroke-linecap="square"/>
</g>
<g id="Vector_14">
<path d="M111.861 1346.47V1333.6H96.9492V1361.38H111.861M96.9492 1333.6V1104.47ZM111.861 1333.6V1104.47ZM96.9492 1104.47H111.861V987.143H96.9492V1104.47Z" fill="#F5F5F5"/>
<path d="M111.861 1346.47V1333.6M111.861 1333.6H96.9492M111.861 1333.6V1104.47M96.9492 1333.6V1361.38H111.861M96.9492 1333.6V1104.47M96.9492 1104.47H111.861M96.9492 1104.47V987.143H111.861V1104.47" stroke="black" stroke-width="2" stroke-miterlimit="10" stroke-linecap="square"/>
</g>
<g id="Vector_15">
<path d="M96.9492 1104.47H111.861V987.138H96.9492V1104.47ZM96.9492 987.138V925.311ZM111.861 987.138V925.311ZM96.9492 925.311H111.861V206.146H96.9492V925.311Z" fill="#F5F5F5"/>
<path d="M111.861 987.138V1104.47H96.9492V987.138M111.861 987.138H96.9492M111.861 987.138V925.311M96.9492 987.138V925.311M96.9492 925.311H111.861M96.9492 925.311V206.146H111.861V925.311" stroke="black" stroke-width="2" stroke-miterlimit="10" stroke-linecap="square"/>
</g>
<g id="Vector_16">
<path d="M96.9492 206.146V925.311H111.861V206.146M96.9492 1104.47V1105.92H111.861V1104.47H96.9492ZM96.9492 1333.59V1332.14H111.861V1333.59H96.9492ZM96.9492 1105.92V1332.14ZM104.405 1105.92V1332.14ZM111.861 1105.92V1332.14Z" fill="#F5F5F5"/>
<path d="M96.9492 206.146V925.311H111.861V206.146M96.9492 1105.92V1104.47H111.861V1105.92M96.9492 1105.92H111.861M96.9492 1105.92V1332.14M111.861 1105.92V1332.14M96.9492 1332.14V1333.59H111.861V1332.14M96.9492 1332.14H111.861M104.405 1105.92V1332.14" stroke="black" stroke-width="2" stroke-miterlimit="10" stroke-linecap="square"/>
</g>
<g id="Vector_17">
<path d="M96.9145 925.316V926.771H111.826V925.316H96.9145ZM96.9145 987.143V985.689H111.826V987.143H96.9145ZM96.9145 926.771H72.9108ZM96.9145 985.689H62ZM72.9108 926.771L73.3836 931.462L74.7656 935.936L76.9478 940.082L79.9665 943.719L83.6033 946.737L87.7494 948.919L92.2592 950.301L96.9145 950.774M62 985.689L62.4365 980.233L63.7094 974.887L65.8188 969.832L68.6919 965.176L72.2561 960.994L76.4022 957.43L81.0938 954.557L86.1492 952.484L91.4591 951.211L96.9145 950.774M600.046 528.346V535.62H675.694L682.968 528.346H600.046Z" fill="#F5F5F5"/>
<path d="M96.9145 926.771V925.316H111.826V926.771H96.9145ZM96.9145 926.771H72.9108L73.3836 931.462L74.7656 935.936L76.9478 940.082L79.9665 943.719L83.6033 946.737L87.7494 948.919L92.2592 950.301L96.9145 950.774L91.4591 951.211L86.1492 952.484L81.0938 954.557L76.4022 957.43L72.2561 960.994L68.6919 965.176L65.8188 969.832L63.7094 974.887L62.4365 980.233L62 985.689H96.9145M96.9145 985.689V987.143H111.826V985.689H96.9145ZM600.046 528.346V535.62H675.694L682.968 528.346H600.046Z" stroke="black" stroke-width="2" stroke-miterlimit="10" stroke-linecap="square"/>
</g>
<g id="Vector_18">
<path d="M682.989 528.346H600.067V535.62M606.613 535.62H675.715ZM600.067 649.455L606.613 645.091V535.62H600.067V649.455ZM606.613 645.091V535.62ZM600.067 535.62V649.455ZM470.229 992.053V999.327H608.468V992.053H470.265" fill="#F5F5F5"/>
<path d="M682.989 528.346H600.067V535.62M600.067 535.62H606.613M600.067 535.62V649.455L606.613 645.091V535.62M606.613 535.62H675.715M470.229 992.053V999.327H608.468V992.053H470.265" stroke="black" stroke-width="2" stroke-miterlimit="10" stroke-linecap="square"/>
</g>
<g id="Vector_19">
<path d="M470.229 999.327H608.468V992.053H593.92M470.229 992.053V998.963ZM586.61 992.053H477.502ZM608.468 992.053H663.022ZM608.468 999.327H663.022ZM663.022 992.053V999.327H683.025V992.053H663.022Z" fill="#F5F5F5"/>
<path d="M470.229 999.327H608.468M608.468 999.327V992.053M608.468 999.327H663.022M608.468 992.053H593.92M608.468 992.053H663.022M470.229 992.053V998.963M586.61 992.053H477.502M663.022 992.053V999.327M663.022 992.053H683.025V999.327H663.022" stroke="black" stroke-width="2" stroke-miterlimit="10" stroke-linecap="square"/>
</g>
<g id="Vector_20">
<path d="M675.71 992.053H663.017V999.327H683.02V992.053M608.463 992.053H609.918V999.327H608.463V992.053ZM663.017 992.053H661.562V999.327H663.017V992.053Z" fill="#F5F5F5"/>
<path d="M675.71 992.053H663.017M663.017 992.053V999.327M663.017 992.053H661.562V999.327H663.017M663.017 999.327H683.02V992.053M608.463 992.053H609.918V999.327H608.463V992.053Z" stroke="black" stroke-width="2" stroke-miterlimit="10" stroke-linecap="square"/>
</g>
<g id="Vector_21">
<path d="M608.415 992.053H662.969V999.327H608.415M111.793 1346.47V1361.38H354.085V1346.47H111.793ZM111.793 1361.38H224.465Z" fill="#F5F5F5"/>
<path d="M608.415 992.053H662.969V999.327H608.415M111.793 1361.38V1346.47H354.085V1361.38H111.793ZM111.793 1361.38H224.465" stroke="black" stroke-width="2" stroke-miterlimit="10" stroke-linecap="square"/>
</g>
<g id="Vector_22">
<path d="M239.376 1361.38H354.085V1346.47H111.793M997.02 1457.57V1442.66H975.926V1457.57H997.02Z" fill="#F5F5F5"/>
<path d="M239.376 1361.38H354.085V1346.47H111.793M997.02 1457.57V1442.66H975.926V1457.57H997.02Z" stroke="black" stroke-width="2" stroke-miterlimit="10" stroke-linecap="square"/>
</g>
<g id="Vector_23">
<path d="M997.023 1442.66H975.929V1457.57H997.023M975.929 1457.57H899.517ZM975.929 1442.66H899.517ZM899.517 1457.57V1442.66H822.414V1457.57H899.517Z" fill="#F5F5F5"/>
<path d="M997.023 1442.66H975.929M975.929 1442.66V1457.57M975.929 1442.66H899.517M975.929 1457.57H997.023M975.929 1457.57H899.517M899.517 1457.57V1442.66M899.517 1457.57H822.414V1442.66H899.517" stroke="black" stroke-width="2" stroke-miterlimit="10" stroke-linecap="square"/>
</g>
<g id="Vector_24">
<path d="M899.516 1457.57V1442.66H822.413V1457.57H899.516ZM822.413 1457.57H593.287ZM822.413 1442.66H593.287ZM593.287 1457.57V1442.66H533.096V1457.57H593.287Z" fill="#F5F5F5"/>
<path d="M822.413 1442.66H899.516V1457.57H822.413M822.413 1442.66V1457.57M822.413 1442.66H593.287M822.413 1457.57H593.287M593.287 1457.57V1442.66M593.287 1457.57H533.096V1442.66H593.287" stroke="black" stroke-width="2" stroke-miterlimit="10" stroke-linecap="square"/>
</g>
<g id="Vector_25">
<path d="M593.348 1457.57V1442.66H533.157V1457.57H593.348ZM533.157 1457.57H380.406ZM533.157 1442.66H380.406ZM380.406 1457.57V1442.66H224.527V1457.57H380.406Z" fill="#F5F5F5"/>
<path d="M533.157 1442.66H593.348V1457.57H533.157M533.157 1442.66V1457.57M533.157 1442.66H380.406M533.157 1457.57H380.406M380.406 1457.57V1442.66M380.406 1457.57H224.527V1442.66H380.406" stroke="black" stroke-width="2" stroke-miterlimit="10" stroke-linecap="square"/>
</g>
<g id="Vector_26">
<path d="M224.527 1442.67V1457.58H380.406V1442.67H239.439M899.577 1457.58H901.031V1442.67H899.577V1457.58ZM975.952 1457.58H974.497V1442.67H975.952V1457.58ZM901.031 1457.58H974.497ZM901.031 1450.12H974.497ZM901.031 1442.67H974.497ZM593.348 1457.58H594.802V1442.67H593.348V1457.58ZM822.474 1457.58H821.019V1442.67H822.474V1457.58ZM594.802 1457.58H821.019ZM594.802 1450.12H821.019ZM594.802 1442.67H821.019ZM533.157 1457.58H531.702V1442.67H533.157V1457.58ZM380.406 1457.58H381.861V1442.67H380.406V1457.58ZM531.702 1457.58H381.861ZM531.702 1450.12H381.861ZM531.702 1442.67H381.861ZM224.527 1442.67H239.439V1428.12H224.527V1442.67Z" fill="#F5F5F5"/>
<path d="M224.527 1442.67V1457.58H380.406M224.527 1442.67H239.439M224.527 1442.67V1428.12H239.439V1442.67M380.406 1457.58V1442.67M380.406 1457.58H381.861M380.406 1442.67H239.439M380.406 1442.67H381.861M901.031 1457.58H899.577V1442.67H901.031M901.031 1457.58V1442.67M901.031 1457.58H974.497M901.031 1442.67H974.497M974.497 1457.58H975.952V1442.67H974.497M974.497 1457.58V1442.67M901.031 1450.12H974.497M594.802 1457.58H593.348V1442.67H594.802M594.802 1457.58V1442.67M594.802 1457.58H821.019M594.802 1442.67H821.019M821.019 1457.58H822.474V1442.67H821.019M821.019 1457.58V1442.67M594.802 1450.12H821.019M531.702 1457.58H533.157V1442.67H531.702M531.702 1457.58V1442.67M531.702 1457.58H381.861M531.702 1442.67H381.861M381.861 1457.58V1442.67M531.702 1450.12H381.861" stroke="black" stroke-width="2" stroke-miterlimit="10" stroke-linecap="square"/>
</g>
<g id="Vector_27">
<path d="M239.439 1442.66V1428.11H224.527V1442.66M224.527 1428.11V1366.28ZM239.439 1428.11V1366.28ZM224.527 1366.28H239.439V1361.38H224.527V1366.28Z" fill="#F5F5F5"/>
<path d="M239.439 1442.66V1428.11M239.439 1428.11H224.527M239.439 1428.11V1366.28M224.527 1428.11V1442.66M224.527 1428.11V1366.28M224.527 1366.28H239.439M224.527 1366.28V1361.38H239.439V1366.28" stroke="black" stroke-width="2" stroke-miterlimit="10" stroke-linecap="square"/>
</g>
<g id="Vector_28">
<path d="M224.491 1361.38V1366.28H239.402V1361.38M224.491 1366.28V1367.74H239.402V1366.28H224.491ZM224.491 1428.11V1426.66H239.402V1428.11H224.491ZM224.491 1367.74H200.487ZM224.491 1426.66H189.576ZM200.487 1367.74L200.96 1372.43L202.342 1376.9L204.524 1381.09L207.543 1384.72L211.18 1387.71L215.326 1389.89L219.835 1391.27L224.491 1391.74M189.576 1426.66L190.013 1421.2L191.286 1415.86L193.395 1410.8L196.268 1406.15L199.832 1401.96L203.978 1398.4L208.67 1395.53L213.725 1393.45L219.035 1392.18L224.491 1391.74M346.837 1442.66H354.111V1429.02H346.837V1442.66Z" fill="#F5F5F5"/>
<path d="M224.491 1361.38V1366.28M224.491 1366.28H239.402M224.491 1366.28V1367.74M239.402 1366.28V1361.38M239.402 1366.28V1367.74H224.491M224.491 1367.74H200.487L200.96 1372.43L202.342 1376.9L204.524 1381.09L207.543 1384.72L211.18 1387.71L215.326 1389.89L219.835 1391.27L224.491 1391.74L219.035 1392.18L213.725 1393.45L208.67 1395.53L203.978 1398.4L199.832 1401.96L196.268 1406.15L193.395 1410.8L191.286 1415.86L190.013 1421.2L189.576 1426.66H224.491M224.491 1426.66V1428.11H239.402V1426.66H224.491ZM346.837 1442.66H354.111V1429.02H346.837V1442.66Z" stroke="black" stroke-width="2" stroke-miterlimit="10" stroke-linecap="square"/>
</g>
<g id="Vector_29">
<path d="M346.846 1442.66H354.12V1429.02H346.846V1442.66ZM346.846 1429.02V1367.19ZM354.12 1429.02V1367.19ZM346.846 1367.19H354.12V1361.38H346.846V1367.19Z" fill="#F5F5F5"/>
<path d="M354.12 1429.02V1442.66H346.846V1429.02M354.12 1429.02H346.846M354.12 1429.02V1367.19M346.846 1429.02V1367.19M346.846 1367.19H354.12M346.846 1367.19V1361.38H354.12V1367.19" stroke="black" stroke-width="2" stroke-miterlimit="10" stroke-linecap="square"/>
</g>
<g id="Vector_30">
<path d="M346.879 1367.2H354.152V1361.38H346.879V1367.2ZM346.879 1367.2V1368.65H354.152V1367.2H346.879ZM346.879 1429.03V1427.57H354.152V1429.03H346.879ZM346.879 1368.65H322.875ZM346.879 1427.57H311.964ZM322.875 1368.65L323.348 1373.34L324.693 1377.82L326.912 1382L329.894 1385.64L333.531 1388.62L337.677 1390.8L342.187 1392.18L346.879 1392.66M311.964 1427.57L312.4 1422.11L313.673 1416.77L315.783 1411.71L318.62 1407.06L322.184 1402.88L326.366 1399.31L331.022 1396.44L336.113 1394.37L341.423 1393.09L346.879 1392.66M96.9492 83L111.861 97.9112H199.147V83H96.9492ZM111.861 97.9112H199.147ZM199.147 83H96.9492ZM96.9492 206.146H111.861V97.9112L96.9492 83V206.146ZM111.861 206.146V97.9112ZM96.9492 83V206.146ZM368.809 999.323V992.049H161.396V999.323H368.809ZM368.809 998.959V992.049Z" fill="#F5F5F5"/>
<path d="M346.879 1367.2H354.152M346.879 1367.2V1361.38H354.152V1367.2M346.879 1367.2V1368.65M354.152 1367.2V1368.65H346.879M346.879 1368.65H322.875L323.348 1373.34L324.693 1377.82L326.912 1382L329.894 1385.64L333.531 1388.62L337.677 1390.8L342.187 1392.18L346.879 1392.66L341.423 1393.09L336.113 1394.37L331.022 1396.44L326.366 1399.31L322.184 1402.88L318.62 1407.06L315.783 1411.71L313.673 1416.77L312.4 1422.11L311.964 1427.57H346.879M346.879 1427.57V1429.03H354.152V1427.57H346.879ZM96.9492 83L111.861 97.9112M96.9492 83H199.147V97.9112H111.861M96.9492 83V206.146H111.861V97.9112M368.809 992.049V999.323H161.396V992.049H368.809ZM368.809 992.049V998.959" stroke="black" stroke-width="2" stroke-miterlimit="10" stroke-linecap="square"/>
</g>
<g id="Vector_31">
<path d="M338.119 992.053H161.364V999.327H368.742M361.431 992.053H341.792ZM124.995 999.327V992.053H111.793V999.327H124.995Z" fill="#F5F5F5"/>
<path d="M338.119 992.053H161.364V999.327H368.742M361.431 992.053H341.792M124.995 999.327V992.053H111.793V999.327H124.995Z" stroke="black" stroke-width="2" stroke-miterlimit="10" stroke-linecap="square"/>
</g>
<g id="Vector_32">
<path d="M124.995 999.327V992.053H111.793V999.327H124.995ZM124.995 999.327H126.45V992.053H124.995V999.327ZM161.364 999.327H159.91V992.053H161.364V999.327ZM126.45 999.327V1032.79ZM126.45 1032.79L132.269 1032.28L137.87 1030.75L143.143 1028.31L147.944 1024.97L152.054 1020.82L155.4 1016.06L157.873 1010.78L159.364 1005.15L159.91 999.327M542.187 1442.67H548.006V1391.9H542.187V1442.67Z" fill="#F5F5F5"/>
<path d="M124.995 999.327V992.053M124.995 999.327H111.793V992.053H124.995M124.995 999.327H126.45M124.995 992.053H126.45V999.327M126.45 999.327V1032.79L132.269 1032.28L137.87 1030.75L143.143 1028.31L147.944 1024.97L152.054 1020.82L155.4 1016.06L157.873 1010.78L159.364 1005.15L159.91 999.327M159.91 999.327H161.364V992.053H159.91V999.327ZM542.187 1442.67H548.006V1391.9H542.187V1442.67Z" stroke="black" stroke-width="2" stroke-miterlimit="10" stroke-linecap="square"/>
</g>
<path id="Vector_33" d="M542.188 1442.66H548.007V1391.89H542.188V1442.66ZM542.188 1355.52H548.007V1164.69H542.188V1355.52Z" fill="#F5F5F5" stroke="black" stroke-width="2" stroke-miterlimit="10" stroke-linecap="square"/>
<path id="Vector_34" d="M542.188 1355.52H548.007V1164.7H542.188V1355.52ZM542.188 1128.33H548.007V1081.34L542.188 1075.52V1128.33Z" fill="#F5F5F5" stroke="black" stroke-width="2" stroke-miterlimit="10" stroke-linecap="square"/>
<g id="Vector_35">
<path d="M542.19 1075.52V1128.33H548.009V1081.34M542.19 1391.89V1390.44H548.009V1391.89H542.19ZM542.19 1355.52V1356.98H548.009V1355.52H542.19ZM542.19 1390.44H508.73ZM508.73 1390.44L509.24 1384.62L510.767 1379.02L513.24 1373.71L516.586 1368.95L520.696 1364.8L525.46 1361.45L530.77 1359.02L536.408 1357.49L542.19 1356.98M542.19 1164.7V1163.24H548.009V1164.7H542.19ZM542.19 1128.33V1129.78H548.009V1128.33H542.19ZM542.19 1163.24H508.73ZM508.73 1163.24L509.24 1157.42L510.767 1151.82L513.24 1146.51L516.586 1141.75L520.696 1137.6L525.46 1134.25L530.77 1131.82L536.408 1130.29L542.19 1129.78" fill="#F5F5F5"/>
<path d="M542.19 1075.52V1128.33M542.19 1128.33H548.009M542.19 1128.33V1129.78M548.009 1128.33V1081.34M548.009 1128.33V1129.78H542.19M542.19 1390.44V1391.89H548.009V1390.44H542.19ZM542.19 1390.44H508.73L509.24 1384.62L510.767 1379.02L513.24 1373.71L516.586 1368.95L520.696 1364.8L525.46 1361.45L530.77 1359.02L536.408 1357.49L542.19 1356.98M542.19 1356.98V1355.52H548.009V1356.98H542.19ZM542.19 1163.24V1164.7H548.009V1163.24H542.19ZM542.19 1163.24H508.73L509.24 1157.42L510.767 1151.82L513.24 1146.51L516.586 1141.75L520.696 1137.6L525.46 1134.25L530.77 1131.82L536.408 1130.29L542.19 1129.78" stroke="black" stroke-width="2" stroke-miterlimit="10" stroke-linecap="square"/>
</g>
<path id="Vector_36" d="M542.188 1075.52L548.007 1081.34H871.729V1075.52H542.188Z" fill="#F5F5F5" stroke="black" stroke-width="2" stroke-miterlimit="10" stroke-linecap="square"/>
<g id="Vector_37">
<path d="M548.042 1081.34H871.765V1075.52H542.26M908.134 1075.52V1081.34H997.057V1075.52H908.134Z" fill="#F5F5F5"/>
<path d="M548.042 1081.34H871.765V1075.52H542.26M908.134 1075.52V1081.34H997.057V1075.52H908.134Z" stroke="black" stroke-width="2" stroke-miterlimit="10" stroke-linecap="square"/>
</g>
<g id="Vector_38">
<path d="M908.161 1075.52V1081.34H997.084V1075.52H908.161ZM908.161 1075.52H906.706V1081.34H908.161V1075.52ZM871.792 1075.52H873.246V1081.34H871.792V1075.52ZM906.706 1075.52V1042.06ZM906.706 1042.06L900.887 1042.57L895.286 1044.06L889.976 1046.53L885.212 1049.88L881.102 1054.02L877.756 1058.75L875.283 1064.06L873.756 1069.7L873.246 1075.52M368.441 882.943H368.805V812.968L368.441 812.604V882.943ZM368.805 882.943V812.968ZM368.441 812.604V882.943Z" fill="#F5F5F5"/>
<path d="M908.161 1075.52V1081.34M908.161 1075.52H997.084V1081.34H908.161M908.161 1075.52H906.706M908.161 1081.34H906.706V1075.52M906.706 1075.52V1042.06L900.887 1042.57L895.286 1044.06L889.976 1046.53L885.212 1049.88L881.102 1054.02L877.756 1058.75L875.283 1064.06L873.756 1069.7L873.246 1075.52M873.246 1075.52H871.792V1081.34H873.246V1075.52ZM368.441 882.943H368.805V812.968L368.441 812.604V882.943Z" stroke="black" stroke-width="2" stroke-miterlimit="10" stroke-linecap="square"/>
</g>
<g id="Vector_39">
<path d="M368.404 812.642L368.767 813.006H470.237V812.642H368.404ZM368.767 813.006H470.237ZM470.201 812.642H368.404ZM470.201 999.326V998.962H368.731V999.326H470.201ZM470.201 992.052V998.962H368.731V992.052M368.731 999.326H470.237ZM682.961 694.551V694.915H737.515V694.551H682.961ZM682.961 694.915H737.515ZM737.515 694.551H682.961ZM682.961 531.072V531.435H737.515V531.072H682.961ZM682.961 531.435H737.515ZM737.515 531.072H682.961Z" fill="#F5F5F5"/>
<path d="M368.404 812.642L368.767 813.006H470.237V812.642H368.404ZM368.404 812.642H470.201M470.201 998.962V999.326H368.731M470.201 998.962H368.731M470.201 998.962V992.052M368.731 998.962V999.326M368.731 998.962V992.052M368.731 999.326H470.237M682.961 694.551V694.915H737.515V694.551H682.961ZM682.961 531.072V531.435H737.515V531.072H682.961Z" stroke="black" stroke-width="2" stroke-miterlimit="10" stroke-linecap="square"/>
</g>
</g>
<g id="workspacesBackGroup">
<path id="wsB36428" d="M548.016 1081.34V1442.67H997.03V1081.34H548.016Z" fill="#F5F5F5" stroke="black" stroke-width="2" stroke-miterlimit="10" stroke-linecap="square"/>
<path id="wsB36432" d="M354.089 1442.67H542.19V999.324H111.797V1346.47H148.312V1285.04H296.334V1346.47H354.089V1442.67Z" fill="#F5F5F5" stroke="black" stroke-width="2" stroke-miterlimit="10" stroke-linecap="square"/>
<path id="wsB36430" d="M996.992 1075.52V708.371H737.461V1075.52H996.992Z" fill="#F5F5F5" stroke="black" stroke-width="2" stroke-miterlimit="10" stroke-linecap="square"/>
<g id="wsB36424">
<path d="M744.745 701.097H997.002V535.617H943.176V597.99H798.536V535.617H744.709V701.097" fill="#F5F5F5"/>
<path d="M744.745 701.097H997.002V535.617H943.176V597.99H798.536V535.617H744.709V701.097" stroke="black" stroke-width="2" stroke-miterlimit="10" stroke-linecap="square"/>
</g>
<path id="wsB36433" d="M682.938 999.33H542.189V1075.52H737.492V694.919H682.938V999.33Z" fill="#F5F5F5" stroke="black" stroke-width="2" stroke-miterlimit="10" stroke-linecap="square"/>
<path id="wsB36426" d="M111.797 992.051H338.159V890.217H111.797V992.051Z" fill="#F5F5F5" stroke="black" stroke-width="2" stroke-miterlimit="10" stroke-linecap="square"/>
<path id="wsB36429" d="M470.195 998.96V812.968H368.725V998.96H470.195Z" fill="#F5F5F5" stroke="black" stroke-width="2" stroke-miterlimit="10" stroke-linecap="square"/>
<path id="wsB36425" d="M593.832 992.049H675.663V879.304H593.832V992.049Z" fill="#F5F5F5" stroke="black" stroke-width="2" stroke-miterlimit="10" stroke-linecap="square"/>
<path id="wsB36431" d="M148.307 1346.47H296.329V1285.04H148.307V1346.47Z" fill="#F5F5F5" stroke="black" stroke-width="2" stroke-miterlimit="10" stroke-linecap="square"/>
<path id="wsB36434" d="M682.906 531.399V694.552H737.46V531.399H682.906Z" fill="#F5F5F5" stroke="black" stroke-width="2" stroke-miterlimit="10" stroke-linecap="square"/>
<path id="wsB36427" d="M239.373 1442.67H346.808V1361.38H239.373V1442.67Z" fill="#F5F5F5" stroke="black" stroke-width="2" stroke-miterlimit="10" stroke-linecap="square"/>
</g>
<g id="workspacesFrontGroup">
<path id="U3_R31" d="M548.016 1081.34V1442.67H997.03V1081.34H548.016Z" fill="#F5F5F5" stroke="black" stroke-width="2" stroke-miterlimit="10" stroke-linecap="square"/>
<path id="wsF36432" d="M354.089 1442.67H542.19V999.324H111.797V1346.47H148.312V1285.04H296.334V1346.47H354.089V1442.67Z" fill="#F5F5F5" stroke="black" stroke-width="2" stroke-miterlimit="10" stroke-linecap="square"/>
<path id="wsF36430" d="M996.992 1075.52V708.371H737.461V1075.52H996.992Z" fill="#F5F5F5" stroke="black" stroke-width="2" stroke-miterlimit="10" stroke-linecap="square"/>
<g id="wsF36424">
<path d="M744.745 701.097H997.002V535.617H943.176V597.99H798.536V535.617H744.709V701.097" fill="#F5F5F5"/>
<path d="M744.745 701.097H997.002V535.617H943.176V597.99H798.536V535.617H744.709V701.097" stroke="black" stroke-width="2" stroke-miterlimit="10" stroke-linecap="square"/>
</g>
<path id="wsF36433" d="M682.938 999.33H542.189V1075.52H737.492V694.919H682.938V999.33Z" fill="#F5F5F5" stroke="black" stroke-width="2" stroke-miterlimit="10" stroke-linecap="square"/>
<path id="wsF36426" d="M111.797 992.051H338.159V890.217H111.797V992.051Z" fill="#F5F5F5" stroke="black" stroke-width="2" stroke-miterlimit="10" stroke-linecap="square"/>
<path id="wsF36429" d="M470.195 998.96V812.968H368.725V998.96H470.195Z" fill="#F5F5F5" stroke="black" stroke-width="2" stroke-miterlimit="10" stroke-linecap="square"/>
<path id="wsF36425" d="M593.832 992.049H675.663V879.304H593.832V992.049Z" fill="#F5F5F5" stroke="black" stroke-width="2" stroke-miterlimit="10" stroke-linecap="square"/>
<path id="wsF36431" d="M148.307 1346.47H296.329V1285.04H148.307V1346.47Z" fill="#F5F5F5" stroke="black" stroke-width="2" stroke-miterlimit="10" stroke-linecap="square"/>
<path id="wsF36434" d="M682.906 531.399V694.552H737.46V531.399H682.906Z" fill="#F5F5F5" stroke="black" stroke-width="2" stroke-miterlimit="10" stroke-linecap="square"/>
<path id="wsF36427" d="M239.373 1442.67H346.808V1361.38H239.373V1442.67Z" fill="#F5F5F5" stroke="black" stroke-width="2" stroke-miterlimit="10" stroke-linecap="square"/>
</g>
</g>
<g id="trappa 6">
<g id="Frame 5">
<g id="Clip path group">
<mask id="mask0_64_289" style="mask-type:luminance" maskUnits="userSpaceOnUse" x="406" y="878" width="37" height="35">
<g id="clip0_2_215">
<path id="Vector_40" d="M442.781 878H406.586V912.902H442.781V878Z" fill="white"/>
</g>
</mask>
<g mask="url(#mask0_64_289)">
<g id="Frame 2">
<path id="Line 1" d="M413.695 906.439V902.561" stroke="black" stroke-width="1.29268"/>
<path id="Line 2" d="M414.986 906.439V902.561" stroke="black" stroke-width="1.29268"/>
<path id="Line 3" d="M413.695 902.561V899.976" stroke="black" stroke-width="1.29268"/>
<path id="Line 4" d="M414.986 902.561V899.976" stroke="black" stroke-width="1.29268"/>
<path id="Line 5" d="M413.695 899.976V897.39" stroke="black" stroke-width="1.29268"/>
<path id="Line 6" d="M414.986 899.976V897.39" stroke="black" stroke-width="1.29268"/>
<path id="Line 7" d="M414.986 897.39V894.805" stroke="black" stroke-width="1.29268"/>
<path id="Line 9" d="M413.695 897.39V894.805" stroke="black" stroke-width="1.29268"/>
<path id="Line 8" d="M413.695 899.976V897.39" stroke="black" stroke-width="1.29268"/>
<path id="Line 10" d="M415.637 895.451H424.685" stroke="black" stroke-width="1.29268"/>
<path id="Line 12" d="M415.637 896.743H424.685" stroke="black" stroke-width="1.29268"/>
<path id="Line 11" d="M414.986 897.39V894.805" stroke="black" stroke-width="1.29268"/>
<path id="Line 13" d="M422.744 894.805V885.756" stroke="black" stroke-width="1.29268"/>
<path id="Line 14" d="M424.037 894.805V885.756" stroke="black" stroke-width="1.29268"/>
<path id="Line 15" d="M424.684 886.402H433.732" stroke="black" stroke-width="1.29268"/>
<path id="Line 16" d="M424.684 887.695H433.732" stroke="black" stroke-width="1.29268"/>
<path id="Line 19" d="M433.086 885.756V876.707" stroke="black" stroke-width="1.29268"/>
<path id="Line 20" d="M431.791 885.756V876.707" stroke="black" stroke-width="1.29268"/>
</g>
</g>
</g>
<path id="Line 17" d="M413.049 904.5H404" stroke="black" stroke-width="1.29268"/>
<path id="Line 18" d="M413.049 905.793H404" stroke="black" stroke-width="1.29268"/>
<path id="Line 21" d="M433.732 878.646H442.781" stroke="black" stroke-width="1.29268"/>
<path id="Line 22" d="M433.732 879.939H442.781" stroke="black" stroke-width="1.29268"/>
</g>
</g>
<g id="trappa 7" clip-path="url(#clip0_64_289)">
<g id="Frame 5_2">
<g id="Clip path group_2">
<mask id="mask1_64_289" style="mask-type:luminance" maskUnits="userSpaceOnUse" x="694" y="565" width="37" height="35">
<g id="clip0_2_215_2">
<path id="Vector_41" d="M730.781 565H694.586V599.902H730.781V565Z" fill="white"/>
</g>
</mask>
<g mask="url(#mask1_64_289)">
<g id="Frame 2_2">
<path id="Line 1_2" d="M701.695 593.439V589.561" stroke="black" stroke-width="1.29268"/>
<path id="Line 2_2" d="M702.986 593.439V589.561" stroke="black" stroke-width="1.29268"/>
<path id="Line 3_2" d="M701.695 589.561V586.976" stroke="black" stroke-width="1.29268"/>
<path id="Line 4_2" d="M702.986 589.561V586.976" stroke="black" stroke-width="1.29268"/>
<path id="Line 5_2" d="M701.695 586.976V584.39" stroke="black" stroke-width="1.29268"/>
<path id="Line 6_2" d="M702.986 586.976V584.39" stroke="black" stroke-width="1.29268"/>
<path id="Line 7_2" d="M702.986 584.39V581.805" stroke="black" stroke-width="1.29268"/>
<path id="Line 9_2" d="M701.695 584.39V581.805" stroke="black" stroke-width="1.29268"/>
<path id="Line 8_2" d="M701.695 586.976V584.39" stroke="black" stroke-width="1.29268"/>
<path id="Line 10_2" d="M703.637 582.451H712.685" stroke="black" stroke-width="1.29268"/>
<path id="Line 12_2" d="M703.637 583.743H712.685" stroke="black" stroke-width="1.29268"/>
<path id="Line 11_2" d="M702.986 584.39V581.805" stroke="black" stroke-width="1.29268"/>
<path id="Line 13_2" d="M710.744 581.805V572.756" stroke="black" stroke-width="1.29268"/>
<path id="Line 14_2" d="M712.037 581.805V572.756" stroke="black" stroke-width="1.29268"/>
<path id="Line 15_2" d="M712.684 573.402H721.732" stroke="black" stroke-width="1.29268"/>
<path id="Line 16_2" d="M712.684 574.695H721.732" stroke="black" stroke-width="1.29268"/>
<path id="Line 19_2" d="M721.086 572.756V563.707" stroke="black" stroke-width="1.29268"/>
<path id="Line 20_2" d="M719.791 572.756V563.707" stroke="black" stroke-width="1.29268"/>
</g>
</g>
</g>
<path id="Line 17_2" d="M701.049 591.5H692" stroke="black" stroke-width="1.29268"/>
<path id="Line 18_2" d="M701.049 592.793H692" stroke="black" stroke-width="1.29268"/>
<path id="Line 21_2" d="M721.732 565.646H730.781" stroke="black" stroke-width="1.29268"/>
<path id="Line 22_2" d="M721.732 566.939H730.781" stroke="black" stroke-width="1.29268"/>
</g>
</g>
<path id="U31" d="M753.136 1250.09H757.364V1273.2C757.364 1275.59 756.801 1277.72 755.676 1279.6C754.563 1281.46 752.989 1282.93 750.955 1284.01C748.92 1285.08 746.534 1285.61 743.795 1285.61C741.057 1285.61 738.67 1285.08 736.636 1284.01C734.602 1282.93 733.023 1281.46 731.898 1279.6C730.784 1277.72 730.227 1275.59 730.227 1273.2V1250.09H734.455V1272.86C734.455 1274.57 734.83 1276.09 735.58 1277.41C736.33 1278.73 737.398 1279.77 738.784 1280.53C740.182 1281.28 741.852 1281.66 743.795 1281.66C745.739 1281.66 747.409 1281.28 748.807 1280.53C750.205 1279.77 751.273 1278.73 752.011 1277.41C752.761 1276.09 753.136 1274.57 753.136 1272.86V1250.09ZM776.987 1285.48C774.737 1285.48 772.732 1285.09 770.97 1284.32C769.22 1283.55 767.828 1282.47 766.794 1281.1C765.771 1279.71 765.214 1278.1 765.124 1276.27H769.419C769.51 1277.4 769.896 1278.37 770.578 1279.19C771.26 1279.99 772.152 1280.62 773.254 1281.06C774.357 1281.51 775.578 1281.73 776.919 1281.73C778.419 1281.73 779.749 1281.47 780.908 1280.94C782.067 1280.42 782.976 1279.69 783.635 1278.76C784.294 1277.83 784.624 1276.75 784.624 1275.52C784.624 1274.24 784.305 1273.11 783.669 1272.13C783.033 1271.14 782.101 1270.37 780.874 1269.81C779.646 1269.26 778.146 1268.98 776.374 1268.98H773.578V1265.23H776.374C777.76 1265.23 778.976 1264.98 780.021 1264.48C781.078 1263.98 781.902 1263.27 782.493 1262.36C783.095 1261.45 783.396 1260.39 783.396 1259.16C783.396 1257.98 783.135 1256.95 782.612 1256.07C782.089 1255.2 781.351 1254.52 780.396 1254.03C779.453 1253.54 778.339 1253.3 777.055 1253.3C775.851 1253.3 774.714 1253.52 773.646 1253.96C772.589 1254.39 771.726 1255.02 771.055 1255.85C770.385 1256.67 770.021 1257.66 769.964 1258.82H765.874C765.942 1256.99 766.493 1255.39 767.527 1254.01C768.561 1252.62 769.913 1251.55 771.584 1250.77C773.266 1250 775.112 1249.61 777.124 1249.61C779.283 1249.61 781.135 1250.05 782.68 1250.93C784.226 1251.79 785.413 1252.93 786.243 1254.35C787.072 1255.77 787.487 1257.31 787.487 1258.95C787.487 1260.92 786.97 1262.6 785.936 1263.98C784.913 1265.37 783.521 1266.33 781.76 1266.86V1267.14C783.964 1267.5 785.686 1268.44 786.925 1269.95C788.163 1271.45 788.783 1273.31 788.783 1275.52C788.783 1277.42 788.266 1279.12 787.232 1280.64C786.209 1282.14 784.811 1283.32 783.038 1284.18C781.266 1285.05 779.249 1285.48 776.987 1285.48ZM808.027 1250.09V1285H803.8V1254.52H803.595L795.072 1260.18V1255.89L803.8 1250.09H808.027Z" fill="black"/>
<rect id="U3_E01" x="260" y="1396" width="1" height="1" fill="#F5F5F5"/>
<rect id="U3_01" x="425" y="1396" width="1" height="1" fill="#F5F5F5"/>
<rect id="U3_02" x="425" y="1378" width="1" height="1" fill="#F5F5F5"/>
<rect id="U3_03" x="425" y="1039" width="1" height="1" fill="#F5F5F5"/>
<rect id="U3_04" x="710" y="1039" width="1" height="1" fill="#F5F5F5"/>
<rect id="U3_T01" x="710" y="621" width="1" height="1" fill="#F5F5F5"/>
<rect id="U3_T02" x="425" y="943" width="1" height="1" fill="#F5F5F5"/>
<rect id="U3_U31" x="585" y="1378" width="1" height="1" fill="#F5F5F5"/>
</g>
<defs>
<clipPath id="clip0_64_289">
<rect width="53" height="55.5854" fill="white" transform="translate(692 537)"/>
</clipPath>
</defs>
</svg>
