<svg width="1141" height="1633" viewBox="0 0 1141 1633" fill="none" xmlns="http://www.w3.org/2000/svg">
<g id="U4">
<g id="svgDrawingGroup">
<g id="floorGraphicsGroup">
<path id="Vector" d="M486.861 1019.75H599.774V932.431H486.861V1019.75ZM599.774 926.409V903.073H486.861V926.409H599.774ZM691.987 547.397H620.475V660.686H691.987V547.397ZM962.79 547.397H825.224V605.923H962.79V547.397ZM327.277 1019.75H366.797V914.365H327.277V1019.75Z" fill="#F5F5F5" stroke="black" stroke-width="2" stroke-miterlimit="10" stroke-linecap="square"/>
<path id="Vector_2" d="M225.045 1486.08H1024.55V726.175H755.963V669.643H699.506V1019.75V1027.28H479.325V1024.87H374.316V1027.28H108.443V1401.96V1486.08H225.045Z" fill="#F5F5F5" stroke="black" stroke-width="2" stroke-miterlimit="10" stroke-linecap="square"/>
<path id="Vector_3" d="M692.001 771.345V745.752H620.489V771.345H692.001ZM524.136 547.401H486.875V629.376H524.136V547.401ZM692.001 681.015V665.207H620.489V681.015H692.001ZM1008.72 323.645H1024.57V311.977H1008.68L1008.72 323.645ZM1040 79L1024.57 94.4313V219.125H1040V79Z" fill="#F5F5F5" stroke="black" stroke-width="2" stroke-miterlimit="10" stroke-linecap="square"/>
<g id="Vector_4">
<path d="M1024.53 94.4313V219.125H1039.96V79M1039.96 219.125V237.906ZM1024.53 219.125V237.906ZM1039.96 237.906H1024.53V238.546H1039.96V237.906Z" fill="#F5F5F5"/>
<path d="M1024.53 94.4313V219.125M1024.53 219.125H1039.96M1024.53 219.125V237.906M1039.96 219.125V79M1039.96 219.125V237.906M1039.96 237.906H1024.53M1039.96 237.906V238.546H1024.53V237.906" stroke="black" stroke-width="2" stroke-miterlimit="10" stroke-linecap="square"/>
</g>
<g id="Vector_5">
<path d="M1039.96 237.914H1024.53V238.553H1039.96V237.914ZM1039.96 238.553V317.592ZM1024.53 238.553V317.592ZM1039.96 317.592H1024.53V323.276H1039.96V317.592Z" fill="#F5F5F5"/>
<path d="M1024.53 238.553V237.914H1039.96V238.553M1024.53 238.553H1039.96M1024.53 238.553V317.592M1039.96 238.553V317.592M1039.96 317.592H1024.53M1039.96 317.592V323.276H1024.53V317.592" stroke="black" stroke-width="2" stroke-miterlimit="10" stroke-linecap="square"/>
</g>
<g id="Vector_6">
<path d="M1039.96 317.579H1024.53V323.262H1039.96V317.579ZM1039.96 323.262V402.301ZM1024.53 323.262V402.301ZM1039.96 402.301H1024.53V408.135H1039.96V402.301Z" fill="#F5F5F5"/>
<path d="M1024.53 323.262V317.579H1039.96V323.262M1024.53 323.262H1039.96M1024.53 323.262V402.301M1039.96 323.262V402.301M1039.96 402.301H1024.53M1039.96 402.301V408.135H1024.53V402.301" stroke="black" stroke-width="2" stroke-miterlimit="10" stroke-linecap="square"/>
</g>
<g id="Vector_7">
<path d="M1039.96 402.303H1024.53V408.137H1039.96V402.303ZM1039.96 408.137V426.956ZM1024.53 408.137V426.956ZM1039.96 426.956H1024.53V507.312H1039.96V426.956Z" fill="#F5F5F5"/>
<path d="M1024.53 408.137V402.303H1039.96V408.137M1024.53 408.137H1039.96M1024.53 408.137V426.956M1039.96 408.137V426.956M1039.96 426.956H1024.53M1039.96 426.956V507.312H1024.53V426.956" stroke="black" stroke-width="2" stroke-miterlimit="10" stroke-linecap="square"/>
</g>
<g id="Vector_8">
<path d="M1039.96 426.964H1024.53V507.32H1039.96V426.964ZM1039.96 507.32V526.139ZM1024.53 507.32V526.139ZM1039.96 526.139H1024.53V1503.4H1039.96V526.139Z" fill="#F5F5F5"/>
<path d="M1024.53 507.32V426.964H1039.96V507.32M1024.53 507.32H1039.96M1024.53 507.32V526.139M1039.96 507.32V526.139M1039.96 526.139H1024.53M1039.96 526.139V1503.4H1024.53V526.139" stroke="black" stroke-width="2" stroke-miterlimit="10" stroke-linecap="square"/>
</g>
<g id="Vector_9">
<path d="M1024.54 1501.52V1503.41H1039.97V526.143H1024.54V1486.09M1024.54 237.913V236.408H1039.97V237.913H1024.54ZM1024.54 219.094V220.6H1039.97V219.094H1024.54ZM1024.54 236.408V220.6ZM1032.26 236.408V220.6ZM1039.97 236.408V220.6ZM1024.54 236.408L1018.22 220.6ZM1039.97 317.592V316.086H1024.54V317.592H1039.97ZM1039.97 238.553V240.058H1024.54V238.553H1039.97ZM1039.97 316.086V240.058ZM1032.26 316.086V240.058ZM1024.54 316.086V240.058ZM1024.54 323.275V324.781H1039.97V323.275H1024.54ZM1024.54 402.314V400.809H1039.97V402.314H1024.54ZM1024.54 324.781V400.809ZM1032.26 324.781V400.809ZM1039.97 324.781V400.809ZM1024.54 426.967V425.462H1039.97V426.967H1024.54ZM1024.54 408.148V409.654H1039.97V408.148H1024.54ZM1024.54 425.462V409.654ZM1032.26 425.462V409.654ZM1039.97 425.462V409.654ZM1024.54 425.462L1018.22 409.654Z" fill="#F5F5F5"/>
<path d="M1024.54 1501.52V1503.41H1039.97V526.143H1024.54V1486.09M1024.54 236.408V237.913H1039.97V236.408M1024.54 236.408H1039.97M1024.54 236.408V220.6M1024.54 236.408L1018.22 220.6M1039.97 236.408V220.6M1024.54 220.6V219.094H1039.97V220.6M1024.54 220.6H1039.97M1032.26 236.408V220.6M1039.97 316.086V317.592H1024.54V316.086M1039.97 316.086H1024.54M1039.97 316.086V240.058M1024.54 316.086V240.058M1039.97 240.058V238.553H1024.54V240.058M1039.97 240.058H1024.54M1032.26 316.086V240.058M1024.54 324.781V323.275H1039.97V324.781M1024.54 324.781H1039.97M1024.54 324.781V400.809M1039.97 324.781V400.809M1024.54 400.809V402.314H1039.97V400.809M1024.54 400.809H1039.97M1032.26 324.781V400.809M1024.54 425.462V426.967H1039.97V425.462M1024.54 425.462H1039.97M1024.54 425.462V409.654M1024.54 425.462L1018.22 409.654M1039.97 425.462V409.654M1024.54 409.654V408.148H1039.97V409.654M1024.54 409.654H1039.97M1032.26 425.462V409.654" stroke="black" stroke-width="2" stroke-miterlimit="10" stroke-linecap="square"/>
</g>
<g id="Vector_10">
<path d="M1024.55 526.13V524.625H1039.98V526.13H1024.55ZM1024.55 507.312V508.817H1039.98V507.312H1024.55ZM1024.55 524.625V508.817ZM1032.26 524.625V508.817ZM1039.98 524.625V508.817ZM1024.55 524.625L1018.22 508.817ZM108.443 906.836V914.363H366.789L374.316 906.836H108.443Z" fill="#F5F5F5"/>
<path d="M1024.55 524.625V526.13H1039.98V524.625M1024.55 524.625H1039.98M1024.55 524.625V508.817M1024.55 524.625L1018.22 508.817M1039.98 524.625V508.817M1024.55 508.817V507.312H1039.98V508.817M1024.55 508.817H1039.98M1032.26 524.625V508.817M108.443 906.836V914.363H366.789L374.316 906.836H108.443Z" stroke="black" stroke-width="2" stroke-miterlimit="10" stroke-linecap="square"/>
</g>
<g id="Vector_11">
<path d="M374.354 906.847H108.443V914.375H323.505M327.269 914.375H366.789Z" fill="#F5F5F5"/>
<path d="M374.354 906.847H108.443V914.375H323.505M327.269 914.375H366.789" stroke="black" stroke-width="2" stroke-miterlimit="10" stroke-linecap="square"/>
</g>
<g id="Vector_12">
<path d="M366.766 1019.76H374.293V906.847L366.766 914.374V1019.76ZM374.293 1019.76V906.847ZM366.766 914.374V1019.76ZM699.483 539.879L691.955 547.406V812.903H699.483V539.879ZM691.955 547.406V660.696ZM699.483 669.24V539.879ZM691.955 665.212V681.02ZM691.955 685.537V741.241ZM691.955 745.757V771.351Z" fill="#F5F5F5"/>
<path d="M699.483 539.879L691.955 547.406M699.483 539.879V812.903H691.955V547.406M699.483 539.879V669.24M691.955 547.406V660.696M691.955 665.212V681.02M691.955 685.537V741.241M691.955 745.757V771.351M366.766 1019.76H374.293V906.847L366.766 914.374V1019.76Z" stroke="black" stroke-width="2" stroke-miterlimit="10" stroke-linecap="square"/>
</g>
<g id="Vector_13">
<path d="M691.973 778.867V812.892H699.5V669.643M699.5 812.892V858.057ZM691.973 812.892V858.057ZM699.5 858.057H691.973V1019.75H699.5V858.057Z" fill="#F5F5F5"/>
<path d="M691.973 778.867V812.892M691.973 812.892H699.5M691.973 812.892V858.057M699.5 812.892V669.643M699.5 812.892V858.057M699.5 858.057H691.973M699.5 858.057V1019.75H691.973V858.057" stroke="black" stroke-width="2" stroke-miterlimit="10" stroke-linecap="square"/>
</g>
<g id="Vector_14">
<path d="M699.489 1019.75V858.063H691.962V895.55M691.962 903.078V1019.75ZM691.962 812.898V814.403H699.489V812.898H691.962ZM691.962 858.063V856.558H699.489V858.063H691.962ZM691.962 814.403V856.558ZM695.725 814.403V856.558ZM699.489 814.403V856.558ZM479.309 1027.28L486.836 1019.75V835.33H479.309V1027.28ZM486.836 1019.75V932.435Z" fill="#F5F5F5"/>
<path d="M699.489 1019.75V858.063M699.489 858.063H691.962M699.489 858.063V856.558M691.962 858.063V895.55M691.962 858.063V856.558M691.962 903.078V1019.75M691.962 814.403V812.898H699.489V814.403M691.962 814.403H699.489M691.962 814.403V856.558M699.489 814.403V856.558M691.962 856.558H699.489M695.725 814.403V856.558M486.836 1019.75L479.309 1027.28V835.33H486.836V1019.75ZM486.836 1019.75V932.435" stroke="black" stroke-width="2" stroke-miterlimit="10" stroke-linecap="square"/>
</g>
<g id="Vector_15">
<path d="M486.836 895.555V835.335H479.309V1027.29M486.836 926.418V903.083ZM479.309 835.335V778.878ZM486.836 835.335V778.878ZM479.309 778.878H486.836V547.406L479.309 539.879V778.878Z" fill="#F5F5F5"/>
<path d="M486.836 895.555V835.335M486.836 835.335H479.309M486.836 835.335V778.878M479.309 835.335V1027.29M479.309 835.335V778.878M486.836 926.418V903.083M479.309 778.878H486.836M479.309 778.878V539.879L486.836 547.406V778.878" stroke="black" stroke-width="2" stroke-miterlimit="10" stroke-linecap="square"/>
</g>
<g id="Vector_16">
<path d="M479.309 539.879V778.878H486.836M486.836 629.344V547.406ZM486.836 771.351V729.197ZM486.836 724.68V682.526ZM486.836 678.009V636.156ZM486.836 778.878V780.384H479.309V778.878H486.836ZM486.836 835.335V833.829H479.309V835.335H486.836Z" fill="#F5F5F5"/>
<path d="M479.309 539.879V778.878M479.309 778.878H486.836V780.384H479.309V778.878ZM486.836 629.344V547.406M486.836 771.351V729.197M486.836 724.68V682.526M486.836 678.009V636.156M486.836 835.335V833.829H479.309V835.335H486.836Z" stroke="black" stroke-width="2" stroke-miterlimit="10" stroke-linecap="square"/>
</g>
<g id="Vector_17">
<path d="M479.309 835.335V778.878H486.836V835.335M755.946 539.879L763.473 547.406H770.248V539.879H755.946Z" fill="#F5F5F5"/>
<path d="M479.309 835.335V778.878H486.836V835.335M755.946 539.879L763.473 547.406H770.248V539.879H755.946Z" stroke="black" stroke-width="2" stroke-miterlimit="10" stroke-linecap="square"/>
</g>
<g id="Vector_18">
<path d="M763.447 547.406H770.222V539.879H755.92M807.86 539.879V547.406H1024.5V539.879H807.86ZM825.173 547.406H962.739Z" fill="#F5F5F5"/>
<path d="M763.447 547.406H770.222V539.879H755.92M825.173 547.406H962.739M807.86 539.879V547.406H1024.5V539.879H807.86Z" stroke="black" stroke-width="2" stroke-miterlimit="10" stroke-linecap="square"/>
</g>
<g id="Vector_19">
<path d="M867.892 539.879H807.86V547.406H819.151M968.761 547.406H1024.5V539.879H873.199M770.222 547.406H771.728V539.879H770.222V547.406ZM807.86 547.406H806.354V539.879H807.86V547.406ZM771.728 547.406V582.033ZM771.728 582.033L777.75 581.506L783.584 579.925L789.041 577.404L794.009 573.941L798.262 569.65L801.725 564.72L804.284 559.262L805.828 553.429L806.354 547.406M1024.5 726.186V718.658H763.447L755.92 726.186H1024.5Z" fill="#F5F5F5"/>
<path d="M867.892 539.879H807.86M807.86 539.879V547.406M807.86 539.879H806.354V547.406M807.86 547.406H819.151M807.86 547.406H806.354M968.761 547.406H1024.5V539.879H873.199M771.728 547.406H770.222V539.879H771.728V547.406ZM771.728 547.406V582.033L777.75 581.506L783.584 579.925L789.041 577.404L794.009 573.941L798.262 569.65L801.725 564.72L804.284 559.262L805.828 553.429L806.354 547.406M1024.5 726.186V718.658H763.447L755.92 726.186H1024.5Z" stroke="black" stroke-width="2" stroke-miterlimit="10" stroke-linecap="square"/>
</g>
<g id="Vector_20">
<path d="M755.92 726.183H1024.5V718.656H763.447" fill="#F5F5F5"/>
<path d="M755.92 726.183H1024.5V718.656H763.447" stroke="black" stroke-width="2" stroke-miterlimit="10" stroke-linecap="square"/>
</g>
<g id="Vector_21">
<path d="M755.988 726.186L763.515 718.658V547.406L755.988 539.879V726.186ZM763.515 718.658V547.406ZM755.988 669.616V726.186ZM755.988 539.879V669.277ZM599.791 895.555L607.319 903.083H618.61V895.555H599.791Z" fill="#F5F5F5"/>
<path d="M755.988 726.186L763.515 718.658V547.406L755.988 539.879M755.988 726.186V539.879M755.988 726.186V669.616M755.988 539.879V669.277M599.791 895.555L607.319 903.083H618.61V895.555H599.791Z" stroke="black" stroke-width="2" stroke-miterlimit="10" stroke-linecap="square"/>
</g>
<g id="Vector_22">
<path d="M607.319 903.073H618.61V895.546H599.791M618.61 895.546H675.029ZM618.61 903.073H675.029ZM675.029 895.546V903.073H692.003V895.546H675.029Z" fill="#F5F5F5"/>
<path d="M607.319 903.073H618.61M618.61 903.073V895.546M618.61 903.073H675.029M618.61 895.546H599.791M618.61 895.546H675.029M675.029 895.546V903.073M675.029 895.546H692.003V903.073H675.029" stroke="black" stroke-width="2" stroke-miterlimit="10" stroke-linecap="square"/>
</g>
<g id="Vector_23">
<path d="M691.96 895.546H675.023V903.073H691.96M618.529 895.546H620.035V903.073H618.529V895.546ZM675.023 895.546H673.48V903.073H675.023V895.546Z" fill="#F5F5F5"/>
<path d="M691.96 895.546H675.023M675.023 895.546V903.073M675.023 895.546H673.48V903.073H675.023M675.023 903.073H691.96M618.529 895.546H620.035V903.073H618.529V895.546Z" stroke="black" stroke-width="2" stroke-miterlimit="10" stroke-linecap="square"/>
</g>
<g id="Vector_24">
<path d="M618.569 895.546H675.026V903.073H618.569M599.788 1019.75H607.316V903.073L599.788 895.546V1019.75ZM607.316 1019.75V903.073ZM599.788 932.431V1019.75ZM599.788 903.073V926.409ZM486.875 926.409V932.431H599.788V926.409H486.875ZM486.875 932.431H599.788ZM599.788 926.409H486.875ZM486.875 895.546V903.073H491.58V895.546H486.875Z" fill="#F5F5F5"/>
<path d="M618.569 895.546H675.026V903.073H618.569M599.788 1019.75H607.316V903.073L599.788 895.546V1019.75ZM599.788 1019.75V932.431M599.788 932.431H486.875V926.409H599.788M599.788 932.431V926.409M599.788 903.073V926.409M486.875 895.546V903.073H491.58V895.546H486.875Z" stroke="black" stroke-width="2" stroke-miterlimit="10" stroke-linecap="square"/>
</g>
<g id="Vector_25">
<path d="M486.875 903.073H491.58V895.546H486.875M491.58 895.546H596.965ZM491.58 903.073H596.965ZM596.965 895.546V903.073H599.788V895.546H596.965Z" fill="#F5F5F5"/>
<path d="M486.875 903.073H491.58M491.58 903.073V895.546M491.58 903.073H596.965M491.58 895.546H486.875M491.58 895.546H596.965M596.965 895.546V903.073M596.965 895.546H599.788V903.073H596.965" stroke="black" stroke-width="2" stroke-miterlimit="10" stroke-linecap="square"/>
</g>
<g id="Vector_26">
<path d="M599.771 895.55H596.949V903.077H599.771M596.949 895.55H595.443V903.077H596.949V895.55ZM491.563 895.55H493.069V903.077H491.563V895.55ZM595.443 895.55L551.106 869.956ZM493.069 895.55L537.406 869.956ZM551.106 869.956L548.17 875.978L545.987 882.302L544.708 888.85L544.256 895.55M537.406 869.956L540.379 875.978L542.524 882.302L543.804 888.85L544.256 895.55M968.809 611.95L962.787 605.928H825.221L819.199 611.95H968.809ZM962.787 605.928H825.221ZM819.199 611.95H968.809ZM819.199 611.95L825.221 605.928V547.401H819.199V611.95ZM825.221 605.928V547.401ZM819.199 547.401V611.95ZM968.809 547.401H962.787V605.928L968.809 611.95V547.401ZM962.787 547.401V605.928ZM968.809 611.95V547.401ZM699.511 669.234V669.611H755.968V669.234H699.511ZM699.511 669.611H755.968ZM755.968 669.234H699.511ZM327.274 914.369H323.511V1019.75H327.274V914.369ZM323.511 914.369V1019.75ZM327.274 1019.75V914.369ZM620.472 660.691L613.697 665.207H691.984V660.691H620.472ZM620.472 665.207H691.984ZM691.984 660.691H620.472ZM198.779 79V94.4313H286.852V79H198.779Z" fill="#F5F5F5"/>
<path d="M599.771 895.55H596.949M596.949 895.55V903.077M596.949 895.55H595.443M596.949 903.077H599.771M596.949 903.077H595.443V895.55M595.443 895.55L551.106 869.956L548.17 875.978L545.987 882.302L544.708 888.85L544.256 895.55L543.804 888.85L542.524 882.302L540.379 875.978L537.406 869.956L493.069 895.55M493.069 895.55H491.563V903.077H493.069V895.55ZM968.809 611.95L962.787 605.928M968.809 611.95H819.199M968.809 611.95V547.401H962.787V605.928M962.787 605.928H825.221M825.221 605.928L819.199 611.95M825.221 605.928V547.401H819.199V611.95M691.984 665.207H613.697L620.472 660.691H691.984V665.207ZM691.984 665.207H620.472M699.511 669.234V669.611H755.968V669.234H699.511ZM327.274 914.369H323.511V1019.75H327.274V914.369ZM198.779 79V94.4313H286.852V79H198.779Z" stroke="black" stroke-width="2" stroke-miterlimit="10" stroke-linecap="square"/>
</g>
<g id="Vector_27">
<path d="M198.779 94.4313H286.852V79H198.779M286.852 79H365.928ZM286.852 94.4313H365.928ZM365.928 79V94.4313H369.052V79H365.928Z" fill="#F5F5F5"/>
<path d="M198.779 94.4313H286.852M286.852 94.4313V79M286.852 94.4313H365.928M286.852 79H198.779M286.852 79H365.928M365.928 79V94.4313M365.928 79H369.052V94.4313H365.928" stroke="black" stroke-width="2" stroke-miterlimit="10" stroke-linecap="square"/>
</g>
<g id="Vector_28">
<path d="M365.945 79V94.4313H369.069V79H365.945ZM369.069 79H387.85ZM369.069 94.4313H387.85ZM387.85 79V94.4313H389.055V79H387.85Z" fill="#F5F5F5"/>
<path d="M369.069 94.4313H365.945V79H369.069M369.069 94.4313V79M369.069 94.4313H387.85M369.069 79H387.85M387.85 79V94.4313M387.85 79H389.055V94.4313H387.85" stroke="black" stroke-width="2" stroke-miterlimit="10" stroke-linecap="square"/>
</g>
<g id="Vector_29">
<path d="M387.783 79V94.4313H388.988V79H387.783ZM388.988 79H516.956ZM388.988 94.4313H516.956ZM516.956 79V94.4313H618.352V79H516.956Z" fill="#F5F5F5"/>
<path d="M388.988 94.4313H387.783V79H388.988M388.988 94.4313V79M388.988 94.4313H516.956M388.988 79H516.956M516.956 79V94.4313M516.956 79H618.352V94.4313H516.956" stroke="black" stroke-width="2" stroke-miterlimit="10" stroke-linecap="square"/>
</g>
<g id="Vector_30">
<path d="M517.01 79V94.4313H618.406V79H517.01ZM618.406 79H637.224ZM618.406 94.4313H637.224ZM637.224 79V94.4313H637.751V79H637.224Z" fill="#F5F5F5"/>
<path d="M618.406 94.4313H517.01V79H618.406M618.406 94.4313V79M618.406 94.4313H637.224M618.406 79H637.224M637.224 79V94.4313M637.224 79H637.751V94.4313H637.224" stroke="black" stroke-width="2" stroke-miterlimit="10" stroke-linecap="square"/>
</g>
<g id="Vector_31">
<path d="M637.195 79V94.4313H637.722V79H637.195ZM637.722 79H856.021ZM637.722 94.4313H856.021ZM856.021 79V94.4313H918.424V79H856.021Z" fill="#F5F5F5"/>
<path d="M637.722 94.4313H637.195V79H637.722M637.722 94.4313V79M637.722 94.4313H856.021M637.722 79H856.021M856.021 79V94.4313M856.021 79H918.424V94.4313H856.021" stroke="black" stroke-width="2" stroke-miterlimit="10" stroke-linecap="square"/>
</g>
<g id="Vector_32">
<path d="M856.043 79V94.4313H918.446V79H856.043ZM918.446 79H963.611ZM918.446 94.4313H963.611ZM963.611 79V94.4313H967.676V79H963.611Z" fill="#F5F5F5"/>
<path d="M918.446 94.4313H856.043V79H918.446M918.446 94.4313V79M918.446 94.4313H963.611M918.446 79H963.611M963.611 79V94.4313M963.611 79H967.676V94.4313H963.611" stroke="black" stroke-width="2" stroke-miterlimit="10" stroke-linecap="square"/>
</g>
<g id="Vector_33">
<path d="M963.596 79V94.4313H967.661V79H963.596ZM967.661 79H986.479ZM967.661 94.4313H986.479ZM986.479 79V94.4313H1024.53L1039.96 79H986.479Z" fill="#F5F5F5"/>
<path d="M967.661 94.4313H963.596V79H967.661M967.661 94.4313V79M967.661 94.4313H986.479M967.661 79H986.479M986.479 79V94.4313M986.479 79H1039.96L1024.53 94.4313H986.479" stroke="black" stroke-width="2" stroke-miterlimit="10" stroke-linecap="square"/>
</g>
<g id="Vector_34">
<path d="M1039.96 79H986.482V94.4313H1024.53M286.872 94.4313H288.377V79H286.872V94.4313ZM365.911 94.4313H364.406V79H365.911V94.4313ZM288.377 94.4313H364.406ZM288.377 86.7155H364.406ZM288.377 79H364.406ZM387.816 94.4313H386.311V79H387.816V94.4313ZM368.997 94.4313H370.503V79H368.997V94.4313ZM386.311 94.4313H370.503ZM386.311 86.7155H370.503ZM386.311 79H370.503ZM386.311 94.4313L370.503 100.754ZM516.989 94.4313H515.483V79H516.989V94.4313ZM389.021 94.4313H390.526V79H389.021V94.4313ZM515.483 94.4313H390.526ZM515.483 86.7155H390.526ZM515.483 79H390.526ZM637.204 94.4313H635.698V79H637.204V94.4313ZM618.385 94.4313H619.89V79H618.385V94.4313ZM635.698 94.4313H619.89ZM635.698 86.7155H619.89ZM635.698 79H619.89ZM635.698 94.4313L619.89 100.754ZM637.73 79H639.236V94.4313H637.73V79ZM856.029 79H854.524V94.4313H856.029V79ZM639.236 79H854.524ZM639.236 86.7155H854.524ZM639.236 94.4313H854.524ZM918.432 94.4313H919.938V79H918.432V94.4313ZM963.598 94.4313H962.092V79H963.598V94.4313ZM919.938 94.4313H962.092ZM919.938 86.7155H962.092ZM919.938 79H962.092ZM986.482 94.4313H984.976V79H986.482V94.4313ZM967.663 94.4313H969.168V79H967.663V94.4313ZM984.976 94.4313H969.168ZM984.976 86.7155H969.168ZM984.976 79H969.168ZM984.976 94.4313L969.168 100.754ZM108.431 94.4313L93 79V121.531H108.431V94.4313Z" fill="#F5F5F5"/>
<path d="M1039.96 79H986.482M986.482 79V94.4313M986.482 79H984.976M986.482 94.4313H1024.53M986.482 94.4313H984.976M288.377 94.4313H286.872V79H288.377M288.377 94.4313V79M288.377 94.4313H364.406M288.377 79H364.406M364.406 94.4313H365.911V79H364.406M364.406 94.4313V79M288.377 86.7155H364.406M386.311 94.4313H387.816V79H386.311M386.311 94.4313V79M386.311 94.4313H370.503M386.311 94.4313L370.503 100.754M386.311 79H370.503M370.503 94.4313H368.997V79H370.503M370.503 94.4313V79M386.311 86.7155H370.503M515.483 94.4313H516.989V79H515.483M515.483 94.4313V79M515.483 94.4313H390.526M515.483 79H390.526M390.526 94.4313H389.021V79H390.526M390.526 94.4313V79M515.483 86.7155H390.526M635.698 94.4313H637.204V79H635.698M635.698 94.4313V79M635.698 94.4313H619.89M635.698 94.4313L619.89 100.754M635.698 79H619.89M619.89 94.4313H618.385V79H619.89M619.89 94.4313V79M635.698 86.7155H619.89M639.236 79H637.73V94.4313H639.236M639.236 79V94.4313M639.236 79H854.524M639.236 94.4313H854.524M854.524 79H856.029V94.4313H854.524M854.524 79V94.4313M639.236 86.7155H854.524M919.938 94.4313H918.432V79H919.938M919.938 94.4313V79M919.938 94.4313H962.092M919.938 79H962.092M962.092 94.4313H963.598V79H962.092M962.092 94.4313V79M919.938 86.7155H962.092M984.976 94.4313V79M984.976 94.4313H969.168M984.976 94.4313L969.168 100.754M984.976 79H969.168M969.168 94.4313H967.663V79H969.168M969.168 94.4313V79M984.976 86.7155H969.168M108.431 94.4313L93 79V121.531H108.431V94.4313Z" stroke="black" stroke-width="2" stroke-miterlimit="10" stroke-linecap="square"/>
</g>
<g id="Vector_35">
<path d="M93 79V121.531H108.431V94.4313M108.431 121.531V200.57ZM93 121.531V200.57ZM108.431 200.57H93V204.333H108.431V200.57Z" fill="#F5F5F5"/>
<path d="M93 79V121.531M93 121.531H108.431M93 121.531V200.57M108.431 121.531V94.4313M108.431 121.531V200.57M108.431 200.57H93M108.431 200.57V204.333H93V200.57" stroke="black" stroke-width="2" stroke-miterlimit="10" stroke-linecap="square"/>
</g>
<g id="Vector_36">
<path d="M108.431 200.569H93V204.333H108.431V200.569ZM108.431 204.333V223.152ZM93 204.333V223.152ZM108.431 223.152H93V225.523H108.431V223.152Z" fill="#F5F5F5"/>
<path d="M93 204.333V200.569H108.431V204.333M93 204.333H108.431M93 204.333V223.152M108.431 204.333V223.152M108.431 223.152H93M108.431 223.152V225.523H93V223.152" stroke="black" stroke-width="2" stroke-miterlimit="10" stroke-linecap="square"/>
</g>
<g id="Vector_37">
<path d="M108.431 223.157H93V225.528H108.431V223.157ZM108.431 225.528V353.459ZM93 225.528V353.459ZM108.431 353.459H93V499.982H108.431V353.459Z" fill="#F5F5F5"/>
<path d="M93 225.528V223.157H108.431V225.528M93 225.528H108.431M93 225.528V353.459M108.431 225.528V353.459M108.431 353.459H93M108.431 353.459V499.982H93V353.459" stroke="black" stroke-width="2" stroke-miterlimit="10" stroke-linecap="square"/>
</g>
<g id="Vector_38">
<path d="M108.431 353.453H93V499.977H108.431V353.453ZM108.431 499.977V627.945ZM93 499.977V627.945ZM108.431 627.945H93V628.923H108.431V627.945Z" fill="#F5F5F5"/>
<path d="M93 499.977V353.453H108.431V499.977M93 499.977H108.431M93 499.977V627.945M108.431 499.977V627.945M108.431 627.945H93M108.431 627.945V628.923H93V627.945" stroke="black" stroke-width="2" stroke-miterlimit="10" stroke-linecap="square"/>
</g>
<g id="Vector_39">
<path d="M108.431 627.943H93V628.922H108.431V627.943ZM108.431 628.922V647.741ZM93 628.922V647.741ZM108.431 647.741H93V650.639H108.431V647.741Z" fill="#F5F5F5"/>
<path d="M93 628.922V627.943H108.431V628.922M93 628.922H108.431M93 628.922V647.741M108.431 628.922V647.741M108.431 647.741H93M108.431 647.741V650.639H93V647.741" stroke="black" stroke-width="2" stroke-miterlimit="10" stroke-linecap="square"/>
</g>
<g id="Vector_40">
<path d="M108.431 647.737H93V650.636H108.431V647.737ZM108.431 650.636V868.934ZM93 650.636V868.934ZM108.431 868.934H93V1027.28L108.431 1019.75V868.934Z" fill="#F5F5F5"/>
<path d="M93 650.636V647.737H108.431V650.636M93 650.636H108.431M93 650.636V868.934M108.431 650.636V868.934M108.431 868.934H93M108.431 868.934V1019.75L93 1027.28V868.934" stroke="black" stroke-width="2" stroke-miterlimit="10" stroke-linecap="square"/>
</g>
<g id="Vector_41">
<path d="M108.431 868.937H93V1027.28L108.431 1019.75V868.937ZM108.431 200.567V199.061H93V200.567H108.431ZM108.431 121.528V123.033H93V121.528H108.431ZM108.431 199.061V123.033ZM100.716 199.061V123.033ZM93 199.061V123.033ZM108.431 204.331V205.836H93V204.331H108.431ZM108.431 223.15V221.644H93V223.15H108.431ZM108.431 205.836V221.644ZM100.716 205.836V221.644ZM93 205.836V221.644ZM108.431 205.836L114.755 221.644ZM108.431 225.483V226.989H93V225.483H108.431ZM108.431 353.451V351.946H93V353.451H108.431ZM108.431 226.989V351.946ZM100.716 226.989V351.946ZM93 226.989V351.946ZM93 627.943V626.438H108.431V627.943H93ZM93 499.975V501.48H108.431V499.975H93ZM93 626.438V501.48ZM100.716 626.438V501.48ZM108.431 626.438V501.48ZM108.431 628.922V630.427H93V628.922H108.431ZM108.431 647.741V646.235H93V647.741H108.431ZM108.431 630.427V646.235ZM100.716 630.427V646.235ZM93 630.427V646.235ZM108.431 630.427L114.755 646.235ZM108.431 650.639V652.144H93V650.639H108.431ZM108.431 868.937V867.432H93V868.937H108.431ZM108.431 652.144V867.432ZM100.716 652.144V867.432ZM93 652.144V867.432ZM613.68 539.871V547.399H691.966L699.494 539.871H613.68ZM620.455 547.399H691.966ZM699.494 539.871H613.68ZM613.68 665.204L620.455 660.688V547.399H613.68V665.204ZM620.455 660.688V547.399ZM613.68 636.111V665.204ZM613.68 547.399V629.373ZM699.494 1027.28V1019.75H486.841L479.313 1027.28H699.494Z" fill="#F5F5F5"/>
<path d="M108.431 868.937H93M108.431 868.937V1019.75L93 1027.28V868.937M108.431 868.937V867.432M93 868.937V867.432M108.431 199.061V200.567H93V199.061M108.431 199.061H93M108.431 199.061V123.033M93 199.061V123.033M108.431 123.033V121.528H93V123.033M108.431 123.033H93M100.716 199.061V123.033M108.431 205.836V204.331H93V205.836M108.431 205.836H93M108.431 205.836V221.644M108.431 205.836L114.755 221.644M93 205.836V221.644M108.431 221.644V223.15H93V221.644M108.431 221.644H93M100.716 205.836V221.644M108.431 226.989V225.483H93V226.989M108.431 226.989H93M108.431 226.989V351.946M93 226.989V351.946M108.431 351.946V353.451H93V351.946M108.431 351.946H93M100.716 226.989V351.946M93 626.438V627.943H108.431V626.438M93 626.438H108.431M93 626.438V501.48M108.431 626.438V501.48M93 501.48V499.975H108.431V501.48M93 501.48H108.431M100.716 626.438V501.48M108.431 630.427V628.922H93V630.427M108.431 630.427H93M108.431 630.427V646.235M108.431 630.427L114.755 646.235M93 630.427V646.235M108.431 646.235V647.741H93V646.235M108.431 646.235H93M100.716 630.427V646.235M108.431 652.144V650.639H93V652.144M108.431 652.144H93M108.431 652.144V867.432M93 652.144V867.432M108.431 867.432H93M100.716 652.144V867.432M613.68 547.399V539.871H699.494L691.966 547.399M613.68 547.399H691.966M613.68 547.399H620.455M613.68 547.399V665.204M613.68 547.399V629.373M691.966 547.399H620.455M620.455 547.399V660.688L613.68 665.204M613.68 665.204V636.111M699.494 1027.28V1019.75H486.841L479.313 1027.28H699.494Z" stroke="black" stroke-width="2" stroke-miterlimit="10" stroke-linecap="square"/>
</g>
<g id="Vector_42">
<path d="M479.313 1027.28H699.494V1019.75M599.754 1019.75H486.841ZM691.966 1019.75H607.282ZM1024.53 1501.52V1486.09H225.033V1501.52H1024.53ZM1024.53 1486.09H225.033ZM225.033 1501.52H1024.53ZM93 79L108.431 94.4313H198.762V79H93ZM108.431 94.4313H198.762ZM198.762 79H93ZM108.431 1019.75L93 1027.28H374.342V1019.75H108.431ZM374.342 1024.5V1019.75Z" fill="#F5F5F5"/>
<path d="M479.313 1027.28H699.494V1019.75M599.754 1019.75H486.841M691.966 1019.75H607.282M374.342 1019.75V1027.28H93L108.431 1019.75H374.342ZM374.342 1019.75V1024.5M1024.53 1501.52V1486.09H225.033V1501.52H1024.53ZM93 79L108.431 94.4313H198.762V79H93Z" stroke="black" stroke-width="2" stroke-miterlimit="10" stroke-linecap="square"/>
</g>
<g id="Vector_43">
<path d="M323.493 1019.76H108.431L93 1027.28H374.342V1024.88M366.777 1019.76H327.257ZM93 1501.52L108.431 1486.09V1401.97H93V1501.52ZM108.431 1486.09V1401.97ZM93 1401.97V1501.52Z" fill="#F5F5F5"/>
<path d="M323.493 1019.76H108.431L93 1027.28H374.342V1024.88M366.777 1019.76H327.257M93 1501.52L108.431 1486.09V1401.97H93V1501.52Z" stroke="black" stroke-width="2" stroke-miterlimit="10" stroke-linecap="square"/>
</g>
<g id="Vector_44">
<path d="M225.033 1501.52V1486.09H108.431L93 1501.52H225.033ZM225.033 1486.09H108.431ZM93 1501.52H225.033ZM479.313 539.879L486.841 547.406H613.68V539.879H479.313ZM530.877 547.406H613.68ZM613.68 539.879H479.313ZM486.841 547.406H524.102ZM486.841 771.351V778.878H574.236V771.351H486.841Z" fill="#F5F5F5"/>
<path d="M486.841 547.406L479.313 539.879H613.68V547.406M486.841 547.406H613.68M486.841 547.406H524.102M613.68 547.406H530.877M225.033 1501.52V1486.09H108.431L93 1501.52H225.033ZM486.841 771.351V778.878H574.236V771.351H486.841Z" stroke="black" stroke-width="2" stroke-miterlimit="10" stroke-linecap="square"/>
</g>
<g id="Vector_45">
<path d="M486.875 778.872H574.27V771.345H544.649M540.132 771.345H486.875ZM611.908 771.345V778.872H621.543V771.345H611.908Z" fill="#F5F5F5"/>
<path d="M486.875 778.872H574.27V771.345H544.649M540.132 771.345H486.875M611.908 771.345V778.872H621.543V771.345H611.908Z" stroke="black" stroke-width="2" stroke-miterlimit="10" stroke-linecap="square"/>
</g>
<g id="Vector_46">
<path d="M613.65 771.345H611.844V778.872H621.479V771.345H620.425M621.517 771.345H689.264ZM621.517 778.872H689.264ZM689.264 771.345V778.872H691.937V771.345H689.264Z" fill="#F5F5F5"/>
<path d="M613.65 771.345H611.844V778.872H621.479V771.345H620.425M621.517 771.345H689.264M689.264 771.345V778.872M689.264 771.345H691.937V778.872H689.264M621.517 778.872H689.264" stroke="black" stroke-width="2" stroke-miterlimit="10" stroke-linecap="square"/>
</g>
<g id="Vector_47">
<path d="M691.936 771.35H689.226V778.877H691.936M611.843 771.35H610.337V778.877H611.843V771.35ZM574.205 771.35H575.71V778.877H574.205V771.35ZM610.337 771.35V736.723ZM610.337 736.723L604.315 737.25L598.519 738.793L593.024 741.353L588.093 744.815L583.84 749.106L580.378 754.036L577.818 759.494L576.237 765.328L575.71 771.35M621.516 778.877H623.021V771.35H621.516V778.877Z" fill="#F5F5F5"/>
<path d="M691.936 771.35H689.226V778.877H691.936M610.337 771.35H611.843V778.877H610.337V771.35ZM610.337 771.35V736.723L604.315 737.25L598.519 738.793L593.024 741.353L588.093 744.815L583.84 749.106L580.378 754.036L577.818 759.494L576.237 765.328L575.71 771.35M575.71 771.35H574.205V778.877H575.71V771.35ZM621.516 778.877H623.021V771.35H621.516V778.877Z" stroke="black" stroke-width="2" stroke-miterlimit="10" stroke-linecap="square"/>
</g>
<g id="Vector_48">
<path d="M689.26 778.872H687.754V771.345H689.26V778.872ZM623.018 778.872V811.241ZM687.754 778.872V811.241ZM623.018 811.241L628.626 810.751L634.083 809.284L639.164 806.912L643.794 803.676L647.783 799.686L651.02 795.057L653.391 789.938L654.897 784.48L655.348 778.872" fill="#F5F5F5"/>
<path d="M687.754 778.872H689.26V771.345H687.754V778.872ZM687.754 778.872V811.241M623.018 778.872V811.241L628.626 810.751L634.083 809.284L639.164 806.912L643.794 803.676L647.783 799.686L651.02 795.057L653.391 789.938L654.897 784.48L655.348 778.872" stroke="black" stroke-width="2" stroke-miterlimit="10" stroke-linecap="square"/>
</g>
<g id="Vector_49">
<path d="M687.784 811.243L682.139 810.754L676.681 809.286L671.563 806.914L666.971 803.678L662.981 799.688L659.744 795.059L657.336 789.94L655.905 784.482L655.378 778.874M613.676 771.347H620.451V723.472H613.676V771.347ZM620.451 771.347V745.753Z" fill="#F5F5F5"/>
<path d="M687.784 811.243L682.139 810.754L676.681 809.286L671.563 806.914L666.971 803.678L662.981 799.688L659.744 795.059L657.336 789.94L655.905 784.482L655.378 778.874M620.451 771.347H613.676V723.472H620.451V771.347ZM620.451 771.347V745.753" stroke="black" stroke-width="2" stroke-miterlimit="10" stroke-linecap="square"/>
</g>
<g id="Vector_50">
<path d="M620.451 741.243V723.478H613.676V771.353M613.676 685.803H620.451V665.215H613.676V685.803Z" fill="#F5F5F5"/>
<path d="M620.451 741.243V723.478H613.676V771.353M613.676 685.803H620.451V665.215H613.676V685.803Z" stroke="black" stroke-width="2" stroke-miterlimit="10" stroke-linecap="square"/>
</g>
<g id="Vector_51">
<path d="M613.676 665.215V685.84H620.451V685.539M620.451 681.023V665.215Z" fill="#F5F5F5"/>
<path d="M613.676 665.215V685.84H620.451V685.539M620.451 681.023V665.215" stroke="black" stroke-width="2" stroke-miterlimit="10" stroke-linecap="square"/>
</g>
<g id="Vector_52">
<path d="M613.687 685.8V687.305H620.462V685.8H613.687ZM613.687 723.438V721.932H620.462V723.438H613.687ZM613.687 687.305H579.061Z" fill="#F5F5F5"/>
<path d="M613.687 687.305V685.8H620.462V687.305H613.687ZM613.687 687.305H579.061M613.687 723.438V721.932H620.462V723.438H613.687Z" stroke="black" stroke-width="2" stroke-miterlimit="10" stroke-linecap="square"/>
</g>
<g id="Vector_53">
<path d="M579.087 687.304L579.614 693.326L581.195 699.198L583.754 704.655L587.217 709.586L591.47 713.877L596.401 717.339L601.896 719.861L607.73 721.442L613.752 721.969M692.001 745.756V741.239H620.489V745.756H692.001ZM692.001 741.239H620.489ZM620.489 745.756H692.001ZM530.911 636.117L524.136 629.342H486.875V636.117H530.911ZM524.136 629.342H486.875ZM486.875 636.117H530.911Z" fill="#F5F5F5"/>
<path d="M579.087 687.304L579.614 693.326L581.195 699.198L583.754 704.655L587.217 709.586L591.47 713.877L596.401 717.339L601.896 719.861L607.73 721.442L613.752 721.969M692.001 745.756V741.239H620.489V745.756H692.001ZM530.911 636.117L524.136 629.342H486.875V636.117H530.911Z" stroke="black" stroke-width="2" stroke-miterlimit="10" stroke-linecap="square"/>
</g>
<g id="Vector_54">
<path d="M530.839 547.397H524.064V629.372L530.839 636.147V547.397ZM524.064 547.397V629.372ZM530.839 629.334V547.397ZM613.642 629.334H613.567V636.109H613.642" fill="#F5F5F5"/>
<path d="M530.839 547.397H524.064V629.372L530.839 636.147V547.397ZM530.839 547.397V629.334M613.642 629.334H613.567V636.109H613.642" stroke="black" stroke-width="2" stroke-miterlimit="10" stroke-linecap="square"/>
</g>
<g id="Vector_55">
<path d="M575.997 636.117V629.342H530.832V636.117H575.922M530.832 636.117H540.091Z" fill="#F5F5F5"/>
<path d="M575.997 636.117V629.342H530.832V636.117M530.832 636.117H575.922M530.832 636.117H540.091" stroke="black" stroke-width="2" stroke-miterlimit="10" stroke-linecap="square"/>
</g>
<g id="Vector_56">
<path d="M544.648 636.117H576V629.342H530.91M613.675 636.117H612.17V629.342H613.675V636.117ZM576 636.117H577.543V629.342H576V636.117ZM612.17 636.117V670.744ZM612.17 670.744L606.148 670.255L600.314 668.674L594.819 666.152L589.888 662.689L585.635 658.399L582.173 653.468L579.613 648.011L578.033 642.177L577.506 636.155M540.131 636.117V636.268H544.648V636.117M544.648 670.142H540.131V684.557H544.648V670.142Z" fill="#F5F5F5"/>
<path d="M576 636.117H544.648V636.268H540.131V636.117M576 636.117V629.342M576 636.117H577.543V629.342H576M576 629.342H530.91M612.17 636.117H613.675V629.342H612.17V636.117ZM612.17 636.117V670.744L606.148 670.255L600.314 668.674L594.819 666.152L589.888 662.689L585.635 658.399L582.173 653.468L579.613 648.011L578.033 642.177L577.506 636.155M544.648 670.142H540.131V684.557H544.648V670.142Z" stroke="black" stroke-width="2" stroke-miterlimit="10" stroke-linecap="square"/>
</g>
<g id="Vector_57">
<path d="M540.094 682.523V684.555H544.61V670.14H540.094V678.006M544.61 718.429H540.094V731.226H544.61V718.429Z" fill="#F5F5F5"/>
<path d="M540.094 682.523V684.555H544.61V670.14H540.094V678.006M544.61 718.429H540.094V731.226H544.61V718.429Z" stroke="black" stroke-width="2" stroke-miterlimit="10" stroke-linecap="square"/>
</g>
<g id="Vector_58">
<path d="M540.094 729.181V731.214H544.61V718.417H540.094V724.665M544.61 765.088H540.094V771.336H544.61V765.088Z" fill="#F5F5F5"/>
<path d="M540.094 729.181V731.214H544.61V718.417H540.094V724.665M544.61 765.088H540.094V771.336H544.61V765.088Z" stroke="black" stroke-width="2" stroke-miterlimit="10" stroke-linecap="square"/>
</g>
<g id="Vector_59">
<path d="M544.649 771.345V765.097H540.132V771.345M544.649 636.264V637.769H540.132V636.264H544.649ZM544.649 670.137V668.632H540.132V670.137H544.649ZM544.649 637.769H575.512ZM575.512 637.769L575.06 643.114L573.668 648.308L571.409 653.2L568.323 657.604L564.484 661.368L560.08 664.492L555.188 666.75L550.031 668.143L544.649 668.632M544.649 684.553V686.058H540.132V684.553H544.649ZM544.649 718.427V716.921H540.132V718.427H544.649ZM544.649 686.058H575.512ZM575.512 686.058L575.06 691.403L573.668 696.597L571.409 701.49L568.323 705.893L564.484 709.657L560.08 712.781L555.188 715.039L550.031 716.432L544.649 716.921M544.649 731.223V732.729H540.132V731.223H544.649ZM544.649 765.097V763.592H540.132V765.097H544.649ZM544.649 732.729H575.512ZM575.512 732.729L575.06 738.073L573.668 743.305L571.409 748.16L568.323 752.564L564.484 756.365L560.08 759.452L555.188 761.71L550.031 763.14L544.649 763.592M692.001 685.531V681.015H620.489V685.531H692.001ZM692.001 681.015H620.489ZM620.489 685.531H692.001ZM486.875 724.674V729.191H540.132V724.674H486.875ZM486.875 729.191H540.132ZM540.132 724.674H486.875ZM486.875 678.004V682.52H540.132V678.004H486.875ZM486.875 682.52H540.132ZM540.132 678.004H486.875ZM1007.74 311.036L1008.72 311.977H1024.57V311.036H1007.74Z" fill="#F5F5F5"/>
<path d="M544.649 771.345V765.097M544.649 765.097H540.132M544.649 765.097V763.592M540.132 765.097V771.345M540.132 765.097V763.592H544.649M544.649 637.769V636.264H540.132V637.769H544.649ZM544.649 637.769H575.512L575.06 643.114L573.668 648.308L571.409 653.2L568.323 657.604L564.484 661.368L560.08 664.492L555.188 666.75L550.031 668.143L544.649 668.632M544.649 668.632V670.137H540.132V668.632H544.649ZM544.649 686.058V684.553H540.132V686.058H544.649ZM544.649 686.058H575.512L575.06 691.403L573.668 696.597L571.409 701.49L568.323 705.893L564.484 709.657L560.08 712.781L555.188 715.039L550.031 716.432L544.649 716.921M544.649 716.921V718.427H540.132V716.921H544.649ZM544.649 732.729V731.223H540.132V732.729H544.649ZM544.649 732.729H575.512L575.06 738.073L573.668 743.305L571.409 748.16L568.323 752.564L564.484 756.365L560.08 759.452L555.188 761.71L550.031 763.14L544.649 763.592M692.001 685.531V681.015H620.489V685.531H692.001ZM486.875 724.674V729.191H540.132V724.674H486.875ZM486.875 678.004V682.52H540.132V678.004H486.875ZM1007.74 311.036L1008.72 311.977H1024.57V311.036H1007.74Z" stroke="black" stroke-width="2" stroke-miterlimit="10" stroke-linecap="square"/>
</g>
<g id="Vector_60">
<path d="M1008.69 311.977H1024.53V311.036H1007.71M1024.53 324.586V323.645H1008.65L1007.74 324.586H1024.53Z" fill="#F5F5F5"/>
<path d="M1008.69 311.977H1024.53V311.036H1007.71M1024.53 324.586V323.645H1008.65L1007.74 324.586H1024.53Z" stroke="black" stroke-width="2" stroke-miterlimit="10" stroke-linecap="square"/>
</g>
<g id="Vector_61">
<path d="M1007.71 324.585H1024.53V323.644H1008.65" fill="#F5F5F5"/>
<path d="M1007.71 324.585H1024.53V323.644H1008.65" stroke="black" stroke-width="2" stroke-miterlimit="10" stroke-linecap="square"/>
</g>
<g id="Vector_62">
<path d="M1007.74 324.586L1008.72 323.645V311.977L1007.74 311.036V324.586ZM1008.72 323.645V311.977ZM1007.74 320.408V324.548ZM1007.74 311.036V315.138ZM867.955 539.873H873.224V471.711H867.955V539.873Z" fill="#F5F5F5"/>
<path d="M1007.74 311.036L1008.72 311.977V323.645L1007.74 324.586V311.036ZM1007.74 311.036V315.138M1007.74 320.408V324.548M867.955 539.873H873.224V471.711H867.955V539.873Z" stroke="black" stroke-width="2" stroke-miterlimit="10" stroke-linecap="square"/>
</g>
<g id="Vector_63">
<path d="M873.224 539.877V471.715H867.955V539.839M867.955 434.077H873.224V425.496H867.955V434.077Z" fill="#F5F5F5"/>
<path d="M873.224 539.877V471.715H867.955V539.839M867.955 434.077H873.224V425.496H867.955V434.077Z" stroke="black" stroke-width="2" stroke-miterlimit="10" stroke-linecap="square"/>
</g>
<g id="Vector_64">
<path d="M873.224 427.941V425.495H867.955V434.076H873.224V433.211M867.955 387.857H873.224V248.221H867.955V387.857Z" fill="#F5F5F5"/>
<path d="M873.224 427.941V425.495H867.955V434.076H873.224V433.211M867.955 387.857H873.224V248.221H867.955V387.857Z" stroke="black" stroke-width="2" stroke-miterlimit="10" stroke-linecap="square"/>
</g>
<g id="Vector_65">
<path d="M873.224 315.14V248.258H867.955V387.856H873.224V320.409M867.955 210.62H873.224V199.705H867.955V210.62Z" fill="#F5F5F5"/>
<path d="M873.224 315.14V248.258H867.955V387.856H873.224V320.409M867.955 210.62H873.224V199.705H867.955V210.62Z" stroke="black" stroke-width="2" stroke-miterlimit="10" stroke-linecap="square"/>
</g>
<g id="Vector_66">
<path d="M873.224 202.306V199.709H867.955V210.624H873.224V207.575M867.955 162.071H873.224V94.436H867.955V162.071Z" fill="#F5F5F5"/>
<path d="M873.224 202.306V199.709H867.955V210.624H873.224V207.575M867.955 162.071H873.224V94.436H867.955V162.071Z" stroke="black" stroke-width="2" stroke-miterlimit="10" stroke-linecap="square"/>
</g>
<g id="Vector_67">
<path d="M867.951 162.071H873.22V94.436H867.951V162.071ZM867.951 434.079V435.584H873.22V434.079H867.951ZM867.951 471.716V470.211H873.22V471.716H867.951ZM867.951 435.584H833.324ZM833.324 435.584L833.851 441.606L835.432 447.402L837.991 452.898L841.454 457.828L845.707 462.119L850.638 465.581L856.133 468.103L861.966 469.684L867.951 470.211M867.951 425.497V423.992H873.22V425.497H867.951ZM867.951 387.86V389.365H873.22V387.86H867.951ZM867.951 423.992H833.324ZM833.324 423.992L833.851 417.97L835.432 412.136L837.991 406.679L841.454 401.71L845.707 397.457L850.638 393.994L856.133 391.435L861.966 389.892L867.951 389.365M867.951 210.624V212.129H873.22V210.624H867.951ZM867.951 248.262V246.756H873.22V248.262H867.951ZM867.951 212.129H833.324ZM833.324 212.129L833.851 218.151L835.432 223.985L837.991 229.443L841.454 234.373L845.707 238.664L850.638 242.127L856.133 244.648L861.966 246.229L867.951 246.756M867.951 199.709V198.203H873.22V199.709H867.951ZM867.951 162.071V163.577H873.22V162.071H867.951ZM867.951 198.203H833.324ZM833.324 198.203L833.851 192.181L835.432 186.385L837.991 180.89L841.454 175.959L845.707 171.669L850.638 168.206L856.133 165.684L861.966 164.104L867.951 163.577M1024.56 207.575V202.306H873.258V207.575H1024.56Z" fill="#F5F5F5"/>
<path d="M867.951 162.071H873.22M867.951 162.071V94.436H873.22V162.071M867.951 162.071V163.577M873.22 162.071V163.577H867.951M867.951 435.584V434.079H873.22V435.584H867.951ZM867.951 435.584H833.324L833.851 441.606L835.432 447.402L837.991 452.898L841.454 457.828L845.707 462.119L850.638 465.581L856.133 468.103L861.966 469.684L867.951 470.211M867.951 470.211V471.716H873.22V470.211H867.951ZM867.951 423.992V425.497H873.22V423.992H867.951ZM867.951 423.992H833.324L833.851 417.97L835.432 412.136L837.991 406.679L841.454 401.71L845.707 397.457L850.638 393.994L856.133 391.435L861.966 389.892L867.951 389.365M867.951 389.365V387.86H873.22V389.365H867.951ZM867.951 212.129V210.624H873.22V212.129H867.951ZM867.951 212.129H833.324L833.851 218.151L835.432 223.985L837.991 229.443L841.454 234.373L845.707 238.664L850.638 242.127L856.133 244.648L861.966 246.229L867.951 246.756M867.951 246.756V248.262H873.22V246.756H867.951ZM867.951 198.203V199.709H873.22V198.203H867.951ZM867.951 198.203H833.324L833.851 192.181L835.432 186.385L837.991 180.89L841.454 175.959L845.707 171.669L850.638 168.206L856.133 165.684L861.966 164.104L867.951 163.577M1024.56 207.575V202.306H873.258V207.575H1024.56Z" stroke="black" stroke-width="2" stroke-miterlimit="10" stroke-linecap="square"/>
</g>
<g id="Vector_68">
<path d="M873.168 207.564H1024.51V202.294H873.206M873.168 427.932V433.202H1024.51V427.932H873.168Z" fill="#F5F5F5"/>
<path d="M873.168 207.564H1024.51V202.294H873.206M873.168 427.932V433.202H1024.51V427.932H873.168Z" stroke="black" stroke-width="2" stroke-miterlimit="10" stroke-linecap="square"/>
</g>
<g id="Vector_69">
<path d="M873.212 433.213H1024.55V427.944H873.25M873.212 315.143V320.413H1007.77V315.143H873.212ZM873.212 320.413H1007.77ZM1007.77 315.143H873.212ZM582.047 94.436H576.777V385.187H582.047V94.436Z" fill="#F5F5F5"/>
<path d="M873.212 433.213H1024.55V427.944H873.25M873.212 315.143V320.413H1007.77V315.143H873.212ZM582.047 94.436H576.777V385.187H582.047V94.436Z" stroke="black" stroke-width="2" stroke-miterlimit="10" stroke-linecap="square"/>
</g>
<path id="Vector_70" d="M582.047 94.436H576.777V385.187H582.047V94.436ZM582.047 422.825H576.777V474.201L582.047 479.47V422.825Z" fill="#F5F5F5" stroke="black" stroke-width="2" stroke-miterlimit="10" stroke-linecap="square"/>
<g id="Vector_71">
<path d="M582.047 479.455V422.81H576.777V474.186M582.047 385.172V386.678H576.777V385.172H582.047ZM582.047 422.81V421.305H576.777V422.81H582.047ZM582.047 386.678H616.673ZM616.673 386.678L616.184 392.7L614.603 398.534L612.044 403.991L608.581 408.922L604.328 413.213L599.398 416.675L593.903 419.197L588.069 420.778L582.047 421.305" fill="#F5F5F5"/>
<path d="M582.047 479.455V422.81M582.047 422.81H576.777M582.047 422.81V421.305M576.777 422.81V474.186M576.777 422.81V421.305H582.047M582.047 386.678V385.172H576.777V386.678H582.047ZM582.047 386.678H616.673L616.184 392.7L614.603 398.534L612.044 403.991L608.581 408.922L604.328 413.213L599.398 416.675L593.903 419.197L588.069 420.778L582.047 421.305" stroke="black" stroke-width="2" stroke-miterlimit="10" stroke-linecap="square"/>
</g>
<g id="Vector_72">
<path d="M582.055 479.466L576.786 474.197H198.113V479.466H582.131" fill="#F5F5F5"/>
<path d="M582.055 479.466L576.786 474.197H198.113V479.466H582.131" stroke="black" stroke-width="2" stroke-miterlimit="10" stroke-linecap="square"/>
</g>
<g id="Vector_73">
<path d="M576.732 474.197H198.059V479.466H582.076M160.383 479.466V474.197H108.443V479.466H160.383Z" fill="#F5F5F5"/>
<path d="M576.732 474.197H198.059V479.466H582.076M160.383 479.466V474.197H108.443V479.466H160.383Z" stroke="black" stroke-width="2" stroke-miterlimit="10" stroke-linecap="square"/>
</g>
<g id="Vector_74">
<path d="M160.409 479.466V474.197H108.469V479.466H160.409ZM160.409 479.466H161.915V474.197H160.409V479.466ZM198.047 479.466H196.541V474.197H198.047V479.466ZM161.915 479.466V514.093ZM161.915 514.093L167.937 513.566L173.77 511.985L179.228 509.463L184.196 506.001L188.449 501.71L191.912 496.779L194.471 491.322L196.014 485.488L196.541 479.466M108.431 1027.28H93V1136.06H108.431V1027.28Z" fill="#F5F5F5"/>
<path d="M160.409 479.466V474.197M160.409 479.466H108.469V474.197H160.409M160.409 479.466H161.915M160.409 474.197H161.915V479.466M161.915 479.466V514.093L167.937 513.566L173.77 511.985L179.228 509.463L184.196 506.001L188.449 501.71L191.912 496.779L194.471 491.322L196.014 485.488L196.541 479.466M196.541 479.466H198.047V474.197H196.541V479.466ZM108.431 1027.28H93V1136.06H108.431V1027.28Z" stroke="black" stroke-width="2" stroke-miterlimit="10" stroke-linecap="square"/>
</g>
<g id="Vector_75">
<path d="M108.431 1027.27H93V1136.05H108.431V1027.27ZM108.431 1136.05V1373.2ZM93 1136.05V1373.2ZM108.431 1373.2H93V1401.96H108.431V1373.2Z" fill="#F5F5F5"/>
<path d="M93 1136.05V1027.27H108.431V1136.05M93 1136.05H108.431M93 1136.05V1373.2M108.431 1136.05V1373.2M108.431 1373.2H93M108.431 1373.2V1401.96H93V1373.2" stroke="black" stroke-width="2" stroke-miterlimit="10" stroke-linecap="square"/>
</g>
<g id="Vector_76">
<path d="M108.431 1401.97V1373.21H93V1401.97M93 1136.09V1137.6H108.431V1136.09H93ZM93 1373.21V1371.71H108.431V1373.21H93ZM93 1137.6V1371.71ZM100.716 1137.6V1371.71ZM108.431 1137.6V1371.71ZM479.313 1024.88V1024.5H374.304V1024.88H479.313ZM479.313 1024.5H374.304V1019.76M374.342 1027.28L374.304 1024.88H479.351" fill="#F5F5F5"/>
<path d="M108.431 1401.97V1373.21M108.431 1373.21H93M108.431 1373.21V1371.71M93 1373.21V1401.97M93 1373.21V1371.71M93 1137.6V1136.09H108.431V1137.6M93 1137.6H108.431M93 1137.6V1371.71M108.431 1137.6V1371.71M93 1371.71H108.431M100.716 1137.6V1371.71M374.304 1024.5H479.313V1024.88H374.304M374.304 1024.5V1024.88M374.304 1024.5V1019.76M374.304 1024.88L374.342 1027.28M374.304 1024.88H479.351" stroke="black" stroke-width="2" stroke-miterlimit="10" stroke-linecap="square"/>
</g>
</g>
<g id="workspacesBackGroup">
<g id="wsB36449">
<path d="M576.79 474.205V94.4409H108.502V474.205H576.865" fill="#F5F5F5"/>
<path d="M576.79 474.205V94.4409H108.502V474.205H576.865" stroke="black" stroke-width="2" stroke-miterlimit="10" stroke-linecap="square"/>
</g>
<path id="wsB36455" d="M867.882 539.883V94.4409H581.986V242.884H625.872V345.522H581.986V539.883H867.882Z" fill="#F5F5F5" stroke="black" stroke-width="2" stroke-miterlimit="10" stroke-linecap="square"/>
<path id="wsB36451" d="M374.301 479.473H108.428V906.849H374.338L374.301 479.473Z" fill="#F5F5F5" stroke="black" stroke-width="2" stroke-miterlimit="10" stroke-linecap="square"/>
<path id="wsB36453" d="M479.326 869.212V539.882H582.077V479.473H374.316V869.212H479.326Z" fill="#F5F5F5" stroke="black" stroke-width="2" stroke-miterlimit="10" stroke-linecap="square"/>
<g id="wsB36435">
<path d="M763.45 718.669H1024.5V547.417H968.801V611.966H819.116V547.417H763.412V718.669" fill="#F5F5F5"/>
<path d="M763.45 718.669H1024.5V547.417H968.801V611.966H819.116V547.417H763.412V718.669" stroke="black" stroke-width="2" stroke-miterlimit="10" stroke-linecap="square"/>
</g>
<path id="wsB36439" d="M486.861 895.563H691.987V778.886H486.861V895.563Z" fill="#F5F5F5" stroke="black" stroke-width="2" stroke-miterlimit="10" stroke-linecap="square"/>
<path id="wsB36438" d="M108.428 1019.77H323.49V914.385H108.428V1019.77Z" fill="#F5F5F5" stroke="black" stroke-width="2" stroke-miterlimit="10" stroke-linecap="square"/>
<path id="wsB36437" d="M1024.55 94.4409H873.246V202.311H1024.55V94.4409Z" fill="#F5F5F5" stroke="black" stroke-width="2" stroke-miterlimit="10" stroke-linecap="square"/>
<path id="wsB36452" d="M479.325 1024.51V869.213H374.316V1024.51H479.325Z" fill="#F5F5F5" stroke="black" stroke-width="2" stroke-miterlimit="10" stroke-linecap="square"/>
<path id="wsB36446" d="M873.166 207.575V315.143H1007.72V311.003H1024.51V207.575H873.166Z" fill="#F5F5F5" stroke="black" stroke-width="2" stroke-miterlimit="10" stroke-linecap="square"/>
<path id="wsB36448" d="M873.166 320.412V427.943H1024.51V324.59H1007.68V320.412H873.166Z" fill="#F5F5F5" stroke="black" stroke-width="2" stroke-miterlimit="10" stroke-linecap="square"/>
<path id="wsB36447" d="M873.166 433.219V539.885H1024.51V433.219H873.166Z" fill="#F5F5F5" stroke="black" stroke-width="2" stroke-miterlimit="10" stroke-linecap="square"/>
<path id="wsB36436" d="M607.281 1019.76H691.966V903.083H607.281V1019.76Z" fill="#F5F5F5" stroke="black" stroke-width="2" stroke-miterlimit="10" stroke-linecap="square"/>
<path id="wsB36440" d="M613.71 665.22V636.164H544.645V771.359H613.71V665.22Z" fill="#F5F5F5" stroke="black" stroke-width="2" stroke-miterlimit="10" stroke-linecap="square"/>
<path id="wsB36450" d="M699.463 669.245H755.919V539.884H699.463V669.245Z" fill="#F5F5F5" stroke="black" stroke-width="2" stroke-miterlimit="10" stroke-linecap="square"/>
<path id="wsB36442" d="M613.697 629.354V547.417H530.895V629.392L613.697 629.354Z" fill="#F5F5F5" stroke="black" stroke-width="2" stroke-miterlimit="10" stroke-linecap="square"/>
<path id="wsB36454" d="M581.986 242.878V345.517H625.872V242.878H581.986Z" fill="#F5F5F5" stroke="black" stroke-width="2" stroke-miterlimit="10" stroke-linecap="square"/>
<path id="wsB36441" d="M691.937 741.246V685.542H620.426V741.246H691.937Z" fill="#F5F5F5" stroke="black" stroke-width="2" stroke-miterlimit="10" stroke-linecap="square"/>
<path id="wsB36444" d="M486.861 729.21V771.365H540.119V729.21H486.861Z" fill="#F5F5F5" stroke="black" stroke-width="2" stroke-miterlimit="10" stroke-linecap="square"/>
<path id="wsB36445" d="M486.861 682.529V724.683H540.119V682.529H486.861Z" fill="#F5F5F5" stroke="black" stroke-width="2" stroke-miterlimit="10" stroke-linecap="square"/>
<path id="wsB36443" d="M540.119 636.125H486.861V678.016H540.119V636.125Z" fill="#F5F5F5" stroke="black" stroke-width="2" stroke-miterlimit="10" stroke-linecap="square"/>
</g>
<g id="workspacesFrontGroup">
<g id="U4_R41">
<path d="M576.79 474.205V94.4409H108.502V474.205H576.865" fill="#F5F5F5"/>
<path d="M576.79 474.205V94.4409H108.502V474.205H576.865" stroke="black" stroke-width="2" stroke-miterlimit="10" stroke-linecap="square"/>
</g>
<path id="wsF36455" d="M867.882 539.883V94.4409H581.986V242.884H625.872V345.522H581.986V539.883H867.882Z" fill="#F5F5F5" stroke="black" stroke-width="2" stroke-miterlimit="10" stroke-linecap="square"/>
<path id="wsF36451" d="M374.301 479.473H108.428V906.849H374.338L374.301 479.473Z" fill="#F5F5F5" stroke="black" stroke-width="2" stroke-miterlimit="10" stroke-linecap="square"/>
<path id="wsF36453" d="M479.326 869.212V539.882H582.077V479.473H374.316V869.212H479.326Z" fill="#F5F5F5" stroke="black" stroke-width="2" stroke-miterlimit="10" stroke-linecap="square"/>
<g id="wsF36435">
<path d="M763.45 718.669H1024.5V547.417H968.801V611.966H819.116V547.417H763.412V718.669" fill="#F5F5F5"/>
<path d="M763.45 718.669H1024.5V547.417H968.801V611.966H819.116V547.417H763.412V718.669" stroke="black" stroke-width="2" stroke-miterlimit="10" stroke-linecap="square"/>
</g>
<path id="wsF36439" d="M486.861 895.563H691.987V778.886H486.861V895.563Z" fill="#F5F5F5" stroke="black" stroke-width="2" stroke-miterlimit="10" stroke-linecap="square"/>
<path id="wsF36438" d="M108.428 1019.77H323.49V914.385H108.428V1019.77Z" fill="#F5F5F5" stroke="black" stroke-width="2" stroke-miterlimit="10" stroke-linecap="square"/>
<path id="wsF36437" d="M1024.55 94.4409H873.246V202.311H1024.55V94.4409Z" fill="#F5F5F5" stroke="black" stroke-width="2" stroke-miterlimit="10" stroke-linecap="square"/>
<path id="wsF36452" d="M479.325 1024.51V869.213H374.316V1024.51H479.325Z" fill="#F5F5F5" stroke="black" stroke-width="2" stroke-miterlimit="10" stroke-linecap="square"/>
<path id="wsF36446" d="M873.166 207.575V315.143H1007.72V311.003H1024.51V207.575H873.166Z" fill="#F5F5F5" stroke="black" stroke-width="2" stroke-miterlimit="10" stroke-linecap="square"/>
<path id="wsF36448" d="M873.166 320.412V427.943H1024.51V324.59H1007.68V320.412H873.166Z" fill="#F5F5F5" stroke="black" stroke-width="2" stroke-miterlimit="10" stroke-linecap="square"/>
<path id="wsF36447" d="M873.166 433.219V539.885H1024.51V433.219H873.166Z" fill="#F5F5F5" stroke="black" stroke-width="2" stroke-miterlimit="10" stroke-linecap="square"/>
<path id="wsF36436" d="M607.281 1019.76H691.966V903.083H607.281V1019.76Z" fill="#F5F5F5" stroke="black" stroke-width="2" stroke-miterlimit="10" stroke-linecap="square"/>
<path id="wsF36440" d="M613.71 665.22V636.164H544.645V771.359H613.71V665.22Z" fill="#F5F5F5" stroke="black" stroke-width="2" stroke-miterlimit="10" stroke-linecap="square"/>
<path id="wsF36450" d="M699.463 669.245H755.919V539.884H699.463V669.245Z" fill="#F5F5F5" stroke="black" stroke-width="2" stroke-miterlimit="10" stroke-linecap="square"/>
<path id="wsF36442" d="M613.697 629.354V547.417H530.895V629.392L613.697 629.354Z" fill="#F5F5F5" stroke="black" stroke-width="2" stroke-miterlimit="10" stroke-linecap="square"/>
<path id="wsF36454" d="M581.986 242.878V345.517H625.872V242.878H581.986Z" fill="#F5F5F5" stroke="black" stroke-width="2" stroke-miterlimit="10" stroke-linecap="square"/>
<path id="wsF36441" d="M691.937 741.246V685.542H620.426V741.246H691.937Z" fill="#F5F5F5" stroke="black" stroke-width="2" stroke-miterlimit="10" stroke-linecap="square"/>
<path id="wsF36444" d="M486.861 729.21V771.365H540.119V729.21H486.861Z" fill="#F5F5F5" stroke="black" stroke-width="2" stroke-miterlimit="10" stroke-linecap="square"/>
<path id="wsF36445" d="M486.861 682.529V724.683H540.119V682.529H486.861Z" fill="#F5F5F5" stroke="black" stroke-width="2" stroke-miterlimit="10" stroke-linecap="square"/>
<path id="wsF36443" d="M540.119 636.125H486.861V678.016H540.119V636.125Z" fill="#F5F5F5" stroke="black" stroke-width="2" stroke-miterlimit="10" stroke-linecap="square"/>
</g>
</g>
<path id="U41" d="M329.136 270.091H333.364V293.205C333.364 295.591 332.801 297.722 331.676 299.597C330.563 301.46 328.989 302.932 326.955 304.011C324.92 305.08 322.534 305.614 319.795 305.614C317.057 305.614 314.67 305.08 312.636 304.011C310.602 302.932 309.023 301.46 307.898 299.597C306.784 297.722 306.227 295.591 306.227 293.205V270.091H310.455V292.864C310.455 294.568 310.83 296.085 311.58 297.415C312.33 298.733 313.398 299.773 314.784 300.534C316.182 301.284 317.852 301.659 319.795 301.659C321.739 301.659 323.409 301.284 324.807 300.534C326.205 299.773 327.273 298.733 328.011 297.415C328.761 296.085 329.136 294.568 329.136 292.864V270.091ZM340.374 297.841V294.364L355.714 270.091H358.237V275.477H356.533L344.942 293.818V294.091H365.601V297.841H340.374ZM356.805 305V296.784V295.165V270.091H360.828V305H356.805ZM383.793 270.091V305H379.565V274.523H379.361L370.838 280.182V275.886L379.565 270.091H383.793Z" fill="black"/>
<g id="trappa 8">
<g id="Frame 5">
<g id="Clip path group">
<mask id="mask0_64_413" style="mask-type:luminance" maskUnits="userSpaceOnUse" x="712" y="611" width="37" height="35">
<g id="clip0_2_215">
<path id="Vector_77" d="M748.781 611H712.586V645.902H748.781V611Z" fill="white"/>
</g>
</mask>
<g mask="url(#mask0_64_413)">
<g id="Frame 2">
<path id="Line 1" d="M719.695 639.439V635.561" stroke="black" stroke-width="1.29268"/>
<path id="Line 2" d="M720.986 639.439V635.561" stroke="black" stroke-width="1.29268"/>
<path id="Line 3" d="M719.695 635.561V632.976" stroke="black" stroke-width="1.29268"/>
<path id="Line 4" d="M720.986 635.561V632.976" stroke="black" stroke-width="1.29268"/>
<path id="Line 5" d="M719.695 632.976V630.39" stroke="black" stroke-width="1.29268"/>
<path id="Line 6" d="M720.986 632.976V630.39" stroke="black" stroke-width="1.29268"/>
<path id="Line 7" d="M720.986 630.39V627.805" stroke="black" stroke-width="1.29268"/>
<path id="Line 9" d="M719.695 630.39V627.805" stroke="black" stroke-width="1.29268"/>
<path id="Line 8" d="M719.695 632.976V630.39" stroke="black" stroke-width="1.29268"/>
<path id="Line 10" d="M721.637 628.451H730.685" stroke="black" stroke-width="1.29268"/>
<path id="Line 12" d="M721.637 629.743H730.685" stroke="black" stroke-width="1.29268"/>
<path id="Line 11" d="M720.986 630.39V627.805" stroke="black" stroke-width="1.29268"/>
<path id="Line 13" d="M728.744 627.805V618.756" stroke="black" stroke-width="1.29268"/>
<path id="Line 14" d="M730.037 627.805V618.756" stroke="black" stroke-width="1.29268"/>
<path id="Line 15" d="M730.684 619.402H739.732" stroke="black" stroke-width="1.29268"/>
<path id="Line 16" d="M730.684 620.695H739.732" stroke="black" stroke-width="1.29268"/>
<path id="Line 19" d="M739.086 618.756V609.707" stroke="black" stroke-width="1.29268"/>
<path id="Line 20" d="M737.791 618.756V609.707" stroke="black" stroke-width="1.29268"/>
</g>
</g>
</g>
<path id="Line 17" d="M719.049 637.5H710" stroke="black" stroke-width="1.29268"/>
<path id="Line 18" d="M719.049 638.793H710" stroke="black" stroke-width="1.29268"/>
<path id="Line 21" d="M739.732 611.646H748.781" stroke="black" stroke-width="1.29268"/>
<path id="Line 22" d="M739.732 612.939H748.781" stroke="black" stroke-width="1.29268"/>
</g>
</g>
<g id="trappa 10">
<g id="Frame 5_2">
<g id="Clip path group_2">
<mask id="mask1_64_413" style="mask-type:luminance" maskUnits="userSpaceOnUse" x="410" y="949" width="37" height="35">
<g id="clip0_2_215_2">
<path id="Vector_78" d="M446.781 949H410.586V983.902H446.781V949Z" fill="white"/>
</g>
</mask>
<g mask="url(#mask1_64_413)">
<g id="Frame 2_2">
<path id="Line 1_2" d="M417.695 977.439V973.561" stroke="black" stroke-width="1.29268"/>
<path id="Line 2_2" d="M418.986 977.439V973.561" stroke="black" stroke-width="1.29268"/>
<path id="Line 3_2" d="M417.695 973.561V970.976" stroke="black" stroke-width="1.29268"/>
<path id="Line 4_2" d="M418.986 973.561V970.976" stroke="black" stroke-width="1.29268"/>
<path id="Line 5_2" d="M417.695 970.976V968.39" stroke="black" stroke-width="1.29268"/>
<path id="Line 6_2" d="M418.986 970.976V968.39" stroke="black" stroke-width="1.29268"/>
<path id="Line 7_2" d="M418.986 968.39V965.805" stroke="black" stroke-width="1.29268"/>
<path id="Line 9_2" d="M417.695 968.39V965.805" stroke="black" stroke-width="1.29268"/>
<path id="Line 8_2" d="M417.695 970.976V968.39" stroke="black" stroke-width="1.29268"/>
<path id="Line 10_2" d="M419.637 966.451H428.685" stroke="black" stroke-width="1.29268"/>
<path id="Line 12_2" d="M419.637 967.743H428.685" stroke="black" stroke-width="1.29268"/>
<path id="Line 11_2" d="M418.986 968.39V965.805" stroke="black" stroke-width="1.29268"/>
<path id="Line 13_2" d="M426.744 965.805V956.756" stroke="black" stroke-width="1.29268"/>
<path id="Line 14_2" d="M428.037 965.805V956.756" stroke="black" stroke-width="1.29268"/>
<path id="Line 15_2" d="M428.684 957.402H437.732" stroke="black" stroke-width="1.29268"/>
<path id="Line 16_2" d="M428.684 958.695H437.732" stroke="black" stroke-width="1.29268"/>
<path id="Line 19_2" d="M437.086 956.756V947.707" stroke="black" stroke-width="1.29268"/>
<path id="Line 20_2" d="M435.791 956.756V947.707" stroke="black" stroke-width="1.29268"/>
</g>
</g>
</g>
<path id="Line 17_2" d="M417.049 975.5H408" stroke="black" stroke-width="1.29268"/>
<path id="Line 18_2" d="M417.049 976.793H408" stroke="black" stroke-width="1.29268"/>
<path id="Line 21_2" d="M437.732 949.646H446.781" stroke="black" stroke-width="1.29268"/>
<path id="Line 22_2" d="M437.732 950.939H446.781" stroke="black" stroke-width="1.29268"/>
</g>
</g>
<g id="trappa 9">
<g id="Frame 5_3">
<g id="Clip path group_3">
<mask id="mask2_64_413" style="mask-type:luminance" maskUnits="userSpaceOnUse" x="877" y="648" width="37" height="35">
<g id="clip0_2_215_3">
<path id="Vector_79" d="M913.781 648H877.586V682.902H913.781V648Z" fill="white"/>
</g>
</mask>
<g mask="url(#mask2_64_413)">
<g id="Frame 2_3">
<path id="Line 1_3" d="M884.695 676.439V672.561" stroke="black" stroke-width="1.29268"/>
<path id="Line 2_3" d="M885.986 676.439V672.561" stroke="black" stroke-width="1.29268"/>
<path id="Line 3_3" d="M884.695 672.561V669.976" stroke="black" stroke-width="1.29268"/>
<path id="Line 4_3" d="M885.986 672.561V669.976" stroke="black" stroke-width="1.29268"/>
<path id="Line 5_3" d="M884.695 669.976V667.39" stroke="black" stroke-width="1.29268"/>
<path id="Line 6_3" d="M885.986 669.976V667.39" stroke="black" stroke-width="1.29268"/>
<path id="Line 7_3" d="M885.986 667.39V664.805" stroke="black" stroke-width="1.29268"/>
<path id="Line 9_3" d="M884.695 667.39V664.805" stroke="black" stroke-width="1.29268"/>
<path id="Line 8_3" d="M884.695 669.976V667.39" stroke="black" stroke-width="1.29268"/>
<path id="Line 10_3" d="M886.637 665.451H895.685" stroke="black" stroke-width="1.29268"/>
<path id="Line 12_3" d="M886.637 666.743H895.685" stroke="black" stroke-width="1.29268"/>
<path id="Line 11_3" d="M885.986 667.39V664.805" stroke="black" stroke-width="1.29268"/>
<path id="Line 13_3" d="M893.744 664.805V655.756" stroke="black" stroke-width="1.29268"/>
<path id="Line 14_3" d="M895.037 664.805V655.756" stroke="black" stroke-width="1.29268"/>
<path id="Line 15_3" d="M895.684 656.402H904.732" stroke="black" stroke-width="1.29268"/>
<path id="Line 16_3" d="M895.684 657.695H904.732" stroke="black" stroke-width="1.29268"/>
<path id="Line 19_3" d="M904.086 655.756V646.707" stroke="black" stroke-width="1.29268"/>
<path id="Line 20_3" d="M902.791 655.756V646.707" stroke="black" stroke-width="1.29268"/>
</g>
</g>
</g>
<path id="Line 17_3" d="M884.049 674.5H875" stroke="black" stroke-width="1.29268"/>
<path id="Line 18_3" d="M884.049 675.793H875" stroke="black" stroke-width="1.29268"/>
<path id="Line 21_3" d="M904.732 648.646H913.781" stroke="black" stroke-width="1.29268"/>
<path id="Line 22_3" d="M904.732 649.939H913.781" stroke="black" stroke-width="1.29268"/>
</g>
</g>
<rect id="U4_T03" x="791" y="573" width="1" height="1" fill="#F5F5F5"/>
<rect id="U4_T01" x="728" y="586" width="1" height="1" fill="#F5F5F5"/>
<rect id="U4_01" x="728" y="514" width="1" height="1" fill="#F5F5F5"/>
<rect id="U4_04" x="431" y="514" width="1" height="1" fill="#F5F5F5"/>
<rect id="U4_T02" x="431" y="918" width="1" height="1" fill="#F5F5F5"/>
<rect id="U4_03" x="790" y="514" width="1" height="1" fill="#F5F5F5"/>
<rect id="U4_02" x="728" y="405" width="1" height="1" fill="#F5F5F5"/>
<rect id="U4_U41" x="546" y="405" width="1" height="1" fill="#F5F5F5"/>
</g>
</svg>
