<svg width="1182" height="1584" viewBox="0 0 1182 1584" fill="none" xmlns="http://www.w3.org/2000/svg">
<g id="U5">
<g id="svgDrawingGroup">
<g id="floorGraphicsGroup">
<path id="Vector" d="M522.834 1004.72H635.741V917.404H522.834V1004.72ZM635.741 911.383V888.048H522.834V911.383H635.741ZM727.949 532.39H656.441V645.674H727.949V532.39ZM998.739 532.39H861.18V538.788H998.739V532.39ZM395.248 1004.72H402.775V899.339H395.248V1004.72Z" fill="#F5F5F5" stroke="black" stroke-width="2" stroke-miterlimit="10" stroke-linecap="square"/>
<path id="Vector_2" d="M1060.49 79.4375H234.76H144.434V191.442V891.808H409.955V853.795H515.335V819.02H522.862V880.517H727.978V650.185H649.695V532.385V524.858H735.505V525.084H791.959V524.858H1060.49V79.4375Z" fill="#F5F5F5" stroke="black" stroke-width="2" stroke-miterlimit="10" stroke-linecap="square"/>
<path id="Vector_3" d="M861.135 539.529V592.219H998.694V539.529H861.135ZM1075.88 64L1060.45 79.4306V852.019H1075.88V64Z" fill="#F5F5F5" stroke="black" stroke-width="2" stroke-miterlimit="10" stroke-linecap="square"/>
<g id="Vector_4">
<path d="M1060.49 79.4306V852.02H1075.92V64M1075.92 852.02V897.182ZM1060.49 852.02V897.182ZM1075.92 897.182H1060.49V902.075H1075.92V897.182Z" fill="#F5F5F5"/>
<path d="M1060.49 79.4306V852.02M1060.49 852.02H1075.92M1060.49 852.02V897.182M1075.92 852.02V64M1075.92 852.02V897.182M1075.92 897.182H1060.49M1075.92 897.182V902.075H1060.49V897.182" stroke="black" stroke-width="2" stroke-miterlimit="10" stroke-linecap="square"/>
</g>
<g id="Vector_5">
<path d="M1075.92 897.172H1060.49V902.065H1075.92V897.172ZM1075.92 902.065V920.883ZM1060.49 902.065V920.883ZM1075.92 920.883H1060.49V923.216H1075.92V920.883Z" fill="#F5F5F5"/>
<path d="M1060.49 902.065V897.172H1075.92V902.065M1060.49 902.065H1075.92M1060.49 902.065V920.883M1075.92 902.065V920.883M1075.92 920.883H1060.49M1075.92 920.883V923.216H1060.49V920.883" stroke="black" stroke-width="2" stroke-miterlimit="10" stroke-linecap="square"/>
</g>
<g id="Vector_6">
<path d="M1075.92 920.878H1060.49V923.211H1075.92V920.878ZM1075.92 923.211V1081.28ZM1060.49 923.211V1081.28ZM1075.92 1081.28H1060.49V1189.56H1075.92V1081.28Z" fill="#F5F5F5"/>
<path d="M1060.49 923.211V920.878H1075.92V923.211M1060.49 923.211H1075.92M1060.49 923.211V1081.28M1075.92 923.211V1081.28M1075.92 1081.28H1060.49M1075.92 1081.28V1189.56H1060.49V1081.28" stroke="black" stroke-width="2" stroke-miterlimit="10" stroke-linecap="square"/>
</g>
<g id="Vector_7">
<path d="M1075.92 1081.31H1060.49V1189.58H1075.92V1081.31ZM1075.92 1189.58V1317.55ZM1060.49 1189.58V1317.55ZM1075.92 1317.55H1060.49V1321.31H1075.92V1317.55Z" fill="#F5F5F5"/>
<path d="M1060.49 1189.58V1081.31H1075.92V1189.58M1060.49 1189.58H1075.92M1060.49 1189.58V1317.55M1075.92 1189.58V1317.55M1075.92 1317.55H1060.49M1075.92 1317.55V1321.31H1060.49V1317.55" stroke="black" stroke-width="2" stroke-miterlimit="10" stroke-linecap="square"/>
</g>
<g id="Vector_8">
<path d="M1075.92 1317.53H1060.49V1321.29H1075.92V1317.53ZM1075.92 1321.29V1340.14ZM1060.49 1321.29V1340.14ZM1075.92 1340.14H1060.49V1342.48H1075.92V1340.14Z" fill="#F5F5F5"/>
<path d="M1060.49 1321.29V1317.53H1075.92V1321.29M1060.49 1321.29H1075.92M1060.49 1321.29V1340.14M1075.92 1321.29V1340.14M1075.92 1340.14H1060.49M1075.92 1340.14V1342.48H1060.49V1340.14" stroke="black" stroke-width="2" stroke-miterlimit="10" stroke-linecap="square"/>
</g>
<g id="Vector_9">
<path d="M1075.92 1340.17H1060.49V1342.5H1075.92V1340.17ZM1075.92 1342.5V1421.53ZM1060.49 1342.5V1421.53ZM1075.92 1421.53H1060.49V1488.34H1075.92V1421.53Z" fill="#F5F5F5"/>
<path d="M1060.49 1342.5V1340.17H1075.92V1342.5M1060.49 1342.5H1075.92M1060.49 1342.5V1421.53M1075.92 1342.5V1421.53M1075.92 1421.53H1060.49M1075.92 1421.53V1488.34H1060.49V1421.53" stroke="black" stroke-width="2" stroke-miterlimit="10" stroke-linecap="square"/>
</g>
<g id="Vector_10">
<path d="M1060.49 1486.47V1488.35H1075.92V1421.54H1060.49V1471.03M1075.92 897.201V895.696H1060.49V897.201H1075.92ZM1075.92 852.038V853.543H1060.49V852.038H1075.92ZM1075.92 895.696V853.543ZM1068.21 895.696V853.543ZM1060.49 895.696V853.543ZM1060.49 920.912V919.406H1075.92V920.912H1060.49ZM1060.49 902.094V903.599H1075.92V902.094H1060.49ZM1060.49 919.406V903.599ZM1068.21 919.406V903.599ZM1075.92 919.406V903.599ZM1060.49 919.406L1054.17 903.599ZM1075.92 923.245V924.751H1060.49V923.245H1075.92ZM1075.92 1081.32V1079.81H1060.49V1081.32H1075.92ZM1075.92 924.751V1079.81ZM1068.21 924.751V1079.81ZM1060.49 924.751V1079.81ZM1075.92 1189.59V1191.1H1060.49V1189.59H1075.92ZM1075.92 1317.56V1316.05H1060.49V1317.56H1075.92ZM1075.92 1191.1V1316.05ZM1068.21 1191.1V1316.05ZM1060.49 1191.1V1316.05ZM1060.49 1340.18V1338.67H1075.92V1340.18H1060.49ZM1060.49 1321.36V1322.86H1075.92V1321.36H1060.49ZM1060.49 1338.67V1322.86ZM1068.21 1338.67V1322.86ZM1075.92 1338.67V1322.86ZM1060.49 1338.67L1054.17 1322.86ZM1075.92 1421.54V1420.04H1060.49V1421.54H1075.92ZM1075.92 1342.51V1344.01H1060.49V1342.51H1075.92ZM1075.92 1420.04V1344.01ZM1068.21 1420.04V1344.01ZM1060.49 1420.04V1344.01ZM144.434 891.819V899.346H402.766L410.293 891.819H144.434Z" fill="#F5F5F5"/>
<path d="M1060.49 1486.47V1488.35H1075.92V1421.54M1075.92 1421.54H1060.49M1075.92 1421.54V1420.04M1060.49 1421.54V1471.03M1060.49 1421.54V1420.04M1075.92 895.696V897.201H1060.49V895.696M1075.92 895.696H1060.49M1075.92 895.696V853.543M1060.49 895.696V853.543M1075.92 853.543V852.038H1060.49V853.543M1075.92 853.543H1060.49M1068.21 895.696V853.543M1060.49 919.406V920.912H1075.92V919.406M1060.49 919.406H1075.92M1060.49 919.406V903.599M1060.49 919.406L1054.17 903.599M1075.92 919.406V903.599M1060.49 903.599V902.094H1075.92V903.599M1060.49 903.599H1075.92M1068.21 919.406V903.599M1075.92 924.751V923.245H1060.49V924.751M1075.92 924.751H1060.49M1075.92 924.751V1079.81M1060.49 924.751V1079.81M1075.92 1079.81V1081.32H1060.49V1079.81M1075.92 1079.81H1060.49M1068.21 924.751V1079.81M1075.92 1191.1V1189.59H1060.49V1191.1M1075.92 1191.1H1060.49M1075.92 1191.1V1316.05M1060.49 1191.1V1316.05M1075.92 1316.05V1317.56H1060.49V1316.05M1075.92 1316.05H1060.49M1068.21 1191.1V1316.05M1060.49 1338.67V1340.18H1075.92V1338.67M1060.49 1338.67H1075.92M1060.49 1338.67V1322.86M1060.49 1338.67L1054.17 1322.86M1075.92 1338.67V1322.86M1060.49 1322.86V1321.36H1075.92V1322.86M1060.49 1322.86H1075.92M1068.21 1338.67V1322.86M1075.92 1420.04H1060.49M1075.92 1420.04V1344.01M1060.49 1420.04V1344.01M1075.92 1344.01V1342.51H1060.49V1344.01M1075.92 1344.01H1060.49M1068.21 1420.04V1344.01M144.434 891.819V899.346H402.766L410.293 891.819H144.434Z" stroke="black" stroke-width="2" stroke-miterlimit="10" stroke-linecap="square"/>
</g>
<g id="Vector_11">
<path d="M410.331 891.804H144.434V899.331H391.475M395.239 899.331H402.766ZM410.331 891.804L402.766 899.331L402.804 1004.71H410.331V891.804ZM402.766 899.331L402.804 1004.71ZM410.331 1004.71V891.804ZM735.467 524.854L727.94 532.382V1004.71H735.467V524.854ZM727.94 888.04V1004.71ZM735.467 654.209V524.854ZM727.94 532.382V645.666ZM727.94 650.182V880.513ZM735.467 1004.71V654.623ZM515.297 1004.71H522.824V819.016H515.297V1004.71ZM522.824 1004.71V917.396ZM515.297 854.168V1004.71ZM522.824 911.375V888.04Z" fill="#F5F5F5"/>
<path d="M410.331 891.804H144.434V899.331H391.475M410.331 891.804L402.766 899.331M410.331 891.804V1004.71H402.804L402.766 899.331M395.239 899.331H402.766M735.467 524.854L727.94 532.382M735.467 524.854V1004.71M735.467 524.854V654.209M727.94 532.382V1004.71M727.94 532.382V645.666M727.94 1004.71H735.467M727.94 1004.71V888.04M735.467 1004.71V654.623M727.94 650.182V880.513M515.297 1004.71H522.824M515.297 1004.71V819.016H522.824V1004.71M515.297 1004.71V854.168M522.824 1004.71V917.396M522.824 911.375V888.04" stroke="black" stroke-width="2" stroke-miterlimit="10" stroke-linecap="square"/>
</g>
<g id="Vector_12">
<path d="M522.808 880.513V819.016H515.281V853.792M791.905 524.854L799.432 532.382H1060.47V524.854H791.905ZM799.432 532.382H855.133Z" fill="#F5F5F5"/>
<path d="M522.808 880.513V819.016H515.281V853.792M799.432 532.382L791.905 524.854H1060.47V532.382H799.432ZM799.432 532.382H855.133" stroke="black" stroke-width="2" stroke-miterlimit="10" stroke-linecap="square"/>
</g>
<g id="Vector_13">
<path d="M1004.72 532.382H1060.46V524.854H791.887M861.137 532.382H998.696ZM1060.46 711.152V703.625H799.414L791.887 711.152H1060.46Z" fill="#F5F5F5"/>
<path d="M1004.72 532.382H1060.46V524.854H791.887M861.137 532.382H998.696M1060.46 711.152V703.625H799.414L791.887 711.152H1060.46Z" stroke="black" stroke-width="2" stroke-miterlimit="10" stroke-linecap="square"/>
</g>
<g id="Vector_14">
<path d="M791.887 711.154H1060.46V703.627H799.414" fill="#F5F5F5"/>
<path d="M791.887 711.154H1060.46V703.627H799.414" stroke="black" stroke-width="2" stroke-miterlimit="10" stroke-linecap="square"/>
</g>
<g id="Vector_15">
<path d="M791.947 711.152L799.474 703.625V532.382L791.947 524.854V711.152ZM799.474 703.625V532.382ZM791.947 654.585V711.152ZM791.947 524.854V654.247ZM635.758 880.513L643.285 888.04H727.966V880.513H635.758ZM643.285 888.04H727.966ZM727.966 880.513H635.758Z" fill="#F5F5F5"/>
<path d="M791.947 711.152L799.474 703.625V532.382L791.947 524.854M791.947 711.152V524.854M791.947 711.152V654.585M791.947 524.854V654.247M635.758 880.513L643.285 888.04H727.966V880.513H635.758Z" stroke="black" stroke-width="2" stroke-miterlimit="10" stroke-linecap="square"/>
</g>
<g id="Vector_16">
<path d="M635.759 1004.72H643.286V888.048L635.759 880.521V1004.72ZM643.286 1004.72V888.048ZM635.759 917.404V1004.72ZM635.759 888.048V911.383ZM522.852 911.383V917.404H635.759V911.383H522.852ZM522.852 917.404H635.759ZM635.759 911.383H522.852ZM522.852 880.521V888.048H635.759V880.521H522.852ZM522.852 888.048H635.759ZM635.759 880.521H522.852ZM1004.78 598.252L998.757 592.231H861.198L855.176 598.252H1004.78ZM998.757 592.231H861.198ZM855.176 598.252H1004.78ZM855.176 598.252L861.198 592.231V532.39H855.176V598.252ZM861.198 538.788V532.39ZM855.176 532.39V598.252ZM861.198 592.231V539.54Z" fill="#F5F5F5"/>
<path d="M635.759 1004.72H643.286V888.048L635.759 880.521M635.759 1004.72V880.521M635.759 1004.72V917.404M635.759 880.521V888.048M635.759 880.521H522.852V888.048H635.759M635.759 917.404H522.852V911.383H635.759M635.759 917.404V911.383M635.759 888.048V911.383M861.198 592.231H998.757L1004.78 598.252H855.176M861.198 592.231L855.176 598.252M861.198 592.231V532.39M861.198 592.231V539.54M855.176 598.252V532.39H861.198M861.198 532.39V538.788" stroke="black" stroke-width="2" stroke-miterlimit="10" stroke-linecap="square"/>
</g>
<g id="Vector_17">
<path d="M1004.77 532.378H998.746V592.219L1004.77 598.241V532.378ZM998.746 539.529V592.219ZM1004.77 598.241V532.378ZM998.746 532.378V538.776ZM735.483 654.205V654.582H791.937V654.205H735.483ZM735.483 654.582H791.937ZM791.937 654.205H735.483ZM395.255 899.328H391.491V1004.71H395.255V899.328ZM391.491 899.328V1004.71ZM395.255 1004.71V899.328ZM656.447 645.662L649.673 650.178H727.956V645.662H656.447ZM649.673 650.178H727.956ZM727.956 645.662H656.447ZM234.775 64V79.4306H1060.51L1075.94 64H234.775ZM234.775 79.4306H1060.51ZM1075.94 64H234.775ZM649.673 524.851V532.378H727.956L735.483 524.851H649.673Z" fill="#F5F5F5"/>
<path d="M998.746 532.378H1004.77V598.241L998.746 592.219M998.746 532.378V592.219M998.746 532.378V538.776M998.746 592.219V539.529M735.483 654.205V654.582H791.937V654.205H735.483ZM395.255 899.328H391.491V1004.71H395.255V899.328ZM656.447 645.662L649.673 650.178H727.956V645.662H656.447ZM234.775 64V79.4306H1060.51L1075.94 64H234.775ZM649.673 524.851V532.378H727.956L735.483 524.851H649.673Z" stroke="black" stroke-width="2" stroke-miterlimit="10" stroke-linecap="square"/>
</g>
<g id="Vector_18">
<path d="M735.451 524.854H649.641V532.382M656.416 532.382H727.924ZM649.641 650.182L656.416 645.666V532.382H649.641V650.182ZM656.416 645.666V532.382ZM649.641 532.382V650.182ZM515.281 1004.71V1012.24H658.335V1004.71H515.319" fill="#F5F5F5"/>
<path d="M735.451 524.854H649.641V532.382M649.641 532.382H656.416M649.641 532.382V650.182L656.416 645.666V532.382M656.416 532.382H727.924M515.281 1004.71V1012.24H658.335V1004.71H515.319" stroke="black" stroke-width="2" stroke-miterlimit="10" stroke-linecap="square"/>
</g>
<g id="Vector_19">
<path d="M515.281 1012.24H658.335V1004.71H643.281M515.281 1004.71V1011.86ZM635.716 1004.71H522.808ZM658.335 1004.71H714.789ZM658.335 1012.24H714.789ZM714.789 1004.71V1012.24H735.489V1004.71H714.789Z" fill="#F5F5F5"/>
<path d="M515.281 1012.24H658.335M658.335 1012.24V1004.71M658.335 1012.24H714.789M658.335 1004.71H643.281M658.335 1004.71H714.789M515.281 1004.71V1011.86M635.716 1004.71H522.808M714.789 1004.71V1012.24M714.789 1004.71H735.489V1012.24H714.789" stroke="black" stroke-width="2" stroke-miterlimit="10" stroke-linecap="square"/>
</g>
<g id="Vector_20">
<path d="M727.915 1004.71H714.78V1012.24H735.48V1004.71M658.326 1004.71H659.831V1012.24H658.326V1004.71ZM714.78 1004.71H713.274V1012.24H714.78V1004.71Z" fill="#F5F5F5"/>
<path d="M727.915 1004.71H714.78M714.78 1004.71V1012.24M714.78 1004.71H713.274V1012.24H714.78M714.78 1012.24H735.48V1004.71M658.326 1004.71H659.831V1012.24H658.326V1004.71Z" stroke="black" stroke-width="2" stroke-miterlimit="10" stroke-linecap="square"/>
</g>
<g id="Vector_21">
<path d="M658.348 1004.71H714.802V1012.24H658.348M129 64L144.431 79.4306H234.757V64H129ZM144.431 79.4306H234.757ZM234.757 64H129ZM129 191.435H144.431V79.4306L129 64V191.435ZM144.431 191.435V79.4306ZM129 64V191.435ZM410.328 1012.24V1004.71H388.048V1012.24H410.328ZM410.328 1011.86V1004.71Z" fill="#F5F5F5"/>
<path d="M658.348 1004.71H714.802V1012.24H658.348M129 64L144.431 79.4306M129 64H234.757V79.4306H144.431M129 64V191.435H144.431V79.4306M410.328 1004.71V1012.24H388.048V1004.71H410.328ZM410.328 1004.71V1011.86" stroke="black" stroke-width="2" stroke-miterlimit="10" stroke-linecap="square"/>
</g>
<g id="Vector_22">
<path d="M391.475 1004.71H388.051V1012.24H410.331M402.766 1004.71H395.239ZM350.415 1012.24V1004.71H144.434V1012.24H350.415Z" fill="#F5F5F5"/>
<path d="M391.475 1004.71H388.051V1012.24H410.331M402.766 1004.71H395.239M350.415 1012.24V1004.71H144.434V1012.24H350.415Z" stroke="black" stroke-width="2" stroke-miterlimit="10" stroke-linecap="square"/>
</g>
<g id="Vector_23">
<path d="M350.415 1012.24V1004.71H144.434V1012.24H350.415ZM388.051 1004.71H386.545V1012.24H388.051V1004.71ZM350.415 1004.71H351.92V1012.24H350.415V1004.71ZM386.545 1004.71V970.09ZM386.545 970.09L380.523 970.617L374.69 972.16L369.233 974.719L364.302 978.182L360.012 982.435L356.549 987.402L353.99 992.86L352.447 998.693L351.92 1004.71M589.816 1471.02H595.838V1418.48H589.816V1471.02Z" fill="#F5F5F5"/>
<path d="M350.415 1012.24V1004.71M350.415 1012.24H144.434V1004.71H350.415M350.415 1012.24H351.92V1004.71M350.415 1004.71H351.92M386.545 1004.71H388.051V1012.24H386.545V1004.71ZM386.545 1004.71V970.09L380.523 970.617L374.69 972.16L369.233 974.719L364.302 978.182L360.012 982.435L356.549 987.402L353.99 992.86L352.447 998.693L351.92 1004.71M589.816 1471.02H595.838V1418.48H589.816V1471.02Z" stroke="black" stroke-width="2" stroke-miterlimit="10" stroke-linecap="square"/>
</g>
<path id="Vector_24" d="M589.822 1471.02H595.844V1418.48H589.822V1471.02ZM589.822 1380.85H595.844V1183.37H589.822V1380.85Z" fill="#F5F5F5" stroke="black" stroke-width="2" stroke-miterlimit="10" stroke-linecap="square"/>
<path id="Vector_25" d="M589.822 1380.84H595.844V1183.37H589.822V1380.84ZM589.822 1145.73H595.844V1097.1L589.822 1091.08V1145.73Z" fill="#F5F5F5" stroke="black" stroke-width="2" stroke-miterlimit="10" stroke-linecap="square"/>
<g id="Vector_26">
<path d="M589.818 1091.08V1145.73H595.84V1097.1M589.818 1418.48V1416.97H595.84V1418.48H589.818ZM589.818 1380.84V1382.35H595.84V1380.84H589.818ZM589.818 1416.97H555.193ZM555.193 1416.97L555.72 1410.95L557.301 1405.15L559.86 1399.66L563.323 1394.73L567.576 1390.44L572.506 1386.98L578.001 1384.45L583.834 1382.87L589.818 1382.35M589.818 1183.37V1181.86H595.84V1183.37H589.818ZM589.818 1145.73V1147.23H595.84V1145.73H589.818ZM589.818 1181.86H555.193ZM555.193 1181.86L555.72 1175.84L557.301 1170.04L559.86 1164.55L563.323 1159.62L567.576 1155.33L572.506 1151.86L578.001 1149.34L583.834 1147.76L589.818 1147.23" fill="#F5F5F5"/>
<path d="M589.818 1091.08V1145.73M589.818 1145.73H595.84M589.818 1145.73V1147.23M595.84 1145.73V1097.1M595.84 1145.73V1147.23H589.818M589.818 1416.97V1418.48H595.84V1416.97H589.818ZM589.818 1416.97H555.193L555.72 1410.95L557.301 1405.15L559.86 1399.66L563.323 1394.73L567.576 1390.44L572.506 1386.98L578.001 1384.45L583.834 1382.87L589.818 1382.35M589.818 1382.35V1380.84H595.84V1382.35H589.818ZM589.818 1181.86V1183.37H595.84V1181.86H589.818ZM589.818 1181.86H555.193L555.72 1175.84L557.301 1170.04L559.86 1164.55L563.323 1159.62L567.576 1155.33L572.506 1151.86L578.001 1149.34L583.834 1147.76L589.818 1147.23" stroke="black" stroke-width="2" stroke-miterlimit="10" stroke-linecap="square"/>
</g>
<path id="Vector_27" d="M589.822 1091.08L595.844 1097.1H930.841V1091.08H589.822Z" fill="#F5F5F5" stroke="black" stroke-width="2" stroke-miterlimit="10" stroke-linecap="square"/>
<g id="Vector_28">
<path d="M595.806 1097.1H930.803V1091.08H589.822M968.439 1091.08V1097.1H1060.46V1091.08H968.439Z" fill="#F5F5F5"/>
<path d="M595.806 1097.1H930.803V1091.08H589.822M968.439 1091.08V1097.1H1060.46V1091.08H968.439Z" stroke="black" stroke-width="2" stroke-miterlimit="10" stroke-linecap="square"/>
</g>
<g id="Vector_29">
<path d="M968.468 1091.09V1097.11H1060.49V1091.09H968.468ZM968.468 1091.09H966.962V1097.11H968.468V1091.09ZM930.832 1091.09H932.337V1097.11H930.832V1091.09ZM966.962 1091.09V1056.46ZM966.962 1056.46L960.941 1056.99L955.145 1058.53L949.65 1061.09L944.719 1064.55L940.467 1068.84L937.004 1073.74L934.445 1079.23L932.864 1085.07L932.337 1091.09M129 1486.45L144.431 1471.02V1252.73H129V1486.45Z" fill="#F5F5F5"/>
<path d="M968.468 1091.09V1097.11M968.468 1091.09H1060.49V1097.11H968.468M968.468 1091.09H966.962M968.468 1097.11H966.962V1091.09M966.962 1091.09V1056.46L960.941 1056.99L955.145 1058.53L949.65 1061.09L944.719 1064.55L940.467 1068.84L937.004 1073.74L934.445 1079.23L932.864 1085.07L932.337 1091.09M932.337 1091.09H930.832V1097.11H932.337V1091.09ZM129 1486.45L144.431 1471.02V1252.73H129V1486.45Z" stroke="black" stroke-width="2" stroke-miterlimit="10" stroke-linecap="square"/>
</g>
<g id="Vector_30">
<path d="M144.431 1471.03V1252.75H129V1486.46M129 1252.75V1233.96ZM144.431 1252.75V1233.96ZM129 1233.96H144.431V1231.59H129V1233.96Z" fill="#F5F5F5"/>
<path d="M144.431 1471.03V1252.75M144.431 1252.75H129M144.431 1252.75V1233.96M129 1252.75V1486.46M129 1252.75V1233.96M129 1233.96H144.431M129 1233.96V1231.59H144.431V1233.96" stroke="black" stroke-width="2" stroke-miterlimit="10" stroke-linecap="square"/>
</g>
<g id="Vector_31">
<path d="M129 1233.94H144.431V1231.57H129V1233.94ZM129 1231.57V1020.81ZM144.431 1231.57V1020.81ZM129 1020.81H144.431V191.426H129V1020.81Z" fill="#F5F5F5"/>
<path d="M144.431 1231.57V1233.94H129V1231.57M144.431 1231.57H129M144.431 1231.57V1020.81M129 1231.57V1020.81M129 1020.81H144.431M129 1020.81V191.426H144.431V1020.81" stroke="black" stroke-width="2" stroke-miterlimit="10" stroke-linecap="square"/>
</g>
<g id="Vector_32">
<path d="M129 191.426V1020.81H144.431V191.426M144.431 1233.94V1235.44H129V1233.94H144.431ZM144.431 1252.76V1251.25H129V1252.76H144.431ZM144.431 1235.44V1251.25ZM136.715 1235.44V1251.25ZM129 1235.44V1251.25ZM144.431 1235.44L150.754 1251.25ZM144.431 1231.57V1230.06H129V1231.57H144.431Z" fill="#F5F5F5"/>
<path d="M129 191.426V1020.81H144.431V191.426M144.431 1235.44V1233.94H129V1235.44M144.431 1235.44H129M144.431 1235.44V1251.25M144.431 1235.44L150.754 1251.25M129 1235.44V1251.25M144.431 1251.25V1252.76H129V1251.25M144.431 1251.25H129M136.715 1235.44V1251.25M144.431 1231.57V1230.06H129V1231.57H144.431Z" stroke="black" stroke-width="2" stroke-miterlimit="10" stroke-linecap="square"/>
</g>
<g id="Vector_33">
<path d="M144.431 1020.81V1022.32H129V1020.81H144.431ZM144.431 1230.07V1022.32ZM136.715 1230.07V1022.32ZM129 1230.07V1022.32ZM144.431 1471.01L129 1486.44H214.81V1471.01H144.431Z" fill="#F5F5F5"/>
<path d="M144.431 1022.32V1020.81H129V1022.32M144.431 1022.32H129M144.431 1022.32V1230.07M129 1022.32V1230.07M136.715 1230.07V1022.32M144.431 1471.01L129 1486.44H214.81V1471.01H144.431Z" stroke="black" stroke-width="2" stroke-miterlimit="10" stroke-linecap="square"/>
</g>
<g id="Vector_34">
<path d="M129 1486.44H214.81V1471.01H144.431M214.81 1471.01H293.845ZM214.81 1486.44H293.845ZM293.845 1471.01V1486.44H294.598V1471.01H293.845Z" fill="#F5F5F5"/>
<path d="M129 1486.44H214.81M214.81 1486.44V1471.01M214.81 1486.44H293.845M214.81 1471.01H144.431M214.81 1471.01H293.845M293.845 1471.01V1486.44M293.845 1471.01H294.598V1486.44H293.845" stroke="black" stroke-width="2" stroke-miterlimit="10" stroke-linecap="square"/>
</g>
<g id="Vector_35">
<path d="M293.875 1471.01V1486.44H294.628V1471.01H293.875ZM294.628 1471.01H313.446ZM294.628 1486.44H313.446ZM313.446 1471.01V1486.44H314.575V1471.01H313.446Z" fill="#F5F5F5"/>
<path d="M294.628 1486.44H293.875V1471.01H294.628M294.628 1486.44V1471.01M294.628 1486.44H313.446M294.628 1471.01H313.446M313.446 1471.01V1486.44M313.446 1471.01H314.575V1486.44H313.446" stroke="black" stroke-width="2" stroke-miterlimit="10" stroke-linecap="square"/>
</g>
<g id="Vector_36">
<path d="M313.436 1471.01V1486.44H314.565V1471.01H313.436ZM314.565 1471.01H551.67ZM314.565 1486.44H551.67ZM551.67 1471.01V1486.44H555.208V1471.01H551.67Z" fill="#F5F5F5"/>
<path d="M314.565 1486.44H313.436V1471.01H314.565M314.565 1486.44V1471.01M314.565 1486.44H551.67M314.565 1471.01H551.67M551.67 1471.01V1486.44M551.67 1471.01H555.208V1486.44H551.67" stroke="black" stroke-width="2" stroke-miterlimit="10" stroke-linecap="square"/>
</g>
<g id="Vector_37">
<path d="M551.668 1471.01V1486.44H555.206V1471.01H551.668ZM555.206 1471.01H573.986ZM555.206 1486.44H573.986ZM573.986 1471.01V1486.44H744.401V1471.01H573.986Z" fill="#F5F5F5"/>
<path d="M555.206 1486.44H551.668V1471.01H555.206M555.206 1486.44V1471.01M555.206 1486.44H573.986M555.206 1471.01H573.986M573.986 1471.01V1486.44M573.986 1471.01H744.401V1486.44H573.986" stroke="black" stroke-width="2" stroke-miterlimit="10" stroke-linecap="square"/>
</g>
<g id="Vector_38">
<path d="M573.943 1471.01V1486.44H744.358V1471.01H573.943ZM744.358 1471.01H823.394ZM744.358 1486.44H823.394ZM823.394 1471.01V1486.44H826.405V1471.01H823.394Z" fill="#F5F5F5"/>
<path d="M744.358 1486.44H573.943V1471.01H744.358M744.358 1486.44V1471.01M744.358 1486.44H823.394M744.358 1471.01H823.394M823.394 1471.01V1486.44M823.394 1471.01H826.405V1486.44H823.394" stroke="black" stroke-width="2" stroke-miterlimit="10" stroke-linecap="square"/>
</g>
<g id="Vector_39">
<path d="M823.428 1471.01V1486.44H826.439V1471.01H823.428ZM826.439 1471.01H845.219ZM826.439 1486.44H845.219ZM845.219 1471.01V1486.44H849.735V1471.01H845.219Z" fill="#F5F5F5"/>
<path d="M826.439 1486.44H823.428V1471.01H826.439M826.439 1486.44V1471.01M826.439 1486.44H845.219M826.439 1471.01H845.219M845.219 1471.01V1486.44M845.219 1471.01H849.735V1486.44H845.219" stroke="black" stroke-width="2" stroke-miterlimit="10" stroke-linecap="square"/>
</g>
<g id="Vector_40">
<path d="M845.184 1471.01V1486.44H849.7V1471.01H845.184ZM849.7 1471.01H955.043ZM849.7 1486.44H955.043ZM955.043 1471.01V1486.44H961.14V1471.01H955.043Z" fill="#F5F5F5"/>
<path d="M849.7 1486.44H845.184V1471.01H849.7M849.7 1486.44V1471.01M849.7 1486.44H955.043M849.7 1471.01H955.043M955.043 1471.01V1486.44M955.043 1471.01H961.14V1486.44H955.043" stroke="black" stroke-width="2" stroke-miterlimit="10" stroke-linecap="square"/>
</g>
<g id="Vector_41">
<path d="M955.076 1471.01V1486.44H961.173V1471.01H955.076ZM961.173 1471.01H979.991ZM961.173 1486.44H979.991ZM979.991 1471.01V1486.44H1060.53V1471.01H979.991Z" fill="#F5F5F5"/>
<path d="M961.173 1486.44H955.076V1471.01H961.173M961.173 1486.44V1471.01M961.173 1486.44H979.991M961.173 1471.01H979.991M979.991 1471.01V1486.44M979.991 1471.01H1060.53V1486.44H979.991" stroke="black" stroke-width="2" stroke-miterlimit="10" stroke-linecap="square"/>
</g>
<g id="Vector_42">
<path d="M1060.46 1471.02H979.96V1486.45H1060.5M293.82 1471.02H292.315V1486.45H293.82V1471.02ZM214.785 1471.02H216.29V1486.45H214.785V1471.02ZM292.315 1471.02H216.29ZM292.315 1478.73H216.29ZM292.315 1486.45H216.29ZM294.573 1471.02H296.079V1486.45H294.573V1471.02ZM313.391 1471.02H311.886V1486.45H313.391V1471.02ZM296.079 1471.02H311.886ZM296.079 1478.73H311.886ZM296.079 1486.45H311.886ZM296.079 1471.02L311.886 1464.69ZM551.626 1471.02H550.121V1486.45H551.626V1471.02ZM314.52 1471.02H316.026V1486.45H314.52V1471.02ZM550.121 1471.02H316.026ZM550.083 1478.73H315.988ZM550.121 1486.45H316.026ZM555.126 1471.02H556.632V1486.45H555.126V1471.02ZM573.944 1471.02H572.439V1486.45H573.944V1471.02ZM556.632 1471.02H572.439ZM556.632 1478.73H572.439ZM556.632 1486.45H572.439ZM556.632 1471.02L572.439 1464.69ZM744.359 1486.45H745.865V1471.02H744.359V1486.45ZM823.394 1486.45H821.889V1471.02H823.394V1486.45ZM745.865 1486.45H821.889ZM745.865 1478.73H821.889ZM745.865 1471.02H821.889ZM826.368 1471.02H827.873V1486.45H826.368V1471.02ZM845.186 1471.02H843.68V1486.45H845.186V1471.02ZM827.873 1471.02H843.68ZM827.873 1478.73H843.68ZM827.873 1486.45H843.68ZM827.873 1471.02L843.68 1464.69ZM955.045 1486.45H953.539V1471.02H955.045V1486.45ZM849.664 1486.45H851.17V1471.02H849.664V1486.45ZM953.539 1486.45H851.17ZM953.539 1478.73H851.17ZM953.539 1471.02H851.17ZM961.142 1471.02H962.647V1486.45H961.142V1471.02ZM979.96 1471.02H978.454V1486.45H979.96V1471.02ZM962.647 1471.02H978.454ZM962.647 1478.73H978.454ZM962.647 1486.45H978.454ZM962.647 1471.02L978.454 1464.69ZM998.702 539.529V538.776H861.143V539.529H998.702ZM998.702 538.776H861.143ZM861.143 539.529H998.702ZM409.927 891.8H410.303V854.165L409.927 853.788V891.8ZM410.303 891.8V854.165ZM409.927 853.788V891.8ZM409.927 853.788L410.303 854.165H515.307V853.788H409.927ZM410.303 854.165H515.307ZM515.27 853.788H409.927ZM410.303 1011.86V1012.24H515.307V1011.86H410.303ZM410.303 1012.24H515.307ZM515.27 1004.71V1011.86H410.303L410.266 1004.71M735.44 525.114V525.491H791.893V525.114H735.44ZM735.44 525.491H791.893ZM791.893 525.114H735.44Z" fill="#F5F5F5"/>
<path d="M1060.46 1471.02H979.96M979.96 1471.02V1486.45M979.96 1471.02H978.454M979.96 1486.45H1060.5M979.96 1486.45H978.454M292.315 1471.02H293.82V1486.45H292.315M292.315 1471.02V1486.45M292.315 1471.02H216.29M292.315 1486.45H216.29M216.29 1471.02H214.785V1486.45H216.29M216.29 1471.02V1486.45M292.315 1478.73H216.29M296.079 1471.02H294.573V1486.45H296.079M296.079 1471.02V1486.45M296.079 1471.02H311.886M296.079 1471.02L311.886 1464.69M296.079 1486.45H311.886M311.886 1471.02H313.391V1486.45H311.886M311.886 1471.02V1486.45M296.079 1478.73H311.886M550.121 1471.02H551.626V1486.45H550.121M550.121 1471.02V1486.45M550.121 1471.02H316.026M550.121 1486.45H316.026M316.026 1471.02H314.52V1486.45H316.026M316.026 1471.02V1486.45M550.083 1478.73H315.988M556.632 1471.02H555.126V1486.45H556.632M556.632 1471.02V1486.45M556.632 1471.02H572.439M556.632 1471.02L572.439 1464.69M556.632 1486.45H572.439M572.439 1471.02H573.944V1486.45H572.439M572.439 1471.02V1486.45M556.632 1478.73H572.439M745.865 1486.45H744.359V1471.02H745.865M745.865 1486.45V1471.02M745.865 1486.45H821.889M745.865 1471.02H821.889M821.889 1486.45H823.394V1471.02H821.889M821.889 1486.45V1471.02M745.865 1478.73H821.889M827.873 1471.02H826.368V1486.45H827.873M827.873 1471.02V1486.45M827.873 1471.02H843.68M827.873 1471.02L843.68 1464.69M827.873 1486.45H843.68M843.68 1471.02H845.186V1486.45H843.68M843.68 1471.02V1486.45M827.873 1478.73H843.68M953.539 1486.45H955.045V1471.02H953.539M953.539 1486.45V1471.02M953.539 1486.45H851.17M953.539 1471.02H851.17M851.17 1486.45H849.664V1471.02H851.17M851.17 1486.45V1471.02M953.539 1478.73H851.17M962.647 1471.02H961.142V1486.45H962.647M962.647 1471.02V1486.45M962.647 1471.02H978.454M962.647 1471.02L978.454 1464.69M962.647 1486.45H978.454M978.454 1471.02V1486.45M962.647 1478.73H978.454M410.303 854.165V891.8H409.927V853.788M410.303 854.165L409.927 853.788M410.303 854.165H515.307V853.788H409.927M409.927 853.788H515.27M410.303 1011.86V1012.24H515.307V1011.86H410.303ZM410.303 1011.86H515.27V1004.71M410.303 1011.86L410.266 1004.71M998.702 539.529V538.776H861.143V539.529H998.702ZM735.44 525.114V525.491H791.893V525.114H735.44Z" stroke="black" stroke-width="2" stroke-miterlimit="10" stroke-linecap="square"/>
</g>
</g>
<g id="workspacesBackGroup">
<path id="wsB36459" d="M595.85 1097.11V1471.02H1060.5V1097.11H595.85Z" fill="#F5F5F5" stroke="black" stroke-width="2" stroke-miterlimit="10" stroke-linecap="square"/>
<path id="wsB36461" d="M589.822 1470.99V1099.87H144.439V1470.96L589.822 1470.99Z" fill="#F5F5F5" stroke="black" stroke-width="2" stroke-miterlimit="10" stroke-linecap="square"/>
<path id="wsB36460" d="M1060.46 1091.05V711.121H791.893V1091.05H1060.46Z" fill="#F5F5F5" stroke="black" stroke-width="2" stroke-miterlimit="10" stroke-linecap="square"/>
<path id="wsB36462" d="M791.927 1091.06V654.558H735.473V1012.21H144.439V1099.87H589.822V1091.06H791.927Z" fill="#F5F5F5" stroke="black" stroke-width="2" stroke-miterlimit="10" stroke-linecap="square"/>
<g id="wsB36456">
<path d="M799.428 703.597H1060.47V532.354H1004.77V598.216H855.092V532.354H799.391V703.597" fill="#F5F5F5"/>
<path d="M799.428 703.597H1060.47V532.354H1004.77V598.216H855.092V532.354H799.391V703.597" stroke="black" stroke-width="2" stroke-miterlimit="10" stroke-linecap="square"/>
</g>
<path id="wsB36458" d="M144.439 1004.68H391.481V899.301H144.439V1004.68Z" fill="#F5F5F5" stroke="black" stroke-width="2" stroke-miterlimit="10" stroke-linecap="square"/>
<path id="wsB36463" d="M515.316 1011.86V854.167H410.312V1011.86H515.316Z" fill="#F5F5F5" stroke="black" stroke-width="2" stroke-miterlimit="10" stroke-linecap="square"/>
<path id="wsB36457" d="M643.262 1004.69H727.942V888.018H643.262V1004.69Z" fill="#F5F5F5" stroke="black" stroke-width="2" stroke-miterlimit="10" stroke-linecap="square"/>
<path id="wsB36464" d="M735.443 525.479V654.194H791.897V525.479H735.443Z" fill="#F5F5F5" stroke="black" stroke-width="2" stroke-miterlimit="10" stroke-linecap="square"/>
</g>
<g id="workspacesFrontGroup">
<path id="U5_R51" d="M595.85 1097.11V1471.02H1060.5V1097.11H595.85Z" fill="#F5F5F5" stroke="black" stroke-width="2" stroke-miterlimit="10" stroke-linecap="square"/>
<path id="wsF36461" d="M589.822 1470.99V1099.87H144.439V1470.96L589.822 1470.99Z" fill="#F5F5F5" stroke="black" stroke-width="2" stroke-miterlimit="10" stroke-linecap="square"/>
<path id="wsF36460" d="M1060.46 1091.05V711.121H791.893V1091.05H1060.46Z" fill="#F5F5F5" stroke="black" stroke-width="2" stroke-miterlimit="10" stroke-linecap="square"/>
<path id="wsF36462" d="M791.927 1091.06V654.558H735.473V1012.21H144.439V1099.87H589.822V1091.06H791.927Z" fill="#F5F5F5" stroke="black" stroke-width="2" stroke-miterlimit="10" stroke-linecap="square"/>
<g id="wsF36456">
<path d="M799.428 703.597H1060.47V532.354H1004.77V598.216H855.092V532.354H799.391V703.597" fill="#F5F5F5"/>
<path d="M799.428 703.597H1060.47V532.354H1004.77V598.216H855.092V532.354H799.391V703.597" stroke="black" stroke-width="2" stroke-miterlimit="10" stroke-linecap="square"/>
</g>
<path id="wsF36458" d="M144.439 1004.68H391.481V899.301H144.439V1004.68Z" fill="#F5F5F5" stroke="black" stroke-width="2" stroke-miterlimit="10" stroke-linecap="square"/>
<path id="wsF36463" d="M515.316 1011.86V854.167H410.312V1011.86H515.316Z" fill="#F5F5F5" stroke="black" stroke-width="2" stroke-miterlimit="10" stroke-linecap="square"/>
<path id="wsF36457" d="M643.262 1004.69H727.942V888.018H643.262V1004.69Z" fill="#F5F5F5" stroke="black" stroke-width="2" stroke-miterlimit="10" stroke-linecap="square"/>
<path id="wsF36464" d="M735.443 525.479V654.194H791.897V525.479H735.443Z" fill="#F5F5F5" stroke="black" stroke-width="2" stroke-miterlimit="10" stroke-linecap="square"/>
<path id="U51" d="M806.136 1266.09H810.364V1289.2C810.364 1291.59 809.801 1293.72 808.676 1295.6C807.563 1297.46 805.989 1298.93 803.955 1300.01C801.92 1301.08 799.534 1301.61 796.795 1301.61C794.057 1301.61 791.67 1301.08 789.636 1300.01C787.602 1298.93 786.023 1297.46 784.898 1295.6C783.784 1293.72 783.227 1291.59 783.227 1289.2V1266.09H787.455V1288.86C787.455 1290.57 787.83 1292.09 788.58 1293.41C789.33 1294.73 790.398 1295.77 791.784 1296.53C793.182 1297.28 794.852 1297.66 796.795 1297.66C798.739 1297.66 800.409 1297.28 801.807 1296.53C803.205 1295.77 804.273 1294.73 805.011 1293.41C805.761 1292.09 806.136 1290.57 806.136 1288.86V1266.09ZM829.101 1301.48C827.101 1301.48 825.3 1301.08 823.697 1300.28C822.095 1299.49 820.811 1298.4 819.845 1297.01C818.879 1295.62 818.351 1294.05 818.26 1292.27H822.351C822.51 1293.85 823.226 1295.16 824.499 1296.19C825.783 1297.22 827.317 1297.73 829.101 1297.73C830.533 1297.73 831.805 1297.39 832.919 1296.72C834.044 1296.05 834.925 1295.13 835.561 1293.96C836.209 1292.78 836.533 1291.44 836.533 1289.95C836.533 1288.43 836.197 1287.07 835.527 1285.88C834.868 1284.68 833.959 1283.73 832.8 1283.03C831.641 1282.34 830.317 1281.99 828.828 1281.98C827.76 1281.97 826.663 1282.13 825.538 1282.47C824.413 1282.8 823.487 1283.23 822.76 1283.75L818.805 1283.27L820.919 1266.09H839.055V1269.84H824.464L823.237 1280.14H823.442C824.158 1279.57 825.055 1279.1 826.135 1278.72C827.214 1278.35 828.339 1278.16 829.51 1278.16C831.646 1278.16 833.55 1278.67 835.22 1279.69C836.902 1280.7 838.22 1282.09 839.175 1283.85C840.141 1285.61 840.624 1287.62 840.624 1289.89C840.624 1292.11 840.124 1294.1 839.124 1295.85C838.135 1297.59 836.771 1298.97 835.033 1299.98C833.294 1300.98 831.317 1301.48 829.101 1301.48ZM859.668 1266.09V1301H855.44V1270.52H855.236L846.713 1276.18V1271.89L855.44 1266.09H859.668Z" fill="black"/>
</g>
</g>
<g id="trappa 10">
<g id="Frame 5">
<g id="Clip path group">
<mask id="mask0_64_542" style="mask-type:luminance" maskUnits="userSpaceOnUse" x="747" y="554" width="37" height="35">
<g id="clip0_2_215">
<path id="Vector_43" d="M783.781 554H747.586V588.902H783.781V554Z" fill="white"/>
</g>
</mask>
<g mask="url(#mask0_64_542)">
<g id="Frame 2">
<path id="Line 1" d="M754.695 582.439V578.561" stroke="black" stroke-width="1.29268"/>
<path id="Line 2" d="M755.986 582.439V578.561" stroke="black" stroke-width="1.29268"/>
<path id="Line 3" d="M754.695 578.561V575.976" stroke="black" stroke-width="1.29268"/>
<path id="Line 4" d="M755.986 578.561V575.976" stroke="black" stroke-width="1.29268"/>
<path id="Line 5" d="M754.695 575.975V573.39" stroke="black" stroke-width="1.29268"/>
<path id="Line 6" d="M755.986 575.975V573.39" stroke="black" stroke-width="1.29268"/>
<path id="Line 7" d="M755.986 573.39V570.805" stroke="black" stroke-width="1.29268"/>
<path id="Line 9" d="M754.695 573.39V570.805" stroke="black" stroke-width="1.29268"/>
<path id="Line 8" d="M754.695 575.975V573.39" stroke="black" stroke-width="1.29268"/>
<path id="Line 10" d="M756.637 571.45H765.685" stroke="black" stroke-width="1.29268"/>
<path id="Line 12" d="M756.637 572.743H765.685" stroke="black" stroke-width="1.29268"/>
<path id="Line 11" d="M755.986 573.39V570.805" stroke="black" stroke-width="1.29268"/>
<path id="Line 13" d="M763.744 570.805V561.756" stroke="black" stroke-width="1.29268"/>
<path id="Line 14" d="M765.037 570.805V561.756" stroke="black" stroke-width="1.29268"/>
<path id="Line 15" d="M765.684 562.402H774.732" stroke="black" stroke-width="1.29268"/>
<path id="Line 16" d="M765.684 563.695H774.732" stroke="black" stroke-width="1.29268"/>
<path id="Line 19" d="M774.086 561.756V552.707" stroke="black" stroke-width="1.29268"/>
<path id="Line 20" d="M772.791 561.756V552.707" stroke="black" stroke-width="1.29268"/>
</g>
</g>
</g>
<path id="Line 17" d="M754.049 580.5H745" stroke="black" stroke-width="1.29268"/>
<path id="Line 18" d="M754.049 581.793H745" stroke="black" stroke-width="1.29268"/>
<path id="Line 21" d="M774.732 554.646H783.781" stroke="black" stroke-width="1.29268"/>
<path id="Line 22" d="M774.732 555.939H783.781" stroke="black" stroke-width="1.29268"/>
</g>
</g>
<g id="trappa 12">
<g id="Frame 5_2">
<g id="Clip path group_2">
<mask id="mask1_64_542" style="mask-type:luminance" maskUnits="userSpaceOnUse" x="449" y="883" width="37" height="35">
<g id="clip0_2_215_2">
<path id="Vector_44" d="M485.781 883H449.586V917.902H485.781V883Z" fill="white"/>
</g>
</mask>
<g mask="url(#mask1_64_542)">
<g id="Frame 2_2">
<path id="Line 1_2" d="M456.695 911.439V907.561" stroke="black" stroke-width="1.29268"/>
<path id="Line 2_2" d="M457.986 911.439V907.561" stroke="black" stroke-width="1.29268"/>
<path id="Line 3_2" d="M456.695 907.561V904.976" stroke="black" stroke-width="1.29268"/>
<path id="Line 4_2" d="M457.986 907.561V904.976" stroke="black" stroke-width="1.29268"/>
<path id="Line 5_2" d="M456.695 904.975V902.39" stroke="black" stroke-width="1.29268"/>
<path id="Line 6_2" d="M457.986 904.975V902.39" stroke="black" stroke-width="1.29268"/>
<path id="Line 7_2" d="M457.986 902.39V899.805" stroke="black" stroke-width="1.29268"/>
<path id="Line 9_2" d="M456.695 902.39V899.805" stroke="black" stroke-width="1.29268"/>
<path id="Line 8_2" d="M456.695 904.975V902.39" stroke="black" stroke-width="1.29268"/>
<path id="Line 10_2" d="M458.637 900.45H467.685" stroke="black" stroke-width="1.29268"/>
<path id="Line 12_2" d="M458.637 901.743H467.685" stroke="black" stroke-width="1.29268"/>
<path id="Line 11_2" d="M457.986 902.39V899.805" stroke="black" stroke-width="1.29268"/>
<path id="Line 13_2" d="M465.744 899.805V890.756" stroke="black" stroke-width="1.29268"/>
<path id="Line 14_2" d="M467.037 899.805V890.756" stroke="black" stroke-width="1.29268"/>
<path id="Line 15_2" d="M467.684 891.402H476.732" stroke="black" stroke-width="1.29268"/>
<path id="Line 16_2" d="M467.684 892.695H476.732" stroke="black" stroke-width="1.29268"/>
<path id="Line 19_2" d="M476.086 890.756V881.707" stroke="black" stroke-width="1.29268"/>
<path id="Line 20_2" d="M474.791 890.756V881.707" stroke="black" stroke-width="1.29268"/>
</g>
</g>
</g>
<path id="Line 17_2" d="M456.049 909.5H447" stroke="black" stroke-width="1.29268"/>
<path id="Line 18_2" d="M456.049 910.793H447" stroke="black" stroke-width="1.29268"/>
<path id="Line 21_2" d="M476.732 883.646H485.781" stroke="black" stroke-width="1.29268"/>
<path id="Line 22_2" d="M476.732 884.939H485.781" stroke="black" stroke-width="1.29268"/>
</g>
</g>
<g id="trappa 11">
<g id="Frame 5_3">
<g id="Clip path group_3">
<mask id="mask2_64_542" style="mask-type:luminance" maskUnits="userSpaceOnUse" x="913" y="637" width="37" height="35">
<g id="clip0_2_215_3">
<path id="Vector_45" d="M949.781 637H913.586V671.902H949.781V637Z" fill="white"/>
</g>
</mask>
<g mask="url(#mask2_64_542)">
<g id="Frame 2_3">
<path id="Line 1_3" d="M920.695 665.439V661.561" stroke="black" stroke-width="1.29268"/>
<path id="Line 2_3" d="M921.986 665.439V661.561" stroke="black" stroke-width="1.29268"/>
<path id="Line 3_3" d="M920.695 661.561V658.976" stroke="black" stroke-width="1.29268"/>
<path id="Line 4_3" d="M921.986 661.561V658.976" stroke="black" stroke-width="1.29268"/>
<path id="Line 5_3" d="M920.695 658.975V656.39" stroke="black" stroke-width="1.29268"/>
<path id="Line 6_3" d="M921.986 658.975V656.39" stroke="black" stroke-width="1.29268"/>
<path id="Line 7_3" d="M921.986 656.39V653.805" stroke="black" stroke-width="1.29268"/>
<path id="Line 9_3" d="M920.695 656.39V653.805" stroke="black" stroke-width="1.29268"/>
<path id="Line 8_3" d="M920.695 658.975V656.39" stroke="black" stroke-width="1.29268"/>
<path id="Line 10_3" d="M922.637 654.45H931.685" stroke="black" stroke-width="1.29268"/>
<path id="Line 12_3" d="M922.637 655.743H931.685" stroke="black" stroke-width="1.29268"/>
<path id="Line 11_3" d="M921.986 656.39V653.805" stroke="black" stroke-width="1.29268"/>
<path id="Line 13_3" d="M929.744 653.805V644.756" stroke="black" stroke-width="1.29268"/>
<path id="Line 14_3" d="M931.037 653.805V644.756" stroke="black" stroke-width="1.29268"/>
<path id="Line 15_3" d="M931.684 645.402H940.732" stroke="black" stroke-width="1.29268"/>
<path id="Line 16_3" d="M931.684 646.695H940.732" stroke="black" stroke-width="1.29268"/>
<path id="Line 19_3" d="M940.086 644.756V635.707" stroke="black" stroke-width="1.29268"/>
<path id="Line 20_3" d="M938.791 644.756V635.707" stroke="black" stroke-width="1.29268"/>
</g>
</g>
</g>
<path id="Line 17_3" d="M920.049 663.5H911" stroke="black" stroke-width="1.29268"/>
<path id="Line 18_3" d="M920.049 664.793H911" stroke="black" stroke-width="1.29268"/>
<path id="Line 21_3" d="M940.732 637.646H949.781" stroke="black" stroke-width="1.29268"/>
<path id="Line 22_3" d="M940.732 638.939H949.781" stroke="black" stroke-width="1.29268"/>
</g>
</g>
<rect id="U5_T03" x="827" y="565" width="1" height="1" fill="#F5F5F5"/>
<rect id="U5_T01" x="763" y="607" width="1" height="1" fill="#F5F5F5"/>
<rect id="U5_01" x="763" y="1049" width="1" height="1" fill="#F5F5F5"/>
<rect id="U5_02" x="551" y="1049" width="1" height="1" fill="#F5F5F5"/>
<rect id="U5_04" x="467" y="1049" width="1" height="1" fill="#F5F5F5"/>
<rect id="U5_T02" x="467" y="951" width="1" height="1" fill="#F5F5F5"/>
<rect id="U5_03" x="551" y="1161" width="1" height="1" fill="#F5F5F5"/>
<rect id="U5_U51" x="638" y="1161" width="1" height="1" fill="#F5F5F5"/>
</g>
</svg>
