<svg width="1348" height="1755" viewBox="0 0 1348 1755" fill="none" xmlns="http://www.w3.org/2000/svg">
<g id="U6">
<g id="svgDrawingGroup">
<g id="floorGraphicsGroup">
<path id="Vector" d="M510.881 1028.8H623.797V941.474H510.881V1028.8ZM623.797 935.452V912.116H510.881V935.452H623.797ZM716.012 556.429H644.499V669.722H716.012V556.429ZM986.824 556.429H849.254V614.957H986.824V556.429ZM382.607 1028.8H390.813V923.408H382.607V1028.8Z" fill="#F5F5F5" stroke="black" stroke-width="2" stroke-miterlimit="10" stroke-linecap="square"/>
<path id="Vector_2" d="M249.045 1495.14H1048.57V735.213H779.978V678.68H723.52V1028.8V1036.32H503.333V1033.92H398.32V1036.32H132.439V1411.02V1495.14H249.045ZM548.123 556.429H510.86V638.406H548.123V556.429Z" fill="#F5F5F5" stroke="black" stroke-width="2" stroke-miterlimit="10" stroke-linecap="square"/>
<path id="Vector_3" d="M715.971 690.033V674.225H644.457V690.033H715.971ZM1032.7 332.653H1048.55V320.984H1032.66L1032.7 332.653ZM1063.98 88L1048.55 103.432V124.886H1063.98V88Z" fill="#F5F5F5" stroke="black" stroke-width="2" stroke-miterlimit="10" stroke-linecap="square"/>
<g id="Vector_4">
<path d="M1048.56 103.432V124.886H1063.99V88M1063.99 124.886V143.743ZM1048.56 124.886V143.743ZM1063.99 143.743H1048.56V147.921H1063.99V143.743Z" fill="#F5F5F5"/>
<path d="M1048.56 103.432V124.886M1048.56 124.886H1063.99M1048.56 124.886V143.743M1063.99 124.886V88M1063.99 124.886V143.743M1063.99 143.743H1048.56M1063.99 143.743V147.921H1048.56V143.743" stroke="black" stroke-width="2" stroke-miterlimit="10" stroke-linecap="square"/>
</g>
<g id="Vector_5">
<path d="M1063.99 143.762H1048.56V147.94H1063.99V143.762ZM1063.99 147.94V211.926ZM1048.56 147.94V211.926ZM1063.99 211.926H1048.56V217.873H1063.99V211.926Z" fill="#F5F5F5"/>
<path d="M1048.56 147.94V143.762H1063.99V147.94M1048.56 147.94H1063.99M1048.56 147.94V211.926M1063.99 147.94V211.926M1063.99 211.926H1048.56M1063.99 211.926V217.873H1048.56V211.926" stroke="black" stroke-width="2" stroke-miterlimit="10" stroke-linecap="square"/>
</g>
<g id="Vector_6">
<path d="M1063.99 211.908H1048.56V217.855H1063.99V211.908ZM1063.99 217.855V236.674ZM1048.56 217.855V236.674ZM1063.99 236.674H1048.56V240.664H1063.99V236.674Z" fill="#F5F5F5"/>
<path d="M1048.56 217.855V211.908H1063.99V217.855M1048.56 217.855H1063.99M1048.56 217.855V236.674M1063.99 217.855V236.674M1063.99 236.674H1048.56M1063.99 236.674V240.664H1048.56V236.674" stroke="black" stroke-width="2" stroke-miterlimit="10" stroke-linecap="square"/>
</g>
<g id="Vector_7">
<path d="M1063.99 236.681H1048.56V240.67H1063.99V236.681ZM1063.99 240.67V319.712ZM1048.56 240.67V319.712ZM1063.99 319.712H1048.56V327.39H1063.99V319.712Z" fill="#F5F5F5"/>
<path d="M1048.56 240.67V236.681H1063.99V240.67M1048.56 240.67H1063.99M1048.56 240.67V319.712M1063.99 240.67V319.712M1063.99 319.712H1048.56M1063.99 319.712V327.39H1048.56V319.712" stroke="black" stroke-width="2" stroke-miterlimit="10" stroke-linecap="square"/>
</g>
<g id="Vector_8">
<path d="M1063.99 319.714H1048.56V327.392H1063.99V319.714ZM1063.99 327.392V391.378ZM1048.56 327.392V391.378ZM1063.99 391.378H1048.56V393.26H1063.99V391.378Z" fill="#F5F5F5"/>
<path d="M1048.56 327.392V319.714H1063.99V327.392M1048.56 327.392H1063.99M1048.56 327.392V391.378M1063.99 327.392V391.378M1063.99 391.378H1048.56M1063.99 391.378V393.26H1048.56V391.378" stroke="black" stroke-width="2" stroke-miterlimit="10" stroke-linecap="square"/>
</g>
<g id="Vector_9">
<path d="M1063.99 391.353H1048.56V393.235H1063.99V391.353ZM1063.99 393.235V412.054ZM1048.56 393.235V412.054ZM1063.99 412.054H1048.56V460.42H1063.99V412.054Z" fill="#F5F5F5"/>
<path d="M1048.56 393.235V391.353H1063.99V393.235M1048.56 393.235H1063.99M1048.56 393.235V412.054M1063.99 393.235V412.054M1063.99 412.054H1048.56M1063.99 412.054V460.42H1048.56V412.054" stroke="black" stroke-width="2" stroke-miterlimit="10" stroke-linecap="square"/>
</g>
<g id="Vector_10">
<path d="M1063.99 412.085H1048.56V460.451H1063.99V412.085ZM1063.99 460.451V479.27ZM1048.56 460.451V479.27ZM1063.99 479.27H1048.56V482.055H1063.99V479.27Z" fill="#F5F5F5"/>
<path d="M1048.56 460.451V412.085H1063.99V460.451M1048.56 460.451H1063.99M1048.56 460.451V479.27M1063.99 460.451V479.27M1063.99 479.27H1048.56M1063.99 479.27V482.055H1048.56V479.27" stroke="black" stroke-width="2" stroke-miterlimit="10" stroke-linecap="square"/>
</g>
<g id="Vector_11">
<path d="M1063.99 479.237H1048.56V482.023H1063.99V479.237ZM1063.99 482.023V546.009ZM1048.56 482.023V546.009ZM1063.99 546.009H1048.56V1512.42H1063.99V546.009Z" fill="#F5F5F5"/>
<path d="M1048.56 482.023V479.237H1063.99V482.023M1048.56 482.023H1063.99M1048.56 482.023V546.009M1063.99 482.023V546.009M1063.99 546.009H1048.56M1063.99 546.009V1512.42H1048.56V546.009" stroke="black" stroke-width="2" stroke-miterlimit="10" stroke-linecap="square"/>
</g>
<g id="Vector_12">
<path d="M1048.56 1510.58V1512.46H1064V546.043H1048.56V1495.14M1048.56 143.759V142.253H1064V143.759H1048.56ZM1048.56 124.939V126.445H1064V124.939H1048.56ZM1048.56 142.253V126.445ZM1056.28 142.253V126.445ZM1064 142.253V126.445ZM1048.56 142.253L1042.24 126.445ZM1048.56 147.937V149.442H1064V147.937H1048.56ZM1048.56 211.923V210.417H1064V211.923H1048.56ZM1048.56 149.442V210.417ZM1056.28 149.442V210.417ZM1064 149.442V210.417ZM1048.56 236.689V235.184H1064V236.689H1048.56ZM1048.56 217.87V219.375H1064V217.87H1048.56ZM1048.56 235.184V219.375ZM1056.28 235.184V219.375ZM1064 235.184V219.375ZM1048.56 235.184L1042.24 219.375ZM1064 319.721V318.215H1048.56V319.721H1064ZM1064 240.679V242.185H1048.56V240.679H1064ZM1064 318.215V242.185ZM1056.28 318.215V242.185ZM1048.56 318.215V242.185ZM1064 391.385V389.879H1048.56V391.385H1064ZM1064 327.399V328.905H1048.56V327.399H1064ZM1064 389.879V328.905ZM1056.28 389.879V328.905ZM1048.56 389.879V328.905ZM1048.56 412.086V410.581H1064V412.086H1048.56ZM1048.56 393.267V394.773H1064V393.267H1048.56ZM1048.56 410.581V394.773ZM1056.28 410.581V394.773ZM1064 410.581V394.773ZM1048.56 410.581L1042.24 394.773ZM1048.56 479.272V477.766H1064V479.272H1048.56ZM1048.56 460.452V461.958H1064V460.452H1048.56ZM1048.56 477.766V461.958ZM1056.28 477.766V461.958ZM1064 477.766V461.958ZM1048.56 477.766L1042.24 461.958Z" fill="#F5F5F5"/>
<path d="M1048.56 1510.58V1512.46H1064V546.043H1048.56V1495.14M1048.56 142.253V143.759H1064V142.253M1048.56 142.253H1064M1048.56 142.253V126.445M1048.56 142.253L1042.24 126.445M1064 142.253V126.445M1048.56 126.445V124.939H1064V126.445M1048.56 126.445H1064M1056.28 142.253V126.445M1048.56 149.442V147.937H1064V149.442M1048.56 149.442H1064M1048.56 149.442V210.417M1064 149.442V210.417M1048.56 210.417V211.923H1064V210.417M1048.56 210.417H1064M1056.28 149.442V210.417M1048.56 235.184V236.689H1064V235.184M1048.56 235.184H1064M1048.56 235.184V219.375M1048.56 235.184L1042.24 219.375M1064 235.184V219.375M1048.56 219.375V217.87H1064V219.375M1048.56 219.375H1064M1056.28 235.184V219.375M1064 318.215V319.721H1048.56V318.215M1064 318.215H1048.56M1064 318.215V242.185M1048.56 318.215V242.185M1064 242.185V240.679H1048.56V242.185M1064 242.185H1048.56M1056.28 318.215V242.185M1064 389.879V391.385H1048.56V389.879M1064 389.879H1048.56M1064 389.879V328.905M1048.56 389.879V328.905M1064 328.905V327.399H1048.56V328.905M1064 328.905H1048.56M1056.28 389.879V328.905M1048.56 410.581V412.086H1064V410.581M1048.56 410.581H1064M1048.56 410.581V394.773M1048.56 410.581L1042.24 394.773M1064 410.581V394.773M1048.56 394.773V393.267H1064V394.773M1048.56 394.773H1064M1056.28 410.581V394.773M1048.56 477.766V479.272H1064V477.766M1048.56 477.766H1064M1048.56 477.766V461.958M1048.56 477.766L1042.24 461.958M1064 477.766V461.958M1048.56 461.958V460.452H1064V461.958M1048.56 461.958H1064M1056.28 477.766V461.958" stroke="black" stroke-width="2" stroke-miterlimit="10" stroke-linecap="square"/>
</g>
<g id="Vector_13">
<path d="M1064 546.015V544.51H1048.57V546.015H1064ZM1064 482.029V483.535H1048.57V482.029H1064ZM1064 544.51V483.535ZM1056.29 544.51V483.535ZM1048.57 544.51V483.535ZM132.439 915.855V923.383H390.793L398.32 915.855H132.439Z" fill="#F5F5F5"/>
<path d="M1064 544.51V546.015H1048.57V544.51M1064 544.51H1048.57M1064 544.51V483.535M1048.57 544.51V483.535M1064 483.535V482.029H1048.57V483.535M1064 483.535H1048.57M1056.29 544.51V483.535M132.439 915.855V923.383H390.793L398.32 915.855H132.439Z" stroke="black" stroke-width="2" stroke-miterlimit="10" stroke-linecap="square"/>
</g>
<g id="Vector_14">
<path d="M398.358 915.869H132.439V923.397H378.823M382.587 923.397H390.793Z" fill="#F5F5F5"/>
<path d="M398.358 915.869H132.439V923.397H378.823M382.587 923.397H390.793" stroke="black" stroke-width="2" stroke-miterlimit="10" stroke-linecap="square"/>
</g>
<g id="Vector_15">
<path d="M390.76 1028.79H398.288V915.872L390.76 923.4V1028.79ZM398.288 1028.79V915.872ZM390.76 923.4V1028.79ZM723.487 548.894L715.959 556.421V821.926H723.487V548.894ZM715.959 556.421V669.714ZM723.487 678.258V548.894ZM715.959 674.231V690.039ZM715.959 694.556V750.261ZM715.959 754.778V780.372Z" fill="#F5F5F5"/>
<path d="M723.487 548.894L715.959 556.421M723.487 548.894V821.926H715.959V556.421M723.487 548.894V678.258M715.959 556.421V669.714M715.959 674.231V690.039M715.959 694.556V750.261M715.959 754.778V780.372M390.76 1028.79H398.288V915.872L390.76 923.4V1028.79Z" stroke="black" stroke-width="2" stroke-miterlimit="10" stroke-linecap="square"/>
</g>
<g id="Vector_16">
<path d="M715.986 787.91V821.935H723.514V678.682M723.514 821.935V867.102ZM715.986 821.935V867.102ZM723.514 867.102H715.986V1028.8H723.514V867.102Z" fill="#F5F5F5"/>
<path d="M715.986 787.91V821.935M715.986 821.935H723.514M715.986 821.935V867.102M723.514 821.935V678.682M723.514 821.935V867.102M723.514 867.102H715.986M723.514 867.102V1028.8H715.986V867.102" stroke="black" stroke-width="2" stroke-miterlimit="10" stroke-linecap="square"/>
</g>
<g id="Vector_17">
<path d="M723.498 1028.79V867.089H715.97V904.577M715.97 912.105V1028.79ZM715.97 821.922V823.427H723.498V821.922H715.97ZM715.97 867.089V865.583H723.498V867.089H715.97ZM715.97 823.427V865.583ZM719.734 823.427V865.583ZM723.498 823.427V865.583ZM503.311 1036.31L510.838 1028.79V844.355H503.311V1036.31ZM510.838 1028.79V941.463Z" fill="#F5F5F5"/>
<path d="M723.498 1028.79V867.089M723.498 867.089H715.97M723.498 867.089V865.583M715.97 867.089V904.577M715.97 867.089V865.583M715.97 912.105V1028.79M715.97 823.427V821.922H723.498V823.427M715.97 823.427H723.498M715.97 823.427V865.583M723.498 823.427V865.583M715.97 865.583H723.498M719.734 823.427V865.583M510.838 1028.79L503.311 1036.31V844.355H510.838V1028.79ZM510.838 1028.79V941.463" stroke="black" stroke-width="2" stroke-miterlimit="10" stroke-linecap="square"/>
</g>
<g id="Vector_18">
<path d="M510.838 904.581V844.358H503.311V1036.32M510.838 935.445V912.108ZM503.311 844.358V787.9ZM510.838 844.358V787.9ZM503.311 787.9H510.838V556.421L503.311 548.894V787.9Z" fill="#F5F5F5"/>
<path d="M510.838 904.581V844.358M510.838 844.358H503.311M510.838 844.358V787.9M503.311 844.358V1036.32M503.311 844.358V787.9M510.838 935.445V912.108M503.311 787.9H510.838M503.311 787.9V548.894L510.838 556.421V787.9" stroke="black" stroke-width="2" stroke-miterlimit="10" stroke-linecap="square"/>
</g>
<g id="Vector_19">
<path d="M503.311 548.894V787.9H510.838M510.838 638.361V556.421ZM510.838 780.372V738.217ZM510.838 733.7V691.545ZM510.838 687.028V645.174ZM510.838 787.9V789.406H503.311V787.9H510.838ZM510.838 844.358V842.853H503.311V844.358H510.838Z" fill="#F5F5F5"/>
<path d="M503.311 548.894V787.9M503.311 787.9H510.838V789.406H503.311V787.9ZM510.838 638.361V556.421M510.838 780.372V738.217M510.838 733.7V691.545M510.838 687.028V645.174M510.838 844.358V842.853H503.311V844.358H510.838Z" stroke="black" stroke-width="2" stroke-miterlimit="10" stroke-linecap="square"/>
</g>
<g id="Vector_20">
<path d="M503.311 844.358V787.9H510.838V844.358M779.956 548.894L787.484 556.421H794.259V548.894H779.956Z" fill="#F5F5F5"/>
<path d="M503.311 844.358V787.9H510.838V844.358M779.956 548.894L787.484 556.421H794.259V548.894H779.956Z" stroke="black" stroke-width="2" stroke-miterlimit="10" stroke-linecap="square"/>
</g>
<g id="Vector_21">
<path d="M787.477 556.421H794.252V548.894H779.949M831.891 548.894V556.421H1048.54V548.894H831.891ZM849.205 556.421H986.775Z" fill="#F5F5F5"/>
<path d="M787.477 556.421H794.252V548.894H779.949M849.205 556.421H986.775M831.891 548.894V556.421H1048.54V548.894H831.891Z" stroke="black" stroke-width="2" stroke-miterlimit="10" stroke-linecap="square"/>
</g>
<g id="Vector_22">
<path d="M891.925 548.894H831.891V556.421H843.183M992.797 556.421H1048.54V548.894H897.232M794.252 556.421H795.757V548.894H794.252V556.421ZM831.891 556.421H830.385V548.894H831.891V556.421ZM795.757 556.421V591.049ZM795.757 591.049L801.78 590.522L807.614 588.941L813.071 586.419L818.04 582.957L822.293 578.666L825.756 573.735L828.315 568.278L829.858 562.444L830.385 556.421M1048.54 735.206V727.678H787.477L779.949 735.206H1048.54Z" fill="#F5F5F5"/>
<path d="M891.925 548.894H831.891M831.891 548.894V556.421M831.891 548.894H830.385V556.421M831.891 556.421H843.183M831.891 556.421H830.385M992.797 556.421H1048.54V548.894H897.232M795.757 556.421H794.252V548.894H795.757V556.421ZM795.757 556.421V591.049L801.78 590.522L807.614 588.941L813.071 586.419L818.04 582.957L822.293 578.666L825.756 573.735L828.315 568.278L829.858 562.444L830.385 556.421M1048.54 735.206V727.678H787.477L779.949 735.206H1048.54Z" stroke="black" stroke-width="2" stroke-miterlimit="10" stroke-linecap="square"/>
</g>
<g id="Vector_23">
<path d="M779.949 735.206H1048.54V727.678H787.477" fill="#F5F5F5"/>
<path d="M779.949 735.206H1048.54V727.678H787.477" stroke="black" stroke-width="2" stroke-miterlimit="10" stroke-linecap="square"/>
</g>
<g id="Vector_24">
<path d="M780 735.206L787.528 727.678V556.421L780 548.894V735.206ZM787.528 727.678V556.421ZM780 678.635V735.206ZM780 548.894V678.296ZM623.799 904.581L631.327 912.108H642.618V904.581H623.799Z" fill="#F5F5F5"/>
<path d="M780 735.206L787.528 727.678V556.421L780 548.894M780 735.206V548.894M780 735.206V678.635M780 548.894V678.296M623.799 904.581L631.327 912.108H642.618V904.581H623.799Z" stroke="black" stroke-width="2" stroke-miterlimit="10" stroke-linecap="square"/>
</g>
<g id="Vector_25">
<path d="M631.327 912.116H642.618V904.588H623.799M642.618 904.588H699.039ZM642.618 912.116H699.039ZM699.039 904.588V912.116H716.014V904.588H699.039Z" fill="#F5F5F5"/>
<path d="M631.327 912.116H642.618M642.618 912.116V904.588M642.618 912.116H699.039M642.618 904.588H623.799M642.618 904.588H699.039M699.039 904.588V912.116M699.039 904.588H716.014V912.116H699.039" stroke="black" stroke-width="2" stroke-miterlimit="10" stroke-linecap="square"/>
</g>
<g id="Vector_26">
<path d="M715.982 904.588H699.045V912.116H715.982M642.549 904.588H644.054V912.116H642.549V904.588ZM699.045 904.588H697.502V912.116H699.045V904.588Z" fill="#F5F5F5"/>
<path d="M715.982 904.588H699.045M699.045 904.588V912.116M699.045 904.588H697.502V912.116H699.045M699.045 912.116H715.982M642.549 904.588H644.054V912.116H642.549V904.588Z" stroke="black" stroke-width="2" stroke-miterlimit="10" stroke-linecap="square"/>
</g>
<g id="Vector_27">
<path d="M642.585 904.588H699.043V912.116H642.585M623.803 1028.8H631.331V912.116L623.803 904.588V1028.8ZM631.331 1028.8V912.116ZM623.803 941.474V1028.8ZM623.803 912.116V935.452ZM510.887 935.452V941.474H623.803V935.452H510.887ZM510.887 941.474H623.803ZM623.803 935.452H510.887ZM510.887 904.588V912.116H515.592V904.588H510.887Z" fill="#F5F5F5"/>
<path d="M642.585 904.588H699.043V912.116H642.585M623.803 1028.8H631.331V912.116L623.803 904.588V1028.8ZM623.803 1028.8V941.474M623.803 941.474H510.887V935.452H623.803M623.803 941.474V935.452M623.803 912.116V935.452M510.887 904.588V912.116H515.592V904.588H510.887Z" stroke="black" stroke-width="2" stroke-miterlimit="10" stroke-linecap="square"/>
</g>
<g id="Vector_28">
<path d="M510.887 912.116H515.592V904.588H510.887M515.592 904.588H620.98ZM515.592 912.116H620.98ZM620.98 904.588V912.116H623.803V904.588H620.98Z" fill="#F5F5F5"/>
<path d="M510.887 912.116H515.592M515.592 912.116V904.588M515.592 912.116H620.98M515.592 904.588H510.887M515.592 904.588H620.98M620.98 904.588V912.116M620.98 904.588H623.803V912.116H620.98" stroke="black" stroke-width="2" stroke-miterlimit="10" stroke-linecap="square"/>
</g>
<g id="Vector_29">
<path d="M623.769 904.575H620.947V912.103H623.769M620.947 904.575H619.441V912.103H620.947V904.575ZM515.558 904.575H517.063V912.103H515.558V904.575ZM619.441 904.575L575.102 878.98ZM517.063 904.575L561.402 878.98ZM575.102 878.98L572.167 885.003L569.983 891.326L568.704 897.875L568.252 904.575M561.402 878.98L564.375 885.003L566.521 891.326L567.8 897.875L568.252 904.575M992.818 620.966L986.796 614.944H849.226L843.204 620.966H992.818ZM986.796 614.944H849.226ZM843.204 620.966H992.818ZM843.204 620.966L849.226 614.944V556.415H843.204V620.966ZM849.226 614.944V556.415ZM843.204 556.415V620.966ZM992.818 556.415H986.796V614.944L992.818 620.966V556.415ZM986.796 556.415V614.944ZM992.818 620.966V556.415ZM723.512 678.252V678.629H779.971V678.252H723.512ZM723.512 678.629H779.971ZM779.971 678.252H723.512ZM382.58 923.394H378.816V1028.78H382.58V923.394ZM378.816 923.394V1028.78ZM382.58 1028.78V923.394ZM644.471 669.708L637.696 674.225H715.985V669.708H644.471ZM644.471 674.225H715.985ZM715.985 669.708H644.471ZM132.432 103.432L117 88V332.653H132.432V103.432Z" fill="#F5F5F5"/>
<path d="M623.769 904.575H620.947M620.947 904.575V912.103M620.947 904.575H619.441M620.947 912.103H623.769M620.947 912.103H619.441V904.575M619.441 904.575L575.102 878.98L572.167 885.003L569.983 891.326L568.704 897.875L568.252 904.575L567.8 897.875L566.521 891.326L564.375 885.003L561.402 878.98L517.063 904.575M517.063 904.575H515.558V912.103H517.063V904.575ZM992.818 620.966L986.796 614.944M992.818 620.966H843.204M992.818 620.966V556.415H986.796V614.944M986.796 614.944H849.226M849.226 614.944L843.204 620.966M849.226 614.944V556.415H843.204V620.966M715.985 674.225H637.696L644.471 669.708H715.985V674.225ZM715.985 674.225H644.471M723.512 678.252V678.629H779.971V678.252H723.512ZM382.58 923.394H378.816V1028.78H382.58V923.394ZM132.432 103.432L117 88V332.653H132.432V103.432Z" stroke="black" stroke-width="2" stroke-miterlimit="10" stroke-linecap="square"/>
</g>
<g id="Vector_30">
<path d="M117 88V332.653H132.432V103.432M132.432 332.653V411.656ZM117 332.653V411.656ZM132.432 411.656H117V449.822H132.432V411.656Z" fill="#F5F5F5"/>
<path d="M117 88V332.653M117 332.653H132.432M117 332.653V411.656M132.432 332.653V103.432M132.432 332.653V411.656M132.432 411.656H117M132.432 411.656V449.822H117V411.656" stroke="black" stroke-width="2" stroke-miterlimit="10" stroke-linecap="square"/>
</g>
<g id="Vector_31">
<path d="M132.432 411.642H117V449.807H132.432V411.642ZM132.432 449.807V528.849ZM117 449.807V528.849ZM132.432 528.849H117V658.063H132.432V528.849Z" fill="#F5F5F5"/>
<path d="M117 449.807V411.642H132.432V449.807M117 449.807H132.432M117 449.807V528.849M132.432 449.807V528.849M132.432 528.849H117M132.432 528.849V658.063H117V528.849" stroke="black" stroke-width="2" stroke-miterlimit="10" stroke-linecap="square"/>
</g>
<g id="Vector_32">
<path d="M132.432 528.859H117V658.074H132.432V528.859ZM132.432 658.074V868.851ZM117 658.074V868.851ZM132.432 868.851H117V875.513H132.432V868.851Z" fill="#F5F5F5"/>
<path d="M117 658.074V528.859H132.432V658.074M117 658.074H132.432M117 658.074V868.851M132.432 658.074V868.851M132.432 868.851H117M132.432 868.851V875.513H117V868.851" stroke="black" stroke-width="2" stroke-miterlimit="10" stroke-linecap="square"/>
</g>
<g id="Vector_33">
<path d="M132.432 868.859H117V875.521H132.432V868.859ZM132.432 875.521V894.303ZM117 875.521V894.303ZM132.432 894.303H117V1036.31L132.432 1028.79V894.303Z" fill="#F5F5F5"/>
<path d="M117 875.521V868.859H132.432V875.521M117 875.521H132.432M117 875.521V894.303M132.432 875.521V894.303M132.432 894.303H117M132.432 894.303V1028.79L117 1036.31V894.303" stroke="black" stroke-width="2" stroke-miterlimit="10" stroke-linecap="square"/>
</g>
<g id="Vector_34">
<path d="M132.432 894.299H117V1036.31L132.432 1028.78V894.299ZM132.432 411.656V410.15H117V411.656H132.432ZM132.432 332.614V334.12H117V332.614H132.432ZM132.432 410.15V334.12ZM124.716 410.15V334.12ZM117 410.15V334.12ZM132.432 528.863V527.358H117V528.863H132.432ZM132.432 449.822V451.327H117V449.822H132.432ZM132.432 527.358V451.327ZM124.716 527.358V451.327ZM117 527.358V451.327ZM117 658.077V659.583H132.432V658.077H117ZM117 868.855V867.349H132.432V868.855H117ZM117 659.583V867.349ZM124.716 659.583V867.349ZM132.432 659.583V867.349ZM132.432 875.479V876.985H117V875.479H132.432ZM132.432 894.299V892.793H117V894.299H132.432ZM132.432 876.985V892.793ZM124.716 876.985V892.793ZM117 876.985V892.793ZM132.432 876.985L138.755 892.793ZM637.696 548.887V556.415H715.985L723.512 548.887H637.696ZM644.471 556.415H715.985ZM723.512 548.887H637.696ZM637.696 674.224L644.471 669.708V556.415H637.696V674.224ZM644.471 669.708V556.415ZM637.696 645.13V674.224ZM637.696 556.415V638.392ZM723.512 1036.31V1028.78H510.853L503.325 1036.31H723.512Z" fill="#F5F5F5"/>
<path d="M132.432 894.299H117M132.432 894.299V1028.78L117 1036.31V894.299M132.432 894.299V892.793M117 894.299V892.793M132.432 410.15V411.656H117V410.15M132.432 410.15H117M132.432 410.15V334.12M117 410.15V334.12M132.432 334.12V332.614H117V334.12M132.432 334.12H117M124.716 410.15V334.12M132.432 527.358V528.863H117V527.358M132.432 527.358H117M132.432 527.358V451.327M117 527.358V451.327M132.432 451.327V449.822H117V451.327M132.432 451.327H117M124.716 527.358V451.327M117 659.583V658.077H132.432V659.583M117 659.583H132.432M117 659.583V867.349M132.432 659.583V867.349M117 867.349V868.855H132.432V867.349M117 867.349H132.432M124.716 659.583V867.349M132.432 876.985V875.479H117V876.985M132.432 876.985H117M132.432 876.985V892.793M132.432 876.985L138.755 892.793M117 876.985V892.793M132.432 892.793H117M124.716 876.985V892.793M637.696 556.415V548.887H723.512L715.985 556.415M637.696 556.415H715.985M637.696 556.415H644.471M637.696 556.415V674.224M637.696 556.415V638.392M715.985 556.415H644.471M644.471 556.415V669.708L637.696 674.224M637.696 674.224V645.13M723.512 1036.31V1028.78H510.853L503.325 1036.31H723.512Z" stroke="black" stroke-width="2" stroke-miterlimit="10" stroke-linecap="square"/>
</g>
<g id="Vector_35">
<path d="M503.325 1036.31H723.512V1028.78M623.769 1028.78H510.853ZM715.985 1028.78H631.297ZM1048.56 1510.56V1495.13H249.037V1510.56H1048.56ZM1048.56 1495.13H249.037ZM249.037 1510.56H1048.56ZM117 88L132.432 103.432H150.724V88H117Z" fill="#F5F5F5"/>
<path d="M503.325 1036.31H723.512V1028.78M623.769 1028.78H510.853M715.985 1028.78H631.297M1048.56 1510.56V1495.13H249.037V1510.56H1048.56ZM117 88L132.432 103.432H150.724V88H117Z" stroke="black" stroke-width="2" stroke-miterlimit="10" stroke-linecap="square"/>
</g>
<g id="Vector_36">
<path d="M132.432 103.432H150.724V88H117M150.724 88H169.544ZM150.724 103.432H169.544ZM169.544 88V103.432H172.705V88H169.544Z" fill="#F5F5F5"/>
<path d="M132.432 103.432H150.724M150.724 103.432V88M150.724 103.432H169.544M150.724 88H117M150.724 88H169.544M169.544 88V103.432M169.544 88H172.705V103.432H169.544" stroke="black" stroke-width="2" stroke-miterlimit="10" stroke-linecap="square"/>
</g>
<g id="Vector_37">
<path d="M169.562 88V103.432H172.724V88H169.562ZM172.724 88H391.03ZM172.724 103.432H391.03ZM391.03 88V103.432H454.714V88H391.03Z" fill="#F5F5F5"/>
<path d="M172.724 103.432H169.562V88H172.724M172.724 103.432V88M172.724 103.432H391.03M172.724 88H391.03M391.03 88V103.432M391.03 88H454.714V103.432H391.03" stroke="black" stroke-width="2" stroke-miterlimit="10" stroke-linecap="square"/>
</g>
<g id="Vector_38">
<path d="M390.986 88V103.432H454.671V88H390.986ZM454.671 88H533.713ZM454.671 103.432H533.713ZM533.713 88V103.432H585.767V88H533.713Z" fill="#F5F5F5"/>
<path d="M454.671 103.432H390.986V88H454.671M454.671 103.432V88M454.671 103.432H533.713M454.671 88H533.713M533.713 88V103.432M533.713 88H585.767V103.432H533.713" stroke="black" stroke-width="2" stroke-miterlimit="10" stroke-linecap="square"/>
</g>
<g id="Vector_39">
<path d="M533.746 88V103.432H585.801V88H533.746ZM585.801 88H604.62ZM585.801 103.432H604.62ZM604.62 88V103.432H608.572V88H604.62Z" fill="#F5F5F5"/>
<path d="M585.801 103.432H533.746V88H585.801M585.801 103.432V88M585.801 103.432H604.62M585.801 88H604.62M604.62 88V103.432M604.62 88H608.572V103.432H604.62" stroke="black" stroke-width="2" stroke-miterlimit="10" stroke-linecap="square"/>
</g>
<g id="Vector_40">
<path d="M604.615 88V103.432H608.567V88H604.615ZM608.567 88H872.039ZM608.567 103.432H872.039ZM872.039 88V103.432H1048.57L1064 88H872.039Z" fill="#F5F5F5"/>
<path d="M608.567 103.432H604.615V88H608.567M608.567 103.432V88M608.567 103.432H872.039M608.567 88H872.039M872.039 88V103.432M872.039 88H1064L1048.57 103.432H872.039" stroke="black" stroke-width="2" stroke-miterlimit="10" stroke-linecap="square"/>
</g>
<g id="Vector_41">
<path d="M1063.99 88H872.035V103.432H1048.56M169.544 103.432H168.038V88H169.544V103.432ZM150.724 103.432H152.23V88H150.724V103.432ZM168.038 103.432H152.23ZM168.038 95.7157H152.23ZM168.038 88H152.23ZM168.038 103.432L152.23 109.755ZM172.705 88H174.211V103.432H172.705V88ZM391.011 88H389.505V103.432H391.011V88ZM174.211 88H389.505ZM174.211 95.7157H389.505ZM174.211 103.432H389.505ZM454.696 103.432H456.201V88H454.696V103.432ZM533.737 103.432H532.232V88H533.737V103.432ZM456.201 103.432H532.232ZM456.201 95.7157H532.232ZM456.201 88H532.232ZM604.611 103.432H603.106V88H604.611V103.432ZM585.792 103.432H587.297V88H585.792V103.432ZM603.106 103.432H587.297ZM603.106 95.7157H587.297ZM603.106 88H587.297ZM603.106 103.432L587.297 109.755ZM872.035 103.432H870.53V88H872.035V103.432ZM608.563 103.432H610.069V88H608.563V103.432ZM870.53 103.432H610.069ZM870.53 95.7157H610.069ZM870.53 88H610.069ZM132.432 1028.78L117 1036.31H398.35V1028.78H132.432ZM398.35 1033.53V1028.78Z" fill="#F5F5F5"/>
<path d="M1063.99 88H872.035M872.035 88V103.432M872.035 88H870.53M872.035 103.432H1048.56M872.035 103.432H870.53M168.038 103.432H169.544V88H168.038M168.038 103.432V88M168.038 103.432H152.23M168.038 103.432L152.23 109.755M168.038 88H152.23M152.23 103.432H150.724V88H152.23M152.23 103.432V88M168.038 95.7157H152.23M174.211 88H172.705V103.432H174.211M174.211 88V103.432M174.211 88H389.505M174.211 103.432H389.505M389.505 88H391.011V103.432H389.505M389.505 88V103.432M174.211 95.7157H389.505M456.201 103.432H454.696V88H456.201M456.201 103.432V88M456.201 103.432H532.232M456.201 88H532.232M532.232 103.432H533.737V88H532.232M532.232 103.432V88M456.201 95.7157H532.232M603.106 103.432H604.611V88H603.106M603.106 103.432V88M603.106 103.432H587.297M603.106 103.432L587.297 109.755M603.106 88H587.297M587.297 103.432H585.792V88H587.297M587.297 103.432V88M603.106 95.7157H587.297M870.53 103.432V88M870.53 103.432H610.069M870.53 88H610.069M610.069 103.432H608.563V88H610.069M610.069 103.432V88M870.53 95.7157H610.069M398.35 1028.78V1036.31H117L132.432 1028.78H398.35ZM398.35 1028.78V1033.53" stroke="black" stroke-width="2" stroke-miterlimit="10" stroke-linecap="square"/>
</g>
<g id="Vector_42">
<path d="M378.816 1028.79H132.432L117 1036.32H398.35V1033.91M390.785 1028.79H382.58ZM117 1510.57L132.432 1495.13V1411.01H117V1510.57ZM132.432 1495.13V1411.01ZM117 1411.01V1510.57ZM249.037 1510.57V1495.13H132.432L117 1510.57H249.037ZM249.037 1495.13H132.432ZM117 1510.57H249.037ZM503.325 548.894L510.853 556.421H637.696V548.894H503.325ZM554.89 556.421H637.696ZM637.696 548.894H503.325ZM510.853 556.421H548.115ZM510.853 780.372V787.9H598.25V780.372H510.853Z" fill="#F5F5F5"/>
<path d="M378.816 1028.79H132.432L117 1036.32H398.35V1033.91M390.785 1028.79H382.58M117 1510.57L132.432 1495.13M117 1510.57V1411.01H132.432V1495.13M117 1510.57H249.037V1495.13H132.432M510.853 556.421L503.325 548.894H637.696V556.421M510.853 556.421H637.696M510.853 556.421H548.115M637.696 556.421H554.89M510.853 780.372V787.9H598.25V780.372H510.853Z" stroke="black" stroke-width="2" stroke-miterlimit="10" stroke-linecap="square"/>
</g>
<g id="Vector_43">
<path d="M510.887 787.875H598.284V780.348H568.662M564.146 780.348H510.887ZM635.923 780.348V787.875H645.558V780.348H635.923Z" fill="#F5F5F5"/>
<path d="M510.887 787.875H598.284V780.348H568.662M564.146 780.348H510.887M635.923 780.348V787.875H645.558V780.348H635.923Z" stroke="black" stroke-width="2" stroke-miterlimit="10" stroke-linecap="square"/>
</g>
<g id="Vector_44">
<path d="M637.666 780.348H635.859V787.875H645.495V780.348H644.441M645.533 780.348H713.282ZM645.533 787.875H713.282ZM713.282 780.348V787.875H715.955V780.348H713.282Z" fill="#F5F5F5"/>
<path d="M637.666 780.348H635.859V787.875H645.495V780.348H644.441M645.533 780.348H713.282M713.282 780.348V787.875M713.282 780.348H715.955V787.875H713.282M645.533 787.875H713.282" stroke="black" stroke-width="2" stroke-miterlimit="10" stroke-linecap="square"/>
</g>
<g id="Vector_45">
<path d="M715.951 780.352H713.241V787.88H715.951M635.856 780.352H634.35V787.88H635.856V780.352ZM598.217 780.352H599.722V787.88H598.217V780.352ZM634.35 780.352V745.725ZM634.35 745.725L628.328 746.252L622.531 747.795L617.036 750.354L612.106 753.817L607.852 758.108L604.389 763.038L601.83 768.496L600.249 774.33L599.722 780.352M645.529 787.88H647.034V780.352H645.529V787.88Z" fill="#F5F5F5"/>
<path d="M715.951 780.352H713.241V787.88H715.951M634.35 780.352H635.856V787.88H634.35V780.352ZM634.35 780.352V745.725L628.328 746.252L622.531 747.795L617.036 750.354L612.106 753.817L607.852 758.108L604.389 763.038L601.83 768.496L600.249 774.33L599.722 780.352M599.722 780.352H598.217V787.88H599.722V780.352ZM645.529 787.88H647.034V780.352H645.529V787.88Z" stroke="black" stroke-width="2" stroke-miterlimit="10" stroke-linecap="square"/>
</g>
<g id="Vector_46">
<path d="M713.278 787.875H711.772V780.348H713.278V787.875ZM647.033 787.875V820.245ZM711.772 787.875V820.245ZM647.033 820.245L652.641 819.756L658.099 818.288L663.18 815.916L667.81 812.679L671.8 808.69L675.036 804.06L677.408 798.941L678.913 793.484L679.365 787.875" fill="#F5F5F5"/>
<path d="M711.772 787.875H713.278V780.348H711.772V787.875ZM711.772 787.875V820.245M647.033 787.875V820.245L652.641 819.756L658.099 818.288L663.18 815.916L667.81 812.679L671.8 808.69L675.036 804.06L677.408 798.941L678.913 793.484L679.365 787.875" stroke="black" stroke-width="2" stroke-miterlimit="10" stroke-linecap="square"/>
</g>
<g id="Vector_47">
<path d="M711.808 820.264L706.162 819.775L700.705 818.307L695.586 815.936L690.994 812.699L687.004 808.709L683.767 804.079L681.358 798.96L679.928 793.503L679.401 787.895M637.697 780.367H644.472V732.49H637.697V780.367ZM644.472 780.367V754.772Z" fill="#F5F5F5"/>
<path d="M711.808 820.264L706.162 819.775L700.705 818.307L695.586 815.936L690.994 812.699L687.004 808.709L683.767 804.079L681.358 798.96L679.928 793.503L679.401 787.895M644.472 780.367H637.697V732.49H644.472V780.367ZM644.472 780.367V754.772" stroke="black" stroke-width="2" stroke-miterlimit="10" stroke-linecap="square"/>
</g>
<g id="Vector_48">
<path d="M644.472 750.263V732.497H637.697V780.374M637.697 694.821H644.472V674.232H637.697V694.821Z" fill="#F5F5F5"/>
<path d="M644.472 750.263V732.497H637.697V780.374M637.697 694.821H644.472V674.232H637.697V694.821Z" stroke="black" stroke-width="2" stroke-miterlimit="10" stroke-linecap="square"/>
</g>
<g id="Vector_49">
<path d="M637.697 674.232V694.859H644.472V694.557M644.472 690.041V674.232Z" fill="#F5F5F5"/>
<path d="M637.697 674.232V694.859H644.472V694.557M644.472 690.041V674.232" stroke="black" stroke-width="2" stroke-miterlimit="10" stroke-linecap="square"/>
</g>
<g id="Vector_50">
<path d="M637.696 694.813V696.319H644.471V694.813H637.696ZM637.696 732.452V730.947H644.471V732.452H637.696ZM637.696 696.319H603.068Z" fill="#F5F5F5"/>
<path d="M637.696 696.319V694.813H644.471V696.319H637.696ZM637.696 696.319H603.068M637.696 732.452V730.947H644.471V732.452H637.696Z" stroke="black" stroke-width="2" stroke-miterlimit="10" stroke-linecap="square"/>
</g>
<g id="Vector_51">
<path d="M603.102 696.322L603.629 702.344L605.21 708.216L607.769 713.674L611.232 718.604L615.485 722.895L620.416 726.358L625.911 728.88L631.745 730.461L637.767 730.988M716.018 754.775V750.259H644.505V754.775H716.018ZM716.018 750.259H644.505ZM644.505 754.775H716.018ZM554.924 645.133L548.149 638.358H510.887V645.133H554.924ZM548.149 638.358H510.887ZM510.887 645.133H554.924Z" fill="#F5F5F5"/>
<path d="M603.102 696.322L603.629 702.344L605.21 708.216L607.769 713.674L611.232 718.604L615.485 722.895L620.416 726.358L625.911 728.88L631.745 730.461L637.767 730.988M716.018 754.775V750.259H644.505V754.775H716.018ZM554.924 645.133L548.149 638.358H510.887V645.133H554.924Z" stroke="black" stroke-width="2" stroke-miterlimit="10" stroke-linecap="square"/>
</g>
<g id="Vector_52">
<path d="M554.855 556.429H548.08V638.406L554.855 645.181V556.429ZM548.08 556.429V638.406ZM554.855 638.368V556.429ZM637.66 638.368H637.585V645.143H637.66" fill="#F5F5F5"/>
<path d="M554.855 556.429H548.08V638.406L554.855 645.181V556.429ZM554.855 556.429V638.368M637.66 638.368H637.585V645.143H637.66" stroke="black" stroke-width="2" stroke-miterlimit="10" stroke-linecap="square"/>
</g>
<g id="Vector_53">
<path d="M600.01 645.133V638.358H554.844V645.133H599.935M554.844 645.133H564.103Z" fill="#F5F5F5"/>
<path d="M600.01 645.133V638.358H554.844V645.133M554.844 645.133H599.935M554.844 645.133H564.103" stroke="black" stroke-width="2" stroke-miterlimit="10" stroke-linecap="square"/>
</g>
<g id="Vector_54">
<path d="M568.658 645.133H600.011V638.358H554.92M637.688 645.133H636.182V638.358H637.688V645.133ZM600.011 645.133H601.554V638.358H600.011V645.133ZM636.182 645.133V679.761ZM636.182 679.761L630.16 679.272L624.326 677.691L618.831 675.169L613.9 671.706L609.647 667.416L606.184 662.485L603.625 657.027L602.044 651.193L601.517 645.171M564.141 645.133V645.284H568.658V645.133M568.658 679.159H564.141V693.575H568.658V679.159Z" fill="#F5F5F5"/>
<path d="M600.011 645.133H568.658V645.284H564.141V645.133M600.011 645.133V638.358M600.011 645.133H601.554V638.358H600.011M600.011 638.358H554.92M636.182 645.133H637.688V638.358H636.182V645.133ZM636.182 645.133V679.761L630.16 679.272L624.326 677.691L618.831 675.169L613.9 671.706L609.647 667.416L606.184 662.485L603.625 657.027L602.044 651.193L601.517 645.171M568.658 679.159H564.141V693.575H568.658V679.159Z" stroke="black" stroke-width="2" stroke-miterlimit="10" stroke-linecap="square"/>
</g>
<g id="Vector_55">
<path d="M564.111 691.542V693.575H568.628V679.159H564.111V687.026M568.628 727.45H564.111V740.247H568.628V727.45Z" fill="#F5F5F5"/>
<path d="M564.111 691.542V693.575H568.628V679.159H564.111V687.026M568.628 727.45H564.111V740.247H568.628V727.45Z" stroke="black" stroke-width="2" stroke-miterlimit="10" stroke-linecap="square"/>
</g>
<g id="Vector_56">
<path d="M564.111 738.22V740.252H568.628V727.455H564.111V733.703M568.628 774.127H564.111V780.375H568.628V774.127Z" fill="#F5F5F5"/>
<path d="M564.111 738.22V740.252H568.628V727.455H564.111V733.703M568.628 774.127H564.111V780.375H568.628V774.127Z" stroke="black" stroke-width="2" stroke-miterlimit="10" stroke-linecap="square"/>
</g>
<g id="Vector_57">
<path d="M568.662 780.367V774.119H564.146V780.367M568.662 645.281V646.787H564.146V645.281H568.662ZM568.662 679.156V677.65H564.146V679.156H568.662ZM568.662 646.787H599.526ZM599.526 646.787L599.075 652.131L597.682 657.326L595.424 662.219L592.337 666.622L588.498 670.386L584.094 673.51L579.201 675.769L574.045 677.161L568.662 677.65M568.662 693.572V695.077H564.146V693.572H568.662ZM568.662 727.447V725.941H564.146V727.447H568.662ZM568.662 695.077H599.526ZM599.526 695.077L599.075 700.422L597.682 705.616L595.424 710.509L592.337 714.913L588.498 718.677L584.094 721.801L579.201 724.059L574.045 725.452L568.662 725.941M568.662 740.244V741.75H564.146V740.244H568.662ZM568.662 774.119V772.613H564.146V774.119H568.662ZM568.662 741.75H599.526ZM599.526 741.75L599.075 747.094L597.682 752.326L595.424 757.181L592.337 761.585L588.498 765.387L584.094 768.473L579.201 770.731L574.045 772.162L568.662 772.613M716.018 694.55V690.034H644.505V694.55H716.018ZM716.018 690.034H644.505ZM644.505 694.55H716.018ZM510.887 733.695V738.211H564.146V733.695H510.887ZM510.887 738.211H564.146ZM564.146 733.695H510.887ZM510.887 687.023V691.539H564.146V687.023H510.887ZM510.887 691.539H564.146ZM564.146 687.023H510.887ZM1031.77 320.044L1032.75 320.985H1048.6V320.044H1031.77Z" fill="#F5F5F5"/>
<path d="M568.662 780.367V774.119M568.662 774.119H564.146M568.662 774.119V772.613M564.146 774.119V780.367M564.146 774.119V772.613H568.662M568.662 646.787V645.281H564.146V646.787H568.662ZM568.662 646.787H599.526L599.075 652.131L597.682 657.326L595.424 662.219L592.337 666.622L588.498 670.386L584.094 673.51L579.201 675.769L574.045 677.161L568.662 677.65M568.662 677.65V679.156H564.146V677.65H568.662ZM568.662 695.077V693.572H564.146V695.077H568.662ZM568.662 695.077H599.526L599.075 700.422L597.682 705.616L595.424 710.509L592.337 714.913L588.498 718.677L584.094 721.801L579.201 724.059L574.045 725.452L568.662 725.941M568.662 725.941V727.447H564.146V725.941H568.662ZM568.662 741.75V740.244H564.146V741.75H568.662ZM568.662 741.75H599.526L599.075 747.094L597.682 752.326L595.424 757.181L592.337 761.585L588.498 765.387L584.094 768.473L579.201 770.731L574.045 772.162L568.662 772.613M716.018 694.55V690.034H644.505V694.55H716.018ZM510.887 733.695V738.211H564.146V733.695H510.887ZM510.887 687.023V691.539H564.146V687.023H510.887ZM1031.77 320.044L1032.75 320.985H1048.6V320.044H1031.77Z" stroke="black" stroke-width="2" stroke-miterlimit="10" stroke-linecap="square"/>
</g>
<g id="Vector_58">
<path d="M1032.71 320.985H1048.55V320.044H1031.73M1048.55 333.594V332.653H1032.67L1031.77 333.594H1048.55Z" fill="#F5F5F5"/>
<path d="M1032.71 320.985H1048.55V320.044H1031.73M1048.55 333.594V332.653H1032.67L1031.77 333.594H1048.55Z" stroke="black" stroke-width="2" stroke-miterlimit="10" stroke-linecap="square"/>
</g>
<g id="Vector_59">
<path d="M1031.73 333.593H1048.55V332.652H1032.67" fill="#F5F5F5"/>
<path d="M1031.73 333.593H1048.55V332.652H1032.67" stroke="black" stroke-width="2" stroke-miterlimit="10" stroke-linecap="square"/>
</g>
<g id="Vector_60">
<path d="M1031.77 333.594L1032.75 332.653V320.985L1031.77 320.044V333.594ZM1032.75 332.653V320.985ZM1031.77 329.416V333.556ZM1031.77 320.044V324.146ZM891.98 548.888H897.25V480.724H891.98V548.888Z" fill="#F5F5F5"/>
<path d="M1031.77 320.044L1032.75 320.985V332.653L1031.77 333.594V320.044ZM1031.77 320.044V324.146M1031.77 329.416V333.556M891.98 548.888H897.25V480.724H891.98V548.888Z" stroke="black" stroke-width="2" stroke-miterlimit="10" stroke-linecap="square"/>
</g>
<g id="Vector_61">
<path d="M897.25 548.891V480.727H891.98V548.854M891.98 443.088H897.25V434.507H891.98V443.088Z" fill="#F5F5F5"/>
<path d="M897.25 548.891V480.727H891.98V548.854M891.98 443.088H897.25V434.507H891.98V443.088Z" stroke="black" stroke-width="2" stroke-miterlimit="10" stroke-linecap="square"/>
</g>
<g id="Vector_62">
<path d="M897.25 436.954V434.508H891.98V443.089H897.25V442.224M891.98 396.869H897.25V257.229H891.98V396.869Z" fill="#F5F5F5"/>
<path d="M897.25 436.954V434.508H891.98V443.089H897.25V442.224M891.98 396.869H897.25V257.229H891.98V396.869Z" stroke="black" stroke-width="2" stroke-miterlimit="10" stroke-linecap="square"/>
</g>
<g id="Vector_63">
<path d="M897.25 324.148V257.264H891.98V396.867H897.25V329.418M891.98 219.625H897.25V208.71H891.98V219.625Z" fill="#F5F5F5"/>
<path d="M897.25 324.148V257.264H891.98V396.867H897.25V329.418M891.98 219.625H897.25V208.71H891.98V219.625Z" stroke="black" stroke-width="2" stroke-miterlimit="10" stroke-linecap="square"/>
</g>
<g id="Vector_64">
<path d="M897.25 211.312V208.715H891.98V219.63H897.25V216.581M891.98 171.076H897.25V103.438H891.98V171.076Z" fill="#F5F5F5"/>
<path d="M897.25 211.312V208.715H891.98V219.63H897.25V216.581M891.98 171.076H897.25V103.438H891.98V171.076Z" stroke="black" stroke-width="2" stroke-miterlimit="10" stroke-linecap="square"/>
</g>
<g id="Vector_65">
<path d="M891.983 171.076H897.253V103.438H891.983V171.076ZM891.983 443.092V444.597H897.253V443.092H891.983ZM891.983 480.73V479.225H897.253V480.73H891.983ZM891.983 444.597H857.355ZM857.355 444.597L857.882 450.619L859.463 456.416L862.023 461.911L865.485 466.842L869.739 471.133L874.669 474.595L880.165 477.117L885.999 478.698L891.983 479.225M891.983 434.51V433.004H897.253V434.51H891.983ZM891.983 396.871V398.376H897.253V396.871H891.983ZM891.983 433.004H857.355ZM857.355 433.004L857.882 426.982L859.463 421.148L862.023 415.691L865.485 410.722L869.739 406.469L874.669 403.006L880.165 400.447L885.999 398.903L891.983 398.376M891.983 219.63V221.135H897.253V219.63H891.983ZM891.983 257.269V255.763H897.253V257.269H891.983ZM891.983 221.135H857.355ZM857.355 221.135L857.882 227.157L859.463 232.991L862.023 238.449L865.485 243.38L869.739 247.671L874.669 251.133L880.165 253.655L885.999 255.236L891.983 255.763M891.983 208.715V207.209H897.253V208.715H891.983ZM891.983 171.076V172.581H897.253V171.076H891.983ZM891.983 207.209H857.355ZM857.355 207.209L857.882 201.187L859.463 195.39L862.023 189.895L865.485 184.964L869.739 180.673L874.669 177.211L880.165 174.689L885.999 173.108L891.983 172.581M1048.6 216.581V211.312H897.29V216.581H1048.6Z" fill="#F5F5F5"/>
<path d="M891.983 171.076H897.253M891.983 171.076V103.438H897.253V171.076M891.983 171.076V172.581M897.253 171.076V172.581H891.983M891.983 444.597V443.092H897.253V444.597H891.983ZM891.983 444.597H857.355L857.882 450.619L859.463 456.416L862.023 461.911L865.485 466.842L869.739 471.133L874.669 474.595L880.165 477.117L885.999 478.698L891.983 479.225M891.983 479.225V480.73H897.253V479.225H891.983ZM891.983 433.004V434.51H897.253V433.004H891.983ZM891.983 433.004H857.355L857.882 426.982L859.463 421.148L862.023 415.691L865.485 410.722L869.739 406.469L874.669 403.006L880.165 400.447L885.999 398.903L891.983 398.376M891.983 398.376V396.871H897.253V398.376H891.983ZM891.983 221.135V219.63H897.253V221.135H891.983ZM891.983 221.135H857.355L857.882 227.157L859.463 232.991L862.023 238.449L865.485 243.38L869.739 247.671L874.669 251.133L880.165 253.655L885.999 255.236L891.983 255.763M891.983 255.763V257.269H897.253V255.763H891.983ZM891.983 207.209V208.715H897.253V207.209H891.983ZM891.983 207.209H857.355L857.882 201.187L859.463 195.39L862.023 189.895L865.485 184.964L869.739 180.673L874.669 177.211L880.165 174.689L885.999 173.108L891.983 172.581M1048.6 216.581V211.312H897.29V216.581H1048.6Z" stroke="black" stroke-width="2" stroke-miterlimit="10" stroke-linecap="square"/>
</g>
<g id="Vector_66">
<path d="M897.197 216.588H1048.54V211.318H897.235M897.197 436.963V442.232H1048.54V436.963H897.197Z" fill="#F5F5F5"/>
<path d="M897.197 216.588H1048.54V211.318H897.235M897.197 436.963V442.232H1048.54V436.963H897.197Z" stroke="black" stroke-width="2" stroke-miterlimit="10" stroke-linecap="square"/>
</g>
<g id="Vector_67">
<path d="M897.216 442.236H1048.56V436.967H897.253M897.216 324.163V329.433H1031.77V324.163H897.216ZM897.216 329.433H1031.77ZM1031.77 324.163H897.216ZM132.432 1036.33H117V1411.02H132.432V1036.33Z" fill="#F5F5F5"/>
<path d="M897.216 442.236H1048.56V436.967H897.253M897.216 324.163V329.433H1031.77V324.163H897.216ZM132.432 1036.33H117V1411.02H132.432V1036.33Z" stroke="black" stroke-width="2" stroke-miterlimit="10" stroke-linecap="square"/>
</g>
<g id="Vector_68">
<path d="M132.432 1411.01V1036.32H117V1411.01M503.325 1033.91V1033.53H398.313V1033.91H503.325ZM442.501 1033.53H398.313L398.35 1028.79M398.35 1036.32L398.313 1033.91H503.363M503.325 1033.53H446.265ZM446.265 103.438H442.501V151.805H446.265V103.438Z" fill="#F5F5F5"/>
<path d="M132.432 1411.01V1036.32H117V1411.01M503.325 1033.53V1033.91H398.313M503.325 1033.53H398.313M503.325 1033.53H446.265M398.313 1033.53V1033.91M398.313 1033.53H442.501M398.313 1033.53L398.35 1028.79M398.313 1033.91L398.35 1036.32M398.313 1033.91H503.363M446.265 103.438H442.501V151.805H446.265V103.438Z" stroke="black" stroke-width="2" stroke-miterlimit="10" stroke-linecap="square"/>
</g>
<path id="Vector_69" d="M446.283 103.438H442.52V151.805H446.283V103.438ZM446.283 189.443H442.52V387.424H446.283V189.443Z" fill="#F5F5F5" stroke="black" stroke-width="2" stroke-miterlimit="10" stroke-linecap="square"/>
<path id="Vector_70" d="M446.283 189.449H442.52V387.429H446.283V189.449ZM446.283 425.068H442.52V435.795H446.283V425.068Z" fill="#F5F5F5" stroke="black" stroke-width="2" stroke-miterlimit="10" stroke-linecap="square"/>
<g id="Vector_71">
<path d="M442.52 432.212V435.788H446.283V425.061H442.52V426.943M446.283 473.427H442.52V1033.49H446.283V473.427Z" fill="#F5F5F5"/>
<path d="M442.52 432.212V435.788H446.283V425.061H442.52V426.943M446.283 473.427H442.52V1033.49H446.283V473.427Z" stroke="black" stroke-width="2" stroke-miterlimit="10" stroke-linecap="square"/>
</g>
<g id="Vector_72">
<path d="M446.294 1033.54V473.473H442.53V1033.54M446.294 151.812V153.317H442.53V151.812H446.294ZM446.294 189.45V187.945H442.53V189.45H446.294ZM446.294 153.317H480.922ZM480.922 153.317L480.395 159.339L478.852 165.173L476.292 170.631L472.829 175.562L468.576 179.852L463.608 183.315L458.15 185.837L452.316 187.418L446.294 187.945M446.294 425.069V423.564H442.53V425.069H446.294ZM446.294 387.431V388.936H442.53V387.431H446.294ZM446.294 423.564H480.922ZM480.922 423.564L480.395 417.542L478.852 411.708L476.292 406.25L472.829 401.282L468.576 397.029L463.608 393.566L458.15 391.006L452.316 389.463L446.294 388.936M446.294 435.797V437.302H442.53V435.797H446.294ZM446.294 473.473V471.93H442.53V473.473H446.294ZM446.294 437.302H480.922ZM480.922 437.302L480.395 443.324L478.852 449.159L476.292 454.616L472.829 459.584L468.576 463.838L463.608 467.3L458.15 469.86L452.316 471.403L446.294 471.93M442.53 432.221V426.951H179.924V432.221H442.53Z" fill="#F5F5F5"/>
<path d="M446.294 1033.54V473.473M446.294 473.473H442.53M446.294 473.473V471.93M442.53 473.473V1033.54M442.53 473.473V471.93H446.294M446.294 153.317V151.812H442.53V153.317H446.294ZM446.294 153.317H480.922L480.395 159.339L478.852 165.173L476.292 170.631L472.829 175.562L468.576 179.852L463.608 183.315L458.15 185.837L452.316 187.418L446.294 187.945M446.294 187.945V189.45H442.53V187.945H446.294ZM446.294 423.564V425.069H442.53V423.564H446.294ZM446.294 423.564H480.922L480.395 417.542L478.852 411.708L476.292 406.25L472.829 401.282L468.576 397.029L463.608 393.566L458.15 391.006L452.316 389.463L446.294 388.936M446.294 388.936V387.431H442.53V388.936H446.294ZM446.294 437.302V435.797H442.53V437.302H446.294ZM446.294 437.302H480.922L480.395 443.324L478.852 449.159L476.292 454.616L472.829 459.584L468.576 463.838L463.608 467.3L458.15 469.86L452.316 471.403L446.294 471.93M442.53 432.221V426.951H179.924V432.221H442.53Z" stroke="black" stroke-width="2" stroke-miterlimit="10" stroke-linecap="square"/>
</g>
<g id="Vector_73">
<path d="M442.471 426.934H179.864V432.203H442.471M142.225 432.203V426.934H132.439V432.203H142.225Z" fill="#F5F5F5"/>
<path d="M442.471 426.934H179.864V432.203H442.471M142.225 432.203V426.934H132.439V432.203H142.225Z" stroke="black" stroke-width="2" stroke-miterlimit="10" stroke-linecap="square"/>
</g>
<g id="Vector_74">
<path d="M142.225 432.203V426.934H132.439V432.203H142.225ZM142.225 432.203H143.731V426.934H142.225V432.203ZM179.864 432.203H178.359V426.934H179.864V432.203ZM143.731 432.203V466.831ZM143.731 466.831L149.753 466.304L155.587 464.723L161.045 462.201L166.013 458.738L170.266 454.448L173.729 449.517L176.289 444.059L177.832 438.225L178.359 432.203" fill="#F5F5F5"/>
<path d="M142.225 432.203V426.934M142.225 432.203H132.439V426.934H142.225M142.225 432.203H143.731M142.225 426.934H143.731V432.203M143.731 432.203V466.831L149.753 466.304L155.587 464.723L161.045 462.201L166.013 458.738L170.266 454.448L173.729 449.517L176.289 444.059L177.832 438.225L178.359 432.203M178.359 432.203H179.864V426.934H178.359V432.203Z" stroke="black" stroke-width="2" stroke-miterlimit="10" stroke-linecap="square"/>
</g>
</g>
<g id="workspacesBackGroup">
<path id="wsB36483" d="M540 548.893V489.537H689.803V548.893H891.924V103.438H539.699V548.893H540Z" fill="#F5F5F5" stroke="black" stroke-width="2" stroke-miterlimit="10" stroke-linecap="square"/>
<path id="wsB36486" d="M442.506 432.227H132.438V915.886H398.356V869.778H442.506V432.227Z" fill="#F5F5F5" stroke="black" stroke-width="2" stroke-miterlimit="10" stroke-linecap="square"/>
<path id="wsB36484" d="M442.506 103.438H132.438V426.943H442.506V103.438Z" fill="#F5F5F5" stroke="black" stroke-width="2" stroke-miterlimit="10" stroke-linecap="square"/>
<path id="wsB36481" d="M503.326 844.358V548.893H539.723V103.438H446.266V844.358H503.326Z" fill="#F5F5F5" stroke="black" stroke-width="2" stroke-miterlimit="10" stroke-linecap="square"/>
<g id="wsB36465">
<path d="M787.479 727.685H1048.54V556.429H992.837V620.979H843.147V556.429H787.441V727.685" fill="#F5F5F5"/>
<path d="M787.479 727.685H1048.54V556.429H992.837V620.979H843.147V556.429H787.441V727.685" stroke="black" stroke-width="2" stroke-miterlimit="10" stroke-linecap="square"/>
</g>
<path id="wsB36468" d="M132.438 1028.8H378.821V923.407H132.438V1028.8Z" fill="#F5F5F5" stroke="black" stroke-width="2" stroke-miterlimit="10" stroke-linecap="square"/>
<path id="wsB36469" d="M510.887 904.563H716.018V787.883H510.887V904.563Z" fill="#F5F5F5" stroke="black" stroke-width="2" stroke-miterlimit="10" stroke-linecap="square"/>
<path id="wsB36467" d="M1048.58 103.438H897.273V211.311H1048.58V103.438Z" fill="#F5F5F5" stroke="black" stroke-width="2" stroke-miterlimit="10" stroke-linecap="square"/>
<path id="wsB36476" d="M897.199 216.574V324.146H1031.76V320.006H1048.55V216.574H897.199Z" fill="#F5F5F5" stroke="black" stroke-width="2" stroke-miterlimit="10" stroke-linecap="square"/>
<path id="wsB36478" d="M897.199 329.419V436.953H1048.55V333.597H1031.72V329.419H897.199Z" fill="#F5F5F5" stroke="black" stroke-width="2" stroke-miterlimit="10" stroke-linecap="square"/>
<path id="wsB36477" d="M897.199 442.225V548.893H1048.55V442.225H897.199Z" fill="#F5F5F5" stroke="black" stroke-width="2" stroke-miterlimit="10" stroke-linecap="square"/>
<path id="wsB36480" d="M503.326 1033.52V844.343H446.266V1033.52H503.326Z" fill="#F5F5F5" stroke="black" stroke-width="2" stroke-miterlimit="10" stroke-linecap="square"/>
<path id="wsB36466" d="M631.301 1028.8H715.988V912.121H631.301V1028.8Z" fill="#F5F5F5" stroke="black" stroke-width="2" stroke-miterlimit="10" stroke-linecap="square"/>
<path id="wsB36470" d="M637.735 674.214V645.157H568.668V780.356H637.735V674.214Z" fill="#F5F5F5" stroke="black" stroke-width="2" stroke-miterlimit="10" stroke-linecap="square"/>
<path id="wsB36479" d="M637.671 548.887H689.801V489.53H539.998V548.887H637.671Z" fill="#F5F5F5" stroke="black" stroke-width="2" stroke-miterlimit="10" stroke-linecap="square"/>
<path id="wsB36482" d="M723.486 548.894V678.296H779.945V548.894H723.486Z" fill="#F5F5F5" stroke="black" stroke-width="2" stroke-miterlimit="10" stroke-linecap="square"/>
<path id="wsB36485" d="M398.374 1028.8V1033.55H442.524V869.779H398.336L398.374 1028.8Z" fill="#F5F5F5" stroke="black" stroke-width="2" stroke-miterlimit="10" stroke-linecap="square"/>
<path id="wsB36472" d="M637.725 638.368V556.429H554.92V638.406L637.725 638.368Z" fill="#F5F5F5" stroke="black" stroke-width="2" stroke-miterlimit="10" stroke-linecap="square"/>
<path id="wsB36471" d="M715.969 750.264V694.559H644.455V750.264H715.969Z" fill="#F5F5F5" stroke="black" stroke-width="2" stroke-miterlimit="10" stroke-linecap="square"/>
<path id="wsB36474" d="M510.887 738.227V780.382H564.146V738.227H510.887Z" fill="#F5F5F5" stroke="black" stroke-width="2" stroke-miterlimit="10" stroke-linecap="square"/>
<path id="wsB36475" d="M510.887 691.543V733.698H564.146V691.543H510.887Z" fill="#F5F5F5" stroke="black" stroke-width="2" stroke-miterlimit="10" stroke-linecap="square"/>
<path id="wsB36473" d="M564.146 645.119H510.887V687.011H564.146V645.119Z" fill="#F5F5F5" stroke="black" stroke-width="2" stroke-miterlimit="10" stroke-linecap="square"/>
<path id="wsB45782" d="M715.969 780.358V754.764H644.455V780.358H715.969Z" fill="#F5F5F5" stroke="black" stroke-width="2" stroke-miterlimit="10" stroke-linecap="square"/>
</g>
<g id="workspacesFrontGroup">
<path id="wsF36483" d="M540 548.893V489.537H689.803V548.893H891.924V103.438H539.699V548.893H540Z" fill="#F5F5F5" stroke="black" stroke-width="2" stroke-miterlimit="10" stroke-linecap="square"/>
<path id="U6_R1" d="M442.506 432.227H132.438V915.886H398.356V869.778H442.506V432.227Z" fill="#F5F5F5" stroke="black" stroke-width="2" stroke-miterlimit="10" stroke-linecap="square"/>
<path id="U6_R61" d="M442.506 103.438H132.438V426.943H442.506V103.438Z" fill="#F5F5F5" stroke="black" stroke-width="2" stroke-miterlimit="10" stroke-linecap="square"/>
<path id="wsF36481" d="M503.326 844.358V548.893H539.723V103.438H446.266V844.358H503.326Z" fill="#F5F5F5" stroke="black" stroke-width="2" stroke-miterlimit="10" stroke-linecap="square"/>
<g id="wsF36465">
<path d="M787.479 727.685H1048.54V556.429H992.837V620.979H843.147V556.429H787.441V727.685" fill="#F5F5F5"/>
<path d="M787.479 727.685H1048.54V556.429H992.837V620.979H843.147V556.429H787.441V727.685" stroke="black" stroke-width="2" stroke-miterlimit="10" stroke-linecap="square"/>
</g>
<path id="wsF36468" d="M132.438 1028.8H378.821V923.407H132.438V1028.8Z" fill="#F5F5F5" stroke="black" stroke-width="2" stroke-miterlimit="10" stroke-linecap="square"/>
<path id="wsF36469" d="M510.887 904.563H716.018V787.883H510.887V904.563Z" fill="#F5F5F5" stroke="black" stroke-width="2" stroke-miterlimit="10" stroke-linecap="square"/>
<path id="wsF36467" d="M1048.58 103.438H897.273V211.311H1048.58V103.438Z" fill="#F5F5F5" stroke="black" stroke-width="2" stroke-miterlimit="10" stroke-linecap="square"/>
<path id="wsF36476" d="M897.199 216.574V324.146H1031.76V320.006H1048.55V216.574H897.199Z" fill="#F5F5F5" stroke="black" stroke-width="2" stroke-miterlimit="10" stroke-linecap="square"/>
<path id="wsF36478" d="M897.199 329.419V436.953H1048.55V333.597H1031.72V329.419H897.199Z" fill="#F5F5F5" stroke="black" stroke-width="2" stroke-miterlimit="10" stroke-linecap="square"/>
<path id="wsF36477" d="M897.199 442.225V548.893H1048.55V442.225H897.199Z" fill="#F5F5F5" stroke="black" stroke-width="2" stroke-miterlimit="10" stroke-linecap="square"/>
<path id="wsF36480" d="M503.326 1033.52V844.343H446.266V1033.52H503.326Z" fill="#F5F5F5" stroke="black" stroke-width="2" stroke-miterlimit="10" stroke-linecap="square"/>
<path id="wsF36466" d="M631.301 1028.8H715.988V912.121H631.301V1028.8Z" fill="#F5F5F5" stroke="black" stroke-width="2" stroke-miterlimit="10" stroke-linecap="square"/>
<path id="wsF36470" d="M637.735 674.214V645.157H568.668V780.356H637.735V674.214Z" fill="#F5F5F5" stroke="black" stroke-width="2" stroke-miterlimit="10" stroke-linecap="square"/>
<path id="wsF36479" d="M637.671 548.887H689.801V489.53H539.998V548.887H637.671Z" fill="#F5F5F5" stroke="black" stroke-width="2" stroke-miterlimit="10" stroke-linecap="square"/>
<path id="wsF36482" d="M723.486 548.894V678.296H779.945V548.894H723.486Z" fill="#F5F5F5" stroke="black" stroke-width="2" stroke-miterlimit="10" stroke-linecap="square"/>
<path id="wsF36485" d="M398.374 1028.8V1033.55H442.524V869.779H398.336L398.374 1028.8Z" fill="#F5F5F5" stroke="black" stroke-width="2" stroke-miterlimit="10" stroke-linecap="square"/>
<path id="wsF36472" d="M637.725 638.368V556.429H554.92V638.406L637.725 638.368Z" fill="#F5F5F5" stroke="black" stroke-width="2" stroke-miterlimit="10" stroke-linecap="square"/>
<path id="wsF36471" d="M715.969 750.264V694.559H644.455V750.264H715.969Z" fill="#F5F5F5" stroke="black" stroke-width="2" stroke-miterlimit="10" stroke-linecap="square"/>
<path id="wsF36474" d="M510.887 738.227V780.382H564.146V738.227H510.887Z" fill="#F5F5F5" stroke="black" stroke-width="2" stroke-miterlimit="10" stroke-linecap="square"/>
<path id="wsF36475" d="M510.887 691.543V733.698H564.146V691.543H510.887Z" fill="#F5F5F5" stroke="black" stroke-width="2" stroke-miterlimit="10" stroke-linecap="square"/>
<path id="wsF36473" d="M564.146 645.119H510.887V687.011H564.146V645.119Z" fill="#F5F5F5" stroke="black" stroke-width="2" stroke-miterlimit="10" stroke-linecap="square"/>
<path id="wsF45782" d="M715.969 780.358V754.764H644.455V780.358H715.969Z" fill="#F5F5F5" stroke="black" stroke-width="2" stroke-miterlimit="10" stroke-linecap="square"/>
<path id="U1" d="M279.136 638.091H283.364V661.205C283.364 663.591 282.801 665.722 281.676 667.597C280.563 669.46 278.989 670.932 276.955 672.011C274.92 673.08 272.534 673.614 269.795 673.614C267.057 673.614 264.67 673.08 262.636 672.011C260.602 670.932 259.023 669.46 257.898 667.597C256.784 665.722 256.227 663.591 256.227 661.205V638.091H260.455V660.864C260.455 662.568 260.83 664.085 261.58 665.415C262.33 666.733 263.398 667.773 264.784 668.534C266.182 669.284 267.852 669.659 269.795 669.659C271.739 669.659 273.409 669.284 274.807 668.534C276.205 667.773 277.273 666.733 278.011 665.415C278.761 664.085 279.136 662.568 279.136 660.864V638.091ZM303.464 638.091V673H299.237V642.523H299.033L290.51 648.182V643.886L299.237 638.091H303.464Z" fill="black"/>
</g>
</g>
<g id="trappa 13">
<g id="Frame 5">
<g id="Clip path group">
<mask id="mask0_64_822" style="mask-type:luminance" maskUnits="userSpaceOnUse" x="901" y="655" width="37" height="35">
<g id="clip0_2_215">
<path id="Vector_75" d="M937.781 655H901.586V689.902H937.781V655Z" fill="white"/>
</g>
</mask>
<g mask="url(#mask0_64_822)">
<g id="Frame 2">
<path id="Line 1" d="M908.695 683.439V679.561" stroke="black" stroke-width="1.29268"/>
<path id="Line 2" d="M909.986 683.439V679.561" stroke="black" stroke-width="1.29268"/>
<path id="Line 3" d="M908.695 679.561V676.976" stroke="black" stroke-width="1.29268"/>
<path id="Line 4" d="M909.986 679.561V676.976" stroke="black" stroke-width="1.29268"/>
<path id="Line 5" d="M908.695 676.975V674.39" stroke="black" stroke-width="1.29268"/>
<path id="Line 6" d="M909.986 676.975V674.39" stroke="black" stroke-width="1.29268"/>
<path id="Line 7" d="M909.986 674.39V671.805" stroke="black" stroke-width="1.29268"/>
<path id="Line 9" d="M908.695 674.39V671.805" stroke="black" stroke-width="1.29268"/>
<path id="Line 8" d="M908.695 676.975V674.39" stroke="black" stroke-width="1.29268"/>
<path id="Line 10" d="M910.637 672.45H919.685" stroke="black" stroke-width="1.29268"/>
<path id="Line 12" d="M910.637 673.743H919.685" stroke="black" stroke-width="1.29268"/>
<path id="Line 11" d="M909.986 674.39V671.805" stroke="black" stroke-width="1.29268"/>
<path id="Line 13" d="M917.744 671.805V662.756" stroke="black" stroke-width="1.29268"/>
<path id="Line 14" d="M919.037 671.805V662.756" stroke="black" stroke-width="1.29268"/>
<path id="Line 15" d="M919.684 663.402H928.732" stroke="black" stroke-width="1.29268"/>
<path id="Line 16" d="M919.684 664.695H928.732" stroke="black" stroke-width="1.29268"/>
<path id="Line 19" d="M928.086 662.756V653.707" stroke="black" stroke-width="1.29268"/>
<path id="Line 20" d="M926.791 662.756V653.707" stroke="black" stroke-width="1.29268"/>
</g>
</g>
</g>
<path id="Line 17" d="M908.049 681.5H899" stroke="black" stroke-width="1.29268"/>
<path id="Line 18" d="M908.049 682.793H899" stroke="black" stroke-width="1.29268"/>
<path id="Line 21" d="M928.732 655.646H937.781" stroke="black" stroke-width="1.29268"/>
<path id="Line 22" d="M928.732 656.939H937.781" stroke="black" stroke-width="1.29268"/>
</g>
</g>
<g id="trappa 14">
<g id="Frame 5_2">
<g id="Clip path group_2">
<mask id="mask1_64_822" style="mask-type:luminance" maskUnits="userSpaceOnUse" x="733" y="626" width="37" height="35">
<g id="clip0_2_215_2">
<path id="Vector_76" d="M769.781 626H733.586V660.902H769.781V626Z" fill="white"/>
</g>
</mask>
<g mask="url(#mask1_64_822)">
<g id="Frame 2_2">
<path id="Line 1_2" d="M740.695 654.439V650.561" stroke="black" stroke-width="1.29268"/>
<path id="Line 2_2" d="M741.986 654.439V650.561" stroke="black" stroke-width="1.29268"/>
<path id="Line 3_2" d="M740.695 650.561V647.976" stroke="black" stroke-width="1.29268"/>
<path id="Line 4_2" d="M741.986 650.561V647.976" stroke="black" stroke-width="1.29268"/>
<path id="Line 5_2" d="M740.695 647.975V645.39" stroke="black" stroke-width="1.29268"/>
<path id="Line 6_2" d="M741.986 647.975V645.39" stroke="black" stroke-width="1.29268"/>
<path id="Line 7_2" d="M741.986 645.39V642.805" stroke="black" stroke-width="1.29268"/>
<path id="Line 9_2" d="M740.695 645.39V642.805" stroke="black" stroke-width="1.29268"/>
<path id="Line 8_2" d="M740.695 647.975V645.39" stroke="black" stroke-width="1.29268"/>
<path id="Line 10_2" d="M742.637 643.45H751.685" stroke="black" stroke-width="1.29268"/>
<path id="Line 12_2" d="M742.637 644.743H751.685" stroke="black" stroke-width="1.29268"/>
<path id="Line 11_2" d="M741.986 645.39V642.805" stroke="black" stroke-width="1.29268"/>
<path id="Line 13_2" d="M749.744 642.805V633.756" stroke="black" stroke-width="1.29268"/>
<path id="Line 14_2" d="M751.037 642.805V633.756" stroke="black" stroke-width="1.29268"/>
<path id="Line 15_2" d="M751.684 634.402H760.732" stroke="black" stroke-width="1.29268"/>
<path id="Line 16_2" d="M751.684 635.695H760.732" stroke="black" stroke-width="1.29268"/>
<path id="Line 19_2" d="M760.086 633.756V624.707" stroke="black" stroke-width="1.29268"/>
<path id="Line 20_2" d="M758.791 633.756V624.707" stroke="black" stroke-width="1.29268"/>
</g>
</g>
</g>
<path id="Line 17_2" d="M740.049 652.5H731" stroke="black" stroke-width="1.29268"/>
<path id="Line 18_2" d="M740.049 653.793H731" stroke="black" stroke-width="1.29268"/>
<path id="Line 21_2" d="M760.732 626.646H769.781" stroke="black" stroke-width="1.29268"/>
<path id="Line 22_2" d="M760.732 627.939H769.781" stroke="black" stroke-width="1.29268"/>
</g>
</g>
<rect id="U6_T01" x="752" y="598" width="1" height="1" fill="#F5F5F5"/>
<rect id="U6_01" x="752" y="525" width="1" height="1" fill="#F5F5F5"/>
<rect id="U6_03" x="752" y="460" width="1" height="1" fill="#F5F5F5"/>
<rect id="U6_04" x="484" y="460" width="1" height="1" fill="#F5F5F5"/>
<rect id="U6_U1" x="407" y="460" width="1" height="1" fill="#F5F5F5"/>
<rect id="U6_05" x="484" y="407" width="1" height="1" fill="#F5F5F5"/>
<rect id="U6_U61" x="410" y="407" width="1" height="1" fill="#F5F5F5"/>
<path id="U61" d="M269.136 257.091H273.364V280.205C273.364 282.591 272.801 284.722 271.676 286.597C270.563 288.46 268.989 289.932 266.955 291.011C264.92 292.08 262.534 292.614 259.795 292.614C257.057 292.614 254.67 292.08 252.636 291.011C250.602 289.932 249.023 288.46 247.898 286.597C246.784 284.722 246.227 282.591 246.227 280.205V257.091H250.455V279.864C250.455 281.568 250.83 283.085 251.58 284.415C252.33 285.733 253.398 286.773 254.784 287.534C256.182 288.284 257.852 288.659 259.795 288.659C261.739 288.659 263.409 288.284 264.807 287.534C266.205 286.773 267.273 285.733 268.011 284.415C268.761 283.085 269.136 281.568 269.136 279.864V257.091ZM292.783 292.477C291.351 292.455 289.919 292.182 288.487 291.659C287.055 291.136 285.749 290.256 284.567 289.017C283.385 287.767 282.436 286.08 281.72 283.955C281.004 281.818 280.646 279.136 280.646 275.909C280.646 272.818 280.936 270.08 281.516 267.693C282.095 265.295 282.936 263.278 284.038 261.642C285.141 259.994 286.47 258.744 288.027 257.892C289.595 257.04 291.362 256.614 293.328 256.614C295.283 256.614 297.021 257.006 298.544 257.79C300.078 258.562 301.328 259.642 302.294 261.028C303.26 262.415 303.885 264.011 304.169 265.818H300.01C299.624 264.25 298.874 262.949 297.76 261.915C296.646 260.881 295.169 260.364 293.328 260.364C290.624 260.364 288.493 261.54 286.936 263.892C285.391 266.244 284.612 269.545 284.601 273.795H284.874C285.51 272.83 286.266 272.006 287.141 271.324C288.027 270.631 289.004 270.097 290.072 269.722C291.141 269.347 292.271 269.159 293.464 269.159C295.464 269.159 297.294 269.659 298.953 270.659C300.612 271.648 301.942 273.017 302.942 274.767C303.942 276.506 304.442 278.5 304.442 280.75C304.442 282.909 303.959 284.886 302.993 286.682C302.027 288.466 300.669 289.886 298.919 290.943C297.18 291.989 295.135 292.5 292.783 292.477ZM292.783 288.727C294.214 288.727 295.499 288.369 296.635 287.653C297.783 286.937 298.686 285.977 299.345 284.773C300.016 283.568 300.351 282.227 300.351 280.75C300.351 279.307 300.027 277.994 299.379 276.812C298.743 275.619 297.862 274.67 296.737 273.966C295.624 273.261 294.351 272.909 292.919 272.909C291.839 272.909 290.834 273.125 289.902 273.557C288.97 273.977 288.152 274.557 287.447 275.295C286.754 276.034 286.209 276.881 285.811 277.835C285.413 278.778 285.214 279.773 285.214 280.818C285.214 282.205 285.538 283.5 286.186 284.705C286.845 285.909 287.743 286.881 288.879 287.619C290.027 288.358 291.328 288.727 292.783 288.727ZM323.418 257.091V292H319.19V261.523H318.986L310.463 267.182V262.886L319.19 257.091H323.418Z" fill="black"/>
<rect id="U6_02" x="812" y="525" width="1" height="1" fill="#F5F5F5"/>
<rect id="U6_T03" x="812" y="591" width="1" height="1" fill="#F5F5F5"/>
</g>
</svg>
