<svg width="1102" height="231" viewBox="0 0 1102 231" fill="none" xmlns="http://www.w3.org/2000/svg">
<g id="Q_hus_plan6">
<g id="svgDrawingGroup">
<g id="floorGraphicsGroup">
<g id="Vector">
<path d="M867.031 83.7025V118.073H912.161V83.7025H867.031ZM867.031 69.7074V79.9979H912.161V69.7074H867.031ZM884.388 65.5913V29.6776H867.031V65.5913H884.388ZM187.307 157.176H255.001V109.861H235.561V147.935H187.307V157.197M912.161 156.559V121.777H868.766V156.559H912.161ZM969.024 160.181L965.275 160.243L915.285 160.263H867.031L811.122 193.399L810.514 192.864H809.751L809.143 193.399L808.917 194.242L809.143 195.086L809.751 195.621H810.514L811.122 195.086L811.348 194.242L811.122 193.399L867.031 160.263H708.035V200.396H935.125L935.472 195.621L936.097 195.086L936.322 194.242L936.097 193.399L935.489 192.864H934.725L934.118 193.399L933.892 194.242L934.118 195.086L934.725 195.621H935.472L935.125 200.396L969.024 160.181ZM760.594 29.1631H708.556V157.176H867.031V156.559V121.777H863.906V29.6776H809.369L810.098 32.6618L809.49 32.9705L809.23 33.6909L809.49 34.4112L810.098 34.7199L810.705 34.4112L810.966 33.6909L810.705 32.9705L810.098 32.6618L809.369 29.6776H760.385L760.594 29.1631Z" fill="#F5F5F5"/>
<path d="M187.307 157.176H255.001V109.861H235.561V147.935H187.307V157.197M867.031 160.263H915.285L965.275 160.243L969.024 160.181L935.125 200.396M867.031 160.263L811.122 193.399M867.031 160.263H708.035V200.396H935.125M811.122 193.399L810.514 192.864H809.751L809.143 193.399L808.917 194.242L809.143 195.086L809.751 195.621H810.514L811.122 195.086L811.348 194.242L811.122 193.399ZM935.125 200.396L935.472 195.621M935.472 195.621L936.097 195.086L936.322 194.242L936.097 193.399L935.489 192.864H934.725L934.118 193.399L933.892 194.242L934.118 195.086L934.725 195.621H935.472ZM809.369 29.6776H863.906V121.777H867.031V156.559V157.176H708.556V29.1631H760.594L760.385 29.6776H809.369ZM809.369 29.6776L810.098 32.6618M810.098 32.6618L809.49 32.9705L809.23 33.6909L809.49 34.4112L810.098 34.7199L810.705 34.4112L810.966 33.6909L810.705 32.9705L810.098 32.6618ZM867.031 83.7025V118.073H912.161V83.7025H867.031ZM867.031 69.7074V79.9979H912.161V69.7074H867.031ZM884.388 65.5913V29.6776H867.031V65.5913H884.388ZM912.161 156.559V121.777H868.766V156.559H912.161Z" stroke="black" stroke-width="0.1" stroke-miterlimit="10" stroke-linecap="square"/>
</g>
<path id="Vector_2" d="M232.436 144.21V109.861H187.307V144.231L232.436 144.21ZM286.245 158.205V147.915H258.473V158.205H286.245Z" fill="#F5F5F5" stroke="black" stroke-width="0.1" stroke-miterlimit="10" stroke-linecap="square"/>
<g id="Vector_3">
<path d="M370.446 157.176V29.657L311.083 33.6703L310.823 32.95L310.215 32.6413L309.608 32.95L309.347 33.6703L309.608 34.3906L310.215 34.6993L310.823 34.3906L311.083 33.6703L370.446 29.657L187.323 29.6776V69.2958H234.189V106.156H258.489V144.231H288.865V157.197H370.446" fill="#F5F5F5"/>
<path d="M370.446 157.176V29.657M370.446 29.657L311.083 33.6703M370.446 29.657L187.323 29.6776V69.2958H234.189V106.156H258.489V144.231H288.865V157.197H370.446M311.083 33.6703L310.823 32.95L310.215 32.6413L309.608 32.95L309.347 33.6703L309.608 34.3906L310.215 34.6993L310.823 34.3906L311.083 33.6703Z" stroke="black" stroke-width="0.1" stroke-miterlimit="10" stroke-linecap="square"/>
</g>
<g id="Vector_4">
<path d="M340.053 160.263H288.848H286.244H258.472H184.181L184.789 192.864L184.181 193.399L183.956 194.243L184.181 195.086L184.789 195.621H185.553L186.16 195.086L186.386 194.243L186.16 193.399L185.553 192.864H184.789L184.181 160.263H134.122H134.192L127.804 159.749L123.777 158.864L120.045 157.588L117.563 156.333L113.657 153.966L109.978 151.126L106.871 148.141L103.868 144.581L101.229 140.629L98.7126 135.772L97.5496 132.788L96.0742 128.219L95.0501 123.794L94.3905 119.596L94.1996 115.891L94.269 110.417L94.9113 105.004L96.0048 99.9409L97.4108 95.4954L98.7473 92.0379L101.212 87.2013V74.8528H97.1851H29.3516V153.06H78.6472L115.515 196.753L116.764 198.235H118.466L121.763 195.086L122.354 195.621H123.117L123.725 195.086L123.951 194.243L123.725 193.399L123.117 192.864H122.354L121.746 193.399L121.52 194.243L121.763 195.086L118.466 198.235V200.396H340.053L311.43 194.14L311.204 193.296L310.597 192.761H309.833L309.226 193.296L309 194.14L309.226 194.983L309.833 195.519H310.597L311.204 194.983L311.43 194.14L340.07 200.396V160.263" fill="#F5F5F5"/>
<path d="M340.053 160.263H288.848H286.244H258.472H184.181M184.181 160.263L184.789 192.864M184.181 160.263H134.122H134.192L127.804 159.749L123.777 158.864L120.045 157.588L117.563 156.333L113.657 153.966L109.978 151.126L106.871 148.141L103.868 144.581L101.229 140.629L98.7126 135.772L97.5496 132.788L96.0742 128.219L95.0501 123.794L94.3905 119.596L94.1996 115.891L94.269 110.417L94.9113 105.004L96.0048 99.9409L97.4108 95.4954L98.7473 92.0379L101.212 87.2013V74.8528H97.1851H29.3516V153.06H78.6472L115.515 196.753L116.764 198.235H118.466M184.789 192.864L184.181 193.399L183.956 194.243L184.181 195.086L184.789 195.621H185.553L186.16 195.086L186.386 194.243L186.16 193.399L185.553 192.864H184.789ZM118.466 198.235L121.763 195.086M118.466 198.235V200.396H340.053L311.43 194.14M121.763 195.086L122.354 195.621H123.117L123.725 195.086L123.951 194.243L123.725 193.399L123.117 192.864H122.354L121.746 193.399L121.52 194.243L121.763 195.086ZM311.43 194.14L311.204 193.296L310.597 192.761H309.833L309.226 193.296L309 194.14L309.226 194.983L309.833 195.519H310.597L311.204 194.983L311.43 194.14ZM311.43 194.14L340.07 200.396V160.263" stroke="black" stroke-width="0.1" stroke-miterlimit="10" stroke-linecap="square"/>
</g>
<g id="Vector_5">
<path d="M232.435 71.3539H187.306V106.156H232.435V71.3745M184.181 67.6493V29.6776H167.136H166.129L164.932 31.0976L135.84 65.509H135.91L134.191 67.6493H184.181ZM184.181 158.411V69.5016H134.191V71.3745L130.494 71.4568L126.849 72.0948L122.336 73.412L118.014 75.4084L115.185 77.0548L111.279 80.142L107.756 83.826L104.649 88.0245L102.548 91.729L100.778 95.4747L99.0596 100.517L98.1397 104.427L97.5322 108.4L97.2197 113.956L97.5322 119.513L98.4521 124.988L99.9622 130.256L102.045 135.258L104.649 139.888L107.756 144.066L111.279 147.75L116.4 151.661L120.6 153.883L124.992 155.447L128.463 156.188L131.432 156.538H134.191V158.391H184.181M373.917 160.263L432.933 193.09V195.354H437.446V193.09H432.933L373.917 160.263H342.674V200.396H705.448L687.396 195.354V193.09H557.908V195.354H562.421V193.09H682.883V195.354H687.396L705.448 200.396V160.263V29.1631H678.717L682.883 32.559V34.8228H687.396V32.559H682.883L678.717 29.1631H653.323L562.404 32.559H557.891V34.8228H562.404V32.559L653.323 29.1631L373.917 29.1837V29.657L432.933 32.559V34.8228H437.446V32.559H432.933L373.917 29.657V160.263ZM965.274 158.411V156.538L970.464 156.209L973.015 155.736L978.309 154.11L982.579 151.949L986.294 149.356L990.564 145.404L994.14 140.876L995.702 138.365L998.392 133.097L1000.39 127.519L1001.72 121.119L1002.04 117.887L1002.18 111.61L1001.57 105.724L1000.39 100.394L998.392 94.8162L996.309 90.5147L993.515 86.1104L990.668 82.7557L987.37 79.4834L984.003 76.9519L978.795 74.0088L974.404 72.4447L969.874 71.5597L965.187 71.3745V67.67H965.326L965.274 29.6776L936.825 33.6703L936.599 32.6413L935.957 31.8798L935.089 31.6122L934.221 31.8798L933.579 32.6413L933.353 33.6703L933.579 34.6993L934.221 35.4608L935.089 35.7284L935.957 35.4608L936.599 34.6993L936.825 33.6703L965.274 29.6776H886.14V67.6493H867.047H915.284V158.411H965.274Z" fill="#F5F5F5"/>
<path d="M232.435 71.3539H187.306V106.156H232.435V71.3745M184.181 158.411V69.5016H134.191V71.3745L130.494 71.4568L126.849 72.0948L122.336 73.412L118.014 75.4084L115.185 77.0548L111.279 80.142L107.756 83.826L104.649 88.0245L102.548 91.729L100.778 95.4747L99.0596 100.517L98.1397 104.427L97.5322 108.4L97.2197 113.956L97.5322 119.513L98.4521 124.988L99.9622 130.256L102.045 135.258L104.649 139.888L107.756 144.066L111.279 147.75L116.4 151.661L120.6 153.883L124.992 155.447L128.463 156.188L131.432 156.538H134.191V158.391H184.181M373.917 160.263L432.933 193.09M373.917 160.263H342.674V200.396H705.448M373.917 160.263V29.657M432.933 193.09V195.354H437.446V193.09H432.933ZM705.448 200.396L687.396 195.354M705.448 200.396V160.263V29.1631H678.717M687.396 195.354V193.09H557.908V195.354H562.421V193.09H682.883V195.354H687.396ZM678.717 29.1631L682.883 32.559M678.717 29.1631H653.323M682.883 32.559V34.8228H687.396V32.559H682.883ZM653.323 29.1631L562.404 32.559M653.323 29.1631L373.917 29.1837V29.657M562.404 32.559H557.891V34.8228H562.404V32.559ZM373.917 29.657L432.933 32.559M432.933 32.559V34.8228H437.446V32.559H432.933ZM965.274 29.6776L965.326 67.67H965.187V71.3745L969.874 71.5597L974.404 72.4447L978.795 74.0088L984.003 76.9519L987.37 79.4834L990.668 82.7557L993.515 86.1104L996.309 90.5147L998.392 94.8162L1000.39 100.394L1001.57 105.724L1002.18 111.61L1002.04 117.887L1001.72 121.119L1000.39 127.519L998.392 133.097L995.702 138.365L994.14 140.876L990.564 145.404L986.294 149.356L982.579 151.949L978.309 154.11L973.015 155.736L970.464 156.209L965.274 156.538V158.411H915.284V67.6493H867.047H886.14V29.6776H965.274ZM965.274 29.6776L936.825 33.6703M936.825 33.6703L936.599 32.6413L935.957 31.8798L935.089 31.6122L934.221 31.8798L933.579 32.6413L933.353 33.6703L933.579 34.6993L934.221 35.4608L935.089 35.7284L935.957 35.4608L936.599 34.6993L936.825 33.6703ZM184.181 67.6493V29.6776H167.136H166.129L164.932 31.0976L135.84 65.509H135.91L134.191 67.6493H184.181Z" stroke="black" stroke-width="0.1" stroke-miterlimit="10" stroke-linecap="square"/>
</g>
<g id="Vector_6">
<path d="M1004.05 125.749L1002.45 131.43L1001.01 135.114L998.237 140.568L994.817 145.548L992.994 147.73V153.081H1072.02V120.954H1068.55V108.606H1072.02V74.8529H1022.38H1019.08L1016.91 72.2803L1017.69 71.3541L982.545 29.6778L979.299 32.6415L978.657 31.88L977.789 31.6124L976.921 31.88L976.279 32.6415L976.053 33.6705L976.279 34.6995L976.921 35.461L977.789 35.7286L978.657 35.461L979.299 34.6995L979.525 33.6705L979.299 32.6415L982.545 29.6778H967.357L967.409 67.7936L970.777 67.9994L974.214 68.6374L979.334 70.3045L983.76 72.5272L987.006 74.75L991.745 78.8044L995.98 83.929L997.646 86.3988L999.556 89.7946L1000.96 92.6553L1003.22 98.9943L1004.19 102.637L1005.11 108.955L1005.3 112.516L1005.09 119.596L1004.05 125.749ZM760.385 24.4297L760.593 24.6355H705.431V29.1633H760.593L760.385 29.6778M678.7 29.1633H679.915V24.6355H678.7V24.4297M705.431 24.6355V26.6936H679.915V24.6355H705.431Z" fill="#F5F5F5"/>
<path d="M982.545 29.6778L1017.69 71.3541L1016.91 72.2803L1019.08 74.8529H1022.38H1072.02V108.606H1068.55V120.954H1072.02V153.081H992.994V147.73L994.817 145.548L998.237 140.568L1001.01 135.114L1002.45 131.43L1004.05 125.749L1005.09 119.596L1005.3 112.516L1005.11 108.955L1004.19 102.637L1003.22 98.9943L1000.96 92.6553L999.556 89.7946L997.646 86.3988L995.98 83.929L991.745 78.8044L987.006 74.75L983.76 72.5272L979.334 70.3045L974.214 68.6374L970.777 67.9994L967.409 67.7936L967.357 29.6778H982.545ZM982.545 29.6778L979.299 32.6415M979.299 32.6415L978.657 31.88L977.789 31.6124L976.921 31.88L976.279 32.6415L976.053 33.6705L976.279 34.6995L976.921 35.461L977.789 35.7286L978.657 35.461L979.299 34.6995L979.525 33.6705L979.299 32.6415ZM760.385 24.4297L760.593 24.6355H705.431M705.431 24.6355V29.1633H760.593L760.385 29.6778M705.431 24.6355V26.6936H679.915V24.6355M705.431 24.6355H679.915M678.7 29.1633H679.915V24.6355M679.915 24.6355H678.7V24.4297" stroke="black" stroke-width="0.1" stroke-miterlimit="10" stroke-linecap="square"/>
</g>
<g id="Vector_7">
<path d="M705.431 24.6355H704.736V26.6936H705.431V24.6355ZM679.915 24.6355H680.609V26.6936H679.915V24.6355ZM704.736 24.6355H680.609ZM704.736 25.6645H680.609ZM704.736 26.6936H680.609ZM678.7 24.6355V24.4297V29.1633M653.323 29.1633H654.417V24.4297H653.861L653.323 24.7384M678.7 24.4297H678.006V29.1633H678.7V24.4297Z" fill="#F5F5F5"/>
<path d="M704.736 24.6355H705.431V26.6936H704.736M704.736 24.6355V26.6936M704.736 24.6355H680.609M704.736 26.6936H680.609M680.609 24.6355H679.915V26.6936H680.609M680.609 24.6355V26.6936M704.736 25.6645H680.609M678.7 24.6355V24.4297M678.7 24.4297V29.1633H678.006V24.4297H678.7ZM653.323 29.1633H654.417V24.4297H653.861L653.323 24.7384" stroke="black" stroke-width="0.1" stroke-miterlimit="10" stroke-linecap="square"/>
</g>
<g id="Vector_8">
<path d="M654.399 24.4296H655.094V29.1632H654.399V24.4296ZM678.006 24.4296V10.8462ZM655.094 24.4296V10.8462ZM678.006 10.8462L675.784 11.1138L673.632 11.8752L671.653 13.1307L669.917 14.8183L668.494 16.8764L667.435 19.2432L666.775 21.7746L666.567 24.4502M655.094 10.8462L657.35 11.1138L659.485 11.8752L661.464 13.1307L663.2 14.8183L664.64 16.8764L665.682 19.2432L666.341 21.7746L666.567 24.4502M1075.15 74.8528H1075.76V67.6494H1041.65V74.8528H1072.02M1031.23 74.8528V67.6494H1022.38V74.8528H1031.23ZM1041.65 67.6494H1040.95V69.7075H1041.65V67.6494ZM1031.23 67.6494H1031.93V69.7075H1031.23V67.6494ZM1040.95 67.6494H1031.93ZM1040.95 68.6785H1031.93ZM1040.95 69.7075H1031.93ZM1072.02 153.06H992.994V160.263H1075.15V153.06M1075.15 153.06H1072.02ZM1072.02 153.06H1075.15V120.954H1072.02V153.06Z" fill="#F5F5F5"/>
<path d="M655.094 24.4296H654.399V29.1632H655.094V24.4296ZM655.094 24.4296V10.8462L657.35 11.1138L659.485 11.8752L661.464 13.1307L663.2 14.8183L664.64 16.8764L665.682 19.2432L666.341 21.7746L666.567 24.4502L666.775 21.7746L667.435 19.2432L668.494 16.8764L669.917 14.8183L671.653 13.1307L673.632 11.8752L675.784 11.1138L678.006 10.8462V24.4296M1075.15 74.8528H1075.76V67.6494H1041.65M1041.65 67.6494V74.8528H1072.02M1041.65 67.6494H1040.95M1041.65 67.6494V69.7075H1040.95M1031.23 67.6494V74.8528H1022.38V67.6494H1031.23ZM1031.23 67.6494H1031.93M1031.23 67.6494V69.7075H1031.93M1040.95 67.6494V69.7075M1040.95 67.6494H1031.93M1040.95 69.7075H1031.93M1031.93 67.6494V69.7075M1040.95 68.6785H1031.93M1072.02 153.06H992.994V160.263H1075.15V153.06M1072.02 153.06H1075.15M1072.02 153.06V120.954H1075.15V153.06" stroke="black" stroke-width="0.1" stroke-miterlimit="10" stroke-linecap="square"/>
</g>
<g id="Vector_9">
<path d="M1075.15 153.06V152.237H1072.02V153.06H1075.15ZM1075.15 120.954V121.777H1072.02V120.954H1075.15ZM1075.15 152.237V121.777ZM1073.59 152.237V121.777ZM1072.02 152.237V121.777ZM1072.02 74.8528H1075.15ZM1075.15 108.605V107.782H1072.02V108.605H1075.15ZM1075.15 74.8528V75.676H1072.02V74.8528H1075.15ZM1075.15 107.782V75.676ZM1073.59 107.782V75.676ZM1072.02 107.782V75.676ZM967.357 29.6777H965.274V37.8277H967.357V29.6777ZM967.392 58.4086H965.309V67.6701L967.392 67.7935V58.4086ZM965.274 37.8277V38.651H967.357V37.8277H965.274ZM965.309 58.4086V57.5854H967.392V58.4086H965.309ZM965.274 38.651L949.305 38.6716ZM949.305 38.6716L949.565 41.9645L950.294 45.1546L951.475 48.1388L953.072 50.8349L955.05 53.1605L957.324 55.0539L959.841 56.4535L962.531 57.2973L965.309 57.5854M867.03 118.073V83.7026ZM867.03 65.5914V29.6777H863.906V121.777M867.03 79.998V69.7075ZM760.593 29.1632L760.385 29.6777H809.385M809.385 24.4296H760.385L760.593 24.6354M809.385 29.6777H872.237V24.4296H809.385M882.652 24.4296V29.6777H915.11V24.4296H882.652ZM965.274 24.4296V29.6777H967.409V24.4296H965.274ZM984.367 24.4296H983.291V29.6777H982.545M882.652 24.4296H881.957V26.4876H882.652V24.4296ZM872.237 24.4296H872.932V26.4876H872.237V24.4296ZM881.957 24.4296H872.932ZM881.957 25.4586H872.932ZM881.957 26.4876H872.932ZM915.11 24.4296H915.805V29.6777H915.11V24.4296ZM932.468 24.4296H931.774V29.6777H932.468V24.4296ZM915.805 24.4296V5.49512ZM915.805 5.49512L918.582 5.78325L921.272 6.64764L923.789 8.02659L926.08 9.92001L928.042 12.2663L929.639 14.9624L930.819 17.9466L931.531 21.1366L931.774 24.4296M965.274 24.4296H964.58V27.5167H965.274V24.4296ZM932.468 24.4296H933.162V27.5167H932.468V24.4296ZM964.58 24.4296H933.162ZM964.58 25.9732H933.162ZM964.58 27.5167H933.162Z" fill="#F5F5F5"/>
<path d="M1075.15 152.237V153.06H1072.02V152.237M1075.15 152.237H1072.02M1075.15 152.237V121.777M1072.02 152.237V121.777M1075.15 121.777V120.954H1072.02V121.777M1075.15 121.777H1072.02M1073.59 152.237V121.777M1075.15 107.782V108.605H1072.02V107.782M1075.15 107.782H1072.02M1075.15 107.782V75.676M1072.02 107.782V75.676M1075.15 75.676V74.8528H1072.02V75.676M1075.15 75.676H1072.02M1073.59 107.782V75.676M965.274 29.6777H967.357V37.8277M965.274 29.6777V37.8277M965.274 29.6777V24.4296M965.274 29.6777H967.409V24.4296H965.274M965.274 37.8277H967.357M965.274 37.8277V38.651M967.357 37.8277V38.651H965.274M967.392 58.4086H965.309M967.392 58.4086V67.7935L965.309 67.6701V58.4086M967.392 58.4086V57.5854H965.309M965.309 58.4086V57.5854M965.274 38.651L949.305 38.6716L949.565 41.9645L950.294 45.1546L951.475 48.1388L953.072 50.8349L955.05 53.1605L957.324 55.0539L959.841 56.4535L962.531 57.2973L965.309 57.5854M867.03 118.073V83.7026M867.03 65.5914V29.6777H863.906V121.777M867.03 79.998V69.7075M760.593 29.1632L760.385 29.6777H809.385H872.237V24.4296M760.593 24.6354L760.385 24.4296H809.385H872.237M872.237 24.4296H872.932M872.237 24.4296V26.4876H872.932M882.652 24.4296V29.6777H915.11M882.652 24.4296H915.11M882.652 24.4296H881.957M882.652 24.4296V26.4876H881.957M915.11 29.6777V24.4296M915.11 29.6777H915.805V24.4296M915.11 24.4296H915.805M965.274 24.4296H964.58M965.274 24.4296V27.5167H964.58M984.367 24.4296H983.291V29.6777H982.545M881.957 24.4296V26.4876M881.957 24.4296H872.932M881.957 26.4876H872.932M872.932 24.4296V26.4876M881.957 25.4586H872.932M915.805 24.4296V5.49512L918.582 5.78325L921.272 6.64764L923.789 8.02659L926.08 9.92001L928.042 12.2663L929.639 14.9624L930.819 17.9466L931.531 21.1366L931.774 24.4296M932.468 24.4296H931.774M932.468 24.4296V29.6777H931.774V24.4296M932.468 24.4296H933.162M932.468 24.4296V27.5167H933.162M964.58 24.4296V27.5167M964.58 24.4296H933.162M964.58 27.5167H933.162M933.162 24.4296V27.5167M964.58 25.9732H933.162" stroke="black" stroke-width="0.1" stroke-miterlimit="10" stroke-linecap="square"/>
</g>
<g id="Vector_10">
<path d="M983.291 24.4297H982.597V27.5168H983.291V24.4297ZM967.409 24.4297H968.104V27.5168H967.409V24.4297ZM982.597 24.4297H968.104ZM982.597 25.9733H968.104ZM982.597 27.5168H968.104Z" fill="#F5F5F5"/>
<path d="M982.597 24.4297H983.291V27.5168H982.597M982.597 24.4297V27.5168M982.597 24.4297H968.104M982.597 27.5168H968.104M968.104 24.4297H967.409V27.5168H968.104M968.104 24.4297V27.5168M982.597 25.9733H968.104" stroke="black" stroke-width="0.1" stroke-miterlimit="10" stroke-linecap="square"/>
</g>
<g id="Vector_11">
<path d="M982.545 29.6778L982.094 29.1633L983.378 27.6197L985.218 25.4381L984.368 24.4297M1020.82 67.6495L1018.98 69.8311L1017.69 71.3541L1020.82 67.6495Z" fill="#F5F5F5"/>
<path d="M982.545 29.6778L982.094 29.1633L983.378 27.6197L985.218 25.4381L984.368 24.4297M1020.82 67.6495L1018.98 69.8311L1017.69 71.3541L1020.82 67.6495Z" stroke="black" stroke-width="0.1" stroke-miterlimit="10" stroke-linecap="square"/>
</g>
<g id="Vector_12">
<path d="M1020.82 67.6494L1020.33 67.0731L1018.49 69.2547L1018.98 69.831L1020.82 67.6494ZM985.236 25.438L985.722 26.0348L983.882 28.2164L983.379 27.6195L985.236 25.438ZM1020.33 67.0731L985.722 26.0348ZM1019.41 68.1639L984.802 27.1256ZM1018.49 69.2547L983.882 28.2164ZM868.766 121.777H912.16ZM912.16 118.073H867.031ZM863.906 121.777H867.031ZM912.16 69.7075V79.9979ZM912.16 83.7025V91.3174H915.285V67.6494H912.16M915.285 160.263V111.898H912.16V118.073M912.16 121.777V156.559Z" fill="#F5F5F5"/>
<path d="M1020.33 67.0731L1020.82 67.6494L1018.98 69.831L1018.49 69.2547M1020.33 67.0731L1018.49 69.2547M1020.33 67.0731L985.722 26.0348M1018.49 69.2547L983.882 28.2164M985.722 26.0348L985.236 25.438L983.379 27.6195L983.882 28.2164M985.722 26.0348L983.882 28.2164M1019.41 68.1639L984.802 27.1256M868.766 121.777H912.16V156.559M867.031 118.073H912.16V111.898H915.285V160.263M863.906 121.777H867.031M912.16 69.7075V79.9979M912.16 83.7025V91.3174H915.285V67.6494H912.16" stroke="black" stroke-width="0.1" stroke-miterlimit="10" stroke-linecap="square"/>
</g>
<g id="Vector_13">
<path d="M915.284 111.898V111.075H912.16V111.898H915.284ZM915.284 91.3175V92.1407H912.16V91.3175H915.284ZM867.03 83.7026H912.16ZM912.16 79.998H867.03ZM867.03 69.7075H886.124V67.6494H867.03M912.16 67.6494V69.7075ZM912.16 67.6494H911.466V69.7075H912.16V67.6494ZM886.124 67.6494H886.818V69.7075H886.124V67.6494ZM911.466 67.6494V53.037ZM886.818 67.6494V53.037ZM911.466 53.037L909.07 53.3252L906.762 54.1484L904.627 55.5067L902.752 57.3178L901.225 59.5406L900.079 62.0514L899.385 64.8093L899.142 67.6494M886.818 53.037L889.231 53.3252L891.539 54.1484L893.674 55.5067L895.531 57.3178L897.076 59.5406L898.205 62.0514L898.899 64.8093L899.142 67.6494M886.124 29.6777H884.388V30.3363H886.124V29.6777ZM886.124 67.6494V46.801H884.388V65.5914M886.124 30.3363V31.1595H884.388V30.3363H886.124Z" fill="#F5F5F5"/>
<path d="M867.03 83.7026H912.16M912.16 79.998H867.03M867.03 69.7075H886.124M886.124 69.7075V67.6494M886.124 69.7075H886.818V67.6494M886.124 67.6494H867.03M886.124 67.6494H886.818M886.124 67.6494V46.801H884.388V65.5914M911.466 67.6494H912.16V69.7075H911.466V67.6494ZM911.466 67.6494V53.037L909.07 53.3252L906.762 54.1484L904.627 55.5067L902.752 57.3178L901.225 59.5406L900.079 62.0514L899.385 64.8093L899.142 67.6494L898.899 64.8093L898.205 62.0514L897.076 59.5406L895.531 57.3178L893.674 55.5067L891.539 54.1484L889.231 53.3252L886.818 53.037V67.6494M884.388 30.3363V29.6777H886.124V30.3363M884.388 30.3363H886.124M884.388 30.3363V31.1595H886.124V30.3363M915.284 111.898V111.075H912.16V111.898H915.284ZM915.284 91.3175V92.1407H912.16V91.3175H915.284Z" stroke="black" stroke-width="0.1" stroke-miterlimit="10" stroke-linecap="square"/>
</g>
<g id="Vector_14">
<path d="M886.123 46.8009V45.9777H884.388V46.8009H886.123ZM886.123 31.1594H898.621ZM898.621 31.1594L898.378 34.0407L897.684 36.8397L896.521 39.3918L894.958 41.6557L893.066 43.4874L890.914 44.8457L888.571 45.6895L886.123 45.9777M884.388 65.5913H867.03ZM867.03 67.6493H886.123ZM184.182 160.263H235.942V157.176H187.306M255.001 157.176H255.035V160.263H258.472" fill="#F5F5F5"/>
<path d="M886.123 45.9777V46.8009H884.388V45.9777H886.123ZM886.123 45.9777L888.571 45.6895L890.914 44.8457L893.066 43.4874L894.958 41.6557L896.521 39.3918L897.684 36.8397L898.378 34.0407L898.621 31.1594H886.123M884.388 65.5913H867.03M867.03 67.6493H886.123M184.182 160.263H235.942V157.176H187.306M255.001 157.176H255.035V160.263H258.472" stroke="black" stroke-width="0.1" stroke-miterlimit="10" stroke-linecap="square"/>
</g>
<g id="Vector_15">
<path d="M255.036 160.263H254.341V157.176H255.036V160.263ZM235.925 160.263H236.619V157.176H235.925V160.263ZM254.341 160.263V181.256ZM254.341 181.256L251.564 181.009L248.856 180.227L246.287 178.972L243.927 177.243L241.809 175.102L240.004 172.612L238.563 169.792L237.487 166.746L236.845 163.556L236.637 160.263M232.436 106.156H187.306ZM235.56 109.861H255.001ZM258.472 106.156H234.172ZM187.306 109.861H232.436ZM187.306 157.176V147.915ZM184.182 69.5017V160.263ZM187.306 144.21V109.861ZM187.306 106.156V71.3746ZM187.306 69.2959V29.6777H184.182V67.6494M97.1854 74.8734V67.67H68.4413V74.8734H97.1854ZM68.4413 74.8528H58.0267ZM68.4413 67.6494H58.0267ZM29.3519 74.8528H58.0267V67.6494H26.2275M68.4413 67.6494H67.747V69.7075H68.4413V67.6494ZM58.0267 67.6494H58.721V69.7075H58.0267V67.6494ZM67.747 67.6494H58.721ZM67.747 68.6785H58.721ZM67.747 69.7075H58.721ZM705.431 160.263H758.615V157.176H708.555M867.03 156.559V157.176H789.858V160.263H867.03M758.615 160.263H759.309V157.176H758.615V160.263ZM789.858 160.263H789.164V157.176H789.858V160.263ZM759.309 160.263V177.963ZM789.164 160.263V177.963ZM759.309 177.963L761.913 177.695L764.412 176.893L766.773 175.596L768.908 173.826L770.748 171.645L772.24 169.113L773.334 166.314L774.011 163.33L774.237 160.263M789.164 177.963L786.56 177.695L784.061 176.893L781.7 175.596L779.565 173.826L777.725 171.645L776.233 169.113L775.139 166.314L774.462 163.33L774.237 160.263" fill="#F5F5F5"/>
<path d="M254.341 160.263H255.036V157.176H254.341V160.263ZM254.341 160.263V181.256L251.564 181.009L248.856 180.227L246.287 178.972L243.927 177.243L241.809 175.102L240.004 172.612L238.563 169.792L237.487 166.746L236.845 163.556L236.637 160.263M232.436 106.156H187.306V71.3746M235.56 109.861H255.001M258.472 106.156H234.172M232.436 109.861H187.306V144.21M187.306 157.176V147.915M184.182 69.5017V160.263M187.306 69.2959V29.6777H184.182V67.6494M68.4413 74.8528H58.0267M58.0267 74.8528H29.3519M58.0267 74.8528V67.6494M68.4413 67.6494H58.0267M68.4413 67.6494H67.747M68.4413 67.6494V69.7075H67.747M58.0267 67.6494H26.2275M58.0267 67.6494H58.721M58.0267 67.6494V69.7075H58.721M67.747 67.6494V69.7075M67.747 67.6494H58.721M67.747 69.7075H58.721M58.721 67.6494V69.7075M67.747 68.6785H58.721M705.431 160.263H758.615M758.615 160.263V157.176M758.615 160.263H759.309M758.615 157.176H708.555M758.615 157.176H759.309V160.263M867.03 156.559V157.176H789.858M789.858 157.176V160.263M789.858 157.176H789.164V160.263M789.858 160.263H867.03M789.858 160.263H789.164M759.309 160.263V177.963L761.913 177.695L764.412 176.893L766.773 175.596L768.908 173.826L770.748 171.645L772.24 169.113L773.334 166.314L774.011 163.33L774.237 160.263L774.462 163.33L775.139 166.314L776.233 169.113L777.725 171.645L779.565 173.826L781.7 175.596L784.061 176.893L786.56 177.695L789.164 177.963V160.263M235.925 160.263H236.619V157.176H235.925V160.263ZM97.1854 74.8734V67.67H68.4413V74.8734H97.1854Z" stroke="black" stroke-width="0.1" stroke-miterlimit="10" stroke-linecap="square"/>
</g>
<g id="Vector_16">
<path d="M708.555 157.176V29.1631H705.431V160.263M705.431 160.263H708.034ZM708.034 197.309H705.431V200.396H708.034V197.309ZM708.034 197.309V196.486H705.431V197.309H708.034ZM708.034 160.263V161.087H705.431V160.263H708.034ZM708.034 196.486H722.962ZM708.034 161.087H722.962ZM722.962 196.486L722.736 193.399L722.059 190.435L720.966 187.636L719.473 185.105L717.633 182.923L715.498 181.153L713.138 179.856L710.638 179.054L708.034 178.786M722.962 161.087L722.736 164.174L722.059 167.137L720.966 169.936L719.473 172.468L717.633 174.649L715.498 176.419L713.138 177.716L710.638 178.539L708.034 178.786M255.001 109.861V157.197ZM258.472 144.21V106.156ZM258.472 160.263V147.915ZM165.331 200.396V203.483H165.453V200.396H165.331ZM185.414 200.396V203.483H185.657V200.396H185.414ZM225.059 200.396V203.483H225.944V200.396H225.076M236.879 200.396V203.483H237.747V200.396H236.879ZM276.871 200.396V203.483H278.017V200.396H276.871ZM288.952 200.396V203.483H341.893V200.396H288.952ZM381.017 200.396V203.483H382.163V200.396H381.017ZM393.098 200.396V203.483H393.966V200.396H393.098ZM433.09 200.396V203.483H434.235V200.396H433.09ZM445.171 200.396V203.483H446.039V200.396H445.171ZM485.163 200.396V203.483H486.308V200.396H485.163ZM497.244 200.396V203.483H498.111V200.396H497.244ZM537.236 200.396V203.483H538.381V200.396H537.236ZM549.316 200.396V203.483H550.184V200.396H549.316ZM589.308 200.396V203.483H590.454V200.396H589.308ZM601.389 200.396V203.483H602.257V200.396H601.389ZM641.381 200.396V203.483H642.527V200.396H641.381ZM653.462 200.396V203.483H654.451V200.396H653.462ZM693.593 200.396V203.483H694.6V200.396H693.593Z" fill="#F5F5F5"/>
<path d="M708.555 157.176V29.1631H705.431V160.263M705.431 160.263H708.034V161.087M705.431 160.263V161.087H708.034M708.034 197.309H705.431M708.034 197.309V200.396H705.431V197.309M708.034 197.309V196.486M705.431 197.309V196.486H708.034M708.034 196.486H722.962L722.736 193.399L722.059 190.435L720.966 187.636L719.473 185.105L717.633 182.923L715.498 181.153L713.138 179.856L710.638 179.054L708.034 178.786L710.638 178.539L713.138 177.716L715.498 176.419L717.633 174.649L719.473 172.468L720.966 169.936L722.059 167.137L722.736 164.174L722.962 161.087H708.034M255.001 109.861V157.197M258.472 144.21V106.156M258.472 160.263V147.915M118.466 200.396V203.483M225.059 200.396V203.483H225.944V200.396H225.076M165.331 200.396V203.483H165.453V200.396H165.331ZM185.414 200.396V203.483H185.657V200.396H185.414ZM236.879 200.396V203.483H237.747V200.396H236.879ZM276.871 200.396V203.483H278.017V200.396H276.871ZM288.952 200.396V203.483H341.893V200.396H288.952ZM381.017 200.396V203.483H382.163V200.396H381.017ZM393.098 200.396V203.483H393.966V200.396H393.098ZM433.09 200.396V203.483H434.235V200.396H433.09ZM445.171 200.396V203.483H446.039V200.396H445.171ZM485.163 200.396V203.483H486.308V200.396H485.163ZM497.244 200.396V203.483H498.111V200.396H497.244ZM537.236 200.396V203.483H538.381V200.396H537.236ZM549.316 200.396V203.483H550.184V200.396H549.316ZM589.308 200.396V203.483H590.454V200.396H589.308ZM601.389 200.396V203.483H602.257V200.396H601.389ZM641.381 200.396V203.483H642.527V200.396H641.381ZM653.462 200.396V203.483H654.451V200.396H653.462ZM693.593 200.396V203.483H694.6V200.396H693.593Z" stroke="black" stroke-width="0.1" stroke-miterlimit="10" stroke-linecap="square"/>
</g>
<g id="Vector_17">
<path d="M705.535 200.396V203.483H706.056V200.376L705.535 200.396ZM758.128 200.396V203.463H758.476V203.504V200.396H758.128ZM934.256 200.396H932.034V203.483H934.239M118.466 203.483H119.16V200.396H118.466V203.483ZM165.331 203.483H164.637V200.396H165.331V203.483ZM119.16 203.483H164.637ZM119.16 201.94H164.637ZM119.16 200.396H164.637ZM185.414 203.483H184.72V200.396H185.414V203.483ZM165.453 203.483H166.147V200.396H165.453V203.483ZM184.72 203.483V225.505Z" fill="#F5F5F5"/>
<path d="M810.531 200.396V203.483M862.604 200.396V203.483M914.677 200.396V203.483M934.256 200.396H932.034V203.483H934.239M119.16 203.483H118.466V200.396H119.16M119.16 203.483V200.396M119.16 203.483H164.637M119.16 200.396H164.637M164.637 203.483H165.331V200.396H164.637M164.637 203.483V200.396M119.16 201.94H164.637M184.72 203.483H185.414V200.396H184.72V203.483ZM184.72 203.483V225.505M705.535 200.396V203.483H706.056V200.376L705.535 200.396ZM758.128 200.396V203.463H758.476V203.504V200.396H758.128ZM165.453 203.483H166.147V200.396H165.453V203.483Z" stroke="black" stroke-width="0.1" stroke-miterlimit="10" stroke-linecap="square"/>
</g>
<g id="Vector_18">
<path d="M184.72 225.505L181.821 225.237L178.975 224.414L176.284 223.097L173.802 221.306L171.58 219.043L169.688 216.429L168.178 213.486L167.05 210.296L166.373 206.92L166.147 203.483M185.657 203.483H186.351V200.396H185.657V203.483ZM225.059 203.483H224.365V200.396H225.059V203.483ZM186.351 203.483H224.365ZM186.351 201.94H224.365ZM186.351 200.396H224.365ZM225.944 203.483H226.639V201.117H225.944V203.483ZM236.88 203.483H236.185V201.117H236.88V203.483ZM226.639 203.483H236.185ZM226.639 202.29H236.185ZM226.639 201.117H236.185ZM237.73 203.483H238.424V201.117H237.73V203.483ZM276.871 203.483H276.177V201.117H276.871V203.483ZM238.424 203.483H276.177ZM238.424 202.29H276.177ZM238.424 201.117H276.177ZM278.017 203.483H278.711V201.117H278.017V203.483ZM288.952 203.483H288.258V201.117H288.952V203.483ZM278.711 203.483H288.258ZM278.711 202.29H288.258ZM278.711 201.117H288.258ZM341.876 203.483H342.57V201.117H341.876V203.483ZM381.017 203.483H380.323V201.117H381.017V203.483ZM342.57 203.483H380.323ZM342.57 202.29H380.323ZM342.57 201.117H380.323ZM382.163 203.483H382.857V201.117H382.163V203.483ZM393.098 203.483H392.404V201.117H393.098V203.483ZM382.857 203.483H392.404ZM382.857 202.29H392.404ZM382.857 201.117H392.404ZM393.949 203.483H394.643V201.117H393.949V203.483ZM433.09 203.483H432.396V201.117H433.09V203.483ZM394.643 203.483H432.396ZM394.643 202.29H432.396ZM394.643 201.117H432.396ZM434.236 203.483H434.93V201.117H434.236V203.483ZM445.171 203.483H444.477V201.117H445.171V203.483ZM434.93 203.483H444.477ZM434.93 202.29H444.477ZM434.93 201.117H444.477ZM446.021 203.483H446.716V201.117H446.021V203.483ZM485.163 203.483H484.468V201.117H485.163V203.483ZM446.716 203.483H484.468ZM446.716 202.29H484.468ZM446.716 201.117H484.468ZM486.308 203.483H487.003V201.117H486.308V203.483ZM497.244 203.483H496.549V201.117H497.244V203.483ZM487.003 203.483H496.549ZM487.003 202.29H496.549ZM487.003 201.117H496.549ZM498.094 203.483H498.789V201.117H498.094V203.483ZM537.236 203.483H536.541V201.117H537.236V203.483ZM498.789 203.483H536.541ZM498.789 202.29H536.541ZM498.789 201.117H536.541ZM538.381 203.483H539.076V201.117H538.381V203.483ZM549.317 203.483H548.622V201.117H549.317V203.483ZM539.076 203.483H548.622ZM539.076 202.29H548.622ZM539.076 201.117H548.622ZM550.167 203.483H550.861V201.117H550.167V203.483ZM589.308 203.483H588.614V201.117H589.308V203.483ZM550.861 203.483H588.614ZM550.861 202.29H588.614ZM550.861 201.117H588.614ZM590.454 203.483H591.148V201.117H590.454V203.483ZM601.389 203.483H600.695V201.117H601.389V203.483ZM591.148 203.483H600.695ZM591.148 202.29H600.695ZM591.148 201.117H600.695ZM602.24 203.483H602.934V201.117H602.24V203.483ZM641.381 203.483H640.687V201.117H641.381V203.483ZM602.934 203.483H640.687ZM602.934 202.29H640.687ZM602.934 201.117H640.687ZM642.527 203.483H643.221V201.117H642.527V203.483ZM653.462 203.483H652.768V201.117H653.462V203.483ZM643.221 203.483H652.768ZM643.221 202.29H652.768ZM643.221 201.117H652.768ZM654.452 203.483H655.146V201.117H654.452V203.483ZM693.593 203.483H692.899V201.117H693.593V203.483ZM655.146 203.483H692.899ZM655.146 202.29H692.899ZM655.146 201.117H692.899ZM694.6 203.483H695.294V201.117H694.6V203.483ZM705.535 203.483H704.841V201.117H705.535V203.483ZM695.294 203.483H704.841ZM695.294 202.29H704.841ZM695.294 201.117H704.841ZM758.129 200.396H757.434V203.483H758.129V200.396ZM706.056 200.396H706.75V203.483H706.056V200.396ZM757.434 200.396H706.75ZM757.434 201.94H706.75ZM757.434 203.483H706.75ZM758.458 203.483H759.153V200.396H758.458V203.483ZM810.531 203.483H809.837V200.396H810.531V203.483ZM759.153 203.483H809.837ZM759.153 201.94H809.837ZM759.153 200.396H809.837ZM810.531 203.483H811.226V200.396H810.531V203.483ZM862.604 203.483H861.91V200.396H862.604V203.483ZM811.226 203.483H861.91ZM811.226 201.94H861.91ZM811.226 200.396H861.91ZM862.604 203.483H863.298V200.396H862.604V203.483ZM914.677 203.483H913.983V200.396H914.677V203.483ZM863.298 203.483H913.983ZM863.298 201.94H913.983ZM863.298 200.396H913.983ZM932.034 203.483H931.34V201.014H932.034V203.483ZM914.677 203.483H915.371V201.014H914.677V203.483ZM931.34 203.483V222.418ZM931.34 222.418L928.563 222.13L925.89 221.265L923.356 219.886L921.082 217.993L919.12 215.647L917.506 212.951L916.343 209.946L915.614 206.776L915.371 203.483M26.2275 67.6494V74.8527H29.3519M29.3519 153.06H26.2275ZM26.2275 74.8527V75.676H27.9633V74.8527H26.2275ZM26.2275 153.06V152.237H27.9633V153.06H26.2275ZM26.2275 75.676V113.545ZM27.0954 75.676V113.545ZM27.9633 75.676V113.545ZM26.2275 113.545V114.368H27.9633V113.545H26.2275ZM26.2275 114.368V152.237ZM27.0954 114.368V152.237ZM27.9633 114.368V152.237ZM26.2275 153.06V160.263H58.0093V153.06H29.3693M58.0093 153.06H68.4239ZM58.0093 160.263H68.4239ZM78.6475 153.06H68.4239V160.263H76.1307M58.0093 160.263H58.7036V158.205H58.0093V160.263ZM68.4239 160.263H67.7296V158.205H68.4239V160.263ZM58.7036 160.263H67.7296ZM58.7036 159.234H67.7296ZM58.7036 158.205H67.7296Z" fill="#F5F5F5"/>
<path d="M184.72 225.505L181.821 225.237L178.975 224.414L176.284 223.097L173.802 221.306L171.58 219.043L169.688 216.429L168.178 213.486L167.05 210.296L166.373 206.92L166.147 203.483M186.351 203.483H185.657V200.396H186.351M186.351 203.483V200.396M186.351 203.483H224.365M186.351 200.396H224.365M224.365 203.483H225.059V200.396H224.365M224.365 203.483V200.396M186.351 201.94H224.365M226.639 203.483H225.944V201.117H226.639M226.639 203.483V201.117M226.639 203.483H236.185M226.639 201.117H236.185M236.185 203.483H236.88V201.117H236.185M236.185 203.483V201.117M226.639 202.29H236.185M238.424 203.483H237.73V201.117H238.424M238.424 203.483V201.117M238.424 203.483H276.177M238.424 201.117H276.177M276.177 203.483H276.871V201.117H276.177M276.177 203.483V201.117M238.424 202.29H276.177M278.711 203.483H278.017V201.117H278.711M278.711 203.483V201.117M278.711 203.483H288.258M278.711 201.117H288.258M288.258 203.483H288.952V201.117H288.258M288.258 203.483V201.117M278.711 202.29H288.258M342.57 203.483H341.876V201.117H342.57M342.57 203.483V201.117M342.57 203.483H380.323M342.57 201.117H380.323M380.323 203.483H381.017V201.117H380.323M380.323 203.483V201.117M342.57 202.29H380.323M382.857 203.483H382.163V201.117H382.857M382.857 203.483V201.117M382.857 203.483H392.404M382.857 201.117H392.404M392.404 203.483H393.098V201.117H392.404M392.404 203.483V201.117M382.857 202.29H392.404M394.643 203.483H393.949V201.117H394.643M394.643 203.483V201.117M394.643 203.483H432.396M394.643 201.117H432.396M432.396 203.483H433.09V201.117H432.396M432.396 203.483V201.117M394.643 202.29H432.396M434.93 203.483H434.236V201.117H434.93M434.93 203.483V201.117M434.93 203.483H444.477M434.93 201.117H444.477M444.477 203.483H445.171V201.117H444.477M444.477 203.483V201.117M434.93 202.29H444.477M446.716 203.483H446.021V201.117H446.716M446.716 203.483V201.117M446.716 203.483H484.468M446.716 201.117H484.468M484.468 203.483H485.163V201.117H484.468M484.468 203.483V201.117M446.716 202.29H484.468M487.003 203.483H486.308V201.117H487.003M487.003 203.483V201.117M487.003 203.483H496.549M487.003 201.117H496.549M496.549 203.483H497.244V201.117H496.549M496.549 203.483V201.117M487.003 202.29H496.549M498.789 203.483H498.094V201.117H498.789M498.789 203.483V201.117M498.789 203.483H536.541M498.789 201.117H536.541M536.541 203.483H537.236V201.117H536.541M536.541 203.483V201.117M498.789 202.29H536.541M539.076 203.483H538.381V201.117H539.076M539.076 203.483V201.117M539.076 203.483H548.622M539.076 201.117H548.622M548.622 203.483H549.317V201.117H548.622M548.622 203.483V201.117M539.076 202.29H548.622M550.861 203.483H550.167V201.117H550.861M550.861 203.483V201.117M550.861 203.483H588.614M550.861 201.117H588.614M588.614 203.483H589.308V201.117H588.614M588.614 203.483V201.117M550.861 202.29H588.614M591.148 203.483H590.454V201.117H591.148M591.148 203.483V201.117M591.148 203.483H600.695M591.148 201.117H600.695M600.695 203.483H601.389V201.117H600.695M600.695 203.483V201.117M591.148 202.29H600.695M602.934 203.483H602.24V201.117H602.934M602.934 203.483V201.117M602.934 203.483H640.687M602.934 201.117H640.687M640.687 203.483H641.381V201.117H640.687M640.687 203.483V201.117M602.934 202.29H640.687M643.221 203.483H642.527V201.117H643.221M643.221 203.483V201.117M643.221 203.483H652.768M643.221 201.117H652.768M652.768 203.483H653.462V201.117H652.768M652.768 203.483V201.117M643.221 202.29H652.768M655.146 203.483H654.452V201.117H655.146M655.146 203.483V201.117M655.146 203.483H692.899M655.146 201.117H692.899M692.899 203.483H693.593V201.117H692.899M692.899 203.483V201.117M655.146 202.29H692.899M695.294 203.483H694.6V201.117H695.294M695.294 203.483V201.117M695.294 203.483H704.841M695.294 201.117H704.841M704.841 203.483H705.535V201.117H704.841M704.841 203.483V201.117M695.294 202.29H704.841M757.434 200.396H758.129V203.483H757.434M757.434 200.396V203.483M757.434 200.396H706.75M757.434 203.483H706.75M706.75 200.396H706.056V203.483H706.75M706.75 200.396V203.483M757.434 201.94H706.75M759.153 203.483H758.458V200.396H759.153M759.153 203.483V200.396M759.153 203.483H809.837M759.153 200.396H809.837M810.531 203.483H809.837M810.531 203.483V200.396M810.531 203.483H811.226M809.837 203.483V200.396M809.837 200.396H810.531M810.531 200.396H811.226M759.153 201.94H809.837M811.226 203.483V200.396M811.226 203.483H861.91M811.226 200.396H861.91M862.604 203.483H861.91M862.604 203.483V200.396M862.604 203.483H863.298M861.91 203.483V200.396M861.91 200.396H862.604M862.604 200.396H863.298M811.226 201.94H861.91M863.298 203.483V200.396M863.298 203.483H913.983M863.298 200.396H913.983M914.677 203.483H913.983M914.677 203.483V200.396H913.983M914.677 203.483H915.371M914.677 203.483V201.014H915.371V203.483M913.983 203.483V200.396M863.298 201.94H913.983M931.34 203.483H932.034V201.014H931.34V203.483ZM931.34 203.483V222.418L928.563 222.13L925.89 221.265L923.356 219.886L921.082 217.993L919.12 215.647L917.506 212.951L916.343 209.946L915.614 206.776L915.371 203.483M26.2275 67.6494V74.8527M26.2275 74.8527H29.3519M26.2275 74.8527V75.676M26.2275 74.8527H27.9633V75.676M29.3519 153.06H26.2275M26.2275 153.06V152.237M26.2275 153.06H27.9633V152.237M26.2275 153.06V160.263H58.0093M26.2275 75.676H27.9633M26.2275 75.676V113.545M27.9633 75.676V113.545M26.2275 152.237H27.9633M26.2275 152.237V114.368M27.9633 152.237V114.368M26.2275 113.545V114.368M26.2275 113.545H27.9633M27.0954 75.676V113.545M27.9633 113.545V114.368M26.2275 114.368H27.9633M27.0954 114.368V152.237M58.0093 160.263V153.06M58.0093 160.263H68.4239M58.0093 160.263H58.7036M58.0093 160.263V158.205H58.7036M58.0093 153.06H29.3693M58.0093 153.06H68.4239M68.4239 153.06H78.6475M68.4239 153.06V160.263M68.4239 160.263H76.1307M68.4239 160.263H67.7296M68.4239 160.263V158.205H67.7296M58.7036 160.263V158.205M58.7036 160.263H67.7296M58.7036 158.205H67.7296M67.7296 160.263V158.205M58.7036 159.234H67.7296" stroke="black" stroke-width="0.1" stroke-miterlimit="10" stroke-linecap="square"/>
</g>
<g id="Vector_19">
<path d="M76.1309 160.264L77.9708 158.082L80.4355 155.18L78.6477 153.06M115.411 196.63L112.964 199.553L111.124 201.734L111.211 201.837L115.515 196.754L115.411 196.63Z" fill="#F5F5F5"/>
<path d="M76.1309 160.264L77.9708 158.082L80.4355 155.18L78.6477 153.06M115.411 196.63L112.964 199.553L111.124 201.734L111.211 201.837L115.515 196.754L115.411 196.63Z" stroke="black" stroke-width="0.1" stroke-miterlimit="10" stroke-linecap="square"/>
</g>
<g id="Vector_20">
<path d="M76.1309 160.264L76.6342 160.84L78.4741 158.658L77.9708 158.082L76.1309 160.264ZM111.124 201.734L110.638 201.158L112.478 198.976L112.964 199.553L111.124 201.734ZM76.6342 160.84L110.638 201.158ZM77.5542 159.749L111.558 200.067ZM78.4741 158.658L112.478 198.976ZM912.16 156.559H896.608V160.264H915.285M867.03 160.264H882.722V156.559H868.766M867.03 156.559V157.176ZM896.608 160.264H895.913V156.559H896.608V160.264ZM882.722 160.264H883.416V156.559H882.722V160.264ZM895.913 160.264V175.082ZM895.913 175.082L893.483 174.794L891.123 173.97L888.97 172.592L887.061 170.739L885.516 168.496L884.371 165.944L883.659 163.166L883.416 160.284M868.766 156.559V121.777ZM867.03 121.777V156.559ZM934.239 203.483H936.183ZM935.124 200.396H934.256ZM936.183 203.504L937.745 201.652L935.888 199.491L935.124 200.396" fill="#F5F5F5"/>
<path d="M76.6342 160.84L76.1309 160.264L77.9708 158.082L78.4741 158.658M76.6342 160.84L78.4741 158.658M76.6342 160.84L110.638 201.158M78.4741 158.658L112.478 198.976M110.638 201.158L111.124 201.734L112.964 199.553L112.478 198.976M110.638 201.158L112.478 198.976M77.5542 159.749L111.558 200.067M912.16 156.559H896.608M896.608 156.559V160.264M896.608 156.559H895.913V160.264M896.608 160.264H915.285M896.608 160.264H895.913M867.03 160.264H882.722M882.722 160.264V156.559M882.722 160.264H883.416V156.559H882.722M882.722 156.559H868.766V121.777M867.03 157.176V156.559V121.777M895.913 160.264V175.082L893.483 174.794L891.123 173.97L888.97 172.592L887.061 170.739L885.516 168.496L884.371 165.944L883.659 163.166L883.416 160.284M934.239 203.483H936.183M934.256 200.396H935.124L935.888 199.491L937.745 201.652L936.183 203.504M969.024 160.181L970.881 162.383" stroke="black" stroke-width="0.1" stroke-miterlimit="10" stroke-linecap="square"/>
</g>
<g id="Vector_21">
<path d="M937.728 201.672L938.231 201.075L936.391 198.894L935.888 199.491L937.728 201.672ZM970.864 162.363L970.378 162.939L968.538 160.757L969.024 160.181L970.864 162.363ZM938.231 201.075L970.378 162.939ZM937.294 199.985L969.458 161.848ZM936.391 198.894L968.538 160.757ZM373.918 24.7793V24.4089L167.137 24.4295V29.6777L373.918 29.657V29.1837M653.861 24.4295L653.323 24.7382H652.785V29.1631H653.861M641.85 29.1631V24.7382H641.26V29.1631H641.85ZM602.379 29.1631V24.7382H601.251V29.1631H602.379ZM590.315 29.1631V24.7382H589.187V29.1631H590.315ZM550.306 29.1631V24.7382H549.178V29.1631H550.306ZM538.242 29.1837V24.7176H537.114V29.1837H538.242ZM498.233 29.1837V24.7588H497.105V29.1837H498.233ZM486.17 29.1837V24.7588H485.041V29.1837H486.17ZM446.16 29.1837V24.7588H445.032V29.1837H446.16ZM434.097 29.1837V24.7793H432.969V29.1837H434.097ZM394.087 29.1837V24.7793H393.115V29.1837H394.087ZM373.918 29.657V29.1837V24.7793V24.4089M652.785 24.7382H652.091V27.105H652.785V24.7382ZM641.85 24.7382H642.544V27.105H641.85V24.7382ZM652.091 24.7382H642.544ZM652.091 25.9113H642.544ZM652.091 27.105H642.544ZM641.26 24.7382H640.566V26.7963H641.26V24.7382ZM602.379 24.7382H603.073V26.7963H602.379V24.7382ZM640.566 24.7382H603.073ZM640.566 25.7672H603.073ZM640.566 26.7963H603.073ZM601.251 24.7382H600.556V27.105H601.251V24.7382ZM590.315 24.7382H591.01V27.105H590.315V24.7382ZM600.556 24.7382H591.01ZM600.556 25.9319H591.01ZM600.556 27.105H591.01ZM589.187 24.7382H588.493V26.7963H589.187V24.7382ZM550.306 24.7382H551V26.7963H550.306V24.7382ZM588.493 24.7382H551ZM588.493 25.7672H551ZM588.493 26.7963H551ZM549.178 24.7382H548.483V27.105H549.178V24.7382ZM538.242 24.7176L538.937 24.7382V27.105H538.242V24.7588M548.483 24.7382H538.937ZM548.483 25.9319H538.937ZM548.483 27.105H538.937ZM537.114 24.7176L536.42 24.7382V26.7963H537.114V24.7176ZM498.233 24.7588H498.927V26.8169H498.233V24.7588ZM536.42 24.7382L498.927 24.7588ZM536.42 25.7878H498.927ZM536.42 26.7963H498.927ZM497.105 24.7588H496.411V27.1256H497.105V24.7588ZM486.17 24.7588H486.864V27.1256H486.17V24.7588ZM496.411 24.7588H486.864ZM496.411 25.9319H486.864ZM496.411 27.1256H486.864ZM485.041 24.7588H484.347V26.8169H485.041V24.7588ZM446.16 24.7588H446.855V26.8169H446.16V24.7588ZM484.347 24.7588H446.855ZM484.347 25.7878H446.855ZM484.347 26.8169H446.855ZM445.032 24.7588H444.338V27.1256H445.032V24.7588ZM434.097 24.7793H434.791V27.1256H434.097V24.7793ZM444.338 24.7588L434.791 24.7793ZM444.338 25.9319H434.791ZM444.338 27.1256H434.791ZM432.969 24.7793H432.274V26.8375H432.969V24.7793ZM394.087 24.7793H394.782V26.8375H394.087V24.7793ZM432.274 24.7793H394.782ZM432.274 25.8084H394.782ZM432.274 26.8375H394.782Z" fill="#F5F5F5"/>
<path d="M938.231 201.075L937.728 201.672L935.888 199.491L936.391 198.894M938.231 201.075L936.391 198.894M938.231 201.075L970.378 162.939M936.391 198.894L968.538 160.757M970.378 162.939L970.864 162.363L969.024 160.181L968.538 160.757M970.378 162.939L968.538 160.757M937.294 199.985L969.458 161.848M653.861 24.4295L653.323 24.7382H652.785M652.785 24.7382V29.1631H653.861M652.785 24.7382H652.091M652.785 24.7382V27.105H652.091M641.85 24.7382V29.1631H641.26V24.7382M641.85 24.7382H641.26M641.85 24.7382H642.544M641.85 24.7382V27.105H642.544M641.26 24.7382H640.566M641.26 24.7382V26.7963H640.566M602.379 24.7382V29.1631H601.251V24.7382M602.379 24.7382H601.251M602.379 24.7382H603.073M602.379 24.7382V26.7963H603.073M601.251 24.7382H600.556M601.251 24.7382V27.105H600.556M590.315 24.7382V29.1631H589.187V24.7382M590.315 24.7382H589.187M590.315 24.7382H591.01M590.315 24.7382V27.105H591.01M589.187 24.7382H588.493M589.187 24.7382V26.7963H588.493M550.306 24.7382V29.1631H549.178V24.7382M550.306 24.7382H549.178M550.306 24.7382H551M550.306 24.7382V26.7963H551M549.178 24.7382H548.483M549.178 24.7382V27.105H548.483M538.242 24.7176V29.1837H537.114V24.7176M538.242 24.7176H537.114M538.242 24.7176L538.937 24.7382M537.114 24.7176L536.42 24.7382M537.114 24.7176V26.7963H536.42M498.233 24.7588V29.1837H497.105V24.7588M498.233 24.7588H497.105M498.233 24.7588H498.927M498.233 24.7588V26.8169H498.927V24.7588M497.105 24.7588H496.411M497.105 24.7588V27.1256H496.411M486.17 24.7588V29.1837H485.041V24.7588M486.17 24.7588H485.041M486.17 24.7588H486.864M486.17 24.7588V27.1256H486.864M485.041 24.7588H484.347M485.041 24.7588V26.8169H484.347M446.16 24.7588V29.1837H445.032V24.7588M446.16 24.7588H445.032M446.16 24.7588H446.855M446.16 24.7588V26.8169H446.855M445.032 24.7588H444.338M445.032 24.7588V27.1256H444.338M434.097 24.7793V29.1837H432.969V24.7793M434.097 24.7793H432.969M434.097 24.7793H434.791M434.097 24.7793V27.1256H434.791M432.969 24.7793H432.274M432.969 24.7793V26.8375H432.274M394.087 24.7793V29.1837H393.115V24.7793H394.087ZM394.087 24.7793H394.782M394.087 24.7793V26.8375H394.782M652.091 24.7382V27.105M652.091 24.7382H642.544M652.091 27.105H642.544M642.544 24.7382V27.105M652.091 25.9113H642.544M640.566 24.7382V26.7963M640.566 24.7382H603.073M640.566 26.7963H603.073M603.073 24.7382V26.7963M640.566 25.7672H603.073M600.556 24.7382V27.105M600.556 24.7382H591.01M600.556 27.105H591.01M591.01 24.7382V27.105M600.556 25.9319H591.01M588.493 24.7382V26.7963M588.493 24.7382H551M588.493 26.7963H551M551 24.7382V26.7963M588.493 25.7672H551M548.483 24.7382V27.105M548.483 24.7382H538.937M548.483 27.105H538.937M538.937 24.7382V27.105M538.937 27.105H538.242V24.7588M548.483 25.9319H538.937M536.42 24.7382V26.7963M536.42 24.7382L498.927 24.7588M536.42 26.7963H498.927M536.42 25.7878H498.927M496.411 24.7588V27.1256M496.411 24.7588H486.864M496.411 27.1256H486.864M486.864 24.7588V27.1256M496.411 25.9319H486.864M484.347 24.7588V26.8169M484.347 24.7588H446.855M484.347 26.8169H446.855M446.855 24.7588V26.8169M484.347 25.7878H446.855M444.338 24.7588V27.1256M444.338 24.7588L434.791 24.7793M444.338 27.1256H434.791M434.791 24.7793V27.1256M444.338 25.9319H434.791M432.274 24.7793V26.8375M432.274 24.7793H394.782M432.274 26.8375H394.782M394.782 24.7793V26.8375M432.274 25.8084H394.782M373.918 24.7793V24.4089L167.137 24.4295V29.6777L373.918 29.657V29.1837V24.7793Z" stroke="black" stroke-width="0.1" stroke-miterlimit="10" stroke-linecap="square"/>
</g>
<g id="Vector_22">
<path d="M393.115 24.7795H392.421V26.8377H393.115V24.7795ZM373.918 24.7795H374.612V26.8377H373.918V24.7795ZM392.421 24.7795H374.612ZM392.421 25.8086H374.612ZM392.421 26.8377H374.612ZM127.249 65.5092H135.841L164.932 31.0979L160.627 25.9939L127.249 65.5092ZM373.918 160.264V29.6572H370.446V157.176M232.436 109.861V144.231ZM235.56 147.915V109.861ZM232.436 144.231L187.306 144.211ZM187.306 147.915H235.56ZM258.472 147.915H286.245ZM288.848 144.211H258.472ZM286.245 147.915V158.206ZM288.848 157.176V144.211ZM286.245 160.264H288.848ZM286.245 158.206V160.264ZM258.472 160.264V158.206ZM258.472 160.264H259.167V157.794H258.472V160.264ZM286.245 160.264H285.55V157.794H286.245V160.264ZM259.167 160.264V175.905ZM285.55 160.264V175.905ZM259.167 175.905L261.458 175.679L263.68 174.958L265.763 173.806L267.655 172.242L269.269 170.328L270.588 168.084L271.56 165.615L272.167 162.98L272.358 160.264" fill="#F5F5F5"/>
<path d="M392.421 24.7795H393.115V26.8377H392.421M392.421 24.7795V26.8377M392.421 24.7795H374.612M392.421 26.8377H374.612M374.612 24.7795H373.918V26.8377H374.612M374.612 24.7795V26.8377M392.421 25.8086H374.612M373.918 160.264V29.6572H370.446V157.176M232.436 109.861V144.231L187.306 144.211M235.56 109.861V147.915H187.306M258.472 147.915H286.245V158.206V160.264M258.472 144.211H288.848V157.176M286.245 160.264H288.848M286.245 160.264H285.55M286.245 160.264V157.794H285.55V160.264M258.472 160.264V158.206M258.472 160.264H259.167M258.472 160.264V157.794H259.167V160.264M259.167 160.264V175.905L261.458 175.679L263.68 174.958L265.763 173.806L267.655 172.242L269.269 170.328L270.588 168.084L271.56 165.615L272.167 162.98L272.358 160.264M285.55 160.264V175.905M127.249 65.5092H135.841L164.932 31.0979L160.627 25.9939L127.249 65.5092Z" stroke="black" stroke-width="0.1" stroke-miterlimit="10" stroke-linecap="square"/>
</g>
<g id="Vector_23">
<path d="M285.55 175.905L283.259 175.679L281.037 174.958L278.954 173.806L277.079 172.242L275.448 170.328L274.129 168.084L273.157 165.614L272.566 162.98L272.358 160.263M370.446 157.176H325.316V160.263H340.07M342.656 160.263H373.917ZM288.848 160.263H294.055V157.176H288.848M294.055 160.263H294.749V157.176H294.055V160.263ZM325.316 160.263H324.605V157.176H325.316V160.263ZM294.749 160.263V177.963ZM324.605 160.263V177.963ZM294.749 177.963L297.353 177.695L299.853 176.893L302.213 175.596L304.348 173.826L306.188 171.645L307.681 169.113L308.774 166.314L309.469 163.33L309.677 160.263M324.605 177.963L322.001 177.695L319.501 176.893L317.141 175.596L315.006 173.826L313.166 171.645L311.673 169.113L310.58 166.314L309.903 163.33L309.677 160.263M340.053 160.263H342.656ZM342.656 197.309H340.053V200.396H342.656V197.309ZM340.053 160.263V161.087H342.656V160.263H340.053ZM340.053 197.309V196.486H342.656V197.309H340.053ZM340.053 161.087H325.125ZM340.053 196.486H325.125ZM325.125 161.087L325.351 164.174L326.045 167.137L327.121 169.936L328.614 172.468L330.454 174.65L332.589 176.419L334.95 177.716L337.467 178.539L340.07 178.786M325.125 196.486L325.351 193.399L326.045 190.435L327.121 187.636L328.614 185.105L330.454 182.923L332.589 181.153L334.95 179.856L337.467 179.054L340.07 178.786M187.306 71.354H232.436ZM234.171 69.2959H187.306ZM232.436 71.354V106.156ZM234.171 106.156V69.2959ZM134.192 67.6494V69.5017H160.766V67.6494H134.192ZM184.181 67.6494H178.124V69.5017H184.199M178.124 69.5017H177.429V67.6494H178.124V69.5017ZM160.766 69.5017H161.46V67.6494H160.766V69.5017ZM177.429 69.5017V88.4361ZM177.429 88.4361L174.652 88.148L171.962 87.3042L169.445 85.9047L167.171 84.0112L165.192 81.665L163.595 78.9895L162.432 75.9847L161.703 72.7946L161.46 69.5017M134.192 158.411L134.122 160.263H134.539V158.391H134.192M141.135 158.411V158.391V160.243H159.759V158.391H141.135M177.117 158.411V160.263H177.325V158.391H177.117M184.181 158.411H183.921V158.391V160.243H184.181M141.135 158.411H140.44V160.263L141.135 160.243V158.411ZM134.539 158.411H135.233V160.263H134.539V158.411ZM140.44 158.411H135.233ZM140.44 159.337H135.233ZM140.44 160.263H135.233ZM177.117 158.411H176.423V160.263H177.117V158.411ZM159.759 158.411H160.454V160.263L159.759 160.243V158.411ZM176.423 158.411V139.477ZM176.423 139.477L173.645 139.765L170.955 140.609L168.438 142.008L166.164 143.902L164.185 146.227L162.589 148.944L161.426 151.928L160.697 155.118L160.454 158.411" fill="#F5F5F5"/>
<path d="M285.55 175.905L283.259 175.679L281.037 174.958L278.954 173.806L277.079 172.242L275.448 170.328L274.129 168.084L273.157 165.614L272.566 162.98L272.358 160.263M370.446 157.176H325.316M325.316 157.176V160.263M325.316 157.176H324.605V160.263M325.316 160.263H340.07M325.316 160.263H324.605M342.656 160.263H373.917M342.656 160.263H340.053V161.087M342.656 160.263V161.087H340.053M288.848 160.263H294.055M294.055 160.263V157.176M294.055 160.263H294.749M294.055 157.176H288.848M294.055 157.176H294.749V160.263M294.749 160.263V177.963L297.353 177.695L299.853 176.893L302.213 175.596L304.348 173.826L306.188 171.645L307.681 169.113L308.774 166.314L309.469 163.33L309.677 160.263L309.903 163.33L310.58 166.314L311.673 169.113L313.166 171.645L315.006 173.826L317.141 175.596L319.501 176.893L322.001 177.695L324.605 177.963V160.263M342.656 197.309H340.053M342.656 197.309V200.396H340.053V197.309M342.656 197.309V196.486H340.053M340.053 197.309V196.486M340.053 161.087H325.125L325.351 164.174L326.045 167.137L327.121 169.936L328.614 172.468L330.454 174.65L332.589 176.419L334.95 177.716L337.467 178.539L340.07 178.786L337.467 179.054L334.95 179.856L332.589 181.153L330.454 182.923L328.614 185.105L327.121 187.636L326.045 190.435L325.351 193.399L325.125 196.486H340.053M187.306 71.354H232.436V106.156M187.306 69.2959H234.171V106.156M160.766 69.5017H134.192V67.6494H160.766M160.766 69.5017V67.6494M160.766 69.5017H161.46M160.766 67.6494H161.46V69.5017M184.181 67.6494H178.124M178.124 67.6494V69.5017M178.124 67.6494H177.429V69.5017M178.124 69.5017H184.199M178.124 69.5017H177.429M177.429 69.5017V88.4361L174.652 88.148L171.962 87.3042L169.445 85.9047L167.171 84.0112L165.192 81.665L163.595 78.9895L162.432 75.9847L161.703 72.7946L161.46 69.5017M134.192 158.411L134.122 160.263H134.539M134.539 160.263V158.391H134.192M134.539 160.263H135.233M134.539 160.263V158.411H135.233M141.135 158.411V158.391M141.135 158.411H140.44M141.135 158.411V160.243M141.135 158.391V160.243M141.135 158.391H159.759V160.243M141.135 160.243H159.759M141.135 160.243L140.44 160.263M159.759 160.243L160.454 160.263V158.411M159.759 160.243V158.411H160.454M177.117 160.263V158.411H176.423M177.117 160.263H177.325V158.391H177.117M177.117 160.263H176.423V158.411M184.181 158.411H183.921V158.391V160.243H184.181M140.44 158.411V160.263M140.44 158.411H135.233M140.44 160.263H135.233M135.233 158.411V160.263M140.44 159.337H135.233M176.423 158.411V139.477L173.645 139.765L170.955 140.609L168.438 142.008L166.164 143.902L164.185 146.227L162.589 148.944L161.426 151.928L160.697 155.118L160.454 158.411" stroke="black" stroke-width="0.1" stroke-miterlimit="10" stroke-linecap="square"/>
</g>
<g id="Vector_24">
<path d="M183.921 158.411H183.227V160.263H183.921V158.411ZM177.325 158.411H178.02V160.263H177.325V158.411ZM183.227 158.411H178.02ZM183.227 159.337H178.02ZM183.227 160.263H178.02ZM915.284 160.263H915.596V158.411H915.284M955.693 158.411V160.263H955.727V160.284V158.432M964.927 158.411V160.284H965.274V158.432L964.927 158.411ZM924.796 158.411H924.102V160.263H924.796V158.411Z" fill="#F5F5F5"/>
<path d="M183.227 158.411H183.921V160.263H183.227M183.227 158.411V160.263M183.227 158.411H178.02M183.227 160.263H178.02M178.02 158.411H177.325V160.263H178.02M178.02 158.411V160.263M183.227 159.337H178.02M915.284 160.263H915.596V158.411H915.284M955.693 158.411V160.263H955.727V160.284V158.432M964.927 158.411V160.284H965.274V158.432L964.927 158.411ZM924.796 158.411H924.102V160.263H924.796V158.411Z" stroke="black" stroke-width="0.1" stroke-miterlimit="10" stroke-linecap="square"/>
</g>
<g id="Vector_25">
<path d="M915.597 158.411H916.291V160.264H915.597V158.411ZM924.102 158.411H916.291ZM924.102 159.337H916.291ZM924.102 160.264H916.291ZM955.693 158.411H954.999V160.264H955.693V158.411ZM924.797 158.411H925.491V160.264H924.797V158.411ZM954.999 158.411V140.712ZM925.491 158.411V140.712ZM954.999 140.712L952.395 140.979L949.896 141.782L947.535 143.079L945.4 144.849L943.56 147.03L942.067 149.562L940.974 152.361L940.297 155.345L940.071 158.432M955.728 160.264H956.422V158.411H955.728V160.264ZM964.927 160.264H964.233V158.411H964.927V160.264ZM956.422 160.264H964.233ZM956.422 159.337H964.233ZM956.422 158.411H964.233ZM1016.91 72.2803L1019.08 74.8529H1022.38V67.6495H1020.82L1017.69 71.3541L1016.91 72.2803ZM965.188 71.3747L969.874 71.5599L974.405 72.4449L978.796 74.009L984.003 76.9521L987.371 79.4836L990.669 82.7559L993.515 86.1106L996.31 90.5149L998.393 94.8164L1000.39 100.394L1001.57 105.724L1002.18 111.61L1002.04 117.888L1001.73 121.119L1000.39 127.519L998.393 133.097L995.702 138.366L994.14 140.856L990.565 145.404L986.295 149.356L982.58 151.949L978.31 154.11L973.016 155.756L970.464 156.209L965.275 156.538V160.264L969.024 160.181L970.881 162.363L971.315 162.877L973.519 160.264H992.995V147.73L994.834 145.548L998.254 140.568L1001.01 135.114L1002.45 131.43L1004.05 125.749L1005.09 119.596L1005.3 112.516L1005.11 108.955L1004.19 102.637L1003.22 98.9943L1000.96 92.6553L999.556 89.7946L997.646 86.3988L995.98 83.929L991.745 78.8044L987.006 74.75L983.76 72.5272L979.334 70.3045L974.214 68.6374L970.777 67.9994L967.41 67.7936L965.327 67.6702H965.188V71.3747ZM1068.55 120.954H1075.15V108.606H1068.55V120.954ZM94.2002 115.891L94.3911 119.596L95.0507 123.794L96.0748 128.219L97.5502 132.788L98.7132 135.772L101.23 140.629L103.868 144.581L106.871 148.141L109.978 151.126L113.658 153.966L117.564 156.333L120.046 157.588L123.778 158.864L127.805 159.749L134.192 160.264H134.123L134.192 158.411V156.538H131.432L128.464 156.189L124.993 155.448L120.601 153.884L116.401 151.661L111.28 147.75L107.756 144.087L104.649 139.889L102.046 135.258L99.9629 130.257L98.4528 124.988L97.5329 119.513L97.2204 113.957L97.5329 108.4L98.1404 104.407L99.0603 100.517L100.779 95.4749L102.549 91.7292L104.649 88.0247L107.756 83.8262L111.28 80.1628L115.186 77.055L118.015 75.4086L122.337 73.4122L126.85 72.095L130.495 71.457L134.192 71.3747V67.6495L135.911 65.5092H127.232H127.266L125.513 67.6495H97.1857V74.8529H101.213V87.2014L98.7479 92.0379L97.4114 95.4955L96.0054 99.941L94.9119 105.004L94.2696 110.417L94.2002 115.891ZM111.211 201.858L112.582 203.483H118.466V198.235H116.765L115.515 196.754L111.211 201.837M160.645 26.0144L164.932 31.0978L166.13 29.6778H167.137V24.4297H161.982L160.645 26.0144ZM936.825 33.6705L936.634 32.7032L936.079 31.9829L935.298 31.633L934.482 31.7359L933.788 32.3122L933.406 33.1766V34.1644L933.788 35.0288L934.482 35.5845L935.298 35.708L936.079 35.3581L936.634 34.6172L936.825 33.6705ZM979.525 33.6705L979.334 32.7032L978.779 31.9829L977.998 31.633L977.182 31.7359L976.488 32.3122L976.106 33.1766V34.1644L976.488 35.0288L977.182 35.5845L977.998 35.708L978.779 35.3581L979.334 34.6172L979.525 33.6705ZM810.965 33.6911L810.757 33.0325L810.236 32.6826L809.664 32.8061L809.282 33.3412V34.0409L809.664 34.5761L810.254 34.6995L810.774 34.3496L810.965 33.6911ZM311.084 33.6705L310.875 33.0119L310.355 32.662L309.782 32.7855L309.4 33.3206V34.0204L309.782 34.5555L310.372 34.679L310.893 34.3291L311.084 33.6705ZM432.917 34.823H437.43V32.5592H432.917V34.823ZM557.891 34.823H562.404V32.5592H557.891V34.823ZM682.866 34.823H687.379V32.5592H682.866V34.823ZM123.951 194.243L123.76 193.461L123.239 192.926L122.563 192.823L121.938 193.152L121.573 193.831V194.654L121.938 195.333L122.563 195.663L123.257 195.56L123.76 195.025L123.951 194.243ZM186.386 194.243L186.196 193.461L185.675 192.926L184.998 192.823L184.373 193.152L184.008 193.831V194.654L184.373 195.333L184.998 195.663L185.692 195.56L186.196 195.025L186.386 194.243ZM311.431 194.14L311.24 193.358L310.719 192.823L310.042 192.72L309.417 193.049L309.053 193.728V194.551L309.417 195.231L310.042 195.56L310.736 195.457L311.24 194.922L311.431 194.14ZM811.347 194.243L811.156 193.461L810.636 192.926L809.959 192.823L809.334 193.152L808.969 193.831V194.654L809.334 195.333L809.959 195.663L810.653 195.56L811.156 195.025L811.347 194.243ZM936.322 194.243L936.131 193.461L935.61 192.926L934.933 192.823L934.309 193.152L933.944 193.831V194.654L934.309 195.333L934.933 195.663L935.628 195.56L936.131 195.025L936.322 194.243ZM682.866 195.354H687.379V193.09H682.866V195.354ZM557.891 195.354H562.404V193.09H557.891V195.354ZM432.917 195.354H437.43V193.09H432.917V195.354Z" fill="#F5F5F5"/>
<path d="M916.291 158.411H915.597V160.264H916.291M916.291 158.411V160.264M916.291 158.411H924.102M916.291 160.264H924.102M924.102 159.337H916.291M954.999 158.411H955.693V160.264H954.999V158.411ZM954.999 158.411V140.712L952.395 140.979L949.896 141.782L947.535 143.079L945.4 144.849L943.56 147.03L942.067 149.562L940.974 152.361L940.297 155.345L940.071 158.432M925.491 158.411H924.797V160.264H925.491V158.411ZM925.491 158.411V140.712M956.422 160.264H955.728V158.411H956.422M956.422 160.264V158.411M956.422 160.264H964.233M956.422 158.411H964.233M964.233 160.264H964.927V158.411H964.233M964.233 160.264V158.411M956.422 159.337H964.233M111.211 201.858L112.582 203.483H118.466V198.235H116.765L115.515 196.754L111.211 201.837M1016.91 72.2803L1019.08 74.8529H1022.38V67.6495H1020.82L1017.69 71.3541L1016.91 72.2803ZM965.188 71.3747L969.874 71.5599L974.405 72.4449L978.796 74.009L984.003 76.9521L987.371 79.4836L990.669 82.7559L993.515 86.1106L996.31 90.5149L998.393 94.8164L1000.39 100.394L1001.57 105.724L1002.18 111.61L1002.04 117.888L1001.73 121.119L1000.39 127.519L998.393 133.097L995.702 138.366L994.14 140.856L990.565 145.404L986.295 149.356L982.58 151.949L978.31 154.11L973.016 155.756L970.464 156.209L965.275 156.538V160.264L969.024 160.181L970.881 162.363L971.315 162.877L973.519 160.264H992.995V147.73L994.834 145.548L998.254 140.568L1001.01 135.114L1002.45 131.43L1004.05 125.749L1005.09 119.596L1005.3 112.516L1005.11 108.955L1004.19 102.637L1003.22 98.9943L1000.96 92.6553L999.556 89.7946L997.646 86.3988L995.98 83.929L991.745 78.8044L987.006 74.75L983.76 72.5272L979.334 70.3045L974.214 68.6374L970.777 67.9994L967.41 67.7936L965.327 67.6702H965.188V71.3747ZM1068.55 120.954H1075.15V108.606H1068.55V120.954ZM94.2002 115.891L94.3911 119.596L95.0507 123.794L96.0748 128.219L97.5502 132.788L98.7132 135.772L101.23 140.629L103.868 144.581L106.871 148.141L109.978 151.126L113.658 153.966L117.564 156.333L120.046 157.588L123.778 158.864L127.805 159.749L134.192 160.264H134.123L134.192 158.411V156.538H131.432L128.464 156.189L124.993 155.448L120.601 153.884L116.401 151.661L111.28 147.75L107.756 144.087L104.649 139.889L102.046 135.258L99.9629 130.257L98.4528 124.988L97.5329 119.513L97.2204 113.957L97.5329 108.4L98.1404 104.407L99.0603 100.517L100.779 95.4749L102.549 91.7292L104.649 88.0247L107.756 83.8262L111.28 80.1628L115.186 77.055L118.015 75.4086L122.337 73.4122L126.85 72.095L130.495 71.457L134.192 71.3747V67.6495L135.911 65.5092H127.232H127.266L125.513 67.6495H97.1857V74.8529H101.213V87.2014L98.7479 92.0379L97.4114 95.4955L96.0054 99.941L94.9119 105.004L94.2696 110.417L94.2002 115.891ZM160.645 26.0144L164.932 31.0978L166.13 29.6778H167.137V24.4297H161.982L160.645 26.0144ZM936.825 33.6705L936.634 32.7032L936.079 31.9829L935.298 31.633L934.482 31.7359L933.788 32.3122L933.406 33.1766V34.1644L933.788 35.0288L934.482 35.5845L935.298 35.708L936.079 35.3581L936.634 34.6172L936.825 33.6705ZM979.525 33.6705L979.334 32.7032L978.779 31.9829L977.998 31.633L977.182 31.7359L976.488 32.3122L976.106 33.1766V34.1644L976.488 35.0288L977.182 35.5845L977.998 35.708L978.779 35.3581L979.334 34.6172L979.525 33.6705ZM810.965 33.6911L810.757 33.0325L810.236 32.6826L809.664 32.8061L809.282 33.3412V34.0409L809.664 34.5761L810.254 34.6995L810.774 34.3496L810.965 33.6911ZM311.084 33.6705L310.875 33.0119L310.355 32.662L309.782 32.7855L309.4 33.3206V34.0204L309.782 34.5555L310.372 34.679L310.893 34.3291L311.084 33.6705ZM432.917 34.823H437.43V32.5592H432.917V34.823ZM557.891 34.823H562.404V32.5592H557.891V34.823ZM682.866 34.823H687.379V32.5592H682.866V34.823ZM123.951 194.243L123.76 193.461L123.239 192.926L122.563 192.823L121.938 193.152L121.573 193.831V194.654L121.938 195.333L122.563 195.663L123.257 195.56L123.76 195.025L123.951 194.243ZM186.386 194.243L186.196 193.461L185.675 192.926L184.998 192.823L184.373 193.152L184.008 193.831V194.654L184.373 195.333L184.998 195.663L185.692 195.56L186.196 195.025L186.386 194.243ZM311.431 194.14L311.24 193.358L310.719 192.823L310.042 192.72L309.417 193.049L309.053 193.728V194.551L309.417 195.231L310.042 195.56L310.736 195.457L311.24 194.922L311.431 194.14ZM811.347 194.243L811.156 193.461L810.636 192.926L809.959 192.823L809.334 193.152L808.969 193.831V194.654L809.334 195.333L809.959 195.663L810.653 195.56L811.156 195.025L811.347 194.243ZM936.322 194.243L936.131 193.461L935.61 192.926L934.933 192.823L934.309 193.152L933.944 193.831V194.654L934.309 195.333L934.933 195.663L935.628 195.56L936.131 195.025L936.322 194.243ZM682.866 195.354H687.379V193.09H682.866V195.354ZM557.891 195.354H562.404V193.09H557.891V195.354ZM432.917 195.354H437.43V193.09H432.917V195.354Z" stroke="black" stroke-width="0.1" stroke-miterlimit="10" stroke-linecap="square"/>
</g>
</g>
<g id="workspacesBackGroup">
<g id="wsB12455">
<path d="M373.918 160.263H342.674V200.396H705.448V29.1631L373.918 29.1837V160.284" fill="#F5F5F5"/>
<path d="M373.918 160.263H342.674V200.396H705.448V29.1631L373.918 29.1837V160.284" stroke="black" stroke-width="0.1" stroke-miterlimit="10" stroke-linecap="square"/>
</g>
<path id="wsB12446" d="M760.593 29.1631H708.555V157.176H867.03V121.777H863.905V29.6776H760.385L760.593 29.1631Z" fill="#F5F5F5" stroke="black" stroke-width="0.1" stroke-miterlimit="10" stroke-linecap="square"/>
<g id="wsB12449">
<path d="M370.446 157.176V29.657L187.323 29.6776V69.2958H234.189V106.156H258.489V144.231H288.865V157.197H370.446" fill="#F5F5F5"/>
<path d="M370.446 157.176V29.657L187.323 29.6776V69.2958H234.189V106.156H258.489V144.231H288.865V157.197H370.446" stroke="black" stroke-width="0.1" stroke-miterlimit="10" stroke-linecap="square"/>
</g>
<path id="wsB12450" d="M340.053 160.263H134.122L127.804 159.749L123.777 158.864L120.045 157.588L117.563 156.333L113.658 153.966L109.978 151.126L106.871 148.141L103.868 144.581L101.23 140.629L98.7129 135.772L78.6475 153.06L116.765 198.215H118.466V200.396H340.053V160.263Z" fill="#F5F5F5" stroke="black" stroke-width="0.1" stroke-miterlimit="10" stroke-linecap="square"/>
<path id="wsB12445" d="M969.023 160.181L708.034 160.263V200.396H935.124L969.023 160.181Z" fill="#F5F5F5" stroke="black" stroke-width="0.1" stroke-miterlimit="10" stroke-linecap="square"/>
<path id="wsB12457" d="M965.274 158.411V156.538L970.464 156.209H965.187V67.67H965.326L965.274 29.6777H886.123V67.6494H915.284V158.411H965.274Z" fill="#F5F5F5" stroke="black" stroke-width="0.1" stroke-miterlimit="10" stroke-linecap="square"/>
<path id="wsB12458" d="M1068.55 108.605H1072.02V74.8528H1019.08L1016.91 72.2801L1017.69 71.354L982.544 29.6777H967.356L967.408 67.7935L970.776 67.9993L974.213 68.6373L979.333 70.3044L983.759 72.5271L987.005 74.7499L991.744 78.8043L995.979 83.9289L997.645 86.3987L999.555 89.7945L1000.96 92.6552L1003.22 98.9942L1004.19 102.637L1005.11 108.955L1005.3 112.516L1005.09 119.596L1004.05 125.749L1002.45 131.43L1001.01 135.114L998.236 140.568L994.816 145.548L992.994 147.73V153.081H1072.02V120.954H1068.55V108.605Z" fill="#F5F5F5" stroke="black" stroke-width="0.1" stroke-miterlimit="10" stroke-linecap="square"/>
<path id="wsB12451" d="M98.7126 135.772L97.5496 132.788L96.0742 128.219L95.0501 123.794L94.3905 119.596L94.1996 115.891L94.269 110.417L94.9113 105.004L96.0048 99.9409L97.4108 95.4954L98.7473 92.0379L101.212 87.2013V74.8528H29.3516V153.06H78.6472L98.7126 135.772Z" fill="#F5F5F5" stroke="black" stroke-width="0.1" stroke-miterlimit="10" stroke-linecap="square"/>
<g id="wsB12453">
<path d="M184.181 158.411V69.5017H134.191V158.391H184.181" fill="#F5F5F5"/>
<path d="M184.181 158.411V69.5017H134.191V158.391H184.181" stroke="black" stroke-width="0.1" stroke-miterlimit="10" stroke-linecap="square"/>
</g>
<path id="wsB12456" d="M973.016 155.736L978.31 154.11L982.58 151.949L986.294 149.356L990.564 145.404L994.14 140.876L995.702 138.365L998.393 133.097L1000.39 127.519L1001.73 121.119L1002.04 117.887L1002.18 111.61L1001.57 105.724L1000.39 100.394L998.393 94.8162L996.31 90.5147L993.515 86.1104L990.668 82.7557L987.37 79.4834L984.003 76.9519L978.796 74.0088L974.404 72.4447L969.874 71.5597L965.188 71.3745V156.209H970.464L973.016 155.736Z" fill="#F5F5F5" stroke="black" stroke-width="0.1" stroke-miterlimit="10" stroke-linecap="square"/>
<path id="wsB12454" d="M122.336 73.412L118.014 75.4083L115.185 77.0548L111.279 80.1419L107.756 83.8259L104.649 88.0245L102.548 91.729L100.778 95.4747L99.0596 100.517L98.1397 104.427L97.5322 108.4L97.2197 113.956L97.5322 119.513L98.4521 124.988L99.9622 130.256L102.045 135.258L104.649 139.888L107.756 144.066L111.279 147.75L116.4 151.661L120.6 153.883L124.992 155.447L128.463 156.188L131.432 156.538H134.191V71.3745L130.494 71.4568L126.849 72.0948L122.336 73.412Z" fill="#F5F5F5" stroke="black" stroke-width="0.1" stroke-miterlimit="10" stroke-linecap="square"/>
<path id="wsB12441" d="M867.03 83.7024V118.072H912.16V83.7024H867.03Z" fill="#F5F5F5" stroke="black" stroke-width="0.1" stroke-miterlimit="10" stroke-linecap="square"/>
<path id="wsB12447" d="M232.435 144.21V109.861H187.306V144.231L232.435 144.21Z" fill="#F5F5F5" stroke="black" stroke-width="0.1" stroke-miterlimit="10" stroke-linecap="square"/>
<g id="wsB12444">
<path d="M187.306 157.176H255V109.861H235.56V147.936H187.306V157.197" fill="#F5F5F5"/>
<path d="M187.306 157.176H255V109.861H235.56V147.936H187.306V157.197" stroke="black" stroke-width="0.1" stroke-miterlimit="10" stroke-linecap="square"/>
</g>
<path id="wsB12452" d="M184.181 67.6494V29.6777H166.129L164.932 31.0977L135.84 65.5091L134.191 67.6494H184.181Z" fill="#F5F5F5" stroke="black" stroke-width="0.1" stroke-miterlimit="10" stroke-linecap="square"/>
<path id="wsB12443" d="M884.388 65.5914V29.6777H867.03V65.5914H884.388Z" fill="#F5F5F5" stroke="black" stroke-width="0.1" stroke-miterlimit="10" stroke-linecap="square"/>
<path id="wsB12442" d="M867.03 69.7075V79.998H912.16V69.7075H867.03Z" fill="#F5F5F5" stroke="black" stroke-width="0.1" stroke-miterlimit="10" stroke-linecap="square"/>
<path id="wsB12448" d="M286.244 158.205V147.915H258.472V158.205H286.244Z" fill="#F5F5F5" stroke="black" stroke-width="0.1" stroke-miterlimit="10" stroke-linecap="square"/>
</g>
<g id="workspacesFrontGroup">
<g id="wsF12455">
<path d="M373.918 160.263H342.674V200.396H705.448V29.1631L373.918 29.1837V160.284" fill="#F5F5F5"/>
<path d="M373.918 160.263H342.674V200.396H705.448V29.1631L373.918 29.1837V160.284" stroke="black" stroke-width="0.1" stroke-miterlimit="10" stroke-linecap="square"/>
</g>
<path id="wsF12446" d="M760.593 29.1631H708.555V157.176H867.03V121.777H863.905V29.6776H760.385L760.593 29.1631Z" fill="#F5F5F5" stroke="black" stroke-width="0.1" stroke-miterlimit="10" stroke-linecap="square"/>
<g id="wsF12449">
<path d="M370.446 157.176V29.657L187.323 29.6776V69.2958H234.189V106.156H258.489V144.231H288.865V157.197H370.446" fill="#F5F5F5"/>
<path d="M370.446 157.176V29.657L187.323 29.6776V69.2958H234.189V106.156H258.489V144.231H288.865V157.197H370.446" stroke="black" stroke-width="0.1" stroke-miterlimit="10" stroke-linecap="square"/>
</g>
<path id="wsF12450" d="M340.053 160.263H134.122L127.804 159.749L123.777 158.864L120.045 157.588L117.563 156.333L113.658 153.966L109.978 151.126L106.871 148.141L103.868 144.581L101.23 140.629L98.7129 135.772L78.6475 153.06L116.765 198.215H118.466V200.396H340.053V160.263Z" fill="#F5F5F5" stroke="black" stroke-width="0.1" stroke-miterlimit="10" stroke-linecap="square"/>
<path id="wsF12445" d="M969.023 160.181L708.034 160.263V200.396H935.124L969.023 160.181Z" fill="#F5F5F5" stroke="black" stroke-width="0.1" stroke-miterlimit="10" stroke-linecap="square"/>
<path id="wsF12457" d="M965.274 158.411V156.538L970.464 156.209H965.187V67.67H965.326L965.274 29.6777H886.123V67.6494H915.284V158.411H965.274Z" fill="#F5F5F5" stroke="black" stroke-width="0.1" stroke-miterlimit="10" stroke-linecap="square"/>
<path id="wsF12458" d="M1068.55 108.605H1072.02V74.8528H1019.08L1016.91 72.2801L1017.69 71.354L982.544 29.6777H967.356L967.408 67.7935L970.776 67.9993L974.213 68.6373L979.333 70.3044L983.759 72.5271L987.005 74.7499L991.744 78.8043L995.979 83.9289L997.645 86.3987L999.555 89.7945L1000.96 92.6552L1003.22 98.9942L1004.19 102.637L1005.11 108.955L1005.3 112.516L1005.09 119.596L1004.05 125.749L1002.45 131.43L1001.01 135.114L998.236 140.568L994.816 145.548L992.994 147.73V153.081H1072.02V120.954H1068.55V108.605Z" fill="#F5F5F5" stroke="black" stroke-width="0.1" stroke-miterlimit="10" stroke-linecap="square"/>
<path id="wsF12451" d="M98.7126 135.772L97.5496 132.788L96.0742 128.219L95.0501 123.794L94.3905 119.596L94.1996 115.891L94.269 110.417L94.9113 105.004L96.0048 99.9409L97.4108 95.4954L98.7473 92.0379L101.212 87.2013V74.8528H29.3516V153.06H78.6472L98.7126 135.772Z" fill="#F5F5F5" stroke="black" stroke-width="0.1" stroke-miterlimit="10" stroke-linecap="square"/>
<g id="wsF12453">
<path d="M184.181 158.411V69.5017H134.191V158.391H184.181" fill="#F5F5F5"/>
<path d="M184.181 158.411V69.5017H134.191V158.391H184.181" stroke="black" stroke-width="0.1" stroke-miterlimit="10" stroke-linecap="square"/>
</g>
<path id="wsF12456" d="M973.016 155.736L978.31 154.11L982.58 151.949L986.294 149.356L990.564 145.404L994.14 140.876L995.702 138.365L998.393 133.097L1000.39 127.519L1001.73 121.119L1002.04 117.887L1002.18 111.61L1001.57 105.724L1000.39 100.394L998.393 94.8162L996.31 90.5147L993.515 86.1104L990.668 82.7557L987.37 79.4834L984.003 76.9519L978.796 74.0088L974.404 72.4447L969.874 71.5597L965.188 71.3745V156.209H970.464L973.016 155.736Z" fill="#F5F5F5" stroke="black" stroke-width="0.1" stroke-miterlimit="10" stroke-linecap="square"/>
<path id="wsF12454" d="M122.336 73.412L118.014 75.4083L115.185 77.0548L111.279 80.1419L107.756 83.8259L104.649 88.0245L102.548 91.729L100.778 95.4747L99.0596 100.517L98.1397 104.427L97.5322 108.4L97.2197 113.956L97.5322 119.513L98.4521 124.988L99.9622 130.256L102.045 135.258L104.649 139.888L107.756 144.066L111.279 147.75L116.4 151.661L120.6 153.883L124.992 155.447L128.463 156.188L131.432 156.538H134.191V71.3745L130.494 71.4568L126.849 72.0948L122.336 73.412Z" fill="#F5F5F5" stroke="black" stroke-width="0.1" stroke-miterlimit="10" stroke-linecap="square"/>
<path id="wsF12441" d="M867.03 83.7024V118.072H912.16V83.7024H867.03Z" fill="#F5F5F5" stroke="black" stroke-width="0.1" stroke-miterlimit="10" stroke-linecap="square"/>
<path id="wsF12447" d="M232.435 144.21V109.861H187.306V144.231L232.435 144.21Z" fill="#F5F5F5" stroke="black" stroke-width="0.1" stroke-miterlimit="10" stroke-linecap="square"/>
<g id="wsF12444">
<path d="M187.306 157.176H255V109.861H235.56V147.936H187.306V157.197" fill="#F5F5F5"/>
<path d="M187.306 157.176H255V109.861H235.56V147.936H187.306V157.197" stroke="black" stroke-width="0.1" stroke-miterlimit="10" stroke-linecap="square"/>
</g>
<path id="wsF12452" d="M184.181 67.6494V29.6777H166.129L164.932 31.0977L135.84 65.5091L134.191 67.6494H184.181Z" fill="#F5F5F5" stroke="black" stroke-width="0.1" stroke-miterlimit="10" stroke-linecap="square"/>
<path id="wsF12443" d="M884.388 65.5914V29.6777H867.03V65.5914H884.388Z" fill="#F5F5F5" stroke="black" stroke-width="0.1" stroke-miterlimit="10" stroke-linecap="square"/>
<path id="wsF12442" d="M867.03 69.7075V79.998H912.16V69.7075H867.03Z" fill="#F5F5F5" stroke="black" stroke-width="0.1" stroke-miterlimit="10" stroke-linecap="square"/>
<path id="wsF12448" d="M286.244 158.205V147.915H258.472V158.205H286.244Z" fill="#F5F5F5" stroke="black" stroke-width="0.1" stroke-miterlimit="10" stroke-linecap="square"/>
</g>
</g>
</g>
</svg>
